G04 DipTrace 2.4.0.2*
%INBottom.gbr*%
%MOMM*%
%ADD13C,0.0*%
%FSLAX53Y53*%
G04*
G71*
G90*
G75*
G01*
%LNBottom*%
%LPD*%
X14612Y11446D2*
D13*
D3*
X13709Y13319D2*
D3*
X13027Y12382D2*
D3*
X11892Y12226D2*
D3*
Y11446D2*
D3*
X11128D2*
D3*
G36*
X13164Y15244D2*
X12647Y15295D1*
X12131Y15244D1*
X11634Y15093D1*
X11177Y14849D1*
X10775Y14520D1*
X10446Y14118D1*
X10202Y13661D1*
X10051Y13164D1*
X10000Y12648D1*
X10051Y12131D1*
X10202Y11634D1*
X10446Y11177D1*
X10492Y11446D1*
D1*
Y11696D1*
X10844D1*
Y12476D1*
X11128D1*
X11205D1*
D1*
X11892D1*
X12060Y12382D1*
D1*
Y12982D1*
X13709D1*
Y11446D1*
X13933D1*
D1*
Y13919D1*
X13709D1*
D1*
Y13319D1*
X12060D1*
Y13919D1*
X11686Y13675D1*
D1*
X10544Y13188D1*
X11165Y13714D1*
X10911Y13906D1*
X12013Y14408D1*
X11390Y13870D1*
X11686Y13675D1*
X12060Y13919D1*
X13709D1*
X13933D1*
X14612D1*
Y11446D1*
X13933D1*
X13709D1*
X13027D1*
Y12382D1*
X12060D1*
X11892Y12476D1*
Y12226D1*
X11205D1*
Y12476D1*
X11128D1*
Y11446D1*
X11205D1*
D1*
Y11696D1*
X11608D1*
Y11836D1*
X11205D1*
Y12086D1*
X11892D1*
Y11446D1*
X11205D1*
X11128D1*
X10492D1*
X10446Y11177D1*
X10775Y10775D1*
X11177Y10446D1*
X11634Y10202D1*
X12131Y10051D1*
X12647Y10000D1*
X13164Y10051D1*
X13661Y10202D1*
X14118Y10446D1*
X14520Y10775D1*
X14849Y11177D1*
X15093Y11634D1*
X15244Y12131D1*
X15295Y12648D1*
X15244Y13164D1*
X15093Y13661D1*
X14849Y14118D1*
X14520Y14520D1*
X14118Y14849D1*
X13661Y15093D1*
X13164Y15244D1*
G37*
X10544Y13188D2*
D13*
D3*
M02*
