M48
METRIC,0000.00
T01C0.5
T02C0.8
T03C1.4
%
T01
X+009945Y+003429
X+010507Y+003147
X+010662Y+003530
X+011028Y+004623
X+011640Y+004692
X+011444Y+005159
X+010725Y+005210
X+010305Y+005175
X+009629Y+005205
X+008760Y+003456
X+008225Y+003159
X+007186Y+001915
X+005889Y+002391
X+005272Y+004032
X+004966Y+004290
X+005312Y+004673
X+004515Y+005036
X+003829Y+005061
X+002905Y+004529
X+002704Y+004129
X+002916Y+003520
X+003354Y+003058
X+003639Y+003337
X+003774Y+002648
X+002055Y+004085
X+010119Y+002439
X+011864Y+004166
X+014929Y+004624
X+015628Y+004975
X+016107Y+005074
X+016782Y+005200
X+017238Y+004295
X+017281Y+003682
X+017886Y+003984
X+017880Y+004395
X+017765Y+004798
X+015947Y+003323
X+015614Y+003014
X+015656Y+002656
X+021059Y+003197
X+021714Y+002866
X+022473Y+003094
X+023502Y+003606
X+023948Y+003717
X+023939Y+004233
X+023076Y+004506
X+022583Y+004786
X+023034Y+005078
X+021819Y+004798
X+020933Y+004284
T02
X+006267Y+003121
X+006267Y+003375
X+006267Y+003629
X+006267Y+003883
X+006267Y+004137
X+006267Y+004391
X+006267Y+004645
X+006267Y+004899
X+007662Y+004899
X+007662Y+004645
X+007662Y+004391
X+007662Y+004137
X+007662Y+003883
X+007662Y+003629
X+007662Y+003375
X+007662Y+003121
X+012302Y+003121
X+012302Y+003375
X+012302Y+003629
X+012302Y+003883
X+012302Y+004137
X+012302Y+004391
X+012302Y+004645
X+012302Y+004899
X+013694Y+004899
X+013694Y+004645
X+013694Y+004391
X+013694Y+004137
X+013694Y+003883
X+013694Y+003629
X+013694Y+003375
X+013694Y+003121
X+018334Y+003121
X+018334Y+003375
X+018334Y+003629
X+018334Y+003883
X+018334Y+004137
X+018334Y+004391
X+018334Y+004645
X+018334Y+004899
X+019726Y+004899
X+019726Y+004645
X+019726Y+004391
X+019726Y+004137
X+019726Y+003883
X+019726Y+003629
X+019726Y+003375
X+019726Y+003121
X+024366Y+003121
X+024366Y+003375
X+024366Y+003629
X+024366Y+003883
X+024366Y+004137
X+024366Y+004391
X+024366Y+004645
X+024366Y+004899
X+001627Y+004899
X+001627Y+004645
X+001627Y+004391
X+001627Y+004137
X+001627Y+003883
X+001627Y+003629
X+001627Y+003375
X+001627Y+003121
T03
X+006318Y+001476
X+006668Y+001476
X+007018Y+001476
X+007368Y+001476
X+007718Y+001476
T00
M30
