G04 DipTrace 2.4.0.2*
%INВерхнємаркування.gbr*%
%MOMM*%
%ADD10C,0.25*%
%ADD18O,1.403X1.499*%
%ADD40C,0.196*%
%FSLAX53Y53*%
G04*
G71*
G90*
G75*
G01*
%LNTopSilk*%
%LPD*%
X61726Y16162D2*
D10*
X78626D1*
Y13362D1*
X61726D1*
Y16162D1*
X9365Y10000D2*
X69565D1*
Y70200D1*
X9365D1*
Y10000D1*
D18*
X60363Y29351D3*
X69718Y10000D2*
D10*
X129918D1*
Y70200D1*
X69718D1*
Y10000D1*
D18*
X120716Y29351D3*
X130037Y10000D2*
D10*
X190237D1*
Y70200D1*
X130037D1*
Y10000D1*
D18*
X181035Y29351D3*
X190355Y10000D2*
D10*
X250555D1*
Y70200D1*
X190355D1*
Y10000D1*
D18*
X241354Y29351D3*
X95860Y45332D2*
D10*
X97159D1*
X36176Y43750D2*
X37475D1*
X157449Y43427D2*
X158748D1*
X217611Y41207D2*
X218910D1*
X70131Y15477D2*
D40*
Y14505D1*
X70071Y14323D1*
X70009Y14262D1*
X69888Y14200D1*
X69766D1*
X69645Y14262D1*
X69585Y14323D1*
X69523Y14505D1*
Y14626D1*
X70523Y15232D2*
X70645Y15294D1*
X70828Y15475D1*
Y14200D1*
X39602Y39538D2*
Y40815D1*
X39117Y39538D1*
X38631Y40815D1*
Y39538D1*
X39995Y40570D2*
X40117Y40632D1*
X40299Y40813D1*
Y39538D1*
X99682D2*
Y40815D1*
X99197Y39538D1*
X98711Y40815D1*
Y39538D1*
X100136Y40510D2*
Y40570D1*
X100197Y40692D1*
X100257Y40753D1*
X100379Y40813D1*
X100622D1*
X100743Y40753D1*
X100803Y40692D1*
X100865Y40570D1*
Y40450D1*
X100803Y40327D1*
X100682Y40146D1*
X100075Y39538D1*
X100925D1*
X160001D2*
Y40815D1*
X159516Y39538D1*
X159030Y40815D1*
Y39538D1*
X160516Y40813D2*
X161182D1*
X160819Y40327D1*
X161001D1*
X161122Y40267D1*
X161182Y40207D1*
X161244Y40024D1*
Y39903D1*
X161182Y39721D1*
X161062Y39599D1*
X160879Y39538D1*
X160697D1*
X160516Y39599D1*
X160455Y39661D1*
X160394Y39781D1*
X220289Y39538D2*
Y40815D1*
X219804Y39538D1*
X219318Y40815D1*
Y39538D1*
X221289D2*
Y40813D1*
X220682Y39964D1*
X221593D1*
X96098Y43639D2*
X95978Y43579D1*
X95855Y43457D1*
X95795Y43336D1*
Y43093D1*
X95855Y42971D1*
X95978Y42850D1*
X96098Y42788D1*
X96281Y42728D1*
X96585D1*
X96767Y42788D1*
X96889Y42850D1*
X97009Y42971D1*
X97071Y43093D1*
Y43336D1*
X97009Y43457D1*
X96889Y43579D1*
X96767Y43639D1*
X96039Y44031D2*
X95978Y44153D1*
X95797Y44336D1*
X97071D1*
X36415Y41783D2*
X36294Y41723D1*
X36172Y41601D1*
X36111Y41480D1*
Y41237D1*
X36172Y41115D1*
X36294Y40994D1*
X36415Y40933D1*
X36597Y40872D1*
X36902D1*
X37083Y40933D1*
X37205Y40994D1*
X37326Y41115D1*
X37388Y41237D1*
Y41480D1*
X37326Y41601D1*
X37205Y41723D1*
X37083Y41783D1*
X36416Y42237D2*
X36356D1*
X36234Y42298D1*
X36173Y42358D1*
X36113Y42480D1*
Y42723D1*
X36173Y42844D1*
X36234Y42904D1*
X36356Y42966D1*
X36476D1*
X36599Y42904D1*
X36780Y42783D1*
X37388Y42176D1*
Y43026D1*
X157687Y41461D2*
X157566Y41401D1*
X157444Y41279D1*
X157384Y41158D1*
Y40915D1*
X157444Y40793D1*
X157566Y40672D1*
X157687Y40610D1*
X157869Y40550D1*
X158174D1*
X158355Y40610D1*
X158477Y40672D1*
X158598Y40793D1*
X158660Y40915D1*
Y41158D1*
X158598Y41279D1*
X158477Y41401D1*
X158355Y41461D1*
X157385Y41975D2*
Y42642D1*
X157871Y42279D1*
Y42461D1*
X157931Y42582D1*
X157991Y42642D1*
X158174Y42704D1*
X158295D1*
X158477Y42642D1*
X158599Y42522D1*
X158660Y42339D1*
Y42157D1*
X158599Y41975D1*
X158538Y41915D1*
X158417Y41853D1*
X217849Y39211D2*
X217729Y39151D1*
X217606Y39029D1*
X217546Y38908D1*
Y38665D1*
X217606Y38543D1*
X217729Y38422D1*
X217849Y38360D1*
X218032Y38300D1*
X218336D1*
X218517Y38360D1*
X218640Y38422D1*
X218760Y38543D1*
X218822Y38665D1*
Y38908D1*
X218760Y39029D1*
X218640Y39151D1*
X218517Y39211D1*
X218822Y40211D2*
X217547D1*
X218397Y39603D1*
Y40514D1*
M02*
