G04 DipTrace 2.4.0.2*
%INÂåðõí³é.gbr*%
%MOMM*%
%ADD13C,0.8*%
%ADD14C,0.4*%
%ADD16R,2.3X2.3*%
%ADD17C,2.3*%
%ADD19O,3.0X2.0*%
%ADD22R,1.5X1.3*%
%ADD23C,2.0*%
%FSLAX53Y53*%
G04*
G71*
G90*
G75*
G01*
%LNTop*%
%LPD*%
X217136Y28663D2*
D13*
X217701Y28865D1*
X217260Y30097D1*
X216614Y28959D1*
X217136Y28663D1*
X101194Y24391D2*
X100707Y24743D1*
X99940Y23682D1*
X101245Y23793D1*
X101194Y24391D1*
X159467Y33230D2*
X159968Y33561D1*
X159246Y34653D1*
X158890Y33393D1*
X159467Y33230D1*
X101194Y24391D2*
X101490Y23869D1*
X102628Y24516D1*
X101395Y24956D1*
X101194Y24391D1*
X36392Y33375D2*
X36940Y33618D1*
X36410Y34815D1*
X35850Y33632D1*
X36392Y33375D1*
X217136Y28663D2*
X217334Y29229D1*
X216098Y29661D1*
X216577Y28443D1*
X217136Y28663D1*
X159467Y33230D2*
X159087Y33694D1*
X158074Y32865D1*
X159363Y32639D1*
X159467Y33230D1*
X99447Y34291D2*
X99888Y34732D1*
X98970Y35650D1*
X98849Y34347D1*
X99447Y34291D1*
X218261Y38257D2*
X217911Y38007D1*
X158098Y40477D2*
X158448Y40227D1*
X96510Y42382D2*
X96860Y42132D1*
X36826Y40799D2*
X36476Y40549D1*
X36392Y33375D1*
X36826Y40799D2*
X36476Y41049D1*
X63176Y14762D2*
X62426Y15512D1*
X62026D1*
G02X61907Y15530I0J398D01*
G01*
X36758Y23325D1*
G02X35427Y24119I977J3152D01*
G01*
X31234Y28223D1*
X31191Y28266D1*
X31149Y28310D1*
X26765Y32931D1*
G02X25898Y34693I2394J2271D01*
G01*
X24920Y40962D1*
G02X27621Y43365I2124J332D01*
G01*
X35808Y41086D1*
G03X36076Y41049I268J962D01*
G01*
X36476D1*
X63176Y14762D2*
D3*
X101194Y24391D2*
X78875Y11760D1*
G02X77176Y11312I-1699J3003D01*
G01*
X70176D1*
G02X69042Y11504I-1J3448D01*
G01*
X65920Y12590D1*
X65895Y12598D1*
X65870Y12608D1*
X64186Y13237D1*
G02X63926Y13612I140J375D01*
G01*
Y14012D1*
X63176Y14762D1*
X217136Y28663D2*
X212083Y33524D1*
G03X209248Y33653I-1491J-1549D01*
G01*
X201045Y27082D1*
G02X200159Y26744I-969J1210D01*
G01*
X156674Y24413D1*
G02X154454Y26124I-115J2147D01*
G01*
X153863Y28975D1*
X101194Y24391D1*
X217911Y38007D2*
Y37607D1*
X217910Y37590D1*
X217909Y37572D1*
X217136Y28663D1*
X159467Y33230D2*
X155591Y32215D1*
G03X153996Y30343I545J-2080D01*
G01*
X153863Y28975D1*
X158448Y40227D2*
Y39827D1*
X158449Y39796D1*
X158453Y39766D1*
X159467Y33230D1*
X96860Y42132D2*
Y41732D1*
G03X96882Y41599I400J0D01*
G01*
X99447Y34291D1*
X73676Y14762D2*
D14*
X74177Y15569D1*
X73052Y16268D1*
X72751Y14978D1*
X73676Y14762D1*
X71860Y19146D2*
X71403Y18489D1*
X72426Y17779D1*
X72647Y19004D1*
X71860Y19146D1*
X73676Y14762D2*
X71860Y19146D1*
X66676Y14762D2*
Y13784D1*
X67980D1*
X67582Y15047D1*
X66676Y14762D1*
X110276Y46226D2*
X109545Y45901D1*
X110050Y44763D1*
X110875Y45696D1*
X110276Y46226D1*
X230764Y45063D2*
X230998Y45828D1*
X229807Y46191D1*
X229971Y44957D1*
X230764Y45063D1*
X167815Y52002D2*
X168315Y51378D1*
X169287Y52155D1*
X168176Y52717D1*
X167815Y52002D1*
X167455Y52717D1*
X166343Y52155D1*
X167316Y51378D1*
X167815Y52002D1*
X114443Y51587D2*
X115150Y51212D1*
X115734Y52312D1*
X114491Y52386D1*
X114443Y51587D1*
X53124Y46728D2*
X52749Y46020D1*
X53850Y45438D1*
X53922Y46681D1*
X53124Y46728D1*
X66676Y14762D2*
X68916Y13082D1*
G03X70176Y12662I1260J1680D01*
G01*
X77176D1*
G03X79273Y14665I0J2100D01*
G01*
X79448Y18442D1*
X105832Y29673D1*
G03X106876Y30737I-764J1794D01*
G01*
X108423Y34565D1*
G03X108542Y34998I-1813J732D01*
G01*
X110276Y46226D1*
X230764Y45063D2*
X227320Y49125D1*
G03X226102Y49795I-1487J-1261D01*
G01*
X200318Y53391D1*
G03X200076Y53408I-243J-1743D01*
G01*
X194708D1*
X180774Y53337D1*
X180689Y53334D1*
X180603Y53328D1*
X167815Y52002D1*
X79448Y18442D2*
X73747Y22094D1*
G03X73240Y22363I-1890J-2952D01*
G01*
X60018Y28037D1*
G02X59905Y28165I79J184D01*
G01*
X56077Y41299D1*
G03X55766Y42038I-3361J-979D01*
G01*
X53124Y46728D1*
X167815Y52002D2*
X161274Y52682D1*
X161270D1*
X140848Y54758D1*
G03X140555Y54773I-295J-2910D01*
G01*
X134124D1*
X134108D1*
X134093Y54772D1*
X120588Y54630D1*
G03X119199Y54258I31J-2901D01*
G01*
X114443Y51587D1*
X49655Y42904D2*
X48882Y43108D1*
X48565Y41903D1*
X49792Y42116D1*
X49655Y42904D1*
X29159Y35202D2*
X29215Y34404D1*
X30457Y34492D1*
X29861Y35585D1*
X29159Y35202D1*
X49655Y42904D2*
X37711Y31938D1*
G02X35320Y31746I-1319J1437D01*
G01*
X34614Y32210D1*
X34547Y32252D1*
X34479Y32292D1*
X29159Y35202D1*
X29051Y45291D2*
X28478Y45863D1*
X27602Y44987D1*
X28766Y44543D1*
X29051Y45291D1*
X20546Y40854D2*
X21293Y40569D1*
X21738Y41732D1*
X20495Y41652D1*
X20546Y40854D1*
X29051Y45291D2*
X26325Y44719D1*
G03X24968Y44111I718J-3424D01*
G01*
X20546Y40854D1*
X107253Y52097D2*
X107118Y51309D1*
X108345Y51097D1*
X108027Y52301D1*
X107253Y52097D1*
X118644Y41665D2*
X118780Y42453D1*
X117552Y42664D1*
X117870Y41461D1*
X118644Y41665D1*
X107253Y52097D2*
X118644Y41665D1*
X172383Y42948D2*
X173161Y42760D1*
X173453Y43971D1*
X172231Y43734D1*
X172383Y42948D1*
X177649Y47978D2*
X176871Y48166D1*
X176579Y46956D1*
X177801Y47193D1*
X177649Y47978D1*
X172383Y42948D2*
X177649Y47978D1*
X230337Y50781D2*
X230194Y49994D1*
X231419Y49770D1*
X231113Y50977D1*
X230337Y50781D1*
X239386Y42328D2*
X239529Y43115D1*
X238304Y43338D1*
X238610Y42131D1*
X239386Y42328D1*
X230337Y50781D2*
X239386Y42328D1*
X27044Y41293D2*
X26383Y40843D1*
X27084Y39814D1*
X27729Y40879D1*
X27044Y41293D1*
X70176Y14762D2*
Y15740D1*
X68872D1*
X69270Y14477D1*
X70176Y14762D1*
X27044Y41293D2*
X27210Y35150D1*
G03X27744Y33860I1949J52D01*
G01*
X32128Y29239D1*
X32153Y29213D1*
X32179Y29187D1*
X36371Y25083D1*
G03X37244Y24590I1364J1394D01*
G01*
X67204Y16794D1*
G02X67936Y16442I-528J-2031D01*
G01*
X70176Y14762D1*
X58892Y23907D2*
X58543Y24627D1*
X57422Y24086D1*
X58381Y23291D1*
X58892Y23907D1*
X37735Y26477D2*
X38083Y25756D1*
X39204Y26298D1*
X38246Y27093D1*
X37735Y26477D1*
X58892Y23907D2*
X37735Y26477D1*
X149289Y46243D2*
Y47068D1*
X148060D1*
X148554Y45925D1*
X149289Y46243D1*
X116401Y46916D2*
X117195Y46823D1*
X117341Y48059D1*
X116156Y47678D1*
X116401Y46916D1*
X149289Y46243D2*
X140666Y52038D1*
G03X140555Y52073I-112J-166D01*
G01*
X134124D1*
X120617Y51930D1*
G03X120464Y51857I2J-201D01*
G01*
X116401Y46916D1*
X209330Y42838D2*
X208550D1*
Y41580D1*
X209675Y42116D1*
X209330Y42838D1*
X156559Y26560D2*
X157015Y25903D1*
X158038Y26612D1*
X156968Y27248D1*
X156559Y26560D1*
X209330Y42838D2*
X200246Y28186D1*
G02X200083Y28092I-170J106D01*
G01*
X156559Y26560D1*
X96288Y52048D2*
D13*
X95742Y51798D1*
X96288Y50608D1*
X96833Y51798D1*
X96288Y52048D1*
X218187Y47982D2*
X218428Y47432D1*
X219626Y47959D1*
X218445Y48523D1*
X218187Y47982D1*
X225833Y47864D2*
X225591Y48413D1*
X224393Y47886D1*
X225574Y47322D1*
X225833Y47864D1*
X156281Y49745D2*
X156637Y49262D1*
X157691Y50039D1*
X156415Y50330D1*
X156281Y49745D1*
X161073Y50742D2*
X160717Y51225D1*
X159663Y50449D1*
X160939Y50157D1*
X161073Y50742D1*
X45145Y50356D2*
X45468Y49850D1*
X46572Y50553D1*
X45318Y50930D1*
X45145Y50356D1*
X156281Y49745D2*
X155802Y49384D1*
X156590Y48339D1*
X156868Y49618D1*
X156281Y49745D1*
X38293Y50605D2*
X38523Y50051D1*
X39732Y50553D1*
X38563Y51141D1*
X38293Y50605D1*
X45145Y50356D2*
X44915Y50910D1*
X43706Y50408D1*
X44876Y49820D1*
X45145Y50356D1*
X218187Y47982D2*
X218063Y48569D1*
X216782Y48299D1*
X217823Y47505D1*
X218187Y47982D1*
X161073Y50742D2*
X161247Y50168D1*
X162500Y50550D1*
X161393Y51249D1*
X161073Y50742D1*
X77176Y14762D2*
X77585Y15391D1*
X76214Y16283D1*
X76432Y14662D1*
X77176Y14762D1*
X218187Y47982D2*
X217641Y47732D1*
X218187Y46542D1*
X218732Y47732D1*
X218187Y47982D1*
X96288Y52048D2*
X96546Y51506D1*
X97728Y52069D1*
X96530Y52597D1*
X96288Y52048D1*
X103053Y51754D2*
X103642Y51641D1*
X103772Y52316D1*
X103053Y51754D1*
X45145Y50356D2*
X44556Y50468D1*
X44312Y49181D1*
X45445Y49836D1*
X156281Y49745D2*
X156164Y50334D1*
X154880Y50077D1*
X155912Y49272D1*
X156281Y49745D1*
X96510Y44282D2*
X96288Y44532D1*
X36826Y42699D2*
X37176Y42949D1*
X158098Y42377D2*
X157748Y42627D1*
X38293Y50605D2*
X45145Y50356D1*
X218261Y40157D2*
X218187Y40407D1*
X37176Y42949D2*
X37576D1*
G03X37759Y42993I0J400D01*
G01*
X41164Y44744D1*
X49577Y45053D1*
G02X51042Y44547I79J-2149D01*
G01*
X54103Y41963D1*
G02X54780Y40921I-1387J-1643D01*
G01*
X58609Y27787D1*
G03X59486Y26796I1488J434D01*
G01*
X72707Y21122D1*
G02X73677Y20295I-848J-1976D01*
G01*
X77176Y14762D1*
X103772Y52316D2*
X106037Y53870D1*
G02X108655Y53727I1216J-1773D01*
G01*
X113042Y49957D1*
G03X115770Y49896I1401J1631D01*
G01*
X119662Y52949D1*
G02X120603Y53280I957J-1220D01*
G01*
X134107Y53422D1*
X134116Y53423D1*
X134124D1*
X140555D1*
G02X140911Y53381I1J-1547D01*
G01*
X156281Y49745D1*
X103772Y52316D2*
X103085Y52353D1*
X103053Y51754D1*
X103770Y52318D2*
X103772Y52316D1*
X96288Y52048D2*
X99901Y52100D1*
X102887Y52651D1*
G02X103770Y52318I166J-897D01*
G01*
X96288Y44532D2*
Y52048D1*
X45145Y50356D2*
X41164Y44744D1*
X218187Y47982D2*
X225833Y47864D1*
X161073Y50742D2*
X167528Y49872D1*
G03X168170Y49882I287J2131D01*
G01*
X180717Y51981D1*
X180749Y51985D1*
X180781Y51987D1*
X194715Y52058D1*
X200076D1*
X200120Y52056D1*
X200164Y52048D1*
X218187Y47982D1*
X156281Y49745D2*
X161073Y50742D1*
X157748Y42627D2*
Y43027D1*
X157746Y43070D1*
X157739Y43113D1*
X156281Y49745D1*
X45145Y50356D2*
X60043Y52412D1*
X60060Y52414D1*
X60078Y52415D1*
X96182Y54195D1*
G02X97542Y53794I106J-2148D01*
G01*
X99901Y52100D1*
X218187Y40407D2*
Y47982D1*
X33543Y30581D2*
D14*
X33896Y29863D1*
X35013Y30412D1*
X34049Y31200D1*
X33543Y30581D1*
X52716Y40320D2*
X51987Y40647D1*
X51477Y39511D1*
X52716D1*
Y40320D1*
X33543Y30581D2*
X36039Y30295D1*
G03X38085Y30778I353J3079D01*
G01*
X52716Y40320D1*
X106615Y35296D2*
X105949Y35739D1*
X105259Y34703D1*
X106488Y34506D1*
X106615Y35296D1*
X87602Y34562D2*
X87901Y33820D1*
X89056Y34286D1*
X88153Y35143D1*
X87602Y34562D1*
X106615Y35296D2*
X100227Y32505D1*
G02X99082Y32376I-781J1787D01*
G01*
X87602Y34562D1*
X105068Y31468D2*
X104603Y32118D1*
X103590Y31394D1*
X104670Y30774D1*
X105068Y31468D1*
X82254Y31589D2*
X82671Y30906D1*
X83734Y31555D1*
X82702Y32252D1*
X82254Y31589D1*
X105068Y31468D2*
X99601Y31195D1*
X99488Y31192D1*
X99375D1*
X82254Y31589D1*
X172808Y36825D2*
X173495Y36415D1*
X174133Y37484D1*
X172896Y37620D1*
X172808Y36825D1*
X178860Y39836D2*
X178173Y40246D1*
X177535Y39176D1*
X178772Y39041D1*
X178860Y39836D1*
X172808Y36825D2*
X178860Y39836D1*
X156136Y30135D2*
X156750Y29623D1*
X157547Y30580D1*
X156346Y30907D1*
X156136Y30135D1*
X178798Y43955D2*
X178063Y44270D1*
X177572Y43125D1*
X178798D1*
Y43955D1*
X156136Y30135D2*
X160053Y31370D1*
G03X160560Y31615I-587J1861D01*
G01*
X178798Y43955D1*
X224731Y30938D2*
X225477Y30650D1*
X225924Y31812D1*
X224681Y31736D1*
X224731Y30938D1*
X239480Y37174D2*
X239185Y37918D1*
X238027Y37459D1*
X238896Y36591D1*
X239480Y37174D1*
X224731Y30938D2*
X233871Y37636D1*
G02X235400Y37976I1153J-1573D01*
G01*
X239480Y37174D1*
X210593Y31975D2*
X210460Y31186D1*
X211688Y30979D1*
X211365Y32182D1*
X210593Y31975D1*
X235023Y36063D2*
X234277Y36350D1*
X233830Y35188D1*
X235072Y35265D1*
X235023Y36063D1*
X210593Y31975D2*
X215824Y27220D1*
G03X217695Y26795I1312J1443D01*
G01*
X225290Y29070D1*
G03X225883Y29365I-559J1867D01*
G01*
X235023Y36063D1*
D23*
X99447Y34291D3*
X217136Y28663D3*
X36392Y33375D3*
X159467Y33230D3*
X101194Y24391D3*
X71860Y19146D3*
X53124Y46728D3*
X114443Y51587D3*
X230764Y45063D3*
X110276Y46226D3*
X167815Y52002D3*
X49655Y42904D3*
X29159Y35202D3*
X29051Y45291D3*
X20546Y40854D3*
X107253Y52097D3*
X118644Y41665D3*
X172383Y42948D3*
X177649Y47978D3*
X230337Y50781D3*
X239386Y42328D3*
X27044Y41293D3*
X58892Y23907D3*
X37735Y26477D3*
X149289Y46243D3*
X116401Y46916D3*
X209330Y42838D3*
X156559Y26560D3*
X225833Y47864D3*
X38293Y50605D3*
X103053Y51754D3*
X161073Y50742D3*
X156281Y49745D3*
X218187Y47982D3*
X45145Y50356D3*
X96288Y52048D3*
X33543Y30581D3*
X52716Y40320D3*
X106615Y35296D3*
X87602Y34562D3*
X105068Y31468D3*
X82254Y31589D3*
X172808Y36825D3*
X178860Y39836D3*
X156136Y30135D3*
X178798Y43955D3*
X224731Y30938D3*
X239480Y37174D3*
X210593Y31975D3*
X235023Y36063D3*
D16*
X63176Y14762D3*
D17*
X66676D3*
X70176D3*
X73676D3*
X77176D3*
D19*
X62665Y31210D3*
Y33750D3*
Y36290D3*
Y38830D3*
Y41370D3*
Y43910D3*
Y46450D3*
Y48990D3*
X16265Y31210D3*
Y33750D3*
Y36290D3*
Y38830D3*
Y41370D3*
Y43910D3*
Y46450D3*
Y48990D3*
X123018Y31210D3*
Y33750D3*
Y36290D3*
Y38830D3*
Y41370D3*
Y43910D3*
Y46450D3*
Y48990D3*
X76618Y31210D3*
Y33750D3*
Y36290D3*
Y38830D3*
Y41370D3*
Y43910D3*
Y46450D3*
Y48990D3*
X183337Y31210D3*
Y33750D3*
Y36290D3*
Y38830D3*
Y41370D3*
Y43910D3*
Y46450D3*
Y48990D3*
X136937Y31210D3*
Y33750D3*
Y36290D3*
Y38830D3*
Y41370D3*
Y43910D3*
Y46450D3*
Y48990D3*
X243655Y31210D3*
Y33750D3*
Y36290D3*
Y38830D3*
Y41370D3*
Y43910D3*
Y46450D3*
Y48990D3*
X197255Y31210D3*
Y33750D3*
Y36290D3*
Y38830D3*
Y41370D3*
Y43910D3*
Y46450D3*
Y48990D3*
D22*
X96510Y44282D3*
Y42382D3*
X36826Y42699D3*
Y40799D3*
X158098Y42377D3*
Y40477D3*
X218261Y40157D3*
Y38257D3*
M02*
