M48
;FILE_FORMAT=3:3
METRIC,LZ
T1C0.5;
T2C1;
T3C0.8;
;TYPE=PLATED
%
T1
X158450Y042002
X043351Y030319
X093687Y041754
X095703Y021467
X090081Y024291
X040290Y032904
X043758Y036727
X100911Y036226
X107035Y036916
X105078Y041587
X169432Y033954
X216467Y037863
X221399Y035062
X017679Y031293
X027026Y023374
X024177Y020580
X019793Y025202
X011181Y030854
X019685Y035290
X091828Y014391
X097250Y025295
X109278Y031664
X086922Y042047
X097888Y042097
X168283Y037978
X163443Y026825
X163018Y032948
X225658Y026063
X230114Y027173
X230020Y032328
X220972Y040780
X028370Y016476
X062494Y009146
X049526Y013907
X146916Y039745
X139923Y036242
X150101Y023230
X151707Y040742
X146770Y020135
X169494Y029835
X207770Y018662
X201227Y021974
X208821Y037981
X199965Y032838
X147194Y016560
X072889Y021588
X035780Y040355
X028928Y040605
X078237Y024562
X215365Y020937
T2
X067810Y004762
X057310Y004762
X053810Y004762
X064310Y004762
X060810Y004762
T3
X234290Y038990
X053300Y023750
X053300Y021210
X053300Y028830
X053300Y026290
X053300Y033910
X053300Y031370
X053300Y038990
X053300Y036450
X006900Y023750
X006900Y021210
X006900Y028830
X006900Y026290
X006900Y033910
X006900Y031370
X006900Y038990
X006900Y036450
X113653Y023750
X113653Y021210
X113653Y028830
X113653Y026290
X113653Y033910
X113653Y031370
X113653Y038990
X113653Y036450
X067253Y023750
X067253Y021210
X067253Y028830
X067253Y026290
X067253Y033910
X067253Y031370
X067253Y038990
X067253Y036450
X173972Y023750
X173972Y021210
X173972Y028830
X173972Y026290
X173972Y033910
X173972Y031370
X173972Y038990
X173972Y036450
X127572Y023750
X127572Y021210
X127572Y028830
X127572Y026290
X127572Y033910
X127572Y031370
X127572Y038990
X127572Y036450
X234290Y023750
X234290Y021210
X234290Y028830
X234290Y026290
X234290Y033910
X234290Y031370
X234290Y036450
X187890Y023750
X187890Y021210
X187890Y028830
X187890Y026290
X187890Y033910
X187890Y031370
X187890Y038990
X187890Y036450
T00
M30
