%FSLAX44Y44*%
%OFA0.0000B0.0000*%
%SFA1B1*%
%MOMM*%
%AMFRECTNOHOLE10*
21,1,2.3000,2.3000,0.0000,0.0000,0*
%
%AMFRECTNOHOLE11*
21,1,1.5000,1.3000,0.0000,0.0000,0*
%
%ADD10FRECTNOHOLE10*%
%ADD11FRECTNOHOLE11*%
%ADD12C,0.3333X0.0000*%
%ADD13C,0.8000X0.0000*%
%ADD14C,0.4000X0.0000*%
%ADD15C,2.0000X0.0000*%
%ADD16C,2.3000X0.0000*%
%LNÂåðõí³é*%
%LPD*%
G54D10*
X538106Y47620D3*
G54D11*
X2088955Y282569D3*
X2088955Y301569D3*
X1487331Y304768D3*
X1487331Y323768D3*
X274609Y307990D3*
X274609Y326990D3*
X871446Y323816D3*
X871446Y342816D3*
G54D12*
X2406349Y0D2*
X6349Y0D1*
X2406349Y602000D2*
X2406349Y0D1*
X6349Y602000D2*
X2406349Y602000D1*
X6349Y0D2*
X6349Y602000D1*
G54D13*
X1315464Y433810D2*
X1469163Y397455D1*
G75*
G01X1315464Y433810D2*
G03X1311895Y434226I-3569J-15089D1*
G74*
X1247588Y434226D2*
X1311895Y434226D1*
G75*
G01X1247588Y434226D2*
G03X1247424Y434225I0J-15505D1*
G74*
X1112376Y432796D2*
X1247424Y434225D1*
G75*
G01X1112376Y432796D2*
G03X1102970Y429491I164J-15504D1*
G74*
X1064053Y398959D2*
X1102970Y429491D1*
G75*
G01X1036768Y399570D2*
G03X1064053Y398959I14014J16305D1*
G74*
X992897Y437275D2*
X1036768Y399570D1*
G75*
G01X992897Y437275D2*
G03X966723Y438701I-14014J-16305D1*
G74*
X944065Y423161D2*
X966723Y438701D1*
X357803Y403558D2*
X317991Y347444D1*
X936876Y417541D2*
X944065Y423161D1*
X905359Y420998D2*
X869226Y420477D1*
X2088215Y308069D2*
X2088215Y379817D1*
X2088215Y304069D2*
X2088215Y308069D1*
X2088955Y301569D2*
X2088215Y304069D1*
X402115Y350528D2*
X317991Y347444D1*
G75*
G01X416773Y345470D2*
G03X402115Y350528I-13870J-16428D1*
G74*
X447383Y319626D2*
X416773Y345470D1*
G75*
G01X454154Y309214D2*
G03X447383Y319626I-20641J-6016D1*
G74*
X492438Y177869D2*
X454154Y309214D1*
G75*
G01X492438Y177869D2*
G03X501209Y167960I14886J4339D1*
G74*
X633424Y111221D2*
X501209Y167960D1*
G75*
G01X643117Y102954D2*
G03X633424Y111221I-18172J-11491D1*
G74*
X678106Y47620D2*
X643117Y102954D1*
X1581628Y398718D2*
X1517075Y407423D1*
G75*
G01X1581628Y398718D2*
G03X1588049Y398820I2873J21307D1*
G74*
X1713522Y419813D2*
X1588049Y398820D1*
G75*
G01X1714162Y419868D2*
G03X1713522Y419813I21J-4005D1*
G74*
X1853497Y420582D2*
X1714162Y419868D1*
X1853518Y420582D2*
X1853497Y420582D1*
X1907108Y420582D2*
X1853518Y420582D1*
G75*
G01X1907990Y420484D2*
G03X1907108Y420582I-882J-3907D1*
G74*
X2088215Y379817D2*
X1907990Y420484D1*
X289282Y406051D2*
X357803Y403558D1*
X1483738Y331126D2*
X1469163Y397455D1*
G75*
G01X1483831Y330268D2*
G03X1483738Y331126I-4000J0D1*
G74*
X1483831Y326268D2*
X1483831Y330268D1*
X1487331Y323768D2*
X1483831Y326268D1*
X881767Y437940D2*
X905359Y420998D1*
G75*
G01X881767Y437940D2*
G03X868167Y441951I-12541J-17463D1*
G74*
X507127Y424149D2*
X868167Y441951D1*
G75*
G01X507127Y424149D2*
G03X506776Y424116I197J-4000D1*
G74*
X357803Y403558D2*
X506776Y424116D1*
X944051Y423179D2*
X944065Y423161D1*
G75*
G01X944051Y423179D2*
G03X935218Y426514I-7175J-5638D1*
G74*
X905359Y420998D2*
X935218Y426514D1*
X1469163Y397455D2*
X1517075Y407423D1*
X2088215Y379817D2*
X2164675Y378636D1*
X283938Y329933D2*
X317991Y347444D1*
G75*
G01X282109Y329490D2*
G03X283938Y329933I0J4000D1*
G74*
X278109Y329490D2*
X282109Y329490D1*
X274609Y326990D2*
X278109Y329490D1*
X869226Y349316D2*
X869226Y420477D1*
X869226Y345316D2*
X869226Y349316D1*
X871446Y342816D2*
X869226Y345316D1*
X875172Y315991D2*
X900816Y242915D1*
G75*
G01X874946Y317316D2*
G03X875172Y315991I4000J0D1*
G74*
X874946Y321316D2*
X874946Y317316D1*
X871446Y323816D2*
X874946Y321316D1*
X1462261Y222153D2*
X1501019Y232300D1*
G75*
G01X1462261Y222153D2*
G03X1446306Y203430I5445J-20799D1*
G74*
X1444979Y189746D2*
X1446306Y203430D1*
X2027182Y235242D2*
X2077706Y186626D1*
G75*
G01X2027182Y235242D2*
G03X1998834Y236529I-14907J-15493D1*
G74*
X1916802Y170821D2*
X1998834Y236529D1*
G75*
G01X1907939Y167439D2*
G03X1916802Y170821I-830J15483D1*
G74*
X1473094Y144135D2*
X1907939Y167439D1*
G75*
G01X1450891Y161238D2*
G03X1473094Y144135I21052J4366D1*
G74*
X1444979Y189746D2*
X1450891Y161238D1*
X271109Y310490D2*
X274609Y307990D1*
X267109Y310490D2*
X271109Y310490D1*
G75*
G01X264427Y310856D2*
G03X267109Y310490I2682J9634D1*
G74*
X182556Y333646D2*
X264427Y310856D1*
G75*
G01X182556Y333646D2*
G03X155547Y309618I-5766J-20712D1*
G74*
X165333Y246934D2*
X155547Y309618D1*
G75*
G01X165333Y246934D2*
G03X173996Y229313I32605J5090D1*
G74*
X217835Y183098D2*
X173996Y229313D1*
G75*
G01X217835Y183098D2*
G03X218692Y182227I23942J22711D1*
G74*
X260617Y141185D2*
X218692Y182227D1*
G75*
G01X260617Y141185D2*
G03X273932Y133246I23085J23582D1*
G74*
X525422Y55299D2*
X273932Y133246D1*
G75*
G01X525422Y55299D2*
G03X526606Y55120I1184J3821D1*
G74*
X530606Y55120D2*
X526606Y55120D1*
X538106Y47620D2*
X530606Y55120D1*
X271109Y305490D2*
X274609Y307990D1*
X271109Y301490D2*
X271109Y305490D1*
X271109Y301440D2*
X271109Y301490D1*
X270268Y233749D2*
X271109Y301440D1*
X1444979Y189746D2*
X918286Y143911D1*
X1490878Y297655D2*
X1501019Y232300D1*
G75*
G01X1490831Y298268D2*
G03X1490878Y297655I4000J0D1*
G74*
X1490831Y302268D2*
X1490831Y298268D1*
X1487331Y304768D2*
X1490831Y302268D1*
X695099Y17595D2*
X918286Y143911D1*
G75*
G01X678106Y13120D2*
G03X695099Y17595I0J34500D1*
G74*
X608106Y13120D2*
X678106Y13120D1*
G75*
G01X596770Y15035D2*
G03X608106Y13120I11336J32585D1*
G74*
X565549Y25897D2*
X596770Y15035D1*
G75*
G01X565053Y26076D2*
G03X565549Y25897I8053J21544D1*
G74*
X548206Y32373D2*
X565053Y26076D1*
G75*
G01X545606Y36120D2*
G03X548206Y32373I4000J0D1*
G74*
X545606Y40120D2*
X545606Y36120D1*
X538106Y47620D2*
X545606Y40120D1*
X2085440Y275723D2*
X2077706Y186626D1*
G75*
G01X2085440Y275723D2*
G03X2085455Y276069I-3985J346D1*
G74*
X2085455Y280069D2*
X2085455Y276069D1*
X2088955Y282569D2*
X2085455Y280069D1*
X1455150Y400770D2*
X1467986Y403339D1*
X1455150Y400770D2*
X1465474Y392723D1*
X349471Y391814D2*
X351908Y404675D1*
X349471Y391814D2*
X360804Y398363D1*
X944065Y423161D2*
X942768Y416410D1*
X944065Y423161D2*
X937200Y423532D1*
X883625Y420685D2*
X871805Y415059D1*
X883625Y420685D2*
X871647Y425967D1*
X2088215Y365417D2*
X2082761Y377317D1*
X2088215Y365417D2*
X2093669Y377317D1*
X668486Y62834D2*
X682199Y53905D1*
X668486Y62834D2*
X670673Y46617D1*
X1531346Y405499D2*
X1518824Y401684D1*
X1531346Y405499D2*
X1520282Y412494D1*
X2074168Y382987D2*
X2086977Y385688D1*
X2074168Y382987D2*
X2084575Y375046D1*
X343413Y404082D2*
X355503Y409100D1*
X343413Y404082D2*
X355107Y398198D1*
X303672Y405527D2*
X291582Y400509D1*
X303672Y405527D2*
X291978Y411411D1*
X1472253Y383391D2*
X1464372Y393843D1*
X1472253Y383391D2*
X1475026Y396183D1*
X372068Y405527D2*
X361026Y398497D1*
X372068Y405527D2*
X359534Y409303D1*
X1502977Y404490D2*
X1513516Y412254D1*
X1502977Y404490D2*
X1515738Y401574D1*
X1483261Y400388D2*
X1472722Y392624D1*
X1483261Y400388D2*
X1470500Y403304D1*
X2150277Y378858D2*
X2162259Y384129D1*
X2150277Y378858D2*
X2162091Y373221D1*
X2102613Y379595D2*
X2090631Y374324D1*
X2102613Y379595D2*
X2090799Y385232D1*
X869226Y406077D2*
X863772Y417977D1*
X869226Y406077D2*
X874680Y417977D1*
X896048Y256503D2*
X905135Y247080D1*
X896048Y256503D2*
X894841Y243468D1*
X1487088Y228653D2*
X1497219Y236944D1*
X1487088Y228653D2*
X1499981Y226390D1*
X2067330Y196611D2*
X2079687Y192290D1*
X2067330Y196611D2*
X2072123Y184430D1*
X270447Y248148D2*
X275753Y236181D1*
X270447Y248148D2*
X264845Y236317D1*
X932632Y145159D2*
X921250Y138694D1*
X932632Y145159D2*
X920304Y149562D1*
X1498811Y246530D2*
X1506026Y235606D1*
X1498811Y246530D2*
X1495246Y233934D1*
X905754Y136818D2*
X913423Y147427D1*
X905754Y136818D2*
X918797Y137933D1*
X2078951Y200972D2*
X2083356Y188645D1*
X2078951Y200972D2*
X2072488Y189589D1*
G54D14*
X2165182Y193647D2*
X2256582Y260631D1*
G75*
G01X2159250Y190695D2*
G03X2165182Y193647I-5595J18680D1*
G74*
X2083301Y167946D2*
X2159250Y190695D1*
G75*
G01X2064590Y172196D2*
G03X2083301Y167946I13116J14430D1*
G74*
X2012275Y219749D2*
X2064590Y172196D1*
X2260346Y279764D2*
X2301145Y271738D1*
G75*
G01X2260346Y279764D2*
G03X2245055Y276359I-3764J-19133D1*
G74*
X2153655Y209375D2*
X2245055Y276359D1*
X1511946Y216149D2*
X1694329Y339547D1*
G75*
G01X1506881Y213702D2*
G03X1511946Y216149I-5862J18598D1*
G74*
X1467706Y201354D2*
X1506881Y213702D1*
X1634433Y268250D2*
X1694947Y298358D1*
X900098Y211923D2*
X728894Y215889D1*
G75*
G01X900098Y211923D2*
G03X902358Y211953I718J30992D1*
G74*
X957033Y214676D2*
X902358Y211953D1*
X897167Y223759D2*
X782374Y245625D1*
G75*
G01X897167Y223759D2*
G03X908624Y225046I3649J19156D1*
G74*
X972500Y252958D2*
X908624Y225046D1*
X287202Y207783D2*
X433513Y303198D1*
G75*
G01X266741Y202950D2*
G03X287202Y207783I3527J30799D1*
G74*
X241777Y205809D2*
X266741Y202950D1*
X1907180Y180918D2*
X1471943Y165604D1*
G75*
G01X1907180Y180918D2*
G03X1908813Y181865I-71J2004D1*
G74*
X1999653Y328380D2*
X1908813Y181865D1*
X1110991Y418566D2*
X1070359Y369164D1*
G75*
G01X1112519Y419297D2*
G03X1110991Y418566I21J-2005D1*
G74*
X1247567Y420726D2*
X1112519Y419297D1*
X1247588Y420726D2*
X1247567Y420726D1*
X1311895Y420726D2*
X1247588Y420726D1*
G75*
G01X1313014Y420385D2*
G03X1311895Y420726I-1119J-1664D1*
G74*
X1399236Y362428D2*
X1313014Y420385D1*
X495266Y139072D2*
X283702Y164767D1*
X585706Y64420D2*
X608106Y47620D1*
G75*
G01X585706Y64420D2*
G03X578394Y67943I-12600J-16800D1*
G74*
X278792Y145895D2*
X578394Y67943D1*
G75*
G01X270061Y150832D2*
G03X278792Y145895I13641J13935D1*
G74*
X228136Y191874D2*
X270061Y150832D1*
G75*
G01X227630Y192389D2*
G03X228136Y191874I14147J13420D1*
G74*
X183791Y238604D2*
X227630Y192389D1*
G75*
G01X178445Y251499D2*
G03X183791Y238604I19493J525D1*
G74*
X176790Y312934D2*
X178445Y251499D1*
X2209720Y407806D2*
X2300208Y323281D1*
X1630180Y329483D2*
X1682837Y379783D1*
X978883Y420970D2*
X1092788Y316649D1*
X156033Y341114D2*
X111811Y308541D1*
G75*
G01X169601Y347188D2*
G03X156033Y341114I7189J-34254D1*
G74*
X196856Y352908D2*
X169601Y347188D1*
X251137Y222916D2*
X197938Y252024D1*
G75*
G01X252493Y222100D2*
G03X251137Y222916I-10716J-16291D1*
G74*
X259552Y217458D2*
X252493Y222100D1*
G75*
G01X259552Y217458D2*
G03X283455Y219384I10716J16291D1*
G74*
X402903Y329042D2*
X283455Y219384D1*
X464007Y320378D2*
X437585Y367276D1*
G75*
G01X467115Y312992D2*
G03X464007Y320378I-33602J-9794D1*
G74*
X505399Y181647D2*
X467115Y312992D1*
G75*
G01X505399Y181647D2*
G03X506533Y180365I1925J561D1*
G74*
X638748Y123626D2*
X506533Y180365D1*
G75*
G01X643823Y120935D2*
G03X638748Y123626I-18878J-29472D1*
G74*
X700829Y84421D2*
X643823Y120935D1*
X1098337Y442582D2*
X1050782Y415875D1*
G75*
G01X1112233Y446295D2*
G03X1098337Y442582I307J-29003D1*
G74*
X1247281Y447724D2*
X1112233Y446295D1*
G75*
G01X1247588Y447726D2*
G03X1247281Y447724I0J-29005D1*
G74*
X1311895Y447726D2*
X1247588Y447726D1*
G75*
G01X1314828Y447577D2*
G03X1311895Y447726I-2933J-28856D1*
G74*
X1519047Y426823D2*
X1314828Y447577D1*
X1519089Y426819D2*
X1519047Y426823D1*
X1584501Y420025D2*
X1519089Y426819D1*
X1712379Y433275D2*
X1584501Y420025D1*
G75*
G01X1714093Y433368D2*
G03X1712379Y433275I90J-17505D1*
G74*
X1853428Y434082D2*
X1714093Y433368D1*
X1853518Y434082D2*
X1853428Y434082D1*
X1907108Y434082D2*
X1853518Y434082D1*
G75*
G01X1909526Y433914D2*
G03X1907108Y434082I-2418J-17337D1*
G74*
X2167369Y397949D2*
X1909526Y433914D1*
G75*
G01X2179548Y391248D2*
G03X2167369Y397949I-14873J-12612D1*
G74*
X2213993Y350627D2*
X2179548Y391248D1*
X964671Y196734D2*
X700829Y84421D1*
G75*
G01X964671Y196734D2*
G03X975113Y207371I-7638J17942D1*
G74*
X990580Y245653D2*
X975113Y207371D1*
G75*
G01X990580Y245653D2*
G03X991772Y249982I-18080J7305D1*
G74*
X1009110Y362261D2*
X991772Y249982D1*
X699084Y46651D2*
X700829Y84421D1*
G75*
G01X678106Y26620D2*
G03X699084Y46651I0J21000D1*
G74*
X608106Y26620D2*
X678106Y26620D1*
G75*
G01X595506Y30820D2*
G03X608106Y26620I12600J16800D1*
G74*
X573106Y47620D2*
X595506Y30820D1*
X643106Y47620D2*
X624945Y91463D1*
X2244645Y251882D2*
X2249115Y263504D1*
X2244645Y251882D2*
X2257073Y252646D1*
X2023227Y209794D2*
X2010948Y211859D1*
X2023227Y209794D2*
X2020002Y221821D1*
X2286623Y274595D2*
X2298201Y279177D1*
X2286623Y274595D2*
X2295603Y265969D1*
X2165592Y218124D2*
X2161122Y206502D1*
X2165592Y218124D2*
X2153164Y217360D1*
X1682071Y331253D2*
X1686975Y342699D1*
X1682071Y331253D2*
X1694519Y331549D1*
X1481821Y205803D2*
X1473853Y196235D1*
X1481821Y205803D2*
X1469807Y209073D1*
X1681696Y291765D2*
X1688077Y302458D1*
X1681696Y291765D2*
X1694073Y290406D1*
X1647684Y274843D2*
X1641303Y264150D1*
X1647684Y274843D2*
X1635307Y276202D1*
X743690Y215546D2*
X733061Y209060D1*
X743690Y215546D2*
X733373Y222518D1*
X942251Y213940D2*
X952379Y221183D1*
X942251Y213940D2*
X953049Y207739D1*
X796913Y242856D2*
X785363Y238204D1*
X796913Y242856D2*
X787881Y251428D1*
X958938Y247032D2*
X965842Y257395D1*
X958938Y247032D2*
X971232Y245059D1*
X421116Y295114D2*
X426215Y306474D1*
X421116Y295114D2*
X433567Y295198D1*
X256481Y204125D2*
X245307Y198630D1*
X256481Y204125D2*
X246839Y212004D1*
X1486734Y166124D2*
X1476501Y159030D1*
X1486734Y166124D2*
X1476029Y172482D1*
X1991854Y315801D2*
X1991653Y328252D1*
X1991854Y315801D2*
X2003095Y321158D1*
X1079760Y380594D2*
X1078304Y368229D1*
X1079760Y380594D2*
X1067908Y376779D1*
X1386953Y370684D2*
X1399402Y370426D1*
X1386953Y370684D2*
X1391892Y359254D1*
X298394Y162983D2*
X287184Y157565D1*
X298394Y162983D2*
X288806Y170927D1*
X480574Y140856D2*
X491784Y146274D1*
X480574Y140856D2*
X490162Y132912D1*
X595066Y57400D2*
X608309Y57118D1*
X595066Y57400D2*
X599045Y44766D1*
X177189Y298139D2*
X170179Y308430D1*
X177189Y298139D2*
X183635Y308792D1*
X2289393Y333384D2*
X2301643Y331151D1*
X2289393Y333384D2*
X2292453Y321315D1*
X2220535Y397703D2*
X2208285Y399936D1*
X2220535Y397703D2*
X2217475Y409772D1*
X1672135Y369560D2*
X1675061Y381663D1*
X1672135Y369560D2*
X1684359Y371929D1*
X1640882Y339706D2*
X1637956Y327603D1*
X1640882Y339706D2*
X1628658Y337337D1*
X1081874Y326645D2*
X1094145Y324533D1*
X1081874Y326645D2*
X1085053Y314607D1*
X989797Y410974D2*
X977526Y413086D1*
X989797Y410974D2*
X986618Y423012D1*
X123727Y317318D2*
X119284Y305686D1*
X123727Y317318D2*
X111302Y316524D1*
X182372Y349868D2*
X191242Y358607D1*
X182372Y349868D2*
X194006Y345433D1*
X210922Y244920D2*
X198501Y244043D1*
X210922Y244920D2*
X204963Y255853D1*
X392001Y319033D2*
X395166Y331076D1*
X392001Y319033D2*
X404270Y321160D1*
X444850Y354382D2*
X433844Y360205D1*
X444850Y354382D2*
X445572Y366813D1*
X1063686Y423122D2*
X1057848Y412124D1*
X1063686Y423122D2*
X1051256Y423860D1*
X1569780Y421554D2*
X1580895Y427167D1*
X1569780Y421554D2*
X1579505Y413777D1*
X1599222Y421550D2*
X1589496Y413776D1*
X1599222Y421550D2*
X1588108Y427166D1*
X2204421Y361915D2*
X2216329Y358278D1*
X2204421Y361915D2*
X2206063Y349572D1*
X1006851Y347634D2*
X1001798Y359014D1*
X1006851Y347634D2*
X1015102Y356960D1*
X586146Y37840D2*
X572903Y38122D1*
X586146Y37840D2*
X582167Y50474D1*
X630609Y77790D2*
X620382Y84892D1*
X630609Y77790D2*
X632818Y90044D1*
X636868Y62679D2*
X648119Y55689D1*
X636868Y62679D2*
X633855Y49781D1*
G54D15*
X1873903Y389900D2*
X1883903Y389900D1*
X1873903Y364500D2*
X1883903Y364500D1*
X1873903Y339100D2*
X1883903Y339100D1*
X1873903Y313700D2*
X1883903Y313700D1*
X1873903Y288300D2*
X1883903Y288300D1*
X1873903Y262900D2*
X1883903Y262900D1*
X1873903Y237500D2*
X1883903Y237500D1*
X1873903Y212100D2*
X1883903Y212100D1*
X2337903Y389900D2*
X2347903Y389900D1*
X2337903Y364500D2*
X2347903Y364500D1*
X2337903Y339100D2*
X2347903Y339100D1*
X2337903Y313700D2*
X2347903Y313700D1*
X2337903Y288300D2*
X2347903Y288300D1*
X2337903Y262900D2*
X2347903Y262900D1*
X2337903Y237500D2*
X2347903Y237500D1*
X2337903Y212100D2*
X2347903Y212100D1*
X1270720Y389900D2*
X1280720Y389900D1*
X1270720Y364500D2*
X1280720Y364500D1*
X1270720Y339100D2*
X1280720Y339100D1*
X1270720Y313700D2*
X1280720Y313700D1*
X1270720Y288300D2*
X1280720Y288300D1*
X1270720Y262900D2*
X1280720Y262900D1*
X1270720Y237500D2*
X1280720Y237500D1*
X1270720Y212100D2*
X1280720Y212100D1*
X1734720Y389900D2*
X1744720Y389900D1*
X1734720Y364500D2*
X1744720Y364500D1*
X1734720Y339100D2*
X1744720Y339100D1*
X1734720Y313700D2*
X1744720Y313700D1*
X1734720Y288300D2*
X1744720Y288300D1*
X1734720Y262900D2*
X1744720Y262900D1*
X1734720Y237500D2*
X1744720Y237500D1*
X1734720Y212100D2*
X1744720Y212100D1*
X667530Y389900D2*
X677530Y389900D1*
X667530Y364500D2*
X677530Y364500D1*
X667530Y339100D2*
X677530Y339100D1*
X667530Y313700D2*
X677530Y313700D1*
X667530Y288300D2*
X677530Y288300D1*
X667530Y262900D2*
X677530Y262900D1*
X667530Y237500D2*
X677530Y237500D1*
X667530Y212100D2*
X677530Y212100D1*
X1131530Y389900D2*
X1141530Y389900D1*
X1131530Y364500D2*
X1141530Y364500D1*
X1131530Y339100D2*
X1141530Y339100D1*
X1131530Y313700D2*
X1141530Y313700D1*
X1131530Y288300D2*
X1141530Y288300D1*
X1131530Y262900D2*
X1141530Y262900D1*
X1131530Y237500D2*
X1141530Y237500D1*
X1131530Y212100D2*
X1141530Y212100D1*
X64000Y389900D2*
X74000Y389900D1*
X64000Y364500D2*
X74000Y364500D1*
X64000Y339100D2*
X74000Y339100D1*
X64000Y313700D2*
X74000Y313700D1*
X64000Y288300D2*
X74000Y288300D1*
X64000Y262900D2*
X74000Y262900D1*
X64000Y237500D2*
X74000Y237500D1*
X64000Y212100D2*
X74000Y212100D1*
X528000Y389900D2*
X538000Y389900D1*
X528000Y364500D2*
X538000Y364500D1*
X528000Y339100D2*
X538000Y339100D1*
X528000Y313700D2*
X538000Y313700D1*
X528000Y288300D2*
X538000Y288300D1*
X528000Y262900D2*
X538000Y262900D1*
X528000Y237500D2*
X538000Y237500D1*
X528000Y212100D2*
X538000Y212100D1*
X918286Y143911D3*
X869226Y420477D3*
X357803Y403558D3*
X1501019Y232300D3*
X1584501Y420025D3*
X2088215Y379817D3*
X1009110Y362261D3*
X270268Y233749D3*
X1469163Y397455D3*
X1517075Y407423D3*
X624945Y91463D3*
X936876Y417541D3*
X2077706Y186626D3*
X2256582Y260631D3*
X2012275Y219749D3*
X2301145Y271738D3*
X2153655Y209375D3*
X1694329Y339547D3*
X1467706Y201354D3*
X1694947Y298358D3*
X1634433Y268250D3*
X728894Y215889D3*
X957033Y214676D3*
X782374Y245625D3*
X972500Y252958D3*
X433513Y303198D3*
X241777Y205809D3*
X289282Y406051D3*
X2164675Y378636D3*
X1471943Y165604D3*
X1999653Y328380D3*
X1070359Y369164D3*
X1399236Y362428D3*
X283702Y164767D3*
X495266Y139072D3*
X176790Y312934D3*
X2300208Y323281D3*
X2209720Y407806D3*
X1682837Y379783D3*
X1630180Y329483D3*
X1092788Y316649D3*
X978883Y420970D3*
X111811Y308541D3*
X196856Y352908D3*
X197938Y252024D3*
X402903Y329042D3*
X2213993Y350627D3*
X1050782Y415875D3*
X437585Y367276D3*
X900816Y242915D3*
G54D16*
X678106Y47620D3*
X643106Y47620D3*
X608106Y47620D3*
X573106Y47620D3*
M02*
