%FSLAX34Y34*%
%MOMM*%
%LNCOPPER_BOTTOM*%
G71*
G01*
%ADD10C,4.600*%
%ADD11C,5.100*%
%ADD12C,3.000*%
%ADD13C,3.400*%
%ADD14C,4.600*%
%ADD15R,4.200X4.400*%
%ADD16R,3.200X4.600*%
%ADD17C,2.600*%
%ADD18C,2.956*%
%ADD19C,7.600*%
%ADD20C,4.000*%
%ADD21C,3.600*%
%ADD22C,3.800*%
%ADD23C,3.200*%
%ADD24C,2.000*%
%ADD25C,2.500*%
%ADD26C,0.400*%
%ADD27C,0.800*%
%ADD28C,2.000*%
%ADD29R,1.600X1.800*%
%ADD30R,0.600X2.000*%
%ADD31C,0.556*%
%ADD32C,5.000*%
%ADD33C,1.000*%
%ADD34C,0.500*%
%LPD*%
G36*
X-50000Y654500D02*
X2464400Y654500D01*
X2464400Y-50000D01*
X-50000Y-50000D01*
X-50000Y654500D01*
G37*
%LPC*%
G36*
X513860Y74370D02*
X564860Y74370D01*
X564860Y23370D01*
X513860Y23370D01*
X513860Y74370D01*
G37*
X902070Y244160D02*
G54D10*
D03*
X2078960Y187880D02*
G54D10*
D03*
X271520Y235000D02*
G54D10*
D03*
X1502270Y233550D02*
G54D10*
D03*
X919540Y145160D02*
G54D10*
D03*
X626200Y92710D02*
G54D10*
D03*
X438840Y368530D02*
G54D10*
D03*
X1052030Y417120D02*
G54D10*
D03*
X2215240Y351880D02*
G54D10*
D03*
X1010360Y363510D02*
G54D10*
D03*
X1585750Y421270D02*
G54D10*
D03*
X404150Y330290D02*
G54D10*
D03*
X199190Y253270D02*
G54D10*
D03*
X198110Y354160D02*
G54D10*
D03*
X113060Y309790D02*
G54D10*
D03*
X980130Y422220D02*
G54D10*
D03*
X1094040Y317900D02*
G54D10*
D03*
X1631430Y330730D02*
G54D10*
D03*
X1684090Y381030D02*
G54D10*
D03*
X2210970Y409060D02*
G54D10*
D03*
X2301460Y324530D02*
G54D10*
D03*
X178040Y314180D02*
G54D10*
D03*
X496520Y140320D02*
G54D10*
D03*
X284950Y166020D02*
G54D10*
D03*
X1400490Y363680D02*
G54D10*
D03*
X1071610Y370410D02*
G54D10*
D03*
X2000900Y329630D02*
G54D10*
D03*
X1473190Y166850D02*
G54D10*
D03*
X2165930Y379890D02*
G54D10*
D03*
X290530Y407300D02*
G54D10*
D03*
X938130Y418790D02*
G54D10*
D03*
X1518330Y408670D02*
G54D10*
D03*
X1470410Y398700D02*
G54D10*
D03*
X2089470Y381070D02*
G54D10*
D03*
X359050Y404810D02*
G54D10*
D03*
X870480Y421730D02*
G54D10*
D03*
X243030Y207060D02*
G54D10*
D03*
X434760Y304450D02*
G54D10*
D03*
X973750Y254210D02*
G54D10*
D03*
X783620Y246870D02*
G54D10*
D03*
X958280Y215930D02*
G54D10*
D03*
X730140Y217140D02*
G54D10*
D03*
X1635680Y269500D02*
G54D10*
D03*
X1696200Y299610D02*
G54D10*
D03*
X1468960Y202600D02*
G54D10*
D03*
X1695580Y340800D02*
G54D10*
D03*
X2154910Y210630D02*
G54D10*
D03*
X2302400Y272990D02*
G54D10*
D03*
X2013530Y221000D02*
G54D10*
D03*
X2257830Y261880D02*
G54D10*
D03*
X574360Y48870D02*
G54D11*
D03*
X609360Y48870D02*
G54D11*
D03*
X644360Y48870D02*
G54D11*
D03*
X679360Y48870D02*
G54D11*
D03*
G54D12*
X2113660Y229770D02*
X2111930Y233780D01*
X2110020Y229850D01*
G54D13*
X2081460Y193330D02*
X2078960Y187880D01*
X2081460Y182420D01*
X2093360Y187880D01*
X2081460Y193330D01*
G54D13*
X913840Y143290D02*
X919540Y145160D01*
X921840Y150700D01*
X909750Y155720D01*
X913840Y143290D01*
G54D12*
X1496930Y239510D02*
X1502270Y233550D01*
X1509910Y235930D01*
X1506210Y247820D01*
X1496930Y239510D01*
G54D13*
X2112070Y182920D02*
X2108070Y187880D01*
X2078960Y187880D01*
X2079340Y193860D01*
X2086260Y193410D01*
X2078960Y187880D01*
X2084830Y186630D01*
X2086260Y193410D01*
G54D13*
X1507720Y231050D02*
X1502270Y233550D01*
X1496820Y231050D01*
X1502270Y219150D01*
X1507720Y231050D01*
G54D12*
X270090Y242870D02*
X271520Y235000D01*
X279270Y233020D01*
X282340Y245090D01*
X270090Y242870D01*
G54D12*
X899920Y268010D02*
X898830Y272240D01*
X896340Y268650D01*
G54D13*
X277180Y236990D02*
X271520Y235000D01*
X269330Y229410D01*
X281520Y224640D01*
X277180Y236990D01*
G54D12*
X2113020Y247900D02*
X2112020Y239900D01*
X2112020Y237900D01*
X2112020Y237800D01*
X2112020Y237700D01*
X2111820Y228980D01*
G54D13*
X2111820Y228980D02*
X2111790Y228910D01*
X2111630Y228520D01*
X2111450Y228140D01*
X2106880Y218380D01*
G54D13*
G75*
G01X2100977Y208954D02*
G03X2106920Y218465I-35757J28956D01*
G01*
G54D13*
X2100830Y208770D02*
X2095740Y202550D01*
G54D13*
G75*
G01X2086122Y193309D02*
G03X2095920Y202771I-33632J44631D01*
G01*
G54D13*
X919540Y145160D02*
X898130Y168270D01*
G54D13*
G75*
G01X897062Y170990D02*
G03X898136Y168263I3998J0D01*
G01*
G54D13*
X897060Y170990D02*
X897060Y174980D01*
X893060Y179980D01*
X897060Y184980D01*
X897060Y188990D01*
X897080Y189380D01*
X897140Y189760D01*
X907710Y243040D01*
X902070Y244160D01*
X896090Y246970D01*
X897990Y267510D01*
G54D13*
X1500510Y194120D02*
X1502270Y199120D01*
X1502270Y233550D01*
G54D12*
X297110Y271710D02*
X296110Y263710D01*
X296110Y261710D01*
G54D12*
G75*
G01X293343Y255347D02*
G03X296110Y261710I-5933J6363D01*
G01*
G54D12*
X293350Y255350D02*
X271520Y235000D01*
G54D12*
X900650Y287600D02*
X899650Y279600D01*
X899650Y277600D01*
G54D12*
G75*
G01X899517Y276082D02*
G03X899650Y277600I-8607J1518D01*
G01*
G54D12*
X899510Y276070D02*
X897990Y267510D01*
G54D13*
X896550Y242520D02*
X896570Y242470D01*
X902070Y244160D01*
X907550Y245910D01*
X907560Y245860D01*
G54D13*
G75*
G01X907714Y243061D02*
G03X907568Y245844I-5654J1099D01*
G01*
G54D12*
X1502270Y233550D02*
X1508520Y256220D01*
G54D12*
G75*
G01X1508535Y256275D02*
G03X1508832Y258530I-8415J2255D01*
G01*
G54D12*
X1508840Y258530D02*
X1508840Y260530D01*
X1509840Y268530D01*
G54D13*
X291730Y207600D02*
X287730Y212600D01*
X287730Y216600D01*
G54D13*
X271520Y235000D02*
X286610Y219380D01*
G54D13*
G75*
G01X287733Y216600D02*
G03X286610Y219381I-4003J0D01*
G01*
G54D13*
G75*
G01X896565Y242487D02*
G03X907576Y245853I5505J1683D01*
G01*
G54D13*
G75*
G01X896085Y246913D02*
G03X896544Y242545I11465J-1003D01*
G01*
G54D12*
X629740Y99880D02*
X626200Y92710D01*
X631240Y86510D01*
X640900Y94360D01*
X629740Y99880D01*
G54D12*
X620500Y87020D02*
X626200Y92710D01*
X623370Y100200D01*
X611720Y95800D01*
X620500Y87020D01*
G54D12*
X1586040Y268530D02*
X1587040Y260530D01*
X1587040Y258530D01*
X1587050Y258280D01*
X1587100Y258020D01*
X1608320Y178410D01*
X1871280Y159490D01*
G54D12*
G75*
G01X1871390Y159482D02*
G03X1875150Y159351I3760J53768D01*
G01*
G54D12*
X1875150Y159350D02*
X1885150Y159350D01*
X1885670Y159350D01*
X1886200Y159360D01*
X2148250Y164420D01*
G54D12*
G75*
G01X2148236Y164419D02*
G03X2156610Y169755I-166J9501D01*
G01*
G54D12*
X2156600Y169740D02*
X2172420Y202050D01*
X2172500Y202220D01*
X2172580Y202390D01*
X2187410Y234230D01*
G54D12*
G75*
G01X2187408Y234227D02*
G03X2188225Y237910I-7898J3683D01*
G01*
G54D12*
X2188220Y237900D02*
X2188220Y239900D01*
X2189220Y247900D01*
G54D12*
X976850Y287600D02*
X977850Y279600D01*
X977850Y277600D01*
G54D12*
G75*
G01X977850Y277600D02*
G03X978512Y276114I2000J0D01*
G01*
G54D12*
X978510Y276110D02*
X986750Y268750D01*
G54D12*
G75*
G01X993254Y254550D02*
G03X986806Y268699I-19494J-340D01*
G01*
G54D12*
X993250Y254630D02*
X994540Y194470D01*
X933530Y131580D01*
G54D12*
G75*
G01X921569Y125763D02*
G03X933560Y131611I-2039J19397D01*
G01*
G54D12*
X921710Y125780D02*
X626200Y92710D01*
X492450Y121250D01*
G54D12*
X994540Y194470D02*
X1466990Y124810D01*
G54D12*
G75*
G01X1467274Y124769D02*
G03X1489798Y127734I5916J42091D01*
G01*
G54D12*
X1489900Y127780D02*
X1608320Y178410D01*
G54D12*
G75*
G01X480947Y128585D02*
G03X492466Y121247I15573J11735D01*
G01*
G54D12*
X481040Y128450D02*
X377900Y262930D01*
G54D12*
G75*
G01X377910Y262916D02*
G03X376310Y263714I-1600J-1206D01*
G01*
G54D12*
X376310Y263710D02*
X374310Y263710D01*
X373310Y271710D01*
G54D12*
X1004130Y358500D02*
X1010360Y363510D01*
X1008390Y371270D01*
X996320Y368200D01*
X1004130Y358500D01*
G54D12*
X1592480Y416950D02*
X1585750Y421270D01*
X1579020Y416950D01*
X1585750Y406480D01*
X1592480Y416950D01*
G54D12*
X2211510Y344800D02*
X2215240Y351880D01*
X2210360Y358210D01*
X2200500Y350600D01*
X2211510Y344800D01*
G54D12*
X1054690Y409580D02*
X1052030Y417120D01*
X1044060Y417840D01*
X1042950Y405440D01*
X1054690Y409580D01*
G54D12*
X1007700Y371060D02*
X1010360Y363510D01*
X1018330Y362790D01*
X1019440Y375200D01*
X1007700Y371060D01*
G54D12*
X434510Y361790D02*
X438840Y368530D01*
X434510Y375260D01*
X424040Y368530D01*
X434510Y361790D01*
G54D12*
X976850Y381600D02*
X977850Y373600D01*
X979850Y373600D01*
X980170Y373570D01*
X980480Y373490D01*
X1010360Y363510D01*
X1052030Y417120D01*
G54D12*
X1586040Y362540D02*
X1585750Y370540D01*
X1585750Y421270D01*
G54D12*
X2189220Y341900D02*
X2190220Y349900D01*
X2192220Y349900D01*
X2192310Y349900D01*
X2192400Y349910D01*
X2215240Y351880D01*
G54D12*
X438840Y368530D02*
X374310Y368530D01*
X373310Y365710D01*
G54D12*
X246310Y365710D02*
X245310Y373710D01*
X245310Y375710D01*
G54D12*
G75*
G01X245310Y375710D02*
G03X240149Y383658I-8700J0D01*
G01*
G54D12*
X240090Y383680D02*
X238410Y384420D01*
G54D12*
G75*
G01X238476Y384391D02*
G03X234951Y385205I-3856J-8661D01*
G01*
G54D12*
X234970Y385200D02*
X75250Y391150D01*
X70250Y391150D01*
G54D12*
X194290Y246950D02*
X199190Y253270D01*
X195470Y260360D01*
X184450Y254570D01*
X194290Y246950D01*
G54D12*
X397390Y326020D02*
X404150Y330290D01*
X403090Y338220D01*
X390750Y336560D01*
X397390Y326020D01*
G54D12*
X199190Y253270D02*
X75250Y264150D01*
X70250Y264150D01*
G54D12*
X360610Y365710D02*
X361610Y357710D01*
X361610Y355710D01*
G54D12*
G75*
G01X361610Y355710D02*
G03X366633Y347825I8700J0D01*
G01*
G54D12*
X366630Y347830D02*
X404150Y330290D01*
G54D14*
X60250Y264150D02*
X80250Y264150D01*
G54D12*
X297110Y365710D02*
X298110Y373710D01*
X298110Y375710D01*
X298140Y376000D01*
X298200Y376290D01*
X298210Y376330D01*
G54D12*
G75*
G01X299444Y378864D02*
G03X298214Y376342I7346J-5144D01*
G01*
G54D12*
X299440Y378860D02*
X300380Y380200D01*
G54D12*
G75*
G01X303128Y382635D02*
G03X300385Y380209I3682J-6925D01*
G01*
G54D12*
X303180Y382670D02*
X303350Y382750D01*
G54D12*
G75*
G01X303533Y382846D02*
G03X308705Y386401I-13013J24474D01*
G01*
G54D12*
X308850Y386530D02*
X346160Y419430D01*
G54D12*
G75*
G01X362782Y423947D02*
G03X346264Y419521I-3722J-19147D01*
G01*
G54D12*
X362820Y423940D02*
X529250Y391150D01*
X534250Y391150D01*
G54D12*
X203950Y359620D02*
X198110Y354160D01*
X200640Y346570D01*
X212450Y350520D01*
X203950Y359620D01*
G54D12*
X107870Y303710D02*
X113060Y309790D01*
X109690Y317050D01*
X98400Y311790D01*
X107870Y303710D01*
G54D12*
X309810Y365710D02*
X308810Y357710D01*
X308810Y355710D01*
G54D12*
G75*
G01X303649Y347762D02*
G03X308810Y355710I-3539J7948D01*
G01*
G54D12*
X303590Y347740D02*
X301910Y347000D01*
G54D12*
G75*
G01X298110Y346207D02*
G03X301975Y347029I0J9503D01*
G01*
G54D12*
X298110Y346210D02*
X230610Y346210D01*
G54D12*
G75*
G01X228312Y346492D02*
G03X230610Y346210I2298J9218D01*
G01*
G54D12*
X228280Y346500D02*
X198110Y354160D01*
G54D12*
X113060Y309790D02*
X75250Y314950D01*
X70250Y314950D01*
G54D12*
X259010Y365710D02*
X260010Y373710D01*
X260010Y375710D01*
G54D12*
G75*
G01X260810Y380489D02*
G03X260010Y375710I13880J-4779D01*
G01*
G54D12*
X260800Y380440D02*
X272070Y413580D01*
G54D12*
G75*
G01X284504Y425845D02*
G03X272093Y413648I6026J-18545D01*
G01*
G54D12*
X284660Y425900D02*
X346260Y445340D01*
G54D12*
G75*
G01X364965Y446896D02*
G03X345917Y445230I-5915J-42086D01*
G01*
G54D12*
X364960Y446900D02*
X543560Y421850D01*
G54D12*
G75*
G01X570251Y391150D02*
G03X543564Y421849I-31001J0D01*
G01*
G54D12*
X570250Y391150D02*
X570250Y264150D01*
G54D12*
G75*
G01X566871Y250076D02*
G03X570250Y264150I-27621J14074D01*
G01*
G54D12*
X566890Y250120D02*
X556640Y229920D01*
G54D12*
G75*
G01X551785Y223809D02*
G03X556630Y229899I-12545J14951D01*
G01*
G54D12*
X551750Y223780D02*
X539250Y213350D01*
X534250Y213350D01*
G54D12*
X347910Y365710D02*
X348910Y373710D01*
X348910Y375710D01*
G54D12*
G75*
G01X354071Y383658D02*
G03X348910Y375710I3539J-7948D01*
G01*
G54D12*
X354130Y383680D02*
X355810Y384420D01*
G54D12*
G75*
G01X359278Y385207D02*
G03X355745Y384391I332J-9497D01*
G01*
G54D12*
X359280Y385200D02*
X438140Y388010D01*
G54D12*
G75*
G01X443556Y387444D02*
G03X438160Y388011I-4716J-18914D01*
G01*
G54D12*
X443620Y387430D02*
X529250Y365750D01*
X534250Y365750D01*
G54D12*
X284410Y365710D02*
X285410Y373710D01*
X285410Y375710D01*
G54D12*
G75*
G01X287162Y380946D02*
G03X285410Y375710I6948J-5236D01*
G01*
G54D12*
X287150Y380920D02*
X289300Y383800D01*
G54D12*
G75*
G01X291080Y385750D02*
G03X289330Y383841I9040J-10040D01*
G01*
G54D12*
X291050Y385720D02*
X293740Y388160D01*
G54D12*
G75*
G01X298272Y391226D02*
G03X293777Y388194I8538J-17506D01*
G01*
G54D12*
G75*
G01X298371Y391264D02*
G03X302712Y394248I-7811J16016D01*
G01*
G54D12*
X302780Y394320D02*
X337770Y427350D01*
G54D12*
G75*
G01X363364Y435506D02*
G03X337909Y427480I-4314J-30696D01*
G01*
G54D12*
X363360Y435510D02*
X541960Y410460D01*
G54D12*
G75*
G01X558749Y391150D02*
G03X541964Y410459I-19499J0D01*
G01*
G54D12*
X558750Y391150D02*
X558750Y264150D01*
G54D12*
G75*
G01X551784Y249212D02*
G03X558750Y264150I-12534J14938D01*
G01*
G54D12*
X551750Y249180D02*
X539250Y238750D01*
X534250Y238750D01*
G54D12*
X322510Y365710D02*
X323510Y357710D01*
X323510Y355710D01*
G54D12*
G75*
G01X323510Y355710D02*
G03X327729Y348253I8700J0D01*
G01*
G54D12*
X327780Y348220D02*
X392870Y309670D01*
X393870Y309060D01*
X394840Y308410D01*
X423650Y288430D01*
G54D12*
G75*
G01X423585Y288476D02*
G03X440796Y285903I11185J15974D01*
G01*
G54D12*
X440850Y285920D02*
X529250Y314950D01*
X534250Y314950D01*
G54D12*
X849850Y381600D02*
X848850Y373600D01*
X848850Y371600D01*
G54D12*
G75*
G01X843689Y363652D02*
G03X848850Y371600I-3539J7948D01*
G01*
G54D12*
X843630Y363620D02*
X841950Y362890D01*
G54D12*
G75*
G01X838150Y362097D02*
G03X842015Y362919I0J9503D01*
G01*
G54D12*
X838150Y362100D02*
X834150Y362100D01*
G54D12*
G75*
G01X832340Y362275D02*
G03X834160Y362100I1820J9365D01*
G01*
G54D12*
X832390Y362260D02*
X678780Y391150D01*
X673780Y391150D01*
G54D12*
X964150Y381600D02*
X963150Y373600D01*
X963150Y371600D01*
G54D12*
G75*
G01X957989Y363652D02*
G03X963150Y371600I-3539J7948D01*
G01*
G54D12*
X957930Y363620D02*
X956250Y362890D01*
X955810Y362710D01*
X955360Y362550D01*
X849600Y328540D01*
X848830Y328280D01*
X848080Y328010D01*
X678780Y264150D01*
X673780Y264150D01*
G54D12*
X900650Y381600D02*
X901650Y389600D01*
X901650Y391600D01*
G54D12*
G75*
G01X901811Y393260D02*
G03X901650Y391590I8589J-1670D01*
G01*
G54D12*
X901800Y393200D02*
X907660Y424500D01*
G54D12*
G75*
G01X938671Y449785D02*
G03X907700Y424705I-541J-30995D01*
G01*
G54D12*
X938580Y449790D02*
X1052490Y448120D01*
G54D12*
G75*
G01X1071551Y441214D02*
G03X1052581Y448118I-19511J-24094D01*
G01*
G54D12*
X1071650Y441130D02*
X1132780Y391150D01*
X1137780Y391150D01*
G54D12*
X913350Y381600D02*
X912350Y373600D01*
X912350Y371600D01*
G54D12*
G75*
G01X907189Y363652D02*
G03X912350Y371600I-3539J7948D01*
G01*
G54D12*
X907130Y363620D02*
X905450Y362890D01*
G54D12*
G75*
G01X903622Y362304D02*
G03X905518Y362920I-1982J9326D01*
G01*
G54D12*
X903610Y362300D02*
X678780Y314950D01*
X673780Y314950D01*
G54D12*
X862550Y381600D02*
X861550Y389600D01*
X861550Y391600D01*
G54D12*
G75*
G01X861550Y391600D02*
G03X860799Y395135I-8690J0D01*
G01*
G54D12*
X860820Y395070D02*
X852600Y413930D01*
G54D12*
G75*
G01X861324Y438940D02*
G03X852663Y413787I9156J-17220D01*
G01*
G54D12*
X861280Y438920D02*
X912650Y466410D01*
G54D12*
G75*
G01X939062Y472786D02*
G03X912767Y466473I-942J-53996D01*
G01*
G54D12*
X938920Y472790D02*
X1052820Y471120D01*
G54D12*
G75*
G01X1079023Y463893D02*
G03X1052972Y471118I-26993J-46753D01*
G01*
G54D12*
X1079090Y463860D02*
X1158320Y417980D01*
G54D12*
G75*
G01X1173790Y391150D02*
G03X1158290Y417997I-31000J0D01*
G01*
G54D12*
X1173780Y391150D02*
X1173780Y264150D01*
G54D12*
G75*
G01X1170401Y250076D02*
G03X1173780Y264150I-27621J14074D01*
G01*
G54D12*
X1170420Y250120D02*
X1160170Y229920D01*
G54D12*
G75*
G01X1155315Y223809D02*
G03X1160160Y229899I-12545J14951D01*
G01*
G54D12*
X1155280Y223780D02*
X1142780Y213350D01*
X1137780Y213350D01*
G54D12*
X951450Y381600D02*
X952450Y389600D01*
X952450Y391600D01*
G54D12*
G75*
G01X957611Y399548D02*
G03X952450Y391600I3539J-7948D01*
G01*
G54D12*
X957670Y399570D02*
X959350Y400300D01*
G54D12*
G75*
G01X962322Y401057D02*
G03X959285Y400271I828J-9467D01*
G01*
G54D12*
X962310Y401060D02*
X981860Y402800D01*
G54D12*
G75*
G01X981839Y402798D02*
G03X989592Y405168I-1699J19422D01*
G01*
G54D12*
X989500Y405120D02*
X1042670Y434230D01*
G54D12*
G75*
G01X1065814Y430914D02*
G03X1042579Y434180I-13784J-13784D01*
G01*
G54D12*
X1065870Y430860D02*
X1118940Y377410D01*
X1119600Y376780D01*
X1120290Y376180D01*
X1132780Y365750D01*
X1137780Y365750D01*
G54D12*
X887950Y381600D02*
X888950Y389600D01*
X888950Y391600D01*
G54D12*
G75*
G01X889139Y393408D02*
G03X888950Y391610I8461J-1798D01*
G01*
G54D12*
X889140Y393440D02*
X896590Y427790D01*
G54D12*
G75*
G01X938872Y461280D02*
G03X896553Y427617I-742J-42500D01*
G01*
G54D12*
X938750Y461290D02*
X1052650Y459620D01*
G54D12*
G75*
G01X1073272Y453933D02*
G03X1052772Y459619I-21242J-36793D01*
G01*
G54D12*
X1073330Y453900D02*
X1152550Y408030D01*
G54D12*
G75*
G01X1162284Y391150D02*
G03X1152532Y408041I-19504J0D01*
G01*
G54D12*
X1162280Y391150D02*
X1162280Y264150D01*
G54D12*
G75*
G01X1155314Y249212D02*
G03X1162280Y264150I-12534J14938D01*
G01*
G54D12*
X1155280Y249180D02*
X1142780Y238750D01*
X1137780Y238750D01*
G54D12*
X1098860Y324280D02*
X1094040Y317900D01*
X1097840Y310860D01*
X1108800Y316780D01*
X1098860Y324280D01*
G54D12*
X973530Y417700D02*
X980130Y422220D01*
X978770Y430100D01*
X966500Y427980D01*
X973530Y417700D01*
G54D12*
X1094040Y317900D02*
X1132780Y314950D01*
X1137780Y314950D01*
G54D12*
X926050Y381600D02*
X925050Y389600D01*
X925050Y391600D01*
G54D12*
G75*
G01X925050Y391600D02*
G03X924753Y393857I-8720J0D01*
G01*
G54D12*
X924740Y393900D02*
X919320Y413630D01*
G54D12*
G75*
G01X945737Y436735D02*
G03X919289Y413744I-7617J-17945D01*
G01*
G54D12*
X945710Y436750D02*
X980130Y422220D01*
G54D14*
X1127780Y314950D02*
X1147780Y314950D01*
G54D12*
X1459040Y362540D02*
X1458040Y370540D01*
X1458040Y372540D01*
G54D12*
G75*
G01X1458040Y372540D02*
G03X1452879Y380488I-8700J0D01*
G01*
G54D12*
X1452820Y380510D02*
X1451140Y381240D01*
G54D12*
G75*
G01X1451205Y381211D02*
G03X1447837Y382020I-3865J-8681D01*
G01*
G54D12*
X1447860Y382020D02*
X1281970Y391150D01*
X1276970Y391150D01*
G54D12*
X1573340Y362540D02*
X1572340Y370540D01*
X1572340Y372540D01*
G54D12*
G75*
G01X1572340Y372540D02*
G03X1570206Y378248I-8700J0D01*
G01*
G54D12*
X1570230Y378210D02*
X1533110Y421390D01*
G54D12*
G75*
G01X1533038Y421474D02*
G03X1519000Y428169I-14718J-12794D01*
G01*
G54D12*
X1518950Y428160D02*
X1471410Y429690D01*
X1470320Y429700D01*
X1469230Y429680D01*
X1270790Y422130D01*
G54D12*
G75*
G01X1270888Y422133D02*
G03X1240968Y391150I1082J-30983D01*
G01*
G54D12*
X1240970Y391150D02*
X1240970Y340350D01*
G54D12*
G75*
G01X1240970Y340350D02*
G03X1241765Y333374I31010J0D01*
G01*
G54D12*
X1241780Y333330D02*
X1252980Y285140D01*
G54D12*
G75*
G01X1252975Y285165D02*
G03X1259439Y274616I18995J4385D01*
G01*
G54D12*
X1259480Y274580D02*
X1271970Y264150D01*
X1276970Y264150D01*
G54D12*
X1687040Y388470D02*
X1684090Y381030D01*
X1689930Y375190D01*
X1698610Y383870D01*
X1687040Y388470D01*
G54D12*
X1628040Y323490D02*
X1631430Y330730D01*
X1626250Y336830D01*
X1616760Y328760D01*
X1628040Y323490D01*
G54D12*
X1684090Y381030D02*
X1735970Y391150D01*
X1740970Y391150D01*
G54D12*
X1509840Y362540D02*
X1510840Y354530D01*
X1510840Y352540D01*
G54D12*
G75*
G01X1510840Y352540D02*
G03X1515322Y344931I8700J0D01*
G01*
G54D12*
X1515320Y344920D02*
X1534770Y334160D01*
G54D12*
G75*
G01X1534761Y334165D02*
G03X1538798Y332452I10169J18345D01*
G01*
G54D12*
X1538800Y332450D02*
X1561480Y325530D01*
G54D12*
G75*
G01X1561469Y325534D02*
G03X1570340Y324208I8871J29016D01*
G01*
G54D12*
G75*
G01X1570340Y324200D02*
G03X1575270Y324631I0J28390D01*
G01*
G54D12*
G75*
G01X1583030Y325283D02*
G03X1574922Y324574I0J-46693D01*
G01*
G54D12*
X1583040Y325290D02*
X1589040Y325290D01*
G54D12*
G75*
G01X1589040Y325290D02*
G03X1593116Y325575I0J29290D01*
G01*
G54D12*
X1592940Y325550D02*
X1631430Y330730D01*
G54D14*
X1730970Y391150D02*
X1750970Y391150D01*
G54D12*
X1522540Y362540D02*
X1521540Y370540D01*
X1521540Y372540D01*
G54D12*
G75*
G01X1521540Y372540D02*
G03X1518884Y378798I-8700J0D01*
G01*
G54D12*
X1518900Y378770D02*
X1484000Y412690D01*
G54D12*
G75*
G01X1483954Y412735D02*
G03X1469730Y418195I-13544J-14025D01*
G01*
G54D12*
X1469670Y418190D02*
X1271230Y410640D01*
G54D12*
G75*
G01X1271290Y410642D02*
G03X1252466Y391150I680J-19492D01*
G01*
G54D12*
X1252470Y391150D02*
X1252470Y340350D01*
G54D12*
G75*
G01X1252470Y340350D02*
G03X1259436Y325412I19500J0D01*
G01*
G54D12*
X1259480Y325380D02*
X1271970Y314950D01*
X1276970Y314950D01*
G54D12*
X1471740Y362540D02*
X1472740Y354530D01*
X1472740Y352540D01*
G54D12*
G75*
G01X1472740Y352540D02*
G03X1475965Y345779I8700J0D01*
G01*
G54D12*
X1476000Y345740D02*
X1499230Y327160D01*
G54D12*
G75*
G01X1499078Y327282D02*
G03X1504779Y323580I20462J25268D01*
G01*
G54D12*
X1504820Y323560D02*
X1525020Y313300D01*
G54D12*
G75*
G01X1524965Y313328D02*
G03X1535798Y309492I19985J39222D01*
G01*
G54D12*
X1535510Y309560D02*
X1553360Y305640D01*
G54D12*
G75*
G01X1553659Y305575D02*
G03X1563640Y304526I9981J46955D01*
G01*
G54D12*
X1563640Y304530D02*
X1564280Y304530D01*
X1564930Y304550D01*
X1571580Y304720D01*
G54D12*
G75*
G01X1571166Y304711D02*
G03X1578652Y305432I-836J47919D01*
G01*
G54D12*
G75*
G01X1583040Y305784D02*
G03X1578318Y305371I0J-27194D01*
G01*
G54D12*
X1583040Y305780D02*
X1589040Y305780D01*
G54D12*
G75*
G01X1599041Y304017D02*
G03X1589040Y305780I-10001J-27477D01*
G01*
G54D12*
X1599280Y303930D02*
X1642510Y287760D01*
G54D12*
G75*
G01X1647949Y284651D02*
G03X1642667Y287701I-12269J-15151D01*
G01*
G54D12*
X1647960Y284650D02*
X1735970Y213350D01*
X1740970Y213350D01*
G54D12*
X1560640Y362540D02*
X1561640Y354530D01*
X1561640Y352540D01*
G54D12*
G75*
G01X1561640Y352540D02*
G03X1571249Y343888I8700J0D01*
G01*
G54D12*
X1571210Y343880D02*
X1573190Y344080D01*
X1573350Y344100D01*
X1573520Y344120D01*
G54D12*
G75*
G01X1583030Y344787D02*
G03X1573554Y344124I0J-68087D01*
G01*
G54D12*
X1583040Y344780D02*
X1589040Y344780D01*
G54D12*
G75*
G01X1589040Y344780D02*
G03X1592554Y345624I0J7740D01*
G01*
G54D12*
X1592570Y345640D02*
X1617280Y358320D01*
G54D12*
G75*
G01X1631430Y361738D02*
G03X1617357Y358359I0J-30998D01*
G01*
G54D12*
X1631550Y361730D02*
X1684010Y361530D01*
X1684850Y361550D01*
X1685690Y361600D01*
X1735970Y365750D01*
X1740970Y365750D01*
G54D12*
X1497140Y362540D02*
X1498140Y354530D01*
X1498140Y352540D01*
G54D12*
G75*
G01X1498140Y352540D02*
G03X1498398Y350440I8680J0D01*
G01*
G54D12*
X1498410Y350370D02*
X1499200Y347310D01*
G54D12*
G75*
G01X1499162Y347462D02*
G03X1510000Y333836I20368J5078D01*
G01*
G54D12*
X1510030Y333810D02*
X1530220Y323560D01*
G54D12*
G75*
G01X1530175Y323582D02*
G03X1537619Y320873I14755J28958D01*
G01*
G54D12*
X1537730Y320840D02*
X1561450Y315450D01*
G54D12*
G75*
G01X1561313Y315481D02*
G03X1570340Y314453I9027J39099D01*
G01*
G54D12*
G75*
G01X1570340Y314450D02*
G03X1576942Y315028I0J38020D01*
G01*
G54D12*
G75*
G01X1583040Y315533D02*
G03X1576608Y314970I0J-37043D01*
G01*
G54D12*
X1583040Y315530D02*
X1589040Y315530D01*
G54D12*
G75*
G01X1601092Y313621D02*
G03X1589040Y315530I-12052J-37091D01*
G01*
G54D12*
X1601310Y313550D02*
X1645440Y298930D01*
G54D12*
G75*
G01X1653022Y295206D02*
G03X1645277Y298984I-17312J-25666D01*
G01*
G54D12*
X1653120Y295130D02*
X1735970Y238750D01*
X1740970Y238750D01*
G54D12*
X1535240Y362540D02*
X1536240Y354530D01*
X1536240Y352540D01*
G54D12*
G75*
G01X1536240Y352540D02*
G03X1541401Y344592I8700J0D01*
G01*
G54D12*
X1541460Y344560D02*
X1543140Y343830D01*
X1543220Y343790D01*
X1562320Y335670D01*
G54D12*
G75*
G01X1562328Y335666D02*
G03X1565380Y334645I8012J18874D01*
G01*
G54D12*
X1565480Y334620D02*
X1565940Y334510D01*
G54D12*
G75*
G01X1565853Y334532D02*
G03X1573242Y334209I4487J17998D01*
G01*
G54D12*
G75*
G01X1583030Y335030D02*
G03X1573879Y334310I0J-58500D01*
G01*
G54D12*
X1583040Y335040D02*
X1589040Y335040D01*
G54D12*
G75*
G01X1589040Y335040D02*
G03X1596975Y336727I0J19510D01*
G01*
G54D12*
X1596980Y336720D02*
X1623490Y348540D01*
G54D12*
G75*
G01X1640585Y347948D02*
G03X1623499Y348544I-9155J-17218D01*
G01*
G54D12*
X1640580Y347950D02*
X1686430Y323580D01*
G54D12*
G75*
G01X1686425Y323583D02*
G03X1692529Y321540I9155J17217D01*
G01*
G54D12*
X1692660Y321520D02*
X1735970Y314950D01*
X1740970Y314950D01*
G54D12*
X2062220Y341900D02*
X2061220Y349900D01*
X2061220Y351900D01*
G54D12*
G75*
G01X2061220Y351900D02*
G03X2056059Y359848I-8700J0D01*
G01*
G54D12*
X2056000Y359870D02*
X2054320Y360610D01*
G54D12*
G75*
G01X2054383Y360582D02*
G03X2052181Y361255I-3843J-8632D01*
G01*
G54D12*
X2052200Y361250D02*
X1885150Y391150D01*
X1880150Y391150D01*
G54D12*
X2176520Y341900D02*
X2175520Y333900D01*
X2175520Y331900D01*
G54D12*
G75*
G01X2170358Y323952D02*
G03X2175520Y331900I-3538J7948D01*
G01*
G54D12*
X2170300Y323930D02*
X2168620Y323190D01*
G54D12*
G75*
G01X2167116Y322679D02*
G03X2168688Y323220I-2306J9251D01*
G01*
G54D12*
X2167060Y322670D02*
X2120970Y311490D01*
X2120570Y311400D01*
X2120160Y311310D01*
X1885150Y264150D01*
X1880150Y264150D01*
G54D12*
X2113020Y341900D02*
X2114020Y349900D01*
X2114020Y351900D01*
G54D12*
G75*
G01X2115263Y356381D02*
G03X2114020Y351900I7457J-4481D01*
G01*
G54D12*
X2115300Y356430D02*
X2139460Y396030D01*
G54D12*
G75*
G01X2154811Y408820D02*
G03X2139349Y395846I11109J-28940D01*
G01*
G54D12*
X2155040Y408910D02*
X2204120Y427320D01*
G54D12*
G75*
G01X2216672Y427711D02*
G03X2203981Y427268I-5702J-18651D01*
G01*
G54D12*
X2216550Y427740D02*
X2339150Y391150D01*
X2344150Y391150D01*
G54D12*
X2125720Y341900D02*
X2124720Y333900D01*
X2124720Y331900D01*
G54D12*
G75*
G01X2119558Y323952D02*
G03X2124720Y331900I-3538J7948D01*
G01*
G54D12*
X2119500Y323930D02*
X2117820Y323190D01*
G54D12*
G75*
G01X2115013Y322449D02*
G03X2117885Y323219I-993J9451D01*
G01*
G54D12*
X2115050Y322450D02*
X2003020Y310240D01*
G54D12*
G75*
G01X2000230Y310138D02*
G03X2002949Y310233I680J19492D01*
G01*
G54D12*
X2000090Y310150D02*
X1885150Y314950D01*
X1880150Y314950D01*
G54D12*
X2074920Y341900D02*
X2073920Y349900D01*
X2073920Y351900D01*
X2073900Y352530D01*
X2073830Y353160D01*
X2070170Y378250D01*
G54D12*
G75*
G01X2080920Y398589D02*
G03X2070157Y378346I8550J-17529D01*
G01*
G54D12*
X2080940Y398600D02*
X2142310Y428450D01*
G54D12*
G75*
G01X2146574Y430301D02*
G03X2142261Y428426I19316J-50321D01*
G01*
G54D12*
X2146970Y430450D02*
X2196050Y448850D01*
G54D12*
G75*
G01X2219807Y450626D02*
G03X2195738Y448732I-8837J-41576D01*
G01*
G54D12*
X2219890Y450610D02*
X2355660Y421460D01*
G54D12*
G75*
G01X2380151Y391150D02*
G03X2355596Y421474I-31001J0D01*
G01*
G54D12*
X2380150Y391150D02*
X2380150Y264150D01*
G54D12*
G75*
G01X2376771Y250076D02*
G03X2380150Y264150I-27621J14074D01*
G01*
G54D12*
X2376790Y250120D02*
X2366540Y229920D01*
G54D12*
G75*
G01X2361685Y223809D02*
G03X2366530Y229899I-12545J14951D01*
G01*
G54D12*
X2361650Y223780D02*
X2349150Y213350D01*
X2344150Y213350D01*
G54D12*
X2163820Y341900D02*
X2164820Y349900D01*
X2164820Y351900D01*
G54D12*
G75*
G01X2169982Y359848D02*
G03X2164820Y351900I3538J-7948D01*
G01*
G54D12*
X2170040Y359870D02*
X2171720Y360610D01*
X2172420Y360880D01*
X2173140Y361090D01*
X2210340Y370750D01*
G54D12*
G75*
G01X2216261Y371348D02*
G03X2210189Y370710I-1021J-19488D01*
G01*
G54D12*
X2216130Y371360D02*
X2339150Y365750D01*
X2344150Y365750D01*
G54D12*
X2100320Y341900D02*
X2101320Y349900D01*
X2101320Y351900D01*
G54D12*
G75*
G01X2101578Y354000D02*
G03X2101320Y351900I8422J-2100D01*
G01*
G54D12*
X2101600Y354060D02*
X2102380Y357130D01*
G54D12*
G75*
G01X2104909Y363029D02*
G03X2102342Y356981I17811J-11129D01*
G01*
G54D12*
X2104990Y363140D02*
X2130030Y402640D01*
G54D12*
G75*
G01X2150690Y419555D02*
G03X2129880Y402400I15230J-39675D01*
G01*
G54D12*
X2151010Y419680D02*
X2200090Y438080D01*
G54D12*
G75*
G01X2217416Y439375D02*
G03X2199860Y437993I-6446J-30325D01*
G01*
G54D12*
X2217480Y439370D02*
X2353250Y410220D01*
G54D12*
G75*
G01X2368664Y391150D02*
G03X2353215Y410228I-19504J0D01*
G01*
G54D12*
X2368650Y391150D02*
X2368650Y264150D01*
G54D12*
G75*
G01X2361684Y249212D02*
G03X2368650Y264150I-12534J14938D01*
G01*
G54D12*
X2361650Y249180D02*
X2349150Y238750D01*
X2344150Y238750D01*
G54D12*
X2307310Y329990D02*
X2301460Y324530D01*
X2303990Y316940D01*
X2315800Y320890D01*
X2307310Y329990D01*
G54D12*
X2208090Y401590D02*
X2210970Y409060D01*
X2205210Y414810D01*
X2196470Y406070D01*
X2208090Y401590D01*
G54D12*
X2301460Y324530D02*
X2339150Y314950D01*
X2344150Y314950D01*
G54D12*
X2138420Y341900D02*
X2139420Y349900D01*
X2139420Y351900D01*
G54D12*
G75*
G01X2139857Y355461D02*
G03X2139420Y351900I14283J-3561D01*
G01*
G54D12*
X2139850Y355400D02*
X2146990Y384530D01*
G54D12*
G75*
G01X2161876Y398964D02*
G03X2147009Y384607I4054J-19074D01*
G01*
G54D12*
X2162000Y398990D02*
X2210970Y409060D01*
G54D14*
X2334150Y314950D02*
X2354150Y314950D01*
G54D12*
X171370Y318600D02*
X178040Y314180D01*
X184830Y318410D01*
X178250Y328980D01*
X171370Y318600D01*
G54D12*
X233610Y365710D02*
X232610Y373660D01*
X198110Y373660D01*
G54D12*
G75*
G01X198110Y373660D02*
G03X178613Y354500I0J-19500D01*
G01*
G54D12*
X178610Y354430D02*
X178040Y314180D01*
G54D12*
X278190Y161740D02*
X284950Y166020D01*
X283870Y173940D01*
X271540Y172270D01*
X278190Y161740D01*
G54D12*
X494630Y148100D02*
X496520Y140320D01*
X504370Y138800D01*
X506730Y151030D01*
X494630Y148100D01*
G54D12*
X284950Y166020D02*
X234790Y189380D01*
G54D12*
G75*
G01X223814Y210446D02*
G03X234778Y189385I19206J-3386D01*
G01*
G54D12*
X223810Y210370D02*
X232580Y261370D01*
X232610Y261540D01*
X232610Y261710D01*
X232610Y263710D01*
X233610Y271710D01*
G54D12*
X837150Y381600D02*
X836150Y389600D01*
X834150Y389600D01*
X834010Y389600D01*
X833880Y389620D01*
X681420Y410470D01*
G54D12*
G75*
G01X681490Y410461D02*
G03X678780Y410650I-2710J-19281D01*
G01*
G54D12*
X678780Y410650D02*
X668780Y410650D01*
G54D12*
G75*
G01X668780Y410650D02*
G03X651253Y399698I0J-19500D01*
G01*
G54D12*
X651190Y399570D02*
X577580Y245800D01*
X577370Y245350D01*
X577140Y244910D01*
X556640Y204520D01*
G54D12*
G75*
G01X553279Y199802D02*
G03X556630Y204499I-14039J13558D01*
G01*
G54D12*
X553360Y199890D02*
X496520Y140320D01*
G54D12*
X1070520Y362490D02*
X1071610Y370410D01*
X1064860Y374700D01*
X1058180Y364190D01*
X1070520Y362490D01*
G54D12*
X1404810Y370410D02*
X1400490Y363680D01*
X1404810Y356950D01*
X1415290Y363680D01*
X1404810Y370410D01*
G54D12*
X1071610Y370410D02*
X1018560Y345820D01*
G54D12*
G75*
G01X1011719Y344057D02*
G03X1018593Y345835I-1359J19433D01*
G01*
G54D12*
X1011580Y344050D02*
X971090Y341510D01*
G54D12*
G75*
G01X970766Y341489D02*
G03X964697Y340636I3064J-43819D01*
G01*
G54D12*
X964990Y340700D02*
X855320Y318170D01*
G54D12*
G75*
G01X855184Y318141D02*
G03X839174Y302680I4366J-20541D01*
G01*
G54D12*
X839210Y302830D02*
X838420Y299760D01*
G54D12*
G75*
G01X838405Y299701D02*
G03X838147Y297600I8425J-2101D01*
G01*
G54D12*
X838150Y297600D02*
X838150Y295600D01*
X837150Y287600D01*
G54D12*
X1446340Y362540D02*
X1445340Y363680D01*
X1400490Y363680D01*
G54D12*
X1465250Y165900D02*
X1473190Y166850D01*
X1475630Y174470D01*
X1463770Y178260D01*
X1465250Y165900D01*
G54D12*
X2004580Y336730D02*
X2000900Y329630D01*
X2005840Y323330D01*
X2015640Y331010D01*
X2004580Y336730D01*
G54D12*
X1473190Y166850D02*
X1453920Y190190D01*
G54D12*
G75*
G01X1449467Y201929D02*
G03X1454018Y190072I19493J681D01*
G01*
G54D12*
X1449470Y201870D02*
X1447350Y257980D01*
X1447340Y258260D01*
X1447340Y258530D01*
X1447340Y260530D01*
X1446340Y268530D01*
G54D12*
X2049520Y341900D02*
X2048520Y333900D01*
X2046520Y333900D01*
X2046430Y333900D01*
X2046340Y333890D01*
X2000900Y329630D01*
G54D12*
X2096070Y376550D02*
X2089470Y381070D01*
X2082610Y376940D01*
X2089040Y366270D01*
X2096070Y376550D01*
G54D12*
X1478390Y398120D02*
X1470410Y398700D01*
X1466570Y391690D01*
X1477480Y385700D01*
X1478390Y398120D01*
G54D12*
X1526240Y409830D02*
X1518330Y408670D01*
X1516090Y400990D01*
X1528040Y397510D01*
X1526240Y409830D01*
G54D12*
X360210Y396890D02*
X359050Y404810D01*
X351370Y407040D01*
X347890Y395090D01*
X360210Y396890D01*
G54D12*
X877700Y418290D02*
X870480Y421730D01*
X864350Y416590D01*
X872350Y407050D01*
X877700Y418290D01*
G54D12*
X944860Y414470D02*
X938130Y418790D01*
X931400Y414470D01*
X938130Y403990D01*
X944860Y414470D01*
G54D12*
X2169440Y372700D02*
X2165930Y379890D01*
X2158260Y379890D01*
X2158260Y367230D01*
X2169440Y372700D01*
G54D12*
X292920Y399660D02*
X290530Y407300D01*
X282560Y408010D01*
X281510Y396100D01*
X292920Y399660D01*
G54D12*
X2087620Y341900D02*
X2088620Y349900D01*
X2088620Y351900D01*
X2088620Y352030D01*
X2088630Y352150D01*
X2089470Y381070D01*
G54D12*
X1484440Y362540D02*
X1483440Y370540D01*
X1483440Y372540D01*
G54D12*
G75*
G01X1483440Y372540D02*
G03X1482420Y376629I-8710J0D01*
G01*
G54D12*
X1482380Y376690D02*
X1470410Y398700D01*
G54D12*
X1547940Y362540D02*
X1546940Y370540D01*
X1546940Y372540D01*
G54D12*
G75*
G01X1546940Y372540D02*
G03X1544806Y378248I-8700J0D01*
G01*
G54D12*
X1544800Y378250D02*
X1518330Y408670D01*
G54D12*
X335210Y365710D02*
X336210Y373710D01*
X336210Y375710D01*
G54D12*
G75*
G01X336468Y377810D02*
G03X336210Y375710I8422J-2100D01*
G01*
G54D12*
X336490Y377880D02*
X337270Y380940D01*
G54D12*
G75*
G01X343831Y391560D02*
G03X337232Y380791I13779J-15850D01*
G01*
G54D12*
X343820Y391550D02*
X359050Y404810D01*
G54D12*
X875250Y381600D02*
X874250Y389600D01*
X874250Y391600D01*
X874230Y392150D01*
X874180Y392700D01*
X870480Y421730D01*
G54D12*
X938130Y418790D02*
X938130Y389600D01*
X938750Y381600D01*
G54D12*
X2151120Y341900D02*
X2152120Y349900D01*
X2152120Y351900D01*
G54D12*
G75*
G01X2152378Y354000D02*
G03X2152120Y351900I8422J-2100D01*
G01*
G54D12*
X2152400Y354060D02*
X2153180Y357130D01*
G54D12*
G75*
G01X2155521Y362723D02*
G03X2153142Y356978I18029J-10833D01*
G01*
G54D12*
X2155560Y362780D02*
X2165930Y379890D01*
G54D12*
X271710Y365710D02*
X272710Y373710D01*
X272710Y375710D01*
G54D12*
G75*
G01X272968Y377810D02*
G03X272710Y375710I8422J-2100D01*
G01*
G54D12*
X272990Y377880D02*
X273770Y380940D01*
G54D12*
G75*
G01X275078Y384590D02*
G03X273733Y380793I19042J-8880D01*
G01*
G54D12*
X275100Y384620D02*
X277380Y389500D01*
G54D12*
G75*
G01X281548Y396158D02*
G03X277359Y389455I25202J-20408D01*
G01*
G54D12*
X281510Y396100D02*
X290530Y407300D01*
G54D12*
X309810Y271710D02*
X309730Y216600D01*
G54D12*
G75*
G01X309730Y216600D02*
G03X311730Y214600I2000J0D01*
G01*
G54D12*
X311730Y214600D02*
X313730Y214600D01*
X319730Y207600D01*
G54D12*
X913350Y287600D02*
X914350Y279600D01*
X914350Y277600D01*
G54D12*
G75*
G01X914350Y277600D02*
G03X914573Y275641I8710J0D01*
G01*
G54D12*
X914570Y275640D02*
X920830Y248490D01*
G54D12*
G75*
G01X921216Y246175D02*
G03X920826Y248508I-19266J-2025D01*
G01*
G54D12*
X921220Y246120D02*
X927060Y188990D01*
X927060Y186980D01*
X921060Y179980D01*
G54D12*
X1522540Y268530D02*
X1523540Y260530D01*
X1523540Y201110D01*
X1528510Y194120D01*
G54D12*
X2125720Y247900D02*
X2126720Y239900D01*
X2126720Y237900D01*
X2126750Y237200D01*
X2126840Y236500D01*
X2134040Y192240D01*
X2134060Y192080D01*
X2134070Y191920D01*
X2134070Y189920D01*
X2140070Y182920D01*
G54D12*
X259010Y271710D02*
X258010Y279710D01*
X258010Y281710D01*
G54D12*
G75*
G01X258010Y281710D02*
G03X252849Y289658I-8700J0D01*
G01*
G54D12*
X252790Y289680D02*
X251110Y290420D01*
G54D12*
G75*
G01X251175Y290391D02*
G03X247310Y291213I-3865J-8681D01*
G01*
G54D12*
X247310Y291210D02*
X230610Y291210D01*
G54D12*
G75*
G01X230610Y291210D02*
G03X226445Y290248I0J-9500D01*
G01*
G54D12*
X226510Y290280D02*
X196400Y275850D01*
G54D12*
G75*
G01X170658Y272327D02*
G03X196675Y275983I7382J41863D01*
G01*
G54D12*
X170490Y272360D02*
X75250Y289550D01*
X70250Y289550D01*
G54D12*
X360610Y271710D02*
X361610Y279710D01*
X361610Y281710D01*
G54D12*
G75*
G01X366771Y289658D02*
G03X361610Y281710I3539J-7948D01*
G01*
G54D12*
X366830Y289680D02*
X368510Y290420D01*
G54D12*
G75*
G01X372310Y291213D02*
G03X368445Y290391I0J-9503D01*
G01*
G54D12*
X372310Y291210D02*
X376310Y291210D01*
G54D12*
G75*
G01X381753Y289494D02*
G03X376310Y291210I-5443J-7774D01*
G01*
G54D12*
X381730Y289520D02*
X410540Y269530D01*
G54D12*
G75*
G01X410389Y269635D02*
G03X435502Y261957I24371J34805D01*
G01*
G54D12*
X435760Y261960D02*
X529250Y264150D01*
X534250Y264150D01*
G54D12*
X335210Y271710D02*
X336210Y279710D01*
X336210Y281710D01*
G54D12*
G75*
G01X340692Y289319D02*
G03X336210Y281710I4218J-7609D01*
G01*
G54D12*
X340700Y289320D02*
X360140Y300080D01*
G54D12*
G75*
G01X370310Y302707D02*
G03X360130Y300074I0J-20997D01*
G01*
G54D12*
X370310Y302710D02*
X376310Y302710D01*
G54D12*
G75*
G01X388355Y298912D02*
G03X376310Y302710I-12045J-17202D01*
G01*
G54D12*
X388280Y298960D02*
X417090Y278980D01*
G54D12*
G75*
G01X416980Y279057D02*
G03X440143Y273922I17780J25393D01*
G01*
G54D12*
X440120Y273910D02*
X529250Y289550D01*
X534250Y289550D01*
G54D12*
X284410Y271710D02*
X283410Y279710D01*
X283410Y281710D01*
G54D12*
G75*
G01X283410Y281710D02*
G03X283152Y283810I-8680J0D01*
G01*
G54D12*
X283140Y283870D02*
X282350Y286940D01*
G54D12*
G75*
G01X282387Y286793D02*
G03X281042Y290590I-20387J-5083D01*
G01*
G54D12*
X281030Y290620D02*
X278740Y295500D01*
G54D12*
G75*
G01X278766Y295446D02*
G03X249310Y314211I-29456J-13736D01*
G01*
G54D12*
X249310Y314210D02*
X230610Y314210D01*
G54D12*
G75*
G01X230610Y314210D02*
G03X216363Y310921I0J-32500D01*
G01*
G54D12*
X216570Y311020D02*
X186460Y296600D01*
G54D12*
G75*
G01X163778Y300890D02*
G03X186589Y296663I14262J13300D01*
G01*
G54D12*
X163790Y300880D02*
X135720Y330940D01*
G54D12*
G75*
G01X135730Y330929D02*
G03X128078Y336907I-22700J-21169D01*
G01*
G54D12*
X127920Y337000D02*
X75250Y365750D01*
X70250Y365750D01*
G54D12*
X236480Y211660D02*
X243030Y207060D01*
X249930Y211100D01*
X243650Y221850D01*
X236480Y211660D01*
G54D12*
X436410Y312280D02*
X434760Y304450D01*
X441200Y299690D01*
X448600Y309700D01*
X436410Y312280D01*
G54D12*
X246310Y271710D02*
X245310Y263710D01*
X245310Y261710D01*
X245310Y261530D01*
X245310Y261340D01*
X243030Y207060D01*
G54D12*
X434760Y304450D02*
X529250Y340350D01*
X534250Y340350D01*
G54D12*
X271710Y271710D02*
X270710Y279710D01*
X270710Y281710D01*
G54D12*
G75*
G01X270710Y281710D02*
G03X270452Y283810I-8680J0D01*
G01*
G54D12*
X270440Y283870D02*
X269650Y286940D01*
G54D12*
G75*
G01X269688Y286791D02*
G03X249310Y302712I-20378J-5081D01*
G01*
G54D12*
X249310Y302710D02*
X230610Y302710D01*
G54D12*
G75*
G01X230610Y302710D02*
G03X221409Y300586I0J-20990D01*
G01*
G54D12*
X221540Y300650D02*
X191430Y286230D01*
G54D12*
G75*
G01X155367Y293047D02*
G03X191630Y286327I22673J21143D01*
G01*
G54D12*
X155380Y293030D02*
X127320Y323100D01*
G54D12*
G75*
G01X127327Y323094D02*
G03X118109Y328632I-14267J-13304D01*
G01*
G54D12*
X118210Y328600D02*
X75250Y340350D01*
X70250Y340350D01*
G54D12*
X347910Y271710D02*
X348730Y263710D01*
X348730Y198600D01*
G54D12*
G75*
G01X343336Y184548D02*
G03X348730Y198600I-15606J14052D01*
G01*
G54D12*
X343340Y184560D02*
X307990Y145280D01*
G54D12*
G75*
G01X276927Y136076D02*
G03X307988Y145277I8023J29944D01*
G01*
G54D12*
X276880Y136090D02*
X60170Y194520D01*
G54D12*
G75*
G01X52714Y228290D02*
G03X60202Y194512I12536J-14940D01*
G01*
G54D12*
X52760Y228320D02*
X65250Y238750D01*
X70250Y238750D01*
G54D12*
X322510Y271710D02*
X323510Y263710D01*
X323510Y261710D01*
G54D12*
G75*
G01X323510Y261710D02*
G03X323935Y259028I8680J0D01*
G01*
G54D12*
X323940Y259020D02*
X336770Y219540D01*
G54D12*
G75*
G01X337236Y216600D02*
G03X336771Y219538I-9506J0D01*
G01*
G54D12*
X337230Y216600D02*
X337230Y198600D01*
G54D12*
G75*
G01X334790Y192243D02*
G03X337230Y198600I-7060J6357D01*
G01*
G54D12*
X334790Y192250D02*
X299450Y152970D01*
G54D12*
G75*
G01X278936Y147470D02*
G03X299447Y152966I6024J18540D01*
G01*
G54D12*
X278950Y147460D02*
X75250Y213350D01*
X70250Y213350D01*
G54D12*
X862550Y287600D02*
X861550Y279600D01*
X861550Y277600D01*
X861530Y277300D01*
X861460Y277010D01*
X861450Y276970D01*
G54D12*
G75*
G01X860392Y274699D02*
G03X861449Y276964I-7532J4891D01*
G01*
G54D12*
X860380Y274690D02*
X859470Y273280D01*
G54D12*
G75*
G01X857152Y270965D02*
G03X859475Y273288I-4302J6625D01*
G01*
G54D12*
X857120Y270950D02*
X794170Y230470D01*
X793640Y230140D01*
X793100Y229830D01*
X739620Y200100D01*
G54D12*
G75*
G01X731501Y197690D02*
G03X739598Y200088I-1361J19460D01*
G01*
G54D12*
X731580Y197690D02*
X680220Y193900D01*
X679500Y193860D01*
X678780Y193850D01*
X668780Y193850D01*
G54D12*
G75*
G01X649280Y213350D02*
G03X668780Y193850I19500J0D01*
G01*
G54D12*
X649280Y213350D02*
X649280Y264150D01*
G54D12*
G75*
G01X656246Y279088D02*
G03X649280Y264150I12534J-14938D01*
G01*
G54D12*
X656290Y279120D02*
X668780Y289550D01*
X673780Y289550D01*
G54D12*
X964150Y287600D02*
X965150Y295600D01*
X965150Y297600D01*
G54D12*
G75*
G01X970311Y305548D02*
G03X965150Y297600I3539J-7948D01*
G01*
G54D12*
X970370Y305570D02*
X972050Y306300D01*
G54D12*
G75*
G01X975850Y307093D02*
G03X971985Y306271I0J-9503D01*
G01*
G54D12*
X975850Y307100D02*
X979850Y307100D01*
G54D12*
G75*
G01X982471Y306732D02*
G03X979850Y307100I-2621J-9142D01*
G01*
G54D12*
X982440Y306740D02*
X1132780Y264150D01*
X1137780Y264150D01*
G54D12*
X938750Y287600D02*
X939750Y295600D01*
X939750Y297600D01*
G54D12*
G75*
G01X944232Y305209D02*
G03X939750Y297600I4218J-7609D01*
G01*
G54D12*
X944230Y305210D02*
X963680Y315970D01*
G54D12*
G75*
G01X973850Y318597D02*
G03X963670Y315964I0J-20997D01*
G01*
G54D12*
X973850Y318600D02*
X979850Y318600D01*
G54D12*
G75*
G01X983856Y318215D02*
G03X979860Y318600I-3996J-20555D01*
G01*
G54D12*
X983820Y318220D02*
X1132780Y289550D01*
X1137780Y289550D01*
G54D12*
X887950Y287600D02*
X886950Y279600D01*
X886950Y277600D01*
X886930Y277300D01*
X886860Y277010D01*
X886850Y276970D01*
G54D12*
X886760Y276710D02*
X886160Y274920D01*
G54D12*
G75*
G01X884457Y272010D02*
G03X886145Y274875I-6197J5580D01*
G01*
G54D12*
X884450Y272010D02*
X879760Y266800D01*
X879520Y266540D01*
X879280Y266280D01*
G54D12*
G75*
G01X879221Y266218D02*
G03X875149Y261006I22759J-21978D01*
G01*
G54D12*
G75*
G01X870837Y255613D02*
G03X875217Y261120I-21977J21977D01*
G01*
G54D12*
X870720Y255500D02*
X869710Y254500D01*
G54D12*
G75*
G01X865015Y250650D02*
G03X869831Y254619I-18205J26990D01*
G01*
G54D12*
X865070Y250680D02*
X807450Y211680D01*
G54D12*
G75*
G01X804236Y209706D02*
G03X807375Y211630I-20456J36904D01*
G01*
G54D12*
X804280Y209730D02*
X750800Y180000D01*
G54D12*
G75*
G01X733114Y174748D02*
G03X750748Y179971I-2964J42382D01*
G01*
G54D12*
X733270Y174750D02*
X681910Y170970D01*
X680350Y170880D01*
X678780Y170850D01*
X668780Y170850D01*
G54D12*
G75*
G01X626280Y213350D02*
G03X668780Y170850I42500J0D01*
G01*
G54D12*
X626280Y213350D02*
X626280Y264150D01*
G54D12*
G75*
G01X627368Y273711D02*
G03X626280Y264160I41372J-9551D01*
G01*
G54D12*
X627380Y273770D02*
X638590Y321970D01*
G54D12*
G75*
G01X641161Y329017D02*
G03X638580Y321925I27589J-14057D01*
G01*
G54D12*
X641140Y328990D02*
X651390Y349180D01*
G54D12*
G75*
G01X656245Y355291D02*
G03X651400Y349201I12545J-14951D01*
G01*
G54D12*
X656290Y355320D02*
X668780Y365750D01*
X673780Y365750D01*
G54D12*
X849850Y287600D02*
X850850Y295600D01*
X850850Y297600D01*
G54D12*
G75*
G01X856011Y305548D02*
G03X850850Y297600I3539J-7948D01*
G01*
G54D12*
X856070Y305570D02*
X857750Y306300D01*
G54D12*
G75*
G01X859578Y306888D02*
G03X857692Y306275I1972J-9278D01*
G01*
G54D12*
X859600Y306900D02*
X967190Y329410D01*
G54D12*
G75*
G01X971578Y330019D02*
G03X967079Y329386I2272J-32489D01*
G01*
G54D12*
X971810Y330030D02*
X1012300Y332570D01*
X1012360Y332580D01*
X1132780Y340350D01*
X1137780Y340350D01*
G54D12*
X875250Y287600D02*
X874250Y279600D01*
X874250Y277600D01*
X874230Y277300D01*
X874160Y277010D01*
X874150Y276970D01*
G54D12*
G75*
G01X873006Y274568D02*
G03X874149Y276964I-7446J5022D01*
G01*
G54D12*
X873020Y274590D02*
X872090Y273210D01*
X871740Y272730D01*
X871360Y272280D01*
G54D12*
G75*
G01X871137Y272034D02*
G03X868799Y269198I31313J-28194D01*
G01*
G54D12*
X868770Y269150D02*
X865640Y264990D01*
G54D12*
G75*
G01X860276Y259979D02*
G03X865618Y264961I-11456J17641D01*
G01*
G54D12*
X860340Y260020D02*
X800600Y220930D01*
X799650Y220340D01*
X798690Y219780D01*
X745210Y190040D01*
G54D12*
G75*
G01X732304Y186209D02*
G03X745177Y190022I-2164J30941D01*
G01*
G54D12*
X732430Y186220D02*
X681060Y182430D01*
X679920Y182370D01*
X678780Y182350D01*
X668780Y182350D01*
G54D12*
G75*
G01X637780Y213350D02*
G03X668780Y182350I31000J0D01*
G01*
G54D12*
X637780Y213350D02*
X637780Y264150D01*
G54D12*
G75*
G01X638575Y271126D02*
G03X637780Y264150I30215J-6976D01*
G01*
G54D12*
X638590Y271170D02*
X649790Y319360D01*
G54D12*
G75*
G01X656251Y329883D02*
G03X649783Y319328I12539J-14943D01*
G01*
G54D12*
X656290Y329920D02*
X668780Y340350D01*
X673780Y340350D01*
G54D12*
X779830Y239830D02*
X783620Y246870D01*
X778790Y253250D01*
X768870Y245730D01*
X779830Y239830D01*
G54D12*
X966010Y252180D02*
X973750Y254210D01*
X975120Y262090D01*
X962850Y264220D01*
X966010Y252180D01*
G54D12*
X783620Y246870D02*
X678780Y238750D01*
X673780Y238750D01*
G54D12*
X951450Y287600D02*
X952450Y279600D01*
X952450Y277600D01*
G54D12*
G75*
G01X952450Y277600D02*
G03X955217Y271237I8700J0D01*
G01*
G54D12*
X955260Y271190D02*
X973750Y254210D01*
G54D14*
X663780Y238750D02*
X683780Y238750D01*
G54D12*
X726330Y210110D02*
X730140Y217140D01*
X725340Y223530D01*
X715380Y216050D01*
X726330Y210110D01*
G54D12*
X950310Y216630D02*
X958280Y215930D01*
X962230Y222880D01*
X951410Y229030D01*
X950310Y216630D01*
G54D12*
X730140Y217140D02*
X678780Y213350D01*
X673780Y213350D01*
G54D12*
X926050Y287600D02*
X927050Y279600D01*
X927050Y277600D01*
G54D12*
G75*
G01X927050Y277600D02*
G03X928068Y273516I8700J0D01*
G01*
G54D12*
X928040Y273550D02*
X958280Y215930D01*
G54D14*
X663780Y213350D02*
X683780Y213350D01*
G54D12*
X1471740Y268530D02*
X1470740Y276540D01*
X1470740Y278530D01*
G54D12*
G75*
G01X1470740Y278530D02*
G03X1465579Y286478I-8700J0D01*
G01*
G54D12*
X1465520Y286510D02*
X1463840Y287240D01*
G54D12*
G75*
G01X1463905Y287211D02*
G03X1460040Y288033I-3865J-8681D01*
G01*
G54D12*
X1460120Y288030D02*
X1281970Y289550D01*
X1276970Y289550D01*
G54D12*
X1573340Y268530D02*
X1574340Y276540D01*
X1574340Y278530D01*
G54D12*
G75*
G01X1574626Y279560D02*
G03X1574340Y278530I1714J-1030D01*
G01*
G54D12*
X1574620Y279560D02*
X1576390Y282510D01*
G54D12*
G75*
G01X1583040Y286280D02*
G03X1576397Y282522I0J-7750D01*
G01*
G54D12*
X1583040Y286290D02*
X1589040Y286290D01*
G54D12*
G75*
G01X1592797Y285318D02*
G03X1589040Y286290I-3757J-6778D01*
G01*
G54D12*
X1592790Y285320D02*
X1593640Y284850D01*
G54D12*
G75*
G01X1595986Y283016D02*
G03X1593638Y284851I-6966J-6496D01*
G01*
G54D12*
X1595930Y283070D02*
X1621540Y256080D01*
G54D12*
G75*
G01X1621656Y255958D02*
G03X1626229Y252449I14024J13542D01*
G01*
G54D12*
X1626160Y252480D02*
X1726440Y196330D01*
G54D12*
G75*
G01X1726517Y196287D02*
G03X1735970Y193842I9453J17053D01*
G01*
G54D12*
X1735970Y193850D02*
X1745970Y193850D01*
G54D12*
G75*
G01X1745970Y193850D02*
G03X1765470Y213350I0J19500D01*
G01*
G54D12*
X1765470Y213350D02*
X1765470Y238750D01*
G54D12*
G75*
G01X1765470Y238750D02*
G03X1758504Y253688I-19500J0D01*
G01*
G54D12*
X1758470Y253720D02*
X1745970Y264150D01*
X1740970Y264150D01*
G54D12*
X1702040Y305070D02*
X1696200Y299610D01*
X1698740Y292020D01*
X1710550Y295980D01*
X1702040Y305070D01*
G54D12*
X1628390Y266210D02*
X1635680Y269500D01*
X1635680Y277560D01*
X1623270Y277560D01*
X1628390Y266210D01*
G54D12*
X1696200Y299610D02*
X1735970Y289550D01*
X1740970Y289550D01*
G54D12*
X1547940Y268530D02*
X1548940Y276540D01*
X1548940Y278530D01*
G54D12*
G75*
G01X1554101Y286478D02*
G03X1548940Y278530I3539J-7948D01*
G01*
G54D12*
X1554160Y286510D02*
X1555840Y287240D01*
X1556110Y287360D01*
X1556390Y287460D01*
X1577050Y294980D01*
G54D12*
G75*
G01X1583030Y296033D02*
G03X1577040Y294977I0J-17513D01*
G01*
G54D12*
X1583040Y296030D02*
X1589040Y296030D01*
G54D12*
G75*
G01X1599666Y292882D02*
G03X1589040Y296030I-10626J-16362D01*
G01*
G54D12*
X1599650Y292890D02*
X1635680Y269500D01*
G54D14*
X1730970Y289550D02*
X1750970Y289550D01*
G54D12*
X1497140Y268530D02*
X1496140Y276540D01*
X1496140Y278530D01*
G54D12*
G75*
G01X1496140Y278530D02*
G03X1495882Y280630I-8680J0D01*
G01*
G54D12*
X1495860Y280700D02*
X1495080Y283760D01*
G54D12*
G75*
G01X1495117Y283613D02*
G03X1493772Y287410I-20387J-5083D01*
G01*
G54D12*
X1493750Y287450D02*
X1491470Y292320D01*
G54D12*
G75*
G01X1491496Y292266D02*
G03X1470998Y309772I-29456J-13736D01*
G01*
G54D12*
X1471260Y309700D02*
X1281970Y365750D01*
X1276970Y365750D01*
G54D12*
X1699980Y347480D02*
X1695580Y340800D01*
X1699830Y334020D01*
X1710380Y340630D01*
X1699980Y347480D01*
G54D12*
X1461620Y205800D02*
X1468960Y202600D01*
X1474910Y207950D01*
X1466600Y217220D01*
X1461620Y205800D01*
G54D12*
X1695580Y340800D02*
X1740970Y340350D01*
G54D12*
X1459040Y268530D02*
X1460040Y260530D01*
X1460040Y258530D01*
X1460060Y257840D01*
X1460150Y257150D01*
X1468960Y202600D01*
G54D14*
X1730970Y340350D02*
X1750970Y340350D01*
G54D12*
X1484440Y268530D02*
X1483440Y276540D01*
X1483440Y278530D01*
G54D12*
G75*
G01X1483440Y278530D02*
G03X1483182Y280630I-8680J0D01*
G01*
G54D12*
X1483160Y280700D02*
X1482380Y283760D01*
G54D12*
G75*
G01X1482418Y283611D02*
G03X1466764Y298994I-20378J-5081D01*
G01*
G54D12*
X1466620Y299030D02*
X1281970Y340350D01*
X1276970Y340350D01*
G54D12*
X1560640Y268530D02*
X1559640Y260530D01*
X1559640Y258530D01*
X1559640Y258410D01*
X1559630Y258280D01*
X1557510Y184510D01*
G54D12*
G75*
G01X1545394Y166078D02*
G03X1557506Y184377I-8874J19032D01*
G01*
G54D12*
X1545330Y166050D02*
X1486200Y138720D01*
G54D12*
G75*
G01X1464645Y137059D02*
G03X1486292Y138763I8545J29801D01*
G01*
G54D12*
X1464540Y137090D02*
X1266530Y194630D01*
G54D12*
G75*
G01X1259440Y228283D02*
G03X1266597Y194611I12530J-14933D01*
G01*
G54D12*
X1259480Y228320D02*
X1271970Y238750D01*
X1276970Y238750D01*
G54D12*
X1535240Y268530D02*
X1536240Y260530D01*
X1536240Y258530D01*
G54D12*
G75*
G01X1536240Y258530D02*
G03X1536372Y257019I8700J0D01*
G01*
G54D12*
X1536380Y256980D02*
X1545860Y204810D01*
G54D12*
G75*
G01X1546013Y203110D02*
G03X1545868Y204762I-9513J0D01*
G01*
G54D12*
X1546010Y203110D02*
X1546010Y185120D01*
G54D12*
G75*
G01X1540525Y176510D02*
G03X1546010Y185120I-4015J8610D01*
G01*
G54D12*
X1540500Y176490D02*
X1481380Y149150D01*
G54D12*
G75*
G01X1466852Y148413D02*
G03X1481441Y149178I6348J18437D01*
G01*
G54D12*
X1466730Y148460D02*
X1281970Y213350D01*
X1276970Y213350D01*
G54D12*
X2074920Y247900D02*
X2073920Y239900D01*
X2073920Y237900D01*
G54D12*
G75*
G01X2071786Y232192D02*
G03X2073920Y237900I-6566J5708D01*
G01*
G54D12*
X2071790Y232200D02*
X2066460Y226050D01*
G54D12*
G75*
G01X2061186Y221853D02*
G03X2066457Y226046I-8676J16317D01*
G01*
G54D12*
X2061060Y221790D02*
X2060950Y221730D01*
X2060610Y221560D01*
X2060270Y221390D01*
X2021810Y203350D01*
G54D12*
G75*
G01X2014542Y201530D02*
G03X2021772Y203333I-1022J19500D01*
G01*
G54D12*
X2014690Y201530D02*
X1886310Y193890D01*
X1885730Y193860D01*
X1885150Y193850D01*
X1875150Y193850D01*
G54D12*
G75*
G01X1855650Y213350D02*
G03X1875150Y193850I19500J0D01*
G01*
G54D12*
X1855650Y213350D02*
X1855650Y264150D01*
G54D12*
G75*
G01X1862616Y279088D02*
G03X1855650Y264150I12534J-14938D01*
G01*
G54D12*
X1862660Y279120D02*
X1875150Y289550D01*
X1880150Y289550D01*
G54D12*
X2176520Y247900D02*
X2177520Y255900D01*
X2177520Y257900D01*
G54D12*
G75*
G01X2182682Y265848D02*
G03X2177520Y257900I3538J-7948D01*
G01*
G54D12*
X2182740Y265870D02*
X2184420Y266610D01*
G54D12*
G75*
G01X2188220Y267403D02*
G03X2184355Y266581I0J-9503D01*
G01*
G54D12*
X2188220Y267400D02*
X2192220Y267400D01*
G54D12*
G75*
G01X2195932Y266645D02*
G03X2192220Y267400I-3712J-8745D01*
G01*
G54D12*
X2195890Y266660D02*
X2250310Y243890D01*
G54D12*
G75*
G01X2250224Y243927D02*
G03X2262556Y242956I7616J17943D01*
G01*
G54D12*
X2262550Y242960D02*
X2307110Y254070D01*
X2307690Y254220D01*
X2308270Y254390D01*
X2339150Y264150D01*
X2344150Y264150D01*
G54D12*
X2303570Y280900D02*
X2302400Y272990D01*
X2309100Y268630D01*
X2315890Y279070D01*
X2303570Y280900D01*
G54D12*
X2147760Y214230D02*
X2154910Y210630D01*
X2161150Y215620D01*
X2153380Y225350D01*
X2147760Y214230D01*
G54D12*
X2302400Y272990D02*
X2339150Y289550D01*
X2344150Y289550D01*
G54D12*
X2151120Y247900D02*
X2152120Y239900D01*
X2152120Y237900D01*
X2152140Y237450D01*
X2152170Y237000D01*
X2154910Y210630D01*
G54D14*
X2334150Y289550D02*
X2354150Y289550D01*
G54D12*
X2100320Y247900D02*
X2099320Y239900D01*
X2099320Y237900D01*
G54D12*
G75*
G01X2099062Y235800D02*
G03X2099320Y237900I-8422J2100D01*
G01*
G54D12*
X2099050Y235730D02*
X2098260Y232670D01*
G54D12*
G75*
G01X2096795Y228694D02*
G03X2098300Y232829I-18915J9226D01*
G01*
G54D12*
X2096780Y228660D02*
X2094330Y223650D01*
G54D12*
G75*
G01X2080442Y209291D02*
G03X2094353Y223696I-15212J28609D01*
G01*
G54D12*
X2080680Y209420D02*
X2070980Y204150D01*
X2070750Y204030D01*
X2070530Y203910D01*
X2070360Y203820D01*
X2070200Y203740D01*
X2034060Y183790D01*
G54D12*
G75*
G01X2015744Y178555D02*
G03X2034126Y183826I-2224J42445D01*
G01*
G54D12*
X2016050Y178570D02*
X1887680Y170930D01*
X1886420Y170870D01*
X1885150Y170850D01*
X1875150Y170850D01*
G54D12*
G75*
G01X1832650Y213350D02*
G03X1875150Y170850I42500J0D01*
G01*
G54D12*
X1832650Y213350D02*
X1832650Y264150D01*
G54D12*
G75*
G01X1833738Y273711D02*
G03X1832650Y264160I41372J-9551D01*
G01*
G54D12*
X1833760Y273770D02*
X1844960Y321970D01*
G54D12*
G75*
G01X1847531Y329017D02*
G03X1844950Y321925I27589J-14057D01*
G01*
G54D12*
X1847510Y328990D02*
X1857770Y349180D01*
G54D12*
G75*
G01X1862625Y355291D02*
G03X1857780Y349201I12545J-14951D01*
G01*
G54D12*
X1862660Y355320D02*
X1875150Y365750D01*
X1880150Y365750D01*
G54D12*
X2252990Y268250D02*
X2257830Y261880D01*
X2265640Y263630D01*
X2262910Y275780D01*
X2252990Y268250D01*
G54D12*
X2016300Y228500D02*
X2013530Y221000D01*
X2019160Y215360D01*
X2027980Y224180D01*
X2016300Y228500D01*
G54D12*
X2257830Y261880D02*
X2283140Y331220D01*
G54D12*
G75*
G01X2303498Y343926D02*
G03X2283133Y331200I-2038J-19396D01*
G01*
G54D12*
X2303400Y343930D02*
X2339150Y340350D01*
X2344150Y340350D01*
G54D12*
X2062220Y247900D02*
X2061220Y239900D01*
X2061220Y237900D01*
G54D12*
G75*
G01X2061088Y237190D02*
G03X2061220Y237900I-1848J710D01*
G01*
G54D12*
X2061090Y237180D02*
X2060300Y235150D01*
G54D12*
G75*
G01X2056434Y230788D02*
G03X2060304Y235162I-3914J7362D01*
G01*
G54D12*
X2056380Y230760D02*
X2056280Y230700D01*
G54D12*
G75*
G01X2054220Y229961D02*
G03X2056220Y230669I-1690J7949D01*
G01*
G54D12*
X2054270Y229970D02*
X2013530Y221000D01*
G54D14*
X2334150Y340350D02*
X2354150Y340350D01*
G54D12*
X2087620Y247900D02*
X2086620Y239900D01*
X2086620Y237900D01*
G54D12*
G75*
G01X2086284Y235507D02*
G03X2086620Y237900I-8344J2393D01*
G01*
G54D12*
X2086310Y235570D02*
X2085400Y232300D01*
G54D12*
G75*
G01X2077531Y220965D02*
G03X2085354Y232137I-12311J16945D01*
G01*
G54D12*
X2077470Y220920D02*
X2069240Y214980D01*
G54D12*
G75*
G01X2065939Y212926D02*
G03X2069328Y215044I-13449J25294D01*
G01*
G54D12*
X2065730Y212820D02*
X2065630Y212760D01*
G54D12*
X2065400Y212640D02*
X2027600Y193380D01*
G54D12*
G75*
G01X2015143Y190042D02*
G03X2027599Y193379I-1623J30968D01*
G01*
G54D12*
X2015370Y190050D02*
X1887000Y182400D01*
X1886080Y182360D01*
X1885150Y182350D01*
X1875150Y182350D01*
G54D12*
G75*
G01X1844150Y213350D02*
G03X1875150Y182350I31000J0D01*
G01*
G54D12*
X1844150Y213350D02*
X1844150Y264150D01*
G54D12*
G75*
G01X1844945Y271126D02*
G03X1844150Y264150I30215J-6976D01*
G01*
G54D12*
X1844960Y271170D02*
X1856160Y319360D01*
G54D12*
G75*
G01X1862621Y329883D02*
G03X1856153Y319328I12539J-14943D01*
G01*
G54D12*
X1862660Y329920D02*
X1875150Y340350D01*
X1880150Y340350D01*
G54D12*
X2163820Y247900D02*
X2162820Y255900D01*
X2162820Y257900D01*
G54D12*
G75*
G01X2162820Y257900D02*
G03X2158338Y265509I-8700J0D01*
G01*
G54D12*
X2158340Y265510D02*
X2138890Y276270D01*
G54D12*
G75*
G01X2138900Y276264D02*
G03X2128720Y278897I-10180J-18364D01*
G01*
G54D12*
X2128720Y278900D02*
X2046520Y278900D01*
G54D12*
G75*
G01X2046520Y278900D02*
G03X2041435Y278276I0J-21020D01*
G01*
G54D12*
X2041370Y278260D02*
X1885150Y238750D01*
X1880150Y238750D01*
G54D12*
X2138420Y247900D02*
X2137420Y255900D01*
X2137420Y257900D01*
G54D12*
G75*
G01X2137420Y257900D02*
G03X2132258Y265848I-8700J0D01*
G01*
G54D12*
X2132200Y265870D02*
X2130520Y266610D01*
G54D12*
G75*
G01X2130585Y266581D02*
G03X2126720Y267403I-3865J-8681D01*
G01*
G54D12*
X2126720Y267400D02*
X2046520Y267400D01*
G54D12*
G75*
G01X2046520Y267400D02*
G03X2043430Y266883I0J-9490D01*
G01*
G54D12*
X2043480Y266900D02*
X1885150Y213350D01*
X1880150Y213350D01*
G54D14*
X529250Y213350D02*
X539250Y213350D01*
G54D14*
X529250Y238750D02*
X539250Y238750D01*
G54D14*
X529250Y264150D02*
X539250Y264150D01*
G54D14*
X529250Y289550D02*
X539250Y289550D01*
G54D14*
X529250Y314950D02*
X539250Y314950D01*
G54D14*
X529250Y340350D02*
X539250Y340350D01*
G54D14*
X529250Y365750D02*
X539250Y365750D01*
G54D14*
X529250Y391150D02*
X539250Y391150D01*
G54D14*
X65250Y213350D02*
X75250Y213350D01*
G54D14*
X65250Y238750D02*
X75250Y238750D01*
G54D14*
X65250Y264150D02*
X75250Y264150D01*
G54D14*
X65250Y289550D02*
X75250Y289550D01*
G54D14*
X65250Y314950D02*
X75250Y314950D01*
G54D14*
X65250Y340350D02*
X75250Y340350D01*
G54D14*
X65250Y365750D02*
X75250Y365750D01*
G54D14*
X65250Y391150D02*
X75250Y391150D01*
G54D14*
X1132780Y213350D02*
X1142780Y213350D01*
G54D14*
X1132780Y238750D02*
X1142780Y238750D01*
G54D14*
X1132780Y264150D02*
X1142780Y264150D01*
G54D14*
X1132780Y289550D02*
X1142780Y289550D01*
G54D14*
X1132780Y314950D02*
X1142780Y314950D01*
G54D14*
X1132780Y340350D02*
X1142780Y340350D01*
G54D14*
X1132780Y365750D02*
X1142780Y365750D01*
G54D14*
X1132780Y391150D02*
X1142780Y391150D01*
G54D14*
X668780Y213350D02*
X678780Y213350D01*
G54D14*
X668780Y238750D02*
X678780Y238750D01*
G54D14*
X668780Y264150D02*
X678780Y264150D01*
G54D14*
X668780Y289550D02*
X678780Y289550D01*
G54D14*
X668780Y314950D02*
X678780Y314950D01*
G54D14*
X668780Y340350D02*
X678780Y340350D01*
G54D14*
X668780Y365750D02*
X678780Y365750D01*
G54D14*
X668780Y391150D02*
X678780Y391150D01*
G54D14*
X1735970Y213350D02*
X1745970Y213350D01*
G54D14*
X1735970Y238750D02*
X1745970Y238750D01*
G54D14*
X1735970Y264150D02*
X1745970Y264150D01*
G54D14*
X1735970Y289550D02*
X1745970Y289550D01*
G54D14*
X1735970Y314950D02*
X1745970Y314950D01*
G54D14*
X1735970Y340350D02*
X1745970Y340350D01*
G54D14*
X1735970Y365750D02*
X1745970Y365750D01*
G54D14*
X1735970Y391150D02*
X1745970Y391150D01*
G54D14*
X1271970Y213350D02*
X1281970Y213350D01*
G54D14*
X1271970Y238750D02*
X1281970Y238750D01*
G54D14*
X1271970Y264150D02*
X1281970Y264150D01*
G54D14*
X1271970Y289550D02*
X1281970Y289550D01*
G54D14*
X1271970Y314950D02*
X1281970Y314950D01*
G54D14*
X1271970Y340350D02*
X1281970Y340350D01*
G54D14*
X1271970Y365750D02*
X1281970Y365750D01*
G54D14*
X1271970Y391150D02*
X1281970Y391150D01*
G54D14*
X2339150Y213350D02*
X2349150Y213350D01*
G54D14*
X2339150Y238750D02*
X2349150Y238750D01*
G54D14*
X2339150Y264150D02*
X2349150Y264150D01*
G54D14*
X2339150Y289550D02*
X2349150Y289550D01*
G54D14*
X2339150Y314950D02*
X2349150Y314950D01*
G54D14*
X2339150Y340350D02*
X2349150Y340350D01*
G54D14*
X2339150Y365750D02*
X2349150Y365750D01*
G54D14*
X2339150Y391150D02*
X2349150Y391150D01*
G54D14*
X1875150Y213350D02*
X1885150Y213350D01*
G54D14*
X1875150Y238750D02*
X1885150Y238750D01*
G54D14*
X1875150Y264150D02*
X1885150Y264150D01*
G54D14*
X1875150Y289550D02*
X1885150Y289550D01*
G54D14*
X1875150Y314950D02*
X1885150Y314950D01*
G54D14*
X1875150Y340350D02*
X1885150Y340350D01*
G54D14*
X1875150Y365750D02*
X1885150Y365750D01*
G54D14*
X1875150Y391150D02*
X1885150Y391150D01*
X291730Y207600D02*
G54D15*
D03*
X319730Y207600D02*
G54D15*
D03*
X893060Y179980D02*
G54D15*
D03*
X921060Y179980D02*
G54D15*
D03*
X1500510Y194120D02*
G54D15*
D03*
X1528510Y194120D02*
G54D15*
D03*
X2112070Y182920D02*
G54D15*
D03*
X2140070Y182920D02*
G54D15*
D03*
X233610Y365710D02*
G54D16*
D03*
X246310Y365710D02*
G54D16*
D03*
X259010Y365710D02*
G54D16*
D03*
X271710Y365710D02*
G54D16*
D03*
X284410Y365710D02*
G54D16*
D03*
X297110Y365710D02*
G54D16*
D03*
X309810Y365710D02*
G54D16*
D03*
X322510Y365710D02*
G54D16*
D03*
X335210Y365710D02*
G54D16*
D03*
X347910Y365710D02*
G54D16*
D03*
X360610Y365710D02*
G54D16*
D03*
X373310Y365710D02*
G54D16*
D03*
X373310Y271710D02*
G54D16*
D03*
X360610Y271710D02*
G54D16*
D03*
X347910Y271710D02*
G54D16*
D03*
X335210Y271710D02*
G54D16*
D03*
X322510Y271710D02*
G54D16*
D03*
X309810Y271710D02*
G54D16*
D03*
X297110Y271710D02*
G54D16*
D03*
X284410Y271710D02*
G54D16*
D03*
X271710Y271710D02*
G54D16*
D03*
X259010Y271710D02*
G54D16*
D03*
X246310Y271710D02*
G54D16*
D03*
X233610Y271710D02*
G54D16*
D03*
X837150Y381600D02*
G54D16*
D03*
X849850Y381600D02*
G54D16*
D03*
X862550Y381600D02*
G54D16*
D03*
X875250Y381600D02*
G54D16*
D03*
X887950Y381600D02*
G54D16*
D03*
X900650Y381600D02*
G54D16*
D03*
X913350Y381600D02*
G54D16*
D03*
X926050Y381600D02*
G54D16*
D03*
X938750Y381600D02*
G54D16*
D03*
X951450Y381600D02*
G54D16*
D03*
X964150Y381600D02*
G54D16*
D03*
X976850Y381600D02*
G54D16*
D03*
X976850Y287600D02*
G54D16*
D03*
X964150Y287600D02*
G54D16*
D03*
X951450Y287600D02*
G54D16*
D03*
X938750Y287600D02*
G54D16*
D03*
X926050Y287600D02*
G54D16*
D03*
X913350Y287600D02*
G54D16*
D03*
X900650Y287600D02*
G54D16*
D03*
X887950Y287600D02*
G54D16*
D03*
X875250Y287600D02*
G54D16*
D03*
X862550Y287600D02*
G54D16*
D03*
X849850Y287600D02*
G54D16*
D03*
X837150Y287600D02*
G54D16*
D03*
G36*
X1449340Y352540D02*
X1443340Y352540D01*
X1443340Y372540D01*
X1449340Y372540D01*
X1449340Y352540D01*
G37*
G54D17*
X1449340Y352540D02*
X1443340Y352540D01*
X1443340Y372540D01*
X1449340Y372540D01*
X1449340Y352540D01*
G36*
X1462040Y352540D02*
X1456040Y352540D01*
X1456040Y372540D01*
X1462040Y372540D01*
X1462040Y352540D01*
G37*
G54D17*
X1462040Y352540D02*
X1456040Y352540D01*
X1456040Y372540D01*
X1462040Y372540D01*
X1462040Y352540D01*
G36*
X1474740Y352540D02*
X1468740Y352540D01*
X1468740Y372540D01*
X1474740Y372540D01*
X1474740Y352540D01*
G37*
G54D17*
X1474740Y352540D02*
X1468740Y352540D01*
X1468740Y372540D01*
X1474740Y372540D01*
X1474740Y352540D01*
G36*
X1487440Y352540D02*
X1481440Y352540D01*
X1481440Y372540D01*
X1487440Y372540D01*
X1487440Y352540D01*
G37*
G54D17*
X1487440Y352540D02*
X1481440Y352540D01*
X1481440Y372540D01*
X1487440Y372540D01*
X1487440Y352540D01*
G36*
X1500140Y352540D02*
X1494140Y352540D01*
X1494140Y372540D01*
X1500140Y372540D01*
X1500140Y352540D01*
G37*
G54D17*
X1500140Y352540D02*
X1494140Y352540D01*
X1494140Y372540D01*
X1500140Y372540D01*
X1500140Y352540D01*
G36*
X1512840Y352540D02*
X1506840Y352540D01*
X1506840Y372540D01*
X1512840Y372540D01*
X1512840Y352540D01*
G37*
G54D17*
X1512840Y352540D02*
X1506840Y352540D01*
X1506840Y372540D01*
X1512840Y372540D01*
X1512840Y352540D01*
G36*
X1525540Y352540D02*
X1519540Y352540D01*
X1519540Y372540D01*
X1525540Y372540D01*
X1525540Y352540D01*
G37*
G54D17*
X1525540Y352540D02*
X1519540Y352540D01*
X1519540Y372540D01*
X1525540Y372540D01*
X1525540Y352540D01*
G36*
X1538240Y352540D02*
X1532240Y352540D01*
X1532240Y372540D01*
X1538240Y372540D01*
X1538240Y352540D01*
G37*
G54D17*
X1538240Y352540D02*
X1532240Y352540D01*
X1532240Y372540D01*
X1538240Y372540D01*
X1538240Y352540D01*
G36*
X1550940Y352540D02*
X1544940Y352540D01*
X1544940Y372540D01*
X1550940Y372540D01*
X1550940Y352540D01*
G37*
G54D17*
X1550940Y352540D02*
X1544940Y352540D01*
X1544940Y372540D01*
X1550940Y372540D01*
X1550940Y352540D01*
G36*
X1563640Y352540D02*
X1557640Y352540D01*
X1557640Y372540D01*
X1563640Y372540D01*
X1563640Y352540D01*
G37*
G54D17*
X1563640Y352540D02*
X1557640Y352540D01*
X1557640Y372540D01*
X1563640Y372540D01*
X1563640Y352540D01*
G36*
X1576340Y352540D02*
X1570340Y352540D01*
X1570340Y372540D01*
X1576340Y372540D01*
X1576340Y352540D01*
G37*
G54D17*
X1576340Y352540D02*
X1570340Y352540D01*
X1570340Y372540D01*
X1576340Y372540D01*
X1576340Y352540D01*
G36*
X1589040Y352540D02*
X1583040Y352540D01*
X1583040Y372540D01*
X1589040Y372540D01*
X1589040Y352540D01*
G37*
G54D17*
X1589040Y352540D02*
X1583040Y352540D01*
X1583040Y372540D01*
X1589040Y372540D01*
X1589040Y352540D01*
G36*
X1589040Y258530D02*
X1583040Y258530D01*
X1583040Y278530D01*
X1589040Y278530D01*
X1589040Y258530D01*
G37*
G54D17*
X1589040Y258530D02*
X1583040Y258530D01*
X1583040Y278530D01*
X1589040Y278530D01*
X1589040Y258530D01*
G36*
X1576340Y258530D02*
X1570340Y258530D01*
X1570340Y278530D01*
X1576340Y278530D01*
X1576340Y258530D01*
G37*
G54D17*
X1576340Y258530D02*
X1570340Y258530D01*
X1570340Y278530D01*
X1576340Y278530D01*
X1576340Y258530D01*
G36*
X1563640Y258530D02*
X1557640Y258530D01*
X1557640Y278530D01*
X1563640Y278530D01*
X1563640Y258530D01*
G37*
G54D17*
X1563640Y258530D02*
X1557640Y258530D01*
X1557640Y278530D01*
X1563640Y278530D01*
X1563640Y258530D01*
G36*
X1550940Y258530D02*
X1544940Y258530D01*
X1544940Y278530D01*
X1550940Y278530D01*
X1550940Y258530D01*
G37*
G54D17*
X1550940Y258530D02*
X1544940Y258530D01*
X1544940Y278530D01*
X1550940Y278530D01*
X1550940Y258530D01*
G36*
X1538240Y258530D02*
X1532240Y258530D01*
X1532240Y278530D01*
X1538240Y278530D01*
X1538240Y258530D01*
G37*
G54D17*
X1538240Y258530D02*
X1532240Y258530D01*
X1532240Y278530D01*
X1538240Y278530D01*
X1538240Y258530D01*
G36*
X1525540Y258530D02*
X1519540Y258530D01*
X1519540Y278530D01*
X1525540Y278530D01*
X1525540Y258530D01*
G37*
G54D17*
X1525540Y258530D02*
X1519540Y258530D01*
X1519540Y278530D01*
X1525540Y278530D01*
X1525540Y258530D01*
G36*
X1512840Y258530D02*
X1506840Y258530D01*
X1506840Y278530D01*
X1512840Y278530D01*
X1512840Y258530D01*
G37*
G54D17*
X1512840Y258530D02*
X1506840Y258530D01*
X1506840Y278530D01*
X1512840Y278530D01*
X1512840Y258530D01*
G36*
X1500140Y258530D02*
X1494140Y258530D01*
X1494140Y278530D01*
X1500140Y278530D01*
X1500140Y258530D01*
G37*
G54D17*
X1500140Y258530D02*
X1494140Y258530D01*
X1494140Y278530D01*
X1500140Y278530D01*
X1500140Y258530D01*
G36*
X1487440Y258530D02*
X1481440Y258530D01*
X1481440Y278530D01*
X1487440Y278530D01*
X1487440Y258530D01*
G37*
G54D17*
X1487440Y258530D02*
X1481440Y258530D01*
X1481440Y278530D01*
X1487440Y278530D01*
X1487440Y258530D01*
G36*
X1474740Y258530D02*
X1468740Y258530D01*
X1468740Y278530D01*
X1474740Y278530D01*
X1474740Y258530D01*
G37*
G54D17*
X1474740Y258530D02*
X1468740Y258530D01*
X1468740Y278530D01*
X1474740Y278530D01*
X1474740Y258530D01*
G36*
X1462040Y258530D02*
X1456040Y258530D01*
X1456040Y278530D01*
X1462040Y278530D01*
X1462040Y258530D01*
G37*
G54D17*
X1462040Y258530D02*
X1456040Y258530D01*
X1456040Y278530D01*
X1462040Y278530D01*
X1462040Y258530D01*
G36*
X1449340Y258530D02*
X1443340Y258530D01*
X1443340Y278530D01*
X1449340Y278530D01*
X1449340Y258530D01*
G37*
G54D17*
X1449340Y258530D02*
X1443340Y258530D01*
X1443340Y278530D01*
X1449340Y278530D01*
X1449340Y258530D01*
G36*
X2052520Y331900D02*
X2046520Y331900D01*
X2046520Y351900D01*
X2052520Y351900D01*
X2052520Y331900D01*
G37*
G54D17*
X2052520Y331900D02*
X2046520Y331900D01*
X2046520Y351900D01*
X2052520Y351900D01*
X2052520Y331900D01*
G36*
X2065220Y331900D02*
X2059220Y331900D01*
X2059220Y351900D01*
X2065220Y351900D01*
X2065220Y331900D01*
G37*
G54D17*
X2065220Y331900D02*
X2059220Y331900D01*
X2059220Y351900D01*
X2065220Y351900D01*
X2065220Y331900D01*
G36*
X2077920Y331900D02*
X2071920Y331900D01*
X2071920Y351900D01*
X2077920Y351900D01*
X2077920Y331900D01*
G37*
G54D17*
X2077920Y331900D02*
X2071920Y331900D01*
X2071920Y351900D01*
X2077920Y351900D01*
X2077920Y331900D01*
G36*
X2090620Y331900D02*
X2084620Y331900D01*
X2084620Y351900D01*
X2090620Y351900D01*
X2090620Y331900D01*
G37*
G54D17*
X2090620Y331900D02*
X2084620Y331900D01*
X2084620Y351900D01*
X2090620Y351900D01*
X2090620Y331900D01*
G36*
X2103320Y331900D02*
X2097320Y331900D01*
X2097320Y351900D01*
X2103320Y351900D01*
X2103320Y331900D01*
G37*
G54D17*
X2103320Y331900D02*
X2097320Y331900D01*
X2097320Y351900D01*
X2103320Y351900D01*
X2103320Y331900D01*
G36*
X2116020Y331900D02*
X2110020Y331900D01*
X2110020Y351900D01*
X2116020Y351900D01*
X2116020Y331900D01*
G37*
G54D17*
X2116020Y331900D02*
X2110020Y331900D01*
X2110020Y351900D01*
X2116020Y351900D01*
X2116020Y331900D01*
G36*
X2128720Y331900D02*
X2122720Y331900D01*
X2122720Y351900D01*
X2128720Y351900D01*
X2128720Y331900D01*
G37*
G54D17*
X2128720Y331900D02*
X2122720Y331900D01*
X2122720Y351900D01*
X2128720Y351900D01*
X2128720Y331900D01*
G36*
X2141420Y331900D02*
X2135420Y331900D01*
X2135420Y351900D01*
X2141420Y351900D01*
X2141420Y331900D01*
G37*
G54D17*
X2141420Y331900D02*
X2135420Y331900D01*
X2135420Y351900D01*
X2141420Y351900D01*
X2141420Y331900D01*
G36*
X2154120Y331900D02*
X2148120Y331900D01*
X2148120Y351900D01*
X2154120Y351900D01*
X2154120Y331900D01*
G37*
G54D17*
X2154120Y331900D02*
X2148120Y331900D01*
X2148120Y351900D01*
X2154120Y351900D01*
X2154120Y331900D01*
G36*
X2166820Y331900D02*
X2160820Y331900D01*
X2160820Y351900D01*
X2166820Y351900D01*
X2166820Y331900D01*
G37*
G54D17*
X2166820Y331900D02*
X2160820Y331900D01*
X2160820Y351900D01*
X2166820Y351900D01*
X2166820Y331900D01*
G36*
X2179520Y331900D02*
X2173520Y331900D01*
X2173520Y351900D01*
X2179520Y351900D01*
X2179520Y331900D01*
G37*
G54D17*
X2179520Y331900D02*
X2173520Y331900D01*
X2173520Y351900D01*
X2179520Y351900D01*
X2179520Y331900D01*
G36*
X2192220Y331900D02*
X2186220Y331900D01*
X2186220Y351900D01*
X2192220Y351900D01*
X2192220Y331900D01*
G37*
G54D17*
X2192220Y331900D02*
X2186220Y331900D01*
X2186220Y351900D01*
X2192220Y351900D01*
X2192220Y331900D01*
G36*
X2192220Y237900D02*
X2186220Y237900D01*
X2186220Y257900D01*
X2192220Y257900D01*
X2192220Y237900D01*
G37*
G54D17*
X2192220Y237900D02*
X2186220Y237900D01*
X2186220Y257900D01*
X2192220Y257900D01*
X2192220Y237900D01*
G36*
X2179520Y237900D02*
X2173520Y237900D01*
X2173520Y257900D01*
X2179520Y257900D01*
X2179520Y237900D01*
G37*
G54D17*
X2179520Y237900D02*
X2173520Y237900D01*
X2173520Y257900D01*
X2179520Y257900D01*
X2179520Y237900D01*
G36*
X2166820Y237900D02*
X2160820Y237900D01*
X2160820Y257900D01*
X2166820Y257900D01*
X2166820Y237900D01*
G37*
G54D17*
X2166820Y237900D02*
X2160820Y237900D01*
X2160820Y257900D01*
X2166820Y257900D01*
X2166820Y237900D01*
G36*
X2154120Y237900D02*
X2148120Y237900D01*
X2148120Y257900D01*
X2154120Y257900D01*
X2154120Y237900D01*
G37*
G54D17*
X2154120Y237900D02*
X2148120Y237900D01*
X2148120Y257900D01*
X2154120Y257900D01*
X2154120Y237900D01*
G36*
X2141420Y237900D02*
X2135420Y237900D01*
X2135420Y257900D01*
X2141420Y257900D01*
X2141420Y237900D01*
G37*
G54D17*
X2141420Y237900D02*
X2135420Y237900D01*
X2135420Y257900D01*
X2141420Y257900D01*
X2141420Y237900D01*
G36*
X2128720Y237900D02*
X2122720Y237900D01*
X2122720Y257900D01*
X2128720Y257900D01*
X2128720Y237900D01*
G37*
G54D17*
X2128720Y237900D02*
X2122720Y237900D01*
X2122720Y257900D01*
X2128720Y257900D01*
X2128720Y237900D01*
G36*
X2116020Y237900D02*
X2110020Y237900D01*
X2110020Y257900D01*
X2116020Y257900D01*
X2116020Y237900D01*
G37*
G54D17*
X2116020Y237900D02*
X2110020Y237900D01*
X2110020Y257900D01*
X2116020Y257900D01*
X2116020Y237900D01*
G36*
X2103320Y237900D02*
X2097320Y237900D01*
X2097320Y257900D01*
X2103320Y257900D01*
X2103320Y237900D01*
G37*
G54D17*
X2103320Y237900D02*
X2097320Y237900D01*
X2097320Y257900D01*
X2103320Y257900D01*
X2103320Y237900D01*
G36*
X2090620Y237900D02*
X2084620Y237900D01*
X2084620Y257900D01*
X2090620Y257900D01*
X2090620Y237900D01*
G37*
G54D17*
X2090620Y237900D02*
X2084620Y237900D01*
X2084620Y257900D01*
X2090620Y257900D01*
X2090620Y237900D01*
G36*
X2077920Y237900D02*
X2071920Y237900D01*
X2071920Y257900D01*
X2077920Y257900D01*
X2077920Y237900D01*
G37*
G54D17*
X2077920Y237900D02*
X2071920Y237900D01*
X2071920Y257900D01*
X2077920Y257900D01*
X2077920Y237900D01*
G36*
X2065220Y237900D02*
X2059220Y237900D01*
X2059220Y257900D01*
X2065220Y257900D01*
X2065220Y237900D01*
G37*
G54D17*
X2065220Y237900D02*
X2059220Y237900D01*
X2059220Y257900D01*
X2065220Y257900D01*
X2065220Y237900D01*
G36*
X2052520Y237900D02*
X2046520Y237900D01*
X2046520Y257900D01*
X2052520Y257900D01*
X2052520Y237900D01*
G37*
G54D17*
X2052520Y237900D02*
X2046520Y237900D01*
X2046520Y257900D01*
X2052520Y257900D01*
X2052520Y237900D01*
G36*
X1217940Y571050D02*
X1209550Y571880D01*
X1201160Y571050D01*
X1193100Y568600D01*
X1185660Y564630D01*
X1179150Y559280D01*
X1173800Y552770D01*
X1169830Y545330D01*
X1167380Y537270D01*
X1172130Y536030D01*
X1182230Y544580D01*
X1178090Y547690D01*
X1196000Y555840D01*
X1185880Y547100D01*
X1190690Y543950D01*
X1172130Y536030D01*
X1167380Y537270D01*
X1166560Y528880D01*
X1167380Y520490D01*
X1169830Y512430D01*
X1173800Y504990D01*
X1174550Y509370D01*
X1174550Y513430D01*
X1180260Y513430D01*
X1180260Y526100D01*
X1184880Y526100D01*
X1186130Y526100D01*
X1197280Y526100D01*
X1200010Y524580D01*
X1200010Y534320D01*
X1226790Y534320D01*
X1226790Y509370D01*
X1230430Y509370D01*
X1230430Y549530D01*
X1226790Y549530D01*
X1226790Y539780D01*
X1200010Y539780D01*
X1200010Y549530D01*
X1226790Y549530D01*
X1230430Y549530D01*
X1241460Y549530D01*
X1241460Y509370D01*
X1230430Y509370D01*
X1226790Y509370D01*
X1215700Y509370D01*
X1215700Y524580D01*
X1200010Y524580D01*
X1197280Y526100D01*
X1197280Y522040D01*
X1186130Y522040D01*
X1186130Y526100D01*
X1184880Y526100D01*
X1184880Y509370D01*
X1186130Y509370D01*
X1186130Y513430D01*
X1192660Y513430D01*
X1192660Y515700D01*
X1186130Y515700D01*
X1186130Y519770D01*
X1197280Y519770D01*
X1197280Y509370D01*
X1186130Y509370D01*
X1184880Y509370D01*
X1174550Y509370D01*
X1173800Y504990D01*
X1179150Y498480D01*
X1185660Y493130D01*
X1193100Y489160D01*
X1201160Y486710D01*
X1209550Y485890D01*
X1217940Y486710D01*
X1226000Y489160D01*
X1233440Y493130D01*
X1239950Y498480D01*
X1245300Y504990D01*
X1249270Y512430D01*
X1251720Y520490D01*
X1252550Y528880D01*
X1251720Y537270D01*
X1249270Y545330D01*
X1245300Y552770D01*
X1239950Y559280D01*
X1233440Y564630D01*
X1226000Y568600D01*
X1217940Y571050D01*
G37*
G54D14*
X524300Y213350D02*
X544300Y213350D01*
G54D14*
X524300Y238750D02*
X544300Y238750D01*
G54D14*
X524300Y264150D02*
X544300Y264150D01*
G54D14*
X524300Y289550D02*
X544300Y289550D01*
G54D14*
X524300Y314950D02*
X544300Y314950D01*
G54D14*
X524300Y340350D02*
X544300Y340350D01*
G54D14*
X524300Y365750D02*
X544300Y365750D01*
G54D14*
X524300Y391150D02*
X544300Y391150D01*
G54D14*
X663800Y391150D02*
X683800Y391150D01*
G54D14*
X663800Y365750D02*
X683800Y365750D01*
G54D14*
X663800Y340350D02*
X683800Y340350D01*
G54D14*
X663800Y314950D02*
X683800Y314950D01*
G54D14*
X663800Y289550D02*
X683800Y289550D01*
G54D14*
X663800Y264150D02*
X683800Y264150D01*
G54D14*
X1127800Y213350D02*
X1147800Y213350D01*
G54D14*
X1127800Y238750D02*
X1147800Y238750D01*
G54D14*
X1127800Y264150D02*
X1147800Y264150D01*
G54D14*
X1127800Y289550D02*
X1147800Y289550D01*
G54D14*
X1127800Y340350D02*
X1147800Y340350D01*
G54D14*
X1127800Y365750D02*
X1147800Y365750D01*
G54D14*
X1127800Y391150D02*
X1147800Y391150D01*
G54D14*
X1267000Y391150D02*
X1287000Y391150D01*
G54D14*
X1267000Y365750D02*
X1287000Y365750D01*
G54D14*
X1267000Y340350D02*
X1287000Y340350D01*
G54D14*
X1267000Y314950D02*
X1287000Y314950D01*
G54D14*
X1267000Y289550D02*
X1287000Y289550D01*
G54D14*
X1267000Y264150D02*
X1287000Y264150D01*
G54D14*
X1267000Y238750D02*
X1287000Y238750D01*
G54D14*
X1267000Y213350D02*
X1287000Y213350D01*
G54D14*
X1731000Y213350D02*
X1751000Y213350D01*
G54D14*
X1731000Y238750D02*
X1751000Y238750D01*
G54D14*
X1731000Y264150D02*
X1751000Y264150D01*
G54D14*
X1731000Y314950D02*
X1751000Y314950D01*
G54D14*
X1731000Y365750D02*
X1751000Y365750D01*
G54D14*
X1870200Y391150D02*
X1890200Y391150D01*
G54D14*
X1870200Y365750D02*
X1890200Y365750D01*
G54D14*
X1870200Y340350D02*
X1890200Y340350D01*
G54D14*
X1870200Y314950D02*
X1890200Y314950D01*
G54D14*
X1870200Y289550D02*
X1890200Y289550D01*
G54D14*
X1870200Y264150D02*
X1890200Y264150D01*
G54D14*
X1870200Y238750D02*
X1890200Y238750D01*
G54D14*
X1870200Y213350D02*
X1890200Y213350D01*
G54D14*
X2334200Y213350D02*
X2354200Y213350D01*
G54D14*
X2334200Y238750D02*
X2354200Y238750D01*
G54D14*
X2334200Y264150D02*
X2354200Y264150D01*
G54D14*
X2334200Y365750D02*
X2354200Y365750D01*
G54D14*
X2334200Y391150D02*
X2354200Y391150D01*
G54D14*
X60300Y391150D02*
X80300Y391150D01*
G54D14*
X60300Y365750D02*
X80300Y365750D01*
G54D14*
X60300Y340350D02*
X80300Y340350D01*
G54D14*
X60300Y314950D02*
X80300Y314950D01*
G54D14*
X60300Y289550D02*
X80300Y289550D01*
G54D14*
X60300Y238750D02*
X80300Y238750D01*
G54D14*
X60300Y213350D02*
X80300Y213350D01*
G54D18*
X2165297Y551441D02*
X2171520Y549496D01*
X2174630Y545607D01*
X2174630Y526163D01*
X2171520Y522274D01*
X2165297Y520330D01*
G54D18*
X2138853Y536663D02*
X2145075Y537830D01*
X2151298Y536663D01*
X2154408Y532774D01*
X2154408Y524996D01*
X2151298Y521107D01*
X2145075Y520330D01*
X2138853Y521107D01*
G54D18*
X2127964Y551441D02*
X2121741Y549496D01*
X2118630Y545607D01*
X2118630Y526163D01*
X2121741Y522274D01*
X2127964Y520330D01*
G54D18*
X2107742Y520330D02*
X2082852Y520330D01*
G54D18*
X2095297Y520330D02*
X2095297Y551441D01*
G54D18*
X2107742Y551441D02*
X2082852Y551441D01*
G54D18*
X2071964Y537830D02*
X2059519Y520330D01*
X2047074Y537830D01*
G54D18*
X2036186Y535885D02*
X2029963Y537830D01*
X2022496Y537830D01*
X2017519Y533941D01*
X2017519Y520330D01*
G54D18*
X2017519Y526163D02*
X2020630Y530052D01*
X2026852Y530830D01*
X2033074Y530052D01*
X2036186Y526163D01*
X2034941Y522274D01*
X2029963Y520330D01*
X2026852Y520330D01*
X2025608Y520330D01*
X2020630Y522274D01*
X2017519Y526163D01*
G54D18*
X2006630Y520330D02*
X2006630Y537830D01*
G54D18*
X2006630Y533941D02*
X2003518Y536663D01*
X1997296Y537830D01*
X1991074Y536663D01*
X1987963Y533941D01*
X1987963Y520330D01*
G54D18*
X1977074Y520330D02*
X1945962Y520330D01*
G54D18*
X1928851Y520330D02*
X1928851Y549496D01*
X1925740Y551441D01*
X1922629Y550274D01*
G54D18*
X1935074Y537830D02*
X1922629Y537830D01*
G54D18*
X1893074Y520330D02*
X1893074Y551441D01*
G54D18*
X1893074Y532774D02*
X1896185Y536663D01*
X1902407Y537830D01*
X1908630Y536663D01*
X1911740Y532774D01*
X1911740Y524996D01*
X1908630Y521107D01*
X1902407Y520330D01*
X1896185Y521107D01*
X1893074Y524996D01*
G54D18*
X1845784Y520330D02*
X1870674Y520330D01*
X1870674Y522274D01*
X1867562Y526163D01*
X1848896Y537830D01*
X1845784Y541718D01*
X1845784Y545607D01*
X1848896Y549496D01*
X1855118Y551441D01*
X1861340Y551441D01*
X1867562Y549496D01*
X1870674Y545607D01*
G54D18*
X1816229Y520330D02*
X1816229Y551441D01*
X1834896Y531996D01*
X1834896Y528107D01*
X1810006Y528107D01*
G54D18*
X1796628Y520330D02*
X1799118Y520330D01*
X1799118Y521885D01*
X1796628Y521885D01*
X1796628Y520330D01*
X1799118Y520330D01*
G54D18*
X1760850Y545607D02*
X1760850Y526163D01*
X1763962Y522274D01*
X1770184Y520330D01*
X1776406Y520330D01*
X1782628Y522274D01*
X1785740Y526163D01*
X1785740Y545607D01*
X1782628Y549496D01*
X1776406Y551441D01*
X1770184Y551441D01*
X1763962Y549496D01*
X1760850Y545607D01*
G54D18*
X1725072Y520330D02*
X1749962Y520330D01*
X1749962Y522274D01*
X1746850Y526163D01*
X1728184Y537830D01*
X1725072Y541718D01*
X1725072Y545607D01*
X1728184Y549496D01*
X1734406Y551441D01*
X1740628Y551441D01*
X1746850Y549496D01*
X1749962Y545607D01*
G54D18*
X1711694Y520330D02*
X1714184Y520330D01*
X1714184Y521885D01*
X1711694Y521885D01*
X1711694Y520330D01*
X1714184Y520330D01*
G54D18*
X1675916Y520330D02*
X1700806Y520330D01*
X1700806Y522274D01*
X1697694Y526163D01*
X1679028Y537830D01*
X1675916Y541718D01*
X1675916Y545607D01*
X1679028Y549496D01*
X1685250Y551441D01*
X1691472Y551441D01*
X1697694Y549496D01*
X1700806Y545607D01*
G54D18*
X1640138Y545607D02*
X1640138Y526163D01*
X1643250Y522274D01*
X1649472Y520330D01*
X1655694Y520330D01*
X1661916Y522274D01*
X1665028Y526163D01*
X1665028Y545607D01*
X1661916Y549496D01*
X1655694Y551441D01*
X1649472Y551441D01*
X1643250Y549496D01*
X1640138Y545607D01*
G54D18*
X1629250Y539774D02*
X1613694Y551441D01*
X1613694Y520330D01*
G54D18*
X1577916Y545607D02*
X1581027Y549496D01*
X1587249Y551441D01*
X1593471Y551441D01*
X1599694Y549496D01*
X1602804Y545607D01*
X1602804Y535885D01*
X1602804Y533941D01*
X1593471Y537830D01*
X1587249Y537830D01*
X1581027Y535885D01*
X1577916Y531996D01*
X1577916Y526163D01*
X1581027Y522274D01*
X1587249Y520330D01*
X1593471Y520330D01*
X1599694Y522274D01*
X1602804Y526163D01*
X1602804Y535885D01*
G54D18*
X1544004Y520330D02*
X1544004Y551441D01*
X1528449Y551441D01*
X1522227Y549496D01*
X1519116Y545607D01*
X1519116Y541718D01*
X1522227Y537830D01*
X1528449Y535885D01*
X1522227Y533941D01*
X1519116Y530052D01*
X1519116Y526163D01*
X1522227Y522274D01*
X1528449Y520330D01*
X1544004Y520330D01*
G54D18*
X1544004Y535885D02*
X1528449Y535885D01*
G54D18*
X1489560Y524996D02*
X1489560Y532774D01*
X1492671Y536663D01*
X1498893Y537830D01*
X1505116Y536663D01*
X1508226Y532774D01*
X1508226Y524996D01*
X1505116Y521107D01*
X1498893Y520330D01*
X1492671Y521107D01*
X1489560Y524996D01*
G54D18*
X1472448Y551441D02*
X1472448Y522274D01*
X1469337Y520330D01*
X1466226Y521107D01*
G54D18*
X1478670Y537830D02*
X1466226Y537830D01*
G54D18*
X1455338Y520330D02*
X1424226Y520330D01*
G54D18*
X1413338Y551441D02*
X1413338Y520330D01*
X1391560Y520330D01*
G54D18*
X1380670Y535885D02*
X1374448Y537830D01*
X1366982Y537830D01*
X1362004Y533941D01*
X1362004Y520330D01*
G54D18*
X1362004Y526163D02*
X1365115Y530052D01*
X1371337Y530830D01*
X1377560Y530052D01*
X1380670Y526163D01*
X1379426Y522274D01*
X1374448Y520330D01*
X1371337Y520330D01*
X1370093Y520330D01*
X1365115Y522274D01*
X1362004Y526163D01*
G54D18*
X1351114Y537830D02*
X1338670Y520330D01*
X1326226Y537830D01*
G54D18*
X1338670Y520330D02*
X1341781Y514496D01*
X1344892Y512552D01*
X1348004Y512552D01*
X50800Y558800D02*
G54D19*
D03*
X50800Y44450D02*
G54D19*
D03*
X2362200Y44450D02*
G54D19*
D03*
X2362200Y558800D02*
G54D19*
D03*
X146050Y622300D02*
G54D20*
D03*
X101600Y-19050D02*
G54D21*
D03*
X2425700Y615950D02*
G54D22*
D03*
X2197100Y-12700D02*
G54D23*
D03*
G36*
X2282460Y530690D02*
X2282600Y529260D01*
X2282540Y527880D01*
X2282340Y526380D01*
X2282010Y524770D01*
X2281550Y523050D01*
X2280240Y519250D01*
X2278400Y515000D01*
X2276570Y511320D01*
X2274680Y507920D01*
X2272720Y504780D01*
X2270690Y501910D01*
X2273660Y511210D01*
X2275780Y518440D01*
X2276520Y521280D01*
X2277050Y523600D01*
X2277370Y525410D01*
X2277480Y526710D01*
X2277130Y528600D01*
X2276460Y529280D01*
X2275190Y529990D01*
X2273330Y530730D01*
X2270870Y531510D01*
X2271520Y529760D01*
X2271740Y528130D01*
X2271600Y525620D01*
X2271190Y522970D01*
X2270490Y520190D01*
X2269520Y517270D01*
X2268270Y514220D01*
X2266750Y511020D01*
X2264940Y507690D01*
X2262860Y504220D01*
X2265610Y515540D01*
X2266290Y518940D01*
X2266770Y521960D01*
X2267060Y524620D01*
X2267160Y526910D01*
X2267110Y528370D01*
X2266960Y529580D01*
X2266700Y530540D01*
X2266350Y531250D01*
X2265850Y531810D01*
X2265050Y532440D01*
X2263960Y533140D01*
X2262580Y533900D01*
X2263040Y528010D01*
X2262980Y526080D01*
X2262800Y524180D01*
X2262510Y522290D01*
X2262100Y520430D01*
X2261580Y518590D01*
X2260950Y516800D01*
X2260200Y515040D01*
X2259330Y513310D01*
X2258020Y511270D01*
X2256690Y509810D01*
X2256020Y509300D01*
X2255340Y508940D01*
X2254670Y508720D01*
X2253980Y508650D01*
X2253290Y508720D01*
X2252600Y508940D01*
X2251920Y509300D01*
X2251250Y509810D01*
X2249910Y511270D01*
X2248600Y513310D01*
X2247710Y515040D01*
X2246940Y516800D01*
X2246300Y518590D01*
X2245780Y520430D01*
X2245370Y522290D01*
X2245080Y524180D01*
X2244900Y526080D01*
X2244850Y528010D01*
X2245260Y533900D01*
X2243880Y533140D01*
X2242790Y532440D01*
X2241990Y531810D01*
X2241480Y531250D01*
X2241130Y530540D01*
X2240880Y529580D01*
X2240730Y528370D01*
X2240680Y526910D01*
X2240780Y524620D01*
X2241070Y521960D01*
X2241560Y518940D01*
X2242240Y515540D01*
X2244970Y504220D01*
X2242890Y507680D01*
X2241090Y511010D01*
X2239560Y514200D01*
X2238310Y517250D01*
X2237340Y520170D01*
X2236650Y522960D01*
X2236230Y525610D01*
X2236090Y528130D01*
X2236150Y528930D01*
X2236320Y529760D01*
X2236610Y530620D01*
X2237010Y531510D01*
X2234540Y530730D01*
X2232670Y529990D01*
X2231410Y529280D01*
X2230750Y528600D01*
X2230360Y526710D01*
X2230470Y525390D01*
X2230790Y523560D01*
X2231320Y521230D01*
X2232070Y518380D01*
X2234200Y511160D01*
X2237190Y501910D01*
X2235160Y504760D01*
X2233190Y507900D01*
X2231280Y511310D01*
X2229440Y515000D01*
X2227600Y519250D01*
X2226290Y523050D01*
X2225830Y524770D01*
X2225500Y526380D01*
X2225300Y527880D01*
X2225230Y529260D01*
X2225380Y530690D01*
X2225820Y531660D01*
X2226400Y532100D01*
X2227560Y532650D01*
X2229290Y533300D01*
X2231590Y534070D01*
X2237910Y535930D01*
X2246530Y538240D01*
X2246740Y538660D01*
X2233870Y537900D01*
X2231590Y537990D01*
X2230400Y538270D01*
X2230040Y538590D01*
X2229730Y539090D01*
X2229460Y539790D01*
X2229240Y540670D01*
X2228950Y543010D01*
X2228850Y546100D01*
X2228950Y549540D01*
X2229230Y552810D01*
X2229700Y555910D01*
X2230360Y558840D01*
X2231210Y561610D01*
X2232240Y564210D01*
X2233460Y566650D01*
X2234870Y568920D01*
X2233990Y562450D01*
X2233350Y557070D01*
X2232970Y552760D01*
X2232850Y549520D01*
X2232960Y546610D01*
X2233310Y544330D01*
X2233570Y543420D01*
X2233890Y542680D01*
X2234270Y542080D01*
X2234700Y541650D01*
X2235150Y541410D01*
X2235790Y541240D01*
X2236600Y541140D01*
X2237600Y541100D01*
X2241140Y541350D01*
X2240020Y542710D01*
X2239220Y544270D01*
X2238740Y546020D01*
X2238580Y547960D01*
X2238690Y551450D01*
X2239010Y554790D01*
X2239540Y557960D01*
X2240290Y560970D01*
X2241260Y563820D01*
X2242440Y566510D01*
X2243830Y569040D01*
X2245430Y571410D01*
X2244440Y565470D01*
X2243730Y560220D01*
X2243310Y555650D01*
X2243160Y551750D01*
X2243250Y548190D01*
X2243520Y545520D01*
X2243720Y544520D01*
X2243970Y543730D01*
X2244260Y543170D01*
X2244600Y542830D01*
X2245450Y542510D01*
X2246740Y542410D01*
X2251630Y542910D01*
X2250790Y543480D01*
X2250060Y544140D01*
X2249450Y544900D01*
X2248940Y545770D01*
X2248550Y546730D01*
X2248270Y547800D01*
X2248110Y548960D01*
X2248050Y550230D01*
X2248140Y551640D01*
X2248400Y552990D01*
X2248850Y554260D01*
X2249470Y555460D01*
X2250390Y556650D01*
X2251430Y557510D01*
X2252590Y558020D01*
X2253900Y558190D01*
X2255200Y558020D01*
X2256370Y557520D01*
X2257410Y556680D01*
X2258320Y555500D01*
X2258960Y554280D01*
X2259420Y553000D01*
X2259700Y551650D01*
X2259790Y550230D01*
X2259730Y548960D01*
X2259560Y547800D01*
X2259290Y546730D01*
X2258890Y545770D01*
X2258390Y544900D01*
X2257780Y544140D01*
X2257050Y543480D01*
X2256210Y542910D01*
X2261100Y542410D01*
X2262420Y542510D01*
X2263280Y542830D01*
X2263620Y543170D01*
X2263910Y543730D01*
X2264160Y544520D01*
X2264360Y545520D01*
X2264630Y548190D01*
X2264720Y551750D01*
X2264570Y555610D01*
X2264140Y560180D01*
X2263410Y565440D01*
X2262400Y571410D01*
X2264010Y569040D01*
X2265400Y566510D01*
X2266580Y563820D01*
X2267540Y560970D01*
X2268290Y557960D01*
X2268830Y554790D01*
X2269150Y551450D01*
X2269260Y547960D01*
X2269100Y546020D01*
X2268620Y544270D01*
X2267820Y542710D01*
X2266700Y541350D01*
X2270230Y541100D01*
X2271250Y541140D01*
X2272070Y541240D01*
X2272700Y541410D01*
X2273140Y541650D01*
X2273570Y542080D01*
X2273950Y542680D01*
X2274270Y543420D01*
X2274530Y544330D01*
X2274870Y546610D01*
X2274990Y549520D01*
X2274870Y552740D01*
X2274490Y557040D01*
X2273870Y562440D01*
X2273010Y568920D01*
X2274420Y566640D01*
X2275640Y564200D01*
X2276670Y561590D01*
X2277520Y558820D01*
X2278180Y555890D01*
X2278650Y552790D01*
X2278930Y549530D01*
X2279030Y546100D01*
X2278930Y543010D01*
X2278630Y540670D01*
X2278400Y539790D01*
X2278130Y539090D01*
X2277810Y538590D01*
X2277430Y538270D01*
X2276280Y537990D01*
X2274010Y537900D01*
X2261100Y538660D01*
X2261310Y538240D01*
X2269930Y535930D01*
X2276250Y534070D01*
X2278550Y533300D01*
X2280280Y532650D01*
X2281430Y532100D01*
X2282020Y531660D01*
X2282460Y530690D01*
G37*
X1446340Y362540D02*
G54D16*
D03*
X1459040Y362540D02*
G54D16*
D03*
X1471740Y362540D02*
G54D16*
D03*
X1484440Y362540D02*
G54D16*
D03*
X1497140Y362540D02*
G54D16*
D03*
X1509840Y362540D02*
G54D16*
D03*
X1522540Y362540D02*
G54D16*
D03*
X1535240Y362540D02*
G54D16*
D03*
X1547940Y362540D02*
G54D16*
D03*
X1560640Y362540D02*
G54D16*
D03*
X1573340Y362540D02*
G54D16*
D03*
X1586040Y362540D02*
G54D16*
D03*
X1586040Y268540D02*
G54D16*
D03*
X1573340Y268540D02*
G54D16*
D03*
X1560640Y268540D02*
G54D16*
D03*
X1547940Y268540D02*
G54D16*
D03*
X1535240Y268540D02*
G54D16*
D03*
X1522540Y268540D02*
G54D16*
D03*
X1509840Y268540D02*
G54D16*
D03*
X1497140Y268540D02*
G54D16*
D03*
X1484440Y268540D02*
G54D16*
D03*
X1471740Y268540D02*
G54D16*
D03*
X1459040Y268540D02*
G54D16*
D03*
X1446340Y268540D02*
G54D16*
D03*
X2049520Y341900D02*
G54D16*
D03*
X2062220Y341900D02*
G54D16*
D03*
X2074920Y341900D02*
G54D16*
D03*
X2087620Y341900D02*
G54D16*
D03*
X2100320Y341900D02*
G54D16*
D03*
X2113020Y341900D02*
G54D16*
D03*
X2125720Y341900D02*
G54D16*
D03*
X2138420Y341900D02*
G54D16*
D03*
X2151120Y341900D02*
G54D16*
D03*
X2163820Y341900D02*
G54D16*
D03*
X2176520Y341900D02*
G54D16*
D03*
X2189220Y341900D02*
G54D16*
D03*
X2189220Y247900D02*
G54D16*
D03*
X2176520Y247900D02*
G54D16*
D03*
X2163820Y247900D02*
G54D16*
D03*
X2151120Y247900D02*
G54D16*
D03*
X2138420Y247900D02*
G54D16*
D03*
X2125720Y247900D02*
G54D16*
D03*
X2113020Y247900D02*
G54D16*
D03*
X2100320Y247900D02*
G54D16*
D03*
X2087620Y247900D02*
G54D16*
D03*
X2074920Y247900D02*
G54D16*
D03*
X2062220Y247900D02*
G54D16*
D03*
X2049520Y247900D02*
G54D16*
D03*
%LPD*%
G36*
X526860Y61370D02*
X551860Y61370D01*
X551860Y36370D01*
X526860Y36370D01*
X526860Y61370D01*
G37*
X902070Y244160D02*
G54D24*
D03*
X2078960Y187880D02*
G54D24*
D03*
X271520Y235000D02*
G54D24*
D03*
X1502270Y233550D02*
G54D24*
D03*
X919540Y145160D02*
G54D24*
D03*
X626200Y92710D02*
G54D24*
D03*
X438840Y368530D02*
G54D24*
D03*
X1052030Y417120D02*
G54D24*
D03*
X2215240Y351880D02*
G54D24*
D03*
X1010360Y363510D02*
G54D24*
D03*
X1585750Y421270D02*
G54D24*
D03*
X404150Y330290D02*
G54D24*
D03*
X199190Y253270D02*
G54D24*
D03*
X198110Y354160D02*
G54D24*
D03*
X113060Y309790D02*
G54D24*
D03*
X980130Y422220D02*
G54D24*
D03*
X1094040Y317900D02*
G54D24*
D03*
X1631430Y330730D02*
G54D24*
D03*
X1684090Y381030D02*
G54D24*
D03*
X2210970Y409060D02*
G54D24*
D03*
X2301460Y324530D02*
G54D24*
D03*
X178040Y314180D02*
G54D24*
D03*
X496520Y140320D02*
G54D24*
D03*
X284950Y166020D02*
G54D24*
D03*
X1400490Y363680D02*
G54D24*
D03*
X1071610Y370410D02*
G54D24*
D03*
X2000900Y329630D02*
G54D24*
D03*
X1473190Y166850D02*
G54D24*
D03*
X2165930Y379890D02*
G54D24*
D03*
X290530Y407300D02*
G54D24*
D03*
X938130Y418790D02*
G54D24*
D03*
X1518330Y408670D02*
G54D24*
D03*
X1470410Y398700D02*
G54D24*
D03*
X2089470Y381070D02*
G54D24*
D03*
X359050Y404810D02*
G54D24*
D03*
X870480Y421730D02*
G54D24*
D03*
X243030Y207060D02*
G54D24*
D03*
X434760Y304450D02*
G54D24*
D03*
X973750Y254210D02*
G54D24*
D03*
X783620Y246870D02*
G54D24*
D03*
X958280Y215930D02*
G54D24*
D03*
X730140Y217140D02*
G54D24*
D03*
X1635680Y269500D02*
G54D24*
D03*
X1696200Y299610D02*
G54D24*
D03*
X1468960Y202600D02*
G54D24*
D03*
X1695580Y340800D02*
G54D24*
D03*
X2154910Y210630D02*
G54D24*
D03*
X2302400Y272990D02*
G54D24*
D03*
X2013530Y221000D02*
G54D24*
D03*
X2257830Y261880D02*
G54D24*
D03*
X574360Y48870D02*
G54D25*
D03*
X609360Y48870D02*
G54D25*
D03*
X644360Y48870D02*
G54D25*
D03*
X679360Y48870D02*
G54D25*
D03*
G54D26*
X2113660Y229770D02*
X2111930Y233780D01*
X2110020Y229850D01*
G54D27*
X2081460Y193330D02*
X2078960Y187880D01*
X2081460Y182420D01*
X2093360Y187880D01*
X2081460Y193330D01*
G54D27*
X913840Y143290D02*
X919540Y145160D01*
X921840Y150700D01*
X909750Y155720D01*
X913840Y143290D01*
G54D26*
X1496930Y239510D02*
X1502270Y233550D01*
X1509910Y235930D01*
X1506210Y247820D01*
X1496930Y239510D01*
G54D27*
X2112070Y182920D02*
X2108070Y187880D01*
X2078960Y187880D01*
X2079340Y193860D01*
X2086260Y193410D01*
X2078960Y187880D01*
X2084830Y186630D01*
X2086260Y193410D01*
G54D27*
X1507720Y231050D02*
X1502270Y233550D01*
X1496820Y231050D01*
X1502270Y219150D01*
X1507720Y231050D01*
G54D26*
X270090Y242870D02*
X271520Y235000D01*
X279270Y233020D01*
X282340Y245090D01*
X270090Y242870D01*
G54D26*
X899920Y268010D02*
X898830Y272240D01*
X896340Y268650D01*
G54D27*
X277180Y236990D02*
X271520Y235000D01*
X269330Y229410D01*
X281520Y224640D01*
X277180Y236990D01*
G54D26*
X2113020Y247900D02*
X2112020Y239900D01*
X2112020Y237900D01*
X2112020Y237800D01*
X2112020Y237700D01*
X2111820Y228980D01*
G54D27*
X2111820Y228980D02*
X2111790Y228910D01*
X2111630Y228520D01*
X2111450Y228140D01*
X2106880Y218380D01*
G54D27*
G75*
G01X2100977Y208954D02*
G03X2106920Y218465I-35757J28956D01*
G01*
G54D27*
X2100830Y208770D02*
X2095740Y202550D01*
G54D27*
G75*
G01X2086122Y193309D02*
G03X2095920Y202771I-33632J44631D01*
G01*
G54D27*
X919540Y145160D02*
X898130Y168270D01*
G54D27*
G75*
G01X897062Y170990D02*
G03X898136Y168263I3998J0D01*
G01*
G54D27*
X897060Y170990D02*
X897060Y174980D01*
X893060Y179980D01*
X897060Y184980D01*
X897060Y188990D01*
X897080Y189380D01*
X897140Y189760D01*
X907710Y243040D01*
X902070Y244160D01*
X896090Y246970D01*
X897990Y267510D01*
G54D27*
X1500510Y194120D02*
X1502270Y199120D01*
X1502270Y233550D01*
G54D26*
X297110Y271710D02*
X296110Y263710D01*
X296110Y261710D01*
G54D26*
G75*
G01X293343Y255347D02*
G03X296110Y261710I-5933J6363D01*
G01*
G54D26*
X293350Y255350D02*
X271520Y235000D01*
G54D26*
X900650Y287600D02*
X899650Y279600D01*
X899650Y277600D01*
G54D26*
G75*
G01X899517Y276082D02*
G03X899650Y277600I-8607J1518D01*
G01*
G54D26*
X899510Y276070D02*
X897990Y267510D01*
G54D27*
X896550Y242520D02*
X896570Y242470D01*
X902070Y244160D01*
X907550Y245910D01*
X907560Y245860D01*
G54D27*
G75*
G01X907714Y243061D02*
G03X907568Y245844I-5654J1099D01*
G01*
G54D26*
X1502270Y233550D02*
X1508520Y256220D01*
G54D26*
G75*
G01X1508535Y256275D02*
G03X1508832Y258530I-8415J2255D01*
G01*
G54D26*
X1508840Y258530D02*
X1508840Y260530D01*
X1509840Y268530D01*
G54D27*
X291730Y207600D02*
X287730Y212600D01*
X287730Y216600D01*
G54D27*
X271520Y235000D02*
X286610Y219380D01*
G54D27*
G75*
G01X287733Y216600D02*
G03X286610Y219381I-4003J0D01*
G01*
G54D27*
G75*
G01X896565Y242487D02*
G03X907576Y245853I5505J1683D01*
G01*
G54D27*
G75*
G01X896085Y246913D02*
G03X896544Y242545I11465J-1003D01*
G01*
G54D26*
X629740Y99880D02*
X626200Y92710D01*
X631240Y86510D01*
X640900Y94360D01*
X629740Y99880D01*
G54D26*
X620500Y87020D02*
X626200Y92710D01*
X623370Y100200D01*
X611720Y95800D01*
X620500Y87020D01*
G54D26*
X1586040Y268530D02*
X1587040Y260530D01*
X1587040Y258530D01*
X1587050Y258280D01*
X1587100Y258020D01*
X1608320Y178410D01*
X1871280Y159490D01*
G54D26*
G75*
G01X1871390Y159482D02*
G03X1875150Y159351I3760J53768D01*
G01*
G54D26*
X1875150Y159350D02*
X1885150Y159350D01*
X1885670Y159350D01*
X1886200Y159360D01*
X2148250Y164420D01*
G54D26*
G75*
G01X2148236Y164419D02*
G03X2156610Y169755I-166J9501D01*
G01*
G54D26*
X2156600Y169740D02*
X2172420Y202050D01*
X2172500Y202220D01*
X2172580Y202390D01*
X2187410Y234230D01*
G54D26*
G75*
G01X2187408Y234227D02*
G03X2188225Y237910I-7898J3683D01*
G01*
G54D26*
X2188220Y237900D02*
X2188220Y239900D01*
X2189220Y247900D01*
G54D26*
X976850Y287600D02*
X977850Y279600D01*
X977850Y277600D01*
G54D26*
G75*
G01X977850Y277600D02*
G03X978512Y276114I2000J0D01*
G01*
G54D26*
X978510Y276110D02*
X986750Y268750D01*
G54D26*
G75*
G01X993254Y254550D02*
G03X986806Y268699I-19494J-340D01*
G01*
G54D26*
X993250Y254630D02*
X994540Y194470D01*
X933530Y131580D01*
G54D26*
G75*
G01X921569Y125763D02*
G03X933560Y131611I-2039J19397D01*
G01*
G54D26*
X921710Y125780D02*
X626200Y92710D01*
X492450Y121250D01*
G54D26*
X994540Y194470D02*
X1466990Y124810D01*
G54D26*
G75*
G01X1467274Y124769D02*
G03X1489798Y127734I5916J42091D01*
G01*
G54D26*
X1489900Y127780D02*
X1608320Y178410D01*
G54D26*
G75*
G01X480947Y128585D02*
G03X492466Y121247I15573J11735D01*
G01*
G54D26*
X481040Y128450D02*
X377900Y262930D01*
G54D26*
G75*
G01X377910Y262916D02*
G03X376310Y263714I-1600J-1206D01*
G01*
G54D26*
X376310Y263710D02*
X374310Y263710D01*
X373310Y271710D01*
G54D26*
X1004130Y358500D02*
X1010360Y363510D01*
X1008390Y371270D01*
X996320Y368200D01*
X1004130Y358500D01*
G54D26*
X1592480Y416950D02*
X1585750Y421270D01*
X1579020Y416950D01*
X1585750Y406480D01*
X1592480Y416950D01*
G54D26*
X2211510Y344800D02*
X2215240Y351880D01*
X2210360Y358210D01*
X2200500Y350600D01*
X2211510Y344800D01*
G54D26*
X1054690Y409580D02*
X1052030Y417120D01*
X1044060Y417840D01*
X1042950Y405440D01*
X1054690Y409580D01*
G54D26*
X1007700Y371060D02*
X1010360Y363510D01*
X1018330Y362790D01*
X1019440Y375200D01*
X1007700Y371060D01*
G54D26*
X434510Y361790D02*
X438840Y368530D01*
X434510Y375260D01*
X424040Y368530D01*
X434510Y361790D01*
G54D26*
X976850Y381600D02*
X977850Y373600D01*
X979850Y373600D01*
X980170Y373570D01*
X980480Y373490D01*
X1010360Y363510D01*
X1052030Y417120D01*
G54D26*
X1586040Y362540D02*
X1585750Y370540D01*
X1585750Y421270D01*
G54D26*
X2189220Y341900D02*
X2190220Y349900D01*
X2192220Y349900D01*
X2192310Y349900D01*
X2192400Y349910D01*
X2215240Y351880D01*
G54D26*
X438840Y368530D02*
X374310Y368530D01*
X373310Y365710D01*
G54D26*
X246310Y365710D02*
X245310Y373710D01*
X245310Y375710D01*
G54D26*
G75*
G01X245310Y375710D02*
G03X240149Y383658I-8700J0D01*
G01*
G54D26*
X240090Y383680D02*
X238410Y384420D01*
G54D26*
G75*
G01X238476Y384391D02*
G03X234951Y385205I-3856J-8661D01*
G01*
G54D26*
X234970Y385200D02*
X75250Y391150D01*
X70250Y391150D01*
G54D26*
X194290Y246950D02*
X199190Y253270D01*
X195470Y260360D01*
X184450Y254570D01*
X194290Y246950D01*
G54D26*
X397390Y326020D02*
X404150Y330290D01*
X403090Y338220D01*
X390750Y336560D01*
X397390Y326020D01*
G54D26*
X199190Y253270D02*
X75250Y264150D01*
X70250Y264150D01*
G54D26*
X360610Y365710D02*
X361610Y357710D01*
X361610Y355710D01*
G54D26*
G75*
G01X361610Y355710D02*
G03X366633Y347825I8700J0D01*
G01*
G54D26*
X366630Y347830D02*
X404150Y330290D01*
G54D28*
X60250Y264150D02*
X80250Y264150D01*
G54D26*
X297110Y365710D02*
X298110Y373710D01*
X298110Y375710D01*
X298140Y376000D01*
X298200Y376290D01*
X298210Y376330D01*
G54D26*
G75*
G01X299444Y378864D02*
G03X298214Y376342I7346J-5144D01*
G01*
G54D26*
X299440Y378860D02*
X300380Y380200D01*
G54D26*
G75*
G01X303128Y382635D02*
G03X300385Y380209I3682J-6925D01*
G01*
G54D26*
X303180Y382670D02*
X303350Y382750D01*
G54D26*
G75*
G01X303533Y382846D02*
G03X308705Y386401I-13013J24474D01*
G01*
G54D26*
X308850Y386530D02*
X346160Y419430D01*
G54D26*
G75*
G01X362782Y423947D02*
G03X346264Y419521I-3722J-19147D01*
G01*
G54D26*
X362820Y423940D02*
X529250Y391150D01*
X534250Y391150D01*
G54D26*
X203950Y359620D02*
X198110Y354160D01*
X200640Y346570D01*
X212450Y350520D01*
X203950Y359620D01*
G54D26*
X107870Y303710D02*
X113060Y309790D01*
X109690Y317050D01*
X98400Y311790D01*
X107870Y303710D01*
G54D26*
X309810Y365710D02*
X308810Y357710D01*
X308810Y355710D01*
G54D26*
G75*
G01X303649Y347762D02*
G03X308810Y355710I-3539J7948D01*
G01*
G54D26*
X303590Y347740D02*
X301910Y347000D01*
G54D26*
G75*
G01X298110Y346207D02*
G03X301975Y347029I0J9503D01*
G01*
G54D26*
X298110Y346210D02*
X230610Y346210D01*
G54D26*
G75*
G01X228312Y346492D02*
G03X230610Y346210I2298J9218D01*
G01*
G54D26*
X228280Y346500D02*
X198110Y354160D01*
G54D26*
X113060Y309790D02*
X75250Y314950D01*
X70250Y314950D01*
G54D26*
X259010Y365710D02*
X260010Y373710D01*
X260010Y375710D01*
G54D26*
G75*
G01X260810Y380489D02*
G03X260010Y375710I13880J-4779D01*
G01*
G54D26*
X260800Y380440D02*
X272070Y413580D01*
G54D26*
G75*
G01X284504Y425845D02*
G03X272093Y413648I6026J-18545D01*
G01*
G54D26*
X284660Y425900D02*
X346260Y445340D01*
G54D26*
G75*
G01X364965Y446896D02*
G03X345917Y445230I-5915J-42086D01*
G01*
G54D26*
X364960Y446900D02*
X543560Y421850D01*
G54D26*
G75*
G01X570251Y391150D02*
G03X543564Y421849I-31001J0D01*
G01*
G54D26*
X570250Y391150D02*
X570250Y264150D01*
G54D26*
G75*
G01X566871Y250076D02*
G03X570250Y264150I-27621J14074D01*
G01*
G54D26*
X566890Y250120D02*
X556640Y229920D01*
G54D26*
G75*
G01X551785Y223809D02*
G03X556630Y229899I-12545J14951D01*
G01*
G54D26*
X551750Y223780D02*
X539250Y213350D01*
X534250Y213350D01*
G54D26*
X347910Y365710D02*
X348910Y373710D01*
X348910Y375710D01*
G54D26*
G75*
G01X354071Y383658D02*
G03X348910Y375710I3539J-7948D01*
G01*
G54D26*
X354130Y383680D02*
X355810Y384420D01*
G54D26*
G75*
G01X359278Y385207D02*
G03X355745Y384391I332J-9497D01*
G01*
G54D26*
X359280Y385200D02*
X438140Y388010D01*
G54D26*
G75*
G01X443556Y387444D02*
G03X438160Y388011I-4716J-18914D01*
G01*
G54D26*
X443620Y387430D02*
X529250Y365750D01*
X534250Y365750D01*
G54D26*
X284410Y365710D02*
X285410Y373710D01*
X285410Y375710D01*
G54D26*
G75*
G01X287162Y380946D02*
G03X285410Y375710I6948J-5236D01*
G01*
G54D26*
X287150Y380920D02*
X289300Y383800D01*
G54D26*
G75*
G01X291080Y385750D02*
G03X289330Y383841I9040J-10040D01*
G01*
G54D26*
X291050Y385720D02*
X293740Y388160D01*
G54D26*
G75*
G01X298272Y391226D02*
G03X293777Y388194I8538J-17506D01*
G01*
G54D26*
G75*
G01X298371Y391264D02*
G03X302712Y394248I-7811J16016D01*
G01*
G54D26*
X302780Y394320D02*
X337770Y427350D01*
G54D26*
G75*
G01X363364Y435506D02*
G03X337909Y427480I-4314J-30696D01*
G01*
G54D26*
X363360Y435510D02*
X541960Y410460D01*
G54D26*
G75*
G01X558749Y391150D02*
G03X541964Y410459I-19499J0D01*
G01*
G54D26*
X558750Y391150D02*
X558750Y264150D01*
G54D26*
G75*
G01X551784Y249212D02*
G03X558750Y264150I-12534J14938D01*
G01*
G54D26*
X551750Y249180D02*
X539250Y238750D01*
X534250Y238750D01*
G54D26*
X322510Y365710D02*
X323510Y357710D01*
X323510Y355710D01*
G54D26*
G75*
G01X323510Y355710D02*
G03X327729Y348253I8700J0D01*
G01*
G54D26*
X327780Y348220D02*
X392870Y309670D01*
X393870Y309060D01*
X394840Y308410D01*
X423650Y288430D01*
G54D26*
G75*
G01X423585Y288476D02*
G03X440796Y285903I11185J15974D01*
G01*
G54D26*
X440850Y285920D02*
X529250Y314950D01*
X534250Y314950D01*
G54D26*
X849850Y381600D02*
X848850Y373600D01*
X848850Y371600D01*
G54D26*
G75*
G01X843689Y363652D02*
G03X848850Y371600I-3539J7948D01*
G01*
G54D26*
X843630Y363620D02*
X841950Y362890D01*
G54D26*
G75*
G01X838150Y362097D02*
G03X842015Y362919I0J9503D01*
G01*
G54D26*
X838150Y362100D02*
X834150Y362100D01*
G54D26*
G75*
G01X832340Y362275D02*
G03X834160Y362100I1820J9365D01*
G01*
G54D26*
X832390Y362260D02*
X678780Y391150D01*
X673780Y391150D01*
G54D26*
X964150Y381600D02*
X963150Y373600D01*
X963150Y371600D01*
G54D26*
G75*
G01X957989Y363652D02*
G03X963150Y371600I-3539J7948D01*
G01*
G54D26*
X957930Y363620D02*
X956250Y362890D01*
X955810Y362710D01*
X955360Y362550D01*
X849600Y328540D01*
X848830Y328280D01*
X848080Y328010D01*
X678780Y264150D01*
X673780Y264150D01*
G54D26*
X900650Y381600D02*
X901650Y389600D01*
X901650Y391600D01*
G54D26*
G75*
G01X901811Y393260D02*
G03X901650Y391590I8589J-1670D01*
G01*
G54D26*
X901800Y393200D02*
X907660Y424500D01*
G54D26*
G75*
G01X938671Y449785D02*
G03X907700Y424705I-541J-30995D01*
G01*
G54D26*
X938580Y449790D02*
X1052490Y448120D01*
G54D26*
G75*
G01X1071551Y441214D02*
G03X1052581Y448118I-19511J-24094D01*
G01*
G54D26*
X1071650Y441130D02*
X1132780Y391150D01*
X1137780Y391150D01*
G54D26*
X913350Y381600D02*
X912350Y373600D01*
X912350Y371600D01*
G54D26*
G75*
G01X907189Y363652D02*
G03X912350Y371600I-3539J7948D01*
G01*
G54D26*
X907130Y363620D02*
X905450Y362890D01*
G54D26*
G75*
G01X903622Y362304D02*
G03X905518Y362920I-1982J9326D01*
G01*
G54D26*
X903610Y362300D02*
X678780Y314950D01*
X673780Y314950D01*
G54D26*
X862550Y381600D02*
X861550Y389600D01*
X861550Y391600D01*
G54D26*
G75*
G01X861550Y391600D02*
G03X860799Y395135I-8690J0D01*
G01*
G54D26*
X860820Y395070D02*
X852600Y413930D01*
G54D26*
G75*
G01X861324Y438940D02*
G03X852663Y413787I9156J-17220D01*
G01*
G54D26*
X861280Y438920D02*
X912650Y466410D01*
G54D26*
G75*
G01X939062Y472786D02*
G03X912767Y466473I-942J-53996D01*
G01*
G54D26*
X938920Y472790D02*
X1052820Y471120D01*
G54D26*
G75*
G01X1079023Y463893D02*
G03X1052972Y471118I-26993J-46753D01*
G01*
G54D26*
X1079090Y463860D02*
X1158320Y417980D01*
G54D26*
G75*
G01X1173790Y391150D02*
G03X1158290Y417997I-31000J0D01*
G01*
G54D26*
X1173780Y391150D02*
X1173780Y264150D01*
G54D26*
G75*
G01X1170401Y250076D02*
G03X1173780Y264150I-27621J14074D01*
G01*
G54D26*
X1170420Y250120D02*
X1160170Y229920D01*
G54D26*
G75*
G01X1155315Y223809D02*
G03X1160160Y229899I-12545J14951D01*
G01*
G54D26*
X1155280Y223780D02*
X1142780Y213350D01*
X1137780Y213350D01*
G54D26*
X951450Y381600D02*
X952450Y389600D01*
X952450Y391600D01*
G54D26*
G75*
G01X957611Y399548D02*
G03X952450Y391600I3539J-7948D01*
G01*
G54D26*
X957670Y399570D02*
X959350Y400300D01*
G54D26*
G75*
G01X962322Y401057D02*
G03X959285Y400271I828J-9467D01*
G01*
G54D26*
X962310Y401060D02*
X981860Y402800D01*
G54D26*
G75*
G01X981839Y402798D02*
G03X989592Y405168I-1699J19422D01*
G01*
G54D26*
X989500Y405120D02*
X1042670Y434230D01*
G54D26*
G75*
G01X1065814Y430914D02*
G03X1042579Y434180I-13784J-13784D01*
G01*
G54D26*
X1065870Y430860D02*
X1118940Y377410D01*
X1119600Y376780D01*
X1120290Y376180D01*
X1132780Y365750D01*
X1137780Y365750D01*
G54D26*
X887950Y381600D02*
X888950Y389600D01*
X888950Y391600D01*
G54D26*
G75*
G01X889139Y393408D02*
G03X888950Y391610I8461J-1798D01*
G01*
G54D26*
X889140Y393440D02*
X896590Y427790D01*
G54D26*
G75*
G01X938872Y461280D02*
G03X896553Y427617I-742J-42500D01*
G01*
G54D26*
X938750Y461290D02*
X1052650Y459620D01*
G54D26*
G75*
G01X1073272Y453933D02*
G03X1052772Y459619I-21242J-36793D01*
G01*
G54D26*
X1073330Y453900D02*
X1152550Y408030D01*
G54D26*
G75*
G01X1162284Y391150D02*
G03X1152532Y408041I-19504J0D01*
G01*
G54D26*
X1162280Y391150D02*
X1162280Y264150D01*
G54D26*
G75*
G01X1155314Y249212D02*
G03X1162280Y264150I-12534J14938D01*
G01*
G54D26*
X1155280Y249180D02*
X1142780Y238750D01*
X1137780Y238750D01*
G54D26*
X1098860Y324280D02*
X1094040Y317900D01*
X1097840Y310860D01*
X1108800Y316780D01*
X1098860Y324280D01*
G54D26*
X973530Y417700D02*
X980130Y422220D01*
X978770Y430100D01*
X966500Y427980D01*
X973530Y417700D01*
G54D26*
X1094040Y317900D02*
X1132780Y314950D01*
X1137780Y314950D01*
G54D26*
X926050Y381600D02*
X925050Y389600D01*
X925050Y391600D01*
G54D26*
G75*
G01X925050Y391600D02*
G03X924753Y393857I-8720J0D01*
G01*
G54D26*
X924740Y393900D02*
X919320Y413630D01*
G54D26*
G75*
G01X945737Y436735D02*
G03X919289Y413744I-7617J-17945D01*
G01*
G54D26*
X945710Y436750D02*
X980130Y422220D01*
G54D28*
X1127780Y314950D02*
X1147780Y314950D01*
G54D26*
X1459040Y362540D02*
X1458040Y370540D01*
X1458040Y372540D01*
G54D26*
G75*
G01X1458040Y372540D02*
G03X1452879Y380488I-8700J0D01*
G01*
G54D26*
X1452820Y380510D02*
X1451140Y381240D01*
G54D26*
G75*
G01X1451205Y381211D02*
G03X1447837Y382020I-3865J-8681D01*
G01*
G54D26*
X1447860Y382020D02*
X1281970Y391150D01*
X1276970Y391150D01*
G54D26*
X1573340Y362540D02*
X1572340Y370540D01*
X1572340Y372540D01*
G54D26*
G75*
G01X1572340Y372540D02*
G03X1570206Y378248I-8700J0D01*
G01*
G54D26*
X1570230Y378210D02*
X1533110Y421390D01*
G54D26*
G75*
G01X1533038Y421474D02*
G03X1519000Y428169I-14718J-12794D01*
G01*
G54D26*
X1518950Y428160D02*
X1471410Y429690D01*
X1470320Y429700D01*
X1469230Y429680D01*
X1270790Y422130D01*
G54D26*
G75*
G01X1270888Y422133D02*
G03X1240968Y391150I1082J-30983D01*
G01*
G54D26*
X1240970Y391150D02*
X1240970Y340350D01*
G54D26*
G75*
G01X1240970Y340350D02*
G03X1241765Y333374I31010J0D01*
G01*
G54D26*
X1241780Y333330D02*
X1252980Y285140D01*
G54D26*
G75*
G01X1252975Y285165D02*
G03X1259439Y274616I18995J4385D01*
G01*
G54D26*
X1259480Y274580D02*
X1271970Y264150D01*
X1276970Y264150D01*
G54D26*
X1687040Y388470D02*
X1684090Y381030D01*
X1689930Y375190D01*
X1698610Y383870D01*
X1687040Y388470D01*
G54D26*
X1628040Y323490D02*
X1631430Y330730D01*
X1626250Y336830D01*
X1616760Y328760D01*
X1628040Y323490D01*
G54D26*
X1684090Y381030D02*
X1735970Y391150D01*
X1740970Y391150D01*
G54D26*
X1509840Y362540D02*
X1510840Y354530D01*
X1510840Y352540D01*
G54D26*
G75*
G01X1510840Y352540D02*
G03X1515322Y344931I8700J0D01*
G01*
G54D26*
X1515320Y344920D02*
X1534770Y334160D01*
G54D26*
G75*
G01X1534761Y334165D02*
G03X1538798Y332452I10169J18345D01*
G01*
G54D26*
X1538800Y332450D02*
X1561480Y325530D01*
G54D26*
G75*
G01X1561469Y325534D02*
G03X1570340Y324208I8871J29016D01*
G01*
G54D26*
G75*
G01X1570340Y324200D02*
G03X1575270Y324631I0J28390D01*
G01*
G54D26*
G75*
G01X1583030Y325283D02*
G03X1574922Y324574I0J-46693D01*
G01*
G54D26*
X1583040Y325290D02*
X1589040Y325290D01*
G54D26*
G75*
G01X1589040Y325290D02*
G03X1593116Y325575I0J29290D01*
G01*
G54D26*
X1592940Y325550D02*
X1631430Y330730D01*
G54D28*
X1730970Y391150D02*
X1750970Y391150D01*
G54D26*
X1522540Y362540D02*
X1521540Y370540D01*
X1521540Y372540D01*
G54D26*
G75*
G01X1521540Y372540D02*
G03X1518884Y378798I-8700J0D01*
G01*
G54D26*
X1518900Y378770D02*
X1484000Y412690D01*
G54D26*
G75*
G01X1483954Y412735D02*
G03X1469730Y418195I-13544J-14025D01*
G01*
G54D26*
X1469670Y418190D02*
X1271230Y410640D01*
G54D26*
G75*
G01X1271290Y410642D02*
G03X1252466Y391150I680J-19492D01*
G01*
G54D26*
X1252470Y391150D02*
X1252470Y340350D01*
G54D26*
G75*
G01X1252470Y340350D02*
G03X1259436Y325412I19500J0D01*
G01*
G54D26*
X1259480Y325380D02*
X1271970Y314950D01*
X1276970Y314950D01*
G54D26*
X1471740Y362540D02*
X1472740Y354530D01*
X1472740Y352540D01*
G54D26*
G75*
G01X1472740Y352540D02*
G03X1475965Y345779I8700J0D01*
G01*
G54D26*
X1476000Y345740D02*
X1499230Y327160D01*
G54D26*
G75*
G01X1499078Y327282D02*
G03X1504779Y323580I20462J25268D01*
G01*
G54D26*
X1504820Y323560D02*
X1525020Y313300D01*
G54D26*
G75*
G01X1524965Y313328D02*
G03X1535798Y309492I19985J39222D01*
G01*
G54D26*
X1535510Y309560D02*
X1553360Y305640D01*
G54D26*
G75*
G01X1553659Y305575D02*
G03X1563640Y304526I9981J46955D01*
G01*
G54D26*
X1563640Y304530D02*
X1564280Y304530D01*
X1564930Y304550D01*
X1571580Y304720D01*
G54D26*
G75*
G01X1571166Y304711D02*
G03X1578652Y305432I-836J47919D01*
G01*
G54D26*
G75*
G01X1583040Y305784D02*
G03X1578318Y305371I0J-27194D01*
G01*
G54D26*
X1583040Y305780D02*
X1589040Y305780D01*
G54D26*
G75*
G01X1599041Y304017D02*
G03X1589040Y305780I-10001J-27477D01*
G01*
G54D26*
X1599280Y303930D02*
X1642510Y287760D01*
G54D26*
G75*
G01X1647949Y284651D02*
G03X1642667Y287701I-12269J-15151D01*
G01*
G54D26*
X1647960Y284650D02*
X1735970Y213350D01*
X1740970Y213350D01*
G54D26*
X1560640Y362540D02*
X1561640Y354530D01*
X1561640Y352540D01*
G54D26*
G75*
G01X1561640Y352540D02*
G03X1571249Y343888I8700J0D01*
G01*
G54D26*
X1571210Y343880D02*
X1573190Y344080D01*
X1573350Y344100D01*
X1573520Y344120D01*
G54D26*
G75*
G01X1583030Y344787D02*
G03X1573554Y344124I0J-68087D01*
G01*
G54D26*
X1583040Y344780D02*
X1589040Y344780D01*
G54D26*
G75*
G01X1589040Y344780D02*
G03X1592554Y345624I0J7740D01*
G01*
G54D26*
X1592570Y345640D02*
X1617280Y358320D01*
G54D26*
G75*
G01X1631430Y361738D02*
G03X1617357Y358359I0J-30998D01*
G01*
G54D26*
X1631550Y361730D02*
X1684010Y361530D01*
X1684850Y361550D01*
X1685690Y361600D01*
X1735970Y365750D01*
X1740970Y365750D01*
G54D26*
X1497140Y362540D02*
X1498140Y354530D01*
X1498140Y352540D01*
G54D26*
G75*
G01X1498140Y352540D02*
G03X1498398Y350440I8680J0D01*
G01*
G54D26*
X1498410Y350370D02*
X1499200Y347310D01*
G54D26*
G75*
G01X1499162Y347462D02*
G03X1510000Y333836I20368J5078D01*
G01*
G54D26*
X1510030Y333810D02*
X1530220Y323560D01*
G54D26*
G75*
G01X1530175Y323582D02*
G03X1537619Y320873I14755J28958D01*
G01*
G54D26*
X1537730Y320840D02*
X1561450Y315450D01*
G54D26*
G75*
G01X1561313Y315481D02*
G03X1570340Y314453I9027J39099D01*
G01*
G54D26*
G75*
G01X1570340Y314450D02*
G03X1576942Y315028I0J38020D01*
G01*
G54D26*
G75*
G01X1583040Y315533D02*
G03X1576608Y314970I0J-37043D01*
G01*
G54D26*
X1583040Y315530D02*
X1589040Y315530D01*
G54D26*
G75*
G01X1601092Y313621D02*
G03X1589040Y315530I-12052J-37091D01*
G01*
G54D26*
X1601310Y313550D02*
X1645440Y298930D01*
G54D26*
G75*
G01X1653022Y295206D02*
G03X1645277Y298984I-17312J-25666D01*
G01*
G54D26*
X1653120Y295130D02*
X1735970Y238750D01*
X1740970Y238750D01*
G54D26*
X1535240Y362540D02*
X1536240Y354530D01*
X1536240Y352540D01*
G54D26*
G75*
G01X1536240Y352540D02*
G03X1541401Y344592I8700J0D01*
G01*
G54D26*
X1541460Y344560D02*
X1543140Y343830D01*
X1543220Y343790D01*
X1562320Y335670D01*
G54D26*
G75*
G01X1562328Y335666D02*
G03X1565380Y334645I8012J18874D01*
G01*
G54D26*
X1565480Y334620D02*
X1565940Y334510D01*
G54D26*
G75*
G01X1565853Y334532D02*
G03X1573242Y334209I4487J17998D01*
G01*
G54D26*
G75*
G01X1583030Y335030D02*
G03X1573879Y334310I0J-58500D01*
G01*
G54D26*
X1583040Y335040D02*
X1589040Y335040D01*
G54D26*
G75*
G01X1589040Y335040D02*
G03X1596975Y336727I0J19510D01*
G01*
G54D26*
X1596980Y336720D02*
X1623490Y348540D01*
G54D26*
G75*
G01X1640585Y347948D02*
G03X1623499Y348544I-9155J-17218D01*
G01*
G54D26*
X1640580Y347950D02*
X1686430Y323580D01*
G54D26*
G75*
G01X1686425Y323583D02*
G03X1692529Y321540I9155J17217D01*
G01*
G54D26*
X1692660Y321520D02*
X1735970Y314950D01*
X1740970Y314950D01*
G54D26*
X2062220Y341900D02*
X2061220Y349900D01*
X2061220Y351900D01*
G54D26*
G75*
G01X2061220Y351900D02*
G03X2056059Y359848I-8700J0D01*
G01*
G54D26*
X2056000Y359870D02*
X2054320Y360610D01*
G54D26*
G75*
G01X2054383Y360582D02*
G03X2052181Y361255I-3843J-8632D01*
G01*
G54D26*
X2052200Y361250D02*
X1885150Y391150D01*
X1880150Y391150D01*
G54D26*
X2176520Y341900D02*
X2175520Y333900D01*
X2175520Y331900D01*
G54D26*
G75*
G01X2170358Y323952D02*
G03X2175520Y331900I-3538J7948D01*
G01*
G54D26*
X2170300Y323930D02*
X2168620Y323190D01*
G54D26*
G75*
G01X2167116Y322679D02*
G03X2168688Y323220I-2306J9251D01*
G01*
G54D26*
X2167060Y322670D02*
X2120970Y311490D01*
X2120570Y311400D01*
X2120160Y311310D01*
X1885150Y264150D01*
X1880150Y264150D01*
G54D26*
X2113020Y341900D02*
X2114020Y349900D01*
X2114020Y351900D01*
G54D26*
G75*
G01X2115263Y356381D02*
G03X2114020Y351900I7457J-4481D01*
G01*
G54D26*
X2115300Y356430D02*
X2139460Y396030D01*
G54D26*
G75*
G01X2154811Y408820D02*
G03X2139349Y395846I11109J-28940D01*
G01*
G54D26*
X2155040Y408910D02*
X2204120Y427320D01*
G54D26*
G75*
G01X2216672Y427711D02*
G03X2203981Y427268I-5702J-18651D01*
G01*
G54D26*
X2216550Y427740D02*
X2339150Y391150D01*
X2344150Y391150D01*
G54D26*
X2125720Y341900D02*
X2124720Y333900D01*
X2124720Y331900D01*
G54D26*
G75*
G01X2119558Y323952D02*
G03X2124720Y331900I-3538J7948D01*
G01*
G54D26*
X2119500Y323930D02*
X2117820Y323190D01*
G54D26*
G75*
G01X2115013Y322449D02*
G03X2117885Y323219I-993J9451D01*
G01*
G54D26*
X2115050Y322450D02*
X2003020Y310240D01*
G54D26*
G75*
G01X2000230Y310138D02*
G03X2002949Y310233I680J19492D01*
G01*
G54D26*
X2000090Y310150D02*
X1885150Y314950D01*
X1880150Y314950D01*
G54D26*
X2074920Y341900D02*
X2073920Y349900D01*
X2073920Y351900D01*
X2073900Y352530D01*
X2073830Y353160D01*
X2070170Y378250D01*
G54D26*
G75*
G01X2080920Y398589D02*
G03X2070157Y378346I8550J-17529D01*
G01*
G54D26*
X2080940Y398600D02*
X2142310Y428450D01*
G54D26*
G75*
G01X2146574Y430301D02*
G03X2142261Y428426I19316J-50321D01*
G01*
G54D26*
X2146970Y430450D02*
X2196050Y448850D01*
G54D26*
G75*
G01X2219807Y450626D02*
G03X2195738Y448732I-8837J-41576D01*
G01*
G54D26*
X2219890Y450610D02*
X2355660Y421460D01*
G54D26*
G75*
G01X2380151Y391150D02*
G03X2355596Y421474I-31001J0D01*
G01*
G54D26*
X2380150Y391150D02*
X2380150Y264150D01*
G54D26*
G75*
G01X2376771Y250076D02*
G03X2380150Y264150I-27621J14074D01*
G01*
G54D26*
X2376790Y250120D02*
X2366540Y229920D01*
G54D26*
G75*
G01X2361685Y223809D02*
G03X2366530Y229899I-12545J14951D01*
G01*
G54D26*
X2361650Y223780D02*
X2349150Y213350D01*
X2344150Y213350D01*
G54D26*
X2163820Y341900D02*
X2164820Y349900D01*
X2164820Y351900D01*
G54D26*
G75*
G01X2169982Y359848D02*
G03X2164820Y351900I3538J-7948D01*
G01*
G54D26*
X2170040Y359870D02*
X2171720Y360610D01*
X2172420Y360880D01*
X2173140Y361090D01*
X2210340Y370750D01*
G54D26*
G75*
G01X2216261Y371348D02*
G03X2210189Y370710I-1021J-19488D01*
G01*
G54D26*
X2216130Y371360D02*
X2339150Y365750D01*
X2344150Y365750D01*
G54D26*
X2100320Y341900D02*
X2101320Y349900D01*
X2101320Y351900D01*
G54D26*
G75*
G01X2101578Y354000D02*
G03X2101320Y351900I8422J-2100D01*
G01*
G54D26*
X2101600Y354060D02*
X2102380Y357130D01*
G54D26*
G75*
G01X2104909Y363029D02*
G03X2102342Y356981I17811J-11129D01*
G01*
G54D26*
X2104990Y363140D02*
X2130030Y402640D01*
G54D26*
G75*
G01X2150690Y419555D02*
G03X2129880Y402400I15230J-39675D01*
G01*
G54D26*
X2151010Y419680D02*
X2200090Y438080D01*
G54D26*
G75*
G01X2217416Y439375D02*
G03X2199860Y437993I-6446J-30325D01*
G01*
G54D26*
X2217480Y439370D02*
X2353250Y410220D01*
G54D26*
G75*
G01X2368664Y391150D02*
G03X2353215Y410228I-19504J0D01*
G01*
G54D26*
X2368650Y391150D02*
X2368650Y264150D01*
G54D26*
G75*
G01X2361684Y249212D02*
G03X2368650Y264150I-12534J14938D01*
G01*
G54D26*
X2361650Y249180D02*
X2349150Y238750D01*
X2344150Y238750D01*
G54D26*
X2307310Y329990D02*
X2301460Y324530D01*
X2303990Y316940D01*
X2315800Y320890D01*
X2307310Y329990D01*
G54D26*
X2208090Y401590D02*
X2210970Y409060D01*
X2205210Y414810D01*
X2196470Y406070D01*
X2208090Y401590D01*
G54D26*
X2301460Y324530D02*
X2339150Y314950D01*
X2344150Y314950D01*
G54D26*
X2138420Y341900D02*
X2139420Y349900D01*
X2139420Y351900D01*
G54D26*
G75*
G01X2139857Y355461D02*
G03X2139420Y351900I14283J-3561D01*
G01*
G54D26*
X2139850Y355400D02*
X2146990Y384530D01*
G54D26*
G75*
G01X2161876Y398964D02*
G03X2147009Y384607I4054J-19074D01*
G01*
G54D26*
X2162000Y398990D02*
X2210970Y409060D01*
G54D28*
X2334150Y314950D02*
X2354150Y314950D01*
G54D26*
X171370Y318600D02*
X178040Y314180D01*
X184830Y318410D01*
X178250Y328980D01*
X171370Y318600D01*
G54D26*
X233610Y365710D02*
X232610Y373660D01*
X198110Y373660D01*
G54D26*
G75*
G01X198110Y373660D02*
G03X178613Y354500I0J-19500D01*
G01*
G54D26*
X178610Y354430D02*
X178040Y314180D01*
G54D26*
X278190Y161740D02*
X284950Y166020D01*
X283870Y173940D01*
X271540Y172270D01*
X278190Y161740D01*
G54D26*
X494630Y148100D02*
X496520Y140320D01*
X504370Y138800D01*
X506730Y151030D01*
X494630Y148100D01*
G54D26*
X284950Y166020D02*
X234790Y189380D01*
G54D26*
G75*
G01X223814Y210446D02*
G03X234778Y189385I19206J-3386D01*
G01*
G54D26*
X223810Y210370D02*
X232580Y261370D01*
X232610Y261540D01*
X232610Y261710D01*
X232610Y263710D01*
X233610Y271710D01*
G54D26*
X837150Y381600D02*
X836150Y389600D01*
X834150Y389600D01*
X834010Y389600D01*
X833880Y389620D01*
X681420Y410470D01*
G54D26*
G75*
G01X681490Y410461D02*
G03X678780Y410650I-2710J-19281D01*
G01*
G54D26*
X678780Y410650D02*
X668780Y410650D01*
G54D26*
G75*
G01X668780Y410650D02*
G03X651253Y399698I0J-19500D01*
G01*
G54D26*
X651190Y399570D02*
X577580Y245800D01*
X577370Y245350D01*
X577140Y244910D01*
X556640Y204520D01*
G54D26*
G75*
G01X553279Y199802D02*
G03X556630Y204499I-14039J13558D01*
G01*
G54D26*
X553360Y199890D02*
X496520Y140320D01*
G54D26*
X1070520Y362490D02*
X1071610Y370410D01*
X1064860Y374700D01*
X1058180Y364190D01*
X1070520Y362490D01*
G54D26*
X1404810Y370410D02*
X1400490Y363680D01*
X1404810Y356950D01*
X1415290Y363680D01*
X1404810Y370410D01*
G54D26*
X1071610Y370410D02*
X1018560Y345820D01*
G54D26*
G75*
G01X1011719Y344057D02*
G03X1018593Y345835I-1359J19433D01*
G01*
G54D26*
X1011580Y344050D02*
X971090Y341510D01*
G54D26*
G75*
G01X970766Y341489D02*
G03X964697Y340636I3064J-43819D01*
G01*
G54D26*
X964990Y340700D02*
X855320Y318170D01*
G54D26*
G75*
G01X855184Y318141D02*
G03X839174Y302680I4366J-20541D01*
G01*
G54D26*
X839210Y302830D02*
X838420Y299760D01*
G54D26*
G75*
G01X838405Y299701D02*
G03X838147Y297600I8425J-2101D01*
G01*
G54D26*
X838150Y297600D02*
X838150Y295600D01*
X837150Y287600D01*
G54D26*
X1446340Y362540D02*
X1445340Y363680D01*
X1400490Y363680D01*
G54D26*
X1465250Y165900D02*
X1473190Y166850D01*
X1475630Y174470D01*
X1463770Y178260D01*
X1465250Y165900D01*
G54D26*
X2004580Y336730D02*
X2000900Y329630D01*
X2005840Y323330D01*
X2015640Y331010D01*
X2004580Y336730D01*
G54D26*
X1473190Y166850D02*
X1453920Y190190D01*
G54D26*
G75*
G01X1449467Y201929D02*
G03X1454018Y190072I19493J681D01*
G01*
G54D26*
X1449470Y201870D02*
X1447350Y257980D01*
X1447340Y258260D01*
X1447340Y258530D01*
X1447340Y260530D01*
X1446340Y268530D01*
G54D26*
X2049520Y341900D02*
X2048520Y333900D01*
X2046520Y333900D01*
X2046430Y333900D01*
X2046340Y333890D01*
X2000900Y329630D01*
G54D26*
X2096070Y376550D02*
X2089470Y381070D01*
X2082610Y376940D01*
X2089040Y366270D01*
X2096070Y376550D01*
G54D26*
X1478390Y398120D02*
X1470410Y398700D01*
X1466570Y391690D01*
X1477480Y385700D01*
X1478390Y398120D01*
G54D26*
X1526240Y409830D02*
X1518330Y408670D01*
X1516090Y400990D01*
X1528040Y397510D01*
X1526240Y409830D01*
G54D26*
X360210Y396890D02*
X359050Y404810D01*
X351370Y407040D01*
X347890Y395090D01*
X360210Y396890D01*
G54D26*
X877700Y418290D02*
X870480Y421730D01*
X864350Y416590D01*
X872350Y407050D01*
X877700Y418290D01*
G54D26*
X944860Y414470D02*
X938130Y418790D01*
X931400Y414470D01*
X938130Y403990D01*
X944860Y414470D01*
G54D26*
X2169440Y372700D02*
X2165930Y379890D01*
X2158260Y379890D01*
X2158260Y367230D01*
X2169440Y372700D01*
G54D26*
X292920Y399660D02*
X290530Y407300D01*
X282560Y408010D01*
X281510Y396100D01*
X292920Y399660D01*
G54D26*
X2087620Y341900D02*
X2088620Y349900D01*
X2088620Y351900D01*
X2088620Y352030D01*
X2088630Y352150D01*
X2089470Y381070D01*
G54D26*
X1484440Y362540D02*
X1483440Y370540D01*
X1483440Y372540D01*
G54D26*
G75*
G01X1483440Y372540D02*
G03X1482420Y376629I-8710J0D01*
G01*
G54D26*
X1482380Y376690D02*
X1470410Y398700D01*
G54D26*
X1547940Y362540D02*
X1546940Y370540D01*
X1546940Y372540D01*
G54D26*
G75*
G01X1546940Y372540D02*
G03X1544806Y378248I-8700J0D01*
G01*
G54D26*
X1544800Y378250D02*
X1518330Y408670D01*
G54D26*
X335210Y365710D02*
X336210Y373710D01*
X336210Y375710D01*
G54D26*
G75*
G01X336468Y377810D02*
G03X336210Y375710I8422J-2100D01*
G01*
G54D26*
X336490Y377880D02*
X337270Y380940D01*
G54D26*
G75*
G01X343831Y391560D02*
G03X337232Y380791I13779J-15850D01*
G01*
G54D26*
X343820Y391550D02*
X359050Y404810D01*
G54D26*
X875250Y381600D02*
X874250Y389600D01*
X874250Y391600D01*
X874230Y392150D01*
X874180Y392700D01*
X870480Y421730D01*
G54D26*
X938130Y418790D02*
X938130Y389600D01*
X938750Y381600D01*
G54D26*
X2151120Y341900D02*
X2152120Y349900D01*
X2152120Y351900D01*
G54D26*
G75*
G01X2152378Y354000D02*
G03X2152120Y351900I8422J-2100D01*
G01*
G54D26*
X2152400Y354060D02*
X2153180Y357130D01*
G54D26*
G75*
G01X2155521Y362723D02*
G03X2153142Y356978I18029J-10833D01*
G01*
G54D26*
X2155560Y362780D02*
X2165930Y379890D01*
G54D26*
X271710Y365710D02*
X272710Y373710D01*
X272710Y375710D01*
G54D26*
G75*
G01X272968Y377810D02*
G03X272710Y375710I8422J-2100D01*
G01*
G54D26*
X272990Y377880D02*
X273770Y380940D01*
G54D26*
G75*
G01X275078Y384590D02*
G03X273733Y380793I19042J-8880D01*
G01*
G54D26*
X275100Y384620D02*
X277380Y389500D01*
G54D26*
G75*
G01X281548Y396158D02*
G03X277359Y389455I25202J-20408D01*
G01*
G54D26*
X281510Y396100D02*
X290530Y407300D01*
G54D26*
X309810Y271710D02*
X309730Y216600D01*
G54D26*
G75*
G01X309730Y216600D02*
G03X311730Y214600I2000J0D01*
G01*
G54D26*
X311730Y214600D02*
X313730Y214600D01*
X319730Y207600D01*
G54D26*
X913350Y287600D02*
X914350Y279600D01*
X914350Y277600D01*
G54D26*
G75*
G01X914350Y277600D02*
G03X914573Y275641I8710J0D01*
G01*
G54D26*
X914570Y275640D02*
X920830Y248490D01*
G54D26*
G75*
G01X921216Y246175D02*
G03X920826Y248508I-19266J-2025D01*
G01*
G54D26*
X921220Y246120D02*
X927060Y188990D01*
X927060Y186980D01*
X921060Y179980D01*
G54D26*
X1522540Y268530D02*
X1523540Y260530D01*
X1523540Y201110D01*
X1528510Y194120D01*
G54D26*
X2125720Y247900D02*
X2126720Y239900D01*
X2126720Y237900D01*
X2126750Y237200D01*
X2126840Y236500D01*
X2134040Y192240D01*
X2134060Y192080D01*
X2134070Y191920D01*
X2134070Y189920D01*
X2140070Y182920D01*
G54D26*
X259010Y271710D02*
X258010Y279710D01*
X258010Y281710D01*
G54D26*
G75*
G01X258010Y281710D02*
G03X252849Y289658I-8700J0D01*
G01*
G54D26*
X252790Y289680D02*
X251110Y290420D01*
G54D26*
G75*
G01X251175Y290391D02*
G03X247310Y291213I-3865J-8681D01*
G01*
G54D26*
X247310Y291210D02*
X230610Y291210D01*
G54D26*
G75*
G01X230610Y291210D02*
G03X226445Y290248I0J-9500D01*
G01*
G54D26*
X226510Y290280D02*
X196400Y275850D01*
G54D26*
G75*
G01X170658Y272327D02*
G03X196675Y275983I7382J41863D01*
G01*
G54D26*
X170490Y272360D02*
X75250Y289550D01*
X70250Y289550D01*
G54D26*
X360610Y271710D02*
X361610Y279710D01*
X361610Y281710D01*
G54D26*
G75*
G01X366771Y289658D02*
G03X361610Y281710I3539J-7948D01*
G01*
G54D26*
X366830Y289680D02*
X368510Y290420D01*
G54D26*
G75*
G01X372310Y291213D02*
G03X368445Y290391I0J-9503D01*
G01*
G54D26*
X372310Y291210D02*
X376310Y291210D01*
G54D26*
G75*
G01X381753Y289494D02*
G03X376310Y291210I-5443J-7774D01*
G01*
G54D26*
X381730Y289520D02*
X410540Y269530D01*
G54D26*
G75*
G01X410389Y269635D02*
G03X435502Y261957I24371J34805D01*
G01*
G54D26*
X435760Y261960D02*
X529250Y264150D01*
X534250Y264150D01*
G54D26*
X335210Y271710D02*
X336210Y279710D01*
X336210Y281710D01*
G54D26*
G75*
G01X340692Y289319D02*
G03X336210Y281710I4218J-7609D01*
G01*
G54D26*
X340700Y289320D02*
X360140Y300080D01*
G54D26*
G75*
G01X370310Y302707D02*
G03X360130Y300074I0J-20997D01*
G01*
G54D26*
X370310Y302710D02*
X376310Y302710D01*
G54D26*
G75*
G01X388355Y298912D02*
G03X376310Y302710I-12045J-17202D01*
G01*
G54D26*
X388280Y298960D02*
X417090Y278980D01*
G54D26*
G75*
G01X416980Y279057D02*
G03X440143Y273922I17780J25393D01*
G01*
G54D26*
X440120Y273910D02*
X529250Y289550D01*
X534250Y289550D01*
G54D26*
X284410Y271710D02*
X283410Y279710D01*
X283410Y281710D01*
G54D26*
G75*
G01X283410Y281710D02*
G03X283152Y283810I-8680J0D01*
G01*
G54D26*
X283140Y283870D02*
X282350Y286940D01*
G54D26*
G75*
G01X282387Y286793D02*
G03X281042Y290590I-20387J-5083D01*
G01*
G54D26*
X281030Y290620D02*
X278740Y295500D01*
G54D26*
G75*
G01X278766Y295446D02*
G03X249310Y314211I-29456J-13736D01*
G01*
G54D26*
X249310Y314210D02*
X230610Y314210D01*
G54D26*
G75*
G01X230610Y314210D02*
G03X216363Y310921I0J-32500D01*
G01*
G54D26*
X216570Y311020D02*
X186460Y296600D01*
G54D26*
G75*
G01X163778Y300890D02*
G03X186589Y296663I14262J13300D01*
G01*
G54D26*
X163790Y300880D02*
X135720Y330940D01*
G54D26*
G75*
G01X135730Y330929D02*
G03X128078Y336907I-22700J-21169D01*
G01*
G54D26*
X127920Y337000D02*
X75250Y365750D01*
X70250Y365750D01*
G54D26*
X236480Y211660D02*
X243030Y207060D01*
X249930Y211100D01*
X243650Y221850D01*
X236480Y211660D01*
G54D26*
X436410Y312280D02*
X434760Y304450D01*
X441200Y299690D01*
X448600Y309700D01*
X436410Y312280D01*
G54D26*
X246310Y271710D02*
X245310Y263710D01*
X245310Y261710D01*
X245310Y261530D01*
X245310Y261340D01*
X243030Y207060D01*
G54D26*
X434760Y304450D02*
X529250Y340350D01*
X534250Y340350D01*
G54D26*
X271710Y271710D02*
X270710Y279710D01*
X270710Y281710D01*
G54D26*
G75*
G01X270710Y281710D02*
G03X270452Y283810I-8680J0D01*
G01*
G54D26*
X270440Y283870D02*
X269650Y286940D01*
G54D26*
G75*
G01X269688Y286791D02*
G03X249310Y302712I-20378J-5081D01*
G01*
G54D26*
X249310Y302710D02*
X230610Y302710D01*
G54D26*
G75*
G01X230610Y302710D02*
G03X221409Y300586I0J-20990D01*
G01*
G54D26*
X221540Y300650D02*
X191430Y286230D01*
G54D26*
G75*
G01X155367Y293047D02*
G03X191630Y286327I22673J21143D01*
G01*
G54D26*
X155380Y293030D02*
X127320Y323100D01*
G54D26*
G75*
G01X127327Y323094D02*
G03X118109Y328632I-14267J-13304D01*
G01*
G54D26*
X118210Y328600D02*
X75250Y340350D01*
X70250Y340350D01*
G54D26*
X347910Y271710D02*
X348730Y263710D01*
X348730Y198600D01*
G54D26*
G75*
G01X343336Y184548D02*
G03X348730Y198600I-15606J14052D01*
G01*
G54D26*
X343340Y184560D02*
X307990Y145280D01*
G54D26*
G75*
G01X276927Y136076D02*
G03X307988Y145277I8023J29944D01*
G01*
G54D26*
X276880Y136090D02*
X60170Y194520D01*
G54D26*
G75*
G01X52714Y228290D02*
G03X60202Y194512I12536J-14940D01*
G01*
G54D26*
X52760Y228320D02*
X65250Y238750D01*
X70250Y238750D01*
G54D26*
X322510Y271710D02*
X323510Y263710D01*
X323510Y261710D01*
G54D26*
G75*
G01X323510Y261710D02*
G03X323935Y259028I8680J0D01*
G01*
G54D26*
X323940Y259020D02*
X336770Y219540D01*
G54D26*
G75*
G01X337236Y216600D02*
G03X336771Y219538I-9506J0D01*
G01*
G54D26*
X337230Y216600D02*
X337230Y198600D01*
G54D26*
G75*
G01X334790Y192243D02*
G03X337230Y198600I-7060J6357D01*
G01*
G54D26*
X334790Y192250D02*
X299450Y152970D01*
G54D26*
G75*
G01X278936Y147470D02*
G03X299447Y152966I6024J18540D01*
G01*
G54D26*
X278950Y147460D02*
X75250Y213350D01*
X70250Y213350D01*
G54D26*
X862550Y287600D02*
X861550Y279600D01*
X861550Y277600D01*
X861530Y277300D01*
X861460Y277010D01*
X861450Y276970D01*
G54D26*
G75*
G01X860392Y274699D02*
G03X861449Y276964I-7532J4891D01*
G01*
G54D26*
X860380Y274690D02*
X859470Y273280D01*
G54D26*
G75*
G01X857152Y270965D02*
G03X859475Y273288I-4302J6625D01*
G01*
G54D26*
X857120Y270950D02*
X794170Y230470D01*
X793640Y230140D01*
X793100Y229830D01*
X739620Y200100D01*
G54D26*
G75*
G01X731501Y197690D02*
G03X739598Y200088I-1361J19460D01*
G01*
G54D26*
X731580Y197690D02*
X680220Y193900D01*
X679500Y193860D01*
X678780Y193850D01*
X668780Y193850D01*
G54D26*
G75*
G01X649280Y213350D02*
G03X668780Y193850I19500J0D01*
G01*
G54D26*
X649280Y213350D02*
X649280Y264150D01*
G54D26*
G75*
G01X656246Y279088D02*
G03X649280Y264150I12534J-14938D01*
G01*
G54D26*
X656290Y279120D02*
X668780Y289550D01*
X673780Y289550D01*
G54D26*
X964150Y287600D02*
X965150Y295600D01*
X965150Y297600D01*
G54D26*
G75*
G01X970311Y305548D02*
G03X965150Y297600I3539J-7948D01*
G01*
G54D26*
X970370Y305570D02*
X972050Y306300D01*
G54D26*
G75*
G01X975850Y307093D02*
G03X971985Y306271I0J-9503D01*
G01*
G54D26*
X975850Y307100D02*
X979850Y307100D01*
G54D26*
G75*
G01X982471Y306732D02*
G03X979850Y307100I-2621J-9142D01*
G01*
G54D26*
X982440Y306740D02*
X1132780Y264150D01*
X1137780Y264150D01*
G54D26*
X938750Y287600D02*
X939750Y295600D01*
X939750Y297600D01*
G54D26*
G75*
G01X944232Y305209D02*
G03X939750Y297600I4218J-7609D01*
G01*
G54D26*
X944230Y305210D02*
X963680Y315970D01*
G54D26*
G75*
G01X973850Y318597D02*
G03X963670Y315964I0J-20997D01*
G01*
G54D26*
X973850Y318600D02*
X979850Y318600D01*
G54D26*
G75*
G01X983856Y318215D02*
G03X979860Y318600I-3996J-20555D01*
G01*
G54D26*
X983820Y318220D02*
X1132780Y289550D01*
X1137780Y289550D01*
G54D26*
X887950Y287600D02*
X886950Y279600D01*
X886950Y277600D01*
X886930Y277300D01*
X886860Y277010D01*
X886850Y276970D01*
G54D26*
X886760Y276710D02*
X886160Y274920D01*
G54D26*
G75*
G01X884457Y272010D02*
G03X886145Y274875I-6197J5580D01*
G01*
G54D26*
X884450Y272010D02*
X879760Y266800D01*
X879520Y266540D01*
X879280Y266280D01*
G54D26*
G75*
G01X879221Y266218D02*
G03X875149Y261006I22759J-21978D01*
G01*
G54D26*
G75*
G01X870837Y255613D02*
G03X875217Y261120I-21977J21977D01*
G01*
G54D26*
X870720Y255500D02*
X869710Y254500D01*
G54D26*
G75*
G01X865015Y250650D02*
G03X869831Y254619I-18205J26990D01*
G01*
G54D26*
X865070Y250680D02*
X807450Y211680D01*
G54D26*
G75*
G01X804236Y209706D02*
G03X807375Y211630I-20456J36904D01*
G01*
G54D26*
X804280Y209730D02*
X750800Y180000D01*
G54D26*
G75*
G01X733114Y174748D02*
G03X750748Y179971I-2964J42382D01*
G01*
G54D26*
X733270Y174750D02*
X681910Y170970D01*
X680350Y170880D01*
X678780Y170850D01*
X668780Y170850D01*
G54D26*
G75*
G01X626280Y213350D02*
G03X668780Y170850I42500J0D01*
G01*
G54D26*
X626280Y213350D02*
X626280Y264150D01*
G54D26*
G75*
G01X627368Y273711D02*
G03X626280Y264160I41372J-9551D01*
G01*
G54D26*
X627380Y273770D02*
X638590Y321970D01*
G54D26*
G75*
G01X641161Y329017D02*
G03X638580Y321925I27589J-14057D01*
G01*
G54D26*
X641140Y328990D02*
X651390Y349180D01*
G54D26*
G75*
G01X656245Y355291D02*
G03X651400Y349201I12545J-14951D01*
G01*
G54D26*
X656290Y355320D02*
X668780Y365750D01*
X673780Y365750D01*
G54D26*
X849850Y287600D02*
X850850Y295600D01*
X850850Y297600D01*
G54D26*
G75*
G01X856011Y305548D02*
G03X850850Y297600I3539J-7948D01*
G01*
G54D26*
X856070Y305570D02*
X857750Y306300D01*
G54D26*
G75*
G01X859578Y306888D02*
G03X857692Y306275I1972J-9278D01*
G01*
G54D26*
X859600Y306900D02*
X967190Y329410D01*
G54D26*
G75*
G01X971578Y330019D02*
G03X967079Y329386I2272J-32489D01*
G01*
G54D26*
X971810Y330030D02*
X1012300Y332570D01*
X1012360Y332580D01*
X1132780Y340350D01*
X1137780Y340350D01*
G54D26*
X875250Y287600D02*
X874250Y279600D01*
X874250Y277600D01*
X874230Y277300D01*
X874160Y277010D01*
X874150Y276970D01*
G54D26*
G75*
G01X873006Y274568D02*
G03X874149Y276964I-7446J5022D01*
G01*
G54D26*
X873020Y274590D02*
X872090Y273210D01*
X871740Y272730D01*
X871360Y272280D01*
G54D26*
G75*
G01X871137Y272034D02*
G03X868799Y269198I31313J-28194D01*
G01*
G54D26*
X868770Y269150D02*
X865640Y264990D01*
G54D26*
G75*
G01X860276Y259979D02*
G03X865618Y264961I-11456J17641D01*
G01*
G54D26*
X860340Y260020D02*
X800600Y220930D01*
X799650Y220340D01*
X798690Y219780D01*
X745210Y190040D01*
G54D26*
G75*
G01X732304Y186209D02*
G03X745177Y190022I-2164J30941D01*
G01*
G54D26*
X732430Y186220D02*
X681060Y182430D01*
X679920Y182370D01*
X678780Y182350D01*
X668780Y182350D01*
G54D26*
G75*
G01X637780Y213350D02*
G03X668780Y182350I31000J0D01*
G01*
G54D26*
X637780Y213350D02*
X637780Y264150D01*
G54D26*
G75*
G01X638575Y271126D02*
G03X637780Y264150I30215J-6976D01*
G01*
G54D26*
X638590Y271170D02*
X649790Y319360D01*
G54D26*
G75*
G01X656251Y329883D02*
G03X649783Y319328I12539J-14943D01*
G01*
G54D26*
X656290Y329920D02*
X668780Y340350D01*
X673780Y340350D01*
G54D26*
X779830Y239830D02*
X783620Y246870D01*
X778790Y253250D01*
X768870Y245730D01*
X779830Y239830D01*
G54D26*
X966010Y252180D02*
X973750Y254210D01*
X975120Y262090D01*
X962850Y264220D01*
X966010Y252180D01*
G54D26*
X783620Y246870D02*
X678780Y238750D01*
X673780Y238750D01*
G54D26*
X951450Y287600D02*
X952450Y279600D01*
X952450Y277600D01*
G54D26*
G75*
G01X952450Y277600D02*
G03X955217Y271237I8700J0D01*
G01*
G54D26*
X955260Y271190D02*
X973750Y254210D01*
G54D28*
X663780Y238750D02*
X683780Y238750D01*
G54D26*
X726330Y210110D02*
X730140Y217140D01*
X725340Y223530D01*
X715380Y216050D01*
X726330Y210110D01*
G54D26*
X950310Y216630D02*
X958280Y215930D01*
X962230Y222880D01*
X951410Y229030D01*
X950310Y216630D01*
G54D26*
X730140Y217140D02*
X678780Y213350D01*
X673780Y213350D01*
G54D26*
X926050Y287600D02*
X927050Y279600D01*
X927050Y277600D01*
G54D26*
G75*
G01X927050Y277600D02*
G03X928068Y273516I8700J0D01*
G01*
G54D26*
X928040Y273550D02*
X958280Y215930D01*
G54D28*
X663780Y213350D02*
X683780Y213350D01*
G54D26*
X1471740Y268530D02*
X1470740Y276540D01*
X1470740Y278530D01*
G54D26*
G75*
G01X1470740Y278530D02*
G03X1465579Y286478I-8700J0D01*
G01*
G54D26*
X1465520Y286510D02*
X1463840Y287240D01*
G54D26*
G75*
G01X1463905Y287211D02*
G03X1460040Y288033I-3865J-8681D01*
G01*
G54D26*
X1460120Y288030D02*
X1281970Y289550D01*
X1276970Y289550D01*
G54D26*
X1573340Y268530D02*
X1574340Y276540D01*
X1574340Y278530D01*
G54D26*
G75*
G01X1574626Y279560D02*
G03X1574340Y278530I1714J-1030D01*
G01*
G54D26*
X1574620Y279560D02*
X1576390Y282510D01*
G54D26*
G75*
G01X1583040Y286280D02*
G03X1576397Y282522I0J-7750D01*
G01*
G54D26*
X1583040Y286290D02*
X1589040Y286290D01*
G54D26*
G75*
G01X1592797Y285318D02*
G03X1589040Y286290I-3757J-6778D01*
G01*
G54D26*
X1592790Y285320D02*
X1593640Y284850D01*
G54D26*
G75*
G01X1595986Y283016D02*
G03X1593638Y284851I-6966J-6496D01*
G01*
G54D26*
X1595930Y283070D02*
X1621540Y256080D01*
G54D26*
G75*
G01X1621656Y255958D02*
G03X1626229Y252449I14024J13542D01*
G01*
G54D26*
X1626160Y252480D02*
X1726440Y196330D01*
G54D26*
G75*
G01X1726517Y196287D02*
G03X1735970Y193842I9453J17053D01*
G01*
G54D26*
X1735970Y193850D02*
X1745970Y193850D01*
G54D26*
G75*
G01X1745970Y193850D02*
G03X1765470Y213350I0J19500D01*
G01*
G54D26*
X1765470Y213350D02*
X1765470Y238750D01*
G54D26*
G75*
G01X1765470Y238750D02*
G03X1758504Y253688I-19500J0D01*
G01*
G54D26*
X1758470Y253720D02*
X1745970Y264150D01*
X1740970Y264150D01*
G54D26*
X1702040Y305070D02*
X1696200Y299610D01*
X1698740Y292020D01*
X1710550Y295980D01*
X1702040Y305070D01*
G54D26*
X1628390Y266210D02*
X1635680Y269500D01*
X1635680Y277560D01*
X1623270Y277560D01*
X1628390Y266210D01*
G54D26*
X1696200Y299610D02*
X1735970Y289550D01*
X1740970Y289550D01*
G54D26*
X1547940Y268530D02*
X1548940Y276540D01*
X1548940Y278530D01*
G54D26*
G75*
G01X1554101Y286478D02*
G03X1548940Y278530I3539J-7948D01*
G01*
G54D26*
X1554160Y286510D02*
X1555840Y287240D01*
X1556110Y287360D01*
X1556390Y287460D01*
X1577050Y294980D01*
G54D26*
G75*
G01X1583030Y296033D02*
G03X1577040Y294977I0J-17513D01*
G01*
G54D26*
X1583040Y296030D02*
X1589040Y296030D01*
G54D26*
G75*
G01X1599666Y292882D02*
G03X1589040Y296030I-10626J-16362D01*
G01*
G54D26*
X1599650Y292890D02*
X1635680Y269500D01*
G54D28*
X1730970Y289550D02*
X1750970Y289550D01*
G54D26*
X1497140Y268530D02*
X1496140Y276540D01*
X1496140Y278530D01*
G54D26*
G75*
G01X1496140Y278530D02*
G03X1495882Y280630I-8680J0D01*
G01*
G54D26*
X1495860Y280700D02*
X1495080Y283760D01*
G54D26*
G75*
G01X1495117Y283613D02*
G03X1493772Y287410I-20387J-5083D01*
G01*
G54D26*
X1493750Y287450D02*
X1491470Y292320D01*
G54D26*
G75*
G01X1491496Y292266D02*
G03X1470998Y309772I-29456J-13736D01*
G01*
G54D26*
X1471260Y309700D02*
X1281970Y365750D01*
X1276970Y365750D01*
G54D26*
X1699980Y347480D02*
X1695580Y340800D01*
X1699830Y334020D01*
X1710380Y340630D01*
X1699980Y347480D01*
G54D26*
X1461620Y205800D02*
X1468960Y202600D01*
X1474910Y207950D01*
X1466600Y217220D01*
X1461620Y205800D01*
G54D26*
X1695580Y340800D02*
X1740970Y340350D01*
G54D26*
X1459040Y268530D02*
X1460040Y260530D01*
X1460040Y258530D01*
X1460060Y257840D01*
X1460150Y257150D01*
X1468960Y202600D01*
G54D28*
X1730970Y340350D02*
X1750970Y340350D01*
G54D26*
X1484440Y268530D02*
X1483440Y276540D01*
X1483440Y278530D01*
G54D26*
G75*
G01X1483440Y278530D02*
G03X1483182Y280630I-8680J0D01*
G01*
G54D26*
X1483160Y280700D02*
X1482380Y283760D01*
G54D26*
G75*
G01X1482418Y283611D02*
G03X1466764Y298994I-20378J-5081D01*
G01*
G54D26*
X1466620Y299030D02*
X1281970Y340350D01*
X1276970Y340350D01*
G54D26*
X1560640Y268530D02*
X1559640Y260530D01*
X1559640Y258530D01*
X1559640Y258410D01*
X1559630Y258280D01*
X1557510Y184510D01*
G54D26*
G75*
G01X1545394Y166078D02*
G03X1557506Y184377I-8874J19032D01*
G01*
G54D26*
X1545330Y166050D02*
X1486200Y138720D01*
G54D26*
G75*
G01X1464645Y137059D02*
G03X1486292Y138763I8545J29801D01*
G01*
G54D26*
X1464540Y137090D02*
X1266530Y194630D01*
G54D26*
G75*
G01X1259440Y228283D02*
G03X1266597Y194611I12530J-14933D01*
G01*
G54D26*
X1259480Y228320D02*
X1271970Y238750D01*
X1276970Y238750D01*
G54D26*
X1535240Y268530D02*
X1536240Y260530D01*
X1536240Y258530D01*
G54D26*
G75*
G01X1536240Y258530D02*
G03X1536372Y257019I8700J0D01*
G01*
G54D26*
X1536380Y256980D02*
X1545860Y204810D01*
G54D26*
G75*
G01X1546013Y203110D02*
G03X1545868Y204762I-9513J0D01*
G01*
G54D26*
X1546010Y203110D02*
X1546010Y185120D01*
G54D26*
G75*
G01X1540525Y176510D02*
G03X1546010Y185120I-4015J8610D01*
G01*
G54D26*
X1540500Y176490D02*
X1481380Y149150D01*
G54D26*
G75*
G01X1466852Y148413D02*
G03X1481441Y149178I6348J18437D01*
G01*
G54D26*
X1466730Y148460D02*
X1281970Y213350D01*
X1276970Y213350D01*
G54D26*
X2074920Y247900D02*
X2073920Y239900D01*
X2073920Y237900D01*
G54D26*
G75*
G01X2071786Y232192D02*
G03X2073920Y237900I-6566J5708D01*
G01*
G54D26*
X2071790Y232200D02*
X2066460Y226050D01*
G54D26*
G75*
G01X2061186Y221853D02*
G03X2066457Y226046I-8676J16317D01*
G01*
G54D26*
X2061060Y221790D02*
X2060950Y221730D01*
X2060610Y221560D01*
X2060270Y221390D01*
X2021810Y203350D01*
G54D26*
G75*
G01X2014542Y201530D02*
G03X2021772Y203333I-1022J19500D01*
G01*
G54D26*
X2014690Y201530D02*
X1886310Y193890D01*
X1885730Y193860D01*
X1885150Y193850D01*
X1875150Y193850D01*
G54D26*
G75*
G01X1855650Y213350D02*
G03X1875150Y193850I19500J0D01*
G01*
G54D26*
X1855650Y213350D02*
X1855650Y264150D01*
G54D26*
G75*
G01X1862616Y279088D02*
G03X1855650Y264150I12534J-14938D01*
G01*
G54D26*
X1862660Y279120D02*
X1875150Y289550D01*
X1880150Y289550D01*
G54D26*
X2176520Y247900D02*
X2177520Y255900D01*
X2177520Y257900D01*
G54D26*
G75*
G01X2182682Y265848D02*
G03X2177520Y257900I3538J-7948D01*
G01*
G54D26*
X2182740Y265870D02*
X2184420Y266610D01*
G54D26*
G75*
G01X2188220Y267403D02*
G03X2184355Y266581I0J-9503D01*
G01*
G54D26*
X2188220Y267400D02*
X2192220Y267400D01*
G54D26*
G75*
G01X2195932Y266645D02*
G03X2192220Y267400I-3712J-8745D01*
G01*
G54D26*
X2195890Y266660D02*
X2250310Y243890D01*
G54D26*
G75*
G01X2250224Y243927D02*
G03X2262556Y242956I7616J17943D01*
G01*
G54D26*
X2262550Y242960D02*
X2307110Y254070D01*
X2307690Y254220D01*
X2308270Y254390D01*
X2339150Y264150D01*
X2344150Y264150D01*
G54D26*
X2303570Y280900D02*
X2302400Y272990D01*
X2309100Y268630D01*
X2315890Y279070D01*
X2303570Y280900D01*
G54D26*
X2147760Y214230D02*
X2154910Y210630D01*
X2161150Y215620D01*
X2153380Y225350D01*
X2147760Y214230D01*
G54D26*
X2302400Y272990D02*
X2339150Y289550D01*
X2344150Y289550D01*
G54D26*
X2151120Y247900D02*
X2152120Y239900D01*
X2152120Y237900D01*
X2152140Y237450D01*
X2152170Y237000D01*
X2154910Y210630D01*
G54D28*
X2334150Y289550D02*
X2354150Y289550D01*
G54D26*
X2100320Y247900D02*
X2099320Y239900D01*
X2099320Y237900D01*
G54D26*
G75*
G01X2099062Y235800D02*
G03X2099320Y237900I-8422J2100D01*
G01*
G54D26*
X2099050Y235730D02*
X2098260Y232670D01*
G54D26*
G75*
G01X2096795Y228694D02*
G03X2098300Y232829I-18915J9226D01*
G01*
G54D26*
X2096780Y228660D02*
X2094330Y223650D01*
G54D26*
G75*
G01X2080442Y209291D02*
G03X2094353Y223696I-15212J28609D01*
G01*
G54D26*
X2080680Y209420D02*
X2070980Y204150D01*
X2070750Y204030D01*
X2070530Y203910D01*
X2070360Y203820D01*
X2070200Y203740D01*
X2034060Y183790D01*
G54D26*
G75*
G01X2015744Y178555D02*
G03X2034126Y183826I-2224J42445D01*
G01*
G54D26*
X2016050Y178570D02*
X1887680Y170930D01*
X1886420Y170870D01*
X1885150Y170850D01*
X1875150Y170850D01*
G54D26*
G75*
G01X1832650Y213350D02*
G03X1875150Y170850I42500J0D01*
G01*
G54D26*
X1832650Y213350D02*
X1832650Y264150D01*
G54D26*
G75*
G01X1833738Y273711D02*
G03X1832650Y264160I41372J-9551D01*
G01*
G54D26*
X1833760Y273770D02*
X1844960Y321970D01*
G54D26*
G75*
G01X1847531Y329017D02*
G03X1844950Y321925I27589J-14057D01*
G01*
G54D26*
X1847510Y328990D02*
X1857770Y349180D01*
G54D26*
G75*
G01X1862625Y355291D02*
G03X1857780Y349201I12545J-14951D01*
G01*
G54D26*
X1862660Y355320D02*
X1875150Y365750D01*
X1880150Y365750D01*
G54D26*
X2252990Y268250D02*
X2257830Y261880D01*
X2265640Y263630D01*
X2262910Y275780D01*
X2252990Y268250D01*
G54D26*
X2016300Y228500D02*
X2013530Y221000D01*
X2019160Y215360D01*
X2027980Y224180D01*
X2016300Y228500D01*
G54D26*
X2257830Y261880D02*
X2283140Y331220D01*
G54D26*
G75*
G01X2303498Y343926D02*
G03X2283133Y331200I-2038J-19396D01*
G01*
G54D26*
X2303400Y343930D02*
X2339150Y340350D01*
X2344150Y340350D01*
G54D26*
X2062220Y247900D02*
X2061220Y239900D01*
X2061220Y237900D01*
G54D26*
G75*
G01X2061088Y237190D02*
G03X2061220Y237900I-1848J710D01*
G01*
G54D26*
X2061090Y237180D02*
X2060300Y235150D01*
G54D26*
G75*
G01X2056434Y230788D02*
G03X2060304Y235162I-3914J7362D01*
G01*
G54D26*
X2056380Y230760D02*
X2056280Y230700D01*
G54D26*
G75*
G01X2054220Y229961D02*
G03X2056220Y230669I-1690J7949D01*
G01*
G54D26*
X2054270Y229970D02*
X2013530Y221000D01*
G54D28*
X2334150Y340350D02*
X2354150Y340350D01*
G54D26*
X2087620Y247900D02*
X2086620Y239900D01*
X2086620Y237900D01*
G54D26*
G75*
G01X2086284Y235507D02*
G03X2086620Y237900I-8344J2393D01*
G01*
G54D26*
X2086310Y235570D02*
X2085400Y232300D01*
G54D26*
G75*
G01X2077531Y220965D02*
G03X2085354Y232137I-12311J16945D01*
G01*
G54D26*
X2077470Y220920D02*
X2069240Y214980D01*
G54D26*
G75*
G01X2065939Y212926D02*
G03X2069328Y215044I-13449J25294D01*
G01*
G54D26*
X2065730Y212820D02*
X2065630Y212760D01*
G54D26*
X2065400Y212640D02*
X2027600Y193380D01*
G54D26*
G75*
G01X2015143Y190042D02*
G03X2027599Y193379I-1623J30968D01*
G01*
G54D26*
X2015370Y190050D02*
X1887000Y182400D01*
X1886080Y182360D01*
X1885150Y182350D01*
X1875150Y182350D01*
G54D26*
G75*
G01X1844150Y213350D02*
G03X1875150Y182350I31000J0D01*
G01*
G54D26*
X1844150Y213350D02*
X1844150Y264150D01*
G54D26*
G75*
G01X1844945Y271126D02*
G03X1844150Y264150I30215J-6976D01*
G01*
G54D26*
X1844960Y271170D02*
X1856160Y319360D01*
G54D26*
G75*
G01X1862621Y329883D02*
G03X1856153Y319328I12539J-14943D01*
G01*
G54D26*
X1862660Y329920D02*
X1875150Y340350D01*
X1880150Y340350D01*
G54D26*
X2163820Y247900D02*
X2162820Y255900D01*
X2162820Y257900D01*
G54D26*
G75*
G01X2162820Y257900D02*
G03X2158338Y265509I-8700J0D01*
G01*
G54D26*
X2158340Y265510D02*
X2138890Y276270D01*
G54D26*
G75*
G01X2138900Y276264D02*
G03X2128720Y278897I-10180J-18364D01*
G01*
G54D26*
X2128720Y278900D02*
X2046520Y278900D01*
G54D26*
G75*
G01X2046520Y278900D02*
G03X2041435Y278276I0J-21020D01*
G01*
G54D26*
X2041370Y278260D02*
X1885150Y238750D01*
X1880150Y238750D01*
G54D26*
X2138420Y247900D02*
X2137420Y255900D01*
X2137420Y257900D01*
G54D26*
G75*
G01X2137420Y257900D02*
G03X2132258Y265848I-8700J0D01*
G01*
G54D26*
X2132200Y265870D02*
X2130520Y266610D01*
G54D26*
G75*
G01X2130585Y266581D02*
G03X2126720Y267403I-3865J-8681D01*
G01*
G54D26*
X2126720Y267400D02*
X2046520Y267400D01*
G54D26*
G75*
G01X2046520Y267400D02*
G03X2043430Y266883I0J-9490D01*
G01*
G54D26*
X2043480Y266900D02*
X1885150Y213350D01*
X1880150Y213350D01*
G54D28*
X529250Y213350D02*
X539250Y213350D01*
G54D28*
X529250Y238750D02*
X539250Y238750D01*
G54D28*
X529250Y264150D02*
X539250Y264150D01*
G54D28*
X529250Y289550D02*
X539250Y289550D01*
G54D28*
X529250Y314950D02*
X539250Y314950D01*
G54D28*
X529250Y340350D02*
X539250Y340350D01*
G54D28*
X529250Y365750D02*
X539250Y365750D01*
G54D28*
X529250Y391150D02*
X539250Y391150D01*
G54D28*
X65250Y213350D02*
X75250Y213350D01*
G54D28*
X65250Y238750D02*
X75250Y238750D01*
G54D28*
X65250Y264150D02*
X75250Y264150D01*
G54D28*
X65250Y289550D02*
X75250Y289550D01*
G54D28*
X65250Y314950D02*
X75250Y314950D01*
G54D28*
X65250Y340350D02*
X75250Y340350D01*
G54D28*
X65250Y365750D02*
X75250Y365750D01*
G54D28*
X65250Y391150D02*
X75250Y391150D01*
G54D28*
X1132780Y213350D02*
X1142780Y213350D01*
G54D28*
X1132780Y238750D02*
X1142780Y238750D01*
G54D28*
X1132780Y264150D02*
X1142780Y264150D01*
G54D28*
X1132780Y289550D02*
X1142780Y289550D01*
G54D28*
X1132780Y314950D02*
X1142780Y314950D01*
G54D28*
X1132780Y340350D02*
X1142780Y340350D01*
G54D28*
X1132780Y365750D02*
X1142780Y365750D01*
G54D28*
X1132780Y391150D02*
X1142780Y391150D01*
G54D28*
X668780Y213350D02*
X678780Y213350D01*
G54D28*
X668780Y238750D02*
X678780Y238750D01*
G54D28*
X668780Y264150D02*
X678780Y264150D01*
G54D28*
X668780Y289550D02*
X678780Y289550D01*
G54D28*
X668780Y314950D02*
X678780Y314950D01*
G54D28*
X668780Y340350D02*
X678780Y340350D01*
G54D28*
X668780Y365750D02*
X678780Y365750D01*
G54D28*
X668780Y391150D02*
X678780Y391150D01*
G54D28*
X1735970Y213350D02*
X1745970Y213350D01*
G54D28*
X1735970Y238750D02*
X1745970Y238750D01*
G54D28*
X1735970Y264150D02*
X1745970Y264150D01*
G54D28*
X1735970Y289550D02*
X1745970Y289550D01*
G54D28*
X1735970Y314950D02*
X1745970Y314950D01*
G54D28*
X1735970Y340350D02*
X1745970Y340350D01*
G54D28*
X1735970Y365750D02*
X1745970Y365750D01*
G54D28*
X1735970Y391150D02*
X1745970Y391150D01*
G54D28*
X1271970Y213350D02*
X1281970Y213350D01*
G54D28*
X1271970Y238750D02*
X1281970Y238750D01*
G54D28*
X1271970Y264150D02*
X1281970Y264150D01*
G54D28*
X1271970Y289550D02*
X1281970Y289550D01*
G54D28*
X1271970Y314950D02*
X1281970Y314950D01*
G54D28*
X1271970Y340350D02*
X1281970Y340350D01*
G54D28*
X1271970Y365750D02*
X1281970Y365750D01*
G54D28*
X1271970Y391150D02*
X1281970Y391150D01*
G54D28*
X2339150Y213350D02*
X2349150Y213350D01*
G54D28*
X2339150Y238750D02*
X2349150Y238750D01*
G54D28*
X2339150Y264150D02*
X2349150Y264150D01*
G54D28*
X2339150Y289550D02*
X2349150Y289550D01*
G54D28*
X2339150Y314950D02*
X2349150Y314950D01*
G54D28*
X2339150Y340350D02*
X2349150Y340350D01*
G54D28*
X2339150Y365750D02*
X2349150Y365750D01*
G54D28*
X2339150Y391150D02*
X2349150Y391150D01*
G54D28*
X1875150Y213350D02*
X1885150Y213350D01*
G54D28*
X1875150Y238750D02*
X1885150Y238750D01*
G54D28*
X1875150Y264150D02*
X1885150Y264150D01*
G54D28*
X1875150Y289550D02*
X1885150Y289550D01*
G54D28*
X1875150Y314950D02*
X1885150Y314950D01*
G54D28*
X1875150Y340350D02*
X1885150Y340350D01*
G54D28*
X1875150Y365750D02*
X1885150Y365750D01*
G54D28*
X1875150Y391150D02*
X1885150Y391150D01*
X291730Y207600D02*
G54D29*
D03*
X319730Y207600D02*
G54D29*
D03*
X893060Y179980D02*
G54D29*
D03*
X921060Y179980D02*
G54D29*
D03*
X1500510Y194120D02*
G54D29*
D03*
X1528510Y194120D02*
G54D29*
D03*
X2112070Y182920D02*
G54D29*
D03*
X2140070Y182920D02*
G54D29*
D03*
X233610Y365710D02*
G54D30*
D03*
X246310Y365710D02*
G54D30*
D03*
X259010Y365710D02*
G54D30*
D03*
X271710Y365710D02*
G54D30*
D03*
X284410Y365710D02*
G54D30*
D03*
X297110Y365710D02*
G54D30*
D03*
X309810Y365710D02*
G54D30*
D03*
X322510Y365710D02*
G54D30*
D03*
X335210Y365710D02*
G54D30*
D03*
X347910Y365710D02*
G54D30*
D03*
X360610Y365710D02*
G54D30*
D03*
X373310Y365710D02*
G54D30*
D03*
X373310Y271710D02*
G54D30*
D03*
X360610Y271710D02*
G54D30*
D03*
X347910Y271710D02*
G54D30*
D03*
X335210Y271710D02*
G54D30*
D03*
X322510Y271710D02*
G54D30*
D03*
X309810Y271710D02*
G54D30*
D03*
X297110Y271710D02*
G54D30*
D03*
X284410Y271710D02*
G54D30*
D03*
X271710Y271710D02*
G54D30*
D03*
X259010Y271710D02*
G54D30*
D03*
X246310Y271710D02*
G54D30*
D03*
X233610Y271710D02*
G54D30*
D03*
X837150Y381600D02*
G54D30*
D03*
X849850Y381600D02*
G54D30*
D03*
X862550Y381600D02*
G54D30*
D03*
X875250Y381600D02*
G54D30*
D03*
X887950Y381600D02*
G54D30*
D03*
X900650Y381600D02*
G54D30*
D03*
X913350Y381600D02*
G54D30*
D03*
X926050Y381600D02*
G54D30*
D03*
X938750Y381600D02*
G54D30*
D03*
X951450Y381600D02*
G54D30*
D03*
X964150Y381600D02*
G54D30*
D03*
X976850Y381600D02*
G54D30*
D03*
X976850Y287600D02*
G54D30*
D03*
X964150Y287600D02*
G54D30*
D03*
X951450Y287600D02*
G54D30*
D03*
X938750Y287600D02*
G54D30*
D03*
X926050Y287600D02*
G54D30*
D03*
X913350Y287600D02*
G54D30*
D03*
X900650Y287600D02*
G54D30*
D03*
X887950Y287600D02*
G54D30*
D03*
X875250Y287600D02*
G54D30*
D03*
X862550Y287600D02*
G54D30*
D03*
X849850Y287600D02*
G54D30*
D03*
X837150Y287600D02*
G54D30*
D03*
G36*
X1449340Y352540D02*
X1443340Y352540D01*
X1443340Y372540D01*
X1449340Y372540D01*
X1449340Y352540D01*
G37*
G36*
X1462040Y352540D02*
X1456040Y352540D01*
X1456040Y372540D01*
X1462040Y372540D01*
X1462040Y352540D01*
G37*
G36*
X1474740Y352540D02*
X1468740Y352540D01*
X1468740Y372540D01*
X1474740Y372540D01*
X1474740Y352540D01*
G37*
G36*
X1487440Y352540D02*
X1481440Y352540D01*
X1481440Y372540D01*
X1487440Y372540D01*
X1487440Y352540D01*
G37*
G36*
X1500140Y352540D02*
X1494140Y352540D01*
X1494140Y372540D01*
X1500140Y372540D01*
X1500140Y352540D01*
G37*
G36*
X1512840Y352540D02*
X1506840Y352540D01*
X1506840Y372540D01*
X1512840Y372540D01*
X1512840Y352540D01*
G37*
G36*
X1525540Y352540D02*
X1519540Y352540D01*
X1519540Y372540D01*
X1525540Y372540D01*
X1525540Y352540D01*
G37*
G36*
X1538240Y352540D02*
X1532240Y352540D01*
X1532240Y372540D01*
X1538240Y372540D01*
X1538240Y352540D01*
G37*
G36*
X1550940Y352540D02*
X1544940Y352540D01*
X1544940Y372540D01*
X1550940Y372540D01*
X1550940Y352540D01*
G37*
G36*
X1563640Y352540D02*
X1557640Y352540D01*
X1557640Y372540D01*
X1563640Y372540D01*
X1563640Y352540D01*
G37*
G36*
X1576340Y352540D02*
X1570340Y352540D01*
X1570340Y372540D01*
X1576340Y372540D01*
X1576340Y352540D01*
G37*
G36*
X1589040Y352540D02*
X1583040Y352540D01*
X1583040Y372540D01*
X1589040Y372540D01*
X1589040Y352540D01*
G37*
G36*
X1589040Y258530D02*
X1583040Y258530D01*
X1583040Y278530D01*
X1589040Y278530D01*
X1589040Y258530D01*
G37*
G36*
X1576340Y258530D02*
X1570340Y258530D01*
X1570340Y278530D01*
X1576340Y278530D01*
X1576340Y258530D01*
G37*
G36*
X1563640Y258530D02*
X1557640Y258530D01*
X1557640Y278530D01*
X1563640Y278530D01*
X1563640Y258530D01*
G37*
G36*
X1550940Y258530D02*
X1544940Y258530D01*
X1544940Y278530D01*
X1550940Y278530D01*
X1550940Y258530D01*
G37*
G36*
X1538240Y258530D02*
X1532240Y258530D01*
X1532240Y278530D01*
X1538240Y278530D01*
X1538240Y258530D01*
G37*
G36*
X1525540Y258530D02*
X1519540Y258530D01*
X1519540Y278530D01*
X1525540Y278530D01*
X1525540Y258530D01*
G37*
G36*
X1512840Y258530D02*
X1506840Y258530D01*
X1506840Y278530D01*
X1512840Y278530D01*
X1512840Y258530D01*
G37*
G36*
X1500140Y258530D02*
X1494140Y258530D01*
X1494140Y278530D01*
X1500140Y278530D01*
X1500140Y258530D01*
G37*
G36*
X1487440Y258530D02*
X1481440Y258530D01*
X1481440Y278530D01*
X1487440Y278530D01*
X1487440Y258530D01*
G37*
G36*
X1474740Y258530D02*
X1468740Y258530D01*
X1468740Y278530D01*
X1474740Y278530D01*
X1474740Y258530D01*
G37*
G36*
X1462040Y258530D02*
X1456040Y258530D01*
X1456040Y278530D01*
X1462040Y278530D01*
X1462040Y258530D01*
G37*
G36*
X1449340Y258530D02*
X1443340Y258530D01*
X1443340Y278530D01*
X1449340Y278530D01*
X1449340Y258530D01*
G37*
G36*
X2052520Y331900D02*
X2046520Y331900D01*
X2046520Y351900D01*
X2052520Y351900D01*
X2052520Y331900D01*
G37*
G36*
X2065220Y331900D02*
X2059220Y331900D01*
X2059220Y351900D01*
X2065220Y351900D01*
X2065220Y331900D01*
G37*
G36*
X2077920Y331900D02*
X2071920Y331900D01*
X2071920Y351900D01*
X2077920Y351900D01*
X2077920Y331900D01*
G37*
G36*
X2090620Y331900D02*
X2084620Y331900D01*
X2084620Y351900D01*
X2090620Y351900D01*
X2090620Y331900D01*
G37*
G36*
X2103320Y331900D02*
X2097320Y331900D01*
X2097320Y351900D01*
X2103320Y351900D01*
X2103320Y331900D01*
G37*
G36*
X2116020Y331900D02*
X2110020Y331900D01*
X2110020Y351900D01*
X2116020Y351900D01*
X2116020Y331900D01*
G37*
G36*
X2128720Y331900D02*
X2122720Y331900D01*
X2122720Y351900D01*
X2128720Y351900D01*
X2128720Y331900D01*
G37*
G36*
X2141420Y331900D02*
X2135420Y331900D01*
X2135420Y351900D01*
X2141420Y351900D01*
X2141420Y331900D01*
G37*
G36*
X2154120Y331900D02*
X2148120Y331900D01*
X2148120Y351900D01*
X2154120Y351900D01*
X2154120Y331900D01*
G37*
G36*
X2166820Y331900D02*
X2160820Y331900D01*
X2160820Y351900D01*
X2166820Y351900D01*
X2166820Y331900D01*
G37*
G36*
X2179520Y331900D02*
X2173520Y331900D01*
X2173520Y351900D01*
X2179520Y351900D01*
X2179520Y331900D01*
G37*
G36*
X2192220Y331900D02*
X2186220Y331900D01*
X2186220Y351900D01*
X2192220Y351900D01*
X2192220Y331900D01*
G37*
G36*
X2192220Y237900D02*
X2186220Y237900D01*
X2186220Y257900D01*
X2192220Y257900D01*
X2192220Y237900D01*
G37*
G36*
X2179520Y237900D02*
X2173520Y237900D01*
X2173520Y257900D01*
X2179520Y257900D01*
X2179520Y237900D01*
G37*
G36*
X2166820Y237900D02*
X2160820Y237900D01*
X2160820Y257900D01*
X2166820Y257900D01*
X2166820Y237900D01*
G37*
G36*
X2154120Y237900D02*
X2148120Y237900D01*
X2148120Y257900D01*
X2154120Y257900D01*
X2154120Y237900D01*
G37*
G36*
X2141420Y237900D02*
X2135420Y237900D01*
X2135420Y257900D01*
X2141420Y257900D01*
X2141420Y237900D01*
G37*
G36*
X2128720Y237900D02*
X2122720Y237900D01*
X2122720Y257900D01*
X2128720Y257900D01*
X2128720Y237900D01*
G37*
G36*
X2116020Y237900D02*
X2110020Y237900D01*
X2110020Y257900D01*
X2116020Y257900D01*
X2116020Y237900D01*
G37*
G36*
X2103320Y237900D02*
X2097320Y237900D01*
X2097320Y257900D01*
X2103320Y257900D01*
X2103320Y237900D01*
G37*
G36*
X2090620Y237900D02*
X2084620Y237900D01*
X2084620Y257900D01*
X2090620Y257900D01*
X2090620Y237900D01*
G37*
G36*
X2077920Y237900D02*
X2071920Y237900D01*
X2071920Y257900D01*
X2077920Y257900D01*
X2077920Y237900D01*
G37*
G36*
X2065220Y237900D02*
X2059220Y237900D01*
X2059220Y257900D01*
X2065220Y257900D01*
X2065220Y237900D01*
G37*
G36*
X2052520Y237900D02*
X2046520Y237900D01*
X2046520Y257900D01*
X2052520Y257900D01*
X2052520Y237900D01*
G37*
G54D28*
X524300Y213350D02*
X544300Y213350D01*
G54D28*
X524300Y238750D02*
X544300Y238750D01*
G54D28*
X524300Y264150D02*
X544300Y264150D01*
G54D28*
X524300Y289550D02*
X544300Y289550D01*
G54D28*
X524300Y314950D02*
X544300Y314950D01*
G54D28*
X524300Y340350D02*
X544300Y340350D01*
G54D28*
X524300Y365750D02*
X544300Y365750D01*
G54D28*
X524300Y391150D02*
X544300Y391150D01*
G54D28*
X663800Y391150D02*
X683800Y391150D01*
G54D28*
X663800Y365750D02*
X683800Y365750D01*
G54D28*
X663800Y340350D02*
X683800Y340350D01*
G54D28*
X663800Y314950D02*
X683800Y314950D01*
G54D28*
X663800Y289550D02*
X683800Y289550D01*
G54D28*
X663800Y264150D02*
X683800Y264150D01*
G54D28*
X1127800Y213350D02*
X1147800Y213350D01*
G54D28*
X1127800Y238750D02*
X1147800Y238750D01*
G54D28*
X1127800Y264150D02*
X1147800Y264150D01*
G54D28*
X1127800Y289550D02*
X1147800Y289550D01*
G54D28*
X1127800Y340350D02*
X1147800Y340350D01*
G54D28*
X1127800Y365750D02*
X1147800Y365750D01*
G54D28*
X1127800Y391150D02*
X1147800Y391150D01*
G54D28*
X1267000Y391150D02*
X1287000Y391150D01*
G54D28*
X1267000Y365750D02*
X1287000Y365750D01*
G54D28*
X1267000Y340350D02*
X1287000Y340350D01*
G54D28*
X1267000Y314950D02*
X1287000Y314950D01*
G54D28*
X1267000Y289550D02*
X1287000Y289550D01*
G54D28*
X1267000Y264150D02*
X1287000Y264150D01*
G54D28*
X1267000Y238750D02*
X1287000Y238750D01*
G54D28*
X1267000Y213350D02*
X1287000Y213350D01*
G54D28*
X1731000Y213350D02*
X1751000Y213350D01*
G54D28*
X1731000Y238750D02*
X1751000Y238750D01*
G54D28*
X1731000Y264150D02*
X1751000Y264150D01*
G54D28*
X1731000Y314950D02*
X1751000Y314950D01*
G54D28*
X1731000Y365750D02*
X1751000Y365750D01*
G54D28*
X1870200Y391150D02*
X1890200Y391150D01*
G54D28*
X1870200Y365750D02*
X1890200Y365750D01*
G54D28*
X1870200Y340350D02*
X1890200Y340350D01*
G54D28*
X1870200Y314950D02*
X1890200Y314950D01*
G54D28*
X1870200Y289550D02*
X1890200Y289550D01*
G54D28*
X1870200Y264150D02*
X1890200Y264150D01*
G54D28*
X1870200Y238750D02*
X1890200Y238750D01*
G54D28*
X1870200Y213350D02*
X1890200Y213350D01*
G54D28*
X2334200Y213350D02*
X2354200Y213350D01*
G54D28*
X2334200Y238750D02*
X2354200Y238750D01*
G54D28*
X2334200Y264150D02*
X2354200Y264150D01*
G54D28*
X2334200Y365750D02*
X2354200Y365750D01*
G54D28*
X2334200Y391150D02*
X2354200Y391150D01*
G54D28*
X60300Y391150D02*
X80300Y391150D01*
G54D28*
X60300Y365750D02*
X80300Y365750D01*
G54D28*
X60300Y340350D02*
X80300Y340350D01*
G54D28*
X60300Y314950D02*
X80300Y314950D01*
G54D28*
X60300Y289550D02*
X80300Y289550D01*
G54D28*
X60300Y238750D02*
X80300Y238750D01*
G54D28*
X60300Y213350D02*
X80300Y213350D01*
G54D31*
X2165297Y551441D02*
X2171520Y549496D01*
X2174630Y545607D01*
X2174630Y526163D01*
X2171520Y522274D01*
X2165297Y520330D01*
G54D31*
X2138853Y536663D02*
X2145075Y537830D01*
X2151298Y536663D01*
X2154408Y532774D01*
X2154408Y524996D01*
X2151298Y521107D01*
X2145075Y520330D01*
X2138853Y521107D01*
G54D31*
X2127964Y551441D02*
X2121741Y549496D01*
X2118630Y545607D01*
X2118630Y526163D01*
X2121741Y522274D01*
X2127964Y520330D01*
G54D31*
X2107742Y520330D02*
X2082852Y520330D01*
G54D31*
X2095297Y520330D02*
X2095297Y551441D01*
G54D31*
X2107742Y551441D02*
X2082852Y551441D01*
G54D31*
X2071964Y537830D02*
X2059519Y520330D01*
X2047074Y537830D01*
G54D31*
X2036186Y535885D02*
X2029963Y537830D01*
X2022496Y537830D01*
X2017519Y533941D01*
X2017519Y520330D01*
G54D31*
X2017519Y526163D02*
X2020630Y530052D01*
X2026852Y530830D01*
X2033074Y530052D01*
X2036186Y526163D01*
X2034941Y522274D01*
X2029963Y520330D01*
X2026852Y520330D01*
X2025608Y520330D01*
X2020630Y522274D01*
X2017519Y526163D01*
G54D31*
X2006630Y520330D02*
X2006630Y537830D01*
G54D31*
X2006630Y533941D02*
X2003518Y536663D01*
X1997296Y537830D01*
X1991074Y536663D01*
X1987963Y533941D01*
X1987963Y520330D01*
G54D31*
X1977074Y520330D02*
X1945962Y520330D01*
G54D31*
X1928851Y520330D02*
X1928851Y549496D01*
X1925740Y551441D01*
X1922629Y550274D01*
G54D31*
X1935074Y537830D02*
X1922629Y537830D01*
G54D31*
X1893074Y520330D02*
X1893074Y551441D01*
G54D31*
X1893074Y532774D02*
X1896185Y536663D01*
X1902407Y537830D01*
X1908630Y536663D01*
X1911740Y532774D01*
X1911740Y524996D01*
X1908630Y521107D01*
X1902407Y520330D01*
X1896185Y521107D01*
X1893074Y524996D01*
G54D31*
X1845784Y520330D02*
X1870674Y520330D01*
X1870674Y522274D01*
X1867562Y526163D01*
X1848896Y537830D01*
X1845784Y541718D01*
X1845784Y545607D01*
X1848896Y549496D01*
X1855118Y551441D01*
X1861340Y551441D01*
X1867562Y549496D01*
X1870674Y545607D01*
G54D31*
X1816229Y520330D02*
X1816229Y551441D01*
X1834896Y531996D01*
X1834896Y528107D01*
X1810006Y528107D01*
G54D31*
X1796628Y520330D02*
X1799118Y520330D01*
X1799118Y521885D01*
X1796628Y521885D01*
X1796628Y520330D01*
X1799118Y520330D01*
G54D31*
X1760850Y545607D02*
X1760850Y526163D01*
X1763962Y522274D01*
X1770184Y520330D01*
X1776406Y520330D01*
X1782628Y522274D01*
X1785740Y526163D01*
X1785740Y545607D01*
X1782628Y549496D01*
X1776406Y551441D01*
X1770184Y551441D01*
X1763962Y549496D01*
X1760850Y545607D01*
G54D31*
X1725072Y520330D02*
X1749962Y520330D01*
X1749962Y522274D01*
X1746850Y526163D01*
X1728184Y537830D01*
X1725072Y541718D01*
X1725072Y545607D01*
X1728184Y549496D01*
X1734406Y551441D01*
X1740628Y551441D01*
X1746850Y549496D01*
X1749962Y545607D01*
G54D31*
X1711694Y520330D02*
X1714184Y520330D01*
X1714184Y521885D01*
X1711694Y521885D01*
X1711694Y520330D01*
X1714184Y520330D01*
G54D31*
X1675916Y520330D02*
X1700806Y520330D01*
X1700806Y522274D01*
X1697694Y526163D01*
X1679028Y537830D01*
X1675916Y541718D01*
X1675916Y545607D01*
X1679028Y549496D01*
X1685250Y551441D01*
X1691472Y551441D01*
X1697694Y549496D01*
X1700806Y545607D01*
G54D31*
X1640138Y545607D02*
X1640138Y526163D01*
X1643250Y522274D01*
X1649472Y520330D01*
X1655694Y520330D01*
X1661916Y522274D01*
X1665028Y526163D01*
X1665028Y545607D01*
X1661916Y549496D01*
X1655694Y551441D01*
X1649472Y551441D01*
X1643250Y549496D01*
X1640138Y545607D01*
G54D31*
X1629250Y539774D02*
X1613694Y551441D01*
X1613694Y520330D01*
G54D31*
X1577916Y545607D02*
X1581027Y549496D01*
X1587249Y551441D01*
X1593471Y551441D01*
X1599694Y549496D01*
X1602804Y545607D01*
X1602804Y535885D01*
X1602804Y533941D01*
X1593471Y537830D01*
X1587249Y537830D01*
X1581027Y535885D01*
X1577916Y531996D01*
X1577916Y526163D01*
X1581027Y522274D01*
X1587249Y520330D01*
X1593471Y520330D01*
X1599694Y522274D01*
X1602804Y526163D01*
X1602804Y535885D01*
G54D31*
X1544004Y520330D02*
X1544004Y551441D01*
X1528449Y551441D01*
X1522227Y549496D01*
X1519116Y545607D01*
X1519116Y541718D01*
X1522227Y537830D01*
X1528449Y535885D01*
X1522227Y533941D01*
X1519116Y530052D01*
X1519116Y526163D01*
X1522227Y522274D01*
X1528449Y520330D01*
X1544004Y520330D01*
G54D31*
X1544004Y535885D02*
X1528449Y535885D01*
G54D31*
X1489560Y524996D02*
X1489560Y532774D01*
X1492671Y536663D01*
X1498893Y537830D01*
X1505116Y536663D01*
X1508226Y532774D01*
X1508226Y524996D01*
X1505116Y521107D01*
X1498893Y520330D01*
X1492671Y521107D01*
X1489560Y524996D01*
G54D31*
X1472448Y551441D02*
X1472448Y522274D01*
X1469337Y520330D01*
X1466226Y521107D01*
G54D31*
X1478670Y537830D02*
X1466226Y537830D01*
G54D31*
X1455338Y520330D02*
X1424226Y520330D01*
G54D31*
X1413338Y551441D02*
X1413338Y520330D01*
X1391560Y520330D01*
G54D31*
X1380670Y535885D02*
X1374448Y537830D01*
X1366982Y537830D01*
X1362004Y533941D01*
X1362004Y520330D01*
G54D31*
X1362004Y526163D02*
X1365115Y530052D01*
X1371337Y530830D01*
X1377560Y530052D01*
X1380670Y526163D01*
X1379426Y522274D01*
X1374448Y520330D01*
X1371337Y520330D01*
X1370093Y520330D01*
X1365115Y522274D01*
X1362004Y526163D01*
G54D31*
X1351114Y537830D02*
X1338670Y520330D01*
X1326226Y537830D01*
G54D31*
X1338670Y520330D02*
X1341781Y514496D01*
X1344892Y512552D01*
X1348004Y512552D01*
X50800Y558800D02*
G54D32*
D03*
X50800Y44450D02*
G54D32*
D03*
X2362200Y44450D02*
G54D32*
D03*
X2362200Y558800D02*
G54D32*
D03*
X146050Y622300D02*
G54D24*
D03*
X101600Y-19050D02*
G54D24*
D03*
X2425700Y615950D02*
G54D24*
D03*
X2197100Y-12700D02*
G54D24*
D03*
X1446340Y362540D02*
G54D30*
D03*
X1459040Y362540D02*
G54D30*
D03*
X1471740Y362540D02*
G54D30*
D03*
X1484440Y362540D02*
G54D30*
D03*
X1497140Y362540D02*
G54D30*
D03*
X1509840Y362540D02*
G54D30*
D03*
X1522540Y362540D02*
G54D30*
D03*
X1535240Y362540D02*
G54D30*
D03*
X1547940Y362540D02*
G54D30*
D03*
X1560640Y362540D02*
G54D30*
D03*
X1573340Y362540D02*
G54D30*
D03*
X1586040Y362540D02*
G54D30*
D03*
X1586040Y268540D02*
G54D30*
D03*
X1573340Y268540D02*
G54D30*
D03*
X1560640Y268540D02*
G54D30*
D03*
X1547940Y268540D02*
G54D30*
D03*
X1535240Y268540D02*
G54D30*
D03*
X1522540Y268540D02*
G54D30*
D03*
X1509840Y268540D02*
G54D30*
D03*
X1497140Y268540D02*
G54D30*
D03*
X1484440Y268540D02*
G54D30*
D03*
X1471740Y268540D02*
G54D30*
D03*
X1459040Y268540D02*
G54D30*
D03*
X1446340Y268540D02*
G54D30*
D03*
X2049520Y341900D02*
G54D30*
D03*
X2062220Y341900D02*
G54D30*
D03*
X2074920Y341900D02*
G54D30*
D03*
X2087620Y341900D02*
G54D30*
D03*
X2100320Y341900D02*
G54D30*
D03*
X2113020Y341900D02*
G54D30*
D03*
X2125720Y341900D02*
G54D30*
D03*
X2138420Y341900D02*
G54D30*
D03*
X2151120Y341900D02*
G54D30*
D03*
X2163820Y341900D02*
G54D30*
D03*
X2176520Y341900D02*
G54D30*
D03*
X2189220Y341900D02*
G54D30*
D03*
X2189220Y247900D02*
G54D30*
D03*
X2176520Y247900D02*
G54D30*
D03*
X2163820Y247900D02*
G54D30*
D03*
X2151120Y247900D02*
G54D30*
D03*
X2138420Y247900D02*
G54D30*
D03*
X2125720Y247900D02*
G54D30*
D03*
X2113020Y247900D02*
G54D30*
D03*
X2100320Y247900D02*
G54D30*
D03*
X2087620Y247900D02*
G54D30*
D03*
X2074920Y247900D02*
G54D30*
D03*
X2062220Y247900D02*
G54D30*
D03*
X2049520Y247900D02*
G54D30*
D03*
%LNAUGENFREISTANZEN*%
%LPC*%
X539360Y48870D02*
G54D33*
D03*
X902070Y244160D02*
G54D34*
D03*
X2078960Y187880D02*
G54D34*
D03*
X271520Y235000D02*
G54D34*
D03*
X1502270Y233550D02*
G54D34*
D03*
X919540Y145160D02*
G54D34*
D03*
X626200Y92710D02*
G54D34*
D03*
X438840Y368530D02*
G54D34*
D03*
X1052030Y417120D02*
G54D34*
D03*
X2215240Y351880D02*
G54D34*
D03*
X1010360Y363510D02*
G54D34*
D03*
X1585750Y421270D02*
G54D34*
D03*
X404150Y330290D02*
G54D34*
D03*
X199190Y253270D02*
G54D34*
D03*
X198110Y354160D02*
G54D34*
D03*
X113060Y309790D02*
G54D34*
D03*
X980130Y422220D02*
G54D34*
D03*
X1094040Y317900D02*
G54D34*
D03*
X1631430Y330730D02*
G54D34*
D03*
X1684090Y381030D02*
G54D34*
D03*
X2210970Y409060D02*
G54D34*
D03*
X2301460Y324530D02*
G54D34*
D03*
X178040Y314180D02*
G54D34*
D03*
X496520Y140320D02*
G54D34*
D03*
X284950Y166020D02*
G54D34*
D03*
X1400490Y363680D02*
G54D34*
D03*
X1071610Y370410D02*
G54D34*
D03*
X2000900Y329630D02*
G54D34*
D03*
X1473190Y166850D02*
G54D34*
D03*
X2165930Y379890D02*
G54D34*
D03*
X290530Y407300D02*
G54D34*
D03*
X938130Y418790D02*
G54D34*
D03*
X1518330Y408670D02*
G54D34*
D03*
X1470410Y398700D02*
G54D34*
D03*
X2089470Y381070D02*
G54D34*
D03*
X359050Y404810D02*
G54D34*
D03*
X870480Y421730D02*
G54D34*
D03*
X243030Y207060D02*
G54D34*
D03*
X434760Y304450D02*
G54D34*
D03*
X973750Y254210D02*
G54D34*
D03*
X783620Y246870D02*
G54D34*
D03*
X958280Y215930D02*
G54D34*
D03*
X730140Y217140D02*
G54D34*
D03*
X1635680Y269500D02*
G54D34*
D03*
X1696200Y299610D02*
G54D34*
D03*
X1468960Y202600D02*
G54D34*
D03*
X1695580Y340800D02*
G54D34*
D03*
X2154910Y210630D02*
G54D34*
D03*
X2302400Y272990D02*
G54D34*
D03*
X2013530Y221000D02*
G54D34*
D03*
X2257830Y261880D02*
G54D34*
D03*
X574360Y48870D02*
G54D33*
D03*
X609360Y48870D02*
G54D33*
D03*
X644360Y48870D02*
G54D33*
D03*
X679360Y48870D02*
G54D33*
D03*
X70250Y264150D02*
G54D27*
D03*
X1137780Y314950D02*
G54D27*
D03*
X1740970Y391150D02*
G54D27*
D03*
X2344150Y314950D02*
G54D27*
D03*
X673780Y238750D02*
G54D27*
D03*
X673780Y213350D02*
G54D27*
D03*
X1740970Y289550D02*
G54D27*
D03*
X1740970Y340350D02*
G54D27*
D03*
X2344150Y289550D02*
G54D27*
D03*
X2344150Y340350D02*
G54D27*
D03*
X534300Y213350D02*
G54D27*
D03*
X534300Y238750D02*
G54D27*
D03*
X534300Y264150D02*
G54D27*
D03*
X534300Y289550D02*
G54D27*
D03*
X534300Y314950D02*
G54D27*
D03*
X534300Y340350D02*
G54D27*
D03*
X534300Y365750D02*
G54D27*
D03*
X534300Y391150D02*
G54D27*
D03*
X673800Y391150D02*
G54D27*
D03*
X673800Y365750D02*
G54D27*
D03*
X673800Y340350D02*
G54D27*
D03*
X673800Y314950D02*
G54D27*
D03*
X673800Y289550D02*
G54D27*
D03*
X673800Y264150D02*
G54D27*
D03*
X1137800Y213350D02*
G54D27*
D03*
X1137800Y238750D02*
G54D27*
D03*
X1137800Y264150D02*
G54D27*
D03*
X1137800Y289550D02*
G54D27*
D03*
X1137800Y340350D02*
G54D27*
D03*
X1137800Y365750D02*
G54D27*
D03*
X1137800Y391150D02*
G54D27*
D03*
X1277000Y391150D02*
G54D27*
D03*
X1277000Y365750D02*
G54D27*
D03*
X1277000Y340350D02*
G54D27*
D03*
X1277000Y314950D02*
G54D27*
D03*
X1277000Y289550D02*
G54D27*
D03*
X1277000Y264150D02*
G54D27*
D03*
X1277000Y238750D02*
G54D27*
D03*
X1277000Y213350D02*
G54D27*
D03*
X1741000Y213350D02*
G54D27*
D03*
X1741000Y238750D02*
G54D27*
D03*
X1741000Y264150D02*
G54D27*
D03*
X1741000Y314950D02*
G54D27*
D03*
X1741000Y365750D02*
G54D27*
D03*
X1880200Y391150D02*
G54D27*
D03*
X1880200Y365750D02*
G54D27*
D03*
X1880200Y340350D02*
G54D27*
D03*
X1880200Y314950D02*
G54D27*
D03*
X1880200Y289550D02*
G54D27*
D03*
X1880200Y264150D02*
G54D27*
D03*
X1880200Y238750D02*
G54D27*
D03*
X1880200Y213350D02*
G54D27*
D03*
X2344200Y213350D02*
G54D27*
D03*
X2344200Y238750D02*
G54D27*
D03*
X2344200Y264150D02*
G54D27*
D03*
X2344200Y365750D02*
G54D27*
D03*
X2344200Y391150D02*
G54D27*
D03*
X70300Y391150D02*
G54D27*
D03*
X70300Y365750D02*
G54D27*
D03*
X70300Y340350D02*
G54D27*
D03*
X70300Y314950D02*
G54D27*
D03*
X70300Y289550D02*
G54D27*
D03*
X70300Y238750D02*
G54D27*
D03*
X70300Y213350D02*
G54D27*
D03*
X50800Y558800D02*
G54D12*
D03*
X50800Y44450D02*
G54D12*
D03*
X2362200Y44450D02*
G54D12*
D03*
X2362200Y558800D02*
G54D12*
D03*
X146050Y622300D02*
G54D34*
D03*
X101600Y-19050D02*
G54D34*
D03*
X2425700Y615950D02*
G54D34*
D03*
X2197100Y-12700D02*
G54D34*
D03*
M02*
