; Drill file
; Format: 2.4 (00.0000)
M48
INCH
T01C0.0197
T02C0.0315
T03C0.0394
T04C0.1181
%
G05
G90
T01
X004250Y-000500
X011200Y006550
X009550Y008170
X010670Y009270
X007830Y009990
X006990Y012390
X007780Y013960
X004430Y012210
X011420Y016050
X014120Y015950
X015900Y013020
X017100Y012000
X017260Y014530
X019530Y005540
X024640Y003670
X028730Y008570
X030830Y009740
X035500Y009630
X037710Y008520
X038320Y010020
X039760Y014330
X042170Y014600
X041400Y016440
X038570Y016640
X036920Y016500
X034250Y016620
X043060Y012530
X036190Y005730
X055120Y014330
X057870Y015710
X059760Y016110
X062410Y016600
X064210Y013040
X064380Y010630
X066760Y011810
X066740Y013430
X066290Y015020
X059130Y009210
X057820Y007990
X057980Y006590
X079260Y008720
X081830Y007410
X084820Y008310
X088870Y010330
X090630Y010760
X090590Y012790
X087200Y013870
X085260Y014970
X087030Y016120
X082250Y015020
X078760Y012990
X090500Y-000500
X095500Y023500
X000750Y024500
T02
X002750Y008420
X002750Y009420
X002750Y010420
X002750Y011420
X002750Y012420
X002750Y013420
X002750Y014420
X002750Y015420
X021020Y015420
X021020Y014420
X021020Y013420
X021020Y012420
X021020Y011420
X021020Y010420
X021020Y009420
X021020Y008420
X026510Y008420
X026510Y009420
X026510Y010420
X026510Y011420
X026510Y012420
X026510Y013420
X026510Y014420
X026510Y015420
X044780Y015420
X044780Y014420
X044780Y013420
X044780Y012420
X044780Y011420
X044780Y010420
X044780Y009420
X044780Y008420
X050260Y008420
X050260Y009420
X050260Y010420
X050260Y011420
X050260Y012420
X050260Y013420
X050260Y014420
X050260Y015420
X068530Y015420
X068530Y014420
X068530Y013420
X068530Y012420
X068530Y011420
X068530Y010420
X068530Y009420
X068530Y008420
X074010Y008420
X074010Y009420
X074010Y010420
X074010Y011420
X074010Y012420
X074010Y013420
X074010Y014420
X074010Y015420
X092270Y015420
X092270Y014420
X092270Y013420
X092270Y012420
X092270Y011420
X092270Y010420
X092270Y009420
X092270Y008420
T03
X021220Y001940
X022600Y001940
X023970Y001940
X025350Y001940
X026730Y001940
T04
X002000Y001750
X002000Y022250
X093000Y022250
X093000Y001750
M30
