%FSLAX34Y34*%
%MOMM*%
%LNCOPPER_BOTTOM*%
G71*
G01*
%ADD10C, 4.600*%
%ADD11C, 4.900*%
%ADD12C, 2.600*%
%ADD13C, 1.133*%
%ADD14C, 3.400*%
%ADD15C, 3.000*%
%ADD16C, 4.600*%
%ADD17C, 3.700*%
%ADD18C, 3.450*%
%ADD19C, 5.600*%
%ADD20C, 2.600*%
%ADD21C, 2.844*%
%ADD22C, 3.035*%
%ADD23C, 2.000*%
%ADD24C, 2.300*%
%ADD25C, 0.333*%
%ADD26C, 0.800*%
%ADD27C, 0.400*%
%ADD28C, 2.000*%
%ADD29C, 0.000*%
%ADD30C, 1.100*%
%ADD31C, 0.850*%
%ADD32C, 5.000*%
%ADD33C, 0.444*%
%ADD34C, 0.635*%
%LPD*%
G36*
X-50000Y655332D02*
X2463571Y655332D01*
X2463571Y-50000D01*
X-50000Y-50000D01*
X-50000Y655332D01*
G37*
%LPC*%
X919120Y145577D02*
G54D10*
D03*
X870060Y422143D02*
G54D10*
D03*
X358637Y405224D02*
G54D10*
D03*
X1501853Y233966D02*
G54D10*
D03*
X1585335Y421691D02*
G54D10*
D03*
X2089049Y381483D02*
G54D10*
D03*
X1009944Y363927D02*
G54D10*
D03*
X271102Y235415D02*
G54D10*
D03*
X1469997Y399121D02*
G54D10*
D03*
X1517909Y409089D02*
G54D10*
D03*
X625779Y93129D02*
G54D10*
D03*
X937710Y419207D02*
G54D10*
D03*
X2078540Y188292D02*
G54D10*
D03*
X2257416Y262297D02*
G54D10*
D03*
X2013109Y221415D02*
G54D10*
D03*
X2301979Y273404D02*
G54D10*
D03*
X2154489Y211041D02*
G54D10*
D03*
X1695163Y341213D02*
G54D10*
D03*
X1468540Y203020D02*
G54D10*
D03*
X1695781Y300024D02*
G54D10*
D03*
X1635267Y269916D02*
G54D10*
D03*
X729728Y217555D02*
G54D10*
D03*
X957867Y216342D02*
G54D10*
D03*
X783208Y247291D02*
G54D10*
D03*
X973334Y254624D02*
G54D10*
D03*
X434347Y304864D02*
G54D10*
D03*
X242611Y207475D02*
G54D10*
D03*
X290116Y407717D02*
G54D10*
D03*
X2165509Y380302D02*
G54D10*
D03*
X1472777Y167270D02*
G54D10*
D03*
X2000487Y330046D02*
G54D10*
D03*
X1071193Y370830D02*
G54D10*
D03*
X1400070Y364094D02*
G54D10*
D03*
X284536Y166433D02*
G54D10*
D03*
X496100Y140738D02*
G54D10*
D03*
X177624Y314600D02*
G54D10*
D03*
X2301042Y324947D02*
G54D10*
D03*
X2210554Y409472D02*
G54D10*
D03*
X1683671Y381449D02*
G54D10*
D03*
X1631014Y331149D02*
G54D10*
D03*
X1093622Y318315D02*
G54D10*
D03*
X979717Y422636D02*
G54D10*
D03*
X112645Y310207D02*
G54D10*
D03*
X197690Y354574D02*
G54D10*
D03*
X198772Y253690D02*
G54D10*
D03*
X403737Y330708D02*
G54D10*
D03*
X2214827Y352293D02*
G54D10*
D03*
X1051616Y417541D02*
G54D10*
D03*
X438419Y368942D02*
G54D10*
D03*
X901650Y244581D02*
G54D10*
D03*
X678940Y49286D02*
G54D11*
D03*
X643940Y49286D02*
G54D11*
D03*
X608940Y49286D02*
G54D11*
D03*
X573940Y49286D02*
G54D11*
D03*
G36*
X1448920Y352951D02*
X1442920Y352951D01*
X1442920Y372951D01*
X1448920Y372951D01*
X1448920Y352951D01*
G37*
G54D12*
X1448920Y352951D02*
X1442920Y352951D01*
X1442920Y372951D01*
X1448920Y372951D01*
X1448920Y352951D01*
G36*
X1461620Y352951D02*
X1455620Y352951D01*
X1455620Y372951D01*
X1461620Y372951D01*
X1461620Y352951D01*
G37*
G54D12*
X1461620Y352951D02*
X1455620Y352951D01*
X1455620Y372951D01*
X1461620Y372951D01*
X1461620Y352951D01*
G36*
X1474320Y352951D02*
X1468320Y352951D01*
X1468320Y372951D01*
X1474320Y372951D01*
X1474320Y352951D01*
G37*
G54D12*
X1474320Y352951D02*
X1468320Y352951D01*
X1468320Y372951D01*
X1474320Y372951D01*
X1474320Y352951D01*
G36*
X1487020Y352951D02*
X1481020Y352951D01*
X1481020Y372951D01*
X1487020Y372951D01*
X1487020Y352951D01*
G37*
G54D12*
X1487020Y352951D02*
X1481020Y352951D01*
X1481020Y372951D01*
X1487020Y372951D01*
X1487020Y352951D01*
G36*
X1499720Y352951D02*
X1493720Y352951D01*
X1493720Y372951D01*
X1499720Y372951D01*
X1499720Y352951D01*
G37*
G54D12*
X1499720Y352951D02*
X1493720Y352951D01*
X1493720Y372951D01*
X1499720Y372951D01*
X1499720Y352951D01*
G36*
X1512420Y352951D02*
X1506420Y352951D01*
X1506420Y372951D01*
X1512420Y372951D01*
X1512420Y352951D01*
G37*
G54D12*
X1512420Y352951D02*
X1506420Y352951D01*
X1506420Y372951D01*
X1512420Y372951D01*
X1512420Y352951D01*
G36*
X1525120Y352951D02*
X1519120Y352951D01*
X1519120Y372951D01*
X1525120Y372951D01*
X1525120Y352951D01*
G37*
G54D12*
X1525120Y352951D02*
X1519120Y352951D01*
X1519120Y372951D01*
X1525120Y372951D01*
X1525120Y352951D01*
G36*
X1537820Y352951D02*
X1531820Y352951D01*
X1531820Y372951D01*
X1537820Y372951D01*
X1537820Y352951D01*
G37*
G54D12*
X1537820Y352951D02*
X1531820Y352951D01*
X1531820Y372951D01*
X1537820Y372951D01*
X1537820Y352951D01*
G36*
X1550520Y352951D02*
X1544520Y352951D01*
X1544520Y372951D01*
X1550520Y372951D01*
X1550520Y352951D01*
G37*
G54D12*
X1550520Y352951D02*
X1544520Y352951D01*
X1544520Y372951D01*
X1550520Y372951D01*
X1550520Y352951D01*
G36*
X1563220Y352951D02*
X1557220Y352951D01*
X1557220Y372951D01*
X1563220Y372951D01*
X1563220Y352951D01*
G37*
G54D12*
X1563220Y352951D02*
X1557220Y352951D01*
X1557220Y372951D01*
X1563220Y372951D01*
X1563220Y352951D01*
G36*
X1575920Y352951D02*
X1569920Y352951D01*
X1569920Y372951D01*
X1575920Y372951D01*
X1575920Y352951D01*
G37*
G54D12*
X1575920Y352951D02*
X1569920Y352951D01*
X1569920Y372951D01*
X1575920Y372951D01*
X1575920Y352951D01*
G36*
X1588620Y352951D02*
X1582620Y352951D01*
X1582620Y372951D01*
X1588620Y372951D01*
X1588620Y352951D01*
G37*
G54D12*
X1588620Y352951D02*
X1582620Y352951D01*
X1582620Y372951D01*
X1588620Y372951D01*
X1588620Y352951D01*
G36*
X1588620Y258951D02*
X1582620Y258951D01*
X1582620Y278951D01*
X1588620Y278951D01*
X1588620Y258951D01*
G37*
G54D12*
X1588620Y258951D02*
X1582620Y258951D01*
X1582620Y278951D01*
X1588620Y278951D01*
X1588620Y258951D01*
G36*
X1575920Y258951D02*
X1569920Y258951D01*
X1569920Y278951D01*
X1575920Y278951D01*
X1575920Y258951D01*
G37*
G54D12*
X1575920Y258951D02*
X1569920Y258951D01*
X1569920Y278951D01*
X1575920Y278951D01*
X1575920Y258951D01*
G36*
X1563220Y258951D02*
X1557220Y258951D01*
X1557220Y278951D01*
X1563220Y278951D01*
X1563220Y258951D01*
G37*
G54D12*
X1563220Y258951D02*
X1557220Y258951D01*
X1557220Y278951D01*
X1563220Y278951D01*
X1563220Y258951D01*
G36*
X1550520Y258951D02*
X1544520Y258951D01*
X1544520Y278951D01*
X1550520Y278951D01*
X1550520Y258951D01*
G37*
G54D12*
X1550520Y258951D02*
X1544520Y258951D01*
X1544520Y278951D01*
X1550520Y278951D01*
X1550520Y258951D01*
G36*
X1537820Y258951D02*
X1531820Y258951D01*
X1531820Y278951D01*
X1537820Y278951D01*
X1537820Y258951D01*
G37*
G54D12*
X1537820Y258951D02*
X1531820Y258951D01*
X1531820Y278951D01*
X1537820Y278951D01*
X1537820Y258951D01*
G36*
X1525120Y258951D02*
X1519120Y258951D01*
X1519120Y278951D01*
X1525120Y278951D01*
X1525120Y258951D01*
G37*
G54D12*
X1525120Y258951D02*
X1519120Y258951D01*
X1519120Y278951D01*
X1525120Y278951D01*
X1525120Y258951D01*
G36*
X1512420Y258951D02*
X1506420Y258951D01*
X1506420Y278951D01*
X1512420Y278951D01*
X1512420Y258951D01*
G37*
G54D12*
X1512420Y258951D02*
X1506420Y258951D01*
X1506420Y278951D01*
X1512420Y278951D01*
X1512420Y258951D01*
G36*
X1499720Y258951D02*
X1493720Y258951D01*
X1493720Y278951D01*
X1499720Y278951D01*
X1499720Y258951D01*
G37*
G54D12*
X1499720Y258951D02*
X1493720Y258951D01*
X1493720Y278951D01*
X1499720Y278951D01*
X1499720Y258951D01*
G36*
X1487020Y258951D02*
X1481020Y258951D01*
X1481020Y278951D01*
X1487020Y278951D01*
X1487020Y258951D01*
G37*
G54D12*
X1487020Y258951D02*
X1481020Y258951D01*
X1481020Y278951D01*
X1487020Y278951D01*
X1487020Y258951D01*
G36*
X1474320Y258951D02*
X1468320Y258951D01*
X1468320Y278951D01*
X1474320Y278951D01*
X1474320Y258951D01*
G37*
G54D12*
X1474320Y258951D02*
X1468320Y258951D01*
X1468320Y278951D01*
X1474320Y278951D01*
X1474320Y258951D01*
G36*
X1461620Y258951D02*
X1455620Y258951D01*
X1455620Y278951D01*
X1461620Y278951D01*
X1461620Y258951D01*
G37*
G54D12*
X1461620Y258951D02*
X1455620Y258951D01*
X1455620Y278951D01*
X1461620Y278951D01*
X1461620Y258951D01*
G36*
X1448920Y258951D02*
X1442920Y258951D01*
X1442920Y278951D01*
X1448920Y278951D01*
X1448920Y258951D01*
G37*
G54D12*
X1448920Y258951D02*
X1442920Y258951D01*
X1442920Y278951D01*
X1448920Y278951D01*
X1448920Y258951D01*
G36*
X2052107Y332315D02*
X2046107Y332315D01*
X2046107Y352315D01*
X2052107Y352315D01*
X2052107Y332315D01*
G37*
G54D12*
X2052107Y332315D02*
X2046107Y332315D01*
X2046107Y352315D01*
X2052107Y352315D01*
X2052107Y332315D01*
G36*
X2064807Y332315D02*
X2058807Y332315D01*
X2058807Y352315D01*
X2064807Y352315D01*
X2064807Y332315D01*
G37*
G54D12*
X2064807Y332315D02*
X2058807Y332315D01*
X2058807Y352315D01*
X2064807Y352315D01*
X2064807Y332315D01*
G36*
X2077507Y332315D02*
X2071507Y332315D01*
X2071507Y352315D01*
X2077507Y352315D01*
X2077507Y332315D01*
G37*
G54D12*
X2077507Y332315D02*
X2071507Y332315D01*
X2071507Y352315D01*
X2077507Y352315D01*
X2077507Y332315D01*
G36*
X2090207Y332315D02*
X2084207Y332315D01*
X2084207Y352315D01*
X2090207Y352315D01*
X2090207Y332315D01*
G37*
G54D12*
X2090207Y332315D02*
X2084207Y332315D01*
X2084207Y352315D01*
X2090207Y352315D01*
X2090207Y332315D01*
G36*
X2102907Y332315D02*
X2096907Y332315D01*
X2096907Y352315D01*
X2102907Y352315D01*
X2102907Y332315D01*
G37*
G54D12*
X2102907Y332315D02*
X2096907Y332315D01*
X2096907Y352315D01*
X2102907Y352315D01*
X2102907Y332315D01*
G36*
X2115607Y332315D02*
X2109607Y332315D01*
X2109607Y352315D01*
X2115607Y352315D01*
X2115607Y332315D01*
G37*
G54D12*
X2115607Y332315D02*
X2109607Y332315D01*
X2109607Y352315D01*
X2115607Y352315D01*
X2115607Y332315D01*
G36*
X2128307Y332315D02*
X2122307Y332315D01*
X2122307Y352315D01*
X2128307Y352315D01*
X2128307Y332315D01*
G37*
G54D12*
X2128307Y332315D02*
X2122307Y332315D01*
X2122307Y352315D01*
X2128307Y352315D01*
X2128307Y332315D01*
G36*
X2141007Y332315D02*
X2135007Y332315D01*
X2135007Y352315D01*
X2141007Y352315D01*
X2141007Y332315D01*
G37*
G54D12*
X2141007Y332315D02*
X2135007Y332315D01*
X2135007Y352315D01*
X2141007Y352315D01*
X2141007Y332315D01*
G36*
X2153707Y332315D02*
X2147707Y332315D01*
X2147707Y352315D01*
X2153707Y352315D01*
X2153707Y332315D01*
G37*
G54D12*
X2153707Y332315D02*
X2147707Y332315D01*
X2147707Y352315D01*
X2153707Y352315D01*
X2153707Y332315D01*
G36*
X2166407Y332315D02*
X2160407Y332315D01*
X2160407Y352315D01*
X2166407Y352315D01*
X2166407Y332315D01*
G37*
G54D12*
X2166407Y332315D02*
X2160407Y332315D01*
X2160407Y352315D01*
X2166407Y352315D01*
X2166407Y332315D01*
G36*
X2179107Y332315D02*
X2173107Y332315D01*
X2173107Y352315D01*
X2179107Y352315D01*
X2179107Y332315D01*
G37*
G54D12*
X2179107Y332315D02*
X2173107Y332315D01*
X2173107Y352315D01*
X2179107Y352315D01*
X2179107Y332315D01*
G36*
X2191807Y332315D02*
X2185807Y332315D01*
X2185807Y352315D01*
X2191807Y352315D01*
X2191807Y332315D01*
G37*
G54D12*
X2191807Y332315D02*
X2185807Y332315D01*
X2185807Y352315D01*
X2191807Y352315D01*
X2191807Y332315D01*
G36*
X2191807Y238315D02*
X2185807Y238315D01*
X2185807Y258315D01*
X2191807Y258315D01*
X2191807Y238315D01*
G37*
G54D12*
X2191807Y238315D02*
X2185807Y238315D01*
X2185807Y258315D01*
X2191807Y258315D01*
X2191807Y238315D01*
G36*
X2179107Y238315D02*
X2173107Y238315D01*
X2173107Y258315D01*
X2179107Y258315D01*
X2179107Y238315D01*
G37*
G54D12*
X2179107Y238315D02*
X2173107Y238315D01*
X2173107Y258315D01*
X2179107Y258315D01*
X2179107Y238315D01*
G36*
X2166407Y238315D02*
X2160407Y238315D01*
X2160407Y258315D01*
X2166407Y258315D01*
X2166407Y238315D01*
G37*
G54D12*
X2166407Y238315D02*
X2160407Y238315D01*
X2160407Y258315D01*
X2166407Y258315D01*
X2166407Y238315D01*
G36*
X2153707Y238315D02*
X2147707Y238315D01*
X2147707Y258315D01*
X2153707Y258315D01*
X2153707Y238315D01*
G37*
G54D12*
X2153707Y238315D02*
X2147707Y238315D01*
X2147707Y258315D01*
X2153707Y258315D01*
X2153707Y238315D01*
G36*
X2141007Y238315D02*
X2135007Y238315D01*
X2135007Y258315D01*
X2141007Y258315D01*
X2141007Y238315D01*
G37*
G54D12*
X2141007Y238315D02*
X2135007Y238315D01*
X2135007Y258315D01*
X2141007Y258315D01*
X2141007Y238315D01*
G36*
X2128307Y238315D02*
X2122307Y238315D01*
X2122307Y258315D01*
X2128307Y258315D01*
X2128307Y238315D01*
G37*
G54D12*
X2128307Y238315D02*
X2122307Y238315D01*
X2122307Y258315D01*
X2128307Y258315D01*
X2128307Y238315D01*
G36*
X2115607Y238315D02*
X2109607Y238315D01*
X2109607Y258315D01*
X2115607Y258315D01*
X2115607Y238315D01*
G37*
G54D12*
X2115607Y238315D02*
X2109607Y238315D01*
X2109607Y258315D01*
X2115607Y258315D01*
X2115607Y238315D01*
G36*
X2102907Y238315D02*
X2096907Y238315D01*
X2096907Y258315D01*
X2102907Y258315D01*
X2102907Y238315D01*
G37*
G54D12*
X2102907Y238315D02*
X2096907Y238315D01*
X2096907Y258315D01*
X2102907Y258315D01*
X2102907Y238315D01*
G36*
X2090207Y238315D02*
X2084207Y238315D01*
X2084207Y258315D01*
X2090207Y258315D01*
X2090207Y238315D01*
G37*
G54D12*
X2090207Y238315D02*
X2084207Y238315D01*
X2084207Y258315D01*
X2090207Y258315D01*
X2090207Y238315D01*
G36*
X2077507Y238315D02*
X2071507Y238315D01*
X2071507Y258315D01*
X2077507Y258315D01*
X2077507Y238315D01*
G37*
G54D12*
X2077507Y238315D02*
X2071507Y238315D01*
X2071507Y258315D01*
X2077507Y258315D01*
X2077507Y238315D01*
G36*
X2064807Y238315D02*
X2058807Y238315D01*
X2058807Y258315D01*
X2064807Y258315D01*
X2064807Y238315D01*
G37*
G54D12*
X2064807Y238315D02*
X2058807Y238315D01*
X2058807Y258315D01*
X2064807Y258315D01*
X2064807Y238315D01*
G36*
X2052107Y238315D02*
X2046107Y238315D01*
X2046107Y258315D01*
X2052107Y258315D01*
X2052107Y238315D01*
G37*
G54D12*
X2052107Y238315D02*
X2046107Y238315D01*
X2046107Y258315D01*
X2052107Y258315D01*
X2052107Y238315D01*
G36*
X527440Y37786D02*
X550440Y37786D01*
X550440Y60786D01*
X527440Y60786D01*
X527440Y37786D01*
G37*
G54D12*
X527440Y37786D02*
X550440Y37786D01*
X550440Y60786D01*
X527440Y60786D01*
X527440Y37786D01*
G36*
X2131654Y174334D02*
X2147654Y174334D01*
X2147654Y192334D01*
X2131654Y192334D01*
X2131654Y174334D01*
G37*
G54D12*
X2131654Y174334D02*
X2147654Y174334D01*
X2147654Y192334D01*
X2131654Y192334D01*
X2131654Y174334D01*
G36*
X2103654Y174334D02*
X2119654Y174334D01*
X2119654Y192334D01*
X2103654Y192334D01*
X2103654Y174334D01*
G37*
G54D12*
X2103654Y174334D02*
X2119654Y174334D01*
X2119654Y192334D01*
X2103654Y192334D01*
X2103654Y174334D01*
G36*
X1520098Y185531D02*
X1536098Y185531D01*
X1536098Y203531D01*
X1520098Y203531D01*
X1520098Y185531D01*
G37*
G54D12*
X1520098Y185531D02*
X1536098Y185531D01*
X1536098Y203531D01*
X1520098Y203531D01*
X1520098Y185531D01*
G36*
X1492098Y185531D02*
X1508098Y185531D01*
X1508098Y203531D01*
X1492098Y203531D01*
X1492098Y185531D01*
G37*
G54D12*
X1492098Y185531D02*
X1508098Y185531D01*
X1508098Y203531D01*
X1492098Y203531D01*
X1492098Y185531D01*
G36*
X912644Y171401D02*
X928644Y171401D01*
X928644Y189401D01*
X912644Y189401D01*
X912644Y171401D01*
G37*
G54D12*
X912644Y171401D02*
X928644Y171401D01*
X928644Y189401D01*
X912644Y189401D01*
X912644Y171401D01*
G36*
X884644Y171401D02*
X900644Y171401D01*
X900644Y189401D01*
X884644Y189401D01*
X884644Y171401D01*
G37*
G54D12*
X884644Y171401D02*
X900644Y171401D01*
X900644Y189401D01*
X884644Y189401D01*
X884644Y171401D01*
G36*
X311316Y199019D02*
X327316Y199019D01*
X327316Y217019D01*
X311316Y217019D01*
X311316Y199019D01*
G37*
G54D12*
X311316Y199019D02*
X327316Y199019D01*
X327316Y217019D01*
X311316Y217019D01*
X311316Y199019D01*
G36*
X283316Y199019D02*
X299316Y199019D01*
X299316Y217019D01*
X283316Y217019D01*
X283316Y199019D01*
G37*
G54D12*
X283316Y199019D02*
X299316Y199019D01*
X299316Y217019D01*
X283316Y217019D01*
X283316Y199019D01*
G36*
X833731Y278013D02*
X839731Y278013D01*
X839731Y298013D01*
X833731Y298013D01*
X833731Y278013D01*
G37*
G54D12*
X833731Y278013D02*
X839731Y278013D01*
X839731Y298013D01*
X833731Y298013D01*
X833731Y278013D01*
G36*
X846431Y278013D02*
X852431Y278013D01*
X852431Y298013D01*
X846431Y298013D01*
X846431Y278013D01*
G37*
G54D12*
X846431Y278013D02*
X852431Y278013D01*
X852431Y298013D01*
X846431Y298013D01*
X846431Y278013D01*
G36*
X859131Y278013D02*
X865131Y278013D01*
X865131Y298013D01*
X859131Y298013D01*
X859131Y278013D01*
G37*
G54D12*
X859131Y278013D02*
X865131Y278013D01*
X865131Y298013D01*
X859131Y298013D01*
X859131Y278013D01*
G36*
X871831Y278013D02*
X877831Y278013D01*
X877831Y298013D01*
X871831Y298013D01*
X871831Y278013D01*
G37*
G54D12*
X871831Y278013D02*
X877831Y278013D01*
X877831Y298013D01*
X871831Y298013D01*
X871831Y278013D01*
G36*
X884531Y278013D02*
X890531Y278013D01*
X890531Y298013D01*
X884531Y298013D01*
X884531Y278013D01*
G37*
G54D12*
X884531Y278013D02*
X890531Y278013D01*
X890531Y298013D01*
X884531Y298013D01*
X884531Y278013D01*
G36*
X897231Y278013D02*
X903231Y278013D01*
X903231Y298013D01*
X897231Y298013D01*
X897231Y278013D01*
G37*
G54D12*
X897231Y278013D02*
X903231Y278013D01*
X903231Y298013D01*
X897231Y298013D01*
X897231Y278013D01*
G36*
X909931Y278013D02*
X915931Y278013D01*
X915931Y298013D01*
X909931Y298013D01*
X909931Y278013D01*
G37*
G54D12*
X909931Y278013D02*
X915931Y278013D01*
X915931Y298013D01*
X909931Y298013D01*
X909931Y278013D01*
G36*
X922631Y278013D02*
X928631Y278013D01*
X928631Y298013D01*
X922631Y298013D01*
X922631Y278013D01*
G37*
G54D12*
X922631Y278013D02*
X928631Y278013D01*
X928631Y298013D01*
X922631Y298013D01*
X922631Y278013D01*
G36*
X935331Y278013D02*
X941331Y278013D01*
X941331Y298013D01*
X935331Y298013D01*
X935331Y278013D01*
G37*
G54D12*
X935331Y278013D02*
X941331Y278013D01*
X941331Y298013D01*
X935331Y298013D01*
X935331Y278013D01*
G36*
X948031Y278013D02*
X954031Y278013D01*
X954031Y298013D01*
X948031Y298013D01*
X948031Y278013D01*
G37*
G54D12*
X948031Y278013D02*
X954031Y278013D01*
X954031Y298013D01*
X948031Y298013D01*
X948031Y278013D01*
G36*
X960731Y278013D02*
X966731Y278013D01*
X966731Y298013D01*
X960731Y298013D01*
X960731Y278013D01*
G37*
G54D12*
X960731Y278013D02*
X966731Y278013D01*
X966731Y298013D01*
X960731Y298013D01*
X960731Y278013D01*
G36*
X973431Y278013D02*
X979431Y278013D01*
X979431Y298013D01*
X973431Y298013D01*
X973431Y278013D01*
G37*
G54D12*
X973431Y278013D02*
X979431Y278013D01*
X979431Y298013D01*
X973431Y298013D01*
X973431Y278013D01*
G36*
X973431Y372013D02*
X979431Y372013D01*
X979431Y392013D01*
X973431Y392013D01*
X973431Y372013D01*
G37*
G54D12*
X973431Y372013D02*
X979431Y372013D01*
X979431Y392013D01*
X973431Y392013D01*
X973431Y372013D01*
G36*
X960731Y372013D02*
X966731Y372013D01*
X966731Y392013D01*
X960731Y392013D01*
X960731Y372013D01*
G37*
G54D12*
X960731Y372013D02*
X966731Y372013D01*
X966731Y392013D01*
X960731Y392013D01*
X960731Y372013D01*
G36*
X948031Y372013D02*
X954031Y372013D01*
X954031Y392013D01*
X948031Y392013D01*
X948031Y372013D01*
G37*
G54D12*
X948031Y372013D02*
X954031Y372013D01*
X954031Y392013D01*
X948031Y392013D01*
X948031Y372013D01*
G36*
X935331Y372013D02*
X941331Y372013D01*
X941331Y392013D01*
X935331Y392013D01*
X935331Y372013D01*
G37*
G54D12*
X935331Y372013D02*
X941331Y372013D01*
X941331Y392013D01*
X935331Y392013D01*
X935331Y372013D01*
G36*
X922631Y372013D02*
X928631Y372013D01*
X928631Y392013D01*
X922631Y392013D01*
X922631Y372013D01*
G37*
G54D12*
X922631Y372013D02*
X928631Y372013D01*
X928631Y392013D01*
X922631Y392013D01*
X922631Y372013D01*
G36*
X909931Y372013D02*
X915931Y372013D01*
X915931Y392013D01*
X909931Y392013D01*
X909931Y372013D01*
G37*
G54D12*
X909931Y372013D02*
X915931Y372013D01*
X915931Y392013D01*
X909931Y392013D01*
X909931Y372013D01*
G36*
X897231Y372013D02*
X903231Y372013D01*
X903231Y392013D01*
X897231Y392013D01*
X897231Y372013D01*
G37*
G54D12*
X897231Y372013D02*
X903231Y372013D01*
X903231Y392013D01*
X897231Y392013D01*
X897231Y372013D01*
G36*
X884531Y372013D02*
X890531Y372013D01*
X890531Y392013D01*
X884531Y392013D01*
X884531Y372013D01*
G37*
G54D12*
X884531Y372013D02*
X890531Y372013D01*
X890531Y392013D01*
X884531Y392013D01*
X884531Y372013D01*
G36*
X871831Y372013D02*
X877831Y372013D01*
X877831Y392013D01*
X871831Y392013D01*
X871831Y372013D01*
G37*
G54D12*
X871831Y372013D02*
X877831Y372013D01*
X877831Y392013D01*
X871831Y392013D01*
X871831Y372013D01*
G36*
X859131Y372013D02*
X865131Y372013D01*
X865131Y392013D01*
X859131Y392013D01*
X859131Y372013D01*
G37*
G54D12*
X859131Y372013D02*
X865131Y372013D01*
X865131Y392013D01*
X859131Y392013D01*
X859131Y372013D01*
G36*
X846431Y372013D02*
X852431Y372013D01*
X852431Y392013D01*
X846431Y392013D01*
X846431Y372013D01*
G37*
G54D12*
X846431Y372013D02*
X852431Y372013D01*
X852431Y392013D01*
X846431Y392013D01*
X846431Y372013D01*
G36*
X833731Y372013D02*
X839731Y372013D01*
X839731Y392013D01*
X833731Y392013D01*
X833731Y372013D01*
G37*
G54D12*
X833731Y372013D02*
X839731Y372013D01*
X839731Y392013D01*
X833731Y392013D01*
X833731Y372013D01*
G36*
X230197Y262125D02*
X236197Y262125D01*
X236197Y282125D01*
X230197Y282125D01*
X230197Y262125D01*
G37*
G54D12*
X230197Y262125D02*
X236197Y262125D01*
X236197Y282125D01*
X230197Y282125D01*
X230197Y262125D01*
G36*
X242897Y262125D02*
X248897Y262125D01*
X248897Y282125D01*
X242897Y282125D01*
X242897Y262125D01*
G37*
G54D12*
X242897Y262125D02*
X248897Y262125D01*
X248897Y282125D01*
X242897Y282125D01*
X242897Y262125D01*
G36*
X255597Y262125D02*
X261597Y262125D01*
X261597Y282125D01*
X255597Y282125D01*
X255597Y262125D01*
G37*
G54D12*
X255597Y262125D02*
X261597Y262125D01*
X261597Y282125D01*
X255597Y282125D01*
X255597Y262125D01*
G36*
X268297Y262125D02*
X274297Y262125D01*
X274297Y282125D01*
X268297Y282125D01*
X268297Y262125D01*
G37*
G54D12*
X268297Y262125D02*
X274297Y262125D01*
X274297Y282125D01*
X268297Y282125D01*
X268297Y262125D01*
G36*
X280997Y262125D02*
X286997Y262125D01*
X286997Y282125D01*
X280997Y282125D01*
X280997Y262125D01*
G37*
G54D12*
X280997Y262125D02*
X286997Y262125D01*
X286997Y282125D01*
X280997Y282125D01*
X280997Y262125D01*
G36*
X293697Y262125D02*
X299697Y262125D01*
X299697Y282125D01*
X293697Y282125D01*
X293697Y262125D01*
G37*
G54D12*
X293697Y262125D02*
X299697Y262125D01*
X299697Y282125D01*
X293697Y282125D01*
X293697Y262125D01*
G36*
X306397Y262125D02*
X312397Y262125D01*
X312397Y282125D01*
X306397Y282125D01*
X306397Y262125D01*
G37*
G54D12*
X306397Y262125D02*
X312397Y262125D01*
X312397Y282125D01*
X306397Y282125D01*
X306397Y262125D01*
G36*
X319097Y262125D02*
X325097Y262125D01*
X325097Y282125D01*
X319097Y282125D01*
X319097Y262125D01*
G37*
G54D12*
X319097Y262125D02*
X325097Y262125D01*
X325097Y282125D01*
X319097Y282125D01*
X319097Y262125D01*
G36*
X331797Y262125D02*
X337797Y262125D01*
X337797Y282125D01*
X331797Y282125D01*
X331797Y262125D01*
G37*
G54D12*
X331797Y262125D02*
X337797Y262125D01*
X337797Y282125D01*
X331797Y282125D01*
X331797Y262125D01*
G36*
X344497Y262125D02*
X350497Y262125D01*
X350497Y282125D01*
X344497Y282125D01*
X344497Y262125D01*
G37*
G54D12*
X344497Y262125D02*
X350497Y262125D01*
X350497Y282125D01*
X344497Y282125D01*
X344497Y262125D01*
G36*
X357197Y262125D02*
X363197Y262125D01*
X363197Y282125D01*
X357197Y282125D01*
X357197Y262125D01*
G37*
G54D12*
X357197Y262125D02*
X363197Y262125D01*
X363197Y282125D01*
X357197Y282125D01*
X357197Y262125D01*
G36*
X369897Y262125D02*
X375897Y262125D01*
X375897Y282125D01*
X369897Y282125D01*
X369897Y262125D01*
G37*
G54D12*
X369897Y262125D02*
X375897Y262125D01*
X375897Y282125D01*
X369897Y282125D01*
X369897Y262125D01*
G36*
X369897Y356125D02*
X375897Y356125D01*
X375897Y376125D01*
X369897Y376125D01*
X369897Y356125D01*
G37*
G54D12*
X369897Y356125D02*
X375897Y356125D01*
X375897Y376125D01*
X369897Y376125D01*
X369897Y356125D01*
G36*
X357197Y356125D02*
X363197Y356125D01*
X363197Y376125D01*
X357197Y376125D01*
X357197Y356125D01*
G37*
G54D12*
X357197Y356125D02*
X363197Y356125D01*
X363197Y376125D01*
X357197Y376125D01*
X357197Y356125D01*
G36*
X344497Y356125D02*
X350497Y356125D01*
X350497Y376125D01*
X344497Y376125D01*
X344497Y356125D01*
G37*
G54D12*
X344497Y356125D02*
X350497Y356125D01*
X350497Y376125D01*
X344497Y376125D01*
X344497Y356125D01*
G36*
X331797Y356125D02*
X337797Y356125D01*
X337797Y376125D01*
X331797Y376125D01*
X331797Y356125D01*
G37*
G54D12*
X331797Y356125D02*
X337797Y356125D01*
X337797Y376125D01*
X331797Y376125D01*
X331797Y356125D01*
G36*
X319097Y356125D02*
X325097Y356125D01*
X325097Y376125D01*
X319097Y376125D01*
X319097Y356125D01*
G37*
G54D12*
X319097Y356125D02*
X325097Y356125D01*
X325097Y376125D01*
X319097Y376125D01*
X319097Y356125D01*
G36*
X306397Y356125D02*
X312397Y356125D01*
X312397Y376125D01*
X306397Y376125D01*
X306397Y356125D01*
G37*
G54D12*
X306397Y356125D02*
X312397Y356125D01*
X312397Y376125D01*
X306397Y376125D01*
X306397Y356125D01*
G36*
X293697Y356125D02*
X299697Y356125D01*
X299697Y376125D01*
X293697Y376125D01*
X293697Y356125D01*
G37*
G54D12*
X293697Y356125D02*
X299697Y356125D01*
X299697Y376125D01*
X293697Y376125D01*
X293697Y356125D01*
G36*
X280997Y356125D02*
X286997Y356125D01*
X286997Y376125D01*
X280997Y376125D01*
X280997Y356125D01*
G37*
G54D12*
X280997Y356125D02*
X286997Y356125D01*
X286997Y376125D01*
X280997Y376125D01*
X280997Y356125D01*
G36*
X268297Y356125D02*
X274297Y356125D01*
X274297Y376125D01*
X268297Y376125D01*
X268297Y356125D01*
G37*
G54D12*
X268297Y356125D02*
X274297Y356125D01*
X274297Y376125D01*
X268297Y376125D01*
X268297Y356125D01*
G36*
X255597Y356125D02*
X261597Y356125D01*
X261597Y376125D01*
X255597Y376125D01*
X255597Y356125D01*
G37*
G54D12*
X255597Y356125D02*
X261597Y356125D01*
X261597Y376125D01*
X255597Y376125D01*
X255597Y356125D01*
G36*
X242897Y356125D02*
X248897Y356125D01*
X248897Y376125D01*
X242897Y376125D01*
X242897Y356125D01*
G37*
G54D12*
X242897Y356125D02*
X248897Y356125D01*
X248897Y376125D01*
X242897Y376125D01*
X242897Y356125D01*
G36*
X230197Y356125D02*
X236197Y356125D01*
X236197Y376125D01*
X230197Y376125D01*
X230197Y356125D01*
G37*
G54D12*
X230197Y356125D02*
X236197Y356125D01*
X236197Y376125D01*
X230197Y376125D01*
X230197Y356125D01*
G54D13*
X7183Y1666D02*
X7183Y603666D01*
X2407183Y603666D01*
X2407183Y1666D01*
X7183Y1666D01*
G54D14*
X287316Y217019D02*
X287316Y213019D01*
X291316Y208019D01*
G54D14*
G75*
G01X287316Y217019D02*
G03X286193Y219798I-4000J0D01*
G01*
G54D14*
X271102Y235415D02*
X286192Y219799D01*
G54D14*
X901650Y244581D02*
X907132Y246330D01*
X907148Y246279D01*
X907132Y246330D01*
G54D14*
G75*
G01X896147Y242899D02*
G03X907152Y246263I5503J1682D01*
G01*
G54D14*
X896137Y242933D02*
X896152Y242883D01*
G54D14*
G75*
G01X895668Y247333D02*
G03X896127Y242965I11464J-1003D01*
G01*
G54D14*
X897571Y267929D02*
X895673Y247389D01*
G54D14*
X1500098Y194531D02*
X1501853Y199531D01*
X1501853Y203531D01*
X1501853Y233966D01*
G54D14*
X896644Y189401D02*
X896644Y185401D01*
X892644Y180401D01*
X896644Y175401D01*
X896644Y171401D01*
G54D14*
G75*
G01X896718Y190164D02*
G03X896644Y189401I3926J-763D01*
G01*
G54D14*
X907294Y243461D02*
X896721Y190180D01*
G54D14*
G75*
G01X907298Y243483D02*
G03X907153Y246263I-5648J1098D01*
G01*
G54D14*
X2084410Y187051D02*
X2085843Y193831D01*
X2078540Y188292D01*
X2103654Y188292D01*
X2107654Y188292D01*
X2111654Y183334D01*
G54D14*
G75*
G01X2085706Y193727D02*
G03X2095495Y203180I-33599J44588D01*
G01*
G54D14*
X2100412Y209189D02*
X2095320Y202965D01*
G54D14*
G75*
G01X2100556Y209366D02*
G03X2106497Y218875I-35749J28949D01*
G01*
G54D14*
X2111034Y228556D02*
X2106461Y218796D01*
G54D14*
G75*
G01X2111052Y228595D02*
G03X2111378Y229328I-20845J9720D01*
G01*
G54D14*
X2111407Y229395D02*
X2111376Y229321D01*
G54D14*
G75*
G01X896644Y171401D02*
G03X897719Y168673I4000J0D01*
G01*
G54D14*
X919120Y145577D02*
X897710Y168682D01*
G54D14*
X276761Y237407D02*
X281108Y225060D01*
X268917Y229827D01*
G54D14*
X1507307Y231466D02*
X1501853Y219566D01*
X1496399Y231466D01*
G54D14*
X2085843Y193831D02*
X2078928Y194279D01*
G54D14*
X913420Y143704D02*
X909332Y156139D01*
X921422Y151118D01*
G54D14*
X2081040Y193746D02*
X2092940Y188292D01*
X2081040Y182838D01*
G54D15*
X2043063Y267314D02*
X1884737Y213766D01*
X1879737Y213766D01*
G54D15*
G75*
G01X2046107Y267815D02*
G03X2043014Y267297I0J-9500D01*
G01*
G54D15*
X2126307Y267815D02*
X2046107Y267815D01*
G54D15*
G75*
G01X2130171Y266994D02*
G03X2126307Y267815I-3864J-8679D01*
G01*
G54D15*
X2131787Y266289D02*
X2130107Y267022D01*
G54D15*
G75*
G01X2137007Y258315D02*
G03X2131846Y266263I-8700J0D01*
G01*
G54D15*
X2138007Y248315D02*
X2137007Y256315D01*
X2137007Y258315D01*
G54D15*
X2040958Y278674D02*
X1884737Y239166D01*
X1879737Y239166D01*
G54D15*
G75*
G01X2046107Y279315D02*
G03X2041027Y278691I0J-21000D01*
G01*
G54D15*
X2128307Y279315D02*
X2046107Y279315D01*
G54D15*
G75*
G01X2138488Y276682D02*
G03X2128307Y279315I-10181J-18367D01*
G01*
G54D15*
X2157920Y265927D02*
X2138476Y276689D01*
G54D15*
G75*
G01X2162407Y258315D02*
G03X2157925Y265924I-8700J0D01*
G01*
G54D15*
X2163407Y248315D02*
X2162407Y256315D01*
X2162407Y258315D01*
G54D15*
X1862242Y330336D02*
X1874737Y340766D01*
X1879737Y340766D01*
G54D15*
G75*
G01X1862203Y330303D02*
G03X1855738Y319752I12534J-14937D01*
G01*
G54D15*
X1844542Y271584D02*
X1855743Y319780D01*
G54D15*
G75*
G01X1844532Y271539D02*
G03X1843737Y264566I30205J-6973D01*
G01*
G54D15*
X1843737Y213766D02*
X1843737Y264566D01*
G54D15*
G75*
G01X1843737Y213766D02*
G03X1874737Y182766I31000J0D01*
G01*
G54D15*
X1884737Y182766D02*
X1874737Y182766D01*
G54D15*
G75*
G01X1884737Y182766D02*
G03X1886359Y182808I0J31000D01*
G01*
G54D15*
X2014953Y190470D02*
X1886581Y182821D01*
G54D15*
G75*
G01X2014731Y190458D02*
G03X2027183Y193794I-1622J30957D01*
G01*
G54D15*
X2064980Y213061D02*
X2027187Y193796D01*
G54D15*
G75*
G01X2064976Y213059D02*
G03X2065415Y213287I-12869J25256D01*
G01*
G54D15*
X2065317Y213235D02*
X2065212Y213180D01*
G54D15*
G75*
G01X2065521Y213343D02*
G03X2068902Y215455I-13414J25228D01*
G01*
G54D15*
X2077053Y221333D02*
X2068820Y215395D01*
G54D15*
G75*
G01X2077114Y221377D02*
G03X2084933Y232544I-12307J16938D01*
G01*
G54D15*
X2085890Y235987D02*
X2084981Y232713D01*
G54D15*
G75*
G01X2085870Y235917D02*
G03X2086207Y238315I-8363J2398D01*
G01*
G54D15*
X2087207Y248315D02*
X2086207Y240315D01*
X2086207Y238315D01*
G54D15*
X2053853Y230390D02*
X2013109Y221415D01*
G54D15*
G75*
G01X2053794Y230377D02*
G03X2055917Y231150I-1687J7938D01*
G01*
G54D15*
X2055964Y231174D02*
X2055859Y231119D01*
G54D15*
G75*
G01X2056023Y231205D02*
G03X2059895Y235582I-3916J7366D01*
G01*
G54D15*
X2060673Y237594D02*
X2059888Y235565D01*
G54D15*
G75*
G01X2060674Y237598D02*
G03X2060807Y238315I-1867J717D01*
G01*
G54D15*
X2061807Y248315D02*
X2060807Y240315D01*
X2060807Y238315D01*
G54D15*
X2302987Y344350D02*
X2338737Y340766D01*
X2343737Y340766D01*
G54D15*
G75*
G01X2303080Y344340D02*
G03X2282718Y331616I-2038J-19393D01*
G01*
G54D15*
X2257416Y262297D02*
X2282724Y331633D01*
G54D15*
X1862242Y355736D02*
X1874737Y366166D01*
X1879737Y366166D01*
G54D15*
G75*
G01X1862203Y355703D02*
G03X1857363Y349618I12534J-14937D01*
G01*
G54D15*
X1847096Y329401D02*
X1857350Y349595D01*
G54D15*
G75*
G01X1847116Y329440D02*
G03X1844532Y322339I27621J-14074D01*
G01*
G54D15*
X1833340Y274187D02*
X1844542Y322384D01*
G54D15*
G75*
G01X1833326Y274126D02*
G03X1832237Y264566I41411J-9560D01*
G01*
G54D15*
X1832237Y213766D02*
X1832237Y264566D01*
G54D15*
G75*
G01X1832237Y213766D02*
G03X1874737Y171266I42500J0D01*
G01*
G54D15*
X1884737Y171266D02*
X1874737Y171266D01*
G54D15*
G75*
G01X1884737Y171266D02*
G03X1886961Y171324I0J42500D01*
G01*
G54D15*
X2015637Y178990D02*
X1887265Y171341D01*
G54D15*
G75*
G01X2015333Y178973D02*
G03X2033714Y184244I-2224J42442D01*
G01*
G54D15*
X2069787Y204152D02*
X2033644Y184205D01*
G54D15*
G75*
G01X2070036Y204287D02*
G03X2069758Y204136I8504J-15995D01*
G01*
G54D15*
G75*
G01X2090796Y238571D02*
G03X2090796Y238571I-38689J0D01*
G01*
G54D15*
X2080265Y209833D02*
X2070562Y204567D01*
G54D15*
G75*
G01X2080021Y209702D02*
G03X2093933Y224109I-15214J28613D01*
G01*
G54D15*
X2096367Y229080D02*
X2093911Y224064D01*
G54D15*
G75*
G01X2096382Y229109D02*
G03X2097883Y233235I-18875J9206D01*
G01*
G54D15*
X2098633Y236149D02*
X2097846Y233086D01*
G54D15*
G75*
G01X2098648Y236210D02*
G03X2098907Y238315I-8441J2105D01*
G01*
G54D15*
X2099907Y248315D02*
X2098907Y240315D01*
X2098907Y238315D01*
G54D15*
X2151753Y237418D02*
X2154489Y211041D01*
G54D15*
G75*
G01X2151707Y238315D02*
G03X2151755Y237406I8700J0D01*
G01*
G54D15*
X2150707Y248315D02*
X2151707Y240315D01*
X2151707Y238315D01*
G54D15*
X2301979Y273404D02*
X2338737Y289966D01*
X2343737Y289966D01*
G54D15*
X2307853Y254810D02*
X2338737Y264566D01*
X2343737Y264566D01*
G54D15*
G75*
G01X2306696Y254483D02*
G03X2308005Y254858I-4717J18921D01*
G01*
G54D15*
X2262132Y243376D02*
X2306695Y254483D01*
G54D15*
G75*
G01X2249797Y244347D02*
G03X2262134Y243376I7619J17950D01*
G01*
G54D15*
X2195474Y267079D02*
X2249889Y244308D01*
G54D15*
G75*
G01X2195519Y267060D02*
G03X2191807Y267815I-3712J-8745D01*
G01*
G54D15*
X2187807Y267815D02*
X2191807Y267815D01*
G54D15*
G75*
G01X2187807Y267815D02*
G03X2183943Y266994I0J-9500D01*
G01*
G54D15*
X2182327Y266289D02*
X2184007Y267022D01*
G54D15*
G75*
G01X2182269Y266263D02*
G03X2177107Y258315I3538J-7948D01*
G01*
G54D15*
X2176107Y248315D02*
X2177107Y256315D01*
X2177107Y258315D01*
G54D15*
X1862242Y279536D02*
X1874737Y289966D01*
X1879737Y289966D01*
G54D15*
G75*
G01X1862203Y279503D02*
G03X1855238Y264566I12534J-14937D01*
G01*
G54D15*
X1855237Y213766D02*
X1855237Y264566D01*
G54D15*
G75*
G01X1855237Y213766D02*
G03X1874737Y194266I19500J0D01*
G01*
G54D15*
X1884737Y194266D02*
X1874737Y194266D01*
G54D15*
G75*
G01X1884737Y194266D02*
G03X1885758Y194293I0J19500D01*
G01*
G54D15*
X2014269Y201950D02*
X1885897Y194301D01*
G54D15*
G75*
G01X2014130Y201942D02*
G03X2021350Y203742I-1021J19473D01*
G01*
G54D15*
X2059852Y221811D02*
X2021393Y203762D01*
G54D15*
G75*
G01X2059812Y221792D02*
G03X2060666Y222218I-7705J16523D01*
G01*
G54D15*
X2060640Y222204D02*
X2060535Y222149D01*
G54D15*
G75*
G01X2060772Y222274D02*
G03X2066037Y226461I-8665J16297D01*
G01*
G54D15*
X2071377Y232612D02*
X2066045Y226470D01*
G54D15*
G75*
G01X2071373Y232607D02*
G03X2073507Y238315I-6566J5708D01*
G01*
G54D15*
X2074507Y248315D02*
X2073507Y240315D01*
X2073507Y238315D01*
G54D15*
X1466315Y148872D02*
X1281554Y213766D01*
X1276554Y213766D01*
G54D15*
G75*
G01X1466428Y148832D02*
G03X1481018Y149597I6349J18438D01*
G01*
G54D15*
X1540085Y176908D02*
X1480961Y149570D01*
G54D15*
G75*
G01X1540113Y176921D02*
G03X1545598Y185531I-4015J8610D01*
G01*
G54D15*
X1545598Y203531D02*
X1545598Y185531D01*
G54D15*
G75*
G01X1545598Y203531D02*
G03X1545454Y205181I-9500J0D01*
G01*
G54D15*
X1535960Y257395D02*
X1545445Y205230D01*
G54D15*
G75*
G01X1535820Y258951D02*
G03X1535952Y257440I8700J0D01*
G01*
G54D15*
X1534820Y268951D02*
X1535820Y260951D01*
X1535820Y258951D01*
G54D15*
X1259059Y228736D02*
X1271554Y239166D01*
X1276554Y239166D01*
G54D15*
G75*
G01X1259020Y228703D02*
G03X1266179Y195022I12534J-14937D01*
G01*
G54D15*
X1464127Y137501D02*
X1266113Y195041D01*
G54D15*
G75*
G01X1464232Y137471D02*
G03X1485878Y139174I8545J29799D01*
G01*
G54D15*
X1544911Y166470D02*
X1485787Y139132D01*
G54D15*
G75*
G01X1544973Y166499D02*
G03X1557085Y184798I-8875J19032D01*
G01*
G54D15*
X1559216Y258700D02*
X1557089Y184926D01*
G54D15*
G75*
G01X1559215Y258647D02*
G03X1559220Y258951I-8695J304D01*
G01*
G54D15*
X1560220Y268951D02*
X1559220Y260951D01*
X1559220Y258951D01*
G54D15*
X1466206Y299444D02*
X1281554Y340766D01*
X1276554Y340766D01*
G54D15*
G75*
G01X1481996Y284031D02*
G03X1466344Y299413I-20376J-5080D01*
G01*
G54D15*
X1482746Y281117D02*
X1481959Y284180D01*
G54D15*
G75*
G01X1483020Y278951D02*
G03X1482762Y281056I-8700J0D01*
G01*
G54D15*
X1484020Y268951D02*
X1483020Y276951D01*
X1483020Y278951D01*
G54D15*
X1459731Y257564D02*
X1468540Y203020D01*
G54D15*
G75*
G01X1459620Y258951D02*
G03X1459727Y257590I8700J0D01*
G01*
G54D15*
X1458620Y268951D02*
X1459620Y260951D01*
X1459620Y258951D01*
G54D15*
X1695163Y341213D02*
X1735554Y340766D01*
X1740554Y340766D01*
G54D15*
X1470848Y310113D02*
X1281554Y366166D01*
X1276554Y366166D01*
G54D15*
G75*
G01X1491075Y292686D02*
G03X1470578Y310192I-29455J-13735D01*
G01*
G54D15*
X1493336Y287862D02*
X1491049Y292741D01*
G54D15*
G75*
G01X1494696Y284031D02*
G03X1493352Y287826I-20376J-5080D01*
G01*
G54D15*
X1495446Y281117D02*
X1494659Y284180D01*
G54D15*
G75*
G01X1495720Y278951D02*
G03X1495462Y281056I-8700J0D01*
G01*
G54D15*
X1496720Y268951D02*
X1495720Y276951D01*
X1495720Y278951D01*
G54D15*
X1599238Y293306D02*
X1635267Y269916D01*
G54D15*
G75*
G01X1599240Y293304D02*
G03X1588620Y296450I-10620J-16353D01*
G01*
G54D15*
X1582620Y296451D02*
X1588620Y296451D01*
G54D15*
G75*
G01X1582620Y296451D02*
G03X1576635Y295396I0J-17500D01*
G01*
G54D15*
X1555972Y287879D02*
X1576637Y295397D01*
G54D15*
G75*
G01X1555971Y287878D02*
G03X1555356Y287630I3249J-8927D01*
G01*
G54D15*
X1553740Y286925D02*
X1555420Y287658D01*
G54D15*
G75*
G01X1553682Y286899D02*
G03X1548520Y278951I3538J-7948D01*
G01*
G54D15*
X1547520Y268951D02*
X1548520Y276951D01*
X1548520Y278951D01*
G54D15*
X1695781Y300024D02*
X1735554Y289966D01*
X1740554Y289966D01*
G54D15*
X1758049Y254136D02*
X1745554Y264566D01*
X1740554Y264566D01*
G54D15*
G75*
G01X1765054Y239166D02*
G03X1758088Y254104I-19500J0D01*
G01*
G54D15*
X1765054Y213766D02*
X1765054Y239166D01*
G54D15*
G75*
G01X1745554Y194266D02*
G03X1765054Y213766I0J19500D01*
G01*
G54D15*
X1735554Y194266D02*
X1745554Y194266D01*
G54D15*
G75*
G01X1726100Y196711D02*
G03X1735554Y194266I9454J17055D01*
G01*
G54D15*
X1625741Y252901D02*
X1726028Y196751D01*
G54D15*
G75*
G01X1621006Y256617D02*
G03X1625813Y252861I14261J13299D01*
G01*
G54D15*
X1595512Y283489D02*
X1621120Y256495D01*
G54D15*
G75*
G01X1595568Y283430D02*
G03X1593226Y285260I-6948J-6479D01*
G01*
G54D15*
X1592372Y285732D02*
X1593219Y285264D01*
G54D15*
G75*
G01X1592377Y285729D02*
G03X1588620Y286701I-3757J-6778D01*
G01*
G54D15*
X1582620Y286701D02*
X1588620Y286701D01*
G54D15*
G75*
G01X1582620Y286701D02*
G03X1575977Y282943I0J-7750D01*
G01*
G54D15*
X1574204Y279978D02*
X1575969Y282929D01*
G54D15*
G75*
G01X1574206Y279981D02*
G03X1573920Y278951I1714J-1030D01*
G01*
G54D15*
X1572920Y268951D02*
X1573920Y276951D01*
X1573920Y278951D01*
G54D15*
X1459701Y288451D02*
X1281554Y289966D01*
X1276554Y289966D01*
G54D15*
G75*
G01X1463484Y287630D02*
G03X1459620Y288451I-3864J-8679D01*
G01*
G54D15*
X1465100Y286925D02*
X1463420Y287658D01*
G54D15*
G75*
G01X1470320Y278951D02*
G03X1465159Y286899I-8700J0D01*
G01*
G54D15*
X1471320Y268951D02*
X1470320Y276951D01*
X1470320Y278951D01*
G54D15*
X927627Y273971D02*
X957867Y216342D01*
G54D15*
G75*
G01X926631Y278013D02*
G03X927649Y273929I8700J0D01*
G01*
G54D15*
X925631Y288013D02*
X926631Y280013D01*
X926631Y278013D01*
G54D15*
X729728Y217555D02*
X678364Y213766D01*
X673364Y213766D01*
G54D15*
X954846Y271606D02*
X973334Y254624D01*
G54D15*
G75*
G01X952031Y278013D02*
G03X954798Y271650I8700J0D01*
G01*
G54D15*
X951031Y288013D02*
X952031Y280013D01*
X952031Y278013D01*
G54D15*
X783208Y247291D02*
X678364Y239166D01*
X673364Y239166D01*
G54D15*
X655869Y330336D02*
X668364Y340766D01*
X673364Y340766D01*
G54D15*
G75*
G01X655830Y330303D02*
G03X649365Y319752I12534J-14937D01*
G01*
G54D15*
X638169Y271584D02*
X649370Y319780D01*
G54D15*
G75*
G01X638158Y271539D02*
G03X637364Y264566I30206J-6973D01*
G01*
G54D15*
X637364Y213766D02*
X637364Y264566D01*
G54D15*
G75*
G01X637364Y213766D02*
G03X668364Y182766I31000J0D01*
G01*
G54D15*
X678364Y182766D02*
X668364Y182766D01*
G54D15*
G75*
G01X678364Y182766D02*
G03X680526Y182842I0J31000D01*
G01*
G54D15*
X732009Y186639D02*
X680645Y182850D01*
G54D15*
G75*
G01X731890Y186630D02*
G03X744757Y190442I-2162J30925D01*
G01*
G54D15*
X798273Y220197D02*
X744793Y190461D01*
G54D15*
G75*
G01X798238Y220177D02*
G03X800092Y221291I-15030J27114D01*
G01*
G54D15*
X859928Y260440D02*
X800180Y221350D01*
G54D15*
G75*
G01X859868Y260401D02*
G03X865202Y265375I-11437J17612D01*
G01*
G54D15*
X868350Y269570D02*
X865228Y265408D01*
G54D15*
G75*
G01X870711Y272439D02*
G03X868400Y269636I30939J-27858D01*
G01*
G54D15*
G75*
G01X870986Y272742D02*
G03X871662Y273608I-5855J5271D01*
G01*
G54D15*
X872599Y275004D02*
X871674Y273625D01*
G54D15*
G75*
G01X872586Y274985D02*
G03X873730Y277384I-7455J5028D01*
G01*
G54D15*
X873744Y277429D02*
X873731Y277387D01*
G54D15*
G75*
G01X873744Y277428D02*
G03X873831Y278013I-1913J585D01*
G01*
G54D15*
X874831Y288013D02*
X873831Y280013D01*
X873831Y278013D01*
G54D15*
X971397Y330449D02*
X1011884Y332988D01*
X1011941Y332991D01*
X1132364Y340766D01*
X1137364Y340766D01*
G54D15*
G75*
G01X971164Y330434D02*
G03X966674Y329803I2267J-32421D01*
G01*
G54D15*
X859185Y307312D02*
X966775Y329824D01*
G54D15*
G75*
G01X859156Y307305D02*
G03X857267Y306692I1975J-9292D01*
G01*
G54D15*
X855651Y305987D02*
X857331Y306720D01*
G54D15*
G75*
G01X855592Y305961D02*
G03X850431Y298013I3539J-7948D01*
G01*
G54D15*
X849431Y288013D02*
X850431Y296013D01*
X850431Y298013D01*
G54D15*
X655869Y355736D02*
X668364Y366166D01*
X673364Y366166D01*
G54D15*
G75*
G01X655830Y355703D02*
G03X650990Y349618I12534J-14937D01*
G01*
G54D15*
X640723Y329401D02*
X650977Y349595D01*
G54D15*
G75*
G01X640743Y329440D02*
G03X638158Y322339I27621J-14074D01*
G01*
G54D15*
X626967Y274187D02*
X638169Y322384D01*
G54D15*
G75*
G01X626953Y274126D02*
G03X625864Y264566I41411J-9560D01*
G01*
G54D15*
X625864Y213766D02*
X625864Y264566D01*
G54D15*
G75*
G01X625864Y213766D02*
G03X668364Y171266I42500J0D01*
G01*
G54D15*
X678364Y171266D02*
X668364Y171266D01*
G54D15*
G75*
G01X678364Y171266D02*
G03X681329Y171370I0J42500D01*
G01*
G54D15*
X732855Y175170D02*
X681491Y171381D01*
G54D15*
G75*
G01X732693Y175158D02*
G03X750332Y180384I-2965J42397D01*
G01*
G54D15*
X803861Y210147D02*
X750381Y180411D01*
G54D15*
G75*
G01X803812Y210120D02*
G03X806974Y212057I-20604J37171D01*
G01*
G54D15*
X864650Y251100D02*
X807032Y212097D01*
G54D15*
G75*
G01X864605Y251069D02*
G03X869412Y255032I-18174J26944D01*
G01*
G54D15*
X870305Y255915D02*
X869295Y254915D01*
G54D15*
G75*
G01X870417Y256027D02*
G03X874799Y261536I-21986J21986D01*
G01*
G54D15*
G75*
G01X878807Y266641D02*
G03X874719Y261409I22843J-22060D01*
G01*
G54D15*
X878859Y266694D02*
X878858Y266694D01*
G54D15*
G75*
G01X878890Y266726D02*
G03X879345Y267215I-13759J13287D01*
G01*
G54D15*
X884037Y272426D02*
X879347Y267216D01*
G54D15*
G75*
G01X884036Y272426D02*
G03X885726Y275294I-6205J5587D01*
G01*
G54D15*
X886347Y277127D02*
X885739Y275333D01*
G54D15*
G75*
G01X886333Y277086D02*
G03X886430Y277384I-8502J2927D01*
G01*
G54D15*
X886444Y277429D02*
X886431Y277387D01*
G54D15*
G75*
G01X886444Y277428D02*
G03X886531Y278013I-1913J585D01*
G01*
G54D15*
X887531Y288013D02*
X886531Y280013D01*
X886531Y278013D01*
G54D15*
X983400Y318635D02*
X1132364Y289966D01*
X1137364Y289966D01*
G54D15*
G75*
G01X983438Y318627D02*
G03X979431Y319013I-4007J-20614D01*
G01*
G54D15*
X973431Y319013D02*
X979431Y319013D01*
G54D15*
G75*
G01X973431Y319013D02*
G03X963250Y316380I0J-21000D01*
G01*
G54D15*
X943818Y305625D02*
X963262Y316387D01*
G54D15*
G75*
G01X943813Y305622D02*
G03X939331Y298013I4218J-7609D01*
G01*
G54D15*
X938331Y288013D02*
X939331Y296013D01*
X939331Y298013D01*
G54D15*
X982020Y307153D02*
X1132364Y264566D01*
X1137364Y264566D01*
G54D15*
G75*
G01X982050Y307145D02*
G03X979431Y307513I-2619J-9132D01*
G01*
G54D15*
X975431Y307513D02*
X979431Y307513D01*
G54D15*
G75*
G01X975431Y307513D02*
G03X971567Y306692I0J-9500D01*
G01*
G54D15*
X969951Y305987D02*
X971631Y306720D01*
G54D15*
G75*
G01X969892Y305961D02*
G03X964731Y298013I3539J-7948D01*
G01*
G54D15*
X963731Y288013D02*
X964731Y296013D01*
X964731Y298013D01*
G54D15*
X655869Y279536D02*
X668364Y289966D01*
X673364Y289966D01*
G54D15*
G75*
G01X655830Y279503D02*
G03X648865Y264566I12534J-14937D01*
G01*
G54D15*
X648864Y213766D02*
X648864Y264566D01*
G54D15*
G75*
G01X648864Y213766D02*
G03X668364Y194266I19500J0D01*
G01*
G54D15*
X678364Y194266D02*
X668364Y194266D01*
G54D15*
G75*
G01X678364Y194266D02*
G03X679724Y194314I0J19500D01*
G01*
G54D15*
X731163Y198108D02*
X679799Y194319D01*
G54D15*
G75*
G01X731088Y198102D02*
G03X739182Y200500I-1360J19453D01*
G01*
G54D15*
X792684Y230248D02*
X739204Y200512D01*
G54D15*
G75*
G01X792662Y230236D02*
G03X793828Y230937I-9454J17055D01*
G01*
G54D15*
X856704Y271368D02*
X793755Y230889D01*
G54D15*
G75*
G01X856734Y271388D02*
G03X859056Y273710I-4303J6625D01*
G01*
G54D15*
X859964Y275103D02*
X859050Y273700D01*
G54D15*
G75*
G01X859972Y275116D02*
G03X861030Y277384I-7541J4897D01*
G01*
G54D15*
X861044Y277429D02*
X861031Y277387D01*
G54D15*
G75*
G01X861044Y277428D02*
G03X861131Y278013I-1913J585D01*
G01*
G54D15*
X862131Y288013D02*
X861131Y280013D01*
X861131Y278013D01*
G54D15*
X278535Y147879D02*
X74834Y213766D01*
X69834Y213766D01*
G54D15*
G75*
G01X278510Y147887D02*
G03X299027Y153385I6026J18546D01*
G01*
G54D15*
X334377Y192664D02*
X299030Y153388D01*
G54D15*
G75*
G01X334376Y192662D02*
G03X336816Y199019I-7060J6357D01*
G01*
G54D15*
X336816Y217019D02*
X336816Y199019D01*
G54D15*
G75*
G01X336816Y217019D02*
G03X336351Y219955I-9500J0D01*
G01*
G54D15*
X323523Y259437D02*
X336351Y219955D01*
G54D15*
G75*
G01X323097Y262125D02*
G03X323523Y259437I8700J0D01*
G01*
G54D15*
X322097Y272125D02*
X323097Y264125D01*
X323097Y262125D01*
G54D15*
X52339Y228736D02*
X64834Y239166D01*
X69834Y239166D01*
G54D15*
G75*
G01X52300Y228703D02*
G03X59787Y194931I12534J-14937D01*
G01*
G54D15*
X276465Y136502D02*
X59757Y194938D01*
G54D15*
G75*
G01X276513Y136489D02*
G03X307574Y145690I8023J29944D01*
G01*
G54D15*
X342925Y184971D02*
X307578Y145695D01*
G54D15*
G75*
G01X342922Y184967D02*
G03X348316Y199019I-15606J14052D01*
G01*
G54D15*
X347497Y272125D02*
X348316Y264125D01*
X348316Y262125D01*
X348316Y199019D01*
G54D15*
X117790Y329016D02*
X74834Y340766D01*
X69834Y340766D01*
G54D15*
G75*
G01X126906Y323505D02*
G03X117692Y329042I-14261J-13298D01*
G01*
G54D15*
X154962Y293448D02*
X126900Y323512D01*
G54D15*
G75*
G01X154952Y293458D02*
G03X191214Y286737I22672J21142D01*
G01*
G54D15*
X221125Y301064D02*
X191016Y286642D01*
G54D15*
G75*
G01X230197Y303125D02*
G03X220991Y301000I0J-21000D01*
G01*
G54D15*
X248897Y303125D02*
X230197Y303125D01*
G54D15*
G75*
G01X269273Y287205D02*
G03X248897Y303125I-20376J-5080D01*
G01*
G54D15*
X270023Y284291D02*
X269236Y287354D01*
G54D15*
G75*
G01X270297Y282125D02*
G03X270039Y284230I-8700J0D01*
G01*
G54D15*
X271297Y272125D02*
X270297Y280125D01*
X270297Y282125D01*
G54D15*
X434347Y304864D02*
X528834Y340766D01*
X533834Y340766D01*
G54D15*
X244889Y261760D02*
X242611Y207475D01*
G54D15*
G75*
G01X244892Y261821D02*
G03X244897Y262125I-8695J304D01*
G01*
G54D15*
X245897Y272125D02*
X244897Y264125D01*
X244897Y262125D01*
G54D15*
X127499Y337417D02*
X74834Y366166D01*
X69834Y366166D01*
G54D15*
G75*
G01X135317Y331349D02*
G03X127674Y337320I-22672J-21142D01*
G01*
G54D15*
X163369Y301295D02*
X135307Y331359D01*
G54D15*
G75*
G01X163363Y301302D02*
G03X186172Y297074I14261J13298D01*
G01*
G54D15*
X216157Y311436D02*
X186048Y297013D01*
G54D15*
G75*
G01X230197Y314625D02*
G03X215950Y311336I0J-32500D01*
G01*
G54D15*
X248897Y314625D02*
X230197Y314625D01*
G54D15*
G75*
G01X278352Y295860D02*
G03X248897Y314625I-29455J-13735D01*
G01*
G54D15*
X280613Y291036D02*
X278326Y295915D01*
G54D15*
G75*
G01X281973Y287205D02*
G03X280629Y291000I-20376J-5080D01*
G01*
G54D15*
X282723Y284291D02*
X281936Y287354D01*
G54D15*
G75*
G01X282997Y282125D02*
G03X282739Y284230I-8700J0D01*
G01*
G54D15*
X283997Y272125D02*
X282997Y280125D01*
X282997Y282125D01*
G54D15*
X439703Y274330D02*
X528834Y289966D01*
X533834Y289966D01*
G54D15*
G75*
G01X416566Y279470D02*
G03X439730Y274335I17781J25394D01*
G01*
G54D15*
X387867Y299379D02*
X416677Y279393D01*
G54D15*
G75*
G01X387942Y299327D02*
G03X375897Y303125I-12045J-17202D01*
G01*
G54D15*
X369897Y303125D02*
X375897Y303125D01*
G54D15*
G75*
G01X369897Y303125D02*
G03X359716Y300492I0J-21000D01*
G01*
G54D15*
X340284Y289737D02*
X359728Y300499D01*
G54D15*
G75*
G01X340279Y289734D02*
G03X335797Y282125I4218J-7609D01*
G01*
G54D15*
X334797Y272125D02*
X335797Y280125D01*
X335797Y282125D01*
G54D15*
X435342Y262376D02*
X528834Y264566D01*
X533834Y264566D01*
G54D15*
G75*
G01X409970Y270050D02*
G03X435089Y262370I24377J34814D01*
G01*
G54D15*
X381312Y289931D02*
X410122Y269944D01*
G54D15*
G75*
G01X381346Y289907D02*
G03X375897Y291625I-5449J-7782D01*
G01*
G54D15*
X371897Y291625D02*
X375897Y291625D01*
G54D15*
G75*
G01X371897Y291625D02*
G03X368033Y290804I0J-9500D01*
G01*
G54D15*
X366417Y290099D02*
X368097Y290832D01*
G54D15*
G75*
G01X366358Y290073D02*
G03X361197Y282125I3539J-7948D01*
G01*
G54D15*
X360197Y272125D02*
X361197Y280125D01*
X361197Y282125D01*
G54D15*
X170075Y272776D02*
X74834Y289966D01*
X69834Y289966D01*
G54D15*
G75*
G01X170244Y272746D02*
G03X196255Y276401I7380J41854D01*
G01*
G54D15*
X226093Y290693D02*
X195984Y276270D01*
G54D15*
G75*
G01X230197Y291625D02*
G03X226032Y290664I0J-9500D01*
G01*
G54D15*
X246897Y291625D02*
X230197Y291625D01*
G54D15*
G75*
G01X250761Y290804D02*
G03X246897Y291625I-3864J-8679D01*
G01*
G54D15*
X252377Y290099D02*
X250697Y290832D01*
G54D15*
G75*
G01X257597Y282125D02*
G03X252436Y290073I-8700J0D01*
G01*
G54D15*
X258597Y272125D02*
X257597Y280125D01*
X257597Y282125D01*
G54D15*
X2133654Y192334D02*
X2133654Y190334D01*
X2139654Y183334D01*
G54D15*
G75*
G01X2133654Y192334D02*
G03X2133630Y192647I-2000J0D01*
G01*
G54D15*
X2126420Y236917D02*
X2133628Y192655D01*
G54D15*
G75*
G01X2126307Y238315D02*
G03X2126414Y236954I8700J0D01*
G01*
G54D15*
X2125307Y248315D02*
X2126307Y240315D01*
X2126307Y238315D01*
G54D15*
X1522120Y268951D02*
X1523120Y260951D01*
X1523120Y258951D01*
X1523120Y203531D01*
X1523120Y201531D01*
X1528098Y194531D01*
G54D15*
X920804Y246539D02*
X926644Y189401D01*
X926644Y187401D01*
X920644Y180401D01*
G54D15*
G75*
G01X920799Y246594D02*
G03X920411Y248912I-19149J-2013D01*
G01*
G54D15*
X914153Y276059D02*
X920412Y248906D01*
G54D15*
G75*
G01X913931Y278013D02*
G03X914154Y276056I8700J0D01*
G01*
G54D15*
X912931Y288013D02*
X913931Y280013D01*
X913931Y278013D01*
G54D15*
X311316Y215019D02*
X313316Y215019D01*
X319316Y208019D01*
G54D15*
G75*
G01X309316Y217019D02*
G03X311316Y215019I2000J0D01*
G01*
G54D15*
X309397Y272125D02*
X309316Y264125D01*
X309316Y262125D01*
X309316Y217019D01*
G54D15*
X282147Y408424D02*
X281091Y396518D01*
X290116Y407717D01*
G54D15*
G75*
G01X281140Y396578D02*
G03X276942Y389860I25257J-20453D01*
G01*
G54D15*
X274681Y385036D02*
X276968Y389915D01*
G54D15*
G75*
G01X274665Y385000D02*
G03X273321Y381205I19032J-8875D01*
G01*
G54D15*
X272571Y378291D02*
X273358Y381354D01*
G54D15*
G75*
G01X272555Y378230D02*
G03X272297Y376125I8442J-2105D01*
G01*
G54D15*
X271297Y366125D02*
X272297Y374125D01*
X272297Y376125D01*
G54D15*
X2155146Y363196D02*
X2165509Y380302D01*
G54D15*
G75*
G01X2155106Y363131D02*
G03X2152731Y357395I18001J-10816D01*
G01*
G54D15*
X2151981Y354481D02*
X2152768Y357544D01*
G54D15*
G75*
G01X2151966Y354420D02*
G03X2151707Y352315I8441J-2105D01*
G01*
G54D15*
X2150707Y342315D02*
X2151707Y350315D01*
X2151707Y352315D01*
G54D15*
X937710Y419207D02*
X937710Y392013D01*
X937710Y390013D01*
X938331Y382013D01*
G54D15*
X873761Y393113D02*
X870060Y422143D01*
G54D15*
G75*
G01X873831Y392013D02*
G03X873766Y393073I-8700J0D01*
G01*
G54D15*
X874831Y382013D02*
X873831Y390013D01*
X873831Y392013D01*
G54D15*
X343407Y391963D02*
X358637Y405224D01*
G54D15*
G75*
G01X343420Y391974D02*
G03X336821Y381205I13777J-15849D01*
G01*
G54D15*
X336071Y378291D02*
X336858Y381354D01*
G54D15*
G75*
G01X336055Y378230D02*
G03X335797Y376125I8442J-2105D01*
G01*
G54D15*
X334797Y366125D02*
X335797Y374125D01*
X335797Y376125D01*
G54D15*
X1544383Y378662D02*
X1517909Y409089D01*
G54D15*
G75*
G01X1546520Y372951D02*
G03X1544386Y378659I-8700J0D01*
G01*
G54D15*
X1547520Y362951D02*
X1546520Y370951D01*
X1546520Y372951D01*
G54D15*
X1481964Y377106D02*
X1469997Y399121D01*
G54D15*
G75*
G01X1483020Y372951D02*
G03X1481929Y377169I-8700J0D01*
G01*
G54D15*
X1484020Y362951D02*
X1483020Y370951D01*
X1483020Y372951D01*
G54D15*
X2088211Y352567D02*
X2089049Y381483D01*
G54D15*
G75*
G01X2088212Y352619D02*
G03X2088207Y352315I8695J-304D01*
G01*
G54D15*
X2087207Y342315D02*
X2088207Y350315D01*
X2088207Y352315D01*
G54D15*
X2045920Y334306D02*
X2000487Y330046D01*
G54D15*
G75*
G01X2046107Y334315D02*
G03X2045933Y334307I0J-2000D01*
G01*
G54D15*
X2049107Y342315D02*
X2048107Y334315D01*
X2046107Y334315D01*
G54D15*
X1446920Y258951D02*
X1446920Y260951D01*
X1445920Y268951D01*
G54D15*
G75*
G01X1446920Y258951D02*
G03X1446929Y258438I14700J0D01*
G01*
G54D15*
X1449054Y202283D02*
X1446931Y258395D01*
G54D15*
G75*
G01X1449052Y202339D02*
G03X1453602Y190486I19488J681D01*
G01*
G54D15*
X1472777Y167270D02*
X1453505Y190602D01*
G54D15*
X1445920Y362951D02*
X1444920Y364094D01*
X1442920Y364094D01*
X1400070Y364094D01*
G54D15*
X837731Y298013D02*
X837731Y296013D01*
X836731Y288013D01*
G54D15*
G75*
G01X837989Y300118D02*
G03X837731Y298013I8442J-2105D01*
G01*
G54D15*
X838792Y303242D02*
X838005Y300179D01*
G54D15*
G75*
G01X854765Y318554D02*
G03X838755Y303093I4366J-20541D01*
G01*
G54D15*
X964577Y341113D02*
X854905Y318583D01*
G54D15*
G75*
G01X970362Y341906D02*
G03X964283Y341052I3069J-43893D01*
G01*
G54D15*
X1011164Y344465D02*
X970678Y341927D01*
G54D15*
G75*
G01X1011304Y344474D02*
G03X1018185Y346254I-1360J19453D01*
G01*
G54D15*
X1071193Y370830D02*
X1018146Y346236D01*
G54D15*
X552941Y200304D02*
X496100Y140738D01*
G54D15*
G75*
G01X552861Y200220D02*
G03X556209Y204913I-14027J13546D01*
G01*
G54D15*
X576728Y245324D02*
X556221Y204937D01*
G54D15*
G75*
G01X576702Y245271D02*
G03X577033Y245935I-37868J19295D01*
G01*
G54D15*
X650775Y399985D02*
X577168Y246216D01*
G54D15*
G75*
G01X668364Y411066D02*
G03X650838Y400114I0J-19500D01*
G01*
G54D15*
X678364Y411066D02*
X668364Y411066D01*
G54D15*
G75*
G01X681078Y410876D02*
G03X678364Y411066I-2714J-19310D01*
G01*
G54D15*
X833460Y390031D02*
X681007Y410886D01*
G54D15*
G75*
G01X833453Y390032D02*
G03X833731Y390013I278J1981D01*
G01*
G54D15*
X836731Y382013D02*
X835731Y390013D01*
X833731Y390013D01*
G54D15*
X232197Y262125D02*
X232197Y264125D01*
X233197Y272125D01*
G54D15*
G75*
G01X232167Y261778D02*
G03X232197Y262125I-1970J347D01*
G01*
G54D15*
X223393Y210781D02*
X232168Y261786D01*
G54D15*
G75*
G01X223407Y210861D02*
G03X234370Y189802I19204J-3386D01*
G01*
G54D15*
X284536Y166433D02*
X234377Y189799D01*
G54D15*
X178192Y354849D02*
X177624Y314600D01*
G54D15*
G75*
G01X197690Y374074D02*
G03X178193Y354914I0J-19500D01*
G01*
G54D15*
X233197Y366125D02*
X232197Y374074D01*
X230197Y374074D01*
X197690Y374074D01*
G54D15*
X2161582Y399402D02*
X2210554Y409472D01*
G54D15*
G75*
G01X2161455Y399376D02*
G03X2146588Y385020I4054J-19074D01*
G01*
G54D15*
X2139430Y355815D02*
X2146570Y384944D01*
G54D15*
G75*
G01X2139444Y355871D02*
G03X2139007Y352315I14263J-3556D01*
G01*
G54D15*
X2138007Y342315D02*
X2139007Y350315D01*
X2139007Y352315D01*
G54D15*
X2301042Y324947D02*
X2338737Y315366D01*
X2343737Y315366D01*
G54D15*
X2361232Y249596D02*
X2348737Y239166D01*
X2343737Y239166D01*
G54D15*
G75*
G01X2361271Y249629D02*
G03X2368236Y264566I-12534J14937D01*
G01*
G54D15*
X2368237Y391566D02*
X2368237Y264566D01*
G54D15*
G75*
G01X2368237Y391566D02*
G03X2352791Y410640I-19500J0D01*
G01*
G54D15*
X2217061Y439781D02*
X2352830Y410632D01*
G54D15*
G75*
G01X2216999Y439795D02*
G03X2199444Y438413I-6445J-30323D01*
G01*
G54D15*
X2150589Y420097D02*
X2199671Y438499D01*
G54D15*
G75*
G01X2150278Y419979D02*
G03X2129467Y402824I15231J-39677D01*
G01*
G54D15*
X2104571Y363560D02*
X2129616Y403060D01*
G54D15*
G75*
G01X2104498Y363443D02*
G03X2101931Y357395I17809J-11128D01*
G01*
G54D15*
X2101181Y354481D02*
X2101968Y357544D01*
G54D15*
G75*
G01X2101166Y354420D02*
G03X2100907Y352315I8441J-2105D01*
G01*
G54D15*
X2099907Y342315D02*
X2100907Y350315D01*
X2100907Y352315D01*
G54D15*
X2215715Y371773D02*
X2338737Y366166D01*
X2343737Y366166D01*
G54D15*
G75*
G01X2215848Y371766D02*
G03X2209780Y371129I-1021J-19473D01*
G01*
G54D15*
X2172720Y361510D02*
X2209928Y371168D01*
G54D15*
G75*
G01X2172648Y361491D02*
G03X2171243Y360994I2459J-9176D01*
G01*
G54D15*
X2169627Y360289D02*
X2171307Y361022D01*
G54D15*
G75*
G01X2169568Y360263D02*
G03X2164407Y352315I3539J-7948D01*
G01*
G54D15*
X2163407Y342315D02*
X2164407Y350315D01*
X2164407Y352315D01*
G54D15*
X2361232Y224196D02*
X2348737Y213766D01*
X2343737Y213766D01*
G54D15*
G75*
G01X2361271Y224229D02*
G03X2366111Y230314I-12534J14937D01*
G01*
G54D15*
X2376378Y250531D02*
X2366124Y230337D01*
G54D15*
G75*
G01X2376358Y250492D02*
G03X2379737Y264566I-27621J14074D01*
G01*
G54D15*
X2379737Y391566D02*
X2379737Y264566D01*
G54D15*
G75*
G01X2379737Y391566D02*
G03X2355182Y421889I-31000J0D01*
G01*
G54D15*
X2219475Y451025D02*
X2355244Y421875D01*
G54D15*
G75*
G01X2219390Y451043D02*
G03X2195323Y449149I-8836J-41571D01*
G01*
G54D15*
X2146552Y430865D02*
X2195634Y449267D01*
G54D15*
G75*
G01X2146157Y430715D02*
G03X2141837Y428837I19352J-50413D01*
G01*
G54D15*
X2080521Y399019D02*
X2141893Y428864D01*
G54D15*
G75*
G01X2080501Y399009D02*
G03X2069739Y378769I8548J-17526D01*
G01*
G54D15*
X2073416Y353571D02*
X2069753Y378667D01*
G54D15*
G75*
G01X2073507Y352315D02*
G03X2073422Y353526I-8700J0D01*
G01*
G54D15*
X2074507Y342315D02*
X2073507Y350315D01*
X2073507Y352315D01*
G54D15*
X1999673Y310563D02*
X1884737Y315366D01*
X1879737Y315366D01*
G54D15*
G75*
G01X1999806Y310558D02*
G03X2002525Y310653I681J19488D01*
G01*
G54D15*
X2114636Y322871D02*
X2002600Y310661D01*
G54D15*
G75*
G01X2114600Y322867D02*
G03X2117471Y323636I-993J9448D01*
G01*
G54D15*
X2119087Y324341D02*
X2117407Y323608D01*
G54D15*
G75*
G01X2119146Y324367D02*
G03X2124307Y332315I-3539J7948D01*
G01*
G54D15*
X2125307Y342315D02*
X2124307Y334315D01*
X2124307Y332315D01*
G54D15*
X2216131Y428158D02*
X2338737Y391566D01*
X2343737Y391566D01*
G54D15*
G75*
G01X2216255Y428120D02*
G03X2203566Y427677I-5701J-18648D01*
G01*
G54D15*
X2154626Y409329D02*
X2203708Y427731D01*
G54D15*
G75*
G01X2154400Y409243D02*
G03X2138937Y396268I11109J-28941D01*
G01*
G54D15*
X2114880Y356847D02*
X2139047Y396450D01*
G54D15*
G75*
G01X2114849Y356796D02*
G03X2113606Y352315I7458J-4481D01*
G01*
G54D15*
X2112607Y342315D02*
X2113607Y350315D01*
X2113607Y352315D01*
G54D15*
X2119739Y311725D02*
X1884737Y264566D01*
X1879737Y264566D01*
G54D15*
G75*
G01X2119614Y311701D02*
G03X2120687Y311939I-4007J20614D01*
G01*
G54D15*
X2166646Y323083D02*
X2120556Y311906D01*
G54D15*
G75*
G01X2166705Y323097D02*
G03X2168271Y323636I-2298J9218D01*
G01*
G54D15*
X2169887Y324341D02*
X2168207Y323608D01*
G54D15*
G75*
G01X2169946Y324367D02*
G03X2175107Y332315I-3539J7948D01*
G01*
G54D15*
X2176107Y342315D02*
X2175107Y334315D01*
X2175107Y332315D01*
G54D15*
X2051781Y361666D02*
X1884737Y391566D01*
X1879737Y391566D01*
G54D15*
G75*
G01X2053971Y360994D02*
G03X2051757Y361671I-3864J-8679D01*
G01*
G54D15*
X2055587Y360289D02*
X2053907Y361022D01*
G54D15*
G75*
G01X2060807Y352315D02*
G03X2055646Y360263I-8700J0D01*
G01*
G54D15*
X2061807Y342315D02*
X2060807Y350315D01*
X2060807Y352315D01*
G54D15*
X1692240Y321933D02*
X1735554Y315366D01*
X1740554Y315366D01*
G54D15*
G75*
G01X1686008Y323996D02*
G03X1692113Y321953I9155J17217D01*
G01*
G54D15*
X1640168Y348367D02*
X1686009Y323995D01*
G54D15*
G75*
G01X1640169Y348366D02*
G03X1623082Y348963I-9155J-17217D01*
G01*
G54D15*
X1596559Y337140D02*
X1623075Y348960D01*
G54D15*
G75*
G01X1588620Y335451D02*
G03X1596551Y337137I0J19500D01*
G01*
G54D15*
X1582620Y335451D02*
X1588620Y335451D01*
G54D15*
G75*
G01X1582620Y335451D02*
G03X1573469Y334731I0J-58500D01*
G01*
G54D15*
G75*
G01X1565431Y334948D02*
G03X1572822Y334625I4489J18003D01*
G01*
G54D15*
X1565061Y335038D02*
X1565522Y334926D01*
G54D15*
G75*
G01X1561911Y336082D02*
G03X1564961Y335062I8009J18869D01*
G01*
G54D15*
X1541040Y344977D02*
X1542720Y344244D01*
X1542803Y344209D01*
X1561899Y336088D01*
G54D15*
G75*
G01X1535820Y352951D02*
G03X1540981Y345003I8700J0D01*
G01*
G54D15*
X1534820Y362951D02*
X1535820Y354951D01*
X1535820Y352951D01*
G54D15*
X1652708Y295545D02*
X1735554Y239166D01*
X1740554Y239166D01*
G54D15*
G75*
G01X1652602Y295617D02*
G03X1644847Y299400I-17335J-25701D01*
G01*
G54D15*
X1600892Y313970D02*
X1645021Y299341D01*
G54D15*
G75*
G01X1600672Y314042D02*
G03X1588620Y315951I-12052J-37091D01*
G01*
G54D15*
X1582620Y315951D02*
X1588620Y315951D01*
G54D15*
G75*
G01X1582620Y315951D02*
G03X1576195Y315389I0J-37000D01*
G01*
G54D15*
X1576362Y315418D02*
X1576361Y315418D01*
G54D15*
G75*
G01X1569920Y314869D02*
G03X1576533Y315448I0J38082D01*
G01*
G54D15*
G75*
G01X1560904Y315896D02*
G03X1569920Y314869I9016J39055D01*
G01*
G54D15*
X1537314Y321260D02*
X1561033Y315867D01*
G54D15*
G75*
G01X1529765Y323993D02*
G03X1537209Y321284I14755J28958D01*
G01*
G54D15*
X1509612Y334227D02*
X1529805Y323973D01*
G54D15*
G75*
G01X1498744Y347871D02*
G03X1509586Y334240I20376J5080D01*
G01*
G54D15*
X1497994Y350785D02*
X1498781Y347722D01*
G54D15*
G75*
G01X1497720Y352951D02*
G03X1497978Y350846I8700J0D01*
G01*
G54D15*
X1496720Y362951D02*
X1497720Y354951D01*
X1497720Y352951D01*
G54D15*
X1685275Y362015D02*
X1735554Y366166D01*
X1740554Y366166D01*
G54D15*
G75*
G01X1683671Y361949D02*
G03X1685371Y362023I0J19500D01*
G01*
G54D15*
X1631132Y362149D02*
X1683597Y361949D01*
G54D15*
G75*
G01X1631014Y362149D02*
G03X1616940Y358770I0J-31000D01*
G01*
G54D15*
X1592158Y346056D02*
X1616863Y358731D01*
G54D15*
G75*
G01X1588620Y345201D02*
G03X1592138Y346046I0J7750D01*
G01*
G54D15*
X1582620Y345201D02*
X1588620Y345201D01*
G54D15*
G75*
G01X1582620Y345201D02*
G03X1573121Y344537I0J-68250D01*
G01*
G54D15*
X1573105Y344534D02*
X1573105Y344535D01*
G54D15*
G75*
G01X1572808Y344498D02*
G03X1573103Y344534I-888J8453D01*
G01*
G54D15*
X1570790Y344295D02*
X1572770Y344494D01*
G54D15*
G75*
G01X1561220Y352951D02*
G03X1570829Y344299I8700J0D01*
G01*
G54D15*
X1560220Y362951D02*
X1561220Y354951D01*
X1561220Y352951D01*
G54D15*
X1647542Y285068D02*
X1735554Y213766D01*
X1740554Y213766D01*
G54D15*
G75*
G01X1647539Y285070D02*
G03X1642255Y288121I-12272J-15154D01*
G01*
G54D15*
X1598866Y304348D02*
X1642097Y288181D01*
G54D15*
G75*
G01X1599102Y304258D02*
G03X1588620Y306201I-10482J-27307D01*
G01*
G54D15*
X1582620Y306201D02*
X1588620Y306201D01*
G54D15*
G75*
G01X1582620Y306201D02*
G03X1577888Y305787I0J-27250D01*
G01*
G54D15*
G75*
G01X1570755Y305126D02*
G03X1578226Y305846I-835J47825D01*
G01*
G54D15*
X1564516Y304963D02*
X1571160Y305135D01*
G54D15*
G75*
G01X1563220Y304946D02*
G03X1564093Y304954I0J50005D01*
G01*
G54D15*
G75*
G01X1553239Y305995D02*
G03X1563220Y304946I9981J46956D01*
G01*
G54D15*
X1535096Y309972D02*
X1552939Y306060D01*
G54D15*
G75*
G01X1524544Y313747D02*
G03X1535372Y309912I19976J39204D01*
G01*
G54D15*
X1504405Y323973D02*
X1524599Y313719D01*
G54D15*
G75*
G01X1498667Y327694D02*
G03X1504365Y323993I20453J25257D01*
G01*
G54D15*
X1475585Y346157D02*
X1498818Y327572D01*
G54D15*
G75*
G01X1472320Y352951D02*
G03X1475545Y346190I8700J0D01*
G01*
G54D15*
X1471320Y362951D02*
X1472320Y354951D01*
X1472320Y352951D01*
G54D15*
X1259059Y325796D02*
X1271554Y315366D01*
X1276554Y315366D01*
G54D15*
G75*
G01X1252054Y340766D02*
G03X1259020Y325828I19500J0D01*
G01*
G54D15*
X1252054Y391566D02*
X1252054Y340766D01*
G54D15*
G75*
G01X1270874Y411054D02*
G03X1252054Y391566I680J-19488D01*
G01*
G54D15*
X1469255Y418607D02*
X1270812Y411052D01*
G54D15*
G75*
G01X1483543Y413148D02*
G03X1469316Y418609I-13546J-14027D01*
G01*
G54D15*
X1518484Y379190D02*
X1483588Y413105D01*
G54D15*
G75*
G01X1521120Y372951D02*
G03X1518464Y379209I-8700J0D01*
G01*
G54D15*
X1522120Y362951D02*
X1521120Y370951D01*
X1521120Y372951D01*
G54D15*
X1592526Y325963D02*
X1631014Y331149D01*
G54D15*
G75*
G01X1588620Y325701D02*
G03X1592691Y325986I0J29250D01*
G01*
G54D15*
X1582620Y325701D02*
X1588620Y325701D01*
G54D15*
G75*
G01X1582620Y325701D02*
G03X1574502Y324991I0J-46750D01*
G01*
G54D15*
G75*
G01X1569920Y324619D02*
G03X1574840Y325049I0J28332D01*
G01*
G54D15*
G75*
G01X1561052Y325944D02*
G03X1569920Y324619I8868J29007D01*
G01*
G54D15*
X1538386Y332867D02*
X1561060Y325942D01*
G54D15*
G75*
G01X1534339Y334584D02*
G03X1538380Y332869I10181J18367D01*
G01*
G54D15*
X1514907Y345339D02*
X1534351Y334577D01*
G54D15*
G75*
G01X1510420Y352951D02*
G03X1514902Y345342I8700J0D01*
G01*
G54D15*
X1509420Y362951D02*
X1510420Y354951D01*
X1510420Y352951D01*
G54D15*
X1683671Y381449D02*
X1735554Y391566D01*
X1740554Y391566D01*
G54D15*
X1259059Y274996D02*
X1271554Y264566D01*
X1276554Y264566D01*
G54D15*
G75*
G01X1252554Y285579D02*
G03X1259020Y275028I19000J4387D01*
G01*
G54D15*
X1241359Y333748D02*
X1252560Y285552D01*
G54D15*
G75*
G01X1240554Y340766D02*
G03X1241348Y333793I31000J0D01*
G01*
G54D15*
X1240554Y391566D02*
X1240554Y340766D01*
G54D15*
G75*
G01X1270472Y422547D02*
G03X1240554Y391566I1082J-30981D01*
G01*
G54D15*
X1468818Y430099D02*
X1270375Y422544D01*
G54D15*
G75*
G01X1471079Y430102D02*
G03X1468915Y430102I-1082J-30981D01*
G01*
G54D15*
X1518535Y428579D02*
X1470992Y430105D01*
G54D15*
G75*
G01X1532626Y421882D02*
G03X1518590Y428577I-14717J-12793D01*
G01*
G54D15*
X1569817Y378623D02*
X1532696Y421801D01*
G54D15*
G75*
G01X1571920Y372951D02*
G03X1569786Y378659I-8700J0D01*
G01*
G54D15*
X1572920Y362951D02*
X1571920Y370951D01*
X1571920Y372951D01*
G54D15*
X1447442Y382437D02*
X1281554Y391566D01*
X1276554Y391566D01*
G54D15*
G75*
G01X1450784Y381630D02*
G03X1447417Y382438I-3864J-8679D01*
G01*
G54D15*
X1452400Y380925D02*
X1450720Y381658D01*
G54D15*
G75*
G01X1457620Y372951D02*
G03X1452459Y380899I-8700J0D01*
G01*
G54D15*
X1458620Y362951D02*
X1457620Y370951D01*
X1457620Y372951D01*
G54D15*
X945296Y437171D02*
X979717Y422636D01*
G54D15*
G75*
G01X945329Y437157D02*
G03X918874Y414160I-7619J-17950D01*
G01*
G54D15*
X924321Y394316D02*
X918905Y414046D01*
G54D15*
G75*
G01X924631Y392013D02*
G03X924335Y394265I-8700J0D01*
G01*
G54D15*
X925631Y382013D02*
X924631Y390013D01*
X924631Y392013D01*
G54D15*
X1093622Y318315D02*
X1132364Y315366D01*
X1137364Y315366D01*
G54D15*
X1154859Y249596D02*
X1142364Y239166D01*
X1137364Y239166D01*
G54D15*
G75*
G01X1154898Y249629D02*
G03X1161863Y264566I-12534J14937D01*
G01*
G54D15*
X1161864Y391566D02*
X1161864Y264566D01*
G54D15*
G75*
G01X1161864Y391566D02*
G03X1152114Y408454I-19500J0D01*
G01*
G54D15*
X1072915Y454319D02*
X1152136Y408441D01*
G54D15*
G75*
G01X1072866Y454347D02*
G03X1052358Y460035I-21250J-36806D01*
G01*
G54D15*
X938332Y461702D02*
X1052238Y460036D01*
G54D15*
G75*
G01X938452Y461701D02*
G03X896139Y428043I-742J-42494D01*
G01*
G54D15*
X888728Y393856D02*
X896174Y428210D01*
G54D15*
G75*
G01X888721Y393822D02*
G03X888531Y392013I8510J-1809D01*
G01*
G54D15*
X887531Y382013D02*
X888531Y390013D01*
X888531Y392013D01*
G54D15*
X1119869Y376596D02*
X1132364Y366166D01*
X1137364Y366166D01*
G54D15*
G75*
G01X1118575Y377777D02*
G03X1119830Y376628I13789J13789D01*
G01*
G54D15*
X1065454Y431280D02*
X1118526Y377827D01*
G54D15*
G75*
G01X1065405Y431330D02*
G03X1042162Y434596I-13789J-13789D01*
G01*
G54D15*
X989082Y405532D02*
X1042251Y434645D01*
G54D15*
G75*
G01X981417Y403210D02*
G03X989171Y405581I-1700J19426D01*
G01*
G54D15*
X961890Y401476D02*
X981442Y403212D01*
G54D15*
G75*
G01X961903Y401477D02*
G03X958867Y400692I828J-9464D01*
G01*
G54D15*
X957251Y399987D02*
X958931Y400720D01*
G54D15*
G75*
G01X957192Y399961D02*
G03X952031Y392013I3539J-7948D01*
G01*
G54D15*
X951031Y382013D02*
X952031Y390013D01*
X952031Y392013D01*
G54D15*
X1154859Y224196D02*
X1142364Y213766D01*
X1137364Y213766D01*
G54D15*
G75*
G01X1154898Y224229D02*
G03X1159738Y230314I-12534J14937D01*
G01*
G54D15*
X1170005Y250531D02*
X1159751Y230337D01*
G54D15*
G75*
G01X1169985Y250492D02*
G03X1173364Y264566I-27621J14074D01*
G01*
G54D15*
X1173364Y391566D02*
X1173364Y264566D01*
G54D15*
G75*
G01X1173364Y391566D02*
G03X1157864Y418413I-31000J0D01*
G01*
G54D15*
X1078678Y464271D02*
X1157899Y418392D01*
G54D15*
G75*
G01X1078616Y464306D02*
G03X1052558Y471533I-27000J-46765D01*
G01*
G54D15*
X938500Y473201D02*
X1052406Y471535D01*
G54D15*
G75*
G01X938652Y473199D02*
G03X912359Y466886I-942J-53992D01*
G01*
G54D15*
X860862Y439337D02*
X912238Y466822D01*
G54D15*
G75*
G01X860905Y439360D02*
G03X852246Y414212I9155J-17217D01*
G01*
G54D15*
X860406Y395489D02*
X852184Y414351D01*
G54D15*
G75*
G01X861131Y392013D02*
G03X860379Y395552I-8700J0D01*
G01*
G54D15*
X862131Y382013D02*
X861131Y390013D01*
X861131Y392013D01*
G54D15*
X903189Y362717D02*
X678364Y315366D01*
X673364Y315366D01*
G54D15*
G75*
G01X903206Y362721D02*
G03X905095Y363334I-1975J9292D01*
G01*
G54D15*
X906711Y364039D02*
X905031Y363306D01*
G54D15*
G75*
G01X906770Y364065D02*
G03X911931Y372013I-3539J7948D01*
G01*
G54D15*
X912931Y382013D02*
X911931Y374013D01*
X911931Y372013D01*
G54D15*
X1071238Y441541D02*
X1132364Y391566D01*
X1137364Y391566D01*
G54D15*
G75*
G01X1071125Y441632D02*
G03X1052157Y448536I-19509J-24091D01*
G01*
G54D15*
X938163Y450204D02*
X1052069Y448538D01*
G54D15*
G75*
G01X938251Y450202D02*
G03X907280Y425122I-541J-30995D01*
G01*
G54D15*
X901380Y393614D02*
X907239Y424912D01*
G54D15*
G75*
G01X901391Y393673D02*
G03X901231Y392013I8540J-1660D01*
G01*
G54D15*
X900231Y382013D02*
X901231Y390013D01*
X901231Y392013D01*
G54D15*
X847661Y328422D02*
X678364Y264566D01*
X673364Y264566D01*
G54D15*
G75*
G01X849088Y328922D02*
G03X847484Y328354I10043J-30909D01*
G01*
G54D15*
X954940Y362969D02*
X849180Y328952D01*
G54D15*
G75*
G01X954967Y362978D02*
G03X955895Y363334I-2936J9035D01*
G01*
G54D15*
X957511Y364039D02*
X955831Y363306D01*
G54D15*
G75*
G01X957570Y364065D02*
G03X962731Y372013I-3539J7948D01*
G01*
G54D15*
X963731Y382013D02*
X962731Y374013D01*
X962731Y372013D01*
G54D15*
X831975Y362677D02*
X678364Y391566D01*
X673364Y391566D01*
G54D15*
G75*
G01X831918Y362688D02*
G03X833731Y362513I1813J9325D01*
G01*
G54D15*
X837731Y362513D02*
X833731Y362513D01*
G54D15*
G75*
G01X837731Y362513D02*
G03X841595Y363334I0J9500D01*
G01*
G54D15*
X843211Y364039D02*
X841531Y363306D01*
G54D15*
G75*
G01X843270Y364065D02*
G03X848431Y372013I-3539J7948D01*
G01*
G54D15*
X849431Y382013D02*
X848431Y374013D01*
X848431Y372013D01*
G54D15*
X440431Y286337D02*
X528834Y315366D01*
X533834Y315366D01*
G54D15*
G75*
G01X423162Y288891D02*
G03X440373Y286318I11185J15973D01*
G01*
G54D15*
X394422Y308828D02*
X423232Y288842D01*
G54D15*
G75*
G01X394538Y308747D02*
G03X392636Y309983I-18641J-26622D01*
G01*
G54D15*
X327364Y348639D02*
X392458Y310089D01*
G54D15*
G75*
G01X323097Y356125D02*
G03X327316Y348668I8700J0D01*
G01*
G54D15*
X322097Y366125D02*
X323097Y358125D01*
X323097Y356125D01*
G54D15*
X551329Y249596D02*
X538834Y239166D01*
X533834Y239166D01*
G54D15*
G75*
G01X551368Y249629D02*
G03X558333Y264566I-12534J14937D01*
G01*
G54D15*
X558334Y391566D02*
X558334Y264566D01*
G54D15*
G75*
G01X558334Y391566D02*
G03X541548Y410876I-19500J0D01*
G01*
G54D15*
X362942Y435924D02*
X541542Y410877D01*
G54D15*
G75*
G01X362951Y435922D02*
G03X337495Y427896I-4314J-30698D01*
G01*
G54D15*
X302367Y394739D02*
X337358Y427767D01*
G54D15*
G75*
G01X297940Y391676D02*
G03X302288Y394665I-7824J16041D01*
G01*
G54D15*
X297900Y391658D02*
X297900Y391657D01*
G54D15*
G75*
G01X297856Y391636D02*
G03X293360Y388604I8541J-17511D01*
G01*
G54D15*
X290637Y386140D02*
X293326Y388573D01*
G54D15*
G75*
G01X290660Y386161D02*
G03X288911Y384252I9037J-10036D01*
G01*
G54D15*
X286730Y381335D02*
X288882Y384213D01*
G54D15*
G75*
G01X286749Y381361D02*
G03X284997Y376125I6948J-5236D01*
G01*
G54D15*
X283997Y366125D02*
X284997Y374125D01*
X284997Y376125D01*
G54D15*
X443205Y387846D02*
X528834Y366166D01*
X533834Y366166D01*
G54D15*
G75*
G01X443136Y387863D02*
G03X437738Y388430I-4717J-18921D01*
G01*
G54D15*
X358859Y385619D02*
X437724Y388430D01*
G54D15*
G75*
G01X358865Y385619D02*
G03X355333Y384804I332J-9494D01*
G01*
G54D15*
X353717Y384099D02*
X355397Y384832D01*
G54D15*
G75*
G01X353658Y384073D02*
G03X348497Y376125I3539J-7948D01*
G01*
G54D15*
X347497Y366125D02*
X348497Y374125D01*
X348497Y376125D01*
G54D15*
X551329Y224196D02*
X538834Y213766D01*
X533834Y213766D01*
G54D15*
G75*
G01X551368Y224229D02*
G03X556208Y230314I-12534J14937D01*
G01*
G54D15*
X566475Y250531D02*
X556221Y230337D01*
G54D15*
G75*
G01X566455Y250492D02*
G03X569834Y264566I-27621J14074D01*
G01*
G54D15*
X569834Y391566D02*
X569834Y264566D01*
G54D15*
G75*
G01X569834Y391566D02*
G03X543148Y422264I-31000J0D01*
G01*
G54D15*
X364539Y447312D02*
X543139Y422266D01*
G54D15*
G75*
G01X364552Y447310D02*
G03X345504Y445644I-5915J-42086D01*
G01*
G54D15*
X284247Y426313D02*
X345846Y445753D01*
G54D15*
G75*
G01X284090Y426263D02*
G03X271678Y414066I6026J-18546D01*
G01*
G54D15*
X260380Y380860D02*
X271655Y413998D01*
G54D15*
G75*
G01X260398Y380911D02*
G03X259597Y376125I13899J-4786D01*
G01*
G54D15*
X258597Y366125D02*
X259597Y374125D01*
X259597Y376125D01*
G54D15*
X112645Y310207D02*
X74834Y315366D01*
X69834Y315366D01*
G54D15*
X227860Y346917D02*
X197690Y354574D01*
G54D15*
G75*
G01X227899Y346907D02*
G03X230197Y346625I2298J9218D01*
G01*
G54D15*
X297697Y346625D02*
X230197Y346625D01*
G54D15*
G75*
G01X297697Y346625D02*
G03X301561Y347446I0J9500D01*
G01*
G54D15*
X303177Y348151D02*
X301497Y347418D01*
G54D15*
G75*
G01X303236Y348177D02*
G03X308397Y356125I-3539J7948D01*
G01*
G54D15*
X309397Y366125D02*
X308397Y358125D01*
X308397Y356125D01*
G54D15*
X362406Y424356D02*
X528834Y391566D01*
X533834Y391566D01*
G54D15*
G75*
G01X362358Y424366D02*
G03X345844Y419941I-3721J-19142D01*
G01*
G54D15*
X308434Y386948D02*
X345739Y419849D01*
G54D15*
G75*
G01X303117Y383266D02*
G03X308284Y386817I-13001J24451D01*
G01*
G54D15*
X302766Y383082D02*
X302929Y383167D01*
G54D15*
G75*
G01X302713Y383054D02*
G03X299968Y380626I3684J-6929D01*
G01*
G54D15*
X299024Y379273D02*
X299963Y380617D01*
G54D15*
G75*
G01X299031Y379283D02*
G03X297798Y376754I7366J-5158D01*
G01*
G54D15*
X297784Y376709D02*
X297797Y376751D01*
G54D15*
G75*
G01X297784Y376710D02*
G03X297697Y376125I1913J-585D01*
G01*
G54D15*
X296697Y366125D02*
X297697Y374125D01*
X297697Y376125D01*
G54D15*
X366214Y348243D02*
X403737Y330708D01*
G54D15*
G75*
G01X361197Y356125D02*
G03X366220Y348240I8700J0D01*
G01*
G54D15*
X360197Y366125D02*
X361197Y358125D01*
X361197Y356125D01*
G54D15*
X198772Y253690D02*
X74834Y264566D01*
X69834Y264566D01*
G54D15*
X234551Y385618D02*
X74834Y391566D01*
X69834Y391566D01*
G54D15*
G75*
G01X238061Y384804D02*
G03X234529Y385619I-3864J-8679D01*
G01*
G54D15*
X239677Y384099D02*
X237997Y384832D01*
G54D15*
G75*
G01X244897Y376125D02*
G03X239736Y384073I-8700J0D01*
G01*
G54D15*
X245897Y366125D02*
X244897Y374125D01*
X244897Y376125D01*
G54D15*
X438419Y368942D02*
X375897Y368942D01*
X373897Y368942D01*
X372897Y366125D01*
G54D15*
X1051616Y417541D02*
X1009944Y363927D01*
X980065Y373910D01*
G54D15*
X2191979Y350322D02*
X2214827Y352293D01*
G54D15*
G75*
G01X2191807Y350315D02*
G03X2191981Y350323I0J2000D01*
G01*
G54D15*
X2188807Y342315D02*
X2189807Y350315D01*
X2191807Y350315D01*
G54D15*
X1585620Y362951D02*
X1585335Y370951D01*
X1585335Y372951D01*
X1585335Y421691D01*
G54D15*
G75*
G01X980049Y373915D02*
G03X979431Y374013I-618J-1902D01*
G01*
G54D15*
X976431Y382013D02*
X977431Y374013D01*
X979431Y374013D01*
G54D15*
X1489485Y128192D02*
X1607900Y178821D01*
X1870863Y159905D01*
G54D15*
G75*
G01X1466862Y125184D02*
G03X1489383Y128149I5915J42086D01*
G01*
G54D15*
X933116Y131999D02*
X994121Y194885D01*
X1466578Y125225D01*
G54D15*
X492031Y121667D02*
X625779Y93129D01*
X921289Y126198D01*
G54D15*
G75*
G01X480527Y129003D02*
G03X492046Y121664I15573J11735D01*
G01*
G54D15*
X377484Y263342D02*
X480627Y128870D01*
G54D15*
G75*
G01X377494Y263329D02*
G03X375897Y264125I-1597J-1204D01*
G01*
G54D15*
X372897Y272125D02*
X373897Y264125D01*
X375897Y264125D01*
G54D15*
G75*
G01X921158Y126184D02*
G03X933147Y132031I-2038J19393D01*
G01*
G54D15*
G75*
G01X1870970Y159898D02*
G03X1874737Y159766I3767J53868D01*
G01*
G54D15*
X1884737Y159766D02*
X1874737Y159766D01*
G54D15*
G75*
G01X1884737Y159766D02*
G03X1885679Y159774I0J54000D01*
G01*
G54D15*
X2147837Y164836D02*
X1885779Y159776D01*
G54D15*
G75*
G01X2147820Y164835D02*
G03X2156192Y170170I-166J9499D01*
G01*
G54D15*
X2172003Y202467D02*
X2156187Y170157D01*
G54D15*
G75*
G01X2172016Y202493D02*
G03X2172162Y202800I-17527J8548D01*
G01*
G54D15*
X2186993Y234642D02*
X2172166Y202807D01*
G54D15*
G75*
G01X2186991Y234639D02*
G03X2187806Y238315I-7884J3676D01*
G01*
G54D15*
X2188807Y248315D02*
X2187807Y240315D01*
X2187807Y238315D01*
G54D15*
X992830Y255043D02*
X994121Y194885D01*
G54D15*
G75*
G01X992832Y254964D02*
G03X986383Y269116I-19498J-340D01*
G01*
G54D15*
X978098Y276522D02*
X986331Y269161D01*
G54D15*
G75*
G01X977431Y278013D02*
G03X978093Y276527I2000J0D01*
G01*
G54D15*
X976431Y288013D02*
X977431Y280013D01*
X977431Y278013D01*
G54D15*
X1586687Y258436D02*
X1607900Y178821D01*
G54D15*
G75*
G01X1586620Y258951D02*
G03X1586688Y258433I2000J0D01*
G01*
G54D15*
X1585620Y268951D02*
X1586620Y260951D01*
X1586620Y258951D01*
G54D15*
X899096Y276487D02*
X897571Y267929D01*
G54D15*
G75*
G01X899099Y276502D02*
G03X899231Y278013I-8568J1511D01*
G01*
G54D15*
X900231Y288013D02*
X899231Y280013D01*
X899231Y278013D01*
G54D15*
X292929Y255761D02*
X271102Y235415D01*
G54D15*
G75*
G01X292930Y255762D02*
G03X295697Y262125I-5933J6363D01*
G01*
G54D15*
X296697Y272125D02*
X295697Y264125D01*
X295697Y262125D01*
G54D15*
X1508420Y258951D02*
X1508420Y260951D01*
X1509420Y268951D01*
G54D15*
G75*
G01X1508124Y256699D02*
G03X1508420Y258951I-8404J2252D01*
G01*
G54D15*
X1501853Y233966D02*
X1508107Y256638D01*
G54D15*
X2111605Y238118D02*
X2111407Y229395D01*
G54D15*
G75*
G01X2111606Y238163D02*
G03X2111607Y238315I-8699J152D01*
G01*
G54D15*
X2112607Y248315D02*
X2111607Y240315D01*
X2111607Y238315D01*
G54D15*
X2015884Y228918D02*
X2027562Y224599D01*
X2018780Y215772D01*
G54D15*
X2252576Y268667D02*
X2262491Y276200D01*
X2265222Y264051D01*
G54D15*
X2147348Y214648D02*
X2152962Y225762D01*
X2160738Y216036D01*
G54D15*
X2303157Y281317D02*
X2315473Y279484D01*
X2308687Y269043D01*
G54D15*
X1461205Y206216D02*
X1466180Y217631D01*
X1474495Y208362D01*
G54D15*
X1699562Y347895D02*
X1709962Y341049D01*
X1699412Y334435D01*
G54D15*
X1627975Y266626D02*
X1622853Y277975D01*
X1635305Y277916D01*
G54D15*
X1701623Y305489D02*
X1710129Y296396D01*
X1698323Y292439D01*
G54D15*
X949898Y217044D02*
X950990Y229447D01*
X961818Y223298D01*
G54D15*
X725910Y210525D02*
X714968Y216466D01*
X724920Y223949D01*
G54D15*
X965596Y252592D02*
X962434Y264636D01*
X974702Y262506D01*
G54D15*
X779417Y240246D02*
X768452Y246147D01*
X778377Y253668D01*
G54D15*
X435998Y312692D02*
X448182Y310121D01*
X440780Y300108D01*
G54D15*
X236067Y212078D02*
X243232Y222262D01*
X249517Y211514D01*
G54D15*
X281091Y396518D02*
X292501Y400080D01*
G54D15*
X2169024Y373116D02*
X2157840Y367644D01*
X2157512Y380092D01*
G54D15*
X944441Y414883D02*
X937710Y404407D01*
X930979Y414883D01*
G54D15*
X877283Y418704D02*
X871932Y407462D01*
X863931Y417002D01*
G54D15*
X359796Y397308D02*
X347475Y395505D01*
X350956Y407460D01*
G54D15*
X1525825Y410245D02*
X1527624Y397924D01*
X1515671Y401409D01*
G54D15*
X1477975Y398536D02*
X1477065Y386118D01*
X1466149Y392108D01*
G54D15*
X2095652Y376965D02*
X2088620Y366689D01*
X2082196Y377355D01*
G54D15*
X2004164Y337151D02*
X2015222Y331428D01*
X2005420Y323749D01*
G54D15*
X1464834Y166318D02*
X1463352Y178681D01*
X1475212Y174890D01*
G54D15*
X1404394Y370825D02*
X1414870Y364094D01*
X1404394Y357363D01*
G54D15*
X1070101Y362905D02*
X1057766Y364605D01*
X1064439Y375117D01*
G54D15*
X494216Y148512D02*
X506317Y151445D01*
X503954Y139220D01*
G54D15*
X277774Y162158D02*
X271120Y172683D01*
X283458Y174360D01*
G54D15*
X170955Y319019D02*
X177833Y329399D01*
X184415Y318829D01*
G54D15*
X2207674Y402008D02*
X2196057Y406491D01*
X2204962Y415194D01*
G54D15*
X2306891Y330405D02*
X2315386Y321301D01*
X2303575Y317359D01*
G54D15*
X1627628Y323902D02*
X1616347Y329173D01*
X1625830Y337242D01*
G54D15*
X1686627Y388883D02*
X1698197Y384282D01*
X1689203Y375671D01*
G54D15*
X973115Y418118D02*
X966083Y428393D01*
X978351Y430518D01*
G54D15*
X1098445Y324698D02*
X1108379Y317192D01*
X1097423Y311276D01*
G54D15*
X107450Y304123D02*
X97981Y312208D01*
X109270Y317461D01*
G54D15*
X203537Y360034D02*
X212035Y350933D01*
X200225Y346986D01*
G54D15*
X396969Y326441D02*
X390329Y336974D01*
X402669Y338637D01*
G54D15*
X193876Y247363D02*
X184029Y254984D01*
X195052Y260773D01*
G54D15*
X434095Y362211D02*
X423619Y368942D01*
X434095Y375673D01*
G54D15*
X1007284Y371472D02*
X1019027Y375612D01*
X1017912Y363210D01*
G54D15*
X1054276Y409996D02*
X1042533Y405856D01*
X1043648Y418258D01*
G54D15*
X2211097Y345215D02*
X2200082Y351021D01*
X2209941Y358627D01*
G54D15*
X1592066Y417367D02*
X1585335Y406891D01*
X1578604Y417367D01*
G54D15*
X1003710Y358913D02*
X995907Y368617D01*
X1007976Y371681D01*
G54D15*
X620146Y87449D02*
X611305Y96217D01*
X622954Y100613D01*
G54D15*
X629327Y100299D02*
X640487Y94775D01*
X630825Y86921D01*
G54D15*
X895927Y269068D02*
X898413Y272655D01*
X899507Y268430D01*
G54D15*
X269676Y243286D02*
X281928Y245506D01*
X278854Y233440D01*
G54D15*
X1496515Y239925D02*
X1505789Y248233D01*
X1509491Y236345D01*
G54D15*
X2109608Y230269D02*
X2111516Y234194D01*
X2113244Y230187D01*
G54D16*
X1874737Y391566D02*
X1884737Y391566D01*
G54D16*
X1874737Y366166D02*
X1884737Y366166D01*
G54D16*
X1874737Y340766D02*
X1884737Y340766D01*
G54D16*
X1874737Y315366D02*
X1884737Y315366D01*
G54D16*
X1874737Y289966D02*
X1884737Y289966D01*
G54D16*
X1874737Y264566D02*
X1884737Y264566D01*
G54D16*
X1874737Y239166D02*
X1884737Y239166D01*
G54D16*
X1874737Y213766D02*
X1884737Y213766D01*
G54D16*
X2338737Y391566D02*
X2348737Y391566D01*
G54D16*
X2338737Y366166D02*
X2348737Y366166D01*
G54D16*
X2338737Y340766D02*
X2348737Y340766D01*
G54D16*
X2338737Y315366D02*
X2348737Y315366D01*
G54D16*
X2338737Y289966D02*
X2348737Y289966D01*
G54D16*
X2338737Y264566D02*
X2348737Y264566D01*
G54D16*
X2338737Y239166D02*
X2348737Y239166D01*
G54D16*
X2338737Y213766D02*
X2348737Y213766D01*
G54D16*
X1271554Y391566D02*
X1281554Y391566D01*
G54D16*
X1271554Y366166D02*
X1281554Y366166D01*
G54D16*
X1271554Y340766D02*
X1281554Y340766D01*
G54D16*
X1271554Y315366D02*
X1281554Y315366D01*
G54D16*
X1271554Y289966D02*
X1281554Y289966D01*
G54D16*
X1271554Y264566D02*
X1281554Y264566D01*
G54D16*
X1271554Y239166D02*
X1281554Y239166D01*
G54D16*
X1271554Y213766D02*
X1281554Y213766D01*
G54D16*
X1735554Y391566D02*
X1745554Y391566D01*
G54D16*
X1735554Y366166D02*
X1745554Y366166D01*
G54D16*
X1735554Y340766D02*
X1745554Y340766D01*
G54D16*
X1735554Y315366D02*
X1745554Y315366D01*
G54D16*
X1735554Y289966D02*
X1745554Y289966D01*
G54D16*
X1735554Y264566D02*
X1745554Y264566D01*
G54D16*
X1735554Y239166D02*
X1745554Y239166D01*
G54D16*
X1735554Y213766D02*
X1745554Y213766D01*
G54D16*
X668364Y391566D02*
X678364Y391566D01*
G54D16*
X668364Y366166D02*
X678364Y366166D01*
G54D16*
X668364Y340766D02*
X678364Y340766D01*
G54D16*
X668364Y315366D02*
X678364Y315366D01*
G54D16*
X668364Y289966D02*
X678364Y289966D01*
G54D16*
X668364Y264566D02*
X678364Y264566D01*
G54D16*
X668364Y239166D02*
X678364Y239166D01*
G54D16*
X668364Y213766D02*
X678364Y213766D01*
G54D16*
X1132364Y391566D02*
X1142364Y391566D01*
G54D16*
X1132364Y366166D02*
X1142364Y366166D01*
G54D16*
X1132364Y340766D02*
X1142364Y340766D01*
G54D16*
X1132364Y315366D02*
X1142364Y315366D01*
G54D16*
X1132364Y289966D02*
X1142364Y289966D01*
G54D16*
X1132364Y264566D02*
X1142364Y264566D01*
G54D16*
X1132364Y239166D02*
X1142364Y239166D01*
G54D16*
X1132364Y213766D02*
X1142364Y213766D01*
G54D16*
X64834Y391566D02*
X74834Y391566D01*
G54D16*
X64834Y366166D02*
X74834Y366166D01*
G54D16*
X64834Y340766D02*
X74834Y340766D01*
G54D16*
X64834Y315366D02*
X74834Y315366D01*
G54D16*
X64834Y289966D02*
X74834Y289966D01*
G54D16*
X64834Y264566D02*
X74834Y264566D01*
G54D16*
X64834Y239166D02*
X74834Y239166D01*
G54D16*
X64834Y213766D02*
X74834Y213766D01*
G54D16*
X528834Y391566D02*
X538834Y391566D01*
G54D16*
X528834Y366166D02*
X538834Y366166D01*
G54D16*
X528834Y340766D02*
X538834Y340766D01*
G54D16*
X528834Y315366D02*
X538834Y315366D01*
G54D16*
X528834Y289966D02*
X538834Y289966D01*
G54D16*
X528834Y264566D02*
X538834Y264566D01*
G54D16*
X528834Y239166D02*
X538834Y239166D01*
G54D16*
X528834Y213766D02*
X538834Y213766D01*
G54D12*
X2052107Y258315D02*
X2052107Y238315D01*
X2046107Y238315D01*
X2046107Y258315D01*
X2052107Y258315D01*
G54D12*
X2064807Y258315D02*
X2064807Y238315D01*
X2058807Y238315D01*
X2058807Y258315D01*
X2064807Y258315D01*
G54D12*
X2077507Y258315D02*
X2077507Y238315D01*
X2071507Y238315D01*
X2071507Y258315D01*
X2077507Y258315D01*
G54D12*
X2090207Y258315D02*
X2090207Y238315D01*
X2084207Y238315D01*
X2084207Y258315D01*
X2090207Y258315D01*
G54D12*
X2102907Y258315D02*
X2102907Y238315D01*
X2096907Y238315D01*
X2096907Y258315D01*
X2102907Y258315D01*
G54D12*
X2115607Y258315D02*
X2115607Y238315D01*
X2109607Y238315D01*
X2109607Y258315D01*
X2115607Y258315D01*
G54D12*
X2128307Y258315D02*
X2128307Y238315D01*
X2122307Y238315D01*
X2122307Y258315D01*
X2128307Y258315D01*
G54D12*
X2141007Y258315D02*
X2141007Y238315D01*
X2135007Y238315D01*
X2135007Y258315D01*
X2141007Y258315D01*
G54D12*
X2153707Y258315D02*
X2153707Y238315D01*
X2147707Y238315D01*
X2147707Y258315D01*
X2153707Y258315D01*
G54D12*
X2166407Y258315D02*
X2166407Y238315D01*
X2160407Y238315D01*
X2160407Y258315D01*
X2166407Y258315D01*
G54D12*
X2179107Y258315D02*
X2179107Y238315D01*
X2173107Y238315D01*
X2173107Y258315D01*
X2179107Y258315D01*
G54D12*
X2191807Y258315D02*
X2191807Y238315D01*
X2185807Y238315D01*
X2185807Y258315D01*
X2191807Y258315D01*
G54D12*
X2191807Y352315D02*
X2191807Y332315D01*
X2185807Y332315D01*
X2185807Y352315D01*
X2191807Y352315D01*
G54D12*
X2179107Y352315D02*
X2179107Y332315D01*
X2173107Y332315D01*
X2173107Y352315D01*
X2179107Y352315D01*
G54D12*
X2166407Y352315D02*
X2166407Y332315D01*
X2160407Y332315D01*
X2160407Y352315D01*
X2166407Y352315D01*
G54D12*
X2153707Y352315D02*
X2153707Y332315D01*
X2147707Y332315D01*
X2147707Y352315D01*
X2153707Y352315D01*
G54D12*
X2141007Y352315D02*
X2141007Y332315D01*
X2135007Y332315D01*
X2135007Y352315D01*
X2141007Y352315D01*
G54D12*
X2128307Y352315D02*
X2128307Y332315D01*
X2122307Y332315D01*
X2122307Y352315D01*
X2128307Y352315D01*
G54D12*
X2115607Y352315D02*
X2115607Y332315D01*
X2109607Y332315D01*
X2109607Y352315D01*
X2115607Y352315D01*
G54D12*
X2102907Y352315D02*
X2102907Y332315D01*
X2096907Y332315D01*
X2096907Y352315D01*
X2102907Y352315D01*
G54D12*
X2090207Y352315D02*
X2090207Y332315D01*
X2084207Y332315D01*
X2084207Y352315D01*
X2090207Y352315D01*
G54D12*
X2077507Y352315D02*
X2077507Y332315D01*
X2071507Y332315D01*
X2071507Y352315D01*
X2077507Y352315D01*
G54D12*
X2064807Y352315D02*
X2064807Y332315D01*
X2058807Y332315D01*
X2058807Y352315D01*
X2064807Y352315D01*
G54D12*
X2052107Y352315D02*
X2052107Y332315D01*
X2046107Y332315D01*
X2046107Y352315D01*
X2052107Y352315D01*
G54D12*
X1448920Y278951D02*
X1448920Y258951D01*
X1442920Y258951D01*
X1442920Y278951D01*
X1448920Y278951D01*
G54D12*
X1461620Y278951D02*
X1461620Y258951D01*
X1455620Y258951D01*
X1455620Y278951D01*
X1461620Y278951D01*
G54D12*
X1474320Y278951D02*
X1474320Y258951D01*
X1468320Y258951D01*
X1468320Y278951D01*
X1474320Y278951D01*
G54D12*
X1487020Y278951D02*
X1487020Y258951D01*
X1481020Y258951D01*
X1481020Y278951D01*
X1487020Y278951D01*
G54D12*
X1499720Y278951D02*
X1499720Y258951D01*
X1493720Y258951D01*
X1493720Y278951D01*
X1499720Y278951D01*
G54D12*
X1512420Y278951D02*
X1512420Y258951D01*
X1506420Y258951D01*
X1506420Y278951D01*
X1512420Y278951D01*
G54D12*
X1525120Y278951D02*
X1525120Y258951D01*
X1519120Y258951D01*
X1519120Y278951D01*
X1525120Y278951D01*
G54D12*
X1537820Y278951D02*
X1537820Y258951D01*
X1531820Y258951D01*
X1531820Y278951D01*
X1537820Y278951D01*
G54D12*
X1550520Y278951D02*
X1550520Y258951D01*
X1544520Y258951D01*
X1544520Y278951D01*
X1550520Y278951D01*
G54D12*
X1563220Y278951D02*
X1563220Y258951D01*
X1557220Y258951D01*
X1557220Y278951D01*
X1563220Y278951D01*
G54D12*
X1575920Y278951D02*
X1575920Y258951D01*
X1569920Y258951D01*
X1569920Y278951D01*
X1575920Y278951D01*
G54D12*
X1588620Y278951D02*
X1588620Y258951D01*
X1582620Y258951D01*
X1582620Y278951D01*
X1588620Y278951D01*
G54D12*
X1588620Y372951D02*
X1588620Y352951D01*
X1582620Y352951D01*
X1582620Y372951D01*
X1588620Y372951D01*
G54D12*
X1575920Y372951D02*
X1575920Y352951D01*
X1569920Y352951D01*
X1569920Y372951D01*
X1575920Y372951D01*
G54D12*
X1563220Y372951D02*
X1563220Y352951D01*
X1557220Y352951D01*
X1557220Y372951D01*
X1563220Y372951D01*
G54D12*
X1550520Y372951D02*
X1550520Y352951D01*
X1544520Y352951D01*
X1544520Y372951D01*
X1550520Y372951D01*
G54D12*
X1537820Y372951D02*
X1537820Y352951D01*
X1531820Y352951D01*
X1531820Y372951D01*
X1537820Y372951D01*
G54D12*
X1525120Y372951D02*
X1525120Y352951D01*
X1519120Y352951D01*
X1519120Y372951D01*
X1525120Y372951D01*
G54D12*
X1512420Y372951D02*
X1512420Y352951D01*
X1506420Y352951D01*
X1506420Y372951D01*
X1512420Y372951D01*
G54D12*
X1499720Y372951D02*
X1499720Y352951D01*
X1493720Y352951D01*
X1493720Y372951D01*
X1499720Y372951D01*
G54D12*
X1487020Y372951D02*
X1487020Y352951D01*
X1481020Y352951D01*
X1481020Y372951D01*
X1487020Y372951D01*
G54D12*
X1474320Y372951D02*
X1474320Y352951D01*
X1468320Y352951D01*
X1468320Y372951D01*
X1474320Y372951D01*
G54D12*
X1461620Y372951D02*
X1461620Y352951D01*
X1455620Y352951D01*
X1455620Y372951D01*
X1461620Y372951D01*
G54D12*
X1448920Y372951D02*
X1448920Y352951D01*
X1442920Y352951D01*
X1442920Y372951D01*
X1448920Y372951D01*
X538934Y49286D02*
G54D17*
D03*
X2343734Y391566D02*
G54D18*
D03*
X533834Y239166D02*
G54D18*
D03*
X533834Y213766D02*
G54D18*
D03*
X533834Y289966D02*
G54D18*
D03*
X533834Y264566D02*
G54D18*
D03*
X533834Y340766D02*
G54D18*
D03*
X533834Y315366D02*
G54D18*
D03*
X533834Y391566D02*
G54D18*
D03*
X533834Y366166D02*
G54D18*
D03*
X69834Y239166D02*
G54D18*
D03*
X69834Y213766D02*
G54D18*
D03*
X69834Y289966D02*
G54D18*
D03*
X69834Y264566D02*
G54D18*
D03*
X69834Y340766D02*
G54D18*
D03*
X69834Y315366D02*
G54D18*
D03*
X69834Y391566D02*
G54D18*
D03*
X69834Y366166D02*
G54D18*
D03*
X1137364Y239166D02*
G54D18*
D03*
X1137364Y213766D02*
G54D18*
D03*
X1137364Y289966D02*
G54D18*
D03*
X1137364Y264566D02*
G54D18*
D03*
X1137364Y340766D02*
G54D18*
D03*
X1137364Y315366D02*
G54D18*
D03*
X1137364Y391566D02*
G54D18*
D03*
X1137364Y366166D02*
G54D18*
D03*
X673364Y239166D02*
G54D18*
D03*
X673364Y213766D02*
G54D18*
D03*
X673364Y289966D02*
G54D18*
D03*
X673364Y264566D02*
G54D18*
D03*
X673364Y340766D02*
G54D18*
D03*
X673364Y315366D02*
G54D18*
D03*
X673364Y391566D02*
G54D18*
D03*
X673364Y366166D02*
G54D18*
D03*
X1740554Y239166D02*
G54D18*
D03*
X1740554Y213766D02*
G54D18*
D03*
X1740554Y289966D02*
G54D18*
D03*
X1740554Y264566D02*
G54D18*
D03*
X1740554Y340766D02*
G54D18*
D03*
X1740554Y315366D02*
G54D18*
D03*
X1740554Y391566D02*
G54D18*
D03*
X1740554Y366166D02*
G54D18*
D03*
X1276554Y239166D02*
G54D18*
D03*
X1276554Y213766D02*
G54D18*
D03*
X1276554Y289966D02*
G54D18*
D03*
X1276554Y264566D02*
G54D18*
D03*
X1276554Y340766D02*
G54D18*
D03*
X1276554Y315366D02*
G54D18*
D03*
X1276554Y391566D02*
G54D18*
D03*
X1276554Y366166D02*
G54D18*
D03*
X2343734Y239166D02*
G54D18*
D03*
X2343734Y213766D02*
G54D18*
D03*
X2343734Y289966D02*
G54D18*
D03*
X2343734Y264566D02*
G54D18*
D03*
X2343734Y340766D02*
G54D18*
D03*
X2343734Y315366D02*
G54D18*
D03*
X2343734Y366166D02*
G54D18*
D03*
X1879734Y239166D02*
G54D18*
D03*
X1879734Y213766D02*
G54D18*
D03*
X1879734Y289966D02*
G54D18*
D03*
X1879734Y264566D02*
G54D18*
D03*
X1879734Y340766D02*
G54D18*
D03*
X1879734Y315366D02*
G54D18*
D03*
X1879734Y391566D02*
G54D18*
D03*
X1879734Y366166D02*
G54D18*
D03*
X50800Y565150D02*
G54D19*
D03*
X50800Y44450D02*
G54D19*
D03*
X2362200Y44450D02*
G54D19*
D03*
X2362200Y565150D02*
G54D19*
D03*
X19050Y622300D02*
G54D20*
D03*
X107950Y-12700D02*
G54D20*
D03*
X2425700Y596900D02*
G54D20*
D03*
X2298700Y-12700D02*
G54D20*
D03*
G54D21*
X1358424Y72133D02*
X1363402Y70578D01*
X1365890Y67467D01*
X1365890Y51911D01*
X1363402Y48800D01*
X1358424Y47244D01*
G54D21*
X1337268Y60311D02*
X1342246Y61244D01*
X1347224Y60311D01*
X1349712Y57200D01*
X1349712Y50978D01*
X1347224Y47867D01*
X1342246Y47244D01*
X1337268Y47867D01*
G54D21*
X1328558Y72133D02*
X1323580Y70578D01*
X1321091Y67467D01*
X1321091Y51911D01*
X1323580Y48800D01*
X1328558Y47244D01*
G54D21*
X1312380Y47244D02*
X1292468Y47244D01*
G54D21*
X1302424Y47244D02*
X1302424Y72133D01*
G54D21*
X1312380Y72133D02*
X1292468Y72133D01*
G54D21*
X1283758Y61244D02*
X1273802Y47244D01*
X1263846Y61244D01*
G54D21*
X1255136Y59689D02*
X1250158Y61244D01*
X1244184Y61244D01*
X1240202Y58133D01*
X1240202Y47244D01*
G54D21*
X1240202Y51911D02*
X1242691Y55022D01*
X1247669Y55644D01*
X1252647Y55022D01*
X1255136Y51911D01*
X1254140Y48800D01*
X1250158Y47244D01*
X1247669Y47244D01*
X1246673Y47244D01*
X1242691Y48800D01*
X1240202Y51911D01*
G54D21*
X1231492Y47244D02*
X1231492Y61244D01*
G54D21*
X1231492Y58133D02*
X1229003Y60311D01*
X1224025Y61244D01*
X1219047Y60311D01*
X1216558Y58133D01*
X1216558Y47244D01*
G54D21*
X1207848Y47244D02*
X1182959Y47244D01*
G54D21*
X1169270Y47244D02*
X1169270Y70578D01*
X1166781Y72133D01*
X1164292Y71200D01*
G54D21*
X1174248Y61244D02*
X1164292Y61244D01*
G54D21*
X1140647Y47244D02*
X1140647Y72133D01*
G54D21*
X1140647Y57200D02*
X1143136Y60311D01*
X1148114Y61244D01*
X1153092Y60311D01*
X1155580Y57200D01*
X1155580Y50978D01*
X1153092Y47867D01*
X1148114Y47244D01*
X1143136Y47867D01*
X1140647Y50978D01*
G54D21*
X1102816Y47244D02*
X1122728Y47244D01*
X1122728Y48800D01*
X1120239Y51911D01*
X1105305Y61244D01*
X1102816Y64356D01*
X1102816Y67467D01*
X1105305Y70578D01*
X1110283Y72133D01*
X1115261Y72133D01*
X1120239Y70578D01*
X1122728Y67467D01*
G54D21*
X1079172Y47244D02*
X1079172Y72133D01*
X1094106Y56578D01*
X1094106Y53467D01*
X1074194Y53467D01*
G54D21*
X1063492Y47244D02*
X1065484Y47244D01*
X1065484Y48489D01*
X1063492Y48489D01*
X1063492Y47244D01*
X1065484Y47244D01*
G54D21*
X1034870Y67467D02*
X1034870Y51911D01*
X1037359Y48800D01*
X1042337Y47244D01*
X1047315Y47244D01*
X1052293Y48800D01*
X1054782Y51911D01*
X1054782Y67467D01*
X1052293Y70578D01*
X1047315Y72133D01*
X1042337Y72133D01*
X1037359Y70578D01*
X1034870Y67467D01*
G54D21*
X1006248Y47244D02*
X1026160Y47244D01*
X1026160Y48800D01*
X1023671Y51911D01*
X1008737Y61244D01*
X1006248Y64356D01*
X1006248Y67467D01*
X1008737Y70578D01*
X1013715Y72133D01*
X1018693Y72133D01*
X1023671Y70578D01*
X1026160Y67467D01*
G54D21*
X995546Y47244D02*
X997538Y47244D01*
X997538Y48489D01*
X995546Y48489D01*
X995546Y47244D01*
X997538Y47244D01*
G54D21*
X966924Y47244D02*
X986836Y47244D01*
X986836Y48800D01*
X984347Y51911D01*
X969413Y61244D01*
X966924Y64356D01*
X966924Y67467D01*
X969413Y70578D01*
X974391Y72133D01*
X979369Y72133D01*
X984347Y70578D01*
X986836Y67467D01*
G54D21*
X938302Y67467D02*
X938302Y51911D01*
X940791Y48800D01*
X945769Y47244D01*
X950747Y47244D01*
X955725Y48800D01*
X958214Y51911D01*
X958214Y67467D01*
X955725Y70578D01*
X950747Y72133D01*
X945769Y72133D01*
X940791Y70578D01*
X938302Y67467D01*
G54D21*
X929592Y62800D02*
X917147Y72133D01*
X917147Y47244D01*
G54D21*
X888525Y67467D02*
X891014Y70578D01*
X895992Y72133D01*
X900970Y72133D01*
X905948Y70578D01*
X908436Y67467D01*
X908436Y59689D01*
X908436Y58133D01*
X900970Y61244D01*
X895992Y61244D01*
X891014Y59689D01*
X888525Y56578D01*
X888525Y51911D01*
X891014Y48800D01*
X895992Y47244D01*
X900970Y47244D01*
X905948Y48800D01*
X908436Y51911D01*
X908436Y59689D01*
G54D22*
X2184400Y520700D02*
X2184400Y556256D01*
X2166622Y556256D01*
X2159511Y554033D01*
X2155956Y549589D01*
X2155956Y545144D01*
X2159511Y540700D01*
X2166622Y538478D01*
X2159511Y536256D01*
X2155956Y531811D01*
X2155956Y527367D01*
X2159511Y522922D01*
X2166622Y520700D01*
X2184400Y520700D01*
G54D22*
X2184400Y538478D02*
X2166622Y538478D01*
G54D22*
X2115068Y549589D02*
X2115068Y527367D01*
X2118623Y522922D01*
X2125734Y520700D01*
X2132846Y520700D01*
X2139956Y522922D01*
X2143512Y527367D01*
X2143512Y549589D01*
X2139956Y554033D01*
X2132846Y556256D01*
X2125734Y556256D01*
X2118623Y554033D01*
X2115068Y549589D01*
G54D22*
X2088402Y520700D02*
X2088402Y556256D01*
G54D22*
X2102624Y556256D02*
X2074180Y556256D01*
G54D22*
X2047514Y520700D02*
X2047514Y556256D01*
G54D22*
X2061736Y556256D02*
X2033292Y556256D01*
G54D22*
X1992404Y549589D02*
X1992404Y527367D01*
X1995959Y522922D01*
X2003070Y520700D01*
X2010181Y520700D01*
X2017292Y522922D01*
X2020848Y527367D01*
X2020848Y549589D01*
X2017292Y554033D01*
X2010181Y556256D01*
X2003070Y556256D01*
X1995959Y554033D01*
X1992404Y549589D01*
G54D22*
X1979960Y520700D02*
X1979960Y556256D01*
X1962182Y534033D01*
X1944404Y556256D01*
X1944404Y520700D01*
%LPD*%
X919120Y145577D02*
G54D23*
D03*
X870060Y422143D02*
G54D23*
D03*
X358637Y405224D02*
G54D23*
D03*
X1501853Y233966D02*
G54D23*
D03*
X1585335Y421691D02*
G54D23*
D03*
X2089049Y381483D02*
G54D23*
D03*
X1009944Y363927D02*
G54D23*
D03*
X271102Y235415D02*
G54D23*
D03*
X1469997Y399121D02*
G54D23*
D03*
X1517909Y409089D02*
G54D23*
D03*
X625779Y93129D02*
G54D23*
D03*
X937710Y419207D02*
G54D23*
D03*
X2078540Y188292D02*
G54D23*
D03*
X2257416Y262297D02*
G54D23*
D03*
X2013109Y221415D02*
G54D23*
D03*
X2301979Y273404D02*
G54D23*
D03*
X2154489Y211041D02*
G54D23*
D03*
X1695163Y341213D02*
G54D23*
D03*
X1468540Y203020D02*
G54D23*
D03*
X1695781Y300024D02*
G54D23*
D03*
X1635267Y269916D02*
G54D23*
D03*
X729728Y217555D02*
G54D23*
D03*
X957867Y216342D02*
G54D23*
D03*
X783208Y247291D02*
G54D23*
D03*
X973334Y254624D02*
G54D23*
D03*
X434347Y304864D02*
G54D23*
D03*
X242611Y207475D02*
G54D23*
D03*
X290116Y407717D02*
G54D23*
D03*
X2165509Y380302D02*
G54D23*
D03*
X1472777Y167270D02*
G54D23*
D03*
X2000487Y330046D02*
G54D23*
D03*
X1071193Y370830D02*
G54D23*
D03*
X1400070Y364094D02*
G54D23*
D03*
X284536Y166433D02*
G54D23*
D03*
X496100Y140738D02*
G54D23*
D03*
X177624Y314600D02*
G54D23*
D03*
X2301042Y324947D02*
G54D23*
D03*
X2210554Y409472D02*
G54D23*
D03*
X1683671Y381449D02*
G54D23*
D03*
X1631014Y331149D02*
G54D23*
D03*
X1093622Y318315D02*
G54D23*
D03*
X979717Y422636D02*
G54D23*
D03*
X112645Y310207D02*
G54D23*
D03*
X197690Y354574D02*
G54D23*
D03*
X198772Y253690D02*
G54D23*
D03*
X403737Y330708D02*
G54D23*
D03*
X2214827Y352293D02*
G54D23*
D03*
X1051616Y417541D02*
G54D23*
D03*
X438419Y368942D02*
G54D23*
D03*
X901650Y244581D02*
G54D23*
D03*
X678940Y49286D02*
G54D24*
D03*
X643940Y49286D02*
G54D24*
D03*
X608940Y49286D02*
G54D24*
D03*
X573940Y49286D02*
G54D24*
D03*
G36*
X1448920Y352951D02*
X1442920Y352951D01*
X1442920Y372951D01*
X1448920Y372951D01*
X1448920Y352951D01*
G37*
G36*
X1461620Y352951D02*
X1455620Y352951D01*
X1455620Y372951D01*
X1461620Y372951D01*
X1461620Y352951D01*
G37*
G36*
X1474320Y352951D02*
X1468320Y352951D01*
X1468320Y372951D01*
X1474320Y372951D01*
X1474320Y352951D01*
G37*
G36*
X1487020Y352951D02*
X1481020Y352951D01*
X1481020Y372951D01*
X1487020Y372951D01*
X1487020Y352951D01*
G37*
G36*
X1499720Y352951D02*
X1493720Y352951D01*
X1493720Y372951D01*
X1499720Y372951D01*
X1499720Y352951D01*
G37*
G36*
X1512420Y352951D02*
X1506420Y352951D01*
X1506420Y372951D01*
X1512420Y372951D01*
X1512420Y352951D01*
G37*
G36*
X1525120Y352951D02*
X1519120Y352951D01*
X1519120Y372951D01*
X1525120Y372951D01*
X1525120Y352951D01*
G37*
G36*
X1537820Y352951D02*
X1531820Y352951D01*
X1531820Y372951D01*
X1537820Y372951D01*
X1537820Y352951D01*
G37*
G36*
X1550520Y352951D02*
X1544520Y352951D01*
X1544520Y372951D01*
X1550520Y372951D01*
X1550520Y352951D01*
G37*
G36*
X1563220Y352951D02*
X1557220Y352951D01*
X1557220Y372951D01*
X1563220Y372951D01*
X1563220Y352951D01*
G37*
G36*
X1575920Y352951D02*
X1569920Y352951D01*
X1569920Y372951D01*
X1575920Y372951D01*
X1575920Y352951D01*
G37*
G36*
X1588620Y352951D02*
X1582620Y352951D01*
X1582620Y372951D01*
X1588620Y372951D01*
X1588620Y352951D01*
G37*
G36*
X1588620Y258951D02*
X1582620Y258951D01*
X1582620Y278951D01*
X1588620Y278951D01*
X1588620Y258951D01*
G37*
G36*
X1575920Y258951D02*
X1569920Y258951D01*
X1569920Y278951D01*
X1575920Y278951D01*
X1575920Y258951D01*
G37*
G36*
X1563220Y258951D02*
X1557220Y258951D01*
X1557220Y278951D01*
X1563220Y278951D01*
X1563220Y258951D01*
G37*
G36*
X1550520Y258951D02*
X1544520Y258951D01*
X1544520Y278951D01*
X1550520Y278951D01*
X1550520Y258951D01*
G37*
G36*
X1537820Y258951D02*
X1531820Y258951D01*
X1531820Y278951D01*
X1537820Y278951D01*
X1537820Y258951D01*
G37*
G36*
X1525120Y258951D02*
X1519120Y258951D01*
X1519120Y278951D01*
X1525120Y278951D01*
X1525120Y258951D01*
G37*
G36*
X1512420Y258951D02*
X1506420Y258951D01*
X1506420Y278951D01*
X1512420Y278951D01*
X1512420Y258951D01*
G37*
G36*
X1499720Y258951D02*
X1493720Y258951D01*
X1493720Y278951D01*
X1499720Y278951D01*
X1499720Y258951D01*
G37*
G36*
X1487020Y258951D02*
X1481020Y258951D01*
X1481020Y278951D01*
X1487020Y278951D01*
X1487020Y258951D01*
G37*
G36*
X1474320Y258951D02*
X1468320Y258951D01*
X1468320Y278951D01*
X1474320Y278951D01*
X1474320Y258951D01*
G37*
G36*
X1461620Y258951D02*
X1455620Y258951D01*
X1455620Y278951D01*
X1461620Y278951D01*
X1461620Y258951D01*
G37*
G36*
X1448920Y258951D02*
X1442920Y258951D01*
X1442920Y278951D01*
X1448920Y278951D01*
X1448920Y258951D01*
G37*
G36*
X2052107Y332315D02*
X2046107Y332315D01*
X2046107Y352315D01*
X2052107Y352315D01*
X2052107Y332315D01*
G37*
G36*
X2064807Y332315D02*
X2058807Y332315D01*
X2058807Y352315D01*
X2064807Y352315D01*
X2064807Y332315D01*
G37*
G36*
X2077507Y332315D02*
X2071507Y332315D01*
X2071507Y352315D01*
X2077507Y352315D01*
X2077507Y332315D01*
G37*
G36*
X2090207Y332315D02*
X2084207Y332315D01*
X2084207Y352315D01*
X2090207Y352315D01*
X2090207Y332315D01*
G37*
G36*
X2102907Y332315D02*
X2096907Y332315D01*
X2096907Y352315D01*
X2102907Y352315D01*
X2102907Y332315D01*
G37*
G36*
X2115607Y332315D02*
X2109607Y332315D01*
X2109607Y352315D01*
X2115607Y352315D01*
X2115607Y332315D01*
G37*
G36*
X2128307Y332315D02*
X2122307Y332315D01*
X2122307Y352315D01*
X2128307Y352315D01*
X2128307Y332315D01*
G37*
G36*
X2141007Y332315D02*
X2135007Y332315D01*
X2135007Y352315D01*
X2141007Y352315D01*
X2141007Y332315D01*
G37*
G36*
X2153707Y332315D02*
X2147707Y332315D01*
X2147707Y352315D01*
X2153707Y352315D01*
X2153707Y332315D01*
G37*
G36*
X2166407Y332315D02*
X2160407Y332315D01*
X2160407Y352315D01*
X2166407Y352315D01*
X2166407Y332315D01*
G37*
G36*
X2179107Y332315D02*
X2173107Y332315D01*
X2173107Y352315D01*
X2179107Y352315D01*
X2179107Y332315D01*
G37*
G36*
X2191807Y332315D02*
X2185807Y332315D01*
X2185807Y352315D01*
X2191807Y352315D01*
X2191807Y332315D01*
G37*
G36*
X2191807Y238315D02*
X2185807Y238315D01*
X2185807Y258315D01*
X2191807Y258315D01*
X2191807Y238315D01*
G37*
G36*
X2179107Y238315D02*
X2173107Y238315D01*
X2173107Y258315D01*
X2179107Y258315D01*
X2179107Y238315D01*
G37*
G36*
X2166407Y238315D02*
X2160407Y238315D01*
X2160407Y258315D01*
X2166407Y258315D01*
X2166407Y238315D01*
G37*
G36*
X2153707Y238315D02*
X2147707Y238315D01*
X2147707Y258315D01*
X2153707Y258315D01*
X2153707Y238315D01*
G37*
G36*
X2141007Y238315D02*
X2135007Y238315D01*
X2135007Y258315D01*
X2141007Y258315D01*
X2141007Y238315D01*
G37*
G36*
X2128307Y238315D02*
X2122307Y238315D01*
X2122307Y258315D01*
X2128307Y258315D01*
X2128307Y238315D01*
G37*
G36*
X2115607Y238315D02*
X2109607Y238315D01*
X2109607Y258315D01*
X2115607Y258315D01*
X2115607Y238315D01*
G37*
G36*
X2102907Y238315D02*
X2096907Y238315D01*
X2096907Y258315D01*
X2102907Y258315D01*
X2102907Y238315D01*
G37*
G36*
X2090207Y238315D02*
X2084207Y238315D01*
X2084207Y258315D01*
X2090207Y258315D01*
X2090207Y238315D01*
G37*
G36*
X2077507Y238315D02*
X2071507Y238315D01*
X2071507Y258315D01*
X2077507Y258315D01*
X2077507Y238315D01*
G37*
G36*
X2064807Y238315D02*
X2058807Y238315D01*
X2058807Y258315D01*
X2064807Y258315D01*
X2064807Y238315D01*
G37*
G36*
X2052107Y238315D02*
X2046107Y238315D01*
X2046107Y258315D01*
X2052107Y258315D01*
X2052107Y238315D01*
G37*
G36*
X527440Y37786D02*
X550440Y37786D01*
X550440Y60786D01*
X527440Y60786D01*
X527440Y37786D01*
G37*
G36*
X2131654Y174334D02*
X2147654Y174334D01*
X2147654Y192334D01*
X2131654Y192334D01*
X2131654Y174334D01*
G37*
G36*
X2103654Y174334D02*
X2119654Y174334D01*
X2119654Y192334D01*
X2103654Y192334D01*
X2103654Y174334D01*
G37*
G36*
X1520098Y185531D02*
X1536098Y185531D01*
X1536098Y203531D01*
X1520098Y203531D01*
X1520098Y185531D01*
G37*
G36*
X1492098Y185531D02*
X1508098Y185531D01*
X1508098Y203531D01*
X1492098Y203531D01*
X1492098Y185531D01*
G37*
G36*
X912644Y171401D02*
X928644Y171401D01*
X928644Y189401D01*
X912644Y189401D01*
X912644Y171401D01*
G37*
G36*
X884644Y171401D02*
X900644Y171401D01*
X900644Y189401D01*
X884644Y189401D01*
X884644Y171401D01*
G37*
G36*
X311316Y199019D02*
X327316Y199019D01*
X327316Y217019D01*
X311316Y217019D01*
X311316Y199019D01*
G37*
G36*
X283316Y199019D02*
X299316Y199019D01*
X299316Y217019D01*
X283316Y217019D01*
X283316Y199019D01*
G37*
G36*
X833731Y278013D02*
X839731Y278013D01*
X839731Y298013D01*
X833731Y298013D01*
X833731Y278013D01*
G37*
G36*
X846431Y278013D02*
X852431Y278013D01*
X852431Y298013D01*
X846431Y298013D01*
X846431Y278013D01*
G37*
G36*
X859131Y278013D02*
X865131Y278013D01*
X865131Y298013D01*
X859131Y298013D01*
X859131Y278013D01*
G37*
G36*
X871831Y278013D02*
X877831Y278013D01*
X877831Y298013D01*
X871831Y298013D01*
X871831Y278013D01*
G37*
G36*
X884531Y278013D02*
X890531Y278013D01*
X890531Y298013D01*
X884531Y298013D01*
X884531Y278013D01*
G37*
G36*
X897231Y278013D02*
X903231Y278013D01*
X903231Y298013D01*
X897231Y298013D01*
X897231Y278013D01*
G37*
G36*
X909931Y278013D02*
X915931Y278013D01*
X915931Y298013D01*
X909931Y298013D01*
X909931Y278013D01*
G37*
G36*
X922631Y278013D02*
X928631Y278013D01*
X928631Y298013D01*
X922631Y298013D01*
X922631Y278013D01*
G37*
G36*
X935331Y278013D02*
X941331Y278013D01*
X941331Y298013D01*
X935331Y298013D01*
X935331Y278013D01*
G37*
G36*
X948031Y278013D02*
X954031Y278013D01*
X954031Y298013D01*
X948031Y298013D01*
X948031Y278013D01*
G37*
G36*
X960731Y278013D02*
X966731Y278013D01*
X966731Y298013D01*
X960731Y298013D01*
X960731Y278013D01*
G37*
G36*
X973431Y278013D02*
X979431Y278013D01*
X979431Y298013D01*
X973431Y298013D01*
X973431Y278013D01*
G37*
G36*
X973431Y372013D02*
X979431Y372013D01*
X979431Y392013D01*
X973431Y392013D01*
X973431Y372013D01*
G37*
G36*
X960731Y372013D02*
X966731Y372013D01*
X966731Y392013D01*
X960731Y392013D01*
X960731Y372013D01*
G37*
G36*
X948031Y372013D02*
X954031Y372013D01*
X954031Y392013D01*
X948031Y392013D01*
X948031Y372013D01*
G37*
G36*
X935331Y372013D02*
X941331Y372013D01*
X941331Y392013D01*
X935331Y392013D01*
X935331Y372013D01*
G37*
G36*
X922631Y372013D02*
X928631Y372013D01*
X928631Y392013D01*
X922631Y392013D01*
X922631Y372013D01*
G37*
G36*
X909931Y372013D02*
X915931Y372013D01*
X915931Y392013D01*
X909931Y392013D01*
X909931Y372013D01*
G37*
G36*
X897231Y372013D02*
X903231Y372013D01*
X903231Y392013D01*
X897231Y392013D01*
X897231Y372013D01*
G37*
G36*
X884531Y372013D02*
X890531Y372013D01*
X890531Y392013D01*
X884531Y392013D01*
X884531Y372013D01*
G37*
G36*
X871831Y372013D02*
X877831Y372013D01*
X877831Y392013D01*
X871831Y392013D01*
X871831Y372013D01*
G37*
G36*
X859131Y372013D02*
X865131Y372013D01*
X865131Y392013D01*
X859131Y392013D01*
X859131Y372013D01*
G37*
G36*
X846431Y372013D02*
X852431Y372013D01*
X852431Y392013D01*
X846431Y392013D01*
X846431Y372013D01*
G37*
G36*
X833731Y372013D02*
X839731Y372013D01*
X839731Y392013D01*
X833731Y392013D01*
X833731Y372013D01*
G37*
G36*
X230197Y262125D02*
X236197Y262125D01*
X236197Y282125D01*
X230197Y282125D01*
X230197Y262125D01*
G37*
G36*
X242897Y262125D02*
X248897Y262125D01*
X248897Y282125D01*
X242897Y282125D01*
X242897Y262125D01*
G37*
G36*
X255597Y262125D02*
X261597Y262125D01*
X261597Y282125D01*
X255597Y282125D01*
X255597Y262125D01*
G37*
G36*
X268297Y262125D02*
X274297Y262125D01*
X274297Y282125D01*
X268297Y282125D01*
X268297Y262125D01*
G37*
G36*
X280997Y262125D02*
X286997Y262125D01*
X286997Y282125D01*
X280997Y282125D01*
X280997Y262125D01*
G37*
G36*
X293697Y262125D02*
X299697Y262125D01*
X299697Y282125D01*
X293697Y282125D01*
X293697Y262125D01*
G37*
G36*
X306397Y262125D02*
X312397Y262125D01*
X312397Y282125D01*
X306397Y282125D01*
X306397Y262125D01*
G37*
G36*
X319097Y262125D02*
X325097Y262125D01*
X325097Y282125D01*
X319097Y282125D01*
X319097Y262125D01*
G37*
G36*
X331797Y262125D02*
X337797Y262125D01*
X337797Y282125D01*
X331797Y282125D01*
X331797Y262125D01*
G37*
G36*
X344497Y262125D02*
X350497Y262125D01*
X350497Y282125D01*
X344497Y282125D01*
X344497Y262125D01*
G37*
G36*
X357197Y262125D02*
X363197Y262125D01*
X363197Y282125D01*
X357197Y282125D01*
X357197Y262125D01*
G37*
G36*
X369897Y262125D02*
X375897Y262125D01*
X375897Y282125D01*
X369897Y282125D01*
X369897Y262125D01*
G37*
G36*
X369897Y356125D02*
X375897Y356125D01*
X375897Y376125D01*
X369897Y376125D01*
X369897Y356125D01*
G37*
G36*
X357197Y356125D02*
X363197Y356125D01*
X363197Y376125D01*
X357197Y376125D01*
X357197Y356125D01*
G37*
G36*
X344497Y356125D02*
X350497Y356125D01*
X350497Y376125D01*
X344497Y376125D01*
X344497Y356125D01*
G37*
G36*
X331797Y356125D02*
X337797Y356125D01*
X337797Y376125D01*
X331797Y376125D01*
X331797Y356125D01*
G37*
G36*
X319097Y356125D02*
X325097Y356125D01*
X325097Y376125D01*
X319097Y376125D01*
X319097Y356125D01*
G37*
G36*
X306397Y356125D02*
X312397Y356125D01*
X312397Y376125D01*
X306397Y376125D01*
X306397Y356125D01*
G37*
G36*
X293697Y356125D02*
X299697Y356125D01*
X299697Y376125D01*
X293697Y376125D01*
X293697Y356125D01*
G37*
G36*
X280997Y356125D02*
X286997Y356125D01*
X286997Y376125D01*
X280997Y376125D01*
X280997Y356125D01*
G37*
G36*
X268297Y356125D02*
X274297Y356125D01*
X274297Y376125D01*
X268297Y376125D01*
X268297Y356125D01*
G37*
G36*
X255597Y356125D02*
X261597Y356125D01*
X261597Y376125D01*
X255597Y376125D01*
X255597Y356125D01*
G37*
G36*
X242897Y356125D02*
X248897Y356125D01*
X248897Y376125D01*
X242897Y376125D01*
X242897Y356125D01*
G37*
G36*
X230197Y356125D02*
X236197Y356125D01*
X236197Y376125D01*
X230197Y376125D01*
X230197Y356125D01*
G37*
G54D25*
X7183Y1666D02*
X7183Y603666D01*
X2407183Y603666D01*
X2407183Y1666D01*
X7183Y1666D01*
G54D26*
X287316Y217019D02*
X287316Y213019D01*
X291316Y208019D01*
G54D26*
G75*
G01X287316Y217019D02*
G03X286193Y219798I-4000J0D01*
G01*
G54D26*
X271102Y235415D02*
X286192Y219799D01*
G54D26*
X901650Y244581D02*
X907132Y246330D01*
X907148Y246279D01*
X907132Y246330D01*
G54D26*
G75*
G01X896147Y242899D02*
G03X907152Y246263I5503J1682D01*
G01*
G54D26*
X896137Y242933D02*
X896152Y242883D01*
G54D26*
G75*
G01X895668Y247333D02*
G03X896127Y242965I11464J-1003D01*
G01*
G54D26*
X897571Y267929D02*
X895673Y247389D01*
G54D26*
X1500098Y194531D02*
X1501853Y199531D01*
X1501853Y203531D01*
X1501853Y233966D01*
G54D26*
X896644Y189401D02*
X896644Y185401D01*
X892644Y180401D01*
X896644Y175401D01*
X896644Y171401D01*
G54D26*
G75*
G01X896718Y190164D02*
G03X896644Y189401I3926J-763D01*
G01*
G54D26*
X907294Y243461D02*
X896721Y190180D01*
G54D26*
G75*
G01X907298Y243483D02*
G03X907153Y246263I-5648J1098D01*
G01*
G54D26*
X2084410Y187051D02*
X2085843Y193831D01*
X2078540Y188292D01*
X2103654Y188292D01*
X2107654Y188292D01*
X2111654Y183334D01*
G54D26*
G75*
G01X2085706Y193727D02*
G03X2095495Y203180I-33599J44588D01*
G01*
G54D26*
X2100412Y209189D02*
X2095320Y202965D01*
G54D26*
G75*
G01X2100556Y209366D02*
G03X2106497Y218875I-35749J28949D01*
G01*
G54D26*
X2111034Y228556D02*
X2106461Y218796D01*
G54D26*
G75*
G01X2111052Y228595D02*
G03X2111378Y229328I-20845J9720D01*
G01*
G54D26*
X2111407Y229395D02*
X2111376Y229321D01*
G54D26*
G75*
G01X896644Y171401D02*
G03X897719Y168673I4000J0D01*
G01*
G54D26*
X919120Y145577D02*
X897710Y168682D01*
G54D26*
X276761Y237407D02*
X281108Y225060D01*
X268917Y229827D01*
G54D26*
X1507307Y231466D02*
X1501853Y219566D01*
X1496399Y231466D01*
G54D26*
X2085843Y193831D02*
X2078928Y194279D01*
G54D26*
X913420Y143704D02*
X909332Y156139D01*
X921422Y151118D01*
G54D26*
X2081040Y193746D02*
X2092940Y188292D01*
X2081040Y182838D01*
G54D27*
X2043063Y267314D02*
X1884737Y213766D01*
X1879737Y213766D01*
G54D27*
G75*
G01X2046107Y267815D02*
G03X2043014Y267297I0J-9500D01*
G01*
G54D27*
X2126307Y267815D02*
X2046107Y267815D01*
G54D27*
G75*
G01X2130171Y266994D02*
G03X2126307Y267815I-3864J-8679D01*
G01*
G54D27*
X2131787Y266289D02*
X2130107Y267022D01*
G54D27*
G75*
G01X2137007Y258315D02*
G03X2131846Y266263I-8700J0D01*
G01*
G54D27*
X2138007Y248315D02*
X2137007Y256315D01*
X2137007Y258315D01*
G54D27*
X2040958Y278674D02*
X1884737Y239166D01*
X1879737Y239166D01*
G54D27*
G75*
G01X2046107Y279315D02*
G03X2041027Y278691I0J-21000D01*
G01*
G54D27*
X2128307Y279315D02*
X2046107Y279315D01*
G54D27*
G75*
G01X2138488Y276682D02*
G03X2128307Y279315I-10181J-18367D01*
G01*
G54D27*
X2157920Y265927D02*
X2138476Y276689D01*
G54D27*
G75*
G01X2162407Y258315D02*
G03X2157925Y265924I-8700J0D01*
G01*
G54D27*
X2163407Y248315D02*
X2162407Y256315D01*
X2162407Y258315D01*
G54D27*
X1862242Y330336D02*
X1874737Y340766D01*
X1879737Y340766D01*
G54D27*
G75*
G01X1862203Y330303D02*
G03X1855738Y319752I12534J-14937D01*
G01*
G54D27*
X1844542Y271584D02*
X1855743Y319780D01*
G54D27*
G75*
G01X1844532Y271539D02*
G03X1843737Y264566I30205J-6973D01*
G01*
G54D27*
X1843737Y213766D02*
X1843737Y264566D01*
G54D27*
G75*
G01X1843737Y213766D02*
G03X1874737Y182766I31000J0D01*
G01*
G54D27*
X1884737Y182766D02*
X1874737Y182766D01*
G54D27*
G75*
G01X1884737Y182766D02*
G03X1886359Y182808I0J31000D01*
G01*
G54D27*
X2014953Y190470D02*
X1886581Y182821D01*
G54D27*
G75*
G01X2014731Y190458D02*
G03X2027183Y193794I-1622J30957D01*
G01*
G54D27*
X2064980Y213061D02*
X2027187Y193796D01*
G54D27*
G75*
G01X2064976Y213059D02*
G03X2065415Y213287I-12869J25256D01*
G01*
G54D27*
X2065317Y213235D02*
X2065212Y213180D01*
G54D27*
G75*
G01X2065521Y213343D02*
G03X2068902Y215455I-13414J25228D01*
G01*
G54D27*
X2077053Y221333D02*
X2068820Y215395D01*
G54D27*
G75*
G01X2077114Y221377D02*
G03X2084933Y232544I-12307J16938D01*
G01*
G54D27*
X2085890Y235987D02*
X2084981Y232713D01*
G54D27*
G75*
G01X2085870Y235917D02*
G03X2086207Y238315I-8363J2398D01*
G01*
G54D27*
X2087207Y248315D02*
X2086207Y240315D01*
X2086207Y238315D01*
G54D27*
X2053853Y230390D02*
X2013109Y221415D01*
G54D27*
G75*
G01X2053794Y230377D02*
G03X2055917Y231150I-1687J7938D01*
G01*
G54D27*
X2055964Y231174D02*
X2055859Y231119D01*
G54D27*
G75*
G01X2056023Y231205D02*
G03X2059895Y235582I-3916J7366D01*
G01*
G54D27*
X2060673Y237594D02*
X2059888Y235565D01*
G54D27*
G75*
G01X2060674Y237598D02*
G03X2060807Y238315I-1867J717D01*
G01*
G54D27*
X2061807Y248315D02*
X2060807Y240315D01*
X2060807Y238315D01*
G54D27*
X2302987Y344350D02*
X2338737Y340766D01*
X2343737Y340766D01*
G54D27*
G75*
G01X2303080Y344340D02*
G03X2282718Y331616I-2038J-19393D01*
G01*
G54D27*
X2257416Y262297D02*
X2282724Y331633D01*
G54D27*
X1862242Y355736D02*
X1874737Y366166D01*
X1879737Y366166D01*
G54D27*
G75*
G01X1862203Y355703D02*
G03X1857363Y349618I12534J-14937D01*
G01*
G54D27*
X1847096Y329401D02*
X1857350Y349595D01*
G54D27*
G75*
G01X1847116Y329440D02*
G03X1844532Y322339I27621J-14074D01*
G01*
G54D27*
X1833340Y274187D02*
X1844542Y322384D01*
G54D27*
G75*
G01X1833326Y274126D02*
G03X1832237Y264566I41411J-9560D01*
G01*
G54D27*
X1832237Y213766D02*
X1832237Y264566D01*
G54D27*
G75*
G01X1832237Y213766D02*
G03X1874737Y171266I42500J0D01*
G01*
G54D27*
X1884737Y171266D02*
X1874737Y171266D01*
G54D27*
G75*
G01X1884737Y171266D02*
G03X1886961Y171324I0J42500D01*
G01*
G54D27*
X2015637Y178990D02*
X1887265Y171341D01*
G54D27*
G75*
G01X2015333Y178973D02*
G03X2033714Y184244I-2224J42442D01*
G01*
G54D27*
X2069787Y204152D02*
X2033644Y184205D01*
G54D27*
G75*
G01X2070036Y204287D02*
G03X2069758Y204136I8504J-15995D01*
G01*
G54D27*
G75*
G01X2090796Y238571D02*
G03X2090796Y238571I-38689J0D01*
G01*
G54D27*
X2080265Y209833D02*
X2070562Y204567D01*
G54D27*
G75*
G01X2080021Y209702D02*
G03X2093933Y224109I-15214J28613D01*
G01*
G54D27*
X2096367Y229080D02*
X2093911Y224064D01*
G54D27*
G75*
G01X2096382Y229109D02*
G03X2097883Y233235I-18875J9206D01*
G01*
G54D27*
X2098633Y236149D02*
X2097846Y233086D01*
G54D27*
G75*
G01X2098648Y236210D02*
G03X2098907Y238315I-8441J2105D01*
G01*
G54D27*
X2099907Y248315D02*
X2098907Y240315D01*
X2098907Y238315D01*
G54D27*
X2151753Y237418D02*
X2154489Y211041D01*
G54D27*
G75*
G01X2151707Y238315D02*
G03X2151755Y237406I8700J0D01*
G01*
G54D27*
X2150707Y248315D02*
X2151707Y240315D01*
X2151707Y238315D01*
G54D27*
X2301979Y273404D02*
X2338737Y289966D01*
X2343737Y289966D01*
G54D27*
X2307853Y254810D02*
X2338737Y264566D01*
X2343737Y264566D01*
G54D27*
G75*
G01X2306696Y254483D02*
G03X2308005Y254858I-4717J18921D01*
G01*
G54D27*
X2262132Y243376D02*
X2306695Y254483D01*
G54D27*
G75*
G01X2249797Y244347D02*
G03X2262134Y243376I7619J17950D01*
G01*
G54D27*
X2195474Y267079D02*
X2249889Y244308D01*
G54D27*
G75*
G01X2195519Y267060D02*
G03X2191807Y267815I-3712J-8745D01*
G01*
G54D27*
X2187807Y267815D02*
X2191807Y267815D01*
G54D27*
G75*
G01X2187807Y267815D02*
G03X2183943Y266994I0J-9500D01*
G01*
G54D27*
X2182327Y266289D02*
X2184007Y267022D01*
G54D27*
G75*
G01X2182269Y266263D02*
G03X2177107Y258315I3538J-7948D01*
G01*
G54D27*
X2176107Y248315D02*
X2177107Y256315D01*
X2177107Y258315D01*
G54D27*
X1862242Y279536D02*
X1874737Y289966D01*
X1879737Y289966D01*
G54D27*
G75*
G01X1862203Y279503D02*
G03X1855238Y264566I12534J-14937D01*
G01*
G54D27*
X1855237Y213766D02*
X1855237Y264566D01*
G54D27*
G75*
G01X1855237Y213766D02*
G03X1874737Y194266I19500J0D01*
G01*
G54D27*
X1884737Y194266D02*
X1874737Y194266D01*
G54D27*
G75*
G01X1884737Y194266D02*
G03X1885758Y194293I0J19500D01*
G01*
G54D27*
X2014269Y201950D02*
X1885897Y194301D01*
G54D27*
G75*
G01X2014130Y201942D02*
G03X2021350Y203742I-1021J19473D01*
G01*
G54D27*
X2059852Y221811D02*
X2021393Y203762D01*
G54D27*
G75*
G01X2059812Y221792D02*
G03X2060666Y222218I-7705J16523D01*
G01*
G54D27*
X2060640Y222204D02*
X2060535Y222149D01*
G54D27*
G75*
G01X2060772Y222274D02*
G03X2066037Y226461I-8665J16297D01*
G01*
G54D27*
X2071377Y232612D02*
X2066045Y226470D01*
G54D27*
G75*
G01X2071373Y232607D02*
G03X2073507Y238315I-6566J5708D01*
G01*
G54D27*
X2074507Y248315D02*
X2073507Y240315D01*
X2073507Y238315D01*
G54D27*
X1466315Y148872D02*
X1281554Y213766D01*
X1276554Y213766D01*
G54D27*
G75*
G01X1466428Y148832D02*
G03X1481018Y149597I6349J18438D01*
G01*
G54D27*
X1540085Y176908D02*
X1480961Y149570D01*
G54D27*
G75*
G01X1540113Y176921D02*
G03X1545598Y185531I-4015J8610D01*
G01*
G54D27*
X1545598Y203531D02*
X1545598Y185531D01*
G54D27*
G75*
G01X1545598Y203531D02*
G03X1545454Y205181I-9500J0D01*
G01*
G54D27*
X1535960Y257395D02*
X1545445Y205230D01*
G54D27*
G75*
G01X1535820Y258951D02*
G03X1535952Y257440I8700J0D01*
G01*
G54D27*
X1534820Y268951D02*
X1535820Y260951D01*
X1535820Y258951D01*
G54D27*
X1259059Y228736D02*
X1271554Y239166D01*
X1276554Y239166D01*
G54D27*
G75*
G01X1259020Y228703D02*
G03X1266179Y195022I12534J-14937D01*
G01*
G54D27*
X1464127Y137501D02*
X1266113Y195041D01*
G54D27*
G75*
G01X1464232Y137471D02*
G03X1485878Y139174I8545J29799D01*
G01*
G54D27*
X1544911Y166470D02*
X1485787Y139132D01*
G54D27*
G75*
G01X1544973Y166499D02*
G03X1557085Y184798I-8875J19032D01*
G01*
G54D27*
X1559216Y258700D02*
X1557089Y184926D01*
G54D27*
G75*
G01X1559215Y258647D02*
G03X1559220Y258951I-8695J304D01*
G01*
G54D27*
X1560220Y268951D02*
X1559220Y260951D01*
X1559220Y258951D01*
G54D27*
X1466206Y299444D02*
X1281554Y340766D01*
X1276554Y340766D01*
G54D27*
G75*
G01X1481996Y284031D02*
G03X1466344Y299413I-20376J-5080D01*
G01*
G54D27*
X1482746Y281117D02*
X1481959Y284180D01*
G54D27*
G75*
G01X1483020Y278951D02*
G03X1482762Y281056I-8700J0D01*
G01*
G54D27*
X1484020Y268951D02*
X1483020Y276951D01*
X1483020Y278951D01*
G54D27*
X1459731Y257564D02*
X1468540Y203020D01*
G54D27*
G75*
G01X1459620Y258951D02*
G03X1459727Y257590I8700J0D01*
G01*
G54D27*
X1458620Y268951D02*
X1459620Y260951D01*
X1459620Y258951D01*
G54D27*
X1695163Y341213D02*
X1735554Y340766D01*
X1740554Y340766D01*
G54D27*
X1470848Y310113D02*
X1281554Y366166D01*
X1276554Y366166D01*
G54D27*
G75*
G01X1491075Y292686D02*
G03X1470578Y310192I-29455J-13735D01*
G01*
G54D27*
X1493336Y287862D02*
X1491049Y292741D01*
G54D27*
G75*
G01X1494696Y284031D02*
G03X1493352Y287826I-20376J-5080D01*
G01*
G54D27*
X1495446Y281117D02*
X1494659Y284180D01*
G54D27*
G75*
G01X1495720Y278951D02*
G03X1495462Y281056I-8700J0D01*
G01*
G54D27*
X1496720Y268951D02*
X1495720Y276951D01*
X1495720Y278951D01*
G54D27*
X1599238Y293306D02*
X1635267Y269916D01*
G54D27*
G75*
G01X1599240Y293304D02*
G03X1588620Y296450I-10620J-16353D01*
G01*
G54D27*
X1582620Y296451D02*
X1588620Y296451D01*
G54D27*
G75*
G01X1582620Y296451D02*
G03X1576635Y295396I0J-17500D01*
G01*
G54D27*
X1555972Y287879D02*
X1576637Y295397D01*
G54D27*
G75*
G01X1555971Y287878D02*
G03X1555356Y287630I3249J-8927D01*
G01*
G54D27*
X1553740Y286925D02*
X1555420Y287658D01*
G54D27*
G75*
G01X1553682Y286899D02*
G03X1548520Y278951I3538J-7948D01*
G01*
G54D27*
X1547520Y268951D02*
X1548520Y276951D01*
X1548520Y278951D01*
G54D27*
X1695781Y300024D02*
X1735554Y289966D01*
X1740554Y289966D01*
G54D27*
X1758049Y254136D02*
X1745554Y264566D01*
X1740554Y264566D01*
G54D27*
G75*
G01X1765054Y239166D02*
G03X1758088Y254104I-19500J0D01*
G01*
G54D27*
X1765054Y213766D02*
X1765054Y239166D01*
G54D27*
G75*
G01X1745554Y194266D02*
G03X1765054Y213766I0J19500D01*
G01*
G54D27*
X1735554Y194266D02*
X1745554Y194266D01*
G54D27*
G75*
G01X1726100Y196711D02*
G03X1735554Y194266I9454J17055D01*
G01*
G54D27*
X1625741Y252901D02*
X1726028Y196751D01*
G54D27*
G75*
G01X1621006Y256617D02*
G03X1625813Y252861I14261J13299D01*
G01*
G54D27*
X1595512Y283489D02*
X1621120Y256495D01*
G54D27*
G75*
G01X1595568Y283430D02*
G03X1593226Y285260I-6948J-6479D01*
G01*
G54D27*
X1592372Y285732D02*
X1593219Y285264D01*
G54D27*
G75*
G01X1592377Y285729D02*
G03X1588620Y286701I-3757J-6778D01*
G01*
G54D27*
X1582620Y286701D02*
X1588620Y286701D01*
G54D27*
G75*
G01X1582620Y286701D02*
G03X1575977Y282943I0J-7750D01*
G01*
G54D27*
X1574204Y279978D02*
X1575969Y282929D01*
G54D27*
G75*
G01X1574206Y279981D02*
G03X1573920Y278951I1714J-1030D01*
G01*
G54D27*
X1572920Y268951D02*
X1573920Y276951D01*
X1573920Y278951D01*
G54D27*
X1459701Y288451D02*
X1281554Y289966D01*
X1276554Y289966D01*
G54D27*
G75*
G01X1463484Y287630D02*
G03X1459620Y288451I-3864J-8679D01*
G01*
G54D27*
X1465100Y286925D02*
X1463420Y287658D01*
G54D27*
G75*
G01X1470320Y278951D02*
G03X1465159Y286899I-8700J0D01*
G01*
G54D27*
X1471320Y268951D02*
X1470320Y276951D01*
X1470320Y278951D01*
G54D27*
X927627Y273971D02*
X957867Y216342D01*
G54D27*
G75*
G01X926631Y278013D02*
G03X927649Y273929I8700J0D01*
G01*
G54D27*
X925631Y288013D02*
X926631Y280013D01*
X926631Y278013D01*
G54D27*
X729728Y217555D02*
X678364Y213766D01*
X673364Y213766D01*
G54D27*
X954846Y271606D02*
X973334Y254624D01*
G54D27*
G75*
G01X952031Y278013D02*
G03X954798Y271650I8700J0D01*
G01*
G54D27*
X951031Y288013D02*
X952031Y280013D01*
X952031Y278013D01*
G54D27*
X783208Y247291D02*
X678364Y239166D01*
X673364Y239166D01*
G54D27*
X655869Y330336D02*
X668364Y340766D01*
X673364Y340766D01*
G54D27*
G75*
G01X655830Y330303D02*
G03X649365Y319752I12534J-14937D01*
G01*
G54D27*
X638169Y271584D02*
X649370Y319780D01*
G54D27*
G75*
G01X638158Y271539D02*
G03X637364Y264566I30206J-6973D01*
G01*
G54D27*
X637364Y213766D02*
X637364Y264566D01*
G54D27*
G75*
G01X637364Y213766D02*
G03X668364Y182766I31000J0D01*
G01*
G54D27*
X678364Y182766D02*
X668364Y182766D01*
G54D27*
G75*
G01X678364Y182766D02*
G03X680526Y182842I0J31000D01*
G01*
G54D27*
X732009Y186639D02*
X680645Y182850D01*
G54D27*
G75*
G01X731890Y186630D02*
G03X744757Y190442I-2162J30925D01*
G01*
G54D27*
X798273Y220197D02*
X744793Y190461D01*
G54D27*
G75*
G01X798238Y220177D02*
G03X800092Y221291I-15030J27114D01*
G01*
G54D27*
X859928Y260440D02*
X800180Y221350D01*
G54D27*
G75*
G01X859868Y260401D02*
G03X865202Y265375I-11437J17612D01*
G01*
G54D27*
X868350Y269570D02*
X865228Y265408D01*
G54D27*
G75*
G01X870711Y272439D02*
G03X868400Y269636I30939J-27858D01*
G01*
G54D27*
G75*
G01X870986Y272742D02*
G03X871662Y273608I-5855J5271D01*
G01*
G54D27*
X872599Y275004D02*
X871674Y273625D01*
G54D27*
G75*
G01X872586Y274985D02*
G03X873730Y277384I-7455J5028D01*
G01*
G54D27*
X873744Y277429D02*
X873731Y277387D01*
G54D27*
G75*
G01X873744Y277428D02*
G03X873831Y278013I-1913J585D01*
G01*
G54D27*
X874831Y288013D02*
X873831Y280013D01*
X873831Y278013D01*
G54D27*
X971397Y330449D02*
X1011884Y332988D01*
X1011941Y332991D01*
X1132364Y340766D01*
X1137364Y340766D01*
G54D27*
G75*
G01X971164Y330434D02*
G03X966674Y329803I2267J-32421D01*
G01*
G54D27*
X859185Y307312D02*
X966775Y329824D01*
G54D27*
G75*
G01X859156Y307305D02*
G03X857267Y306692I1975J-9292D01*
G01*
G54D27*
X855651Y305987D02*
X857331Y306720D01*
G54D27*
G75*
G01X855592Y305961D02*
G03X850431Y298013I3539J-7948D01*
G01*
G54D27*
X849431Y288013D02*
X850431Y296013D01*
X850431Y298013D01*
G54D27*
X655869Y355736D02*
X668364Y366166D01*
X673364Y366166D01*
G54D27*
G75*
G01X655830Y355703D02*
G03X650990Y349618I12534J-14937D01*
G01*
G54D27*
X640723Y329401D02*
X650977Y349595D01*
G54D27*
G75*
G01X640743Y329440D02*
G03X638158Y322339I27621J-14074D01*
G01*
G54D27*
X626967Y274187D02*
X638169Y322384D01*
G54D27*
G75*
G01X626953Y274126D02*
G03X625864Y264566I41411J-9560D01*
G01*
G54D27*
X625864Y213766D02*
X625864Y264566D01*
G54D27*
G75*
G01X625864Y213766D02*
G03X668364Y171266I42500J0D01*
G01*
G54D27*
X678364Y171266D02*
X668364Y171266D01*
G54D27*
G75*
G01X678364Y171266D02*
G03X681329Y171370I0J42500D01*
G01*
G54D27*
X732855Y175170D02*
X681491Y171381D01*
G54D27*
G75*
G01X732693Y175158D02*
G03X750332Y180384I-2965J42397D01*
G01*
G54D27*
X803861Y210147D02*
X750381Y180411D01*
G54D27*
G75*
G01X803812Y210120D02*
G03X806974Y212057I-20604J37171D01*
G01*
G54D27*
X864650Y251100D02*
X807032Y212097D01*
G54D27*
G75*
G01X864605Y251069D02*
G03X869412Y255032I-18174J26944D01*
G01*
G54D27*
X870305Y255915D02*
X869295Y254915D01*
G54D27*
G75*
G01X870417Y256027D02*
G03X874799Y261536I-21986J21986D01*
G01*
G54D27*
G75*
G01X878807Y266641D02*
G03X874719Y261409I22843J-22060D01*
G01*
G54D27*
X878859Y266694D02*
X878858Y266694D01*
G54D27*
G75*
G01X878890Y266726D02*
G03X879345Y267215I-13759J13287D01*
G01*
G54D27*
X884037Y272426D02*
X879347Y267216D01*
G54D27*
G75*
G01X884036Y272426D02*
G03X885726Y275294I-6205J5587D01*
G01*
G54D27*
X886347Y277127D02*
X885739Y275333D01*
G54D27*
G75*
G01X886333Y277086D02*
G03X886430Y277384I-8502J2927D01*
G01*
G54D27*
X886444Y277429D02*
X886431Y277387D01*
G54D27*
G75*
G01X886444Y277428D02*
G03X886531Y278013I-1913J585D01*
G01*
G54D27*
X887531Y288013D02*
X886531Y280013D01*
X886531Y278013D01*
G54D27*
X983400Y318635D02*
X1132364Y289966D01*
X1137364Y289966D01*
G54D27*
G75*
G01X983438Y318627D02*
G03X979431Y319013I-4007J-20614D01*
G01*
G54D27*
X973431Y319013D02*
X979431Y319013D01*
G54D27*
G75*
G01X973431Y319013D02*
G03X963250Y316380I0J-21000D01*
G01*
G54D27*
X943818Y305625D02*
X963262Y316387D01*
G54D27*
G75*
G01X943813Y305622D02*
G03X939331Y298013I4218J-7609D01*
G01*
G54D27*
X938331Y288013D02*
X939331Y296013D01*
X939331Y298013D01*
G54D27*
X982020Y307153D02*
X1132364Y264566D01*
X1137364Y264566D01*
G54D27*
G75*
G01X982050Y307145D02*
G03X979431Y307513I-2619J-9132D01*
G01*
G54D27*
X975431Y307513D02*
X979431Y307513D01*
G54D27*
G75*
G01X975431Y307513D02*
G03X971567Y306692I0J-9500D01*
G01*
G54D27*
X969951Y305987D02*
X971631Y306720D01*
G54D27*
G75*
G01X969892Y305961D02*
G03X964731Y298013I3539J-7948D01*
G01*
G54D27*
X963731Y288013D02*
X964731Y296013D01*
X964731Y298013D01*
G54D27*
X655869Y279536D02*
X668364Y289966D01*
X673364Y289966D01*
G54D27*
G75*
G01X655830Y279503D02*
G03X648865Y264566I12534J-14937D01*
G01*
G54D27*
X648864Y213766D02*
X648864Y264566D01*
G54D27*
G75*
G01X648864Y213766D02*
G03X668364Y194266I19500J0D01*
G01*
G54D27*
X678364Y194266D02*
X668364Y194266D01*
G54D27*
G75*
G01X678364Y194266D02*
G03X679724Y194314I0J19500D01*
G01*
G54D27*
X731163Y198108D02*
X679799Y194319D01*
G54D27*
G75*
G01X731088Y198102D02*
G03X739182Y200500I-1360J19453D01*
G01*
G54D27*
X792684Y230248D02*
X739204Y200512D01*
G54D27*
G75*
G01X792662Y230236D02*
G03X793828Y230937I-9454J17055D01*
G01*
G54D27*
X856704Y271368D02*
X793755Y230889D01*
G54D27*
G75*
G01X856734Y271388D02*
G03X859056Y273710I-4303J6625D01*
G01*
G54D27*
X859964Y275103D02*
X859050Y273700D01*
G54D27*
G75*
G01X859972Y275116D02*
G03X861030Y277384I-7541J4897D01*
G01*
G54D27*
X861044Y277429D02*
X861031Y277387D01*
G54D27*
G75*
G01X861044Y277428D02*
G03X861131Y278013I-1913J585D01*
G01*
G54D27*
X862131Y288013D02*
X861131Y280013D01*
X861131Y278013D01*
G54D27*
X278535Y147879D02*
X74834Y213766D01*
X69834Y213766D01*
G54D27*
G75*
G01X278510Y147887D02*
G03X299027Y153385I6026J18546D01*
G01*
G54D27*
X334377Y192664D02*
X299030Y153388D01*
G54D27*
G75*
G01X334376Y192662D02*
G03X336816Y199019I-7060J6357D01*
G01*
G54D27*
X336816Y217019D02*
X336816Y199019D01*
G54D27*
G75*
G01X336816Y217019D02*
G03X336351Y219955I-9500J0D01*
G01*
G54D27*
X323523Y259437D02*
X336351Y219955D01*
G54D27*
G75*
G01X323097Y262125D02*
G03X323523Y259437I8700J0D01*
G01*
G54D27*
X322097Y272125D02*
X323097Y264125D01*
X323097Y262125D01*
G54D27*
X52339Y228736D02*
X64834Y239166D01*
X69834Y239166D01*
G54D27*
G75*
G01X52300Y228703D02*
G03X59787Y194931I12534J-14937D01*
G01*
G54D27*
X276465Y136502D02*
X59757Y194938D01*
G54D27*
G75*
G01X276513Y136489D02*
G03X307574Y145690I8023J29944D01*
G01*
G54D27*
X342925Y184971D02*
X307578Y145695D01*
G54D27*
G75*
G01X342922Y184967D02*
G03X348316Y199019I-15606J14052D01*
G01*
G54D27*
X347497Y272125D02*
X348316Y264125D01*
X348316Y262125D01*
X348316Y199019D01*
G54D27*
X117790Y329016D02*
X74834Y340766D01*
X69834Y340766D01*
G54D27*
G75*
G01X126906Y323505D02*
G03X117692Y329042I-14261J-13298D01*
G01*
G54D27*
X154962Y293448D02*
X126900Y323512D01*
G54D27*
G75*
G01X154952Y293458D02*
G03X191214Y286737I22672J21142D01*
G01*
G54D27*
X221125Y301064D02*
X191016Y286642D01*
G54D27*
G75*
G01X230197Y303125D02*
G03X220991Y301000I0J-21000D01*
G01*
G54D27*
X248897Y303125D02*
X230197Y303125D01*
G54D27*
G75*
G01X269273Y287205D02*
G03X248897Y303125I-20376J-5080D01*
G01*
G54D27*
X270023Y284291D02*
X269236Y287354D01*
G54D27*
G75*
G01X270297Y282125D02*
G03X270039Y284230I-8700J0D01*
G01*
G54D27*
X271297Y272125D02*
X270297Y280125D01*
X270297Y282125D01*
G54D27*
X434347Y304864D02*
X528834Y340766D01*
X533834Y340766D01*
G54D27*
X244889Y261760D02*
X242611Y207475D01*
G54D27*
G75*
G01X244892Y261821D02*
G03X244897Y262125I-8695J304D01*
G01*
G54D27*
X245897Y272125D02*
X244897Y264125D01*
X244897Y262125D01*
G54D27*
X127499Y337417D02*
X74834Y366166D01*
X69834Y366166D01*
G54D27*
G75*
G01X135317Y331349D02*
G03X127674Y337320I-22672J-21142D01*
G01*
G54D27*
X163369Y301295D02*
X135307Y331359D01*
G54D27*
G75*
G01X163363Y301302D02*
G03X186172Y297074I14261J13298D01*
G01*
G54D27*
X216157Y311436D02*
X186048Y297013D01*
G54D27*
G75*
G01X230197Y314625D02*
G03X215950Y311336I0J-32500D01*
G01*
G54D27*
X248897Y314625D02*
X230197Y314625D01*
G54D27*
G75*
G01X278352Y295860D02*
G03X248897Y314625I-29455J-13735D01*
G01*
G54D27*
X280613Y291036D02*
X278326Y295915D01*
G54D27*
G75*
G01X281973Y287205D02*
G03X280629Y291000I-20376J-5080D01*
G01*
G54D27*
X282723Y284291D02*
X281936Y287354D01*
G54D27*
G75*
G01X282997Y282125D02*
G03X282739Y284230I-8700J0D01*
G01*
G54D27*
X283997Y272125D02*
X282997Y280125D01*
X282997Y282125D01*
G54D27*
X439703Y274330D02*
X528834Y289966D01*
X533834Y289966D01*
G54D27*
G75*
G01X416566Y279470D02*
G03X439730Y274335I17781J25394D01*
G01*
G54D27*
X387867Y299379D02*
X416677Y279393D01*
G54D27*
G75*
G01X387942Y299327D02*
G03X375897Y303125I-12045J-17202D01*
G01*
G54D27*
X369897Y303125D02*
X375897Y303125D01*
G54D27*
G75*
G01X369897Y303125D02*
G03X359716Y300492I0J-21000D01*
G01*
G54D27*
X340284Y289737D02*
X359728Y300499D01*
G54D27*
G75*
G01X340279Y289734D02*
G03X335797Y282125I4218J-7609D01*
G01*
G54D27*
X334797Y272125D02*
X335797Y280125D01*
X335797Y282125D01*
G54D27*
X435342Y262376D02*
X528834Y264566D01*
X533834Y264566D01*
G54D27*
G75*
G01X409970Y270050D02*
G03X435089Y262370I24377J34814D01*
G01*
G54D27*
X381312Y289931D02*
X410122Y269944D01*
G54D27*
G75*
G01X381346Y289907D02*
G03X375897Y291625I-5449J-7782D01*
G01*
G54D27*
X371897Y291625D02*
X375897Y291625D01*
G54D27*
G75*
G01X371897Y291625D02*
G03X368033Y290804I0J-9500D01*
G01*
G54D27*
X366417Y290099D02*
X368097Y290832D01*
G54D27*
G75*
G01X366358Y290073D02*
G03X361197Y282125I3539J-7948D01*
G01*
G54D27*
X360197Y272125D02*
X361197Y280125D01*
X361197Y282125D01*
G54D27*
X170075Y272776D02*
X74834Y289966D01*
X69834Y289966D01*
G54D27*
G75*
G01X170244Y272746D02*
G03X196255Y276401I7380J41854D01*
G01*
G54D27*
X226093Y290693D02*
X195984Y276270D01*
G54D27*
G75*
G01X230197Y291625D02*
G03X226032Y290664I0J-9500D01*
G01*
G54D27*
X246897Y291625D02*
X230197Y291625D01*
G54D27*
G75*
G01X250761Y290804D02*
G03X246897Y291625I-3864J-8679D01*
G01*
G54D27*
X252377Y290099D02*
X250697Y290832D01*
G54D27*
G75*
G01X257597Y282125D02*
G03X252436Y290073I-8700J0D01*
G01*
G54D27*
X258597Y272125D02*
X257597Y280125D01*
X257597Y282125D01*
G54D27*
X2133654Y192334D02*
X2133654Y190334D01*
X2139654Y183334D01*
G54D27*
G75*
G01X2133654Y192334D02*
G03X2133630Y192647I-2000J0D01*
G01*
G54D27*
X2126420Y236917D02*
X2133628Y192655D01*
G54D27*
G75*
G01X2126307Y238315D02*
G03X2126414Y236954I8700J0D01*
G01*
G54D27*
X2125307Y248315D02*
X2126307Y240315D01*
X2126307Y238315D01*
G54D27*
X1522120Y268951D02*
X1523120Y260951D01*
X1523120Y258951D01*
X1523120Y203531D01*
X1523120Y201531D01*
X1528098Y194531D01*
G54D27*
X920804Y246539D02*
X926644Y189401D01*
X926644Y187401D01*
X920644Y180401D01*
G54D27*
G75*
G01X920799Y246594D02*
G03X920411Y248912I-19149J-2013D01*
G01*
G54D27*
X914153Y276059D02*
X920412Y248906D01*
G54D27*
G75*
G01X913931Y278013D02*
G03X914154Y276056I8700J0D01*
G01*
G54D27*
X912931Y288013D02*
X913931Y280013D01*
X913931Y278013D01*
G54D27*
X311316Y215019D02*
X313316Y215019D01*
X319316Y208019D01*
G54D27*
G75*
G01X309316Y217019D02*
G03X311316Y215019I2000J0D01*
G01*
G54D27*
X309397Y272125D02*
X309316Y264125D01*
X309316Y262125D01*
X309316Y217019D01*
G54D27*
X282147Y408424D02*
X281091Y396518D01*
X290116Y407717D01*
G54D27*
G75*
G01X281140Y396578D02*
G03X276942Y389860I25257J-20453D01*
G01*
G54D27*
X274681Y385036D02*
X276968Y389915D01*
G54D27*
G75*
G01X274665Y385000D02*
G03X273321Y381205I19032J-8875D01*
G01*
G54D27*
X272571Y378291D02*
X273358Y381354D01*
G54D27*
G75*
G01X272555Y378230D02*
G03X272297Y376125I8442J-2105D01*
G01*
G54D27*
X271297Y366125D02*
X272297Y374125D01*
X272297Y376125D01*
G54D27*
X2155146Y363196D02*
X2165509Y380302D01*
G54D27*
G75*
G01X2155106Y363131D02*
G03X2152731Y357395I18001J-10816D01*
G01*
G54D27*
X2151981Y354481D02*
X2152768Y357544D01*
G54D27*
G75*
G01X2151966Y354420D02*
G03X2151707Y352315I8441J-2105D01*
G01*
G54D27*
X2150707Y342315D02*
X2151707Y350315D01*
X2151707Y352315D01*
G54D27*
X937710Y419207D02*
X937710Y392013D01*
X937710Y390013D01*
X938331Y382013D01*
G54D27*
X873761Y393113D02*
X870060Y422143D01*
G54D27*
G75*
G01X873831Y392013D02*
G03X873766Y393073I-8700J0D01*
G01*
G54D27*
X874831Y382013D02*
X873831Y390013D01*
X873831Y392013D01*
G54D27*
X343407Y391963D02*
X358637Y405224D01*
G54D27*
G75*
G01X343420Y391974D02*
G03X336821Y381205I13777J-15849D01*
G01*
G54D27*
X336071Y378291D02*
X336858Y381354D01*
G54D27*
G75*
G01X336055Y378230D02*
G03X335797Y376125I8442J-2105D01*
G01*
G54D27*
X334797Y366125D02*
X335797Y374125D01*
X335797Y376125D01*
G54D27*
X1544383Y378662D02*
X1517909Y409089D01*
G54D27*
G75*
G01X1546520Y372951D02*
G03X1544386Y378659I-8700J0D01*
G01*
G54D27*
X1547520Y362951D02*
X1546520Y370951D01*
X1546520Y372951D01*
G54D27*
X1481964Y377106D02*
X1469997Y399121D01*
G54D27*
G75*
G01X1483020Y372951D02*
G03X1481929Y377169I-8700J0D01*
G01*
G54D27*
X1484020Y362951D02*
X1483020Y370951D01*
X1483020Y372951D01*
G54D27*
X2088211Y352567D02*
X2089049Y381483D01*
G54D27*
G75*
G01X2088212Y352619D02*
G03X2088207Y352315I8695J-304D01*
G01*
G54D27*
X2087207Y342315D02*
X2088207Y350315D01*
X2088207Y352315D01*
G54D27*
X2045920Y334306D02*
X2000487Y330046D01*
G54D27*
G75*
G01X2046107Y334315D02*
G03X2045933Y334307I0J-2000D01*
G01*
G54D27*
X2049107Y342315D02*
X2048107Y334315D01*
X2046107Y334315D01*
G54D27*
X1446920Y258951D02*
X1446920Y260951D01*
X1445920Y268951D01*
G54D27*
G75*
G01X1446920Y258951D02*
G03X1446929Y258438I14700J0D01*
G01*
G54D27*
X1449054Y202283D02*
X1446931Y258395D01*
G54D27*
G75*
G01X1449052Y202339D02*
G03X1453602Y190486I19488J681D01*
G01*
G54D27*
X1472777Y167270D02*
X1453505Y190602D01*
G54D27*
X1445920Y362951D02*
X1444920Y364094D01*
X1442920Y364094D01*
X1400070Y364094D01*
G54D27*
X837731Y298013D02*
X837731Y296013D01*
X836731Y288013D01*
G54D27*
G75*
G01X837989Y300118D02*
G03X837731Y298013I8442J-2105D01*
G01*
G54D27*
X838792Y303242D02*
X838005Y300179D01*
G54D27*
G75*
G01X854765Y318554D02*
G03X838755Y303093I4366J-20541D01*
G01*
G54D27*
X964577Y341113D02*
X854905Y318583D01*
G54D27*
G75*
G01X970362Y341906D02*
G03X964283Y341052I3069J-43893D01*
G01*
G54D27*
X1011164Y344465D02*
X970678Y341927D01*
G54D27*
G75*
G01X1011304Y344474D02*
G03X1018185Y346254I-1360J19453D01*
G01*
G54D27*
X1071193Y370830D02*
X1018146Y346236D01*
G54D27*
X552941Y200304D02*
X496100Y140738D01*
G54D27*
G75*
G01X552861Y200220D02*
G03X556209Y204913I-14027J13546D01*
G01*
G54D27*
X576728Y245324D02*
X556221Y204937D01*
G54D27*
G75*
G01X576702Y245271D02*
G03X577033Y245935I-37868J19295D01*
G01*
G54D27*
X650775Y399985D02*
X577168Y246216D01*
G54D27*
G75*
G01X668364Y411066D02*
G03X650838Y400114I0J-19500D01*
G01*
G54D27*
X678364Y411066D02*
X668364Y411066D01*
G54D27*
G75*
G01X681078Y410876D02*
G03X678364Y411066I-2714J-19310D01*
G01*
G54D27*
X833460Y390031D02*
X681007Y410886D01*
G54D27*
G75*
G01X833453Y390032D02*
G03X833731Y390013I278J1981D01*
G01*
G54D27*
X836731Y382013D02*
X835731Y390013D01*
X833731Y390013D01*
G54D27*
X232197Y262125D02*
X232197Y264125D01*
X233197Y272125D01*
G54D27*
G75*
G01X232167Y261778D02*
G03X232197Y262125I-1970J347D01*
G01*
G54D27*
X223393Y210781D02*
X232168Y261786D01*
G54D27*
G75*
G01X223407Y210861D02*
G03X234370Y189802I19204J-3386D01*
G01*
G54D27*
X284536Y166433D02*
X234377Y189799D01*
G54D27*
X178192Y354849D02*
X177624Y314600D01*
G54D27*
G75*
G01X197690Y374074D02*
G03X178193Y354914I0J-19500D01*
G01*
G54D27*
X233197Y366125D02*
X232197Y374074D01*
X230197Y374074D01*
X197690Y374074D01*
G54D27*
X2161582Y399402D02*
X2210554Y409472D01*
G54D27*
G75*
G01X2161455Y399376D02*
G03X2146588Y385020I4054J-19074D01*
G01*
G54D27*
X2139430Y355815D02*
X2146570Y384944D01*
G54D27*
G75*
G01X2139444Y355871D02*
G03X2139007Y352315I14263J-3556D01*
G01*
G54D27*
X2138007Y342315D02*
X2139007Y350315D01*
X2139007Y352315D01*
G54D27*
X2301042Y324947D02*
X2338737Y315366D01*
X2343737Y315366D01*
G54D27*
X2361232Y249596D02*
X2348737Y239166D01*
X2343737Y239166D01*
G54D27*
G75*
G01X2361271Y249629D02*
G03X2368236Y264566I-12534J14937D01*
G01*
G54D27*
X2368237Y391566D02*
X2368237Y264566D01*
G54D27*
G75*
G01X2368237Y391566D02*
G03X2352791Y410640I-19500J0D01*
G01*
G54D27*
X2217061Y439781D02*
X2352830Y410632D01*
G54D27*
G75*
G01X2216999Y439795D02*
G03X2199444Y438413I-6445J-30323D01*
G01*
G54D27*
X2150589Y420097D02*
X2199671Y438499D01*
G54D27*
G75*
G01X2150278Y419979D02*
G03X2129467Y402824I15231J-39677D01*
G01*
G54D27*
X2104571Y363560D02*
X2129616Y403060D01*
G54D27*
G75*
G01X2104498Y363443D02*
G03X2101931Y357395I17809J-11128D01*
G01*
G54D27*
X2101181Y354481D02*
X2101968Y357544D01*
G54D27*
G75*
G01X2101166Y354420D02*
G03X2100907Y352315I8441J-2105D01*
G01*
G54D27*
X2099907Y342315D02*
X2100907Y350315D01*
X2100907Y352315D01*
G54D27*
X2215715Y371773D02*
X2338737Y366166D01*
X2343737Y366166D01*
G54D27*
G75*
G01X2215848Y371766D02*
G03X2209780Y371129I-1021J-19473D01*
G01*
G54D27*
X2172720Y361510D02*
X2209928Y371168D01*
G54D27*
G75*
G01X2172648Y361491D02*
G03X2171243Y360994I2459J-9176D01*
G01*
G54D27*
X2169627Y360289D02*
X2171307Y361022D01*
G54D27*
G75*
G01X2169568Y360263D02*
G03X2164407Y352315I3539J-7948D01*
G01*
G54D27*
X2163407Y342315D02*
X2164407Y350315D01*
X2164407Y352315D01*
G54D27*
X2361232Y224196D02*
X2348737Y213766D01*
X2343737Y213766D01*
G54D27*
G75*
G01X2361271Y224229D02*
G03X2366111Y230314I-12534J14937D01*
G01*
G54D27*
X2376378Y250531D02*
X2366124Y230337D01*
G54D27*
G75*
G01X2376358Y250492D02*
G03X2379737Y264566I-27621J14074D01*
G01*
G54D27*
X2379737Y391566D02*
X2379737Y264566D01*
G54D27*
G75*
G01X2379737Y391566D02*
G03X2355182Y421889I-31000J0D01*
G01*
G54D27*
X2219475Y451025D02*
X2355244Y421875D01*
G54D27*
G75*
G01X2219390Y451043D02*
G03X2195323Y449149I-8836J-41571D01*
G01*
G54D27*
X2146552Y430865D02*
X2195634Y449267D01*
G54D27*
G75*
G01X2146157Y430715D02*
G03X2141837Y428837I19352J-50413D01*
G01*
G54D27*
X2080521Y399019D02*
X2141893Y428864D01*
G54D27*
G75*
G01X2080501Y399009D02*
G03X2069739Y378769I8548J-17526D01*
G01*
G54D27*
X2073416Y353571D02*
X2069753Y378667D01*
G54D27*
G75*
G01X2073507Y352315D02*
G03X2073422Y353526I-8700J0D01*
G01*
G54D27*
X2074507Y342315D02*
X2073507Y350315D01*
X2073507Y352315D01*
G54D27*
X1999673Y310563D02*
X1884737Y315366D01*
X1879737Y315366D01*
G54D27*
G75*
G01X1999806Y310558D02*
G03X2002525Y310653I681J19488D01*
G01*
G54D27*
X2114636Y322871D02*
X2002600Y310661D01*
G54D27*
G75*
G01X2114600Y322867D02*
G03X2117471Y323636I-993J9448D01*
G01*
G54D27*
X2119087Y324341D02*
X2117407Y323608D01*
G54D27*
G75*
G01X2119146Y324367D02*
G03X2124307Y332315I-3539J7948D01*
G01*
G54D27*
X2125307Y342315D02*
X2124307Y334315D01*
X2124307Y332315D01*
G54D27*
X2216131Y428158D02*
X2338737Y391566D01*
X2343737Y391566D01*
G54D27*
G75*
G01X2216255Y428120D02*
G03X2203566Y427677I-5701J-18648D01*
G01*
G54D27*
X2154626Y409329D02*
X2203708Y427731D01*
G54D27*
G75*
G01X2154400Y409243D02*
G03X2138937Y396268I11109J-28941D01*
G01*
G54D27*
X2114880Y356847D02*
X2139047Y396450D01*
G54D27*
G75*
G01X2114849Y356796D02*
G03X2113606Y352315I7458J-4481D01*
G01*
G54D27*
X2112607Y342315D02*
X2113607Y350315D01*
X2113607Y352315D01*
G54D27*
X2119739Y311725D02*
X1884737Y264566D01*
X1879737Y264566D01*
G54D27*
G75*
G01X2119614Y311701D02*
G03X2120687Y311939I-4007J20614D01*
G01*
G54D27*
X2166646Y323083D02*
X2120556Y311906D01*
G54D27*
G75*
G01X2166705Y323097D02*
G03X2168271Y323636I-2298J9218D01*
G01*
G54D27*
X2169887Y324341D02*
X2168207Y323608D01*
G54D27*
G75*
G01X2169946Y324367D02*
G03X2175107Y332315I-3539J7948D01*
G01*
G54D27*
X2176107Y342315D02*
X2175107Y334315D01*
X2175107Y332315D01*
G54D27*
X2051781Y361666D02*
X1884737Y391566D01*
X1879737Y391566D01*
G54D27*
G75*
G01X2053971Y360994D02*
G03X2051757Y361671I-3864J-8679D01*
G01*
G54D27*
X2055587Y360289D02*
X2053907Y361022D01*
G54D27*
G75*
G01X2060807Y352315D02*
G03X2055646Y360263I-8700J0D01*
G01*
G54D27*
X2061807Y342315D02*
X2060807Y350315D01*
X2060807Y352315D01*
G54D27*
X1692240Y321933D02*
X1735554Y315366D01*
X1740554Y315366D01*
G54D27*
G75*
G01X1686008Y323996D02*
G03X1692113Y321953I9155J17217D01*
G01*
G54D27*
X1640168Y348367D02*
X1686009Y323995D01*
G54D27*
G75*
G01X1640169Y348366D02*
G03X1623082Y348963I-9155J-17217D01*
G01*
G54D27*
X1596559Y337140D02*
X1623075Y348960D01*
G54D27*
G75*
G01X1588620Y335451D02*
G03X1596551Y337137I0J19500D01*
G01*
G54D27*
X1582620Y335451D02*
X1588620Y335451D01*
G54D27*
G75*
G01X1582620Y335451D02*
G03X1573469Y334731I0J-58500D01*
G01*
G54D27*
G75*
G01X1565431Y334948D02*
G03X1572822Y334625I4489J18003D01*
G01*
G54D27*
X1565061Y335038D02*
X1565522Y334926D01*
G54D27*
G75*
G01X1561911Y336082D02*
G03X1564961Y335062I8009J18869D01*
G01*
G54D27*
X1541040Y344977D02*
X1542720Y344244D01*
X1542803Y344209D01*
X1561899Y336088D01*
G54D27*
G75*
G01X1535820Y352951D02*
G03X1540981Y345003I8700J0D01*
G01*
G54D27*
X1534820Y362951D02*
X1535820Y354951D01*
X1535820Y352951D01*
G54D27*
X1652708Y295545D02*
X1735554Y239166D01*
X1740554Y239166D01*
G54D27*
G75*
G01X1652602Y295617D02*
G03X1644847Y299400I-17335J-25701D01*
G01*
G54D27*
X1600892Y313970D02*
X1645021Y299341D01*
G54D27*
G75*
G01X1600672Y314042D02*
G03X1588620Y315951I-12052J-37091D01*
G01*
G54D27*
X1582620Y315951D02*
X1588620Y315951D01*
G54D27*
G75*
G01X1582620Y315951D02*
G03X1576195Y315389I0J-37000D01*
G01*
G54D27*
X1576362Y315418D02*
X1576361Y315418D01*
G54D27*
G75*
G01X1569920Y314869D02*
G03X1576533Y315448I0J38082D01*
G01*
G54D27*
G75*
G01X1560904Y315896D02*
G03X1569920Y314869I9016J39055D01*
G01*
G54D27*
X1537314Y321260D02*
X1561033Y315867D01*
G54D27*
G75*
G01X1529765Y323993D02*
G03X1537209Y321284I14755J28958D01*
G01*
G54D27*
X1509612Y334227D02*
X1529805Y323973D01*
G54D27*
G75*
G01X1498744Y347871D02*
G03X1509586Y334240I20376J5080D01*
G01*
G54D27*
X1497994Y350785D02*
X1498781Y347722D01*
G54D27*
G75*
G01X1497720Y352951D02*
G03X1497978Y350846I8700J0D01*
G01*
G54D27*
X1496720Y362951D02*
X1497720Y354951D01*
X1497720Y352951D01*
G54D27*
X1685275Y362015D02*
X1735554Y366166D01*
X1740554Y366166D01*
G54D27*
G75*
G01X1683671Y361949D02*
G03X1685371Y362023I0J19500D01*
G01*
G54D27*
X1631132Y362149D02*
X1683597Y361949D01*
G54D27*
G75*
G01X1631014Y362149D02*
G03X1616940Y358770I0J-31000D01*
G01*
G54D27*
X1592158Y346056D02*
X1616863Y358731D01*
G54D27*
G75*
G01X1588620Y345201D02*
G03X1592138Y346046I0J7750D01*
G01*
G54D27*
X1582620Y345201D02*
X1588620Y345201D01*
G54D27*
G75*
G01X1582620Y345201D02*
G03X1573121Y344537I0J-68250D01*
G01*
G54D27*
X1573105Y344534D02*
X1573105Y344535D01*
G54D27*
G75*
G01X1572808Y344498D02*
G03X1573103Y344534I-888J8453D01*
G01*
G54D27*
X1570790Y344295D02*
X1572770Y344494D01*
G54D27*
G75*
G01X1561220Y352951D02*
G03X1570829Y344299I8700J0D01*
G01*
G54D27*
X1560220Y362951D02*
X1561220Y354951D01*
X1561220Y352951D01*
G54D27*
X1647542Y285068D02*
X1735554Y213766D01*
X1740554Y213766D01*
G54D27*
G75*
G01X1647539Y285070D02*
G03X1642255Y288121I-12272J-15154D01*
G01*
G54D27*
X1598866Y304348D02*
X1642097Y288181D01*
G54D27*
G75*
G01X1599102Y304258D02*
G03X1588620Y306201I-10482J-27307D01*
G01*
G54D27*
X1582620Y306201D02*
X1588620Y306201D01*
G54D27*
G75*
G01X1582620Y306201D02*
G03X1577888Y305787I0J-27250D01*
G01*
G54D27*
G75*
G01X1570755Y305126D02*
G03X1578226Y305846I-835J47825D01*
G01*
G54D27*
X1564516Y304963D02*
X1571160Y305135D01*
G54D27*
G75*
G01X1563220Y304946D02*
G03X1564093Y304954I0J50005D01*
G01*
G54D27*
G75*
G01X1553239Y305995D02*
G03X1563220Y304946I9981J46956D01*
G01*
G54D27*
X1535096Y309972D02*
X1552939Y306060D01*
G54D27*
G75*
G01X1524544Y313747D02*
G03X1535372Y309912I19976J39204D01*
G01*
G54D27*
X1504405Y323973D02*
X1524599Y313719D01*
G54D27*
G75*
G01X1498667Y327694D02*
G03X1504365Y323993I20453J25257D01*
G01*
G54D27*
X1475585Y346157D02*
X1498818Y327572D01*
G54D27*
G75*
G01X1472320Y352951D02*
G03X1475545Y346190I8700J0D01*
G01*
G54D27*
X1471320Y362951D02*
X1472320Y354951D01*
X1472320Y352951D01*
G54D27*
X1259059Y325796D02*
X1271554Y315366D01*
X1276554Y315366D01*
G54D27*
G75*
G01X1252054Y340766D02*
G03X1259020Y325828I19500J0D01*
G01*
G54D27*
X1252054Y391566D02*
X1252054Y340766D01*
G54D27*
G75*
G01X1270874Y411054D02*
G03X1252054Y391566I680J-19488D01*
G01*
G54D27*
X1469255Y418607D02*
X1270812Y411052D01*
G54D27*
G75*
G01X1483543Y413148D02*
G03X1469316Y418609I-13546J-14027D01*
G01*
G54D27*
X1518484Y379190D02*
X1483588Y413105D01*
G54D27*
G75*
G01X1521120Y372951D02*
G03X1518464Y379209I-8700J0D01*
G01*
G54D27*
X1522120Y362951D02*
X1521120Y370951D01*
X1521120Y372951D01*
G54D27*
X1592526Y325963D02*
X1631014Y331149D01*
G54D27*
G75*
G01X1588620Y325701D02*
G03X1592691Y325986I0J29250D01*
G01*
G54D27*
X1582620Y325701D02*
X1588620Y325701D01*
G54D27*
G75*
G01X1582620Y325701D02*
G03X1574502Y324991I0J-46750D01*
G01*
G54D27*
G75*
G01X1569920Y324619D02*
G03X1574840Y325049I0J28332D01*
G01*
G54D27*
G75*
G01X1561052Y325944D02*
G03X1569920Y324619I8868J29007D01*
G01*
G54D27*
X1538386Y332867D02*
X1561060Y325942D01*
G54D27*
G75*
G01X1534339Y334584D02*
G03X1538380Y332869I10181J18367D01*
G01*
G54D27*
X1514907Y345339D02*
X1534351Y334577D01*
G54D27*
G75*
G01X1510420Y352951D02*
G03X1514902Y345342I8700J0D01*
G01*
G54D27*
X1509420Y362951D02*
X1510420Y354951D01*
X1510420Y352951D01*
G54D27*
X1683671Y381449D02*
X1735554Y391566D01*
X1740554Y391566D01*
G54D27*
X1259059Y274996D02*
X1271554Y264566D01*
X1276554Y264566D01*
G54D27*
G75*
G01X1252554Y285579D02*
G03X1259020Y275028I19000J4387D01*
G01*
G54D27*
X1241359Y333748D02*
X1252560Y285552D01*
G54D27*
G75*
G01X1240554Y340766D02*
G03X1241348Y333793I31000J0D01*
G01*
G54D27*
X1240554Y391566D02*
X1240554Y340766D01*
G54D27*
G75*
G01X1270472Y422547D02*
G03X1240554Y391566I1082J-30981D01*
G01*
G54D27*
X1468818Y430099D02*
X1270375Y422544D01*
G54D27*
G75*
G01X1471079Y430102D02*
G03X1468915Y430102I-1082J-30981D01*
G01*
G54D27*
X1518535Y428579D02*
X1470992Y430105D01*
G54D27*
G75*
G01X1532626Y421882D02*
G03X1518590Y428577I-14717J-12793D01*
G01*
G54D27*
X1569817Y378623D02*
X1532696Y421801D01*
G54D27*
G75*
G01X1571920Y372951D02*
G03X1569786Y378659I-8700J0D01*
G01*
G54D27*
X1572920Y362951D02*
X1571920Y370951D01*
X1571920Y372951D01*
G54D27*
X1447442Y382437D02*
X1281554Y391566D01*
X1276554Y391566D01*
G54D27*
G75*
G01X1450784Y381630D02*
G03X1447417Y382438I-3864J-8679D01*
G01*
G54D27*
X1452400Y380925D02*
X1450720Y381658D01*
G54D27*
G75*
G01X1457620Y372951D02*
G03X1452459Y380899I-8700J0D01*
G01*
G54D27*
X1458620Y362951D02*
X1457620Y370951D01*
X1457620Y372951D01*
G54D27*
X945296Y437171D02*
X979717Y422636D01*
G54D27*
G75*
G01X945329Y437157D02*
G03X918874Y414160I-7619J-17950D01*
G01*
G54D27*
X924321Y394316D02*
X918905Y414046D01*
G54D27*
G75*
G01X924631Y392013D02*
G03X924335Y394265I-8700J0D01*
G01*
G54D27*
X925631Y382013D02*
X924631Y390013D01*
X924631Y392013D01*
G54D27*
X1093622Y318315D02*
X1132364Y315366D01*
X1137364Y315366D01*
G54D27*
X1154859Y249596D02*
X1142364Y239166D01*
X1137364Y239166D01*
G54D27*
G75*
G01X1154898Y249629D02*
G03X1161863Y264566I-12534J14937D01*
G01*
G54D27*
X1161864Y391566D02*
X1161864Y264566D01*
G54D27*
G75*
G01X1161864Y391566D02*
G03X1152114Y408454I-19500J0D01*
G01*
G54D27*
X1072915Y454319D02*
X1152136Y408441D01*
G54D27*
G75*
G01X1072866Y454347D02*
G03X1052358Y460035I-21250J-36806D01*
G01*
G54D27*
X938332Y461702D02*
X1052238Y460036D01*
G54D27*
G75*
G01X938452Y461701D02*
G03X896139Y428043I-742J-42494D01*
G01*
G54D27*
X888728Y393856D02*
X896174Y428210D01*
G54D27*
G75*
G01X888721Y393822D02*
G03X888531Y392013I8510J-1809D01*
G01*
G54D27*
X887531Y382013D02*
X888531Y390013D01*
X888531Y392013D01*
G54D27*
X1119869Y376596D02*
X1132364Y366166D01*
X1137364Y366166D01*
G54D27*
G75*
G01X1118575Y377777D02*
G03X1119830Y376628I13789J13789D01*
G01*
G54D27*
X1065454Y431280D02*
X1118526Y377827D01*
G54D27*
G75*
G01X1065405Y431330D02*
G03X1042162Y434596I-13789J-13789D01*
G01*
G54D27*
X989082Y405532D02*
X1042251Y434645D01*
G54D27*
G75*
G01X981417Y403210D02*
G03X989171Y405581I-1700J19426D01*
G01*
G54D27*
X961890Y401476D02*
X981442Y403212D01*
G54D27*
G75*
G01X961903Y401477D02*
G03X958867Y400692I828J-9464D01*
G01*
G54D27*
X957251Y399987D02*
X958931Y400720D01*
G54D27*
G75*
G01X957192Y399961D02*
G03X952031Y392013I3539J-7948D01*
G01*
G54D27*
X951031Y382013D02*
X952031Y390013D01*
X952031Y392013D01*
G54D27*
X1154859Y224196D02*
X1142364Y213766D01*
X1137364Y213766D01*
G54D27*
G75*
G01X1154898Y224229D02*
G03X1159738Y230314I-12534J14937D01*
G01*
G54D27*
X1170005Y250531D02*
X1159751Y230337D01*
G54D27*
G75*
G01X1169985Y250492D02*
G03X1173364Y264566I-27621J14074D01*
G01*
G54D27*
X1173364Y391566D02*
X1173364Y264566D01*
G54D27*
G75*
G01X1173364Y391566D02*
G03X1157864Y418413I-31000J0D01*
G01*
G54D27*
X1078678Y464271D02*
X1157899Y418392D01*
G54D27*
G75*
G01X1078616Y464306D02*
G03X1052558Y471533I-27000J-46765D01*
G01*
G54D27*
X938500Y473201D02*
X1052406Y471535D01*
G54D27*
G75*
G01X938652Y473199D02*
G03X912359Y466886I-942J-53992D01*
G01*
G54D27*
X860862Y439337D02*
X912238Y466822D01*
G54D27*
G75*
G01X860905Y439360D02*
G03X852246Y414212I9155J-17217D01*
G01*
G54D27*
X860406Y395489D02*
X852184Y414351D01*
G54D27*
G75*
G01X861131Y392013D02*
G03X860379Y395552I-8700J0D01*
G01*
G54D27*
X862131Y382013D02*
X861131Y390013D01*
X861131Y392013D01*
G54D27*
X903189Y362717D02*
X678364Y315366D01*
X673364Y315366D01*
G54D27*
G75*
G01X903206Y362721D02*
G03X905095Y363334I-1975J9292D01*
G01*
G54D27*
X906711Y364039D02*
X905031Y363306D01*
G54D27*
G75*
G01X906770Y364065D02*
G03X911931Y372013I-3539J7948D01*
G01*
G54D27*
X912931Y382013D02*
X911931Y374013D01*
X911931Y372013D01*
G54D27*
X1071238Y441541D02*
X1132364Y391566D01*
X1137364Y391566D01*
G54D27*
G75*
G01X1071125Y441632D02*
G03X1052157Y448536I-19509J-24091D01*
G01*
G54D27*
X938163Y450204D02*
X1052069Y448538D01*
G54D27*
G75*
G01X938251Y450202D02*
G03X907280Y425122I-541J-30995D01*
G01*
G54D27*
X901380Y393614D02*
X907239Y424912D01*
G54D27*
G75*
G01X901391Y393673D02*
G03X901231Y392013I8540J-1660D01*
G01*
G54D27*
X900231Y382013D02*
X901231Y390013D01*
X901231Y392013D01*
G54D27*
X847661Y328422D02*
X678364Y264566D01*
X673364Y264566D01*
G54D27*
G75*
G01X849088Y328922D02*
G03X847484Y328354I10043J-30909D01*
G01*
G54D27*
X954940Y362969D02*
X849180Y328952D01*
G54D27*
G75*
G01X954967Y362978D02*
G03X955895Y363334I-2936J9035D01*
G01*
G54D27*
X957511Y364039D02*
X955831Y363306D01*
G54D27*
G75*
G01X957570Y364065D02*
G03X962731Y372013I-3539J7948D01*
G01*
G54D27*
X963731Y382013D02*
X962731Y374013D01*
X962731Y372013D01*
G54D27*
X831975Y362677D02*
X678364Y391566D01*
X673364Y391566D01*
G54D27*
G75*
G01X831918Y362688D02*
G03X833731Y362513I1813J9325D01*
G01*
G54D27*
X837731Y362513D02*
X833731Y362513D01*
G54D27*
G75*
G01X837731Y362513D02*
G03X841595Y363334I0J9500D01*
G01*
G54D27*
X843211Y364039D02*
X841531Y363306D01*
G54D27*
G75*
G01X843270Y364065D02*
G03X848431Y372013I-3539J7948D01*
G01*
G54D27*
X849431Y382013D02*
X848431Y374013D01*
X848431Y372013D01*
G54D27*
X440431Y286337D02*
X528834Y315366D01*
X533834Y315366D01*
G54D27*
G75*
G01X423162Y288891D02*
G03X440373Y286318I11185J15973D01*
G01*
G54D27*
X394422Y308828D02*
X423232Y288842D01*
G54D27*
G75*
G01X394538Y308747D02*
G03X392636Y309983I-18641J-26622D01*
G01*
G54D27*
X327364Y348639D02*
X392458Y310089D01*
G54D27*
G75*
G01X323097Y356125D02*
G03X327316Y348668I8700J0D01*
G01*
G54D27*
X322097Y366125D02*
X323097Y358125D01*
X323097Y356125D01*
G54D27*
X551329Y249596D02*
X538834Y239166D01*
X533834Y239166D01*
G54D27*
G75*
G01X551368Y249629D02*
G03X558333Y264566I-12534J14937D01*
G01*
G54D27*
X558334Y391566D02*
X558334Y264566D01*
G54D27*
G75*
G01X558334Y391566D02*
G03X541548Y410876I-19500J0D01*
G01*
G54D27*
X362942Y435924D02*
X541542Y410877D01*
G54D27*
G75*
G01X362951Y435922D02*
G03X337495Y427896I-4314J-30698D01*
G01*
G54D27*
X302367Y394739D02*
X337358Y427767D01*
G54D27*
G75*
G01X297940Y391676D02*
G03X302288Y394665I-7824J16041D01*
G01*
G54D27*
X297900Y391658D02*
X297900Y391657D01*
G54D27*
G75*
G01X297856Y391636D02*
G03X293360Y388604I8541J-17511D01*
G01*
G54D27*
X290637Y386140D02*
X293326Y388573D01*
G54D27*
G75*
G01X290660Y386161D02*
G03X288911Y384252I9037J-10036D01*
G01*
G54D27*
X286730Y381335D02*
X288882Y384213D01*
G54D27*
G75*
G01X286749Y381361D02*
G03X284997Y376125I6948J-5236D01*
G01*
G54D27*
X283997Y366125D02*
X284997Y374125D01*
X284997Y376125D01*
G54D27*
X443205Y387846D02*
X528834Y366166D01*
X533834Y366166D01*
G54D27*
G75*
G01X443136Y387863D02*
G03X437738Y388430I-4717J-18921D01*
G01*
G54D27*
X358859Y385619D02*
X437724Y388430D01*
G54D27*
G75*
G01X358865Y385619D02*
G03X355333Y384804I332J-9494D01*
G01*
G54D27*
X353717Y384099D02*
X355397Y384832D01*
G54D27*
G75*
G01X353658Y384073D02*
G03X348497Y376125I3539J-7948D01*
G01*
G54D27*
X347497Y366125D02*
X348497Y374125D01*
X348497Y376125D01*
G54D27*
X551329Y224196D02*
X538834Y213766D01*
X533834Y213766D01*
G54D27*
G75*
G01X551368Y224229D02*
G03X556208Y230314I-12534J14937D01*
G01*
G54D27*
X566475Y250531D02*
X556221Y230337D01*
G54D27*
G75*
G01X566455Y250492D02*
G03X569834Y264566I-27621J14074D01*
G01*
G54D27*
X569834Y391566D02*
X569834Y264566D01*
G54D27*
G75*
G01X569834Y391566D02*
G03X543148Y422264I-31000J0D01*
G01*
G54D27*
X364539Y447312D02*
X543139Y422266D01*
G54D27*
G75*
G01X364552Y447310D02*
G03X345504Y445644I-5915J-42086D01*
G01*
G54D27*
X284247Y426313D02*
X345846Y445753D01*
G54D27*
G75*
G01X284090Y426263D02*
G03X271678Y414066I6026J-18546D01*
G01*
G54D27*
X260380Y380860D02*
X271655Y413998D01*
G54D27*
G75*
G01X260398Y380911D02*
G03X259597Y376125I13899J-4786D01*
G01*
G54D27*
X258597Y366125D02*
X259597Y374125D01*
X259597Y376125D01*
G54D27*
X112645Y310207D02*
X74834Y315366D01*
X69834Y315366D01*
G54D27*
X227860Y346917D02*
X197690Y354574D01*
G54D27*
G75*
G01X227899Y346907D02*
G03X230197Y346625I2298J9218D01*
G01*
G54D27*
X297697Y346625D02*
X230197Y346625D01*
G54D27*
G75*
G01X297697Y346625D02*
G03X301561Y347446I0J9500D01*
G01*
G54D27*
X303177Y348151D02*
X301497Y347418D01*
G54D27*
G75*
G01X303236Y348177D02*
G03X308397Y356125I-3539J7948D01*
G01*
G54D27*
X309397Y366125D02*
X308397Y358125D01*
X308397Y356125D01*
G54D27*
X362406Y424356D02*
X528834Y391566D01*
X533834Y391566D01*
G54D27*
G75*
G01X362358Y424366D02*
G03X345844Y419941I-3721J-19142D01*
G01*
G54D27*
X308434Y386948D02*
X345739Y419849D01*
G54D27*
G75*
G01X303117Y383266D02*
G03X308284Y386817I-13001J24451D01*
G01*
G54D27*
X302766Y383082D02*
X302929Y383167D01*
G54D27*
G75*
G01X302713Y383054D02*
G03X299968Y380626I3684J-6929D01*
G01*
G54D27*
X299024Y379273D02*
X299963Y380617D01*
G54D27*
G75*
G01X299031Y379283D02*
G03X297798Y376754I7366J-5158D01*
G01*
G54D27*
X297784Y376709D02*
X297797Y376751D01*
G54D27*
G75*
G01X297784Y376710D02*
G03X297697Y376125I1913J-585D01*
G01*
G54D27*
X296697Y366125D02*
X297697Y374125D01*
X297697Y376125D01*
G54D27*
X366214Y348243D02*
X403737Y330708D01*
G54D27*
G75*
G01X361197Y356125D02*
G03X366220Y348240I8700J0D01*
G01*
G54D27*
X360197Y366125D02*
X361197Y358125D01*
X361197Y356125D01*
G54D27*
X198772Y253690D02*
X74834Y264566D01*
X69834Y264566D01*
G54D27*
X234551Y385618D02*
X74834Y391566D01*
X69834Y391566D01*
G54D27*
G75*
G01X238061Y384804D02*
G03X234529Y385619I-3864J-8679D01*
G01*
G54D27*
X239677Y384099D02*
X237997Y384832D01*
G54D27*
G75*
G01X244897Y376125D02*
G03X239736Y384073I-8700J0D01*
G01*
G54D27*
X245897Y366125D02*
X244897Y374125D01*
X244897Y376125D01*
G54D27*
X438419Y368942D02*
X375897Y368942D01*
X373897Y368942D01*
X372897Y366125D01*
G54D27*
X1051616Y417541D02*
X1009944Y363927D01*
X980065Y373910D01*
G54D27*
X2191979Y350322D02*
X2214827Y352293D01*
G54D27*
G75*
G01X2191807Y350315D02*
G03X2191981Y350323I0J2000D01*
G01*
G54D27*
X2188807Y342315D02*
X2189807Y350315D01*
X2191807Y350315D01*
G54D27*
X1585620Y362951D02*
X1585335Y370951D01*
X1585335Y372951D01*
X1585335Y421691D01*
G54D27*
G75*
G01X980049Y373915D02*
G03X979431Y374013I-618J-1902D01*
G01*
G54D27*
X976431Y382013D02*
X977431Y374013D01*
X979431Y374013D01*
G54D27*
X1489485Y128192D02*
X1607900Y178821D01*
X1870863Y159905D01*
G54D27*
G75*
G01X1466862Y125184D02*
G03X1489383Y128149I5915J42086D01*
G01*
G54D27*
X933116Y131999D02*
X994121Y194885D01*
X1466578Y125225D01*
G54D27*
X492031Y121667D02*
X625779Y93129D01*
X921289Y126198D01*
G54D27*
G75*
G01X480527Y129003D02*
G03X492046Y121664I15573J11735D01*
G01*
G54D27*
X377484Y263342D02*
X480627Y128870D01*
G54D27*
G75*
G01X377494Y263329D02*
G03X375897Y264125I-1597J-1204D01*
G01*
G54D27*
X372897Y272125D02*
X373897Y264125D01*
X375897Y264125D01*
G54D27*
G75*
G01X921158Y126184D02*
G03X933147Y132031I-2038J19393D01*
G01*
G54D27*
G75*
G01X1870970Y159898D02*
G03X1874737Y159766I3767J53868D01*
G01*
G54D27*
X1884737Y159766D02*
X1874737Y159766D01*
G54D27*
G75*
G01X1884737Y159766D02*
G03X1885679Y159774I0J54000D01*
G01*
G54D27*
X2147837Y164836D02*
X1885779Y159776D01*
G54D27*
G75*
G01X2147820Y164835D02*
G03X2156192Y170170I-166J9499D01*
G01*
G54D27*
X2172003Y202467D02*
X2156187Y170157D01*
G54D27*
G75*
G01X2172016Y202493D02*
G03X2172162Y202800I-17527J8548D01*
G01*
G54D27*
X2186993Y234642D02*
X2172166Y202807D01*
G54D27*
G75*
G01X2186991Y234639D02*
G03X2187806Y238315I-7884J3676D01*
G01*
G54D27*
X2188807Y248315D02*
X2187807Y240315D01*
X2187807Y238315D01*
G54D27*
X992830Y255043D02*
X994121Y194885D01*
G54D27*
G75*
G01X992832Y254964D02*
G03X986383Y269116I-19498J-340D01*
G01*
G54D27*
X978098Y276522D02*
X986331Y269161D01*
G54D27*
G75*
G01X977431Y278013D02*
G03X978093Y276527I2000J0D01*
G01*
G54D27*
X976431Y288013D02*
X977431Y280013D01*
X977431Y278013D01*
G54D27*
X1586687Y258436D02*
X1607900Y178821D01*
G54D27*
G75*
G01X1586620Y258951D02*
G03X1586688Y258433I2000J0D01*
G01*
G54D27*
X1585620Y268951D02*
X1586620Y260951D01*
X1586620Y258951D01*
G54D27*
X899096Y276487D02*
X897571Y267929D01*
G54D27*
G75*
G01X899099Y276502D02*
G03X899231Y278013I-8568J1511D01*
G01*
G54D27*
X900231Y288013D02*
X899231Y280013D01*
X899231Y278013D01*
G54D27*
X292929Y255761D02*
X271102Y235415D01*
G54D27*
G75*
G01X292930Y255762D02*
G03X295697Y262125I-5933J6363D01*
G01*
G54D27*
X296697Y272125D02*
X295697Y264125D01*
X295697Y262125D01*
G54D27*
X1508420Y258951D02*
X1508420Y260951D01*
X1509420Y268951D01*
G54D27*
G75*
G01X1508124Y256699D02*
G03X1508420Y258951I-8404J2252D01*
G01*
G54D27*
X1501853Y233966D02*
X1508107Y256638D01*
G54D27*
X2111605Y238118D02*
X2111407Y229395D01*
G54D27*
G75*
G01X2111606Y238163D02*
G03X2111607Y238315I-8699J152D01*
G01*
G54D27*
X2112607Y248315D02*
X2111607Y240315D01*
X2111607Y238315D01*
G54D27*
X2015884Y228918D02*
X2027562Y224599D01*
X2018780Y215772D01*
G54D27*
X2252576Y268667D02*
X2262491Y276200D01*
X2265222Y264051D01*
G54D27*
X2147348Y214648D02*
X2152962Y225762D01*
X2160738Y216036D01*
G54D27*
X2303157Y281317D02*
X2315473Y279484D01*
X2308687Y269043D01*
G54D27*
X1461205Y206216D02*
X1466180Y217631D01*
X1474495Y208362D01*
G54D27*
X1699562Y347895D02*
X1709962Y341049D01*
X1699412Y334435D01*
G54D27*
X1627975Y266626D02*
X1622853Y277975D01*
X1635305Y277916D01*
G54D27*
X1701623Y305489D02*
X1710129Y296396D01*
X1698323Y292439D01*
G54D27*
X949898Y217044D02*
X950990Y229447D01*
X961818Y223298D01*
G54D27*
X725910Y210525D02*
X714968Y216466D01*
X724920Y223949D01*
G54D27*
X965596Y252592D02*
X962434Y264636D01*
X974702Y262506D01*
G54D27*
X779417Y240246D02*
X768452Y246147D01*
X778377Y253668D01*
G54D27*
X435998Y312692D02*
X448182Y310121D01*
X440780Y300108D01*
G54D27*
X236067Y212078D02*
X243232Y222262D01*
X249517Y211514D01*
G54D27*
X281091Y396518D02*
X292501Y400080D01*
G54D27*
X2169024Y373116D02*
X2157840Y367644D01*
X2157512Y380092D01*
G54D27*
X944441Y414883D02*
X937710Y404407D01*
X930979Y414883D01*
G54D27*
X877283Y418704D02*
X871932Y407462D01*
X863931Y417002D01*
G54D27*
X359796Y397308D02*
X347475Y395505D01*
X350956Y407460D01*
G54D27*
X1525825Y410245D02*
X1527624Y397924D01*
X1515671Y401409D01*
G54D27*
X1477975Y398536D02*
X1477065Y386118D01*
X1466149Y392108D01*
G54D27*
X2095652Y376965D02*
X2088620Y366689D01*
X2082196Y377355D01*
G54D27*
X2004164Y337151D02*
X2015222Y331428D01*
X2005420Y323749D01*
G54D27*
X1464834Y166318D02*
X1463352Y178681D01*
X1475212Y174890D01*
G54D27*
X1404394Y370825D02*
X1414870Y364094D01*
X1404394Y357363D01*
G54D27*
X1070101Y362905D02*
X1057766Y364605D01*
X1064439Y375117D01*
G54D27*
X494216Y148512D02*
X506317Y151445D01*
X503954Y139220D01*
G54D27*
X277774Y162158D02*
X271120Y172683D01*
X283458Y174360D01*
G54D27*
X170955Y319019D02*
X177833Y329399D01*
X184415Y318829D01*
G54D27*
X2207674Y402008D02*
X2196057Y406491D01*
X2204962Y415194D01*
G54D27*
X2306891Y330405D02*
X2315386Y321301D01*
X2303575Y317359D01*
G54D27*
X1627628Y323902D02*
X1616347Y329173D01*
X1625830Y337242D01*
G54D27*
X1686627Y388883D02*
X1698197Y384282D01*
X1689203Y375671D01*
G54D27*
X973115Y418118D02*
X966083Y428393D01*
X978351Y430518D01*
G54D27*
X1098445Y324698D02*
X1108379Y317192D01*
X1097423Y311276D01*
G54D27*
X107450Y304123D02*
X97981Y312208D01*
X109270Y317461D01*
G54D27*
X203537Y360034D02*
X212035Y350933D01*
X200225Y346986D01*
G54D27*
X396969Y326441D02*
X390329Y336974D01*
X402669Y338637D01*
G54D27*
X193876Y247363D02*
X184029Y254984D01*
X195052Y260773D01*
G54D27*
X434095Y362211D02*
X423619Y368942D01*
X434095Y375673D01*
G54D27*
X1007284Y371472D02*
X1019027Y375612D01*
X1017912Y363210D01*
G54D27*
X1054276Y409996D02*
X1042533Y405856D01*
X1043648Y418258D01*
G54D27*
X2211097Y345215D02*
X2200082Y351021D01*
X2209941Y358627D01*
G54D27*
X1592066Y417367D02*
X1585335Y406891D01*
X1578604Y417367D01*
G54D27*
X1003710Y358913D02*
X995907Y368617D01*
X1007976Y371681D01*
G54D27*
X620146Y87449D02*
X611305Y96217D01*
X622954Y100613D01*
G54D27*
X629327Y100299D02*
X640487Y94775D01*
X630825Y86921D01*
G54D27*
X895927Y269068D02*
X898413Y272655D01*
X899507Y268430D01*
G54D27*
X269676Y243286D02*
X281928Y245506D01*
X278854Y233440D01*
G54D27*
X1496515Y239925D02*
X1505789Y248233D01*
X1509491Y236345D01*
G54D27*
X2109608Y230269D02*
X2111516Y234194D01*
X2113244Y230187D01*
G54D28*
X1874737Y391566D02*
X1884737Y391566D01*
G54D28*
X1874737Y366166D02*
X1884737Y366166D01*
G54D28*
X1874737Y340766D02*
X1884737Y340766D01*
G54D28*
X1874737Y315366D02*
X1884737Y315366D01*
G54D28*
X1874737Y289966D02*
X1884737Y289966D01*
G54D28*
X1874737Y264566D02*
X1884737Y264566D01*
G54D28*
X1874737Y239166D02*
X1884737Y239166D01*
G54D28*
X1874737Y213766D02*
X1884737Y213766D01*
G54D28*
X2338737Y391566D02*
X2348737Y391566D01*
G54D28*
X2338737Y366166D02*
X2348737Y366166D01*
G54D28*
X2338737Y340766D02*
X2348737Y340766D01*
G54D28*
X2338737Y315366D02*
X2348737Y315366D01*
G54D28*
X2338737Y289966D02*
X2348737Y289966D01*
G54D28*
X2338737Y264566D02*
X2348737Y264566D01*
G54D28*
X2338737Y239166D02*
X2348737Y239166D01*
G54D28*
X2338737Y213766D02*
X2348737Y213766D01*
G54D28*
X1271554Y391566D02*
X1281554Y391566D01*
G54D28*
X1271554Y366166D02*
X1281554Y366166D01*
G54D28*
X1271554Y340766D02*
X1281554Y340766D01*
G54D28*
X1271554Y315366D02*
X1281554Y315366D01*
G54D28*
X1271554Y289966D02*
X1281554Y289966D01*
G54D28*
X1271554Y264566D02*
X1281554Y264566D01*
G54D28*
X1271554Y239166D02*
X1281554Y239166D01*
G54D28*
X1271554Y213766D02*
X1281554Y213766D01*
G54D28*
X1735554Y391566D02*
X1745554Y391566D01*
G54D28*
X1735554Y366166D02*
X1745554Y366166D01*
G54D28*
X1735554Y340766D02*
X1745554Y340766D01*
G54D28*
X1735554Y315366D02*
X1745554Y315366D01*
G54D28*
X1735554Y289966D02*
X1745554Y289966D01*
G54D28*
X1735554Y264566D02*
X1745554Y264566D01*
G54D28*
X1735554Y239166D02*
X1745554Y239166D01*
G54D28*
X1735554Y213766D02*
X1745554Y213766D01*
G54D28*
X668364Y391566D02*
X678364Y391566D01*
G54D28*
X668364Y366166D02*
X678364Y366166D01*
G54D28*
X668364Y340766D02*
X678364Y340766D01*
G54D28*
X668364Y315366D02*
X678364Y315366D01*
G54D28*
X668364Y289966D02*
X678364Y289966D01*
G54D28*
X668364Y264566D02*
X678364Y264566D01*
G54D28*
X668364Y239166D02*
X678364Y239166D01*
G54D28*
X668364Y213766D02*
X678364Y213766D01*
G54D28*
X1132364Y391566D02*
X1142364Y391566D01*
G54D28*
X1132364Y366166D02*
X1142364Y366166D01*
G54D28*
X1132364Y340766D02*
X1142364Y340766D01*
G54D28*
X1132364Y315366D02*
X1142364Y315366D01*
G54D28*
X1132364Y289966D02*
X1142364Y289966D01*
G54D28*
X1132364Y264566D02*
X1142364Y264566D01*
G54D28*
X1132364Y239166D02*
X1142364Y239166D01*
G54D28*
X1132364Y213766D02*
X1142364Y213766D01*
G54D28*
X64834Y391566D02*
X74834Y391566D01*
G54D28*
X64834Y366166D02*
X74834Y366166D01*
G54D28*
X64834Y340766D02*
X74834Y340766D01*
G54D28*
X64834Y315366D02*
X74834Y315366D01*
G54D28*
X64834Y289966D02*
X74834Y289966D01*
G54D28*
X64834Y264566D02*
X74834Y264566D01*
G54D28*
X64834Y239166D02*
X74834Y239166D01*
G54D28*
X64834Y213766D02*
X74834Y213766D01*
G54D28*
X528834Y391566D02*
X538834Y391566D01*
G54D28*
X528834Y366166D02*
X538834Y366166D01*
G54D28*
X528834Y340766D02*
X538834Y340766D01*
G54D28*
X528834Y315366D02*
X538834Y315366D01*
G54D28*
X528834Y289966D02*
X538834Y289966D01*
G54D28*
X528834Y264566D02*
X538834Y264566D01*
G54D28*
X528834Y239166D02*
X538834Y239166D01*
G54D28*
X528834Y213766D02*
X538834Y213766D01*
G54D29*
X2052107Y258315D02*
X2052107Y238315D01*
X2046107Y238315D01*
X2046107Y258315D01*
X2052107Y258315D01*
G54D29*
X2064807Y258315D02*
X2064807Y238315D01*
X2058807Y238315D01*
X2058807Y258315D01*
X2064807Y258315D01*
G54D29*
X2077507Y258315D02*
X2077507Y238315D01*
X2071507Y238315D01*
X2071507Y258315D01*
X2077507Y258315D01*
G54D29*
X2090207Y258315D02*
X2090207Y238315D01*
X2084207Y238315D01*
X2084207Y258315D01*
X2090207Y258315D01*
G54D29*
X2102907Y258315D02*
X2102907Y238315D01*
X2096907Y238315D01*
X2096907Y258315D01*
X2102907Y258315D01*
G54D29*
X2115607Y258315D02*
X2115607Y238315D01*
X2109607Y238315D01*
X2109607Y258315D01*
X2115607Y258315D01*
G54D29*
X2128307Y258315D02*
X2128307Y238315D01*
X2122307Y238315D01*
X2122307Y258315D01*
X2128307Y258315D01*
G54D29*
X2141007Y258315D02*
X2141007Y238315D01*
X2135007Y238315D01*
X2135007Y258315D01*
X2141007Y258315D01*
G54D29*
X2153707Y258315D02*
X2153707Y238315D01*
X2147707Y238315D01*
X2147707Y258315D01*
X2153707Y258315D01*
G54D29*
X2166407Y258315D02*
X2166407Y238315D01*
X2160407Y238315D01*
X2160407Y258315D01*
X2166407Y258315D01*
G54D29*
X2179107Y258315D02*
X2179107Y238315D01*
X2173107Y238315D01*
X2173107Y258315D01*
X2179107Y258315D01*
G54D29*
X2191807Y258315D02*
X2191807Y238315D01*
X2185807Y238315D01*
X2185807Y258315D01*
X2191807Y258315D01*
G54D29*
X2191807Y352315D02*
X2191807Y332315D01*
X2185807Y332315D01*
X2185807Y352315D01*
X2191807Y352315D01*
G54D29*
X2179107Y352315D02*
X2179107Y332315D01*
X2173107Y332315D01*
X2173107Y352315D01*
X2179107Y352315D01*
G54D29*
X2166407Y352315D02*
X2166407Y332315D01*
X2160407Y332315D01*
X2160407Y352315D01*
X2166407Y352315D01*
G54D29*
X2153707Y352315D02*
X2153707Y332315D01*
X2147707Y332315D01*
X2147707Y352315D01*
X2153707Y352315D01*
G54D29*
X2141007Y352315D02*
X2141007Y332315D01*
X2135007Y332315D01*
X2135007Y352315D01*
X2141007Y352315D01*
G54D29*
X2128307Y352315D02*
X2128307Y332315D01*
X2122307Y332315D01*
X2122307Y352315D01*
X2128307Y352315D01*
G54D29*
X2115607Y352315D02*
X2115607Y332315D01*
X2109607Y332315D01*
X2109607Y352315D01*
X2115607Y352315D01*
G54D29*
X2102907Y352315D02*
X2102907Y332315D01*
X2096907Y332315D01*
X2096907Y352315D01*
X2102907Y352315D01*
G54D29*
X2090207Y352315D02*
X2090207Y332315D01*
X2084207Y332315D01*
X2084207Y352315D01*
X2090207Y352315D01*
G54D29*
X2077507Y352315D02*
X2077507Y332315D01*
X2071507Y332315D01*
X2071507Y352315D01*
X2077507Y352315D01*
G54D29*
X2064807Y352315D02*
X2064807Y332315D01*
X2058807Y332315D01*
X2058807Y352315D01*
X2064807Y352315D01*
G54D29*
X2052107Y352315D02*
X2052107Y332315D01*
X2046107Y332315D01*
X2046107Y352315D01*
X2052107Y352315D01*
G54D29*
X1448920Y278951D02*
X1448920Y258951D01*
X1442920Y258951D01*
X1442920Y278951D01*
X1448920Y278951D01*
G54D29*
X1461620Y278951D02*
X1461620Y258951D01*
X1455620Y258951D01*
X1455620Y278951D01*
X1461620Y278951D01*
G54D29*
X1474320Y278951D02*
X1474320Y258951D01*
X1468320Y258951D01*
X1468320Y278951D01*
X1474320Y278951D01*
G54D29*
X1487020Y278951D02*
X1487020Y258951D01*
X1481020Y258951D01*
X1481020Y278951D01*
X1487020Y278951D01*
G54D29*
X1499720Y278951D02*
X1499720Y258951D01*
X1493720Y258951D01*
X1493720Y278951D01*
X1499720Y278951D01*
G54D29*
X1512420Y278951D02*
X1512420Y258951D01*
X1506420Y258951D01*
X1506420Y278951D01*
X1512420Y278951D01*
G54D29*
X1525120Y278951D02*
X1525120Y258951D01*
X1519120Y258951D01*
X1519120Y278951D01*
X1525120Y278951D01*
G54D29*
X1537820Y278951D02*
X1537820Y258951D01*
X1531820Y258951D01*
X1531820Y278951D01*
X1537820Y278951D01*
G54D29*
X1550520Y278951D02*
X1550520Y258951D01*
X1544520Y258951D01*
X1544520Y278951D01*
X1550520Y278951D01*
G54D29*
X1563220Y278951D02*
X1563220Y258951D01*
X1557220Y258951D01*
X1557220Y278951D01*
X1563220Y278951D01*
G54D29*
X1575920Y278951D02*
X1575920Y258951D01*
X1569920Y258951D01*
X1569920Y278951D01*
X1575920Y278951D01*
G54D29*
X1588620Y278951D02*
X1588620Y258951D01*
X1582620Y258951D01*
X1582620Y278951D01*
X1588620Y278951D01*
G54D29*
X1588620Y372951D02*
X1588620Y352951D01*
X1582620Y352951D01*
X1582620Y372951D01*
X1588620Y372951D01*
G54D29*
X1575920Y372951D02*
X1575920Y352951D01*
X1569920Y352951D01*
X1569920Y372951D01*
X1575920Y372951D01*
G54D29*
X1563220Y372951D02*
X1563220Y352951D01*
X1557220Y352951D01*
X1557220Y372951D01*
X1563220Y372951D01*
G54D29*
X1550520Y372951D02*
X1550520Y352951D01*
X1544520Y352951D01*
X1544520Y372951D01*
X1550520Y372951D01*
G54D29*
X1537820Y372951D02*
X1537820Y352951D01*
X1531820Y352951D01*
X1531820Y372951D01*
X1537820Y372951D01*
G54D29*
X1525120Y372951D02*
X1525120Y352951D01*
X1519120Y352951D01*
X1519120Y372951D01*
X1525120Y372951D01*
G54D29*
X1512420Y372951D02*
X1512420Y352951D01*
X1506420Y352951D01*
X1506420Y372951D01*
X1512420Y372951D01*
G54D29*
X1499720Y372951D02*
X1499720Y352951D01*
X1493720Y352951D01*
X1493720Y372951D01*
X1499720Y372951D01*
G54D29*
X1487020Y372951D02*
X1487020Y352951D01*
X1481020Y352951D01*
X1481020Y372951D01*
X1487020Y372951D01*
G54D29*
X1474320Y372951D02*
X1474320Y352951D01*
X1468320Y352951D01*
X1468320Y372951D01*
X1474320Y372951D01*
G54D29*
X1461620Y372951D02*
X1461620Y352951D01*
X1455620Y352951D01*
X1455620Y372951D01*
X1461620Y372951D01*
G54D29*
X1448920Y372951D02*
X1448920Y352951D01*
X1442920Y352951D01*
X1442920Y372951D01*
X1448920Y372951D01*
X538934Y49286D02*
G54D30*
D03*
X2343734Y391566D02*
G54D31*
D03*
X533834Y239166D02*
G54D31*
D03*
X533834Y213766D02*
G54D31*
D03*
X533834Y289966D02*
G54D31*
D03*
X533834Y264566D02*
G54D31*
D03*
X533834Y340766D02*
G54D31*
D03*
X533834Y315366D02*
G54D31*
D03*
X533834Y391566D02*
G54D31*
D03*
X533834Y366166D02*
G54D31*
D03*
X69834Y239166D02*
G54D31*
D03*
X69834Y213766D02*
G54D31*
D03*
X69834Y289966D02*
G54D31*
D03*
X69834Y264566D02*
G54D31*
D03*
X69834Y340766D02*
G54D31*
D03*
X69834Y315366D02*
G54D31*
D03*
X69834Y391566D02*
G54D31*
D03*
X69834Y366166D02*
G54D31*
D03*
X1137364Y239166D02*
G54D31*
D03*
X1137364Y213766D02*
G54D31*
D03*
X1137364Y289966D02*
G54D31*
D03*
X1137364Y264566D02*
G54D31*
D03*
X1137364Y340766D02*
G54D31*
D03*
X1137364Y315366D02*
G54D31*
D03*
X1137364Y391566D02*
G54D31*
D03*
X1137364Y366166D02*
G54D31*
D03*
X673364Y239166D02*
G54D31*
D03*
X673364Y213766D02*
G54D31*
D03*
X673364Y289966D02*
G54D31*
D03*
X673364Y264566D02*
G54D31*
D03*
X673364Y340766D02*
G54D31*
D03*
X673364Y315366D02*
G54D31*
D03*
X673364Y391566D02*
G54D31*
D03*
X673364Y366166D02*
G54D31*
D03*
X1740554Y239166D02*
G54D31*
D03*
X1740554Y213766D02*
G54D31*
D03*
X1740554Y289966D02*
G54D31*
D03*
X1740554Y264566D02*
G54D31*
D03*
X1740554Y340766D02*
G54D31*
D03*
X1740554Y315366D02*
G54D31*
D03*
X1740554Y391566D02*
G54D31*
D03*
X1740554Y366166D02*
G54D31*
D03*
X1276554Y239166D02*
G54D31*
D03*
X1276554Y213766D02*
G54D31*
D03*
X1276554Y289966D02*
G54D31*
D03*
X1276554Y264566D02*
G54D31*
D03*
X1276554Y340766D02*
G54D31*
D03*
X1276554Y315366D02*
G54D31*
D03*
X1276554Y391566D02*
G54D31*
D03*
X1276554Y366166D02*
G54D31*
D03*
X2343734Y239166D02*
G54D31*
D03*
X2343734Y213766D02*
G54D31*
D03*
X2343734Y289966D02*
G54D31*
D03*
X2343734Y264566D02*
G54D31*
D03*
X2343734Y340766D02*
G54D31*
D03*
X2343734Y315366D02*
G54D31*
D03*
X2343734Y366166D02*
G54D31*
D03*
X1879734Y239166D02*
G54D31*
D03*
X1879734Y213766D02*
G54D31*
D03*
X1879734Y289966D02*
G54D31*
D03*
X1879734Y264566D02*
G54D31*
D03*
X1879734Y340766D02*
G54D31*
D03*
X1879734Y315366D02*
G54D31*
D03*
X1879734Y391566D02*
G54D31*
D03*
X1879734Y366166D02*
G54D31*
D03*
X50800Y565150D02*
G54D32*
D03*
X50800Y44450D02*
G54D32*
D03*
X2362200Y44450D02*
G54D32*
D03*
X2362200Y565150D02*
G54D32*
D03*
X19050Y622300D02*
G54D23*
D03*
X107950Y-12700D02*
G54D23*
D03*
X2425700Y596900D02*
G54D23*
D03*
X2298700Y-12700D02*
G54D23*
D03*
G54D33*
X1358424Y72133D02*
X1363402Y70578D01*
X1365890Y67467D01*
X1365890Y51911D01*
X1363402Y48800D01*
X1358424Y47244D01*
G54D33*
X1337268Y60311D02*
X1342246Y61244D01*
X1347224Y60311D01*
X1349712Y57200D01*
X1349712Y50978D01*
X1347224Y47867D01*
X1342246Y47244D01*
X1337268Y47867D01*
G54D33*
X1328558Y72133D02*
X1323580Y70578D01*
X1321091Y67467D01*
X1321091Y51911D01*
X1323580Y48800D01*
X1328558Y47244D01*
G54D33*
X1312380Y47244D02*
X1292468Y47244D01*
G54D33*
X1302424Y47244D02*
X1302424Y72133D01*
G54D33*
X1312380Y72133D02*
X1292468Y72133D01*
G54D33*
X1283758Y61244D02*
X1273802Y47244D01*
X1263846Y61244D01*
G54D33*
X1255136Y59689D02*
X1250158Y61244D01*
X1244184Y61244D01*
X1240202Y58133D01*
X1240202Y47244D01*
G54D33*
X1240202Y51911D02*
X1242691Y55022D01*
X1247669Y55644D01*
X1252647Y55022D01*
X1255136Y51911D01*
X1254140Y48800D01*
X1250158Y47244D01*
X1247669Y47244D01*
X1246673Y47244D01*
X1242691Y48800D01*
X1240202Y51911D01*
G54D33*
X1231492Y47244D02*
X1231492Y61244D01*
G54D33*
X1231492Y58133D02*
X1229003Y60311D01*
X1224025Y61244D01*
X1219047Y60311D01*
X1216558Y58133D01*
X1216558Y47244D01*
G54D33*
X1207848Y47244D02*
X1182959Y47244D01*
G54D33*
X1169270Y47244D02*
X1169270Y70578D01*
X1166781Y72133D01*
X1164292Y71200D01*
G54D33*
X1174248Y61244D02*
X1164292Y61244D01*
G54D33*
X1140647Y47244D02*
X1140647Y72133D01*
G54D33*
X1140647Y57200D02*
X1143136Y60311D01*
X1148114Y61244D01*
X1153092Y60311D01*
X1155580Y57200D01*
X1155580Y50978D01*
X1153092Y47867D01*
X1148114Y47244D01*
X1143136Y47867D01*
X1140647Y50978D01*
G54D33*
X1102816Y47244D02*
X1122728Y47244D01*
X1122728Y48800D01*
X1120239Y51911D01*
X1105305Y61244D01*
X1102816Y64356D01*
X1102816Y67467D01*
X1105305Y70578D01*
X1110283Y72133D01*
X1115261Y72133D01*
X1120239Y70578D01*
X1122728Y67467D01*
G54D33*
X1079172Y47244D02*
X1079172Y72133D01*
X1094106Y56578D01*
X1094106Y53467D01*
X1074194Y53467D01*
G54D33*
X1063492Y47244D02*
X1065484Y47244D01*
X1065484Y48489D01*
X1063492Y48489D01*
X1063492Y47244D01*
X1065484Y47244D01*
G54D33*
X1034870Y67467D02*
X1034870Y51911D01*
X1037359Y48800D01*
X1042337Y47244D01*
X1047315Y47244D01*
X1052293Y48800D01*
X1054782Y51911D01*
X1054782Y67467D01*
X1052293Y70578D01*
X1047315Y72133D01*
X1042337Y72133D01*
X1037359Y70578D01*
X1034870Y67467D01*
G54D33*
X1006248Y47244D02*
X1026160Y47244D01*
X1026160Y48800D01*
X1023671Y51911D01*
X1008737Y61244D01*
X1006248Y64356D01*
X1006248Y67467D01*
X1008737Y70578D01*
X1013715Y72133D01*
X1018693Y72133D01*
X1023671Y70578D01*
X1026160Y67467D01*
G54D33*
X995546Y47244D02*
X997538Y47244D01*
X997538Y48489D01*
X995546Y48489D01*
X995546Y47244D01*
X997538Y47244D01*
G54D33*
X966924Y47244D02*
X986836Y47244D01*
X986836Y48800D01*
X984347Y51911D01*
X969413Y61244D01*
X966924Y64356D01*
X966924Y67467D01*
X969413Y70578D01*
X974391Y72133D01*
X979369Y72133D01*
X984347Y70578D01*
X986836Y67467D01*
G54D33*
X938302Y67467D02*
X938302Y51911D01*
X940791Y48800D01*
X945769Y47244D01*
X950747Y47244D01*
X955725Y48800D01*
X958214Y51911D01*
X958214Y67467D01*
X955725Y70578D01*
X950747Y72133D01*
X945769Y72133D01*
X940791Y70578D01*
X938302Y67467D01*
G54D33*
X929592Y62800D02*
X917147Y72133D01*
X917147Y47244D01*
G54D33*
X888525Y67467D02*
X891014Y70578D01*
X895992Y72133D01*
X900970Y72133D01*
X905948Y70578D01*
X908436Y67467D01*
X908436Y59689D01*
X908436Y58133D01*
X900970Y61244D01*
X895992Y61244D01*
X891014Y59689D01*
X888525Y56578D01*
X888525Y51911D01*
X891014Y48800D01*
X895992Y47244D01*
X900970Y47244D01*
X905948Y48800D01*
X908436Y51911D01*
X908436Y59689D01*
G54D34*
X2184400Y520700D02*
X2184400Y556256D01*
X2166622Y556256D01*
X2159511Y554033D01*
X2155956Y549589D01*
X2155956Y545144D01*
X2159511Y540700D01*
X2166622Y538478D01*
X2159511Y536256D01*
X2155956Y531811D01*
X2155956Y527367D01*
X2159511Y522922D01*
X2166622Y520700D01*
X2184400Y520700D01*
G54D34*
X2184400Y538478D02*
X2166622Y538478D01*
G54D34*
X2115068Y549589D02*
X2115068Y527367D01*
X2118623Y522922D01*
X2125734Y520700D01*
X2132846Y520700D01*
X2139956Y522922D01*
X2143512Y527367D01*
X2143512Y549589D01*
X2139956Y554033D01*
X2132846Y556256D01*
X2125734Y556256D01*
X2118623Y554033D01*
X2115068Y549589D01*
G54D34*
X2088402Y520700D02*
X2088402Y556256D01*
G54D34*
X2102624Y556256D02*
X2074180Y556256D01*
G54D34*
X2047514Y520700D02*
X2047514Y556256D01*
G54D34*
X2061736Y556256D02*
X2033292Y556256D01*
G54D34*
X1992404Y549589D02*
X1992404Y527367D01*
X1995959Y522922D01*
X2003070Y520700D01*
X2010181Y520700D01*
X2017292Y522922D01*
X2020848Y527367D01*
X2020848Y549589D01*
X2017292Y554033D01*
X2010181Y556256D01*
X2003070Y556256D01*
X1995959Y554033D01*
X1992404Y549589D01*
G54D34*
X1979960Y520700D02*
X1979960Y556256D01*
X1962182Y534033D01*
X1944404Y556256D01*
X1944404Y520700D01*
M02*
