%FSLAX34Y34*%
%MOMM*%
%LNCOPPER_TOP*%
G71*
G01*
%ADD10C, 2.600*%
%ADD11C, 0.933*%
%ADD12C, 3.400*%
%ADD13C, 3.000*%
%ADD14C, 4.600*%
%ADD15C, 4.600*%
%ADD16C, 4.900*%
%ADD17C, 3.700*%
%ADD18C, 3.450*%
%ADD19C, 5.600*%
%ADD20C, 2.600*%
%ADD21C, 2.876*%
%ADD22C, 3.035*%
%ADD23C, 0.333*%
%ADD24C, 0.800*%
%ADD25C, 0.400*%
%ADD26C, 2.000*%
%ADD27C, 2.000*%
%ADD28C, 2.300*%
%ADD29C, 1.100*%
%ADD30C, 0.850*%
%ADD31C, 5.000*%
%ADD32C, 0.476*%
%ADD33C, 0.635*%
%LPD*%
G36*
X-50000Y655332D02*
X2463571Y655332D01*
X2463571Y-50000D01*
X-50000Y-50000D01*
X-50000Y655332D01*
G37*
%LPC*%
G36*
X527440Y37786D02*
X550440Y37786D01*
X550440Y60786D01*
X527440Y60786D01*
X527440Y37786D01*
G37*
G54D10*
X527440Y37786D02*
X550440Y37786D01*
X550440Y60786D01*
X527440Y60786D01*
X527440Y37786D01*
G36*
X2082289Y277735D02*
X2097289Y277735D01*
X2097289Y290735D01*
X2082289Y290735D01*
X2082289Y277735D01*
G37*
G54D10*
X2082289Y277735D02*
X2097289Y277735D01*
X2097289Y290735D01*
X2082289Y290735D01*
X2082289Y277735D01*
G36*
X2082289Y296735D02*
X2097289Y296735D01*
X2097289Y309735D01*
X2082289Y309735D01*
X2082289Y296735D01*
G37*
G54D10*
X2082289Y296735D02*
X2097289Y296735D01*
X2097289Y309735D01*
X2082289Y309735D01*
X2082289Y296735D01*
G36*
X1480665Y299934D02*
X1495665Y299934D01*
X1495665Y312934D01*
X1480665Y312934D01*
X1480665Y299934D01*
G37*
G54D10*
X1480665Y299934D02*
X1495665Y299934D01*
X1495665Y312934D01*
X1480665Y312934D01*
X1480665Y299934D01*
G36*
X1480665Y318934D02*
X1495665Y318934D01*
X1495665Y331934D01*
X1480665Y331934D01*
X1480665Y318934D01*
G37*
G54D10*
X1480665Y318934D02*
X1495665Y318934D01*
X1495665Y331934D01*
X1480665Y331934D01*
X1480665Y318934D01*
G36*
X267943Y303156D02*
X282943Y303156D01*
X282943Y316156D01*
X267943Y316156D01*
X267943Y303156D01*
G37*
G54D10*
X267943Y303156D02*
X282943Y303156D01*
X282943Y316156D01*
X267943Y316156D01*
X267943Y303156D01*
G36*
X267943Y322156D02*
X282943Y322156D01*
X282943Y335156D01*
X267943Y335156D01*
X267943Y322156D01*
G37*
G54D10*
X267943Y322156D02*
X282943Y322156D01*
X282943Y335156D01*
X267943Y335156D01*
X267943Y322156D01*
G36*
X864780Y318982D02*
X879780Y318982D01*
X879780Y331982D01*
X864780Y331982D01*
X864780Y318982D01*
G37*
G54D10*
X864780Y318982D02*
X879780Y318982D01*
X879780Y331982D01*
X864780Y331982D01*
X864780Y318982D01*
G36*
X864780Y337982D02*
X879780Y337982D01*
X879780Y350982D01*
X864780Y350982D01*
X864780Y337982D01*
G37*
G54D10*
X864780Y337982D02*
X879780Y337982D01*
X879780Y350982D01*
X864780Y350982D01*
X864780Y337982D01*
G54D11*
X7183Y1666D02*
X7183Y603666D01*
X2407183Y603666D01*
X2407183Y1666D01*
X7183Y1666D01*
G54D12*
X1316298Y435476D02*
X1469997Y399121D01*
X1484572Y332792D01*
G54D12*
G75*
G01X1316217Y435495D02*
G03X1312729Y435892I-3488J-15108D01*
G01*
G54D12*
X1248422Y435892D02*
X1312729Y435892D01*
G54D12*
G75*
G01X1248422Y435892D02*
G03X1248151Y435890I0J-15505D01*
G01*
G54D12*
X1113210Y434462D02*
X1248258Y435891D01*
G54D12*
G75*
G01X1113103Y434461D02*
G03X1103828Y431176I271J-15503D01*
G01*
G54D12*
X1064887Y400625D02*
X1103804Y431157D01*
G54D12*
G75*
G01X1037511Y401315D02*
G03X1064853Y400599I14105J16226D01*
G01*
G54D12*
X993731Y438941D02*
X1037602Y401236D01*
G54D12*
G75*
G01X993822Y438862D02*
G03X967694Y440460I-14105J-16226D01*
G01*
G54D12*
X937710Y419207D02*
X944899Y424827D01*
X967557Y440367D01*
G54D12*
X290116Y407717D02*
X358637Y405224D01*
X318825Y349110D01*
X402949Y352194D01*
G54D12*
X882601Y439606D02*
X906193Y422664D01*
X870060Y422143D01*
X870060Y350982D01*
X870060Y346982D01*
X872280Y344482D01*
G54D12*
X2089789Y303235D02*
X2089049Y305735D01*
X2089049Y309735D01*
X2089049Y381483D01*
X1908824Y422150D01*
G54D12*
G75*
G01X417557Y347178D02*
G03X402987Y352195I-13820J-16470D01*
G01*
G54D12*
X448217Y321292D02*
X417607Y347136D01*
G54D12*
G75*
G01X455014Y310790D02*
G03X448167Y321334I-20667J-5926D01*
G01*
G54D12*
X493272Y179535D02*
X454988Y310880D01*
G54D12*
G75*
G01X493254Y179600D02*
G03X502100Y169602I14904J4274D01*
G01*
G54D12*
X634258Y112887D02*
X502043Y169626D01*
G54D12*
G75*
G01X644012Y104522D02*
G03X634180Y112920I-18233J-11393D01*
G01*
G54D12*
X678940Y49286D02*
X643951Y104620D01*
G54D12*
X1582462Y400384D02*
X1517909Y409089D01*
X1469997Y399121D01*
G54D12*
G75*
G01X1582343Y400400D02*
G03X1588698Y400456I2992J21291D01*
G01*
G54D12*
X1714356Y421479D02*
X1588883Y400486D01*
G54D12*
G75*
G01X1715017Y421534D02*
G03X1714390Y421485I0J-4005D01*
G01*
G54D12*
X1907942Y422248D02*
X1854352Y422248D01*
X1854331Y422248D01*
X1714996Y421534D01*
G54D12*
G75*
G01X1908843Y422145D02*
G03X1907942Y422248I-901J-3902D01*
G01*
G54D12*
G75*
G01X1484665Y331934D02*
G03X1484578Y332766I-4000J0D01*
G01*
G54D12*
X1488165Y325434D02*
X1484665Y327934D01*
X1484665Y331934D01*
G54D12*
G75*
G01X882697Y439537D02*
G03X868935Y443614I-12637J-17394D01*
G01*
G54D12*
X507961Y425815D02*
X869001Y443617D01*
G54D12*
G75*
G01X507948Y425814D02*
G03X507601Y425781I210J-3999D01*
G01*
G54D12*
X358637Y405224D02*
X507610Y425782D01*
G54D12*
X944885Y424845D02*
X944899Y424827D01*
X943602Y418076D01*
G54D12*
G75*
G01X944901Y424825D02*
G03X936125Y428193I-7191J-5618D01*
G01*
G54D12*
X906193Y422664D02*
X936052Y428180D01*
G54D12*
X2089049Y381483D02*
X2165509Y380302D01*
G54D12*
X284772Y331599D02*
X318825Y349110D01*
G54D12*
G75*
G01X282943Y331156D02*
G03X284759Y331592I0J4000D01*
G01*
G54D12*
X275443Y328656D02*
X278943Y331156D01*
X282943Y331156D01*
G54D12*
X876006Y317657D02*
X901650Y244581D01*
G54D12*
G75*
G01X875780Y318982D02*
G03X875998Y317680I4000J0D01*
G01*
G54D12*
X872280Y325482D02*
X875780Y322982D01*
X875780Y318982D01*
G54D12*
X1463095Y223819D02*
X1501853Y233966D01*
X1491712Y299321D01*
G54D12*
G75*
G01X1462975Y223787D02*
G03X1447158Y205267I5565J-20767D01*
G01*
G54D12*
X1451725Y162904D02*
X1445813Y191412D01*
X1447140Y205096D01*
G54D12*
X2028016Y236908D02*
X2078540Y188292D01*
X2086274Y277389D01*
G54D12*
G75*
G01X2028044Y236881D02*
G03X1999578Y238124I-14935J-15466D01*
G01*
G54D12*
X1917636Y172487D02*
X1999668Y238195D01*
G54D12*
G75*
G01X1908755Y169104D02*
G03X1917701Y172538I-812J15484D01*
G01*
G54D12*
X1473928Y145801D02*
X1908773Y169105D01*
G54D12*
G75*
G01X1451747Y162800D02*
G03X1473902Y145799I21030J4470D01*
G01*
G54D12*
X267943Y312156D02*
X271943Y312156D01*
X275443Y309656D01*
X271943Y307156D01*
X271943Y303156D01*
X271943Y303106D01*
X271102Y235415D01*
G54D12*
G75*
G01X265187Y312543D02*
G03X267943Y312156I2756J9613D01*
G01*
G54D12*
X183390Y335312D02*
X265261Y312522D01*
G54D12*
G75*
G01X183550Y335267D02*
G03X156389Y311237I-5926J-20667D01*
G01*
G54D12*
X166167Y248600D02*
X156381Y311284D01*
G54D12*
G75*
G01X166178Y248528D02*
G03X174637Y231184I32594J5162D01*
G01*
G54D12*
X218669Y184764D02*
X174830Y230979D01*
G54D12*
G75*
G01X218476Y184969D02*
G03X219687Y183737I24135J22506D01*
G01*
G54D12*
X261451Y142851D02*
X219526Y183893D01*
G54D12*
G75*
G01X261612Y142695D02*
G03X274888Y134875I22924J23738D01*
G01*
G54D12*
X526256Y56965D02*
X274766Y134912D01*
G54D12*
G75*
G01X526270Y56961D02*
G03X527440Y56786I1170J3825D01*
G01*
G54D12*
X546440Y37786D02*
X546440Y41786D01*
X538940Y49286D01*
X531440Y56786D01*
X527440Y56786D01*
G54D12*
X1445813Y191412D02*
X919120Y145577D01*
X695933Y19261D01*
G54D12*
G75*
G01X1491665Y299934D02*
G03X1491714Y299308I4000J0D01*
G01*
G54D12*
X1488165Y306434D02*
X1491665Y303934D01*
X1491665Y299934D01*
G54D12*
G75*
G01X678940Y14786D02*
G03X696190Y19408I0J34500D01*
G01*
G54D12*
X608940Y14786D02*
X678940Y14786D01*
G54D12*
G75*
G01X597708Y16665D02*
G03X608940Y14785I11232J32621D01*
G01*
G54D12*
X566383Y27563D02*
X597604Y16701D01*
G54D12*
G75*
G01X566074Y27673D02*
G03X566452Y27539I7866J21613D01*
G01*
G54D12*
X549040Y34039D02*
X565887Y27742D01*
G54D12*
G75*
G01X546440Y37786D02*
G03X549072Y34027I4000J0D01*
G01*
G54D12*
G75*
G01X2086274Y277386D02*
G03X2086289Y277735I-3985J349D01*
G01*
G54D12*
X2089789Y284235D02*
X2086289Y281735D01*
X2086289Y277735D01*
G54D12*
X1466308Y394389D02*
X1455984Y402436D01*
X1468820Y405005D01*
G54D12*
X361638Y400029D02*
X350305Y393480D01*
X352742Y406341D01*
G54D12*
X944899Y424827D02*
X938034Y425198D01*
G54D12*
X872481Y427633D02*
X884459Y422351D01*
X872639Y416725D01*
G54D12*
X2094503Y378983D02*
X2089049Y367083D01*
X2083595Y378983D01*
G54D12*
X671507Y48283D02*
X669320Y64500D01*
X683033Y55571D01*
G54D12*
X1521116Y414160D02*
X1532180Y407165D01*
X1519658Y403350D01*
G54D12*
X2085409Y376712D02*
X2075002Y384653D01*
X2087811Y387354D01*
G54D12*
X355941Y399864D02*
X344247Y405748D01*
X356337Y410766D01*
G54D12*
X292812Y413077D02*
X304506Y407193D01*
X292416Y402175D01*
G54D12*
X1475860Y397849D02*
X1473087Y385057D01*
X1465206Y395509D01*
G54D12*
X360368Y410969D02*
X372902Y407193D01*
X361860Y400163D01*
G54D12*
X1516572Y403240D02*
X1503811Y406156D01*
X1514350Y413920D01*
G54D12*
X1471334Y404970D02*
X1484095Y402054D01*
X1473556Y394290D01*
G54D12*
X2162925Y374887D02*
X2151111Y380524D01*
X2163093Y385795D01*
G54D12*
X2091633Y386898D02*
X2103447Y381261D01*
X2091465Y375990D01*
G54D12*
X875514Y419643D02*
X870060Y407743D01*
X864606Y419643D01*
G54D12*
X895675Y245134D02*
X896882Y258169D01*
X905969Y248746D01*
G54D12*
X1500815Y228056D02*
X1487922Y230319D01*
X1498053Y238610D01*
G54D12*
X2072957Y186096D02*
X2068164Y198277D01*
X2080521Y193956D01*
G54D12*
X265679Y237983D02*
X271281Y249814D01*
X276587Y237847D01*
G54D12*
X921138Y151228D02*
X933466Y146825D01*
X922084Y140360D01*
G54D12*
X1496080Y235600D02*
X1499645Y248196D01*
X1506860Y237272D01*
G54D12*
X919631Y139599D02*
X906588Y138484D01*
X914257Y149093D01*
G54D12*
X2073322Y191255D02*
X2079785Y202638D01*
X2084190Y190311D01*
G54D13*
X2166016Y195313D02*
X2257416Y262297D01*
G54D13*
G75*
G01X2160190Y192393D02*
G03X2165951Y195265I-5701J18648D01*
G01*
G54D13*
X2084135Y169612D02*
X2160084Y192361D01*
G54D13*
G75*
G01X2065492Y173801D02*
G03X2084241Y169644I13048J14491D01*
G01*
G54D13*
X2013109Y221415D02*
X2065424Y173862D01*
G54D13*
X2261180Y281430D02*
X2301979Y273404D01*
G54D13*
G75*
G01X2261137Y281439D02*
G03X2245954Y278073I-3721J-19142D01*
G01*
G54D13*
X2154489Y211041D02*
X2245889Y278025D01*
G54D13*
X1512780Y217815D02*
X1695163Y341213D01*
G54D13*
G75*
G01X1507554Y215318D02*
G03X1512757Y217800I-5701J18648D01*
G01*
G54D13*
X1468540Y203020D02*
X1507715Y215368D01*
G54D13*
X1635267Y269916D02*
X1695781Y300024D01*
G54D13*
X900932Y213589D02*
X729728Y217555D01*
G54D13*
G75*
G01X901109Y213586D02*
G03X903272Y213624I541J30995D01*
G01*
G54D13*
X957867Y216342D02*
X903192Y213619D01*
G54D13*
X898001Y225425D02*
X783208Y247291D01*
G54D13*
G75*
G01X897929Y225439D02*
G03X909581Y226767I3721J19142D01*
G01*
G54D13*
X973334Y254624D02*
X909458Y226712D01*
G54D13*
X288036Y209449D02*
X434347Y304864D01*
G54D13*
G75*
G01X267324Y204646D02*
G03X287986Y209416I3778J30769D01*
G01*
G54D13*
X242611Y207475D02*
X267575Y204616D01*
G54D13*
X1908014Y182584D02*
X1472777Y167270D01*
G54D13*
G75*
G01X1908013Y182584D02*
G03X1909644Y183526I-70J2004D01*
G01*
G54D13*
X2000487Y330046D02*
X1909647Y183531D01*
G54D13*
X1111825Y420232D02*
X1071193Y370830D01*
G54D13*
G75*
G01X1113339Y420963D02*
G03X1111816Y420220I35J-2005D01*
G01*
G54D13*
X1312729Y422392D02*
X1248422Y422392D01*
X1248401Y422392D01*
X1113353Y420963D01*
G54D13*
G75*
G01X1313850Y422049D02*
G03X1312729Y422392I-1121J-1662D01*
G01*
G54D13*
X1400070Y364094D02*
X1313848Y422051D01*
G54D13*
X496100Y140738D02*
X284536Y166433D01*
G54D13*
X586540Y66086D02*
X608940Y49286D01*
G54D13*
G75*
G01X586578Y66057D02*
G03X579375Y69570I-12638J-16771D01*
G01*
G54D13*
X279626Y147561D02*
X579228Y69609D01*
G54D13*
G75*
G01X270990Y152406D02*
G03X279489Y147597I13546J14027D01*
G01*
G54D13*
X228970Y193540D02*
X270895Y152498D01*
G54D13*
G75*
G01X228350Y194176D02*
G03X229065Y193448I14261J13299D01*
G01*
G54D13*
X184625Y240270D02*
X228464Y194055D01*
G54D13*
G75*
G01X179284Y253009D02*
G03X184511Y240391I19488J681D01*
G01*
G54D13*
X177624Y314600D02*
X179279Y253165D01*
G54D13*
X2210554Y409472D02*
X2301042Y324947D01*
G54D13*
X1631014Y331149D02*
X1683671Y381449D01*
G54D13*
X979717Y422636D02*
X1093622Y318315D01*
G54D13*
X156867Y342780D02*
X112645Y310207D01*
G54D13*
G75*
G01X170347Y348835D02*
G03X157052Y342916I7277J-34235D01*
G01*
G54D13*
X197690Y354574D02*
X170435Y348854D01*
G54D13*
X251971Y224582D02*
X198772Y253690D01*
G54D13*
G75*
G01X253231Y223828D02*
G03X252064Y224529I-10620J-16353D01*
G01*
G54D13*
X260386Y219124D02*
X253327Y223766D01*
G54D13*
G75*
G01X260482Y219062D02*
G03X284400Y221154I10620J16353D01*
G01*
G54D13*
X403737Y330708D02*
X284289Y221050D01*
G54D13*
X464841Y322044D02*
X438419Y368942D01*
G54D13*
G75*
G01X467991Y314511D02*
G03X464959Y321832I-33644J-9647D01*
G01*
G54D13*
X506233Y183313D02*
X467949Y314658D01*
G54D13*
G75*
G01X506231Y183321D02*
G03X507375Y182028I1927J553D01*
G01*
G54D13*
X639582Y125292D02*
X507367Y182031D01*
G54D13*
G75*
G01X644841Y122482D02*
G03X639455Y125347I-19062J-29353D01*
G01*
G54D13*
X965505Y198400D02*
X701663Y86087D01*
X644657Y122601D01*
G54D13*
X1099171Y444248D02*
X1051616Y417541D01*
G54D13*
G75*
G01X1112868Y447959D02*
G03X1099312Y444326I506J-29001D01*
G01*
G54D13*
X1248115Y449390D02*
X1113067Y447961D01*
G54D13*
G75*
G01X1248422Y449392D02*
G03X1247916Y449388I0J-29005D01*
G01*
G54D13*
X1312729Y449392D02*
X1248422Y449392D01*
G54D13*
G75*
G01X1315761Y449233D02*
G03X1312729Y449392I-3032J-28846D01*
G01*
G54D13*
X1713213Y434941D02*
X1585335Y421691D01*
X1519923Y428485D01*
X1519881Y428489D01*
X1315662Y449243D01*
G54D13*
G75*
G01X1715017Y435034D02*
G03X1713187Y434938I0J-17505D01*
G01*
G54D13*
X1907942Y435748D02*
X1854352Y435748D01*
X1854262Y435748D01*
X1714927Y435034D01*
G54D13*
G75*
G01X1910378Y435578D02*
G03X1907942Y435748I-2436J-17335D01*
G01*
G54D13*
X2168203Y399615D02*
X1910360Y435580D01*
G54D13*
G75*
G01X2180448Y392837D02*
G03X2168223Y399613I-14939J-12535D01*
G01*
G54D13*
X2214827Y352293D02*
X2180382Y392914D01*
G54D13*
G75*
G01X965486Y198392D02*
G03X975947Y209037I-7619J17950D01*
G01*
G54D13*
X991414Y247319D02*
X975947Y209037D01*
G54D13*
G75*
G01X991414Y247319D02*
G03X992594Y251574I-18080J7305D01*
G01*
G54D13*
X1009944Y363927D02*
X992606Y251648D01*
G54D13*
X699918Y48317D02*
X701663Y86087D01*
G54D13*
G75*
G01X678940Y28286D02*
G03X699911Y48187I0J21000D01*
G01*
G54D13*
X608940Y28286D02*
X678940Y28286D01*
G54D13*
G75*
G01X596302Y32515D02*
G03X608940Y28286I12638J16771D01*
G01*
G54D13*
X573940Y49286D02*
X596340Y32486D01*
G54D13*
X643940Y49286D02*
X625779Y93129D01*
G54D13*
X2257907Y254312D02*
X2245479Y253548D01*
X2249949Y265170D01*
G54D13*
X2020836Y223487D02*
X2024061Y211460D01*
X2011782Y213525D01*
G54D13*
X2296437Y267635D02*
X2287457Y276261D01*
X2299035Y280843D01*
G54D13*
X2153998Y219026D02*
X2166426Y219790D01*
X2161956Y208168D01*
G54D13*
X1695353Y333215D02*
X1682905Y332919D01*
X1687809Y344365D01*
G54D13*
X1470641Y210739D02*
X1482655Y207469D01*
X1474687Y197901D01*
G54D13*
X1694907Y292072D02*
X1682530Y293431D01*
X1688911Y304124D01*
G54D13*
X1636141Y277868D02*
X1648518Y276509D01*
X1642137Y265816D01*
G54D13*
X734207Y224184D02*
X744524Y217212D01*
X733895Y210726D01*
G54D13*
X953883Y209405D02*
X943085Y215606D01*
X953213Y222849D01*
G54D13*
X788715Y253094D02*
X797747Y244522D01*
X786197Y239870D01*
G54D13*
X972066Y246725D02*
X959772Y248698D01*
X966676Y259061D01*
G54D13*
X434401Y296864D02*
X421950Y296780D01*
X427049Y308140D01*
G54D13*
X247673Y213670D02*
X257315Y205791D01*
X246141Y200296D01*
G54D13*
X1476863Y174148D02*
X1487568Y167790D01*
X1477335Y160696D01*
G54D13*
X2003929Y322824D02*
X1992688Y317467D01*
X1992487Y329918D01*
G54D13*
X1068742Y378445D02*
X1080594Y382260D01*
X1079138Y369895D01*
G54D13*
X1392726Y360920D02*
X1387787Y372350D01*
X1400236Y372092D01*
G54D13*
X289640Y172593D02*
X299228Y164649D01*
X288018Y159231D01*
G54D13*
X490996Y134578D02*
X481408Y142522D01*
X492618Y147940D01*
G54D13*
X599879Y46432D02*
X595900Y59066D01*
X609143Y58784D01*
G54D13*
X184469Y310458D02*
X178023Y299805D01*
X171013Y310096D01*
G54D13*
X2293287Y322981D02*
X2290227Y335050D01*
X2302477Y332817D01*
G54D13*
X2218309Y411438D02*
X2221369Y399369D01*
X2209119Y401602D01*
G54D13*
X1685193Y373595D02*
X1672969Y371226D01*
X1675895Y383329D01*
G54D13*
X1629492Y339003D02*
X1641716Y341372D01*
X1638790Y329269D01*
G54D13*
X1085887Y316273D02*
X1082708Y328311D01*
X1094979Y326199D01*
G54D13*
X987452Y424678D02*
X990631Y412640D01*
X978360Y414752D01*
G54D13*
X112136Y318190D02*
X124561Y318984D01*
X120118Y307352D01*
G54D13*
X194840Y347099D02*
X183206Y351534D01*
X192076Y360273D01*
G54D13*
X205797Y257519D02*
X211756Y246586D01*
X199335Y245709D01*
G54D13*
X405104Y322826D02*
X392835Y320699D01*
X396000Y332742D01*
G54D13*
X446406Y368479D02*
X445684Y356048D01*
X434678Y361871D01*
G54D13*
X1052090Y425526D02*
X1064520Y424788D01*
X1058682Y413790D01*
G54D13*
X1580339Y415443D02*
X1570614Y423220D01*
X1581729Y428833D01*
G54D13*
X1588942Y428832D02*
X1600056Y423216D01*
X1590330Y415442D01*
G54D13*
X2206897Y351238D02*
X2205255Y363581D01*
X2217163Y359944D01*
G54D13*
X1015936Y358626D02*
X1007685Y349300D01*
X1002632Y360680D01*
G54D13*
X583001Y52140D02*
X586980Y39506D01*
X573737Y39788D01*
G54D13*
X633652Y91710D02*
X631443Y79456D01*
X621216Y86558D01*
G54D13*
X634689Y51447D02*
X637702Y64345D01*
X648953Y57355D01*
G54D14*
X1874737Y391566D02*
X1884737Y391566D01*
G54D14*
X1874737Y366166D02*
X1884737Y366166D01*
G54D14*
X1874737Y340766D02*
X1884737Y340766D01*
G54D14*
X1874737Y315366D02*
X1884737Y315366D01*
G54D14*
X1874737Y289966D02*
X1884737Y289966D01*
G54D14*
X1874737Y264566D02*
X1884737Y264566D01*
G54D14*
X1874737Y239166D02*
X1884737Y239166D01*
G54D14*
X1874737Y213766D02*
X1884737Y213766D01*
G54D14*
X2338737Y391566D02*
X2348737Y391566D01*
G54D14*
X2338737Y366166D02*
X2348737Y366166D01*
G54D14*
X2338737Y340766D02*
X2348737Y340766D01*
G54D14*
X2338737Y315366D02*
X2348737Y315366D01*
G54D14*
X2338737Y289966D02*
X2348737Y289966D01*
G54D14*
X2338737Y264566D02*
X2348737Y264566D01*
G54D14*
X2338737Y239166D02*
X2348737Y239166D01*
G54D14*
X2338737Y213766D02*
X2348737Y213766D01*
G54D14*
X1271554Y391566D02*
X1281554Y391566D01*
G54D14*
X1271554Y366166D02*
X1281554Y366166D01*
G54D14*
X1271554Y340766D02*
X1281554Y340766D01*
G54D14*
X1271554Y315366D02*
X1281554Y315366D01*
G54D14*
X1271554Y289966D02*
X1281554Y289966D01*
G54D14*
X1271554Y264566D02*
X1281554Y264566D01*
G54D14*
X1271554Y239166D02*
X1281554Y239166D01*
G54D14*
X1271554Y213766D02*
X1281554Y213766D01*
G54D14*
X1735554Y391566D02*
X1745554Y391566D01*
G54D14*
X1735554Y366166D02*
X1745554Y366166D01*
G54D14*
X1735554Y340766D02*
X1745554Y340766D01*
G54D14*
X1735554Y315366D02*
X1745554Y315366D01*
G54D14*
X1735554Y289966D02*
X1745554Y289966D01*
G54D14*
X1735554Y264566D02*
X1745554Y264566D01*
G54D14*
X1735554Y239166D02*
X1745554Y239166D01*
G54D14*
X1735554Y213766D02*
X1745554Y213766D01*
G54D14*
X668364Y391566D02*
X678364Y391566D01*
G54D14*
X668364Y366166D02*
X678364Y366166D01*
G54D14*
X668364Y340766D02*
X678364Y340766D01*
G54D14*
X668364Y315366D02*
X678364Y315366D01*
G54D14*
X668364Y289966D02*
X678364Y289966D01*
G54D14*
X668364Y264566D02*
X678364Y264566D01*
G54D14*
X668364Y239166D02*
X678364Y239166D01*
G54D14*
X668364Y213766D02*
X678364Y213766D01*
G54D14*
X1132364Y391566D02*
X1142364Y391566D01*
G54D14*
X1132364Y366166D02*
X1142364Y366166D01*
G54D14*
X1132364Y340766D02*
X1142364Y340766D01*
G54D14*
X1132364Y315366D02*
X1142364Y315366D01*
G54D14*
X1132364Y289966D02*
X1142364Y289966D01*
G54D14*
X1132364Y264566D02*
X1142364Y264566D01*
G54D14*
X1132364Y239166D02*
X1142364Y239166D01*
G54D14*
X1132364Y213766D02*
X1142364Y213766D01*
G54D14*
X64834Y391566D02*
X74834Y391566D01*
G54D14*
X64834Y366166D02*
X74834Y366166D01*
G54D14*
X64834Y340766D02*
X74834Y340766D01*
G54D14*
X64834Y315366D02*
X74834Y315366D01*
G54D14*
X64834Y289966D02*
X74834Y289966D01*
G54D14*
X64834Y264566D02*
X74834Y264566D01*
G54D14*
X64834Y239166D02*
X74834Y239166D01*
G54D14*
X64834Y213766D02*
X74834Y213766D01*
G54D14*
X528834Y391566D02*
X538834Y391566D01*
G54D14*
X528834Y366166D02*
X538834Y366166D01*
G54D14*
X528834Y340766D02*
X538834Y340766D01*
G54D14*
X528834Y315366D02*
X538834Y315366D01*
G54D14*
X528834Y289966D02*
X538834Y289966D01*
G54D14*
X528834Y264566D02*
X538834Y264566D01*
G54D14*
X528834Y239166D02*
X538834Y239166D01*
G54D14*
X528834Y213766D02*
X538834Y213766D01*
X919120Y145577D02*
G54D15*
D03*
X870060Y422143D02*
G54D15*
D03*
X358637Y405224D02*
G54D15*
D03*
X1501853Y233966D02*
G54D15*
D03*
X1585335Y421691D02*
G54D15*
D03*
X2089049Y381483D02*
G54D15*
D03*
X1009944Y363927D02*
G54D15*
D03*
X271102Y235415D02*
G54D15*
D03*
X1469997Y399121D02*
G54D15*
D03*
X1517909Y409089D02*
G54D15*
D03*
X625779Y93129D02*
G54D15*
D03*
X937710Y419207D02*
G54D15*
D03*
X2078540Y188292D02*
G54D15*
D03*
X2257416Y262297D02*
G54D15*
D03*
X2013109Y221415D02*
G54D15*
D03*
X2301979Y273404D02*
G54D15*
D03*
X2154489Y211041D02*
G54D15*
D03*
X1695163Y341213D02*
G54D15*
D03*
X1468540Y203020D02*
G54D15*
D03*
X1695781Y300024D02*
G54D15*
D03*
X1635267Y269916D02*
G54D15*
D03*
X729728Y217555D02*
G54D15*
D03*
X957867Y216342D02*
G54D15*
D03*
X783208Y247291D02*
G54D15*
D03*
X973334Y254624D02*
G54D15*
D03*
X434347Y304864D02*
G54D15*
D03*
X242611Y207475D02*
G54D15*
D03*
X290116Y407717D02*
G54D15*
D03*
X2165509Y380302D02*
G54D15*
D03*
X1472777Y167270D02*
G54D15*
D03*
X2000487Y330046D02*
G54D15*
D03*
X1071193Y370830D02*
G54D15*
D03*
X1400070Y364094D02*
G54D15*
D03*
X284536Y166433D02*
G54D15*
D03*
X496100Y140738D02*
G54D15*
D03*
X177624Y314600D02*
G54D15*
D03*
X2301042Y324947D02*
G54D15*
D03*
X2210554Y409472D02*
G54D15*
D03*
X1683671Y381449D02*
G54D15*
D03*
X1631014Y331149D02*
G54D15*
D03*
X1093622Y318315D02*
G54D15*
D03*
X979717Y422636D02*
G54D15*
D03*
X112645Y310207D02*
G54D15*
D03*
X197690Y354574D02*
G54D15*
D03*
X198772Y253690D02*
G54D15*
D03*
X403737Y330708D02*
G54D15*
D03*
X2214827Y352293D02*
G54D15*
D03*
X1051616Y417541D02*
G54D15*
D03*
X438419Y368942D02*
G54D15*
D03*
X901650Y244581D02*
G54D15*
D03*
X678940Y49286D02*
G54D16*
D03*
X643940Y49286D02*
G54D16*
D03*
X608940Y49286D02*
G54D16*
D03*
X573940Y49286D02*
G54D16*
D03*
X538934Y49286D02*
G54D17*
D03*
X2343734Y391566D02*
G54D18*
D03*
X533834Y239166D02*
G54D18*
D03*
X533834Y213766D02*
G54D18*
D03*
X533834Y289966D02*
G54D18*
D03*
X533834Y264566D02*
G54D18*
D03*
X533834Y340766D02*
G54D18*
D03*
X533834Y315366D02*
G54D18*
D03*
X533834Y391566D02*
G54D18*
D03*
X533834Y366166D02*
G54D18*
D03*
X69834Y239166D02*
G54D18*
D03*
X69834Y213766D02*
G54D18*
D03*
X69834Y289966D02*
G54D18*
D03*
X69834Y264566D02*
G54D18*
D03*
X69834Y340766D02*
G54D18*
D03*
X69834Y315366D02*
G54D18*
D03*
X69834Y391566D02*
G54D18*
D03*
X69834Y366166D02*
G54D18*
D03*
X1137364Y239166D02*
G54D18*
D03*
X1137364Y213766D02*
G54D18*
D03*
X1137364Y289966D02*
G54D18*
D03*
X1137364Y264566D02*
G54D18*
D03*
X1137364Y340766D02*
G54D18*
D03*
X1137364Y315366D02*
G54D18*
D03*
X1137364Y391566D02*
G54D18*
D03*
X1137364Y366166D02*
G54D18*
D03*
X673364Y239166D02*
G54D18*
D03*
X673364Y213766D02*
G54D18*
D03*
X673364Y289966D02*
G54D18*
D03*
X673364Y264566D02*
G54D18*
D03*
X673364Y340766D02*
G54D18*
D03*
X673364Y315366D02*
G54D18*
D03*
X673364Y391566D02*
G54D18*
D03*
X673364Y366166D02*
G54D18*
D03*
X1740554Y239166D02*
G54D18*
D03*
X1740554Y213766D02*
G54D18*
D03*
X1740554Y289966D02*
G54D18*
D03*
X1740554Y264566D02*
G54D18*
D03*
X1740554Y340766D02*
G54D18*
D03*
X1740554Y315366D02*
G54D18*
D03*
X1740554Y391566D02*
G54D18*
D03*
X1740554Y366166D02*
G54D18*
D03*
X1276554Y239166D02*
G54D18*
D03*
X1276554Y213766D02*
G54D18*
D03*
X1276554Y289966D02*
G54D18*
D03*
X1276554Y264566D02*
G54D18*
D03*
X1276554Y340766D02*
G54D18*
D03*
X1276554Y315366D02*
G54D18*
D03*
X1276554Y391566D02*
G54D18*
D03*
X1276554Y366166D02*
G54D18*
D03*
X2343734Y239166D02*
G54D18*
D03*
X2343734Y213766D02*
G54D18*
D03*
X2343734Y289966D02*
G54D18*
D03*
X2343734Y264566D02*
G54D18*
D03*
X2343734Y340766D02*
G54D18*
D03*
X2343734Y315366D02*
G54D18*
D03*
X2343734Y366166D02*
G54D18*
D03*
X1879734Y239166D02*
G54D18*
D03*
X1879734Y213766D02*
G54D18*
D03*
X1879734Y289966D02*
G54D18*
D03*
X1879734Y264566D02*
G54D18*
D03*
X1879734Y340766D02*
G54D18*
D03*
X1879734Y315366D02*
G54D18*
D03*
X1879734Y391566D02*
G54D18*
D03*
X1879734Y366166D02*
G54D18*
D03*
X50800Y565150D02*
G54D19*
D03*
X50800Y44450D02*
G54D19*
D03*
X2362200Y44450D02*
G54D19*
D03*
X2362200Y565150D02*
G54D19*
D03*
X19050Y622300D02*
G54D20*
D03*
X107950Y-12700D02*
G54D20*
D03*
X2425700Y596900D02*
G54D20*
D03*
X2298700Y-12700D02*
G54D20*
D03*
G54D21*
X301464Y542922D02*
X296131Y541256D01*
X293464Y537922D01*
X293464Y521256D01*
X296131Y517922D01*
X301464Y516256D01*
G54D21*
X324130Y530256D02*
X318797Y531256D01*
X313464Y530256D01*
X310797Y526922D01*
X310797Y520256D01*
X313464Y516922D01*
X318797Y516256D01*
X324130Y516922D01*
G54D21*
X333463Y542922D02*
X338796Y541256D01*
X341463Y537922D01*
X341463Y521256D01*
X338796Y517922D01*
X333463Y516256D01*
G54D21*
X350796Y516256D02*
X372129Y516256D01*
G54D21*
X361463Y516256D02*
X361463Y542922D01*
G54D21*
X350796Y542922D02*
X372129Y542922D01*
G54D21*
X381462Y531256D02*
X392129Y516256D01*
X402795Y531256D01*
G54D21*
X412128Y529589D02*
X417461Y531256D01*
X423861Y531256D01*
X428128Y527922D01*
X428128Y516256D01*
G54D21*
X428128Y521256D02*
X425461Y524589D01*
X420128Y525256D01*
X414795Y524589D01*
X412128Y521256D01*
X413195Y517922D01*
X417461Y516256D01*
X420128Y516256D01*
X421195Y516256D01*
X425461Y517922D01*
X428128Y521256D01*
G54D21*
X437461Y516256D02*
X437461Y531256D01*
G54D21*
X437461Y527922D02*
X440128Y530256D01*
X445461Y531256D01*
X450794Y530256D01*
X453461Y527922D01*
X453461Y516256D01*
G54D21*
X462794Y516256D02*
X489461Y516256D01*
G54D21*
X504127Y516256D02*
X504127Y541256D01*
X506794Y542922D01*
X509461Y541922D01*
G54D21*
X498794Y531256D02*
X509461Y531256D01*
G54D21*
X534794Y516256D02*
X534794Y542922D01*
G54D21*
X534794Y526922D02*
X532127Y530256D01*
X526794Y531256D01*
X521461Y530256D01*
X518794Y526922D01*
X518794Y520256D01*
X521461Y516922D01*
X526794Y516256D01*
X532127Y516922D01*
X534794Y520256D01*
G54D21*
X575326Y516256D02*
X553993Y516256D01*
X553993Y517922D01*
X556660Y521256D01*
X572660Y531256D01*
X575326Y534589D01*
X575326Y537922D01*
X572660Y541256D01*
X567326Y542922D01*
X561993Y542922D01*
X556660Y541256D01*
X553993Y537922D01*
G54D21*
X600659Y516256D02*
X600659Y542922D01*
X584659Y526256D01*
X584659Y522922D01*
X605992Y522922D01*
G54D21*
X617458Y516256D02*
X615325Y516256D01*
X615325Y517589D01*
X617458Y517589D01*
X617458Y516256D01*
X615325Y516256D01*
G54D21*
X648124Y537922D02*
X648124Y521256D01*
X645458Y517922D01*
X640124Y516256D01*
X634791Y516256D01*
X629458Y517922D01*
X626791Y521256D01*
X626791Y537922D01*
X629458Y541256D01*
X634791Y542922D01*
X640124Y542922D01*
X645458Y541256D01*
X648124Y537922D01*
G54D21*
X678790Y516256D02*
X657457Y516256D01*
X657457Y517922D01*
X660124Y521256D01*
X676124Y531256D01*
X678790Y534589D01*
X678790Y537922D01*
X676124Y541256D01*
X670790Y542922D01*
X665457Y542922D01*
X660124Y541256D01*
X657457Y537922D01*
G54D21*
X690256Y516256D02*
X688123Y516256D01*
X688123Y517589D01*
X690256Y517589D01*
X690256Y516256D01*
X688123Y516256D01*
G54D21*
X720922Y516256D02*
X699589Y516256D01*
X699589Y517922D01*
X702256Y521256D01*
X718256Y531256D01*
X720922Y534589D01*
X720922Y537922D01*
X718256Y541256D01*
X712922Y542922D01*
X707589Y542922D01*
X702256Y541256D01*
X699589Y537922D01*
G54D21*
X751588Y537922D02*
X751588Y521256D01*
X748922Y517922D01*
X743588Y516256D01*
X738255Y516256D01*
X732922Y517922D01*
X730255Y521256D01*
X730255Y537922D01*
X732922Y541256D01*
X738255Y542922D01*
X743588Y542922D01*
X748922Y541256D01*
X751588Y537922D01*
G54D21*
X760921Y532922D02*
X774254Y542922D01*
X774254Y516256D01*
G54D21*
X804920Y537922D02*
X802254Y541256D01*
X796920Y542922D01*
X791587Y542922D01*
X786254Y541256D01*
X783587Y537922D01*
X783587Y529589D01*
X783587Y527922D01*
X791587Y531256D01*
X796920Y531256D01*
X802254Y529589D01*
X804920Y526256D01*
X804920Y521256D01*
X802254Y517922D01*
X796920Y516256D01*
X791587Y516256D01*
X786254Y517922D01*
X783587Y521256D01*
X783587Y529589D01*
G54D22*
X2173222Y50800D02*
X2173222Y86356D01*
G54D22*
X2159000Y86356D02*
X2187444Y86356D01*
G54D22*
X2228332Y79689D02*
X2228332Y57467D01*
X2224777Y53022D01*
X2217666Y50800D01*
X2210555Y50800D01*
X2203444Y53022D01*
X2199888Y57467D01*
X2199888Y79689D01*
X2203444Y84133D01*
X2210555Y86356D01*
X2217666Y86356D01*
X2224777Y84133D01*
X2228332Y79689D01*
G54D22*
X2240776Y50800D02*
X2240776Y86356D01*
X2258554Y86356D01*
X2265665Y84133D01*
X2269220Y79689D01*
X2269220Y75244D01*
X2265665Y70800D01*
X2258554Y68578D01*
X2240776Y68578D01*
%LPD*%
G36*
X527440Y37786D02*
X550440Y37786D01*
X550440Y60786D01*
X527440Y60786D01*
X527440Y37786D01*
G37*
G36*
X2082289Y277735D02*
X2097289Y277735D01*
X2097289Y290735D01*
X2082289Y290735D01*
X2082289Y277735D01*
G37*
G36*
X2082289Y296735D02*
X2097289Y296735D01*
X2097289Y309735D01*
X2082289Y309735D01*
X2082289Y296735D01*
G37*
G36*
X1480665Y299934D02*
X1495665Y299934D01*
X1495665Y312934D01*
X1480665Y312934D01*
X1480665Y299934D01*
G37*
G36*
X1480665Y318934D02*
X1495665Y318934D01*
X1495665Y331934D01*
X1480665Y331934D01*
X1480665Y318934D01*
G37*
G36*
X267943Y303156D02*
X282943Y303156D01*
X282943Y316156D01*
X267943Y316156D01*
X267943Y303156D01*
G37*
G36*
X267943Y322156D02*
X282943Y322156D01*
X282943Y335156D01*
X267943Y335156D01*
X267943Y322156D01*
G37*
G36*
X864780Y318982D02*
X879780Y318982D01*
X879780Y331982D01*
X864780Y331982D01*
X864780Y318982D01*
G37*
G36*
X864780Y337982D02*
X879780Y337982D01*
X879780Y350982D01*
X864780Y350982D01*
X864780Y337982D01*
G37*
G54D23*
X7183Y1666D02*
X7183Y603666D01*
X2407183Y603666D01*
X2407183Y1666D01*
X7183Y1666D01*
G54D24*
X1316298Y435476D02*
X1469997Y399121D01*
X1484572Y332792D01*
G54D24*
G75*
G01X1316217Y435495D02*
G03X1312729Y435892I-3488J-15108D01*
G01*
G54D24*
X1248422Y435892D02*
X1312729Y435892D01*
G54D24*
G75*
G01X1248422Y435892D02*
G03X1248151Y435890I0J-15505D01*
G01*
G54D24*
X1113210Y434462D02*
X1248258Y435891D01*
G54D24*
G75*
G01X1113103Y434461D02*
G03X1103828Y431176I271J-15503D01*
G01*
G54D24*
X1064887Y400625D02*
X1103804Y431157D01*
G54D24*
G75*
G01X1037511Y401315D02*
G03X1064853Y400599I14105J16226D01*
G01*
G54D24*
X993731Y438941D02*
X1037602Y401236D01*
G54D24*
G75*
G01X993822Y438862D02*
G03X967694Y440460I-14105J-16226D01*
G01*
G54D24*
X937710Y419207D02*
X944899Y424827D01*
X967557Y440367D01*
G54D24*
X290116Y407717D02*
X358637Y405224D01*
X318825Y349110D01*
X402949Y352194D01*
G54D24*
X882601Y439606D02*
X906193Y422664D01*
X870060Y422143D01*
X870060Y350982D01*
X870060Y346982D01*
X872280Y344482D01*
G54D24*
X2089789Y303235D02*
X2089049Y305735D01*
X2089049Y309735D01*
X2089049Y381483D01*
X1908824Y422150D01*
G54D24*
G75*
G01X417557Y347178D02*
G03X402987Y352195I-13820J-16470D01*
G01*
G54D24*
X448217Y321292D02*
X417607Y347136D01*
G54D24*
G75*
G01X455014Y310790D02*
G03X448167Y321334I-20667J-5926D01*
G01*
G54D24*
X493272Y179535D02*
X454988Y310880D01*
G54D24*
G75*
G01X493254Y179600D02*
G03X502100Y169602I14904J4274D01*
G01*
G54D24*
X634258Y112887D02*
X502043Y169626D01*
G54D24*
G75*
G01X644012Y104522D02*
G03X634180Y112920I-18233J-11393D01*
G01*
G54D24*
X678940Y49286D02*
X643951Y104620D01*
G54D24*
X1582462Y400384D02*
X1517909Y409089D01*
X1469997Y399121D01*
G54D24*
G75*
G01X1582343Y400400D02*
G03X1588698Y400456I2992J21291D01*
G01*
G54D24*
X1714356Y421479D02*
X1588883Y400486D01*
G54D24*
G75*
G01X1715017Y421534D02*
G03X1714390Y421485I0J-4005D01*
G01*
G54D24*
X1907942Y422248D02*
X1854352Y422248D01*
X1854331Y422248D01*
X1714996Y421534D01*
G54D24*
G75*
G01X1908843Y422145D02*
G03X1907942Y422248I-901J-3902D01*
G01*
G54D24*
G75*
G01X1484665Y331934D02*
G03X1484578Y332766I-4000J0D01*
G01*
G54D24*
X1488165Y325434D02*
X1484665Y327934D01*
X1484665Y331934D01*
G54D24*
G75*
G01X882697Y439537D02*
G03X868935Y443614I-12637J-17394D01*
G01*
G54D24*
X507961Y425815D02*
X869001Y443617D01*
G54D24*
G75*
G01X507948Y425814D02*
G03X507601Y425781I210J-3999D01*
G01*
G54D24*
X358637Y405224D02*
X507610Y425782D01*
G54D24*
X944885Y424845D02*
X944899Y424827D01*
X943602Y418076D01*
G54D24*
G75*
G01X944901Y424825D02*
G03X936125Y428193I-7191J-5618D01*
G01*
G54D24*
X906193Y422664D02*
X936052Y428180D01*
G54D24*
X2089049Y381483D02*
X2165509Y380302D01*
G54D24*
X284772Y331599D02*
X318825Y349110D01*
G54D24*
G75*
G01X282943Y331156D02*
G03X284759Y331592I0J4000D01*
G01*
G54D24*
X275443Y328656D02*
X278943Y331156D01*
X282943Y331156D01*
G54D24*
X876006Y317657D02*
X901650Y244581D01*
G54D24*
G75*
G01X875780Y318982D02*
G03X875998Y317680I4000J0D01*
G01*
G54D24*
X872280Y325482D02*
X875780Y322982D01*
X875780Y318982D01*
G54D24*
X1463095Y223819D02*
X1501853Y233966D01*
X1491712Y299321D01*
G54D24*
G75*
G01X1462975Y223787D02*
G03X1447158Y205267I5565J-20767D01*
G01*
G54D24*
X1451725Y162904D02*
X1445813Y191412D01*
X1447140Y205096D01*
G54D24*
X2028016Y236908D02*
X2078540Y188292D01*
X2086274Y277389D01*
G54D24*
G75*
G01X2028044Y236881D02*
G03X1999578Y238124I-14935J-15466D01*
G01*
G54D24*
X1917636Y172487D02*
X1999668Y238195D01*
G54D24*
G75*
G01X1908755Y169104D02*
G03X1917701Y172538I-812J15484D01*
G01*
G54D24*
X1473928Y145801D02*
X1908773Y169105D01*
G54D24*
G75*
G01X1451747Y162800D02*
G03X1473902Y145799I21030J4470D01*
G01*
G54D24*
X267943Y312156D02*
X271943Y312156D01*
X275443Y309656D01*
X271943Y307156D01*
X271943Y303156D01*
X271943Y303106D01*
X271102Y235415D01*
G54D24*
G75*
G01X265187Y312543D02*
G03X267943Y312156I2756J9613D01*
G01*
G54D24*
X183390Y335312D02*
X265261Y312522D01*
G54D24*
G75*
G01X183550Y335267D02*
G03X156389Y311237I-5926J-20667D01*
G01*
G54D24*
X166167Y248600D02*
X156381Y311284D01*
G54D24*
G75*
G01X166178Y248528D02*
G03X174637Y231184I32594J5162D01*
G01*
G54D24*
X218669Y184764D02*
X174830Y230979D01*
G54D24*
G75*
G01X218476Y184969D02*
G03X219687Y183737I24135J22506D01*
G01*
G54D24*
X261451Y142851D02*
X219526Y183893D01*
G54D24*
G75*
G01X261612Y142695D02*
G03X274888Y134875I22924J23738D01*
G01*
G54D24*
X526256Y56965D02*
X274766Y134912D01*
G54D24*
G75*
G01X526270Y56961D02*
G03X527440Y56786I1170J3825D01*
G01*
G54D24*
X546440Y37786D02*
X546440Y41786D01*
X538940Y49286D01*
X531440Y56786D01*
X527440Y56786D01*
G54D24*
X1445813Y191412D02*
X919120Y145577D01*
X695933Y19261D01*
G54D24*
G75*
G01X1491665Y299934D02*
G03X1491714Y299308I4000J0D01*
G01*
G54D24*
X1488165Y306434D02*
X1491665Y303934D01*
X1491665Y299934D01*
G54D24*
G75*
G01X678940Y14786D02*
G03X696190Y19408I0J34500D01*
G01*
G54D24*
X608940Y14786D02*
X678940Y14786D01*
G54D24*
G75*
G01X597708Y16665D02*
G03X608940Y14785I11232J32621D01*
G01*
G54D24*
X566383Y27563D02*
X597604Y16701D01*
G54D24*
G75*
G01X566074Y27673D02*
G03X566452Y27539I7866J21613D01*
G01*
G54D24*
X549040Y34039D02*
X565887Y27742D01*
G54D24*
G75*
G01X546440Y37786D02*
G03X549072Y34027I4000J0D01*
G01*
G54D24*
G75*
G01X2086274Y277386D02*
G03X2086289Y277735I-3985J349D01*
G01*
G54D24*
X2089789Y284235D02*
X2086289Y281735D01*
X2086289Y277735D01*
G54D24*
X1466308Y394389D02*
X1455984Y402436D01*
X1468820Y405005D01*
G54D24*
X361638Y400029D02*
X350305Y393480D01*
X352742Y406341D01*
G54D24*
X944899Y424827D02*
X938034Y425198D01*
G54D24*
X872481Y427633D02*
X884459Y422351D01*
X872639Y416725D01*
G54D24*
X2094503Y378983D02*
X2089049Y367083D01*
X2083595Y378983D01*
G54D24*
X671507Y48283D02*
X669320Y64500D01*
X683033Y55571D01*
G54D24*
X1521116Y414160D02*
X1532180Y407165D01*
X1519658Y403350D01*
G54D24*
X2085409Y376712D02*
X2075002Y384653D01*
X2087811Y387354D01*
G54D24*
X355941Y399864D02*
X344247Y405748D01*
X356337Y410766D01*
G54D24*
X292812Y413077D02*
X304506Y407193D01*
X292416Y402175D01*
G54D24*
X1475860Y397849D02*
X1473087Y385057D01*
X1465206Y395509D01*
G54D24*
X360368Y410969D02*
X372902Y407193D01*
X361860Y400163D01*
G54D24*
X1516572Y403240D02*
X1503811Y406156D01*
X1514350Y413920D01*
G54D24*
X1471334Y404970D02*
X1484095Y402054D01*
X1473556Y394290D01*
G54D24*
X2162925Y374887D02*
X2151111Y380524D01*
X2163093Y385795D01*
G54D24*
X2091633Y386898D02*
X2103447Y381261D01*
X2091465Y375990D01*
G54D24*
X875514Y419643D02*
X870060Y407743D01*
X864606Y419643D01*
G54D24*
X895675Y245134D02*
X896882Y258169D01*
X905969Y248746D01*
G54D24*
X1500815Y228056D02*
X1487922Y230319D01*
X1498053Y238610D01*
G54D24*
X2072957Y186096D02*
X2068164Y198277D01*
X2080521Y193956D01*
G54D24*
X265679Y237983D02*
X271281Y249814D01*
X276587Y237847D01*
G54D24*
X921138Y151228D02*
X933466Y146825D01*
X922084Y140360D01*
G54D24*
X1496080Y235600D02*
X1499645Y248196D01*
X1506860Y237272D01*
G54D24*
X919631Y139599D02*
X906588Y138484D01*
X914257Y149093D01*
G54D24*
X2073322Y191255D02*
X2079785Y202638D01*
X2084190Y190311D01*
G54D25*
X2166016Y195313D02*
X2257416Y262297D01*
G54D25*
G75*
G01X2160190Y192393D02*
G03X2165951Y195265I-5701J18648D01*
G01*
G54D25*
X2084135Y169612D02*
X2160084Y192361D01*
G54D25*
G75*
G01X2065492Y173801D02*
G03X2084241Y169644I13048J14491D01*
G01*
G54D25*
X2013109Y221415D02*
X2065424Y173862D01*
G54D25*
X2261180Y281430D02*
X2301979Y273404D01*
G54D25*
G75*
G01X2261137Y281439D02*
G03X2245954Y278073I-3721J-19142D01*
G01*
G54D25*
X2154489Y211041D02*
X2245889Y278025D01*
G54D25*
X1512780Y217815D02*
X1695163Y341213D01*
G54D25*
G75*
G01X1507554Y215318D02*
G03X1512757Y217800I-5701J18648D01*
G01*
G54D25*
X1468540Y203020D02*
X1507715Y215368D01*
G54D25*
X1635267Y269916D02*
X1695781Y300024D01*
G54D25*
X900932Y213589D02*
X729728Y217555D01*
G54D25*
G75*
G01X901109Y213586D02*
G03X903272Y213624I541J30995D01*
G01*
G54D25*
X957867Y216342D02*
X903192Y213619D01*
G54D25*
X898001Y225425D02*
X783208Y247291D01*
G54D25*
G75*
G01X897929Y225439D02*
G03X909581Y226767I3721J19142D01*
G01*
G54D25*
X973334Y254624D02*
X909458Y226712D01*
G54D25*
X288036Y209449D02*
X434347Y304864D01*
G54D25*
G75*
G01X267324Y204646D02*
G03X287986Y209416I3778J30769D01*
G01*
G54D25*
X242611Y207475D02*
X267575Y204616D01*
G54D25*
X1908014Y182584D02*
X1472777Y167270D01*
G54D25*
G75*
G01X1908013Y182584D02*
G03X1909644Y183526I-70J2004D01*
G01*
G54D25*
X2000487Y330046D02*
X1909647Y183531D01*
G54D25*
X1111825Y420232D02*
X1071193Y370830D01*
G54D25*
G75*
G01X1113339Y420963D02*
G03X1111816Y420220I35J-2005D01*
G01*
G54D25*
X1312729Y422392D02*
X1248422Y422392D01*
X1248401Y422392D01*
X1113353Y420963D01*
G54D25*
G75*
G01X1313850Y422049D02*
G03X1312729Y422392I-1121J-1662D01*
G01*
G54D25*
X1400070Y364094D02*
X1313848Y422051D01*
G54D25*
X496100Y140738D02*
X284536Y166433D01*
G54D25*
X586540Y66086D02*
X608940Y49286D01*
G54D25*
G75*
G01X586578Y66057D02*
G03X579375Y69570I-12638J-16771D01*
G01*
G54D25*
X279626Y147561D02*
X579228Y69609D01*
G54D25*
G75*
G01X270990Y152406D02*
G03X279489Y147597I13546J14027D01*
G01*
G54D25*
X228970Y193540D02*
X270895Y152498D01*
G54D25*
G75*
G01X228350Y194176D02*
G03X229065Y193448I14261J13299D01*
G01*
G54D25*
X184625Y240270D02*
X228464Y194055D01*
G54D25*
G75*
G01X179284Y253009D02*
G03X184511Y240391I19488J681D01*
G01*
G54D25*
X177624Y314600D02*
X179279Y253165D01*
G54D25*
X2210554Y409472D02*
X2301042Y324947D01*
G54D25*
X1631014Y331149D02*
X1683671Y381449D01*
G54D25*
X979717Y422636D02*
X1093622Y318315D01*
G54D25*
X156867Y342780D02*
X112645Y310207D01*
G54D25*
G75*
G01X170347Y348835D02*
G03X157052Y342916I7277J-34235D01*
G01*
G54D25*
X197690Y354574D02*
X170435Y348854D01*
G54D25*
X251971Y224582D02*
X198772Y253690D01*
G54D25*
G75*
G01X253231Y223828D02*
G03X252064Y224529I-10620J-16353D01*
G01*
G54D25*
X260386Y219124D02*
X253327Y223766D01*
G54D25*
G75*
G01X260482Y219062D02*
G03X284400Y221154I10620J16353D01*
G01*
G54D25*
X403737Y330708D02*
X284289Y221050D01*
G54D25*
X464841Y322044D02*
X438419Y368942D01*
G54D25*
G75*
G01X467991Y314511D02*
G03X464959Y321832I-33644J-9647D01*
G01*
G54D25*
X506233Y183313D02*
X467949Y314658D01*
G54D25*
G75*
G01X506231Y183321D02*
G03X507375Y182028I1927J553D01*
G01*
G54D25*
X639582Y125292D02*
X507367Y182031D01*
G54D25*
G75*
G01X644841Y122482D02*
G03X639455Y125347I-19062J-29353D01*
G01*
G54D25*
X965505Y198400D02*
X701663Y86087D01*
X644657Y122601D01*
G54D25*
X1099171Y444248D02*
X1051616Y417541D01*
G54D25*
G75*
G01X1112868Y447959D02*
G03X1099312Y444326I506J-29001D01*
G01*
G54D25*
X1248115Y449390D02*
X1113067Y447961D01*
G54D25*
G75*
G01X1248422Y449392D02*
G03X1247916Y449388I0J-29005D01*
G01*
G54D25*
X1312729Y449392D02*
X1248422Y449392D01*
G54D25*
G75*
G01X1315761Y449233D02*
G03X1312729Y449392I-3032J-28846D01*
G01*
G54D25*
X1713213Y434941D02*
X1585335Y421691D01*
X1519923Y428485D01*
X1519881Y428489D01*
X1315662Y449243D01*
G54D25*
G75*
G01X1715017Y435034D02*
G03X1713187Y434938I0J-17505D01*
G01*
G54D25*
X1907942Y435748D02*
X1854352Y435748D01*
X1854262Y435748D01*
X1714927Y435034D01*
G54D25*
G75*
G01X1910378Y435578D02*
G03X1907942Y435748I-2436J-17335D01*
G01*
G54D25*
X2168203Y399615D02*
X1910360Y435580D01*
G54D25*
G75*
G01X2180448Y392837D02*
G03X2168223Y399613I-14939J-12535D01*
G01*
G54D25*
X2214827Y352293D02*
X2180382Y392914D01*
G54D25*
G75*
G01X965486Y198392D02*
G03X975947Y209037I-7619J17950D01*
G01*
G54D25*
X991414Y247319D02*
X975947Y209037D01*
G54D25*
G75*
G01X991414Y247319D02*
G03X992594Y251574I-18080J7305D01*
G01*
G54D25*
X1009944Y363927D02*
X992606Y251648D01*
G54D25*
X699918Y48317D02*
X701663Y86087D01*
G54D25*
G75*
G01X678940Y28286D02*
G03X699911Y48187I0J21000D01*
G01*
G54D25*
X608940Y28286D02*
X678940Y28286D01*
G54D25*
G75*
G01X596302Y32515D02*
G03X608940Y28286I12638J16771D01*
G01*
G54D25*
X573940Y49286D02*
X596340Y32486D01*
G54D25*
X643940Y49286D02*
X625779Y93129D01*
G54D25*
X2257907Y254312D02*
X2245479Y253548D01*
X2249949Y265170D01*
G54D25*
X2020836Y223487D02*
X2024061Y211460D01*
X2011782Y213525D01*
G54D25*
X2296437Y267635D02*
X2287457Y276261D01*
X2299035Y280843D01*
G54D25*
X2153998Y219026D02*
X2166426Y219790D01*
X2161956Y208168D01*
G54D25*
X1695353Y333215D02*
X1682905Y332919D01*
X1687809Y344365D01*
G54D25*
X1470641Y210739D02*
X1482655Y207469D01*
X1474687Y197901D01*
G54D25*
X1694907Y292072D02*
X1682530Y293431D01*
X1688911Y304124D01*
G54D25*
X1636141Y277868D02*
X1648518Y276509D01*
X1642137Y265816D01*
G54D25*
X734207Y224184D02*
X744524Y217212D01*
X733895Y210726D01*
G54D25*
X953883Y209405D02*
X943085Y215606D01*
X953213Y222849D01*
G54D25*
X788715Y253094D02*
X797747Y244522D01*
X786197Y239870D01*
G54D25*
X972066Y246725D02*
X959772Y248698D01*
X966676Y259061D01*
G54D25*
X434401Y296864D02*
X421950Y296780D01*
X427049Y308140D01*
G54D25*
X247673Y213670D02*
X257315Y205791D01*
X246141Y200296D01*
G54D25*
X1476863Y174148D02*
X1487568Y167790D01*
X1477335Y160696D01*
G54D25*
X2003929Y322824D02*
X1992688Y317467D01*
X1992487Y329918D01*
G54D25*
X1068742Y378445D02*
X1080594Y382260D01*
X1079138Y369895D01*
G54D25*
X1392726Y360920D02*
X1387787Y372350D01*
X1400236Y372092D01*
G54D25*
X289640Y172593D02*
X299228Y164649D01*
X288018Y159231D01*
G54D25*
X490996Y134578D02*
X481408Y142522D01*
X492618Y147940D01*
G54D25*
X599879Y46432D02*
X595900Y59066D01*
X609143Y58784D01*
G54D25*
X184469Y310458D02*
X178023Y299805D01*
X171013Y310096D01*
G54D25*
X2293287Y322981D02*
X2290227Y335050D01*
X2302477Y332817D01*
G54D25*
X2218309Y411438D02*
X2221369Y399369D01*
X2209119Y401602D01*
G54D25*
X1685193Y373595D02*
X1672969Y371226D01*
X1675895Y383329D01*
G54D25*
X1629492Y339003D02*
X1641716Y341372D01*
X1638790Y329269D01*
G54D25*
X1085887Y316273D02*
X1082708Y328311D01*
X1094979Y326199D01*
G54D25*
X987452Y424678D02*
X990631Y412640D01*
X978360Y414752D01*
G54D25*
X112136Y318190D02*
X124561Y318984D01*
X120118Y307352D01*
G54D25*
X194840Y347099D02*
X183206Y351534D01*
X192076Y360273D01*
G54D25*
X205797Y257519D02*
X211756Y246586D01*
X199335Y245709D01*
G54D25*
X405104Y322826D02*
X392835Y320699D01*
X396000Y332742D01*
G54D25*
X446406Y368479D02*
X445684Y356048D01*
X434678Y361871D01*
G54D25*
X1052090Y425526D02*
X1064520Y424788D01*
X1058682Y413790D01*
G54D25*
X1580339Y415443D02*
X1570614Y423220D01*
X1581729Y428833D01*
G54D25*
X1588942Y428832D02*
X1600056Y423216D01*
X1590330Y415442D01*
G54D25*
X2206897Y351238D02*
X2205255Y363581D01*
X2217163Y359944D01*
G54D25*
X1015936Y358626D02*
X1007685Y349300D01*
X1002632Y360680D01*
G54D25*
X583001Y52140D02*
X586980Y39506D01*
X573737Y39788D01*
G54D25*
X633652Y91710D02*
X631443Y79456D01*
X621216Y86558D01*
G54D25*
X634689Y51447D02*
X637702Y64345D01*
X648953Y57355D01*
G54D26*
X1874737Y391566D02*
X1884737Y391566D01*
G54D26*
X1874737Y366166D02*
X1884737Y366166D01*
G54D26*
X1874737Y340766D02*
X1884737Y340766D01*
G54D26*
X1874737Y315366D02*
X1884737Y315366D01*
G54D26*
X1874737Y289966D02*
X1884737Y289966D01*
G54D26*
X1874737Y264566D02*
X1884737Y264566D01*
G54D26*
X1874737Y239166D02*
X1884737Y239166D01*
G54D26*
X1874737Y213766D02*
X1884737Y213766D01*
G54D26*
X2338737Y391566D02*
X2348737Y391566D01*
G54D26*
X2338737Y366166D02*
X2348737Y366166D01*
G54D26*
X2338737Y340766D02*
X2348737Y340766D01*
G54D26*
X2338737Y315366D02*
X2348737Y315366D01*
G54D26*
X2338737Y289966D02*
X2348737Y289966D01*
G54D26*
X2338737Y264566D02*
X2348737Y264566D01*
G54D26*
X2338737Y239166D02*
X2348737Y239166D01*
G54D26*
X2338737Y213766D02*
X2348737Y213766D01*
G54D26*
X1271554Y391566D02*
X1281554Y391566D01*
G54D26*
X1271554Y366166D02*
X1281554Y366166D01*
G54D26*
X1271554Y340766D02*
X1281554Y340766D01*
G54D26*
X1271554Y315366D02*
X1281554Y315366D01*
G54D26*
X1271554Y289966D02*
X1281554Y289966D01*
G54D26*
X1271554Y264566D02*
X1281554Y264566D01*
G54D26*
X1271554Y239166D02*
X1281554Y239166D01*
G54D26*
X1271554Y213766D02*
X1281554Y213766D01*
G54D26*
X1735554Y391566D02*
X1745554Y391566D01*
G54D26*
X1735554Y366166D02*
X1745554Y366166D01*
G54D26*
X1735554Y340766D02*
X1745554Y340766D01*
G54D26*
X1735554Y315366D02*
X1745554Y315366D01*
G54D26*
X1735554Y289966D02*
X1745554Y289966D01*
G54D26*
X1735554Y264566D02*
X1745554Y264566D01*
G54D26*
X1735554Y239166D02*
X1745554Y239166D01*
G54D26*
X1735554Y213766D02*
X1745554Y213766D01*
G54D26*
X668364Y391566D02*
X678364Y391566D01*
G54D26*
X668364Y366166D02*
X678364Y366166D01*
G54D26*
X668364Y340766D02*
X678364Y340766D01*
G54D26*
X668364Y315366D02*
X678364Y315366D01*
G54D26*
X668364Y289966D02*
X678364Y289966D01*
G54D26*
X668364Y264566D02*
X678364Y264566D01*
G54D26*
X668364Y239166D02*
X678364Y239166D01*
G54D26*
X668364Y213766D02*
X678364Y213766D01*
G54D26*
X1132364Y391566D02*
X1142364Y391566D01*
G54D26*
X1132364Y366166D02*
X1142364Y366166D01*
G54D26*
X1132364Y340766D02*
X1142364Y340766D01*
G54D26*
X1132364Y315366D02*
X1142364Y315366D01*
G54D26*
X1132364Y289966D02*
X1142364Y289966D01*
G54D26*
X1132364Y264566D02*
X1142364Y264566D01*
G54D26*
X1132364Y239166D02*
X1142364Y239166D01*
G54D26*
X1132364Y213766D02*
X1142364Y213766D01*
G54D26*
X64834Y391566D02*
X74834Y391566D01*
G54D26*
X64834Y366166D02*
X74834Y366166D01*
G54D26*
X64834Y340766D02*
X74834Y340766D01*
G54D26*
X64834Y315366D02*
X74834Y315366D01*
G54D26*
X64834Y289966D02*
X74834Y289966D01*
G54D26*
X64834Y264566D02*
X74834Y264566D01*
G54D26*
X64834Y239166D02*
X74834Y239166D01*
G54D26*
X64834Y213766D02*
X74834Y213766D01*
G54D26*
X528834Y391566D02*
X538834Y391566D01*
G54D26*
X528834Y366166D02*
X538834Y366166D01*
G54D26*
X528834Y340766D02*
X538834Y340766D01*
G54D26*
X528834Y315366D02*
X538834Y315366D01*
G54D26*
X528834Y289966D02*
X538834Y289966D01*
G54D26*
X528834Y264566D02*
X538834Y264566D01*
G54D26*
X528834Y239166D02*
X538834Y239166D01*
G54D26*
X528834Y213766D02*
X538834Y213766D01*
X919120Y145577D02*
G54D27*
D03*
X870060Y422143D02*
G54D27*
D03*
X358637Y405224D02*
G54D27*
D03*
X1501853Y233966D02*
G54D27*
D03*
X1585335Y421691D02*
G54D27*
D03*
X2089049Y381483D02*
G54D27*
D03*
X1009944Y363927D02*
G54D27*
D03*
X271102Y235415D02*
G54D27*
D03*
X1469997Y399121D02*
G54D27*
D03*
X1517909Y409089D02*
G54D27*
D03*
X625779Y93129D02*
G54D27*
D03*
X937710Y419207D02*
G54D27*
D03*
X2078540Y188292D02*
G54D27*
D03*
X2257416Y262297D02*
G54D27*
D03*
X2013109Y221415D02*
G54D27*
D03*
X2301979Y273404D02*
G54D27*
D03*
X2154489Y211041D02*
G54D27*
D03*
X1695163Y341213D02*
G54D27*
D03*
X1468540Y203020D02*
G54D27*
D03*
X1695781Y300024D02*
G54D27*
D03*
X1635267Y269916D02*
G54D27*
D03*
X729728Y217555D02*
G54D27*
D03*
X957867Y216342D02*
G54D27*
D03*
X783208Y247291D02*
G54D27*
D03*
X973334Y254624D02*
G54D27*
D03*
X434347Y304864D02*
G54D27*
D03*
X242611Y207475D02*
G54D27*
D03*
X290116Y407717D02*
G54D27*
D03*
X2165509Y380302D02*
G54D27*
D03*
X1472777Y167270D02*
G54D27*
D03*
X2000487Y330046D02*
G54D27*
D03*
X1071193Y370830D02*
G54D27*
D03*
X1400070Y364094D02*
G54D27*
D03*
X284536Y166433D02*
G54D27*
D03*
X496100Y140738D02*
G54D27*
D03*
X177624Y314600D02*
G54D27*
D03*
X2301042Y324947D02*
G54D27*
D03*
X2210554Y409472D02*
G54D27*
D03*
X1683671Y381449D02*
G54D27*
D03*
X1631014Y331149D02*
G54D27*
D03*
X1093622Y318315D02*
G54D27*
D03*
X979717Y422636D02*
G54D27*
D03*
X112645Y310207D02*
G54D27*
D03*
X197690Y354574D02*
G54D27*
D03*
X198772Y253690D02*
G54D27*
D03*
X403737Y330708D02*
G54D27*
D03*
X2214827Y352293D02*
G54D27*
D03*
X1051616Y417541D02*
G54D27*
D03*
X438419Y368942D02*
G54D27*
D03*
X901650Y244581D02*
G54D27*
D03*
X678940Y49286D02*
G54D28*
D03*
X643940Y49286D02*
G54D28*
D03*
X608940Y49286D02*
G54D28*
D03*
X573940Y49286D02*
G54D28*
D03*
X538934Y49286D02*
G54D29*
D03*
X2343734Y391566D02*
G54D30*
D03*
X533834Y239166D02*
G54D30*
D03*
X533834Y213766D02*
G54D30*
D03*
X533834Y289966D02*
G54D30*
D03*
X533834Y264566D02*
G54D30*
D03*
X533834Y340766D02*
G54D30*
D03*
X533834Y315366D02*
G54D30*
D03*
X533834Y391566D02*
G54D30*
D03*
X533834Y366166D02*
G54D30*
D03*
X69834Y239166D02*
G54D30*
D03*
X69834Y213766D02*
G54D30*
D03*
X69834Y289966D02*
G54D30*
D03*
X69834Y264566D02*
G54D30*
D03*
X69834Y340766D02*
G54D30*
D03*
X69834Y315366D02*
G54D30*
D03*
X69834Y391566D02*
G54D30*
D03*
X69834Y366166D02*
G54D30*
D03*
X1137364Y239166D02*
G54D30*
D03*
X1137364Y213766D02*
G54D30*
D03*
X1137364Y289966D02*
G54D30*
D03*
X1137364Y264566D02*
G54D30*
D03*
X1137364Y340766D02*
G54D30*
D03*
X1137364Y315366D02*
G54D30*
D03*
X1137364Y391566D02*
G54D30*
D03*
X1137364Y366166D02*
G54D30*
D03*
X673364Y239166D02*
G54D30*
D03*
X673364Y213766D02*
G54D30*
D03*
X673364Y289966D02*
G54D30*
D03*
X673364Y264566D02*
G54D30*
D03*
X673364Y340766D02*
G54D30*
D03*
X673364Y315366D02*
G54D30*
D03*
X673364Y391566D02*
G54D30*
D03*
X673364Y366166D02*
G54D30*
D03*
X1740554Y239166D02*
G54D30*
D03*
X1740554Y213766D02*
G54D30*
D03*
X1740554Y289966D02*
G54D30*
D03*
X1740554Y264566D02*
G54D30*
D03*
X1740554Y340766D02*
G54D30*
D03*
X1740554Y315366D02*
G54D30*
D03*
X1740554Y391566D02*
G54D30*
D03*
X1740554Y366166D02*
G54D30*
D03*
X1276554Y239166D02*
G54D30*
D03*
X1276554Y213766D02*
G54D30*
D03*
X1276554Y289966D02*
G54D30*
D03*
X1276554Y264566D02*
G54D30*
D03*
X1276554Y340766D02*
G54D30*
D03*
X1276554Y315366D02*
G54D30*
D03*
X1276554Y391566D02*
G54D30*
D03*
X1276554Y366166D02*
G54D30*
D03*
X2343734Y239166D02*
G54D30*
D03*
X2343734Y213766D02*
G54D30*
D03*
X2343734Y289966D02*
G54D30*
D03*
X2343734Y264566D02*
G54D30*
D03*
X2343734Y340766D02*
G54D30*
D03*
X2343734Y315366D02*
G54D30*
D03*
X2343734Y366166D02*
G54D30*
D03*
X1879734Y239166D02*
G54D30*
D03*
X1879734Y213766D02*
G54D30*
D03*
X1879734Y289966D02*
G54D30*
D03*
X1879734Y264566D02*
G54D30*
D03*
X1879734Y340766D02*
G54D30*
D03*
X1879734Y315366D02*
G54D30*
D03*
X1879734Y391566D02*
G54D30*
D03*
X1879734Y366166D02*
G54D30*
D03*
X50800Y565150D02*
G54D31*
D03*
X50800Y44450D02*
G54D31*
D03*
X2362200Y44450D02*
G54D31*
D03*
X2362200Y565150D02*
G54D31*
D03*
X19050Y622300D02*
G54D27*
D03*
X107950Y-12700D02*
G54D27*
D03*
X2425700Y596900D02*
G54D27*
D03*
X2298700Y-12700D02*
G54D27*
D03*
G54D32*
X301464Y542922D02*
X296131Y541256D01*
X293464Y537922D01*
X293464Y521256D01*
X296131Y517922D01*
X301464Y516256D01*
G54D32*
X324130Y530256D02*
X318797Y531256D01*
X313464Y530256D01*
X310797Y526922D01*
X310797Y520256D01*
X313464Y516922D01*
X318797Y516256D01*
X324130Y516922D01*
G54D32*
X333463Y542922D02*
X338796Y541256D01*
X341463Y537922D01*
X341463Y521256D01*
X338796Y517922D01*
X333463Y516256D01*
G54D32*
X350796Y516256D02*
X372129Y516256D01*
G54D32*
X361463Y516256D02*
X361463Y542922D01*
G54D32*
X350796Y542922D02*
X372129Y542922D01*
G54D32*
X381462Y531256D02*
X392129Y516256D01*
X402795Y531256D01*
G54D32*
X412128Y529589D02*
X417461Y531256D01*
X423861Y531256D01*
X428128Y527922D01*
X428128Y516256D01*
G54D32*
X428128Y521256D02*
X425461Y524589D01*
X420128Y525256D01*
X414795Y524589D01*
X412128Y521256D01*
X413195Y517922D01*
X417461Y516256D01*
X420128Y516256D01*
X421195Y516256D01*
X425461Y517922D01*
X428128Y521256D01*
G54D32*
X437461Y516256D02*
X437461Y531256D01*
G54D32*
X437461Y527922D02*
X440128Y530256D01*
X445461Y531256D01*
X450794Y530256D01*
X453461Y527922D01*
X453461Y516256D01*
G54D32*
X462794Y516256D02*
X489461Y516256D01*
G54D32*
X504127Y516256D02*
X504127Y541256D01*
X506794Y542922D01*
X509461Y541922D01*
G54D32*
X498794Y531256D02*
X509461Y531256D01*
G54D32*
X534794Y516256D02*
X534794Y542922D01*
G54D32*
X534794Y526922D02*
X532127Y530256D01*
X526794Y531256D01*
X521461Y530256D01*
X518794Y526922D01*
X518794Y520256D01*
X521461Y516922D01*
X526794Y516256D01*
X532127Y516922D01*
X534794Y520256D01*
G54D32*
X575326Y516256D02*
X553993Y516256D01*
X553993Y517922D01*
X556660Y521256D01*
X572660Y531256D01*
X575326Y534589D01*
X575326Y537922D01*
X572660Y541256D01*
X567326Y542922D01*
X561993Y542922D01*
X556660Y541256D01*
X553993Y537922D01*
G54D32*
X600659Y516256D02*
X600659Y542922D01*
X584659Y526256D01*
X584659Y522922D01*
X605992Y522922D01*
G54D32*
X617458Y516256D02*
X615325Y516256D01*
X615325Y517589D01*
X617458Y517589D01*
X617458Y516256D01*
X615325Y516256D01*
G54D32*
X648124Y537922D02*
X648124Y521256D01*
X645458Y517922D01*
X640124Y516256D01*
X634791Y516256D01*
X629458Y517922D01*
X626791Y521256D01*
X626791Y537922D01*
X629458Y541256D01*
X634791Y542922D01*
X640124Y542922D01*
X645458Y541256D01*
X648124Y537922D01*
G54D32*
X678790Y516256D02*
X657457Y516256D01*
X657457Y517922D01*
X660124Y521256D01*
X676124Y531256D01*
X678790Y534589D01*
X678790Y537922D01*
X676124Y541256D01*
X670790Y542922D01*
X665457Y542922D01*
X660124Y541256D01*
X657457Y537922D01*
G54D32*
X690256Y516256D02*
X688123Y516256D01*
X688123Y517589D01*
X690256Y517589D01*
X690256Y516256D01*
X688123Y516256D01*
G54D32*
X720922Y516256D02*
X699589Y516256D01*
X699589Y517922D01*
X702256Y521256D01*
X718256Y531256D01*
X720922Y534589D01*
X720922Y537922D01*
X718256Y541256D01*
X712922Y542922D01*
X707589Y542922D01*
X702256Y541256D01*
X699589Y537922D01*
G54D32*
X751588Y537922D02*
X751588Y521256D01*
X748922Y517922D01*
X743588Y516256D01*
X738255Y516256D01*
X732922Y517922D01*
X730255Y521256D01*
X730255Y537922D01*
X732922Y541256D01*
X738255Y542922D01*
X743588Y542922D01*
X748922Y541256D01*
X751588Y537922D01*
G54D32*
X760921Y532922D02*
X774254Y542922D01*
X774254Y516256D01*
G54D32*
X804920Y537922D02*
X802254Y541256D01*
X796920Y542922D01*
X791587Y542922D01*
X786254Y541256D01*
X783587Y537922D01*
X783587Y529589D01*
X783587Y527922D01*
X791587Y531256D01*
X796920Y531256D01*
X802254Y529589D01*
X804920Y526256D01*
X804920Y521256D01*
X802254Y517922D01*
X796920Y516256D01*
X791587Y516256D01*
X786254Y517922D01*
X783587Y521256D01*
X783587Y529589D01*
G54D33*
X2173222Y50800D02*
X2173222Y86356D01*
G54D33*
X2159000Y86356D02*
X2187444Y86356D01*
G54D33*
X2228332Y79689D02*
X2228332Y57467D01*
X2224777Y53022D01*
X2217666Y50800D01*
X2210555Y50800D01*
X2203444Y53022D01*
X2199888Y57467D01*
X2199888Y79689D01*
X2203444Y84133D01*
X2210555Y86356D01*
X2217666Y86356D01*
X2224777Y84133D01*
X2228332Y79689D01*
G54D33*
X2240776Y50800D02*
X2240776Y86356D01*
X2258554Y86356D01*
X2265665Y84133D01*
X2269220Y79689D01*
X2269220Y75244D01*
X2265665Y70800D01*
X2258554Y68578D01*
X2240776Y68578D01*
M02*
