%FSLAX34Y34*%
%MOMM*%
%LNSILK_BOTTOM*%
G71*
G01*
%ADD10C, 0.333*%
%ADD11C, 0.167*%
%LPD*%
G54D10*
X7183Y1666D02*
X7183Y603666D01*
X2407183Y603666D01*
X2407183Y1666D01*
X7183Y1666D01*
G54D11*
X2040960Y352315D02*
X2040960Y238315D01*
X2196954Y238315D01*
X2196954Y352315D01*
X2040960Y352315D01*
G54D11*
X1437773Y372951D02*
X1437773Y258951D01*
X1593767Y258951D01*
X1593767Y372951D01*
X1437773Y372951D01*
G54D11*
X828584Y278013D02*
X984578Y278013D01*
X984578Y392013D01*
X828584Y392013D01*
X828584Y278013D01*
G54D11*
X225050Y262125D02*
X381044Y262125D01*
X381044Y376125D01*
X225050Y376125D01*
X225050Y262125D01*
G54D11*
X2147654Y174334D02*
X2147654Y192334D01*
X2103654Y192334D01*
X2103654Y174334D01*
X2147654Y174334D01*
G54D11*
X1536098Y185531D02*
X1536098Y203531D01*
X1492098Y203531D01*
X1492098Y185531D01*
X1536098Y185531D01*
G54D11*
X928644Y171401D02*
X928644Y189401D01*
X884644Y189401D01*
X884644Y171401D01*
X928644Y171401D01*
G54D11*
X327316Y199019D02*
X327316Y217019D01*
X283316Y217019D01*
X283316Y199019D01*
X327316Y199019D01*
M02*
