  0
SECTION
  2
HEADER
  9
$ACADVER
  1
AC1004
  9
$INSBASE
 10
0.0
 20
0.0
  9
$EXTMIN
 10
-52.1549
 20
18.0408
  9
$EXTMAX
 10
-43.3559
 20
26.8398
  9
$LIMMIN
 10
0.0
 20
0.0
  9
$LIMMAX
 10
12.0
 20
9.0
  9
$ORTHOMODE
 70
     0
  9
$REGENMODE
 70
     1
  9
$FILLMODE
 70
     1
  9
$QTEXTMODE
 70
     0
  9
$DRAGMODE
 70
     2
  9
$LTSCALE
 40
1.0
  9
$OSMODE
 70
    37
  9
$ATTMODE
 70
     1
  9
$TEXTSIZE
 40
0.2
  9
$TRACEWID
 40
0.05
  9
$TEXTSTYLE
  7
STANDARD
  9
$CLAYER
  8
0
  9
$CELTYPE
  6
BYLAYER
  9
$CECOLOR
 62
   256
  9
$DIMSCALE
 40
1.0
  9
$DIMASZ
 40
0.18
  9
$DIMEXO
 40
0.0625
  9
$DIMDLI
 40
0.38
  9
$DIMRND
 40
0.0
  9
$DIMDLE
 40
0.0
  9
$DIMEXE
 40
0.18
  9
$DIMTP
 40
0.0
  9
$DIMTM
 40
0.0
  9
$DIMTXT
 40
0.18
  9
$DIMCEN
 40
0.09
  9
$DIMTSZ
 40
0.0
  9
$DIMTOL
 70
     0
  9
$DIMLIM
 70
     0
  9
$DIMTIH
 70
     1
  9
$DIMTOH
 70
     1
  9
$DIMSE1
 70
     0
  9
$DIMSE2
 70
     0
  9
$DIMTAD
 70
     0
  9
$DIMZIN
 70
     0
  9
$DIMBLK
  1

  9
$DIMASO
 70
     1
  9
$DIMSHO
 70
     1
  9
$DIMPOST
  1

  9
$DIMAPOST
  1

  9
$DIMALT
 70
     0
  9
$DIMALTD
 70
     2
  9
$DIMALTF
 40
25.4
  9
$DIMLFAC
 40
1.0
  9
$DIMTOFL
 70
     0
  9
$DIMTVP
 40
0.0
  9
$DIMTIX
 70
     0
  9
$DIMSOXD
 70
     0
  9
$DIMSAH
 70
     0
  9
$DIMBLK1
  1

  9
$DIMBLK2
  1

  9
$LUNITS
 70
     2
  9
$LUPREC
 70
     4
  9
$SKETCHINC
 40
0.1
  9
$FILLETRAD
 40
0.5
  9
$AUNITS
 70
     0
  9
$AUPREC
 70
     0
  9
$MENU
  1
.
  9
$ELEVATION
 40
0.0
  9
$THICKNESS
 40
0.0
  9
$LIMCHECK
 70
     0
  9
$CHAMFERA
 40
0.5
  9
$CHAMFERB
 40
0.5
  9
$SKPOLY
 70
     0
  9
$TDCREATE
 40
2456380.868476563
  9
$TDUPDATE
 40
2456380.868476574
  9
$TDINDWG
 40
0.0000000116
  9
$TDUSRTIMER
 40
0.0000000116
  9
$USRTIMER
 70
     1
  9
$ANGBASE
 50
0.0
  9
$ANGDIR
 70
     0
  9
$PDMODE
 70
     0
  9
$PDSIZE
 40
0.0
  9
$PLINEWID
 40
0.0
  9
$COORDS
 70
     1
  9
$SPLFRAME
 70
     0
  9
$SPLINETYPE
 70
     6
  9
$SPLINESEGS
 70
     8
  9
$ATTDIA
 70
     0
  9
$ATTREQ
 70
     1
  9
$SURFTAB1
 70
     6
  9
$SURFTAB2
 70
     6
  9
$SURFTYPE
 70
     6
  9
$SURFU
 70
     6
  9
$SURFV
 70
     6
  9
$UCSNAME
  2

  9
$UCSORG
 10
0.0
 20
0.0
 30
0.0
  9
$UCSXDIR
 10
1.0
 20
0.0
 30
0.0
  9
$UCSYDIR
 10
0.0
 20
1.0
 30
0.0
  9
$USERI1
 70
     0
  9
$USERI2
 70
     0
  9
$USERI3
 70
     0
  9
$USERI4
 70
     0
  9
$USERI5
 70
     0
  9
$USERR1
 40
0.0
  9
$USERR2
 40
0.0
  9
$USERR3
 40
0.0
  9
$USERR4
 40
0.0
  9
$USERR5
 40
0.0
  9
$WORLDVIEW
 70
     1
  0
ENDSEC
  0
SECTION
  2
TABLES
  0
TABLE
  2
LTYPE
 70
     1
  0
LTYPE
  2
CONTINUOUS
 70
     0
  3
Solid line
 72
    65
 73
     0
 40
0.0
  0
ENDTAB
  0
TABLE
  2
LAYER
 70
     2
  0
LAYER
  2
0
 70
     0
 62
     7
  6
CONTINUOUS
  0
LAYER
  2
LAYER_1
 70
     0
 62
     7
  6
CONTINUOUS
  0
ENDTAB
  0
TABLE
  2
STYLE
 70
     1
  0
STYLE
  2
STANDARD
 70
     0
 40
0.0
 41
1.0
 50
0.0
 71
     0
 42
0.2
  3
txt
  4

  0
ENDTAB
  0
TABLE
  2
VIEW
 70
     0
  0
ENDTAB
  0
ENDSEC
  0
SECTION
  2
BLOCKS
  0
ENDSEC
  0
SECTION
  2
ENTITIES
  0
POLYLINE
  8
LAYER_1
 62
   250
 66
     1
 70
     1
  0
VERTEX
  8
LAYER_1
 62
   250
 10
-44.5644
 20
20.489
  0
VERTEX
  8
LAYER_1
 62
   250
 10
-44.5644
 20
24.5051
  0
VERTEX
  8
LAYER_1
 62
   250
 10
-45.6675
 20
24.5051
  0
VERTEX
  8
LAYER_1
 62
   250
 10
-45.6675
 20
20.489
  0
VERTEX
  8
LAYER_1
 62
   250
 10
-44.5644
 20
20.489
  0
SEQEND
  8
LAYER_1
 62
   250
  0
POLYLINE
  8
LAYER_1
 62
   250
 66
     1
 70
     1
  0
VERTEX
  8
LAYER_1
 62
   250
 10
-46.0316
 20
23.5305
  0
VERTEX
  8
LAYER_1
 62
   250
 10
-46.0316
 20
24.5051
  0
VERTEX
  8
LAYER_1
 62
   250
 10
-48.709
 20
24.5051
  0
VERTEX
  8
LAYER_1
 62
   250
 10
-48.709
 20
23.5305
  0
VERTEX
  8
LAYER_1
 62
   250
 10
-46.0316
 20
23.5305
  0
SEQEND
  8
LAYER_1
 62
   250
  0
POLYLINE
  8
LAYER_1
 62
   250
 66
     1
 70
     1
  0
VERTEX
  8
LAYER_1
 62
   250
 10
-47.14
 20
22.0098
  0
VERTEX
  8
LAYER_1
 62
   250
 10
-47.14
 20
20.489
  0
VERTEX
  8
LAYER_1
 62
   250
 10
-46.0316
 20
20.489
  0
VERTEX
  8
LAYER_1
 62
   250
 10
-46.0316
 20
22.9843
  0
VERTEX
  8
LAYER_1
 62
   250
 10
-48.709
 20
22.9843
  0
VERTEX
  8
LAYER_1
 62
   250
 10
-48.709
 20
22.0098
  0
VERTEX
  8
LAYER_1
 62
   250
 10
-47.14
 20
22.0098
  0
SEQEND
  8
LAYER_1
 62
   250
  0
POLYLINE
  8
LAYER_1
 62
   250
 66
     1
 70
     1
  0
VERTEX
  8
LAYER_1
 62
   250
 10
-48.9822
 20
21.7563
  0
VERTEX
  8
LAYER_1
 62
   250
 10
-48.9822
 20
22.1623
  0
VERTEX
  8
LAYER_1
 62
   250
 10
-50.0977
 20
22.1623
  0
VERTEX
  8
LAYER_1
 62
   250
 10
-50.0977
 20
21.7563
  0
VERTEX
  8
LAYER_1
 62
   250
 10
-48.9822
 20
21.7563
  0
SEQEND
  8
LAYER_1
 62
   250
  0
POLYLINE
  8
LAYER_1
 62
   250
 66
     1
 70
     1
  0
VERTEX
  8
LAYER_1
 62
   250
 10
-48.9822
 20
20.489
  0
VERTEX
  8
LAYER_1
 62
   250
 10
-48.9822
 20
21.5287
  0
VERTEX
  8
LAYER_1
 62
   250
 10
-50.0977
 20
21.5287
  0
VERTEX
  8
LAYER_1
 62
   250
 10
-50.0977
 20
21.1226
  0
VERTEX
  8
LAYER_1
 62
   250
 10
-49.444
 20
21.1226
  0
VERTEX
  8
LAYER_1
 62
   250
 10
-49.444
 20
20.8951
  0
VERTEX
  8
LAYER_1
 62
   250
 10
-50.0977
 20
20.8951
  0
VERTEX
  8
LAYER_1
 62
   250
 10
-50.0977
 20
20.489
  0
VERTEX
  8
LAYER_1
 62
   250
 10
-48.9822
 20
20.489
  0
SEQEND
  8
LAYER_1
 62
   250
  0
POLYLINE
  8
LAYER_1
 62
   250
 66
     1
 70
     1
  0
VERTEX
  8
LAYER_1
 62
   250
 10
-50.2227
 20
20.489
  0
VERTEX
  8
LAYER_1
 62
   250
 10
-50.2227
 20
22.1623
  0
VERTEX
  8
LAYER_1
 62
   250
 10
-50.6845
 20
22.1623
  0
VERTEX
  8
LAYER_1
 62
   250
 10
-50.6845
 20
20.8951
  0
VERTEX
  8
LAYER_1
 62
   250
 10
-51.2557
 20
20.8951
  0
VERTEX
  8
LAYER_1
 62
   250
 10
-51.2557
 20
20.489
  0
VERTEX
  8
LAYER_1
 62
   250
 10
-50.2227
 20
20.489
  0
SEQEND
  8
LAYER_1
 62
   250
  0
POLYLINE
  8
LAYER_1
 62
   250
 66
     1
 70
     1
  0
VERTEX
  8
LAYER_1
 62
   250
 10
-47.7554
 20
26.7398
  0
VERTEX
  8
LAYER_1
 62
   250
 10
-48.59419083950834
 20
26.65718631309369
  0
VERTEX
  8
LAYER_1
 62
   250
 10
-49.40074741745371
 20
26.41252005003228
  0
VERTEX
  8
LAYER_1
 62
   250
 10
-50.14407421686778
 20
26.01520359809479
  0
VERTEX
  8
LAYER_1
 62
   250
 10
-50.79560560571156
 20
25.48050560571156
  0
VERTEX
  8
LAYER_1
 62
   250
 10
-51.33030359809479
 20
24.82897421686778
  0
VERTEX
  8
LAYER_1
 62
   250
 10
-51.72762005003228
 20
24.0856474174537
  0
VERTEX
  8
LAYER_1
 62
   250
 10
-51.97228631309369
 20
23.27909083950835
  0
VERTEX
  8
LAYER_1
 62
   250
 10
-52.0549
 20
22.4403
  0
VERTEX
  8
LAYER_1
 62
   250
 10
-51.97228631309369
 20
21.60150916049166
  0
VERTEX
  8
LAYER_1
 62
   250
 10
-51.72762005003228
 20
20.7949525825463
  0
VERTEX
  8
LAYER_1
 62
   250
 10
-51.33030359809479
 20
20.05162578313222
  0
VERTEX
  8
LAYER_1
 62
   250
 10
-50.79560560571156
 20
19.40009439428844
  0
VERTEX
  8
LAYER_1
 62
   250
 10
-50.14407421686778
 20
18.86539640190521
  0
VERTEX
  8
LAYER_1
 62
   250
 10
-49.4007474174537
 20
18.46807994996772
  0
VERTEX
  8
LAYER_1
 62
   250
 10
-48.59419083950834
 20
18.22341368690631
  0
VERTEX
  8
LAYER_1
 62
   250
 10
-47.7554
 20
18.1408
  0
VERTEX
  8
LAYER_1
 62
   250
 10
-46.91660916049165
 20
18.22341368690631
  0
VERTEX
  8
LAYER_1
 62
   250
 10
-46.1100525825463
 20
18.46807994996772
  0
VERTEX
  8
LAYER_1
 62
   250
 10
-45.36672578313222
 20
18.86539640190521
  0
VERTEX
  8
LAYER_1
 62
   250
 10
-44.71519439428844
 20
19.40009439428844
  0
VERTEX
  8
LAYER_1
 62
   250
 10
-44.1804964019052
 20
20.05162578313223
  0
VERTEX
  8
LAYER_1
 62
   250
 10
-43.78317994996772
 20
20.7949525825463
  0
VERTEX
  8
LAYER_1
 62
   250
 10
-43.53851368690631
 20
21.60150916049167
  0
VERTEX
  8
LAYER_1
 62
   250
 10
-43.4559
 20
22.44030000000001
  0
VERTEX
  8
LAYER_1
 62
   250
 10
-43.53851368690631
 20
23.27909083950836
  0
VERTEX
  8
LAYER_1
 62
   250
 10
-43.78317994996773
 20
24.08564741745371
  0
VERTEX
  8
LAYER_1
 62
   250
 10
-44.18049640190522
 20
24.82897421686779
  0
VERTEX
  8
LAYER_1
 62
   250
 10
-44.71519439428845
 20
25.48050560571157
  0
VERTEX
  8
LAYER_1
 62
   250
 10
-45.36672578313223
 20
26.0152035980948
  0
VERTEX
  8
LAYER_1
 62
   250
 10
-46.11005258254632
 20
26.41252005003228
  0
VERTEX
  8
LAYER_1
 62
   250
 10
-46.91660916049167
 20
26.65718631309369
  0
SEQEND
  8
LAYER_1
 62
   250
  0
POLYLINE
  8
LAYER_1
 62
   250
 66
     1
 70
     1
  0
VERTEX
  8
LAYER_1
 62
   250
 10
-51.497
 20
23.1551
  0
VERTEX
  8
LAYER_1
 62
   250
 10
-49.6415
 20
23.9472
  0
VERTEX
  8
LAYER_1
 62
   250
 10
-50.122
 20
24.2625
  0
VERTEX
  8
LAYER_1
 62
   250
 10
-49.1103
 20
25.1363
  0
VERTEX
  8
LAYER_1
 62
   250
 10
-50.901
 20
24.3213
  0
VERTEX
  8
LAYER_1
 62
   250
 10
-50.4871
 20
24.0098
  0
VERTEX
  8
LAYER_1
 62
   250
 10
-51.497
 20
23.1551
  0
SEQEND
  8
LAYER_1
 62
   250
  0
ENDSEC
  0
EOF
