  0
SECTION
  2
HEADER
  9
$ACADVER
  1
AC1004
  9
$INSBASE
 10
0.0
 20
0.0
  9
$EXTMIN
 10
-52.1549
 20
21.3448
  9
$EXTMAX
 10
-46.6599
 20
26.8398
  9
$LIMMIN
 10
0.0
 20
0.0
  9
$LIMMAX
 10
12.0
 20
9.0
  9
$ORTHOMODE
 70
     0
  9
$REGENMODE
 70
     1
  9
$FILLMODE
 70
     1
  9
$QTEXTMODE
 70
     0
  9
$DRAGMODE
 70
     2
  9
$LTSCALE
 40
1.0
  9
$OSMODE
 70
    37
  9
$ATTMODE
 70
     1
  9
$TEXTSIZE
 40
0.2
  9
$TRACEWID
 40
0.05
  9
$TEXTSTYLE
  7
STANDARD
  9
$CLAYER
  8
0
  9
$CELTYPE
  6
BYLAYER
  9
$CECOLOR
 62
   256
  9
$DIMSCALE
 40
1.0
  9
$DIMASZ
 40
0.18
  9
$DIMEXO
 40
0.0625
  9
$DIMDLI
 40
0.38
  9
$DIMRND
 40
0.0
  9
$DIMDLE
 40
0.0
  9
$DIMEXE
 40
0.18
  9
$DIMTP
 40
0.0
  9
$DIMTM
 40
0.0
  9
$DIMTXT
 40
0.18
  9
$DIMCEN
 40
0.09
  9
$DIMTSZ
 40
0.0
  9
$DIMTOL
 70
     0
  9
$DIMLIM
 70
     0
  9
$DIMTIH
 70
     1
  9
$DIMTOH
 70
     1
  9
$DIMSE1
 70
     0
  9
$DIMSE2
 70
     0
  9
$DIMTAD
 70
     0
  9
$DIMZIN
 70
     0
  9
$DIMBLK
  1

  9
$DIMASO
 70
     1
  9
$DIMSHO
 70
     1
  9
$DIMPOST
  1

  9
$DIMAPOST
  1

  9
$DIMALT
 70
     0
  9
$DIMALTD
 70
     2
  9
$DIMALTF
 40
25.4
  9
$DIMLFAC
 40
1.0
  9
$DIMTOFL
 70
     0
  9
$DIMTVP
 40
0.0
  9
$DIMTIX
 70
     0
  9
$DIMSOXD
 70
     0
  9
$DIMSAH
 70
     0
  9
$DIMBLK1
  1

  9
$DIMBLK2
  1

  9
$LUNITS
 70
     2
  9
$LUPREC
 70
     4
  9
$SKETCHINC
 40
0.1
  9
$FILLETRAD
 40
0.5
  9
$AUNITS
 70
     0
  9
$AUPREC
 70
     0
  9
$MENU
  1
.
  9
$ELEVATION
 40
0.0
  9
$THICKNESS
 40
0.0
  9
$LIMCHECK
 70
     0
  9
$CHAMFERA
 40
0.5
  9
$CHAMFERB
 40
0.5
  9
$SKPOLY
 70
     0
  9
$TDCREATE
 40
2456393.764319294
  9
$TDUPDATE
 40
2456393.764319306
  9
$TDINDWG
 40
0.0000000116
  9
$TDUSRTIMER
 40
0.0000000116
  9
$USRTIMER
 70
     1
  9
$ANGBASE
 50
0.0
  9
$ANGDIR
 70
     0
  9
$PDMODE
 70
     0
  9
$PDSIZE
 40
0.0
  9
$PLINEWID
 40
0.0
  9
$COORDS
 70
     1
  9
$SPLFRAME
 70
     0
  9
$SPLINETYPE
 70
     6
  9
$SPLINESEGS
 70
     8
  9
$ATTDIA
 70
     0
  9
$ATTREQ
 70
     1
  9
$SURFTAB1
 70
     6
  9
$SURFTAB2
 70
     6
  9
$SURFTYPE
 70
     6
  9
$SURFU
 70
     6
  9
$SURFV
 70
     6
  9
$UCSNAME
  2

  9
$UCSORG
 10
0.0
 20
0.0
 30
0.0
  9
$UCSXDIR
 10
1.0
 20
0.0
 30
0.0
  9
$UCSYDIR
 10
0.0
 20
1.0
 30
0.0
  9
$USERI1
 70
     0
  9
$USERI2
 70
     0
  9
$USERI3
 70
     0
  9
$USERI4
 70
     0
  9
$USERI5
 70
     0
  9
$USERR1
 40
0.0
  9
$USERR2
 40
0.0
  9
$USERR3
 40
0.0
  9
$USERR4
 40
0.0
  9
$USERR5
 40
0.0
  9
$WORLDVIEW
 70
     1
  0
ENDSEC
  0
SECTION
  2
TABLES
  0
TABLE
  2
LTYPE
 70
     1
  0
LTYPE
  2
CONTINUOUS
 70
     0
  3
Solid line
 72
    65
 73
     0
 40
0.0
  0
ENDTAB
  0
TABLE
  2
LAYER
 70
     2
  0
LAYER
  2
0
 70
     0
 62
     7
  6
CONTINUOUS
  0
LAYER
  2
LAYER_1
 70
     0
 62
     7
  6
CONTINUOUS
  0
ENDTAB
  0
TABLE
  2
STYLE
 70
     1
  0
STYLE
  2
STANDARD
 70
     0
 40
0.0
 41
1.0
 50
0.0
 71
     0
 42
0.2
  3
txt
  4

  0
ENDTAB
  0
TABLE
  2
VIEW
 70
     0
  0
ENDTAB
  0
ENDSEC
  0
SECTION
  2
BLOCKS
  0
ENDSEC
  0
SECTION
  2
ENTITIES
  0
POLYLINE
  8
LAYER_1
 62
   250
 66
     1
 70
     1
  0
VERTEX
  8
LAYER_1
 62
   250
 10
-47.4425
 20
22.8907
  0
VERTEX
  8
LAYER_1
 62
   250
 10
-47.4425
 20
25.3636
  0
VERTEX
  8
LAYER_1
 62
   250
 10
-48.1217
 20
25.3636
  0
VERTEX
  8
LAYER_1
 62
   250
 10
-48.1217
 20
22.8907
  0
VERTEX
  8
LAYER_1
 62
   250
 10
-47.4425
 20
22.8907
  0
SEQEND
  8
LAYER_1
 62
   250
  0
POLYLINE
  8
LAYER_1
 62
   250
 66
     1
 70
     1
  0
VERTEX
  8
LAYER_1
 62
   250
 10
-48.3459
 20
24.7635
  0
VERTEX
  8
LAYER_1
 62
   250
 10
-48.3459
 20
25.3636
  0
VERTEX
  8
LAYER_1
 62
   250
 10
-49.9945
 20
25.3636
  0
VERTEX
  8
LAYER_1
 62
   250
 10
-49.9945
 20
24.7635
  0
VERTEX
  8
LAYER_1
 62
   250
 10
-48.3459
 20
24.7635
  0
SEQEND
  8
LAYER_1
 62
   250
  0
POLYLINE
  8
LAYER_1
 62
   250
 66
     1
 70
     1
  0
VERTEX
  8
LAYER_1
 62
   250
 10
-49.0284
 20
23.8271
  0
VERTEX
  8
LAYER_1
 62
   250
 10
-49.0284
 20
22.8907
  0
VERTEX
  8
LAYER_1
 62
   250
 10
-48.3459
 20
22.8907
  0
VERTEX
  8
LAYER_1
 62
   250
 10
-48.3459
 20
24.4272
  0
VERTEX
  8
LAYER_1
 62
   250
 10
-49.9945
 20
24.4272
  0
VERTEX
  8
LAYER_1
 62
   250
 10
-49.9945
 20
23.8271
  0
VERTEX
  8
LAYER_1
 62
   250
 10
-49.0284
 20
23.8271
  0
SEQEND
  8
LAYER_1
 62
   250
  0
POLYLINE
  8
LAYER_1
 62
   250
 66
     1
 70
     1
  0
VERTEX
  8
LAYER_1
 62
   250
 10
-50.1629
 20
23.671
  0
VERTEX
  8
LAYER_1
 62
   250
 10
-50.1629
 20
23.921
  0
VERTEX
  8
LAYER_1
 62
   250
 10
-50.8498
 20
23.921
  0
VERTEX
  8
LAYER_1
 62
   250
 10
-50.8498
 20
23.671
  0
VERTEX
  8
LAYER_1
 62
   250
 10
-50.1629
 20
23.671
  0
SEQEND
  8
LAYER_1
 62
   250
  0
POLYLINE
  8
LAYER_1
 62
   250
 66
     1
 70
     1
  0
VERTEX
  8
LAYER_1
 62
   250
 10
-50.1629
 20
22.8907
  0
VERTEX
  8
LAYER_1
 62
   250
 10
-50.1629
 20
23.5309
  0
VERTEX
  8
LAYER_1
 62
   250
 10
-50.8498
 20
23.5309
  0
VERTEX
  8
LAYER_1
 62
   250
 10
-50.8498
 20
23.2809
  0
VERTEX
  8
LAYER_1
 62
   250
 10
-50.4472
 20
23.2809
  0
VERTEX
  8
LAYER_1
 62
   250
 10
-50.4472
 20
23.1407
  0
VERTEX
  8
LAYER_1
 62
   250
 10
-50.8498
 20
23.1407
  0
VERTEX
  8
LAYER_1
 62
   250
 10
-50.8498
 20
22.8907
  0
VERTEX
  8
LAYER_1
 62
   250
 10
-50.1629
 20
22.8907
  0
SEQEND
  8
LAYER_1
 62
   250
  0
POLYLINE
  8
LAYER_1
 62
   250
 66
     1
 70
     1
  0
VERTEX
  8
LAYER_1
 62
   250
 10
-50.9267
 20
22.8907
  0
VERTEX
  8
LAYER_1
 62
   250
 10
-50.9267
 20
23.921
  0
VERTEX
  8
LAYER_1
 62
   250
 10
-51.211
 20
23.921
  0
VERTEX
  8
LAYER_1
 62
   250
 10
-51.211
 20
23.1407
  0
VERTEX
  8
LAYER_1
 62
   250
 10
-51.5627
 20
23.1407
  0
VERTEX
  8
LAYER_1
 62
   250
 10
-51.5627
 20
22.8907
  0
VERTEX
  8
LAYER_1
 62
   250
 10
-50.9267
 20
22.8907
  0
SEQEND
  8
LAYER_1
 62
   250
  0
POLYLINE
  8
LAYER_1
 62
   250
 66
     1
 70
     1
  0
VERTEX
  8
LAYER_1
 62
   250
 10
-49.4074
 20
26.7398
  0
VERTEX
  8
LAYER_1
 62
   250
 10
-49.9239016275377
 20
26.68892902986756
  0
VERTEX
  8
LAYER_1
 62
   250
 10
-50.42055438718658
 20
26.53827106232363
  0
VERTEX
  8
LAYER_1
 62
   250
 10
-50.8782721919194
 20
26.29361579857099
  0
VERTEX
  8
LAYER_1
 62
   250
 10
-51.27946520319139
 20
25.96436520319138
  0
VERTEX
  8
LAYER_1
 62
   250
 10
-51.60871579857099
 20
25.5631721919194
  0
VERTEX
  8
LAYER_1
 62
   250
 10
-51.85337106232363
 20
25.10545438718658
  0
VERTEX
  8
LAYER_1
 62
   250
 10
-52.00402902986755
 20
24.6088016275377
  0
VERTEX
  8
LAYER_1
 62
   250
 10
-52.0549
 20
24.0923
  0
VERTEX
  8
LAYER_1
 62
   250
 10
-52.00402902986755
 20
23.5757983724623
  0
VERTEX
  8
LAYER_1
 62
   250
 10
-51.85337106232363
 20
23.07914561281343
  0
VERTEX
  8
LAYER_1
 62
   250
 10
-51.60871579857099
 20
22.6214278080806
  0
VERTEX
  8
LAYER_1
 62
   250
 10
-51.27946520319139
 20
22.22023479680862
  0
VERTEX
  8
LAYER_1
 62
   250
 10
-50.8782721919194
 20
21.89098420142901
  0
VERTEX
  8
LAYER_1
 62
   250
 10
-50.42055438718658
 20
21.64632893767637
  0
VERTEX
  8
LAYER_1
 62
   250
 10
-49.9239016275377
 20
21.49567097013245
  0
VERTEX
  8
LAYER_1
 62
   250
 10
-49.4074
 20
21.4448
  0
VERTEX
  8
LAYER_1
 62
   250
 10
-48.8908983724623
 20
21.49567097013245
  0
VERTEX
  8
LAYER_1
 62
   250
 10
-48.39424561281342
 20
21.64632893767637
  0
VERTEX
  8
LAYER_1
 62
   250
 10
-47.9365278080806
 20
21.89098420142901
  0
VERTEX
  8
LAYER_1
 62
   250
 10
-47.53533479680861
 20
22.22023479680862
  0
VERTEX
  8
LAYER_1
 62
   250
 10
-47.20608420142901
 20
22.62142780808061
  0
VERTEX
  8
LAYER_1
 62
   250
 10
-46.96142893767637
 20
23.07914561281343
  0
VERTEX
  8
LAYER_1
 62
   250
 10
-46.81077097013245
 20
23.57579837246231
  0
VERTEX
  8
LAYER_1
 62
   250
 10
-46.7599
 20
24.09230000000001
  0
VERTEX
  8
LAYER_1
 62
   250
 10
-46.81077097013245
 20
24.60880162753771
  0
VERTEX
  8
LAYER_1
 62
   250
 10
-46.96142893767637
 20
25.10545438718658
  0
VERTEX
  8
LAYER_1
 62
   250
 10
-47.20608420142902
 20
25.56317219191941
  0
VERTEX
  8
LAYER_1
 62
   250
 10
-47.53533479680863
 20
25.96436520319139
  0
VERTEX
  8
LAYER_1
 62
   250
 10
-47.93652780808061
 20
26.293615798571
  0
VERTEX
  8
LAYER_1
 62
   250
 10
-48.39424561281344
 20
26.53827106232364
  0
VERTEX
  8
LAYER_1
 62
   250
 10
-48.89089837246232
 20
26.68892902986756
  0
SEQEND
  8
LAYER_1
 62
   250
  0
POLYLINE
  8
LAYER_1
 62
   250
 66
     1
 70
     1
  0
VERTEX
  8
LAYER_1
 62
   250
 10
-51.5114
 20
24.6325
  0
VERTEX
  8
LAYER_1
 62
   250
 10
-50.3688
 20
25.1202
  0
VERTEX
  8
LAYER_1
 62
   250
 10
-50.6647
 20
25.3144
  0
VERTEX
  8
LAYER_1
 62
   250
 10
-50.0417
 20
25.8524
  0
VERTEX
  8
LAYER_1
 62
   250
 10
-51.1444
 20
25.3506
  0
VERTEX
  8
LAYER_1
 62
   250
 10
-50.8895
 20
25.1587
  0
VERTEX
  8
LAYER_1
 62
   250
 10
-51.5114
 20
24.6325
  0
SEQEND
  8
LAYER_1
 62
   250
  0
ENDSEC
  0
EOF
