M48
METRIC,0000.00
T01C0.5
T02C0.8
T03C1.0
%
T01
X+015760Y+002638
X+016316Y+002486
X+016100Y+002060
X+017334Y+003229
X+017837Y+003862
X+017870Y+004313
X+017821Y+004796
X+017196Y+004281
X+015583Y+005465
X+014905Y+005210
X+014775Y+004560
X+011935Y+005437
X+011617Y+004699
X+011625Y+004297
X+011152Y+004564
X+011153Y+005145
X+010235Y+005833
X+008698Y+004602
X+008420Y+004094
X+008271Y+003550
X+009505Y+002552
X+009675Y+002174
X+010291Y+002245
X+007421Y+002191
X+005805Y+003861
X+005787Y+004409
X+005187Y+004248
X+005216Y+003688
X+005897Y+005126
X+004119Y+005552
X+003581Y+005548
X+002810Y+004545
X+003495Y+002817
X+003743Y+002462
X+004215Y+002298
X+007966Y+005299
X+020694Y+004471
X+021227Y+005519
X+021749Y+005656
X+023369Y+004015
X+023891Y+003865
X+023927Y+004358
X+024023Y+005007
X+023347Y+003374
X+021867Y+002316
X+021288Y+002341
T02
X+006267Y+003121
X+006267Y+003375
X+006267Y+003629
X+006267Y+003883
X+006267Y+004137
X+006267Y+004391
X+006267Y+004645
X+006267Y+004899
X+007662Y+004899
X+007662Y+004645
X+007662Y+004391
X+007662Y+004137
X+007662Y+003883
X+007662Y+003629
X+007662Y+003375
X+007662Y+003121
X+012302Y+003121
X+012302Y+003375
X+012302Y+003629
X+012302Y+003883
X+012302Y+004137
X+012302Y+004391
X+012302Y+004645
X+012302Y+004899
X+013694Y+004899
X+013694Y+004645
X+013694Y+004391
X+013694Y+004137
X+013694Y+003883
X+013694Y+003629
X+013694Y+003375
X+013694Y+003121
X+018334Y+003121
X+018334Y+003375
X+018334Y+003629
X+018334Y+003883
X+018334Y+004137
X+018334Y+004391
X+018334Y+004645
X+018334Y+004899
X+019726Y+004899
X+019726Y+004645
X+019726Y+004391
X+019726Y+004137
X+019726Y+003883
X+019726Y+003629
X+019726Y+003375
X+019726Y+003121
X+024366Y+003121
X+024366Y+003375
X+024366Y+003629
X+024366Y+003883
X+024366Y+004137
X+024366Y+004391
X+024366Y+004645
X+024366Y+004899
X+001627Y+004899
X+001627Y+004645
X+001627Y+004391
X+001627Y+004137
X+001627Y+003883
X+001627Y+003629
X+001627Y+003375
X+001627Y+003121
T03
X+006318Y+001476
X+006668Y+001476
X+007018Y+001476
X+007368Y+001476
X+007718Y+001476
T00
M30
