  0
SECTION
  2
HEADER
  9
$ACADVER
  1
AC1009
  9
$ANGDIR
  70
0
  9
$CECOLOR
  62
256
  9
$CELTYPE
  6
BYLAYER
  9
$EXTMIN
  10
0.0
  20
0.0
  9
$EXTMAX
  10
95.0
  20
50.0
  9
$FILLMODE
  70
1
  9
$MIRRTEXT
  70
0
  0
ENDSEC
  0
SECTION
  2
TABLES
  0
TABLE
  2
LAYER
  70
17
  0
LAYER
  2
Отверстия_Верхний
  70
64
  62
7
  6
CONTINUOUS
  0
LAYER
  2
Границы_платы
  70
64
  62
13
  6
CONTINUOUS
  0
ENDTAB
  0
ENDSEC
  0
SECTION
  2
ENTITIES
  0
CIRCLE
  8
Отверстия_Верхний
  10
26.6728
  20
19.8458
  40
0.45
  0
CIRCLE
  8
Отверстия_Верхний
  10
29.2128
  20
19.8458
  40
0.45
  0
CIRCLE
  8
Отверстия_Верхний
  10
40.4855
  20
38.8978
  40
0.45
  0
CIRCLE
  8
Отверстия_Верхний
  10
40.4855
  20
43.9778
  40
0.45
  0
CIRCLE
  8
Отверстия_Верхний
  10
78.1132
  20
41.9144
  40
0.25
  0
CIRCLE
  8
Отверстия_Верхний
  10
78.1132
  20
21.9144
  40
0.25
  0
CIRCLE
  8
Отверстия_Верхний
  10
65.5701
  20
42.0726
  40
0.5842
  0
CIRCLE
  8
Отверстия_Верхний
  10
55.4101
  20
42.0726
  40
0.55
  0
CIRCLE
  8
Отверстия_Верхний
  10
55.5689
  20
46.2016
  40
0.55
  0
CIRCLE
  8
Отверстия_Верхний
  10
65.7289
  20
46.2016
  40
0.55
  0
CIRCLE
  8
Отверстия_Верхний
  10
53.8219
  20
36.3576
  40
0.6
  0
CIRCLE
  8
Отверстия_Верхний
  10
53.8219
  20
16.0376
  40
0.6
  0
CIRCLE
  8
Отверстия_Верхний
  10
4.445
  20
13.178
  40
0.6
  0
CIRCLE
  8
Отверстия_Верхний
  10
4.445
  20
10.638
  40
0.6
  0
CIRCLE
  8
Отверстия_Верхний
  10
2.8578
  20
47.1537
  40
1.25
  0
CIRCLE
  8
Отверстия_Верхний
  10
2.8578
  20
3.0166
  40
1.25
  0
CIRCLE
  8
Отверстия_Верхний
  10
92.2434
  20
2.699
  40
1.25
  0
CIRCLE
  8
Отверстия_Верхний
  10
92.4022
  20
47.3125
  40
1.25
  0
CIRCLE
  8
Отверстия_Верхний
  10
23.815
  20
37.7865
  40
0.5
  0
CIRCLE
  8
Отверстия_Верхний
  10
9.615
  20
37.7865
  40
0.5
  0
CIRCLE
  8
Отверстия_Верхний
  10
32.5472
  20
27.7842
  40
0.5
  0
CIRCLE
  8
Отверстия_Верхний
  10
32.5472
  20
41.9842
  40
0.5
  0
CIRCLE
  8
Отверстия_Верхний
  10
9.2085
  20
15.0828
  40
0.5
  0
CIRCLE
  8
Отверстия_Верхний
  10
23.4085
  20
15.0828
  40
0.5
  0
CIRCLE
  8
Отверстия_Верхний
  10
40.4855
  20
27.9429
  40
0.5
  0
CIRCLE
  8
Отверстия_Верхний
  10
40.4855
  20
13.7429
  40
0.5
  0
CIRCLE
  8
Отверстия_Верхний
  10
46.6774
  20
13.8127
  40
0.5
  0
CIRCLE
  8
Отверстия_Верхний
  10
46.6774
  20
28.0127
  40
0.5
  0
CIRCLE
  8
Отверстия_Верхний
  10
68.2697
  20
25.0154
  40
0.5
  0
CIRCLE
  8
Отверстия_Верхний
  10
68.2697
  20
39.2154
  40
0.5
  0
CIRCLE
  8
Отверстия_Верхний
  10
60.4901
  20
26.9903
  40
0.5
  0
CIRCLE
  8
Отверстия_Верхний
  10
60.4901
  20
12.7903
  40
0.5
  0
CIRCLE
  8
Отверстия_Верхний
  10
5.5568
  20
37.1514
  40
0.5
  0
CIRCLE
  8
Отверстия_Верхний
  10
5.5568
  20
25.6514
  40
0.5
  0
CIRCLE
  8
Отверстия_Верхний
  10
7.5068
  20
31.4014
  40
0.5
  0
CIRCLE
  8
Отверстия_Верхний
  10
91.2908
  20
38.7391
  40
0.57
  0
CIRCLE
  8
Отверстия_Верхний
  10
91.2908
  20
34.7791
  40
0.57
  0
CIRCLE
  8
Отверстия_Верхний
  10
91.2908
  20
42.6991
  40
0.57
  0
CIRCLE
  8
Отверстия_Верхний
  10
90.6558
  20
11.59
  40
0.57
  0
CIRCLE
  8
Отверстия_Верхний
  10
90.6558
  20
15.55
  40
0.57
  0
CIRCLE
  8
Отверстия_Верхний
  10
90.6558
  20
7.63
  40
0.57
  0
CIRCLE
  8
Отверстия_Верхний
  10
79.3833
  20
9.8435
  40
0.45
  0
CIRCLE
  8
Отверстия_Верхний
  10
76.8433
  20
9.8435
  40
0.45
  0
CIRCLE
  8
Отверстия_Верхний
  10
74.3033
  20
9.8435
  40
0.45
  0
CIRCLE
  8
Отверстия_Верхний
  10
23.4963
  20
27.6254
  40
0.25
  0
CIRCLE
  8
Отверстия_Верхний
  10
22.7513
  20
25.8244
  40
0.25
  0
CIRCLE
  8
Отверстия_Верхний
  10
20.9503
  20
25.0794
  40
0.25
  0
CIRCLE
  8
Отверстия_Верхний
  10
19.1493
  20
25.8244
  40
0.25
  0
CIRCLE
  8
Отверстия_Верхний
  10
18.4043
  20
27.6254
  40
0.25
  0
CIRCLE
  8
Отверстия_Верхний
  10
19.1493
  20
29.4264
  40
0.25
  0
CIRCLE
  8
Отверстия_Верхний
  10
20.9503
  20
30.1714
  40
0.25
  0
CIRCLE
  8
Отверстия_Верхний
  10
22.7513
  20
29.4264
  40
0.25
  0
CIRCLE
  8
Отверстия_Верхний
  10
51.9167
  20
8.2559
  40
0.45
  0
CIRCLE
  8
Отверстия_Верхний
  10
54.2167
  20
8.2559
  40
0.45
  0
CIRCLE
  8
Отверстия_Верхний
  10
56.5167
  20
8.2559
  40
0.45
  0
CIRCLE
  8
Отверстия_Верхний
  10
13.0189
  20
27.6254
  40
0.25
  0
CIRCLE
  8
Отверстия_Верхний
  10
13.0189
  20
37.7865
  40
0.25
  0
CIRCLE
  8
Отверстия_Верхний
  10
24.1325
  20
19.8458
  40
0.25
  0
CIRCLE
  8
Отверстия_Верхний
  10
13.1707
  20
19.8458
  40
0.25
  0
POLYLINE
  8
Границы_платы
  6
CONTINUOUS
  66
1
  70
0
  40
0.14
  41
0.14
  0
VERTEX
  8
Границы_платы
  10
0.0
  20
0.0
  42
0
  0
VERTEX
  8
Границы_платы
  10
0.0
  20
50.0
  42
0
  0
VERTEX
  8
Границы_платы
  10
95.0
  20
50.0
  42
0
  0
VERTEX
  8
Границы_платы
  10
95.0
  20
0.0
  42
0
  0
VERTEX
  8
Границы_платы
  10
0.0
  20
0.0
  42
0
  0
SEQEND
  0
ENDSEC
  0
EOF
