G04 DipTrace 2.4.0.2*
%INÂåðõí³é.gbr*%
%MOMM*%
%ADD13C,0.8*%
%ADD14C,0.4*%
%ADD16R,2.0X3.0*%
%ADD17O,2.0X3.0*%
%ADD19O,3.0X2.0*%
%ADD22C,2.0*%
%FSLAX53Y53*%
G04*
G71*
G90*
G75*
G01*
%LNTop*%
%LPD*%
X96751Y21741D2*
D13*
X96262Y22088D1*
X95504Y21021D1*
X96807Y21143D1*
X96751Y21741D1*
X218670Y23157D2*
Y23749D1*
X217357D1*
X218218Y22763D1*
X218670Y23157D1*
X42147Y22981D2*
X42199Y22384D1*
X43503Y22498D1*
X42583Y23418D1*
X42147Y22981D1*
X96751Y21741D2*
X96865Y21151D1*
X98150Y21398D1*
X97124Y22211D1*
X96751Y21741D1*
X157597Y26382D2*
X157005Y26286D1*
X157216Y24994D1*
X158057Y25997D1*
X157597Y26382D1*
X42147Y22981D2*
X62041Y15885D1*
G03X62176Y15862I134J375D01*
G01*
X62576D1*
X63176Y14762D1*
X96751Y21741D2*
X102402Y20358D1*
G03X102933Y20297I511J2089D01*
G01*
X156069Y20810D1*
X159983Y18702D1*
G03X161296Y18465I1020J1894D01*
G01*
X212590Y25537D1*
G02X213767Y25367I294J-2130D01*
G01*
X218670Y23157D1*
X157597Y26382D2*
X156069Y20810D1*
X63176Y14762D2*
X63776Y13662D1*
X64176D1*
G02X64480Y13522I0J-400D01*
G01*
X65042Y12865D1*
G03X65969Y12231I1634J1397D01*
G01*
X69091Y11145D1*
G03X70176Y10962I1084J3116D01*
G01*
X77176D1*
G03X78824Y11403I0J3300D01*
G01*
X96751Y21741D1*
X74208Y21909D2*
D14*
X73502Y21531D1*
X74090Y20433D1*
X74844Y21424D1*
X74208Y21909D1*
X73676Y15262D1*
Y14762D1*
X116167Y46985D2*
X116956Y47116D1*
X116752Y48345D1*
X115719Y47649D1*
X116167Y46985D1*
X119347Y54371D2*
X118558Y54240D1*
X118762Y53012D1*
X119794Y53708D1*
X119347Y54371D1*
X116167Y46985D2*
X115396Y47199D1*
X115063Y46000D1*
X116292Y46195D1*
X116167Y46985D1*
X66676Y14762D2*
D3*
X116167Y46985D2*
X119347Y54371D1*
X66676Y14762D2*
Y14262D1*
X69089Y12643D1*
G03X70176Y12312I1087J1620D01*
G01*
X77176D1*
G03X78501Y12832I0J1950D01*
G01*
X93728Y26946D1*
X93741Y26958D1*
X93754Y26970D1*
X116167Y46985D1*
X51870Y42481D2*
X52665Y42394D1*
X52800Y43632D1*
X51618Y43240D1*
X51870Y42481D1*
X58968Y51261D2*
X58173Y51348D1*
X58038Y50110D1*
X59220Y50502D1*
X58968Y51261D1*
X51870Y42481D2*
X58968Y51261D1*
X111522Y45638D2*
X110890Y46129D1*
X110126Y45147D1*
X111337Y44860D1*
X111522Y45638D1*
X82707Y35496D2*
X83338Y35005D1*
X84103Y35987D1*
X82891Y36274D1*
X82707Y35496D1*
X111522Y45638D2*
X82707Y35496D1*
X86983Y46019D2*
X86185Y45964D1*
X86271Y44722D1*
X87365Y45316D1*
X86983Y46019D1*
X84198Y40942D2*
X84996Y40998D1*
X84910Y42240D1*
X83816Y41645D1*
X84198Y40942D1*
X86983Y46019D2*
X84198Y40942D1*
X171955Y42807D2*
X172717Y42563D1*
X173098Y43748D1*
X171861Y43602D1*
X171955Y42807D1*
X178212Y47961D2*
X177451Y48206D1*
X177070Y47020D1*
X178307Y47167D1*
X178212Y47961D1*
X171955Y42807D2*
X178212Y47961D1*
X233686Y40147D2*
X234501D1*
Y41383D1*
X233362Y40879D1*
X233686Y40147D1*
X240225Y50067D2*
X239411D1*
Y48831D1*
X240549Y49336D1*
X240225Y50067D1*
X233686Y40147D2*
X240225Y50067D1*
X28103Y45455D2*
X27571Y44857D1*
X28500Y44029D1*
X28867Y45219D1*
X28103Y45455D1*
X33070Y27647D1*
G03X33350Y27054I1879J524D01*
G01*
X35834Y23501D1*
G03X38473Y22969I1598J1117D01*
G01*
X41106Y24631D1*
G02X42732Y24841I1041J-1649D01*
G01*
X67261Y17122D1*
G02X67762Y16881I-587J-1863D01*
G01*
X70176Y15262D1*
Y14762D1*
X79659Y52989D2*
X79045Y53501D1*
X78248Y52545D1*
X79449Y52218D1*
X79659Y52989D1*
X37432Y24618D2*
X38062Y24125D1*
X38829Y25106D1*
X37618Y25396D1*
X37432Y24618D1*
X79659Y52989D2*
X74066Y51226D1*
G03X73939Y51106I60J-191D01*
G01*
X65255Y28262D1*
G02X65085Y28134I-187J71D01*
G01*
X41872Y26069D1*
G03X41125Y25908I274J-3085D01*
G01*
X37432Y24618D1*
X147752Y45604D2*
X146957Y45511D1*
X147101Y44274D1*
X148166Y44920D1*
X147752Y45604D1*
X102912Y22447D2*
X103450Y21854D1*
X104372Y22690D1*
X103228Y23182D1*
X102912Y22447D1*
X147752Y45604D2*
X139445Y28623D1*
G02X139298Y28513I-180J88D01*
G01*
X102912Y22447D1*
X206940Y44712D2*
X206151Y44582D1*
X206354Y43353D1*
X207387Y44049D1*
X206940Y44712D1*
X161003Y20595D2*
X161570Y20027D1*
X162449Y20906D1*
X161284Y21344D1*
X161003Y20595D1*
X206940Y44712D2*
X200220Y29117D1*
G02X200078Y29000I-184J79D01*
G01*
X161003Y20595D1*
X102346Y58329D2*
D13*
X101937Y58769D1*
X100978Y57877D1*
X102280Y57733D1*
X102346Y58329D1*
X35810Y55475D2*
X36064Y54932D1*
X37250Y55486D1*
X36056Y56023D1*
X35810Y55475D1*
X41188Y55516D2*
X40933Y56060D1*
X39748Y55505D1*
X40942Y54969D1*
X41188Y55516D1*
X41432Y54969D1*
X42627Y55502D1*
X41443Y56059D1*
X41188Y55516D1*
X102346Y58329D2*
X102219Y57743D1*
X103498Y57466D1*
X102873Y58616D1*
X102346Y58329D1*
X111532Y51451D2*
X111659Y52037D1*
X110379Y52314D1*
X111005Y51164D1*
X111532Y51451D1*
X217493Y56556D2*
X217113Y57020D1*
X216100Y56191D1*
X217389Y55965D1*
X217493Y56556D1*
X212273Y55189D2*
X212653Y54724D1*
X213666Y55553D1*
X212376Y55780D1*
X212273Y55189D1*
X111532Y51451D2*
X112052Y51151D1*
X112705Y52285D1*
X111420Y52040D1*
X111532Y51451D1*
X149052Y52105D2*
X149650Y52059D1*
X149750Y53364D1*
X148696Y52588D1*
X149052Y52105D1*
X155825Y54647D2*
X155404Y55068D1*
X154477Y54141D1*
X155783Y54049D1*
X155825Y54647D1*
X149052Y52105D2*
X149473Y51683D1*
X150400Y52611D1*
X149094Y52703D1*
X149052Y52105D1*
X212273Y55189D2*
X212038Y55741D1*
X210833Y55230D1*
X212007Y54651D1*
X212273Y55189D1*
X155825Y54647D2*
X149052Y52105D1*
X217493Y56556D2*
X212273Y55189D1*
X102346Y58329D2*
X82042Y51611D1*
X81785Y53310D1*
G03X79680Y55139I-2126J-321D01*
G01*
X41188Y55516D1*
X35810Y55475D1*
X82042Y51611D2*
X79053Y28875D1*
X77176Y15262D1*
Y14762D1*
X111532Y51451D2*
X102346Y58329D1*
X149052Y52105D2*
X150752Y55171D1*
X119439Y56519D1*
G03X118101Y56123I-92J-2148D01*
G01*
X111532Y51451D1*
X212273Y55189D2*
X155887Y56796D1*
G03X155124Y56679I-61J-2150D01*
G01*
X150752Y55171D1*
X77176Y14762D2*
D3*
X52155Y36885D2*
D14*
X52759Y36361D1*
X53575Y37301D1*
X52381Y37652D1*
X52155Y36885D1*
X58052Y38613D2*
X57447Y39138D1*
X56631Y38197D1*
X57826Y37846D1*
X58052Y38613D1*
X52155Y36885D2*
X58052Y38613D1*
X34949Y28171D2*
X35688Y27865D1*
X36164Y29015D1*
X34920Y28971D1*
X34949Y28171D1*
X57874Y44094D2*
X57134Y44400D1*
X56658Y43250D1*
X57902Y43294D1*
X57874Y44094D1*
X34949Y28171D2*
X57874Y44094D1*
X95053Y25516D2*
X95815Y25271D1*
X96196Y26457D1*
X94959Y26310D1*
X95053Y25516D1*
X116252Y42973D2*
X115491Y43218D1*
X115110Y42032D1*
X116346Y42178D1*
X116252Y42973D1*
X95053Y25516D2*
X116252Y42973D1*
X173343Y32285D2*
X174139Y32205D1*
X174264Y33444D1*
X173085Y33043D1*
X173343Y32285D1*
X178375Y38620D2*
X177579Y38700D1*
X177454Y37461D1*
X178633Y37863D1*
X178375Y38620D1*
X173343Y32285D2*
X178375Y38620D1*
X163163Y24858D2*
X163956Y24751D1*
X164122Y25986D1*
X162930Y25623D1*
X163163Y24858D1*
X178700Y43129D2*
X177907Y43236D1*
X177741Y42002D1*
X178932Y42364D1*
X178700Y43129D1*
X163163Y24858D2*
X178700Y43129D1*
X233472Y33736D2*
X234244Y33527D1*
X234570Y34729D1*
X233341Y34525D1*
X233472Y33736D1*
X238911Y38653D2*
X238139Y38862D1*
X237813Y37660D1*
X239041Y37863D1*
X238911Y38653D1*
X233472Y33736D2*
X238911Y38653D1*
X212883Y23407D2*
X213030Y22621D1*
X214254Y22849D1*
X213538Y23868D1*
X212883Y23407D1*
X239268Y43583D2*
X238477Y43700D1*
X238296Y42468D1*
X239491Y42815D1*
X239268Y43583D1*
X212883Y23407D2*
X217935Y21351D1*
G03X220131Y21866I735J1806D01*
G01*
X235147Y38856D1*
X235152Y38861D1*
X235156Y38866D1*
X239268Y43583D1*
D22*
X157597Y26382D3*
X96751Y21741D3*
X42147Y22981D3*
X218670Y23157D3*
X74208Y21909D3*
X119347Y54371D3*
X116167Y46985D3*
X51870Y42481D3*
X58968Y51261D3*
X111522Y45638D3*
X82707Y35496D3*
X86983Y46019D3*
X84198Y40942D3*
X171955Y42807D3*
X178212Y47961D3*
X233686Y40147D3*
X240225Y50067D3*
X28103Y45455D3*
X79659Y52989D3*
X37432Y24618D3*
X147752Y45604D3*
X102912Y22447D3*
X206940Y44712D3*
X161003Y20595D3*
X41188Y55516D3*
X217493Y56556D3*
X155825Y54647D3*
X212273Y55189D3*
X111532Y51451D3*
X149052Y52105D3*
X35810Y55475D3*
X102346Y58329D3*
X52155Y36885D3*
X58052Y38613D3*
X34949Y28171D3*
X57874Y44094D3*
X95053Y25516D3*
X116252Y42973D3*
X173343Y32285D3*
X178375Y38620D3*
X163163Y24858D3*
X178700Y43129D3*
X233472Y33736D3*
X238911Y38653D3*
X212883Y23407D3*
X239268Y43583D3*
D16*
X63176Y14762D3*
D17*
X66676D3*
X70176D3*
X73676D3*
X77176D3*
D19*
X62665Y31210D3*
Y33750D3*
Y36290D3*
Y38830D3*
Y41370D3*
Y43910D3*
Y46450D3*
Y48990D3*
X16265Y31210D3*
Y33750D3*
Y36290D3*
Y38830D3*
Y41370D3*
Y43910D3*
Y46450D3*
Y48990D3*
X123018Y31210D3*
Y33750D3*
Y36290D3*
Y38830D3*
Y41370D3*
Y43910D3*
Y46450D3*
Y48990D3*
X76618Y31210D3*
Y33750D3*
Y36290D3*
Y38830D3*
Y41370D3*
Y43910D3*
Y46450D3*
Y48990D3*
X183337Y31210D3*
Y33750D3*
Y36290D3*
Y38830D3*
Y41370D3*
Y43910D3*
Y46450D3*
Y48990D3*
X136937Y31210D3*
Y33750D3*
Y36290D3*
Y38830D3*
Y41370D3*
Y43910D3*
Y46450D3*
Y48990D3*
X243655Y31210D3*
Y33750D3*
Y36290D3*
Y38830D3*
Y41370D3*
Y43910D3*
Y46450D3*
Y48990D3*
X197255Y31210D3*
Y33750D3*
Y36290D3*
Y38830D3*
Y41370D3*
Y43910D3*
Y46450D3*
Y48990D3*
M02*
