G04 DipTrace 2.4.0.2*
%INÍèæí³é.gbr*%
%MOMM*%
%ADD13C,0.8*%
%ADD14C,0.4*%
%ADD15C,0.0*%
%ADD16R,2.0X3.0*%
%ADD17O,2.0X3.0*%
%ADD19O,3.0X2.0*%
%ADD20R,1.6X1.8*%
%ADD21R,0.6X2.0*%
%ADD22C,2.0*%
%FSLAX53Y53*%
G04*
G71*
G90*
G75*
G01*
%LNBottom*%
%LPD*%
X96751Y21741D2*
D13*
X97330Y21898D1*
X96986Y23161D1*
X96254Y22076D1*
X96751Y21741D1*
X220532Y32831D2*
D14*
X220399Y33247D1*
X220171Y32875D1*
X157597Y26382D2*
D13*
X158196Y26418D1*
X158119Y27725D1*
X157187Y26793D1*
X157597Y26382D1*
X160282Y34915D2*
D14*
X160112Y35317D1*
X159919Y34926D1*
X218670Y23157D2*
D13*
X219216Y23407D1*
X218670Y24597D1*
X218125Y23407D1*
X218670Y23157D1*
X99432Y36820D2*
D14*
X99250Y37216D1*
X99068Y36820D1*
X42147Y22981D2*
D13*
X42523Y23449D1*
X41502Y24269D1*
X41547Y22961D1*
X42147Y22981D1*
X160224Y36729D2*
D14*
X160124Y35928D1*
Y35729D1*
Y35716D1*
X160123Y35703D1*
X160098Y34837D1*
D13*
X159613Y31433D1*
X159610Y31405D1*
X159609Y31377D1*
Y30977D1*
X159209Y30477D1*
X38951Y37046D2*
D14*
X38851Y36246D1*
X38813Y31335D1*
X38413Y30635D1*
X220542Y34665D2*
X220442Y33865D1*
Y33665D1*
X220441Y33613D1*
X220436Y33562D1*
X220342Y32770D1*
D13*
X219465Y29414D1*
X219455Y29364D1*
X219452Y29313D1*
Y28913D1*
X219052Y28413D1*
X99305Y38635D2*
D14*
X99250Y37835D1*
Y36736D1*
D13*
X98974Y32195D1*
X98973Y32182D1*
Y32170D1*
Y31770D1*
X98573Y31270D1*
X159209Y30477D2*
X158809Y29977D1*
Y29577D1*
G02X158782Y29432I-401J0D01*
G01*
X157597Y26382D1*
X38413Y30635D2*
X38813Y30135D1*
Y29735D1*
G03X38856Y29556I401J0D01*
G01*
X42147Y22981D1*
X219052Y28413D2*
X218670Y27913D1*
Y23157D1*
X98573Y31270D2*
X98173Y30770D1*
Y30370D1*
X98172Y30338D1*
X98168Y30305D1*
X96751Y21741D1*
X74208Y21909D2*
D14*
X74461Y21150D1*
X75642Y21544D1*
X74793Y22454D1*
X74208Y21909D1*
X74113Y22703D1*
X72877Y22556D1*
X73525Y21493D1*
X74208Y21909D1*
X167844Y36729D2*
X167944Y35928D1*
Y35729D1*
Y35718D1*
X167945Y35707D1*
X169087Y25333D1*
X212286Y19200D1*
G03X212700Y19161I596J4194D01*
G01*
X218487Y18911D1*
G03X222248Y20863I183J4246D01*
G01*
X225387Y25759D1*
G03X225737Y26493I-2736J1755D01*
G01*
X228018Y33392D1*
G03X228062Y33665I-827J273D01*
G01*
Y33865D1*
X228162Y34665D1*
X106925Y38635D2*
X107025Y37835D1*
Y37635D1*
X107028Y37601D1*
X107036Y37568D1*
X111283Y25498D1*
X106096Y19631D1*
G02X104171Y18387I-3184J2815D01*
G01*
X98351Y16583D1*
G02X95419Y16508I-1599J5158D01*
G01*
X74208Y21909D1*
X111283Y25498D2*
X160227Y16416D1*
G03X164581Y18302I775J4179D01*
G01*
X169087Y25333D1*
X74208Y21909D2*
X60810Y28422D1*
X60725Y28465D1*
X60642Y28510D1*
X46970Y36220D1*
G03X46871Y36246I-98J-175D01*
G01*
X46671D1*
X46571Y37046D1*
X119347Y54371D2*
X119840Y53741D1*
X120821Y54508D1*
X119715Y55081D1*
X119347Y54371D1*
X116167Y46985D2*
X115827Y47710D1*
X114700Y47181D1*
X115649Y46376D1*
X116167Y46985D1*
X119347Y54371D2*
X119217Y55161D1*
X117988Y54957D1*
X118683Y53925D1*
X119347Y54371D1*
X228162Y44065D2*
X228062Y44865D1*
Y45065D1*
G03X227975Y45565I-1469J0D01*
G01*
X227897Y45780D1*
G03X227699Y46185I-1977J-716D01*
G01*
X220115Y58209D1*
G03X217364Y59653I-2622J-1654D01*
G01*
X212097Y59435D1*
G03X211181Y59296I175J-4240D01*
G01*
X168060Y47832D1*
X167946Y47162D1*
X167944Y47145D1*
Y47129D1*
Y46929D1*
X167844Y46129D1*
X46571Y46446D2*
X46671Y47246D1*
X46871D1*
G03X46963Y47268I0J200D01*
G01*
X58075Y52994D1*
G02X58604Y53177I893J-1733D01*
G01*
X101767Y61375D1*
G02X103573Y61176I578J-3047D01*
G01*
X119347Y54371D1*
X106925Y48035D2*
X107025Y47588D1*
X111522D1*
G02X111779Y47571I1J-1943D01*
G01*
X116167Y46985D1*
X119347Y54371D2*
X155539Y57734D1*
G02X157896Y56954I287J-3087D01*
G01*
X168060Y47832D1*
X33871Y46446D2*
X33771Y47246D1*
Y47446D1*
G03X33249Y48243I-870J0D01*
G01*
X33081Y48317D1*
G03X32737Y48395I-380J-869D01*
G01*
X16765Y48990D1*
X16265D1*
X45301Y46446D2*
X45201Y47246D1*
Y47446D1*
G03X45175Y47658I-868J0D01*
G01*
X43079Y55992D1*
G03X41590Y57424I-1891J-476D01*
G01*
X36450Y58509D1*
G03X34856Y58425I-640J-3033D01*
G01*
X14811Y51940D1*
G03X12665Y48990I954J-2949D01*
G01*
Y43910D1*
G03X12746Y43208I3099J0D01*
G01*
X13866Y38389D1*
G03X14516Y37333I1899J441D01*
G01*
X15765Y36290D1*
X16265D1*
X58968Y51261D2*
X58931Y50462D1*
X60175Y50404D1*
X59710Y51559D1*
X58968Y51261D1*
X51870Y42481D2*
X51471Y43174D1*
X50392Y42553D1*
X51405Y41830D1*
X51870Y42481D1*
X58968Y51261D2*
X62165Y48990D1*
X62665D1*
X38951Y46446D2*
X39051Y45646D1*
Y45446D1*
G03X39500Y44685I870J0D01*
G01*
X41444Y43608D1*
G03X41848Y43438I1015J1834D01*
G01*
X44115Y42745D1*
G03X45001Y42613I886J2902D01*
G01*
G03X45481Y42654I0J2836D01*
G01*
G02X46271Y42721I791J-4603D01*
G01*
X46871D1*
X46986Y42720D1*
X47101Y42715D1*
X51870Y42481D1*
X62665Y48990D2*
D3*
X40221Y46446D2*
X40121Y47246D1*
Y47446D1*
G03X40087Y47687I-870J0D01*
G01*
X37684Y56016D1*
G03X35210Y57331I-1874J-541D01*
G01*
X15165Y50845D1*
G03X13815Y48990I600J-1855D01*
G01*
Y43910D1*
G03X14516Y42413I1950J0D01*
G01*
X15765Y41370D1*
X16265D1*
X35141Y46446D2*
X35241Y45646D1*
Y45446D1*
G03X35568Y44767I870J0D01*
G01*
X37891Y42908D1*
G03X38450Y42548I2029J2537D01*
G01*
X40469Y41523D1*
G03X41519Y41148I1992J3924D01*
G01*
X43303Y40757D1*
G03X44331Y40645I1028J4690D01*
G01*
X44396Y40646D1*
X44461Y40647D1*
X45125Y40664D1*
G03X45810Y40732I-124J4785D01*
G01*
G02X46271Y40771I461J-2680D01*
G01*
X46871D1*
G02X47909Y40581I0J-2925D01*
G01*
X52847Y38708D1*
G02X53390Y38394I-692J-1824D01*
G01*
X62165Y31210D1*
X62665D1*
X44031Y46446D2*
X44131Y45646D1*
Y45446D1*
G03X45088Y44580I870J0D01*
G01*
X45286Y44600D1*
X45303Y44602D1*
X45320Y44604D1*
G02X46271Y44671I951J-6749D01*
G01*
X46871D1*
G03X47021Y44685I0J775D01*
G01*
X51271Y45522D1*
G02X51612Y45570I598J-3035D01*
G01*
X62165Y46450D1*
X62665D1*
X37681Y46446D2*
X37781Y45646D1*
Y45446D1*
G03X37809Y45229I870J0D01*
G01*
X37887Y44923D1*
G03X38971Y43574I2034J523D01*
G01*
X40990Y42548D1*
G03X41741Y42277I1471J2897D01*
G01*
X44113Y41738D1*
G03X45001Y41638I889J3911D01*
G01*
G03X45646Y41693I0J3806D01*
G01*
G02X46271Y41746I626J-3648D01*
G01*
X46871D1*
G02X48133Y41536I0J-3901D01*
G01*
X53158Y39818D1*
G02X54103Y39296I-1004J-2934D01*
G01*
X56826Y37096D1*
G03X57020Y36959I1233J1526D01*
G01*
X62165Y33750D1*
X62665D1*
X41491Y46446D2*
X41591Y45646D1*
Y45446D1*
G03X42113Y44648I870J0D01*
G01*
X42281Y44575D1*
X42290Y44572D1*
X44199Y43760D1*
G03X44515Y43655I801J1882D01*
G01*
X44562Y43643D1*
G03X45307Y43616I440J1802D01*
G01*
G02X46271Y43696I964J-5771D01*
G01*
X46871D1*
G03X47173Y43719I0J1958D01*
G01*
X51568Y44407D1*
G02X52657Y44265I301J-1927D01*
G01*
X57086Y42310D1*
G03X57540Y42172I787J1782D01*
G01*
X62165Y41370D1*
X62665D1*
X94225Y48035D2*
X94125Y47235D1*
Y47035D1*
G02X93603Y46237I-870J0D01*
G01*
X93435Y46164D1*
G02X93055Y46085I-380J871D01*
G01*
X92655D1*
G02X92329Y46142I0J950D01*
G01*
X87652Y47851D1*
G03X87182Y47959I-668J-1829D01*
G01*
X77118Y48990D1*
X76618D1*
X82707Y35496D2*
X82373Y36223D1*
X81241Y35704D1*
X82184Y34890D1*
X82707Y35496D1*
X111522Y45638D2*
X111154Y46349D1*
X110048Y45777D1*
X111028Y45009D1*
X111522Y45638D1*
X82707Y35496D2*
X77118Y36290D1*
X76618D1*
X105655Y48035D2*
X105755Y47235D1*
Y47035D1*
G03X106277Y46237I870J0D01*
G01*
X106445Y46164D1*
G03X106736Y46089I380J870D01*
G01*
X111522Y45638D1*
X76618Y36290D2*
D3*
X99305Y48035D2*
X99405Y48835D1*
Y49035D1*
G02X99799Y49763I870J0D01*
G01*
X103357Y52090D1*
G02X104941Y52661I1997J-3055D01*
G01*
X111311Y53388D1*
G02X112433Y53180I221J-1937D01*
G01*
X117384Y50602D1*
G03X118132Y50299I1964J3771D01*
G01*
X122518Y48990D1*
X123018D1*
X86983Y46019D2*
X87276Y45275D1*
X88435Y45731D1*
X87565Y46601D1*
X86983Y46019D1*
X84198Y40942D2*
X83807Y41640D1*
X82721Y41032D1*
X83726Y40297D1*
X84198Y40942D1*
X100575Y48035D2*
X100475Y47235D1*
Y47035D1*
G02X99953Y46237I-870J0D01*
G01*
X99785Y46164D1*
G02X99582Y46102I-381J875D01*
G01*
X93647Y44972D1*
G02X93255Y44935I-393J2068D01*
G01*
X92655D1*
G02X92246Y44975I1J2105D01*
G01*
X86983Y46019D1*
X84198Y40942D2*
X77118Y41370D1*
X76618D1*
X95495Y48035D2*
X95595Y48835D1*
Y49035D1*
G02X95683Y49535I1471J0D01*
G01*
X95760Y49749D1*
X95795Y49838D1*
X95833Y49926D1*
X96290Y50902D1*
X96330Y50983D1*
X96371Y51064D1*
X100615Y59229D1*
G02X103178Y60093I1730J-900D01*
G01*
X113346Y55294D1*
X113421Y55258D1*
X113495Y55220D1*
X118446Y52642D1*
G03X119199Y52427I901J1730D01*
G01*
X123753Y52081D1*
G02X126618Y48990I-235J-3091D01*
G01*
Y36290D1*
G02X126282Y34887I-3100J0D01*
G01*
X125257Y32867D1*
G02X124768Y32253I-1740J884D01*
G01*
X123518Y31210D1*
X123018D1*
X104385Y48035D2*
X104485Y48835D1*
Y49035D1*
G02X105007Y49832I870J0D01*
G01*
X105175Y49905D1*
G02X105555Y49985I380J-871D01*
G01*
X107225D1*
X107280Y49983D1*
X107335Y49978D1*
X111306Y49514D1*
X116392Y48922D1*
G02X116917Y48785I-225J-1936D01*
G01*
X122518Y46450D1*
X123018D1*
X98035Y48035D2*
X98135Y48835D1*
Y49035D1*
G02X98162Y49251I870J0D01*
G01*
X98241Y49558D1*
G02X99159Y50813I2034J-523D01*
G01*
X102804Y53101D1*
G02X104810Y53804I2551J-4067D01*
G01*
X111181Y54531D1*
G02X112964Y54200I352J-3080D01*
G01*
X117915Y51622D1*
G03X119112Y51280I1432J2749D01*
G01*
X123666Y50934D1*
G02X125468Y48990I-148J-1944D01*
G01*
Y36290D1*
G02X124768Y34793I-1950J0D01*
G01*
X123518Y33750D1*
X123018D1*
X101845Y48035D2*
X101945Y47235D1*
Y47035D1*
G03X102467Y46237I870J0D01*
G01*
X102635Y46164D1*
X102653Y46156D1*
X102671Y46149D1*
X115547Y41155D1*
G03X116361Y41026I706J1820D01*
G01*
X122518Y41370D1*
X123018D1*
X155144Y46129D2*
X155044Y46929D1*
Y47129D1*
G03X154522Y47926I-870J0D01*
G01*
X154354Y47999D1*
G03X154026Y48077I-380J-871D01*
G01*
X137437Y48990D1*
X136937D1*
X166574Y46129D2*
X166474Y46929D1*
Y47129D1*
G03X166192Y47769I-870J0D01*
G01*
X157145Y56083D1*
G03X155439Y56558I-1319J-1436D01*
G01*
X148437Y55143D1*
X148373Y55129D1*
X148308Y55114D1*
X135694Y52000D1*
G03X133337Y48990I743J-3010D01*
G01*
Y43910D1*
G03X133418Y43208I3099J0D01*
G01*
X134538Y38389D1*
G03X135188Y37333I1899J441D01*
G01*
X136437Y36290D1*
X136937D1*
X178212Y47961D2*
X178774Y47400D1*
X179657Y48283D1*
X178488Y48712D1*
X178212Y47961D1*
X171955Y42807D2*
X171451Y43429D1*
X170484Y42645D1*
X171599Y42091D1*
X171955Y42807D1*
X178212Y47961D2*
X182837Y48990D1*
X183337D1*
X160224Y46129D2*
X160324Y45328D1*
Y45129D1*
G03X160772Y44367I870J0D01*
G01*
X162717Y43291D1*
G03X163120Y43120I1015J1834D01*
G01*
X165388Y42428D1*
G03X166274Y42295I886J2902D01*
G01*
G03X166753Y42336I0J2836D01*
G01*
G02X167544Y42404I791J-4603D01*
G01*
X168144D1*
G03X168465Y42421I0J2936D01*
G01*
X171955Y42807D1*
X183337Y48990D2*
D3*
X161494Y46129D2*
X161394Y46929D1*
Y47129D1*
G03X160937Y47894I-870J0D01*
G01*
X149979Y53820D1*
G03X148584Y53998I-928J-1715D01*
G01*
X135970Y50883D1*
G03X134487Y48990I467J-1893D01*
G01*
Y43910D1*
G03X135188Y42413I1950J0D01*
G01*
X136437Y41370D1*
X136937D1*
X156414Y46129D2*
X156514Y45328D1*
Y45129D1*
G03X156840Y44449I870J0D01*
G01*
X159163Y42591D1*
G03X159722Y42231I2029J2537D01*
G01*
X161742Y41205D1*
G03X162791Y40831I1992J3924D01*
G01*
X164576Y40439D1*
G03X165604Y40328I1028J4690D01*
G01*
X165668D1*
X165733Y40330D1*
X166398Y40347D1*
G03X167083Y40414I-124J4785D01*
G01*
G02X167544Y40453I461J-2680D01*
G01*
X168144D1*
G02X169807Y39947I0J-2987D01*
G01*
X182837Y31210D1*
X183337D1*
X165304Y46129D2*
X165404Y45328D1*
Y45129D1*
G03X166361Y44263I870J0D01*
G01*
X166559Y44283D1*
X166575Y44285D1*
X166592Y44287D1*
G02X167544Y44353I951J-6749D01*
G01*
X168144D1*
G03X168518Y44450I0J776D01*
G01*
X170456Y45521D1*
G02X171904Y45907I1499J-2713D01*
G01*
X178245Y46012D1*
X178323Y46014D1*
X178400Y46020D1*
X182837Y46450D1*
X183337D1*
X158954Y46129D2*
X159054Y45328D1*
Y45129D1*
G03X159081Y44912I870J0D01*
G01*
X159160Y44606D1*
G03X160243Y43256I2034J523D01*
G01*
X162262Y42231D1*
G03X163013Y41959I1471J2897D01*
G01*
X165385Y41420D1*
G03X166274Y41320I889J3911D01*
G01*
G03X166918Y41375I0J3806D01*
G01*
G02X167544Y41428I626J-3648D01*
G01*
X168144D1*
G02X170086Y40920I0J-3962D01*
G01*
X182837Y33750D1*
X183337D1*
X162764Y46129D2*
X162864Y45328D1*
Y45129D1*
G03X163386Y44331I870J0D01*
G01*
X163554Y44258D1*
X163562Y44254D1*
X165472Y43442D1*
G03X165788Y43337I801J1882D01*
G01*
X165834Y43326D1*
G03X166579Y43298I440J1802D01*
G01*
G02X167544Y43379I964J-5771D01*
G01*
X168144D1*
G03X168971Y43563I0J1951D01*
G01*
X171128Y44573D1*
G02X173004Y44451I827J-1766D01*
G01*
X177651Y41485D1*
G03X178791Y41181I1049J1644D01*
G01*
X182837Y41370D1*
X183337D1*
X215462Y44065D2*
X215362Y44865D1*
Y45065D1*
G03X214840Y45862I-870J0D01*
G01*
X214672Y45936D1*
G03X214460Y46000I-379J-868D01*
G01*
X197755Y48990D1*
X197255D1*
X226892Y44065D2*
X226792Y44865D1*
Y45065D1*
G03X226661Y45525I-871J0D01*
G01*
X219148Y57587D1*
G03X217412Y58504I-1655J-1031D01*
G01*
X212145Y58286D1*
G03X211123Y58067I128J-3099D01*
G01*
X195605Y51869D1*
G03X193655Y48990I1150J-2879D01*
G01*
Y43910D1*
G03X193736Y43208I3099J0D01*
G01*
X194856Y38389D1*
G03X195506Y37333I1899J441D01*
G01*
X196755Y36290D1*
X197255D1*
X240225Y50067D2*
X240399Y49286D1*
X241614Y49556D1*
X240863Y50550D1*
X240225Y50067D1*
X233686Y40147D2*
X233279Y40836D1*
X232207Y40203D1*
X233229Y39491D1*
X233686Y40147D1*
X240225Y50067D2*
X243155Y48990D1*
X243655D1*
X220542Y44065D2*
X220642Y43265D1*
Y43065D1*
G03X221091Y42304I870J0D01*
G01*
X223035Y41227D1*
G03X223439Y41056I1015J1834D01*
G01*
X225706Y40364D1*
G03X226592Y40232I886J2902D01*
G01*
G03X227072Y40273I0J2836D01*
G01*
G02X227862Y40340I791J-4603D01*
G01*
X228462D1*
X228550Y40339D1*
X228638Y40337D1*
X233686Y40147D1*
X243655Y48990D2*
D3*
X221812Y44065D2*
X221712Y44865D1*
Y45065D1*
G03X221550Y45571I-870J0D01*
G01*
X213859Y56323D1*
G03X211549Y57000I-1586J-1135D01*
G01*
X196032Y50801D1*
G03X194805Y48990I723J-1811D01*
G01*
Y43910D1*
G03X195506Y42413I1950J0D01*
G01*
X196755Y41370D1*
X197255D1*
X216732Y44065D2*
X216832Y43265D1*
Y43065D1*
G03X217159Y42386I870J0D01*
G01*
X219482Y40527D1*
G03X220041Y40167I2029J2537D01*
G01*
X222060Y39142D1*
G03X223110Y38767I1992J3924D01*
G01*
X224894Y38376D1*
G03X225922Y38264I1028J4690D01*
G01*
X225987Y38265D1*
X226052Y38266D1*
X226716Y38283D1*
G03X227401Y38351I-124J4785D01*
G01*
G02X227862Y38390I461J-2680D01*
G01*
X228462D1*
G02X229333Y38257I0J-2926D01*
G01*
X232764Y37188D1*
X232778Y37183D1*
X232791Y37179D1*
X234367Y36704D1*
G02X235145Y36346I-895J-2967D01*
G01*
X243155Y31210D1*
X243655D1*
X225622Y44065D2*
X225722Y43265D1*
Y43065D1*
G03X226679Y42199I870J0D01*
G01*
X226877Y42219D1*
X226894Y42221D1*
X226911Y42223D1*
G02X227862Y42290I951J-6749D01*
G01*
X228462D1*
G03X228693Y42325I0J775D01*
G01*
X238687Y45445D1*
X238764Y45467D1*
X238843Y45487D1*
X243155Y46450D1*
X243655D1*
X219272Y44065D2*
X219372Y43265D1*
Y43065D1*
G03X219400Y42848I870J0D01*
G01*
X219478Y42542D1*
G03X220562Y41193I2034J523D01*
G01*
X222581Y40167D1*
G03X223332Y39896I1471J2897D01*
G01*
X225704Y39357D1*
G03X226592Y39257I889J3911D01*
G01*
G03X227237Y39312I0J3806D01*
G01*
G02X227862Y39365I626J-3648D01*
G01*
X228462D1*
G02X229488Y39227I0J-3901D01*
G01*
X234590Y37836D1*
G02X235332Y37558I-1118J-4099D01*
G01*
X243155Y33750D1*
X243655D1*
X223082Y44065D2*
X223182Y43265D1*
Y43065D1*
G03X223704Y42268I870J0D01*
G01*
X223872Y42194D1*
X223881Y42191D1*
X225790Y41379D1*
G03X226106Y41274I801J1882D01*
G01*
X226153Y41262D1*
G03X226898Y41235I440J1802D01*
G01*
G02X227862Y41315I964J-5771D01*
G01*
X228462D1*
G03X228769Y41339I0J1956D01*
G01*
X233380Y42073D1*
G02X233853Y42090I306J-1928D01*
G01*
X239102Y41641D1*
X239120Y41639D1*
X239138Y41638D1*
X243155Y41370D1*
X243655D1*
X28103Y45455D2*
X28565Y44802D1*
X29581Y45522D1*
X28504Y46147D1*
X28103Y45455D1*
X32601Y46446D2*
X32501Y45646D1*
X32292D1*
X28103Y45455D1*
X37432Y24618D2*
X37371Y25415D1*
X36129Y25320D1*
X36732Y24230D1*
X37432Y24618D1*
X79659Y52989D2*
X79866Y52217D1*
X81069Y52538D1*
X80277Y53498D1*
X79659Y52989D1*
X37432Y24618D2*
X34024Y26454D1*
G02X33000Y28098I925J1717D01*
G01*
X32701Y36038D1*
Y36246D1*
X32601Y37046D1*
X92955Y48035D2*
X92855Y48835D1*
X92655D1*
X92624Y48837D1*
X92594Y48844D1*
X79659Y52989D1*
X102912Y22447D2*
X102237Y22876D1*
X101570Y21824D1*
X102803Y21654D1*
X102912Y22447D1*
X147752Y45604D2*
X148184Y44931D1*
X149232Y45604D1*
X148184Y46277D1*
X147752Y45604D1*
X102912Y22447D2*
X97571Y19971D1*
G02X94973Y20941I-820J1769D01*
G01*
X93275Y24716D1*
G02X93103Y25508I1778J800D01*
G01*
X93055Y37629D1*
Y37835D1*
X92955Y38635D1*
X153874Y46129D2*
X153774Y45604D1*
X147752D1*
X161003Y20595D2*
Y21380D1*
X159748D1*
X160279Y20254D1*
X161003Y20595D1*
X206940Y44712D2*
X207373Y44039D1*
X208420Y44712D1*
X207373Y45386D1*
X206940Y44712D1*
X161003Y20595D2*
X155953Y23754D1*
G02X154502Y26210I1644J2628D01*
G01*
X153976Y35647D1*
X153974Y35688D1*
Y35729D1*
Y35928D1*
X153874Y36729D1*
X214192Y44065D2*
X214092Y44712D1*
X206940D1*
X217441Y45933D2*
X217751Y45626D1*
X217781Y46062D1*
X102346Y58329D2*
X101550D1*
Y57081D1*
X102681Y57603D1*
X102346Y58329D1*
X41188Y55516D2*
X40604Y54969D1*
X41456Y54061D1*
X41928Y55213D1*
X41188Y55516D1*
X103051Y49848D2*
X103224Y49447D1*
X103415Y49839D1*
X149052Y52105D2*
D13*
X149028Y51505D1*
X150336Y51453D1*
X149521Y52478D1*
X149052Y52105D1*
X111532Y51451D2*
X111272Y51991D1*
X110092Y51424D1*
X111292Y50901D1*
X111532Y51451D1*
X155825Y54647D2*
X155667Y54069D1*
X156929Y53722D1*
X156367Y54905D1*
X155825Y54647D1*
X156312Y48078D2*
D14*
X156748Y48074D1*
X156467Y48407D1*
X217493Y56556D2*
X217138Y55838D1*
X218255Y55287D1*
Y56556D1*
X217493D1*
X163418Y48020D2*
X163746Y47732D1*
X163750Y48169D1*
X212273Y55189D2*
D13*
X211927Y54698D1*
X212998Y53944D1*
X212870Y55247D1*
X212273Y55189D1*
X35810Y55475D2*
D14*
X35165Y55002D1*
X35903Y53998D1*
X36509Y55086D1*
X35810Y55475D1*
X218002Y44065D2*
X217902Y44865D1*
Y45065D1*
G03X217846Y45372I-869J0D01*
G01*
X217581Y46075D1*
D13*
X212273Y55189D1*
X96765Y48035D2*
D14*
X96865Y48835D1*
Y49035D1*
G02X96892Y49251I870J0D01*
G01*
X96971Y49558D1*
G02X97103Y49926I2035J-523D01*
G01*
X97332Y50414D1*
G02X97534Y50782I2941J-1378D01*
G01*
X102346Y58329D1*
X42761Y46446D2*
X42661Y47246D1*
Y47446D1*
G03X42647Y47604I-874J0D01*
G01*
X41188Y55516D1*
X103115Y48035D2*
X103215Y48835D1*
Y49035D1*
Y49045D1*
Y49054D1*
X103235Y49927D1*
D13*
X103238Y49934D1*
G02X105312Y51334I2117J-900D01*
G01*
X111532Y51451D1*
X157684Y46129D2*
D14*
X157584Y46929D1*
Y47129D1*
G03X157085Y47916I-870J0D01*
G01*
X156314Y48279D1*
D13*
X154965Y49096D1*
X154891Y49139D1*
X154815Y49179D1*
X149052Y52105D1*
X164034Y46129D2*
D14*
X163934Y46929D1*
Y47129D1*
G03X163858Y47484I-871J0D01*
G01*
X163550Y48171D1*
D13*
X155825Y54647D1*
X224352Y44065D2*
D14*
X224252Y44865D1*
Y45065D1*
G03X224128Y45513I-870J0D01*
G01*
X217493Y56556D1*
X36411Y46446D2*
X36311Y47246D1*
Y47446D1*
Y47473D1*
X36310Y47500D1*
X35810Y55475D1*
X40221Y37046D2*
X40213Y31535D1*
G03X40413Y31335I200J0D01*
G01*
X40613D1*
X41213Y30635D1*
X100575Y38635D2*
X100675Y37835D1*
Y37635D1*
Y37627D1*
Y37619D1*
X100773Y32174D1*
Y31970D1*
X101373Y31270D1*
X161494Y36729D2*
X161594Y35928D1*
Y31177D1*
X162009Y30477D1*
X221812Y34665D2*
X221852Y28413D1*
X35141Y37046D2*
X35041Y37846D1*
Y38046D1*
G03X34519Y38843I-870J0D01*
G01*
X34351Y38917D1*
G03X33971Y38996I-380J-870D01*
G01*
X32301D1*
X32296D1*
X32291D1*
X16765Y38830D1*
X16265D1*
X45301Y37046D2*
X45401Y37846D1*
Y38046D1*
G02X45430Y38149I200J0D01*
G01*
X45606Y38444D1*
G02X46271Y38821I665J-398D01*
G01*
X46871D1*
G02X47247Y38724I0J-775D01*
G01*
X47331Y38677D1*
G02X47519Y38541I-461J-832D01*
G01*
X50825Y35458D1*
G03X51193Y35188I1332J1429D01*
G01*
X61203Y29514D1*
G03X62165Y29260I961J1696D01*
G01*
X63165D1*
G03X65115Y31210I0J1950D01*
G01*
Y33750D1*
G03X64415Y35247I-1950J0D01*
G01*
X63165Y36290D1*
X62665D1*
X58052Y38613D2*
X58519Y37964D1*
X59530Y38691D1*
X58448Y39308D1*
X58052Y38613D1*
X52155Y36885D2*
Y37660D1*
X50895D1*
X51434Y36538D1*
X52155Y36885D1*
X58052Y38613D2*
X62165Y38830D1*
X62665D1*
X42761Y37046D2*
X42861Y37846D1*
Y38046D1*
G02X43383Y38843I870J0D01*
G01*
X43551Y38917D1*
X43579Y38928D1*
X43607Y38939D1*
X45673Y39691D1*
G02X46271Y39796I598J-1646D01*
G01*
X46871D1*
G02X47893Y39507I0J-1951D01*
G01*
X52155Y36885D1*
X62665Y38830D2*
D3*
X37681Y37046D2*
X37581Y37846D1*
Y38046D1*
G03X37554Y38263I-870J0D01*
G01*
X37475Y38569D1*
G03X37343Y38937I-2033J-523D01*
G01*
X37114Y39425D1*
G03X35072Y41169I-2943J-1379D01*
G01*
X16765Y46450D1*
X16265D1*
X57874Y44094D2*
X58277Y43403D1*
X59352Y44030D1*
X58334Y44748D1*
X57874Y44094D1*
X34949Y28171D2*
X35563Y28683D1*
X34765Y29640D1*
X34227Y28517D1*
X34949Y28171D1*
X57874Y44094D2*
X62165Y43910D1*
X62665D1*
X33871Y37046D2*
X33971Y36246D1*
Y36046D1*
X33973Y35992D1*
X33978Y35938D1*
X34949Y28171D1*
X62665Y43910D2*
D3*
X36411Y37046D2*
X36311Y37846D1*
Y38046D1*
G03X36284Y38263I-870J0D01*
G01*
X36205Y38569D1*
G03X34610Y40100I-2034J-523D01*
G01*
X16765Y43910D1*
X16265D1*
X44031Y37046D2*
X44131Y36246D1*
Y36046D1*
X44132Y36008D1*
X44135Y35971D1*
X45235Y23248D1*
G02X41130Y20053I-3089J-267D01*
G01*
X36416Y21689D1*
X36398Y21696D1*
X36381Y21702D1*
X15103Y29376D1*
G02X14516Y32707I662J1834D01*
G01*
X15765Y33750D1*
X16265D1*
X41491Y37046D2*
X41591Y36246D1*
Y36046D1*
G03X41634Y35777I869J0D01*
G01*
X42917Y31829D1*
G02X42955Y31661I-908J-294D01*
G01*
X44080Y23240D1*
G02X41507Y21139I-1933J-258D01*
G01*
X36793Y22776D1*
X36734Y22797D1*
X36675Y22821D1*
X16765Y31210D1*
X16265D1*
X95495Y38635D2*
X95395Y39435D1*
Y39635D1*
G03X94873Y40432I-870J0D01*
G01*
X94705Y40505D1*
G03X94325Y40585I-380J-870D01*
G01*
X92655D1*
G03X92473Y40567I0J-952D01*
G01*
X84571Y39028D1*
G02X84242Y38993I-372J1909D01*
G01*
X77118Y38830D1*
X76618D1*
X105655Y38635D2*
X105755Y39435D1*
Y39635D1*
G02X106277Y40432I870J0D01*
G01*
X106445Y40505D1*
G02X106825Y40585I380J-871D01*
G01*
X107225D1*
G02X107484Y40549I0J-952D01*
G01*
X122518Y36290D1*
X123018D1*
X103115Y38635D2*
X103215Y39435D1*
Y39635D1*
G02X103663Y40396I870J0D01*
G01*
X105608Y41472D1*
G02X106625Y41735I1017J-1838D01*
G01*
X107225D1*
G02X107676Y41686I1J-2096D01*
G01*
X115586Y39945D1*
X115674Y39927D1*
X115762Y39912D1*
X122518Y38830D1*
X123018D1*
X98035Y38635D2*
X97935Y39435D1*
Y39635D1*
G03X97907Y39851I-870J0D01*
G01*
X97829Y40158D1*
G03X97696Y40526I-2033J-523D01*
G01*
X97468Y41014D1*
G03X95005Y42849I-2943J-1379D01*
G01*
X86695Y44091D1*
X86605Y44106D1*
X86515Y44126D1*
X77118Y46450D1*
X76618D1*
X116252Y42973D2*
X116780Y42371D1*
X117716Y43192D1*
X116581Y43703D1*
X116252Y42973D1*
X95053Y25516D2*
X95699Y25988D1*
X94964Y26993D1*
X94356Y25907D1*
X95053Y25516D1*
X116252Y42973D2*
X122518Y43910D1*
X123018D1*
X94225Y38635D2*
X94325Y37835D1*
Y37635D1*
Y37609D1*
X94326Y37582D1*
X95053Y25516D1*
X123018Y43910D2*
D3*
X96765Y38635D2*
X96665Y39435D1*
Y39635D1*
G03X96637Y39851I-870J0D01*
G01*
X96559Y40158D1*
G03X94783Y41719I-2034J-523D01*
G01*
X77118Y43910D1*
X76618D1*
X104385Y38635D2*
X104485Y37835D1*
Y37635D1*
X104486Y37591D1*
X104489Y37547D1*
X105996Y22761D1*
G02X103830Y19486I-3084J-315D01*
G01*
X98010Y17681D1*
G02X94597Y18077I-1259J4059D01*
G01*
X75129Y29529D1*
G02X74869Y32707I989J1681D01*
G01*
X76118Y33750D1*
X76618D1*
X101845Y38635D2*
X101945Y37835D1*
Y37635D1*
G03X101966Y37445I872J0D01*
G01*
X103100Y32378D1*
X103104Y32359D1*
X103108Y32339D1*
X104831Y22793D1*
G02X103490Y20584I-1919J-346D01*
G01*
X97669Y18780D1*
G02X95021Y19168I-918J2961D01*
G01*
X77118Y31210D1*
X76618D1*
X156414Y36729D2*
X156314Y37529D1*
Y37729D1*
G03X155792Y38526I-870J0D01*
G01*
X155624Y38599D1*
G03X155252Y38678I-380J-871D01*
G01*
X137437Y38830D1*
X136937D1*
X178375Y38620D2*
X178447Y37823D1*
X179687Y37935D1*
X179070Y39017D1*
X178375Y38620D1*
X173343Y32285D2*
X173615Y33038D1*
X172445Y33462D1*
X172546Y32221D1*
X173343Y32285D1*
X178375Y38620D2*
X182837Y36290D1*
X183337D1*
X166574Y36729D2*
X166674Y37529D1*
Y37729D1*
G02X166702Y37831I200J0D01*
G01*
X166879Y38126D1*
G02X167544Y38504I665J-398D01*
G01*
X168144D1*
G02X168519Y38407I0J-775D01*
G01*
X168604Y38360D1*
G02X168899Y38105I-461J-832D01*
G01*
X173343Y32285D1*
X183337Y36290D2*
D3*
X164034Y36729D2*
X164134Y37529D1*
Y37729D1*
G02X164656Y38526I870J0D01*
G01*
X164824Y38599D1*
X164851Y38611D1*
X164879Y38621D1*
X166945Y39373D1*
G02X167544Y39479I598J-1646D01*
G01*
X168144D1*
G02X169367Y39064I0J-2012D01*
G01*
X181652Y29662D1*
G03X182837Y29260I1185J1548D01*
G01*
X183837D1*
G03X185787Y31210I0J1950D01*
G01*
Y36290D1*
G03X185087Y37787I-1950J0D01*
G01*
X183837Y38830D1*
X183337D1*
X158954Y36729D2*
X158854Y37529D1*
Y37729D1*
G03X158826Y37945I-870J0D01*
G01*
X158748Y38251D1*
G03X158615Y38620I-2033J-523D01*
G01*
X158387Y39108D1*
G03X156366Y40845I-2943J-1379D01*
G01*
X137437Y46450D1*
X136937D1*
X178700Y43129D2*
X179250Y42548D1*
X180154Y43404D1*
X179000Y43871D1*
X178700Y43129D1*
X163163Y24858D2*
X162680Y25496D1*
X161687Y24744D1*
X162784Y24153D1*
X163163Y24858D1*
X178700Y43129D2*
X182837Y43910D1*
X183337D1*
X155144Y36729D2*
X155244Y35928D1*
Y35729D1*
Y35710D1*
Y35691D1*
X155649Y26298D1*
G03X157748Y24438I1948J84D01*
G01*
X163163Y24858D1*
X183337Y43910D2*
D3*
X157684Y36729D2*
X157584Y37529D1*
Y37729D1*
G03X157556Y37945I-870J0D01*
G01*
X157478Y38251D1*
G03X155902Y39778I-2034J-523D01*
G01*
X137437Y43910D1*
X136937D1*
X165304Y36729D2*
X165404Y35928D1*
Y35729D1*
Y35694D1*
X165406Y35659D1*
X166253Y25106D1*
G02X165928Y23457I-3091J-248D01*
G01*
X163768Y19194D1*
G02X159652Y17805I-2765J1401D01*
G01*
X135587Y29455D1*
G02X135188Y32707I850J1755D01*
G01*
X136437Y33750D1*
X136937D1*
X162764Y36729D2*
X162864Y35928D1*
Y35729D1*
G03X162883Y35545I871J0D01*
G01*
X163738Y31577D1*
X165071Y25261D1*
G02X164902Y23977I-1908J-403D01*
G01*
X162742Y19714D1*
G02X160070Y18883I-1739J881D01*
G01*
X137437Y31210D1*
X136937D1*
X216732Y34665D2*
X216632Y35465D1*
Y35665D1*
G03X216110Y36462I-870J0D01*
G01*
X215942Y36536D1*
G03X215679Y36608I-380J-871D01*
G01*
X197755Y38830D1*
X197255D1*
X238911Y38653D2*
X238961Y37854D1*
X240204Y37933D1*
X239616Y39030D1*
X238911Y38653D1*
X233472Y33736D2*
X233425Y34535D1*
X232182Y34462D1*
X232765Y33362D1*
X233472Y33736D1*
X238911Y38653D2*
X243155Y36290D1*
X243655D1*
X226892Y34665D2*
X226992Y35465D1*
Y35665D1*
G02X227021Y35768I200J0D01*
G01*
X227197Y36063D1*
G02X227862Y36440I665J-398D01*
G01*
X228462D1*
G02X228838Y36343I0J-775D01*
G01*
X228922Y36296D1*
X228928Y36293D1*
X233472Y33736D1*
X243655Y36290D2*
D3*
X224352Y34665D2*
X224452Y35465D1*
Y35665D1*
G02X224974Y36462I870J0D01*
G01*
X225142Y36536D1*
X225170Y36547D1*
X225198Y36558D1*
X227264Y37309D1*
G02X227862Y37415I598J-1646D01*
G01*
X228462D1*
G02X229137Y37295I0J-1949D01*
G01*
X232217Y36159D1*
X232337Y36117D1*
X232459Y36078D1*
X234035Y35603D1*
G02X234661Y35282I-563J-1868D01*
G01*
X241967Y29664D1*
G03X243155Y29260I1189J1546D01*
G01*
X244155D1*
G03X246105Y31210I0J1950D01*
G01*
Y36290D1*
G03X245405Y37787I-1950J0D01*
G01*
X244155Y38830D1*
X243655D1*
X219272Y34665D2*
X219172Y35465D1*
Y35665D1*
G03X219145Y35882I-870J0D01*
G01*
X219066Y36188D1*
G03X218934Y36556I-2033J-523D01*
G01*
X218705Y37044D1*
G03X216949Y38690I-2943J-1379D01*
G01*
X206228Y42897D1*
X206207Y42906D1*
X206186Y42914D1*
X197755Y46450D1*
X197255D1*
X239268Y43583D2*
X239755Y42949D1*
X240743Y43707D1*
X239643Y44290D1*
X239268Y43583D1*
X212883Y23407D2*
X213640Y23668D1*
X213235Y24845D1*
X212332Y23987D1*
X212883Y23407D1*
X239268Y43583D2*
X243155Y43910D1*
X243655D1*
X215462Y34665D2*
X215362Y33865D1*
Y33665D1*
G02X215337Y33452I-897J0D01*
G01*
X212883Y23407D1*
X243655Y43910D2*
D3*
X218002Y34665D2*
X217902Y35465D1*
Y35665D1*
G03X217875Y35882I-870J0D01*
G01*
X217796Y36188D1*
G03X216429Y37656I-2034J-523D01*
G01*
X197755Y43910D1*
X197255D1*
X225622Y34665D2*
X225522Y33865D1*
Y33665D1*
X225521Y33611D1*
X225516Y33558D1*
X224736Y27255D1*
G02X224419Y26379I-2084J258D01*
G01*
X221280Y21484D1*
G02X218536Y20060I-2610J1674D01*
G01*
X212750Y20310D1*
G02X211357Y20709I134J3096D01*
G01*
X195795Y29513D1*
G02X195506Y32707I960J1697D01*
G01*
X196755Y33750D1*
X197255D1*
X223082Y34665D2*
X223182Y33865D1*
Y33665D1*
X223183Y33622D1*
X223187Y33580D1*
X223597Y29406D1*
X223601Y29360D1*
X223602Y29313D1*
Y27513D1*
G02X223451Y27000I-949J0D01*
G01*
X220312Y22105D1*
G02X218586Y21209I-1641J1053D01*
G01*
X212799Y21459D1*
G02X211797Y21788I84J1948D01*
G01*
X197755Y31210D1*
X197255D1*
D22*
X157597Y26382D3*
X96751Y21741D3*
X42147Y22981D3*
X218670Y23157D3*
X74208Y21909D3*
X119347Y54371D3*
X116167Y46985D3*
X51870Y42481D3*
X58968Y51261D3*
X111522Y45638D3*
X82707Y35496D3*
X86983Y46019D3*
X84198Y40942D3*
X171955Y42807D3*
X178212Y47961D3*
X233686Y40147D3*
X240225Y50067D3*
X28103Y45455D3*
X79659Y52989D3*
X37432Y24618D3*
X147752Y45604D3*
X102912Y22447D3*
X206940Y44712D3*
X161003Y20595D3*
X41188Y55516D3*
X217493Y56556D3*
X155825Y54647D3*
X212273Y55189D3*
X111532Y51451D3*
X149052Y52105D3*
X35810Y55475D3*
X102346Y58329D3*
X52155Y36885D3*
X58052Y38613D3*
X34949Y28171D3*
X57874Y44094D3*
X95053Y25516D3*
X116252Y42973D3*
X173343Y32285D3*
X178375Y38620D3*
X163163Y24858D3*
X178700Y43129D3*
X233472Y33736D3*
X238911Y38653D3*
X212883Y23407D3*
X239268Y43583D3*
D16*
X63176Y14762D3*
D17*
X66676D3*
X70176D3*
X73676D3*
X77176D3*
D19*
X62665Y31210D3*
Y33750D3*
Y36290D3*
Y38830D3*
Y41370D3*
Y43910D3*
Y46450D3*
Y48990D3*
X16265Y31210D3*
Y33750D3*
Y36290D3*
Y38830D3*
Y41370D3*
Y43910D3*
Y46450D3*
Y48990D3*
X123018Y31210D3*
Y33750D3*
Y36290D3*
Y38830D3*
Y41370D3*
Y43910D3*
Y46450D3*
Y48990D3*
X76618Y31210D3*
Y33750D3*
Y36290D3*
Y38830D3*
Y41370D3*
Y43910D3*
Y46450D3*
Y48990D3*
X183337Y31210D3*
Y33750D3*
Y36290D3*
Y38830D3*
Y41370D3*
Y43910D3*
Y46450D3*
Y48990D3*
X136937Y31210D3*
Y33750D3*
Y36290D3*
Y38830D3*
Y41370D3*
Y43910D3*
Y46450D3*
Y48990D3*
X243655Y31210D3*
Y33750D3*
Y36290D3*
Y38830D3*
Y41370D3*
Y43910D3*
Y46450D3*
Y48990D3*
X197255Y31210D3*
Y33750D3*
Y36290D3*
Y38830D3*
Y41370D3*
Y43910D3*
Y46450D3*
Y48990D3*
D20*
X38413Y30635D3*
X41213D3*
X98573Y31270D3*
X101373D3*
X159209Y30477D3*
X162009D3*
X219052Y28413D3*
X221852D3*
D21*
X32601Y46446D3*
X33871D3*
X35141D3*
X36411D3*
X37681D3*
X38951D3*
X40221D3*
X41491D3*
X42761D3*
X44031D3*
X45301D3*
X46571D3*
Y37046D3*
X45301D3*
X44031D3*
X42761D3*
X41491D3*
X40221D3*
X38951D3*
X37681D3*
X36411D3*
X35141D3*
X33871D3*
X32601D3*
X92955Y48035D3*
X94225D3*
X95495D3*
X96765D3*
X98035D3*
X99305D3*
X100575D3*
X101845D3*
X103115D3*
X104385D3*
X105655D3*
X106925D3*
Y38635D3*
X105655D3*
X104385D3*
X103115D3*
X101845D3*
X100575D3*
X99305D3*
X98035D3*
X96765D3*
X95495D3*
X94225D3*
X92955D3*
G36*
X154174Y45129D2*
X153574D1*
Y47129D1*
X154174D1*
Y45129D1*
G37*
G36*
X155444D2*
X154844D1*
Y47129D1*
X155444D1*
Y45129D1*
G37*
G36*
X156714D2*
X156114D1*
Y47129D1*
X156714D1*
Y45129D1*
G37*
G36*
X157984D2*
X157384D1*
Y47129D1*
X157984D1*
Y45129D1*
G37*
G36*
X159254D2*
X158654D1*
Y47129D1*
X159254D1*
Y45129D1*
G37*
G36*
X160524D2*
X159924D1*
Y47129D1*
X160524D1*
Y45129D1*
G37*
G36*
X161794D2*
X161194D1*
Y47129D1*
X161794D1*
Y45129D1*
G37*
G36*
X163064D2*
X162464D1*
Y47129D1*
X163064D1*
Y45129D1*
G37*
G36*
X164334D2*
X163734D1*
Y47129D1*
X164334D1*
Y45129D1*
G37*
G36*
X165604D2*
X165004D1*
Y47129D1*
X165604D1*
Y45129D1*
G37*
G36*
X166874D2*
X166274D1*
Y47129D1*
X166874D1*
Y45129D1*
G37*
G36*
X168144D2*
X167544D1*
Y47129D1*
X168144D1*
Y45129D1*
G37*
G36*
Y35728D2*
X167544D1*
Y37728D1*
X168144D1*
Y35728D1*
G37*
G36*
X166874D2*
X166274D1*
Y37728D1*
X166874D1*
Y35728D1*
G37*
G36*
X165604D2*
X165004D1*
Y37728D1*
X165604D1*
Y35728D1*
G37*
G36*
X164334D2*
X163734D1*
Y37728D1*
X164334D1*
Y35728D1*
G37*
G36*
X163064D2*
X162464D1*
Y37728D1*
X163064D1*
Y35728D1*
G37*
G36*
X161794D2*
X161194D1*
Y37728D1*
X161794D1*
Y35728D1*
G37*
G36*
X160524D2*
X159924D1*
Y37728D1*
X160524D1*
Y35728D1*
G37*
G36*
X159254D2*
X158654D1*
Y37728D1*
X159254D1*
Y35728D1*
G37*
G36*
X157984D2*
X157384D1*
Y37728D1*
X157984D1*
Y35728D1*
G37*
G36*
X156714D2*
X156114D1*
Y37728D1*
X156714D1*
Y35728D1*
G37*
G36*
X155444D2*
X154844D1*
Y37728D1*
X155444D1*
Y35728D1*
G37*
G36*
X154174D2*
X153574D1*
Y37728D1*
X154174D1*
Y35728D1*
G37*
G36*
X214492Y43065D2*
X213892D1*
Y45065D1*
X214492D1*
Y43065D1*
G37*
G36*
X215762D2*
X215162D1*
Y45065D1*
X215762D1*
Y43065D1*
G37*
G36*
X217032D2*
X216432D1*
Y45065D1*
X217032D1*
Y43065D1*
G37*
G36*
X218302D2*
X217702D1*
Y45065D1*
X218302D1*
Y43065D1*
G37*
G36*
X219572D2*
X218972D1*
Y45065D1*
X219572D1*
Y43065D1*
G37*
G36*
X220842D2*
X220242D1*
Y45065D1*
X220842D1*
Y43065D1*
G37*
G36*
X222112D2*
X221512D1*
Y45065D1*
X222112D1*
Y43065D1*
G37*
G36*
X223382D2*
X222782D1*
Y45065D1*
X223382D1*
Y43065D1*
G37*
G36*
X224652D2*
X224052D1*
Y45065D1*
X224652D1*
Y43065D1*
G37*
G36*
X225922D2*
X225322D1*
Y45065D1*
X225922D1*
Y43065D1*
G37*
G36*
X227192D2*
X226592D1*
Y45065D1*
X227192D1*
Y43065D1*
G37*
G36*
X228462D2*
X227862D1*
Y45065D1*
X228462D1*
Y43065D1*
G37*
G36*
Y33665D2*
X227862D1*
Y35665D1*
X228462D1*
Y33665D1*
G37*
G36*
X227192D2*
X226592D1*
Y35665D1*
X227192D1*
Y33665D1*
G37*
G36*
X225922D2*
X225322D1*
Y35665D1*
X225922D1*
Y33665D1*
G37*
G36*
X224652D2*
X224052D1*
Y35665D1*
X224652D1*
Y33665D1*
G37*
G36*
X223382D2*
X222782D1*
Y35665D1*
X223382D1*
Y33665D1*
G37*
G36*
X222112D2*
X221512D1*
Y35665D1*
X222112D1*
Y33665D1*
G37*
G36*
X220842D2*
X220242D1*
Y35665D1*
X220842D1*
Y33665D1*
G37*
G36*
X219572D2*
X218972D1*
Y35665D1*
X219572D1*
Y33665D1*
G37*
G36*
X218302D2*
X217702D1*
Y35665D1*
X218302D1*
Y33665D1*
G37*
G36*
X217032D2*
X216432D1*
Y35665D1*
X217032D1*
Y33665D1*
G37*
G36*
X215762D2*
X215162D1*
Y35665D1*
X215762D1*
Y33665D1*
G37*
G36*
X214492D2*
X213892D1*
Y35665D1*
X214492D1*
Y33665D1*
G37*
X41945Y15092D2*
D15*
D3*
X40478Y18133D2*
D3*
X39369Y16613D2*
D3*
X37527Y16359D2*
D3*
Y15092D2*
D3*
X36287D2*
D3*
G36*
X30069Y21895D2*
X29230Y21978D1*
X28391Y21895D1*
X27585Y21650D1*
X26841Y21253D1*
X26190Y20718D1*
X25655Y20067D1*
X25258Y19323D1*
X25013Y18517D1*
X25488Y18393D1*
D1*
X26498Y19248D1*
X26084Y19559D1*
X27875Y20374D1*
X26863Y19500D1*
X27344Y19185D1*
X25488Y18393D1*
X25013Y18517D1*
X24931Y17678D1*
X25013Y16839D1*
X25258Y16033D1*
X25655Y15289D1*
X25730Y15727D1*
D1*
Y16133D1*
X26301D1*
Y17400D1*
X26763D1*
X26888D1*
D1*
X28003D1*
X28276Y17248D1*
D1*
Y18222D1*
X30954D1*
Y15727D1*
X31318D1*
D1*
Y19743D1*
X30954D1*
D1*
Y18768D1*
X28276D1*
Y19743D1*
X30954D1*
X31318D1*
X32421D1*
Y15727D1*
X31318D1*
X30954D1*
X29845D1*
Y17248D1*
X28276D1*
X28003Y17400D1*
Y16994D1*
X26888D1*
Y17400D1*
X26763D1*
Y15727D1*
X26888D1*
D1*
Y16133D1*
X27541D1*
Y16360D1*
X26888D1*
Y16767D1*
X28003D1*
Y15727D1*
X26888D1*
X26763D1*
X25730D1*
X25655Y15289D1*
X26190Y14638D1*
X26841Y14103D1*
X27585Y13706D1*
X28391Y13461D1*
X29230Y13379D1*
X30069Y13461D1*
X30875Y13706D1*
X31619Y14103D1*
X32270Y14638D1*
X32805Y15289D1*
X33202Y16033D1*
X33447Y16839D1*
X33530Y17678D1*
X33447Y18517D1*
X33202Y19323D1*
X32805Y20067D1*
X32270Y20718D1*
X31619Y21253D1*
X30875Y21650D1*
X30069Y21895D1*
G37*
X35012Y17758D2*
D15*
D3*
M02*
