G04 DipTrace 2.4.0.2*
%INНижнємаркування.gbr*%
%MOMM*%
%ADD10C,0.25*%
%ADD38C,0.196*%
%FSLAX53Y53*%
G04*
G71*
G90*
G75*
G01*
%LNBotSilk*%
%LPD*%
X39514Y31435D2*
D10*
X40112D1*
X39514Y29836D2*
X40112D1*
X99674Y32070D2*
X100272D1*
X99674Y30471D2*
X100272D1*
X160310Y31276D2*
X160909D1*
X160310Y29677D2*
X160909D1*
X220153Y29212D2*
X220751D1*
X220153Y27614D2*
X220751D1*
X31787Y44946D2*
X47386D1*
X31787Y38546D2*
X47386D1*
Y44946D2*
Y38546D1*
X31787Y44946D2*
Y42546D1*
Y40946D2*
Y38546D1*
Y42546D2*
G02X31787Y40946I0J-800D01*
G01*
X92140Y46535D2*
X107740D1*
X92140Y40135D2*
X107740D1*
Y46535D2*
Y40135D1*
X92140Y46535D2*
Y44135D1*
Y42534D2*
Y40135D1*
Y44135D2*
G02X92140Y42534I0J-800D01*
G01*
X153059Y44628D2*
X168658D1*
X153059Y38229D2*
X168658D1*
Y44628D2*
Y38229D1*
X153059Y44628D2*
Y42229D1*
Y40628D2*
Y38229D1*
Y42229D2*
G02X153059Y40628I0J-800D01*
G01*
X213378Y42565D2*
X228977D1*
X213378Y36165D2*
X228977D1*
Y42565D2*
Y36165D1*
X213378Y42565D2*
Y40165D1*
Y38565D2*
Y36165D1*
Y40165D2*
G02X213378Y38565I0J-800D01*
G01*
X44397Y30425D2*
D38*
X43851D1*
X43668Y30486D1*
X43606Y30547D1*
X43546Y30667D1*
Y30790D1*
X43606Y30910D1*
X43668Y30972D1*
X43851Y31032D1*
X44397D1*
Y29756D1*
X43971Y30425D2*
X43546Y29756D1*
X43154Y30788D2*
X43032Y30850D1*
X42849Y31031D1*
Y29756D1*
X101814Y29155D2*
X101268D1*
X101085Y29216D1*
X101023Y29277D1*
X100963Y29398D1*
Y29520D1*
X101023Y29640D1*
X101085Y29702D1*
X101268Y29763D1*
X101814D1*
Y28486D1*
X101388Y29155D2*
X100963Y28486D1*
X100509Y29458D2*
Y29518D1*
X100449Y29640D1*
X100388Y29701D1*
X100266Y29761D1*
X100023D1*
X99903Y29701D1*
X99842Y29640D1*
X99780Y29518D1*
Y29398D1*
X99842Y29275D1*
X99963Y29094D1*
X100571Y28486D1*
X99720D1*
X162450Y27885D2*
X161904D1*
X161721Y27947D1*
X161659Y28007D1*
X161599Y28128D1*
Y28250D1*
X161659Y28371D1*
X161721Y28432D1*
X161904Y28493D1*
X162450D1*
Y27217D1*
X162024Y27885D2*
X161599Y27217D1*
X161085Y28491D2*
X160418D1*
X160782Y28006D1*
X160599D1*
X160478Y27945D1*
X160418Y27885D1*
X160356Y27702D1*
Y27582D1*
X160418Y27399D1*
X160539Y27277D1*
X160721Y27217D1*
X160904D1*
X161085Y27277D1*
X161145Y27339D1*
X161207Y27459D1*
X222164Y25504D2*
X221618D1*
X221435Y25566D1*
X221373Y25626D1*
X221313Y25747D1*
Y25869D1*
X221373Y25990D1*
X221435Y26051D1*
X221618Y26112D1*
X222164D1*
Y24836D1*
X221738Y25504D2*
X221313Y24836D1*
X220313D2*
Y26110D1*
X220921Y25261D1*
X220010D1*
X40360Y42460D2*
Y41549D1*
X40300Y41367D1*
X40178Y41246D1*
X39995Y41184D1*
X39874D1*
X39692Y41246D1*
X39570Y41367D1*
X39509Y41549D1*
Y42460D1*
X39117Y42216D2*
X38995Y42278D1*
X38813Y42459D1*
Y41184D1*
X100987Y44049D2*
Y43138D1*
X100926Y42956D1*
X100804Y42835D1*
X100622Y42773D1*
X100501D1*
X100318Y42835D1*
X100196Y42956D1*
X100136Y43138D1*
Y44049D1*
X99682Y43745D2*
Y43805D1*
X99622Y43927D1*
X99561Y43987D1*
X99439Y44048D1*
X99196D1*
X99075Y43987D1*
X99015Y43927D1*
X98953Y43805D1*
Y43684D1*
X99015Y43562D1*
X99136Y43381D1*
X99744Y42773D1*
X98893D1*
X161905Y42143D2*
Y41232D1*
X161845Y41049D1*
X161723Y40929D1*
X161540Y40867D1*
X161420D1*
X161237Y40929D1*
X161115Y41049D1*
X161055Y41232D1*
Y42143D1*
X160540Y42142D2*
X159874D1*
X160237Y41656D1*
X160055D1*
X159934Y41596D1*
X159874Y41535D1*
X159812Y41353D1*
Y41232D1*
X159874Y41049D1*
X159994Y40927D1*
X160177Y40867D1*
X160359D1*
X160540Y40927D1*
X160601Y40989D1*
X160663Y41110D1*
X222254Y40079D2*
Y39168D1*
X222194Y38986D1*
X222072Y38865D1*
X221889Y38803D1*
X221769D1*
X221586Y38865D1*
X221464Y38986D1*
X221404Y39168D1*
Y40079D1*
X220404Y38803D2*
Y40078D1*
X221011Y39229D1*
X220100D1*
M02*
