G04 DipTrace 5.1.0.1*
G04 1 - Верхній.gbr*
%MOMM*%
G04 #@! TF.FileFunction,Copper,L1,Top*
G04 #@! TF.Part,Single*
G04 #@! TA.AperFunction,Conductor*
%ADD15C,0.8*%
%ADD16C,0.4*%
%ADD18R,1.5X1.3*%
G04 #@! TA.AperFunction,ComponentPad*
%ADD19R,2.3X2.3*%
%ADD20C,2.3*%
%ADD21O,3.0X2.0*%
G04 #@! TA.AperFunction,ViaPad*
%ADD24C,2.0*%
%FSLAX35Y35*%
G04*
G71*
G90*
G75*
G01*
G04 Top*
%LPD*%
X21713567Y2866260D2*
D15*
X21770067Y2886450D1*
X21726017Y3009720D1*
X21661387Y2895890D1*
X21713567Y2866260D1*
X10119367Y2439110D2*
X10070737Y2474270D1*
X9994047Y2368180D1*
X10124477Y2379330D1*
X10119367Y2439110D1*
X15946697Y3323000D2*
X15996767Y3356060D1*
X15924617Y3465300D1*
X15888967Y3339340D1*
X15946697Y3323000D1*
X10119367Y2439110D2*
X10149007Y2386940D1*
X10262827Y2451590D1*
X10139547Y2495620D1*
X10119367Y2439110D1*
X3639187Y3337490D2*
X3694037Y3361810D1*
X3640977Y3481480D1*
X3584957Y3363170D1*
X3639187Y3337490D1*
X21713567Y2866260D2*
X21733377Y2922900D1*
X21609807Y2966110D1*
X21657737Y2844300D1*
X21713567Y2866260D1*
X15946697Y3323000D2*
X15908697Y3369440D1*
X15807387Y3286530D1*
X15936317Y3263900D1*
X15946697Y3323000D1*
X9944667Y3429150D2*
X9988767Y3473250D1*
X9896987Y3565030D1*
X9884917Y3434680D1*
X9944667Y3429150D1*
X21826057Y3825690D2*
X21791057Y3800690D1*
X15809817Y4047680D2*
X15844817Y4022680D1*
X9650967Y4238160D2*
X9685967Y4213160D1*
X3682597Y4079903D2*
X3647597Y4054900D1*
X3639187Y3337490D1*
X3682597Y4079903D2*
X3647597Y4104900D1*
X6317567Y1476200D2*
X6242567Y1551200D1*
X6202567D1*
G02X6190727Y1552990I-43J39770D01*
G01*
X3675827Y2332460D1*
G02X3542677Y2411850I97712J315232D01*
G01*
X3123427Y2822270D1*
X3119103Y2826587D1*
X3114857Y2830980D1*
X2676467Y3293130D1*
G02X2589837Y3469340I239448J227120D01*
G01*
X2491977Y4096180D1*
G02X2762067Y4336460I212432J33152D01*
G01*
X3580777Y4108560D1*
G03X3607597Y4104900I26785J96178D01*
G01*
X3647597D1*
X10119367Y2439110D2*
X7887497Y1175950D1*
G02X7717567Y1131200I-169946J300324D01*
G01*
X7017567D1*
G02X6904207Y1150350I-54J344780D01*
G01*
X6591997Y1258970D1*
X6589510Y1259850D1*
X6587037Y1260760D1*
X6418567Y1323730D1*
G02X6392567Y1361200I14001J37470D01*
G01*
Y1401200D1*
X6317567Y1476200D1*
X21713567Y2866260D2*
X21208327Y3352420D1*
G03X20924847Y3365290I-149065J-154916D01*
G01*
X20104527Y2708210D1*
G02X20015897Y2674390I-96924J120960D01*
G01*
X15667447Y2441350D1*
G02X15445417Y2612380I-11516J214684D01*
G01*
X15386297Y2897460D1*
X10119367Y2439110D1*
X21791057Y3800690D2*
Y3760690D1*
X21791020Y3758960D1*
X21790907Y3757230D1*
X21713567Y2866260D1*
X15946697Y3323000D2*
X15559117Y3221530D1*
G03X15399567Y3034300I54460J-208005D01*
G01*
X15386297Y2897460D1*
X15844817Y4022680D2*
Y3982680D1*
X15844933Y3979607D1*
X15845287Y3976550D1*
X15946697Y3323000D1*
X9685967Y4213160D2*
Y4173160D1*
G03X9688227Y4159910I40044J12D01*
G01*
X9944667Y3429150D1*
X7367567Y1476200D2*
D16*
X7417697Y1556890D1*
X7305187Y1626790D1*
X7275057Y1497810D1*
X7367567Y1476200D1*
X7185957Y1914630D2*
X7140327Y1848920D1*
X7242597Y1777900D1*
X7264687Y1900440D1*
X7185957Y1914630D1*
X7367567Y1476200D2*
X7185957Y1914630D1*
X6667567Y1476200D2*
Y1378400D1*
X6797967D1*
X6758177Y1504740D1*
X6667567Y1476200D1*
X11027607Y4622610D2*
X10954487Y4590140D1*
X11005017Y4476340D1*
X11087527Y4569600D1*
X11027607Y4622610D1*
X23076437Y4506270D2*
X23099797Y4582780D1*
X22980717Y4619150D1*
X22997137Y4495720D1*
X23076437Y4506270D1*
X16781517Y5200250D2*
X16831467Y5137760D1*
X16928727Y5215500D1*
X16817587Y5271660D1*
X16781517Y5200250D1*
X16745457Y5271670D1*
X16634307Y5215540D1*
X16731557Y5137770D1*
X16781517Y5200250D1*
X11444327Y5158750D2*
X11514987Y5121240D1*
X11573367Y5231220D1*
X11449067Y5238600D1*
X11444327Y5158750D1*
X5312357Y4672760D2*
X5274947Y4602050D1*
X5385007Y4543820D1*
X5392227Y4668130D1*
X5312357Y4672760D1*
X6667567Y1476200D2*
X6891567Y1308200D1*
G03X7017567Y1266200I126003J168010D01*
G01*
X7717567D1*
G03X7927347Y1466510I-1J210005D01*
G01*
X7944797Y1844210D1*
X10583217Y2967340D1*
G03X10687637Y3073710I-76363J179401D01*
G01*
X10842307Y3456530D1*
G03X10854227Y3499820I-181253J73195D01*
G01*
X11027607Y4622610D1*
X23076437Y4506270D2*
X22731987Y4912480D1*
G03X22610197Y4979490I-148714J-126104D01*
G01*
X20031767Y5339140D1*
G03X20007587Y5340820I-24260J-174323D01*
G01*
X19470787D1*
X18077437Y5333680D1*
X18068857Y5333427D1*
X18060297Y5332750D1*
X16781517Y5200250D1*
X7944797Y1844210D2*
X7374737Y2209350D1*
G03X7323987Y2236260I-189025J-295174D01*
G01*
X6001837Y2803650D1*
G02X5990497Y2816470I7935J18445D01*
G01*
X5607657Y4129920D1*
G03X5576577Y4203780I-336069J-97947D01*
G01*
X5312357Y4672760D1*
X16781517Y5200250D2*
X16127397Y5268190D1*
X16126977Y5268230D1*
X14084787Y5475770D1*
G03X14055457Y5477260I-29487J-291026D01*
G01*
X13412387D1*
X13410850Y5477257D1*
X13409317Y5477240D1*
X12058837Y5462950D1*
G03X11919877Y5425820I3076J-290106D01*
G01*
X11444327Y5158750D1*
X4965537Y4290420D2*
D3*
X2915887Y3520240D2*
D3*
X4965537Y4290420D2*
X3771057Y3193840D1*
G02X3532027Y3174580I-131867J143669D01*
G01*
X3461437Y3221000D1*
X3454737Y3225213D1*
X3447877Y3229160D1*
X2915887Y3520240D1*
X2905067Y4529080D2*
D3*
X2054617Y4085410D2*
D3*
X2905067Y4529080D2*
X2632517Y4471880D1*
G03X2496837Y4411140I71840J-342384D01*
G01*
X2054617Y4085410D1*
X10725337Y5209700D2*
D3*
X11864387Y4166490D2*
D3*
X10725337Y5209700D2*
X11864387Y4166490D1*
X17238307Y4294830D2*
X17316067Y4276030D1*
X17345327Y4397060D1*
X17223087Y4373370D1*
X17238307Y4294830D1*
X17764877Y4797830D2*
X17687117Y4816630D1*
X17657857Y4695600D1*
X17780097Y4719290D1*
X17764877Y4797830D1*
X17238307Y4294830D2*
X17764877Y4797830D1*
X23033707Y5078060D2*
X23019357Y4999360D1*
X23141857Y4977030D1*
X23111257Y5097720D1*
X23033707Y5078060D1*
X23938587Y4232810D2*
X23952937Y4311510D1*
X23830437Y4333840D1*
X23861037Y4213150D1*
X23938587Y4232810D1*
X23033707Y5078060D2*
X23938587Y4232810D1*
X2704407Y4129340D2*
X2638297Y4084300D1*
X2708397Y3981390D1*
X2772857Y4087920D1*
X2704407Y4129340D1*
X7017567Y1476200D2*
Y1574000D1*
X6887167D1*
X6926957Y1447660D1*
X7017567Y1476200D1*
X2704407Y4129340D2*
X2720957Y3514990D1*
G03X2774417Y3386040I194892J5241D01*
G01*
X3212807Y2923890D1*
X3215317Y2921293D1*
X3217867Y2918740D1*
X3637117Y2508320D1*
G03X3724427Y2458950I136428J139382D01*
G01*
X6720447Y1679430D1*
G02X6793567Y1644200I-52812J-203107D01*
G01*
X7017567Y1476200D1*
X5889167Y2390720D2*
X5854347Y2462740D1*
X5742247Y2408560D1*
X5838127Y2329120D1*
X5889167Y2390720D1*
X3773527Y2647670D2*
X3808347Y2575650D1*
X3920447Y2629830D1*
X3824567Y2709270D1*
X3773527Y2647670D1*
X5889167Y2390720D2*
X3773527Y2647670D1*
X14928867Y4624280D2*
Y4706840D1*
X14806037D1*
X14855427Y4592540D1*
X14928867Y4624280D1*
X11640097Y4691640D2*
X11719547Y4682290D1*
X11734107Y4805940D1*
X11615587Y4767790D1*
X11640097Y4691640D1*
X14928867Y4624280D2*
X14066647Y5203850D1*
G03X14055457Y5207260I-11179J-16619D01*
G01*
X13412387D1*
X12061697Y5192970D1*
G03X12046417Y5185660I214J-20072D01*
G01*
X11640097Y4691640D1*
X20933037Y4283800D2*
X20855047D1*
Y4158010D1*
X20967457Y4211580D1*
X20933037Y4283800D1*
X15655937Y2656040D2*
X15701517Y2590300D1*
X15803847Y2661240D1*
X15696797Y2724820D1*
X15655937Y2656040D1*
X20933037Y4283800D2*
X20024637Y2818650D1*
G02X20008307Y2809180I-17039J10567D01*
G01*
X15655937Y2656040D1*
X9628767Y5204770D2*
D15*
X9574227Y5179770D1*
X9628767Y5060770D1*
X9683307Y5179770D1*
X9628767Y5204770D1*
X21818657Y4798170D2*
X21842817Y4743240D1*
X21962637Y4795950D1*
X21844497Y4852320D1*
X21818657Y4798170D1*
X22583257Y4786360D2*
X22559097Y4841290D1*
X22439277Y4788580D1*
X22557417Y4732210D1*
X22583257Y4786360D1*
X15628137Y4974550D2*
X15663727Y4926240D1*
X15769117Y5003880D1*
X15641507Y5033040D1*
X15628137Y4974550D1*
X16107257Y5074230D2*
X16071667Y5122540D1*
X15966277Y5044900D1*
X16093887Y5015740D1*
X16107257Y5074230D1*
X4514537Y5035580D2*
X4546767Y4984970D1*
X4657187Y5055270D1*
X4531847Y5093030D1*
X4514537Y5035580D1*
X15628137Y4974550D2*
X15580227Y4938430D1*
X15659037Y4833910D1*
X15686767Y4961830D1*
X15628137Y4974550D1*
X3829327Y5060510D2*
X3852327Y5005090D1*
X3973227Y5055270D1*
X3856287Y5114110D1*
X3829327Y5060510D1*
X4514537Y5035580D2*
X4491537Y5091000D1*
X4370637Y5040820D1*
X4487577Y4981980D1*
X4514537Y5035580D1*
X21818657Y4798170D2*
X21806277Y4856880D1*
X21678187Y4829870D1*
X21782257Y4750460D1*
X21818657Y4798170D1*
X16107257Y5074230D2*
X16124747Y5016840D1*
X16249967Y5054990D1*
X16139327Y5124940D1*
X16107257Y5074230D1*
X7717567Y1476200D2*
X7758497Y1539050D1*
X7621367Y1628340D1*
X7643237Y1466170D1*
X7717567Y1476200D1*
X21818657Y4798170D2*
X21764117Y4773170D1*
X21818657Y4654170D1*
X21873197Y4773170D1*
X21818657Y4798170D1*
X9628767Y5204770D2*
X9654557Y5150590D1*
X9772757Y5206850D1*
X9652977Y5259670D1*
X9628767Y5204770D1*
X10305267Y5175410D2*
X10364187Y5164100D1*
X10377157Y5231610D1*
X10305267Y5175410D1*
X4514537Y5035580D2*
X4455587Y5046750D1*
X4431217Y4918140D1*
X4544547Y4983630D1*
X4514537Y5035580D1*
X15628137Y4974550D2*
X15616367Y5033390D1*
X15488007Y5007700D1*
X15591247Y4927230D1*
X15628137Y4974550D1*
X9650967Y4428160D2*
X9628767Y4453160D1*
X3682597Y4269900D2*
X3717597Y4294900D1*
X15809817Y4237680D2*
X15774817Y4262680D1*
X3829327Y5060510D2*
X4514537Y5035580D1*
X21826057Y4015690D2*
X21818657Y4040690D1*
X3717597Y4294900D2*
X3757597D1*
G03X3775887Y4299330I1J39969D01*
G01*
X4116417Y4474440D1*
X4957657Y4505280D1*
G02X5104237Y4454700I7869J-214880D01*
G01*
X5410337Y4196260D1*
G02X5478047Y4092140I-138737J-164298D01*
G01*
X5860887Y2778690D1*
G03X5948597Y2679600I148832J43376D01*
G01*
X7270747Y2112210D1*
G02X7367677Y2029540I-84800J-197588D01*
G01*
X7717567Y1476200D1*
X10377157Y5231610D2*
X10603737Y5387010D1*
G02X10865477Y5372750I121598J-177318D01*
G01*
X11304187Y4995700D1*
G03X11577037Y4989590I140145J163056D01*
G01*
X11966207Y5294910D1*
G02X12060267Y5327960I95706J-122006D01*
G01*
X13410747Y5342250D1*
X13411567Y5342257D1*
X13412387Y5342260D1*
X14055457D1*
G02X14091147Y5338100I61J-154651D01*
G01*
X15628137Y4974550D1*
X10305267Y5175410D2*
X10305380Y5177490D1*
X10377017Y5231790D2*
X10377157Y5231610D1*
X9628767Y5204770D2*
X9990097Y5209980D1*
X10288687Y5265140D1*
G02X10377017Y5231790I16588J-89715D01*
G01*
X9628767Y4453160D2*
Y5204770D1*
X4514537Y5035580D2*
X4116417Y4474440D1*
X21818657Y4798170D2*
X22583257Y4786360D1*
X16107257Y5074230D2*
X16752787Y4987180D1*
G03X16816997Y4988200I28727J213150D01*
G01*
X18071727Y5198130D1*
X18074917Y5198533D1*
X18078127Y5198680D1*
X19471477Y5205820D1*
X20007587D1*
X20012023Y5205577D1*
X20016407Y5204840D1*
X21818657Y4798170D1*
X15628137Y4974550D2*
X16107257Y5074230D1*
X15774817Y4262680D2*
Y4302680D1*
X15774583Y4306997D1*
X15773887Y4311260D1*
X15628137Y4974550D1*
X4514537Y5035580D2*
X6004267Y5241160D1*
X6006017Y5241363D1*
X6007777Y5241490D1*
X9618177Y5419510D1*
G02X9754177Y5379400I10569J-214785D01*
G01*
X9990097Y5209980D1*
X21818657Y4040690D2*
Y4798170D1*
X3354277Y3058090D2*
D16*
D3*
X5271637Y4031980D2*
D3*
X3354277Y3058090D2*
X3603917Y3029500D1*
G03X3808527Y3077830I35276J307940D01*
G01*
X5271637Y4031980D1*
X10661507Y3529580D2*
D3*
X8760247Y3456250D2*
D3*
X10661507Y3529580D2*
X10022747Y3250460D1*
G02X9908177Y3237590I-78078J178668D01*
G01*
X8760247Y3456250D1*
X10506837Y3146760D2*
D3*
X8225447Y3158890D2*
D3*
X10506837Y3146760D2*
X9960087Y3119530D1*
X9948790Y3119173D1*
X9937487Y3119230D1*
X8225447Y3158890D1*
X17280837Y3682500D2*
X17349537Y3641500D1*
X17413347Y3748430D1*
X17289577Y3762020D1*
X17280837Y3682500D1*
X17885977Y3983580D2*
X17817277Y4024580D1*
X17753467Y3917650D1*
X17877237Y3904060D1*
X17885977Y3983580D1*
X17280837Y3682500D2*
X17885977Y3983580D1*
X15613567Y3013540D2*
X15675037Y2962350D1*
X15754717Y3058030D1*
X15634577Y3090730D1*
X15613567Y3013540D1*
X17879797Y4395470D2*
X17806257Y4426990D1*
X17757217Y4312530D1*
X17879797D1*
Y4395470D1*
X15613567Y3013540D2*
X16005317Y3137020D1*
G03X16055967Y3161490I-58687J186131D01*
G01*
X17879797Y4395470D1*
X22473057Y3093750D2*
X22547727Y3065020D1*
X22592427Y3181240D1*
X22468147Y3173600D1*
X22473057Y3093750D1*
X23947957Y3717380D2*
X23918517Y3791770D1*
X23802737Y3745950D1*
X23889633Y3659053D1*
X23947957Y3717380D1*
X22473057Y3093750D2*
X23387057Y3763590D1*
G02X23539967Y3797640I115267J-157270D01*
G01*
X23947957Y3717380D1*
X21059257Y3197490D2*
X21045987Y3118590D1*
X21168777Y3097940D1*
X21136527Y3218210D1*
X21059257Y3197490D1*
X23502327Y3606310D2*
X23427657Y3635040D1*
X23382957Y3518820D1*
X23507237Y3526460D1*
X23502327Y3606310D1*
X21059257Y3197490D2*
X21582407Y2721960D1*
G03X21769517Y2679460I131157J144297D01*
G01*
X22529007Y2906950D1*
G03X22588327Y2936470I-55895J186681D01*
G01*
X23502327Y3606310D1*
D24*
X9944667Y3429150D3*
X21713567Y2866260D3*
X3639187Y3337490D3*
X15946697Y3323000D3*
X10119367Y2439110D3*
X7185957Y1914630D3*
X5312357Y4672760D3*
X11444327Y5158750D3*
X23076437Y4506270D3*
X11027607Y4622610D3*
X16781517Y5200250D3*
X4965537Y4290420D3*
X2915887Y3520240D3*
X2905067Y4529080D3*
X2054617Y4085410D3*
X10725337Y5209700D3*
X11864387Y4166490D3*
X17238307Y4294830D3*
X17764877Y4797830D3*
X23033707Y5078060D3*
X23938587Y4232810D3*
X2704407Y4129340D3*
X5889167Y2390720D3*
X3773527Y2647670D3*
X14928867Y4624280D3*
X11640097Y4691640D3*
X20933037Y4283800D3*
X15655937Y2656040D3*
X22583257Y4786360D3*
X3829327Y5060510D3*
X10305267Y5175410D3*
X16107257Y5074230D3*
X15628137Y4974550D3*
X21818657Y4798170D3*
X4514537Y5035580D3*
X9628767Y5204770D3*
X3354277Y3058090D3*
X5271637Y4031980D3*
X10661507Y3529580D3*
X8760247Y3456250D3*
X10506837Y3146760D3*
X8225447Y3158890D3*
X17280837Y3682500D3*
X17885977Y3983580D3*
X15613567Y3013540D3*
X17879797Y4395470D3*
X22473057Y3093750D3*
X23947957Y3717380D3*
X21059257Y3197490D3*
X23502327Y3606310D3*
D18*
X9650967Y4428163D3*
Y4238163D3*
X3682597Y4269903D3*
Y4079903D3*
X15809817Y4237683D3*
Y4047683D3*
X21826057Y4015693D3*
Y3825693D3*
D19*
X6317567Y1476200D3*
D20*
X6667567D3*
X7017567D3*
X7367567D3*
X7717567D3*
D21*
X6266507Y3121000D3*
Y3375000D3*
Y3629000D3*
Y3883000D3*
Y4137000D3*
Y4391000D3*
Y4645000D3*
Y4899000D3*
X1626507Y3121000D3*
Y3375000D3*
Y3629000D3*
Y3883000D3*
Y4137000D3*
Y4391000D3*
Y4645000D3*
Y4899000D3*
X12301807Y3121000D3*
Y3375000D3*
Y3629000D3*
Y3883000D3*
Y4137000D3*
Y4391000D3*
Y4645000D3*
Y4899000D3*
X7661807Y3121000D3*
Y3375000D3*
Y3629000D3*
Y3883000D3*
Y4137000D3*
Y4391000D3*
Y4645000D3*
Y4899000D3*
X18333707Y3121000D3*
Y3375000D3*
Y3629000D3*
Y3883000D3*
Y4137000D3*
Y4391000D3*
Y4645000D3*
Y4899000D3*
X13693707Y3121000D3*
Y3375000D3*
Y3629000D3*
Y3883000D3*
Y4137000D3*
Y4391000D3*
Y4645000D3*
Y4899000D3*
X24365537Y3121000D3*
Y3375000D3*
Y3629000D3*
Y3883000D3*
Y4137000D3*
Y4391000D3*
Y4645000D3*
Y4899000D3*
X19725537Y3121000D3*
Y3375000D3*
Y3629000D3*
Y3883000D3*
Y4137000D3*
Y4391000D3*
Y4645000D3*
Y4899000D3*
M02*
