M48
INCH
T01C0.0197
T02C0.0315
T03C0.0551
%
T01
X+039152Y+013501
X+041365Y+012389
X+041974Y+013896
X+043416Y+018199
X+045827Y+018471
X+045056Y+020310
X+042226Y+020511
X+040572Y+020376
X+037909Y+020491
X+034489Y+013607
X+032384Y+012437
X+028291Y+007538
X+023186Y+009412
X+020754Y+015874
X+019549Y+016891
X+020915Y+018397
X+017774Y+019825
X+015076Y+019923
X+011437Y+017831
X+010647Y+016257
X+011480Y+013859
X+013206Y+012040
X+014328Y+013140
X+014856Y+010424
X+008089Y+016084
X+039840Y+009603
X+046710Y+016404
X+058775Y+018206
X+061528Y+019585
X+063414Y+019977
X+066069Y+020473
X+067867Y+016909
X+068035Y+014498
X+070417Y+015683
X+070393Y+017305
X+069940Y+018889
X+062782Y+013083
X+061471Y+011864
X+061638Y+010457
X+082910Y+012589
X+085486Y+011284
X+088477Y+012180
X+092529Y+014198
X+094283Y+014635
X+094246Y+016665
X+090852Y+017741
X+088910Y+018844
X+090684Y+019992
X+085900Y+018890
X+082414Y+016865
T02
X+024671Y+012287
X+024671Y+013287
X+024671Y+014287
X+024671Y+015287
X+024671Y+016287
X+024671Y+017287
X+024671Y+018287
X+024671Y+019287
X+030165Y+019287
X+030165Y+018287
X+030165Y+017287
X+030165Y+016287
X+030165Y+015287
X+030165Y+014287
X+030165Y+013287
X+030165Y+012287
X+048432Y+012287
X+048432Y+013287
X+048432Y+014287
X+048432Y+015287
X+048432Y+016287
X+048432Y+017287
X+048432Y+018287
X+048432Y+019287
X+053912Y+019287
X+053912Y+018287
X+053912Y+017287
X+053912Y+016287
X+053912Y+015287
X+053912Y+014287
X+053912Y+013287
X+053912Y+012287
X+072180Y+012287
X+072180Y+013287
X+072180Y+014287
X+072180Y+015287
X+072180Y+016287
X+072180Y+017287
X+072180Y+018287
X+072180Y+019287
X+077660Y+019287
X+077660Y+018287
X+077660Y+017287
X+077660Y+016287
X+077660Y+015287
X+077660Y+014287
X+077660Y+013287
X+077660Y+012287
X+095927Y+012287
X+095927Y+013287
X+095927Y+014287
X+095927Y+015287
X+095927Y+016287
X+095927Y+017287
X+095927Y+018287
X+095927Y+019287
X+006404Y+019287
X+006404Y+018287
X+006404Y+017287
X+006404Y+016287
X+006404Y+015287
X+006404Y+014287
X+006404Y+013287
X+006404Y+012287
T03
X+024872Y+005812
X+026250Y+005812
X+027628Y+005812
X+029006Y+005812
X+030384Y+005812
T00
M30
