G04 DipTrace 5.1.0.1*
G04 Верхнємаркування.gbr*
%MOMM*%
G04 #@! TF.FileFunction,Legend,Top*
G04 #@! TF.Part,Single*
%ADD10C,0.254*%
%ADD15C,1.11113*%
%ADD107C,0.15686*%
%FSLAX35Y35*%
G04*
G71*
G90*
G75*
G01*
G04 TopSilk*
%LPD*%
X6151757Y1486670D2*
D10*
Y1206670D1*
X7841757D1*
Y1486670D1*
X6151757D1*
X10838540Y5921245D2*
Y6175252D1*
X9568427D1*
Y5921245D1*
X10838540D1*
G36*
X11289360Y2351455D2*
X11289788Y2357983D1*
X11291064Y2364400D1*
X11293167Y2370595D1*
X11296061Y2376462D1*
X11299695Y2381902D1*
X11304009Y2386821D1*
X11308928Y2391135D1*
X11314367Y2394769D1*
X11320235Y2397663D1*
X11326430Y2399766D1*
X11332847Y2401042D1*
X11339375Y2401470D1*
X11345903Y2401042D1*
X11352320Y2399766D1*
X11358515Y2397663D1*
X11364383Y2394769D1*
X11369822Y2391135D1*
X11374741Y2386821D1*
X11379055Y2381902D1*
X11382689Y2376462D1*
X11385583Y2370595D1*
X11387686Y2364400D1*
X11388962Y2357983D1*
X11389390Y2351455D1*
Y2351318D1*
X11388962Y2344790D1*
X11387686Y2338373D1*
X11385583Y2332178D1*
X11382689Y2326311D1*
X11379055Y2320871D1*
X11374741Y2315952D1*
X11369822Y2311639D1*
X11364382Y2308004D1*
X11358515Y2305110D1*
X11352320Y2303008D1*
X11345903Y2301731D1*
X11339375Y2301303D1*
X11332847Y2301731D1*
X11326430Y2303008D1*
X11320235Y2305110D1*
X11314368Y2308004D1*
X11308928Y2311639D1*
X11304009Y2315952D1*
X11299695Y2320871D1*
X11296061Y2326311D1*
X11293167Y2332178D1*
X11291064Y2338373D1*
X11289788Y2344790D1*
X11289360Y2351318D1*
Y2351455D1*
G37*
X11467950Y2725223D2*
D10*
X11736880D1*
X11467950Y1975317D2*
X11727977D1*
X11467950Y2725223D2*
Y2503203D1*
X11736880Y2725223D2*
G02X11736880Y1975317I1053172J-374953D01*
G01*
X11467950D2*
Y2197337D1*
X5012120Y4968750D2*
G02X5012120Y4968750I600000J0D01*
G01*
X8566213Y6344393D2*
X8856237D1*
X8566213Y5944393D2*
X8856237D1*
G03X8856237Y6344393I-163035J200000D01*
G01*
X8566213D2*
G03X8501233Y6264393I195020J-224795D01*
G01*
Y6024393D2*
G03X8566213Y5944393I260000J144795D01*
G01*
X3349977Y6127500D2*
Y6152527D1*
Y6387473D2*
Y6412500D1*
Y6127500D2*
X3324983D1*
Y6152527D1*
X2689977Y6712513D2*
X3310023D1*
X2650023Y6127500D2*
Y6152527D1*
Y6127500D2*
X2675017D1*
Y6152527D1*
X2650023Y6387473D2*
Y6412500D1*
X3310023Y6712513D2*
Y6660033D1*
X2680033Y6452467D2*
Y6412500D1*
X3310023D2*
X3349977D1*
X2650023D2*
X2689977D1*
Y6630003D2*
Y6712513D1*
X2675017Y6387473D2*
Y6407493D1*
X3324983Y6387473D2*
Y6407493D1*
X2689977Y6412500D2*
X3310023D1*
X2820040Y6842500D2*
X3179960D1*
Y6712513D1*
X2820040Y6837497D2*
Y6712513D1*
X3000000Y6664967D2*
Y6469987D1*
Y6464980D2*
X2975007Y6515030D1*
X3000000Y6464980D2*
X3024993Y6515030D1*
X3000000Y6679980D2*
X2975007Y6624997D1*
X3000000Y6679980D2*
X3024993Y6624997D1*
X4849977Y6127500D2*
Y6152527D1*
Y6387473D2*
Y6412500D1*
Y6127500D2*
X4824983D1*
Y6152527D1*
X4189977Y6712513D2*
X4810023D1*
X4150023Y6127500D2*
Y6152527D1*
Y6127500D2*
X4175017D1*
Y6152527D1*
X4150023Y6387473D2*
Y6412500D1*
X4810023Y6712513D2*
Y6660033D1*
X4180033Y6452467D2*
Y6412500D1*
X4810023D2*
X4849977D1*
X4150023D2*
X4189977D1*
Y6630003D2*
Y6712513D1*
X4175017Y6387473D2*
Y6407493D1*
X4824983Y6387473D2*
Y6407493D1*
X4189977Y6412500D2*
X4810023D1*
X4320040Y6842500D2*
X4679960D1*
Y6712513D1*
X4320040Y6837497D2*
Y6712513D1*
X4500000Y6664967D2*
Y6469987D1*
Y6464980D2*
X4475007Y6515030D1*
X4500000Y6464980D2*
X4524993Y6515030D1*
X4500000Y6679980D2*
X4475007Y6624997D1*
X4500000Y6679980D2*
X4524993Y6624997D1*
X6349977Y6127500D2*
Y6152527D1*
Y6387473D2*
Y6412500D1*
Y6127500D2*
X6324983D1*
Y6152527D1*
X5689977Y6712513D2*
X6310023D1*
X5650023Y6127500D2*
Y6152527D1*
Y6127500D2*
X5675017D1*
Y6152527D1*
X5650023Y6387473D2*
Y6412500D1*
X6310023Y6712513D2*
Y6660033D1*
X5680033Y6452467D2*
Y6412500D1*
X6310023D2*
X6349977D1*
X5650023D2*
X5689977D1*
Y6630003D2*
Y6712513D1*
X5675017Y6387473D2*
Y6407493D1*
X6324983Y6387473D2*
Y6407493D1*
X5689977Y6412500D2*
X6310023D1*
X5820040Y6842500D2*
X6179960D1*
Y6712513D1*
X5820040Y6837497D2*
Y6712513D1*
X6000000Y6664967D2*
Y6469987D1*
Y6464980D2*
X5975007Y6515030D1*
X6000000Y6464980D2*
X6024993Y6515030D1*
X6000000Y6679980D2*
X5975007Y6624997D1*
X6000000Y6679980D2*
X6024993Y6624997D1*
X7849977Y6127500D2*
Y6152527D1*
Y6387473D2*
Y6412500D1*
Y6127500D2*
X7824983D1*
Y6152527D1*
X7189977Y6712513D2*
X7810023D1*
X7150023Y6127500D2*
Y6152527D1*
Y6127500D2*
X7175017D1*
Y6152527D1*
X7150023Y6387473D2*
Y6412500D1*
X7810023Y6712513D2*
Y6660033D1*
X7180033Y6452467D2*
Y6412500D1*
X7810023D2*
X7849977D1*
X7150023D2*
X7189977D1*
Y6630003D2*
Y6712513D1*
X7175017Y6387473D2*
Y6407493D1*
X7824983Y6387473D2*
Y6407493D1*
X7189977Y6412500D2*
X7810023D1*
X7320040Y6842500D2*
X7679960D1*
Y6712513D1*
X7320040Y6837497D2*
Y6712513D1*
X7500000Y6664967D2*
Y6469987D1*
Y6464980D2*
X7475007Y6515030D1*
X7500000Y6464980D2*
X7524993Y6515030D1*
X7500000Y6679980D2*
X7475007Y6624997D1*
X7500000Y6679980D2*
X7524993Y6624997D1*
X14398358Y5401468D2*
Y6601468D1*
X12898358D1*
Y5401468D1*
X14398358D1*
X14054708Y6414988D2*
G02X14054708Y6414988I150000J0D01*
G01*
X12943508D2*
G02X12943508Y6414988I150000J0D01*
G01*
G36*
X13029158Y5779138D2*
X13028752Y5772932D1*
X13027538Y5766831D1*
X13025539Y5760942D1*
X13022788Y5755363D1*
X13019332Y5750192D1*
X13015231Y5745515D1*
X13010555Y5741414D1*
X13005383Y5737959D1*
X12999805Y5735208D1*
X12993915Y5733209D1*
X12987815Y5731995D1*
X12981608Y5731588D1*
X12975402Y5731995D1*
X12969301Y5733209D1*
X12963412Y5735208D1*
X12957833Y5737959D1*
X12952662Y5741414D1*
X12947985Y5745515D1*
X12943884Y5750192D1*
X12940429Y5755363D1*
X12937678Y5760942D1*
X12935679Y5766831D1*
X12934465Y5772932D1*
X12934058Y5779138D1*
Y5779318D1*
X12934465Y5785525D1*
X12935679Y5791625D1*
X12937678Y5797515D1*
X12940429Y5803093D1*
X12943884Y5808265D1*
X12947985Y5812941D1*
X12952662Y5817042D1*
X12957833Y5820498D1*
X12963412Y5823249D1*
X12969301Y5825248D1*
X12975402Y5826462D1*
X12981608Y5826868D1*
X12987815Y5826462D1*
X12993915Y5825248D1*
X12999805Y5823249D1*
X13005383Y5820498D1*
X13010555Y5817042D1*
X13015231Y5812941D1*
X13019332Y5808265D1*
X13022788Y5803093D1*
X13025539Y5797515D1*
X13027538Y5791625D1*
X13028752Y5785525D1*
X13029158Y5779318D1*
Y5779138D1*
G37*
X10923357Y3811717D2*
D10*
X10213863D1*
X10923357Y3339917D2*
X10213863D1*
X10923357D2*
G03X10923357Y3811717I-20868J235900D01*
G01*
X10213863D2*
G03X10213863Y3339917I20868J-235900D01*
G01*
D15*
X15849503Y3960377D3*
X5959062Y1403833D2*
D107*
Y1326116D1*
X5954233Y1311516D1*
X5949292Y1306687D1*
X5939633Y1301746D1*
X5929862D1*
X5920204Y1306687D1*
X5915375Y1311516D1*
X5910433Y1326116D1*
Y1335775D1*
X5990435Y1384292D2*
X6000206Y1389233D1*
X6014806Y1403721D1*
Y1301746D1*
X6232573Y1613979D2*
X6320061D1*
X6276373Y1570291D2*
Y1657779D1*
X6225329Y1747439D2*
Y1698922D1*
X6269017Y1694093D1*
X6264188Y1698922D1*
X6259246Y1713522D1*
Y1728010D1*
X6264188Y1742610D1*
X6273846Y1752381D1*
X6288446Y1757210D1*
X6298105D1*
X6312705Y1752381D1*
X6322476Y1742610D1*
X6327305Y1728010D1*
Y1713522D1*
X6322476Y1698922D1*
X6317534Y1694093D1*
X6307876Y1689151D1*
X6225217Y1788582D2*
X6327305Y1827441D1*
X6225217Y1866299D1*
X6600777Y1649558D2*
X6591118Y1644729D1*
X6581347Y1634958D1*
X6576518Y1625300D1*
Y1605870D1*
X6581347Y1596100D1*
X6591118Y1586441D1*
X6600777Y1581500D1*
X6615377Y1576670D1*
X6639747D1*
X6654235Y1581500D1*
X6664006Y1586441D1*
X6673664Y1596100D1*
X6678606Y1605870D1*
Y1625300D1*
X6673664Y1634958D1*
X6664006Y1644729D1*
X6654235Y1649558D1*
X6591118Y1748989D2*
X6581347Y1739331D1*
X6576518Y1724731D1*
Y1705301D1*
X6581347Y1690701D1*
X6591118Y1680931D1*
X6600777D1*
X6610547Y1685872D1*
X6615377Y1690701D1*
X6620206Y1700360D1*
X6629977Y1729560D1*
X6634806Y1739331D1*
X6639747Y1744160D1*
X6649406Y1748989D1*
X6664006D1*
X6673664Y1739331D1*
X6678606Y1724731D1*
Y1705301D1*
X6673664Y1690701D1*
X6664006Y1680931D1*
X6576518Y1848420D2*
X6678606D1*
X6576518Y1780362D1*
X6678606D1*
X6944114Y1585076D2*
X7046202D1*
Y1619105D1*
X7041260Y1633705D1*
X7031602Y1643476D1*
X7021831Y1648305D1*
X7007343Y1653134D1*
X6982972D1*
X6968372Y1648305D1*
X6958714Y1643476D1*
X6948943Y1633705D1*
X6944114Y1619105D1*
Y1585076D1*
X7046202Y1762336D2*
X6944114Y1723365D1*
X7046202Y1684507D1*
X7012172Y1699107D2*
Y1747736D1*
X6944114Y1827738D2*
X7046202D1*
X6944114Y1793708D2*
Y1861767D1*
X7342016Y1660320D2*
X7332358Y1655491D1*
X7322587Y1645720D1*
X7317758Y1636062D1*
Y1616633D1*
X7322587Y1606862D1*
X7332358Y1597204D1*
X7342016Y1592262D1*
X7356616Y1587433D1*
X7380987D1*
X7395475Y1592262D1*
X7405245Y1597204D1*
X7414904Y1606862D1*
X7419845Y1616633D1*
Y1636062D1*
X7414904Y1645720D1*
X7405245Y1655491D1*
X7395475Y1660320D1*
X7317758Y1691693D2*
X7419845D1*
Y1749981D1*
X7317758Y1781353D2*
X7419845D1*
X7317758Y1849412D2*
X7385816Y1781353D1*
X7361445Y1805612D2*
X7419845Y1849412D1*
X7680277Y1666311D2*
X7670618Y1661482D1*
X7660847Y1651711D1*
X7656018Y1642053D1*
Y1622623D1*
X7660847Y1612853D1*
X7670618Y1603194D1*
X7680277Y1598253D1*
X7694877Y1593423D1*
X7719247D1*
X7733735Y1598253D1*
X7743506Y1603194D1*
X7753164Y1612853D1*
X7758106Y1622623D1*
Y1642053D1*
X7753164Y1651711D1*
X7743506Y1661482D1*
X7733735Y1666311D1*
X7719247D1*
Y1642053D1*
X7656018Y1765742D2*
X7758106D1*
X7656018Y1697684D1*
X7758106D1*
X7656018Y1797115D2*
X7758106D1*
Y1831144D1*
X7753164Y1845744D1*
X7743506Y1855515D1*
X7733735Y1860344D1*
X7719247Y1865173D1*
X7694877D1*
X7680277Y1860344D1*
X7670618Y1855515D1*
X7660847Y1845744D1*
X7656018Y1831144D1*
Y1797115D1*
X10747168Y5816041D2*
Y5738324D1*
X10742339Y5723724D1*
X10737397Y5718895D1*
X10727739Y5713953D1*
X10717968D1*
X10708309Y5718895D1*
X10703480Y5723724D1*
X10698539Y5738324D1*
Y5747982D1*
X10827170Y5713953D2*
Y5815929D1*
X10778540Y5747982D1*
X10851428D1*
X12493267Y3616987D2*
Y3539270D1*
X12488438Y3524670D1*
X12483497Y3519841D1*
X12473838Y3514899D1*
X12464067D1*
X12454409Y3519841D1*
X12449580Y3524670D1*
X12444638Y3539270D1*
Y3548928D1*
X12573269Y3514899D2*
Y3616875D1*
X12524640Y3548928D1*
X12597528D1*
X12658100Y3616875D2*
X12643500Y3612045D1*
X12633729Y3597445D1*
X12628900Y3573187D1*
Y3558587D1*
X12633729Y3534328D1*
X12643500Y3519728D1*
X12658100Y3514899D1*
X12667759D1*
X12682359Y3519728D1*
X12692017Y3534328D1*
X12696959Y3558587D1*
Y3573187D1*
X12692017Y3597445D1*
X12682359Y3612045D1*
X12667759Y3616875D1*
X12658100D1*
X12692017Y3597445D2*
X12633729Y3534328D1*
X12728331Y3597445D2*
X12738102Y3602387D1*
X12752702Y3616875D1*
Y3514899D1*
X5405958Y5717539D2*
Y5615452D1*
X5464246D1*
X5563677Y5702939D2*
X5554018Y5712710D1*
X5539418Y5717539D1*
X5519989D1*
X5505389Y5712710D1*
X5495618Y5702939D1*
Y5693281D1*
X5500560Y5683510D1*
X5505389Y5678681D1*
X5515047Y5673852D1*
X5544247Y5664081D1*
X5554018Y5659252D1*
X5558847Y5654310D1*
X5563677Y5644652D1*
Y5630052D1*
X5554018Y5620393D1*
X5539418Y5615452D1*
X5519989D1*
X5505389Y5620393D1*
X5495618Y5630052D1*
X5604820Y5717427D2*
X5658166D1*
X5629078Y5678569D1*
X5643678D1*
X5653337Y5673739D1*
X5658166Y5668910D1*
X5663108Y5654310D1*
Y5644652D1*
X5658166Y5630052D1*
X5648508Y5620281D1*
X5633908Y5615452D1*
X5619308D1*
X5604820Y5620281D1*
X5599991Y5625222D1*
X5595049Y5634881D1*
X5723680Y5717427D2*
X5709080Y5712598D1*
X5699309Y5697998D1*
X5694480Y5673739D1*
Y5659139D1*
X5699309Y5634881D1*
X5709080Y5620281D1*
X5723680Y5615452D1*
X5733339D1*
X5747939Y5620281D1*
X5757597Y5634881D1*
X5762539Y5659139D1*
Y5673739D1*
X5757597Y5697998D1*
X5747939Y5712598D1*
X5733339Y5717427D1*
X5723680D1*
X5757597Y5697998D2*
X5699309Y5634881D1*
X5793911Y5697998D2*
X5803682Y5702939D1*
X5818282Y5717427D1*
Y5615452D1*
X8515186Y6439724D2*
X8558986D1*
X8573474Y6444553D1*
X8578415Y6449495D1*
X8583244Y6459153D1*
Y6473753D1*
X8578415Y6483412D1*
X8573474Y6488353D1*
X8558986Y6493183D1*
X8515186D1*
Y6391095D1*
X8614617Y6493183D2*
Y6391095D1*
X8682675Y6493183D2*
Y6391095D1*
X8614617Y6444553D2*
X8682675D1*
X8718989Y6468812D2*
Y6473641D1*
X8723819Y6483412D1*
X8728648Y6488241D1*
X8738419Y6493070D1*
X8757848D1*
X8767506Y6488241D1*
X8772336Y6483412D1*
X8777277Y6473641D1*
Y6463983D1*
X8772336Y6454212D1*
X8762677Y6439724D1*
X8714048Y6391095D1*
X8782106D1*
X8842679Y6493070D2*
X8828079Y6488241D1*
X8818308Y6473641D1*
X8813479Y6449383D1*
Y6434783D1*
X8818308Y6410524D1*
X8828079Y6395924D1*
X8842679Y6391095D1*
X8852337D1*
X8866937Y6395924D1*
X8876596Y6410524D1*
X8881537Y6434783D1*
Y6449383D1*
X8876596Y6473641D1*
X8866937Y6488241D1*
X8852337Y6493070D1*
X8842679D1*
X8876596Y6473641D2*
X8818308Y6410524D1*
X8912910Y6473641D2*
X8922681Y6478583D1*
X8937281Y6493070D1*
Y6391095D1*
X3006158Y6214689D2*
X2996499Y6224460D1*
X2981899Y6229289D1*
X2962470D1*
X2947870Y6224460D1*
X2938099Y6214689D1*
Y6205031D1*
X2943041Y6195260D1*
X2947870Y6190431D1*
X2957528Y6185602D1*
X2986728Y6175831D1*
X2996499Y6171002D1*
X3001328Y6166060D1*
X3006158Y6156402D1*
Y6141802D1*
X2996499Y6132143D1*
X2981899Y6127202D1*
X2962470D1*
X2947870Y6132143D1*
X2938099Y6141802D1*
X3037530Y6209748D2*
X3047301Y6214689D1*
X3061901Y6229177D1*
Y6127202D1*
X4484314Y6214689D2*
X4474655Y6224460D1*
X4460055Y6229289D1*
X4440626D1*
X4426026Y6224460D1*
X4416255Y6214689D1*
Y6205031D1*
X4421197Y6195260D1*
X4426026Y6190431D1*
X4435684Y6185602D1*
X4464884Y6175831D1*
X4474655Y6171002D1*
X4479484Y6166060D1*
X4484314Y6156402D1*
Y6141802D1*
X4474655Y6132143D1*
X4460055Y6127202D1*
X4440626D1*
X4426026Y6132143D1*
X4416255Y6141802D1*
X4520628Y6204919D2*
Y6209748D1*
X4525457Y6219519D1*
X4530286Y6224348D1*
X4540057Y6229177D1*
X4559486D1*
X4569145Y6224348D1*
X4573974Y6219519D1*
X4578916Y6209748D1*
Y6200089D1*
X4573974Y6190319D1*
X4564316Y6175831D1*
X4515686Y6127202D1*
X4583745D1*
X5984314Y6278189D2*
X5974655Y6287960D1*
X5960055Y6292789D1*
X5940626D1*
X5926026Y6287960D1*
X5916255Y6278189D1*
Y6268531D1*
X5921197Y6258760D1*
X5926026Y6253931D1*
X5935684Y6249102D1*
X5964884Y6239331D1*
X5974655Y6234502D1*
X5979484Y6229560D1*
X5984314Y6219902D1*
Y6205302D1*
X5974655Y6195643D1*
X5960055Y6190702D1*
X5940626D1*
X5926026Y6195643D1*
X5916255Y6205302D1*
X6025457Y6292677D2*
X6078803D1*
X6049716Y6253819D1*
X6064316D1*
X6073974Y6248989D1*
X6078803Y6244160D1*
X6083745Y6229560D1*
Y6219902D1*
X6078803Y6205302D1*
X6069145Y6195531D1*
X6054545Y6190702D1*
X6039945D1*
X6025457Y6195531D1*
X6020628Y6200472D1*
X6015686Y6210131D1*
X7481899Y6214689D2*
X7472241Y6224460D1*
X7457641Y6229289D1*
X7438211D1*
X7423611Y6224460D1*
X7413841Y6214689D1*
Y6205031D1*
X7418782Y6195260D1*
X7423611Y6190431D1*
X7433270Y6185602D1*
X7462470Y6175831D1*
X7472241Y6171002D1*
X7477070Y6166060D1*
X7481899Y6156402D1*
Y6141802D1*
X7472241Y6132143D1*
X7457641Y6127202D1*
X7438211D1*
X7423611Y6132143D1*
X7413841Y6141802D1*
X7561901Y6127202D2*
Y6229177D1*
X7513272Y6161231D1*
X7586159D1*
X13487083Y6750258D2*
Y6677370D1*
X13491912Y6662770D1*
X13501683Y6653111D1*
X13516283Y6648170D1*
X13525941D1*
X13540541Y6653111D1*
X13550312Y6662770D1*
X13555141Y6677370D1*
Y6750258D1*
X13610772Y6750145D2*
X13596284Y6745316D1*
X13591343Y6735658D1*
Y6725887D1*
X13596284Y6716228D1*
X13605943Y6711287D1*
X13625372Y6706458D1*
X13639972Y6701628D1*
X13649631Y6691858D1*
X13654460Y6682199D1*
Y6667599D1*
X13649631Y6657941D1*
X13644801Y6652999D1*
X13630201Y6648170D1*
X13610772D1*
X13596284Y6652999D1*
X13591343Y6657941D1*
X13586514Y6667599D1*
Y6682199D1*
X13591343Y6691858D1*
X13601114Y6701628D1*
X13615601Y6706458D1*
X13635031Y6711287D1*
X13644801Y6716228D1*
X13649631Y6725887D1*
Y6735658D1*
X13644801Y6745316D1*
X13630201Y6750145D1*
X13610772D1*
X13715032D2*
X13700432Y6745316D1*
X13690662Y6730716D1*
X13685832Y6706458D1*
Y6691858D1*
X13690662Y6667599D1*
X13700432Y6652999D1*
X13715032Y6648170D1*
X13724691D1*
X13739291Y6652999D1*
X13748949Y6667599D1*
X13753891Y6691858D1*
Y6706458D1*
X13748949Y6730716D1*
X13739291Y6745316D1*
X13724691Y6750145D1*
X13715032D1*
X13748949Y6730716D2*
X13690662Y6667599D1*
X13785263Y6730716D2*
X13795034Y6735658D1*
X13809634Y6750145D1*
Y6648170D1*
X9849121Y3409656D2*
X9897750Y3448514D1*
X9951208D1*
X9849121Y3487372D2*
X9897750Y3448514D1*
X9849233Y3577033D2*
Y3528516D1*
X9892921Y3523687D1*
X9888091Y3528516D1*
X9883150Y3543116D1*
Y3557603D1*
X9888091Y3572203D1*
X9897750Y3581974D1*
X9912350Y3586803D1*
X9922008D1*
X9936608Y3581974D1*
X9946379Y3572203D1*
X9951208Y3557603D1*
Y3543116D1*
X9946379Y3528516D1*
X9941438Y3523687D1*
X9931779Y3518745D1*
X9849233Y3647376D2*
X9854062Y3632776D1*
X9868662Y3623005D1*
X9892921Y3618176D1*
X9907521D1*
X9931779Y3623005D1*
X9946379Y3632776D1*
X9951208Y3647376D1*
Y3657034D1*
X9946379Y3671634D1*
X9931779Y3681293D1*
X9907521Y3686234D1*
X9892921D1*
X9868662Y3681293D1*
X9854062Y3671634D1*
X9849233Y3657034D1*
Y3647376D1*
X9868662Y3681293D2*
X9931779Y3623005D1*
X9868662Y3717607D2*
X9863721Y3727378D1*
X9849233Y3741978D1*
X9951208D1*
M02*
