G04 DipTrace 5.1.0.1*
G04 Верхняграфіка.gbr*
%MOMM*%
G04 #@! TF.FileFunction,Drawing,Top*
G04 #@! TF.Part,Single*
%ADD13C,0.12*%
%ADD109C,0.07843*%
%FSLAX35Y35*%
G04*
G71*
G90*
G75*
G01*
G04 TopAssy*
%LPD*%
X10963483Y5896258D2*
D13*
X9443483D1*
X10456138Y5798982D2*
D109*
Y5850026D1*
X10434238D1*
X10426938Y5847555D1*
X10424524Y5845140D1*
X10422109Y5840311D1*
Y5833011D1*
X10424524Y5828126D1*
X10426938Y5825711D1*
X10434238Y5823296D1*
X10426938Y5820826D1*
X10424524Y5818411D1*
X10422109Y5813582D1*
Y5808696D1*
X10424524Y5803867D1*
X10426938Y5801396D1*
X10434238Y5798982D1*
X10456138D1*
Y5823296D2*
X10434238D1*
X10391823Y5798982D2*
X10396708Y5801396D1*
X10401538Y5806282D1*
X10404008Y5811111D1*
X10406423Y5818411D1*
Y5830596D1*
X10404008Y5837840D1*
X10401538Y5842726D1*
X10396708Y5847555D1*
X10391823Y5850026D1*
X10382108D1*
X10377279Y5847555D1*
X10372394Y5842726D1*
X10369979Y5837840D1*
X10367564Y5830596D1*
Y5818411D1*
X10369979Y5811111D1*
X10372394Y5806282D1*
X10377279Y5801396D1*
X10382108Y5798982D1*
X10391823D1*
X10312964Y5850026D2*
X10332449Y5798982D1*
X10351878Y5850026D1*
X10344578Y5833011D2*
X10320264D1*
X10297277Y5823296D2*
X10275433D1*
X10268133Y5820826D1*
X10265663Y5818411D1*
X10263248Y5813582D1*
Y5808696D1*
X10265663Y5803867D1*
X10268133Y5801396D1*
X10275433Y5798982D1*
X10297277D1*
Y5850026D1*
X10280263Y5823296D2*
X10263248Y5850026D1*
X10247562Y5798982D2*
Y5850026D1*
X10230547D1*
X10223247Y5847555D1*
X10218362Y5842726D1*
X10215947Y5837840D1*
X10213533Y5830596D1*
Y5818411D1*
X10215947Y5811111D1*
X10218362Y5806282D1*
X10223247Y5801396D1*
X10230547Y5798982D1*
X10247562D1*
X10116909D2*
X10148468D1*
Y5850026D1*
X10116909D1*
X10148468Y5823296D2*
X10129038D1*
X10101223Y5798982D2*
Y5850026D1*
X10084208D1*
X10076908Y5847555D1*
X10072023Y5842726D1*
X10069608Y5837840D1*
X10067194Y5830596D1*
Y5818411D1*
X10069608Y5811111D1*
X10072023Y5806282D1*
X10076908Y5801396D1*
X10084208Y5798982D1*
X10101223D1*
X10015064Y5811111D2*
X10017478Y5806282D1*
X10022364Y5801396D1*
X10027193Y5798982D1*
X10036907D1*
X10041793Y5801396D1*
X10046622Y5806282D1*
X10049093Y5811111D1*
X10051507Y5818411D1*
Y5830596D1*
X10049093Y5837840D1*
X10046622Y5842726D1*
X10041793Y5847555D1*
X10036907Y5850026D1*
X10027193D1*
X10022364Y5847555D1*
X10017478Y5842726D1*
X10015064Y5837840D1*
Y5830596D1*
X10027193D1*
X9967819Y5798982D2*
X9999377D1*
Y5850026D1*
X9967819D1*
X9999377Y5823296D2*
X9979948D1*
M02*
