G04 DipTrace 5.1.0.1*
G04 Нижнємаркування.gbr*
%MOMM*%
G04 #@! TF.FileFunction,Legend,Bot*
G04 #@! TF.Part,Single*
%ADD10C,0.254*%
%ADD13C,0.12*%
%ADD36C,0.15*%
%ADD41C,0.15233*%
%ADD44C,1.0*%
%ADD47C,0.127*%
%ADD107C,0.15686*%
%ADD110C,0.31373*%
%FSLAX35Y35*%
G04*
G71*
G90*
G75*
G01*
G04 BotSilk*
%LPD*%
X3099037Y2139897D2*
D10*
X3304033Y2139817D1*
X3099037Y2139897D2*
Y2689820D1*
X3209060Y2799790D2*
X3099037Y2689820D1*
X3209060Y2799790D2*
X3304033D1*
X3554040Y2139817D2*
X3759037Y2139897D1*
Y2689820D1*
X3649013Y2799790D2*
X3759037Y2689820D1*
X3554040Y2799790D2*
X3649013D1*
G36*
X3284050Y2829893D2*
X3280137Y2830150D1*
X3276291Y2830915D1*
X3272577Y2832175D1*
X3269060Y2833910D1*
X3265799Y2836089D1*
X3262851Y2838674D1*
X3260265Y2841623D1*
X3258087Y2844883D1*
X3256352Y2848400D1*
X3255092Y2852114D1*
X3254326Y2855960D1*
X3254070Y2859873D1*
X3254326Y2863787D1*
X3255092Y2867633D1*
X3256352Y2871346D1*
X3258087Y2874863D1*
X3260265Y2878124D1*
X3262851Y2881072D1*
X3265799Y2883658D1*
X3269060Y2885837D1*
X3272577Y2887571D1*
X3276291Y2888832D1*
X3280137Y2889597D1*
X3284050Y2889853D1*
X3284083D1*
X3287997Y2889597D1*
X3291843Y2888832D1*
X3295556Y2887571D1*
X3299073Y2885837D1*
X3302334Y2883658D1*
X3305282Y2881072D1*
X3307868Y2878124D1*
X3310047Y2874863D1*
X3311781Y2871346D1*
X3313042Y2867633D1*
X3313807Y2863787D1*
X3314063Y2859873D1*
X3313807Y2855960D1*
X3313042Y2852114D1*
X3311781Y2848400D1*
X3310047Y2844883D1*
X3307868Y2841623D1*
X3305282Y2838674D1*
X3302334Y2836089D1*
X3299073Y2833910D1*
X3295556Y2832175D1*
X3291843Y2830915D1*
X3287997Y2830150D1*
X3284083Y2829893D1*
X3284050D1*
G37*
X5805690Y1788853D2*
D10*
X5465623D1*
X5805690Y1608853D2*
X5465623D1*
G36*
X5905677Y1698857D2*
X5905848Y1701466D1*
X5906358Y1704031D1*
X5907199Y1706508D1*
X5908355Y1708853D1*
X5909808Y1711028D1*
X5911533Y1712994D1*
X5913499Y1714718D1*
X5915673Y1716171D1*
X5918019Y1717328D1*
X5920495Y1718169D1*
X5923060Y1718679D1*
X5925670Y1718850D1*
X5928280Y1718679D1*
X5930845Y1718169D1*
X5933321Y1717328D1*
X5935667Y1716171D1*
X5937841Y1714718D1*
X5939807Y1712994D1*
X5941532Y1711028D1*
X5942985Y1708853D1*
X5944141Y1706508D1*
X5944982Y1704031D1*
X5945492Y1701466D1*
X5945663Y1698857D1*
Y1698850D1*
X5945492Y1696240D1*
X5944982Y1693675D1*
X5944141Y1691199D1*
X5942985Y1688853D1*
X5941532Y1686679D1*
X5939807Y1684713D1*
X5937841Y1682988D1*
X5935667Y1681535D1*
X5933321Y1680379D1*
X5930845Y1679538D1*
X5928280Y1679028D1*
X5925670Y1678857D1*
X5923060Y1679028D1*
X5920495Y1679538D1*
X5918019Y1680379D1*
X5915673Y1681535D1*
X5913499Y1682988D1*
X5911533Y1684713D1*
X5909808Y1686679D1*
X5908355Y1688853D1*
X5907199Y1691199D1*
X5906358Y1693675D1*
X5905848Y1696240D1*
X5905677Y1698850D1*
Y1698857D1*
G37*
X12816537Y1681820D2*
D10*
Y1811720D1*
X14505250Y1992107D2*
X14375350D1*
X10483493Y4672070D2*
Y4542170D1*
X10645790Y4350857D2*
X10515890D1*
X10331670Y4368667D2*
X10201770D1*
X10193810Y4833367D2*
X10063910D1*
X9134983Y2889473D2*
Y3049313D1*
X9153903Y2889473D2*
Y3049313D1*
Y2889473D2*
X9094063D1*
X9153903Y3049313D2*
X9094063D1*
X6286532Y3048225D2*
X6286541Y2730725D1*
X7302541Y2730755D1*
X7302532Y3048255D1*
X6286532Y3048225D1*
X15823190Y6525407D2*
Y6271393D1*
X16839277D1*
Y6525407D1*
X15823190D1*
X20763227Y5226758D2*
D13*
Y5696778D1*
X21038257D1*
X21043240D2*
Y5226758D1*
X20943257D1*
X20763227D2*
X20863210D1*
G02X20943257Y5226758I40023J4684D01*
G01*
G36*
X20540233Y5272765D2*
X20543496Y5272551D1*
X20546704Y5271913D1*
X20549800Y5270862D1*
X20552733Y5269416D1*
X20555452Y5267599D1*
X20557911Y5265443D1*
X20560067Y5262984D1*
X20561884Y5260265D1*
X20563330Y5257332D1*
X20564381Y5254235D1*
X20565019Y5251028D1*
X20565233Y5247765D1*
X20565019Y5244502D1*
X20564381Y5241295D1*
X20563330Y5238198D1*
X20561884Y5235265D1*
X20560067Y5232546D1*
X20557911Y5230087D1*
X20555452Y5227931D1*
X20552733Y5226114D1*
X20549800Y5224668D1*
X20546704Y5223617D1*
X20543496Y5222979D1*
X20540233Y5222765D1*
D1*
X20536970Y5222979D1*
X20533763Y5223617D1*
X20530666Y5224668D1*
X20527733Y5226114D1*
X20525014Y5227931D1*
X20522556Y5230087D1*
X20520399Y5232546D1*
X20518583Y5235265D1*
X20517136Y5238198D1*
X20516085Y5241295D1*
X20515447Y5244502D1*
X20515233Y5247765D1*
X20515447Y5251028D1*
X20516085Y5254235D1*
X20517136Y5257332D1*
X20518583Y5260265D1*
X20520399Y5262984D1*
X20522556Y5265443D1*
X20525014Y5267599D1*
X20527733Y5269416D1*
X20530666Y5270862D1*
X20533763Y5271913D1*
X20536970Y5272551D1*
X20540233Y5272765D1*
D1*
G37*
G36*
X5948293Y3994787D2*
X5948461Y3997340D1*
X5948960Y3999850D1*
X5949783Y4002273D1*
X5950914Y4004568D1*
X5952336Y4006696D1*
X5954023Y4008620D1*
X5955947Y4010307D1*
X5958075Y4011729D1*
X5960370Y4012861D1*
X5962793Y4013683D1*
X5965303Y4014183D1*
X5967857Y4014350D1*
X5970410Y4014183D1*
X5972920Y4013683D1*
X5975343Y4012861D1*
X5977638Y4011729D1*
X5979766Y4010307D1*
X5981690Y4008620D1*
X5983377Y4006696D1*
X5984799Y4004568D1*
X5985931Y4002273D1*
X5986753Y3999850D1*
X5987253Y3997340D1*
X5987420Y3994787D1*
Y3994740D1*
X5987253Y3992186D1*
X5986753Y3989677D1*
X5985931Y3987253D1*
X5984799Y3984958D1*
X5983377Y3982831D1*
X5981690Y3980907D1*
X5979766Y3979219D1*
X5977638Y3977798D1*
X5975343Y3976666D1*
X5972920Y3975843D1*
X5970410Y3975344D1*
X5967857Y3975177D1*
X5965303Y3975344D1*
X5962793Y3975843D1*
X5960370Y3976666D1*
X5958075Y3977798D1*
X5955947Y3979219D1*
X5954023Y3980907D1*
X5952336Y3982831D1*
X5950914Y3984958D1*
X5949783Y3987253D1*
X5948960Y3989677D1*
X5948461Y3992186D1*
X5948293Y3994740D1*
Y3994787D1*
G37*
X5944487Y4122123D2*
D10*
X5644500D1*
Y4172123D1*
X5944487D1*
Y4122123D1*
G36*
X11392357Y4963303D2*
X11392189Y4960750D1*
X11391690Y4958240D1*
X11390867Y4955817D1*
X11389736Y4953522D1*
X11388314Y4951394D1*
X11386627Y4949470D1*
X11384703Y4947783D1*
X11382575Y4946361D1*
X11380280Y4945229D1*
X11377857Y4944407D1*
X11375347Y4943907D1*
X11372793Y4943740D1*
X11370240Y4943907D1*
X11367730Y4944407D1*
X11365307Y4945229D1*
X11363012Y4946361D1*
X11360884Y4947783D1*
X11358960Y4949470D1*
X11357273Y4951394D1*
X11355851Y4953522D1*
X11354719Y4955817D1*
X11353897Y4958240D1*
X11353397Y4960750D1*
X11353230Y4963303D1*
Y4963350D1*
X11353397Y4965904D1*
X11353897Y4968413D1*
X11354719Y4970837D1*
X11355851Y4973132D1*
X11357273Y4975259D1*
X11358960Y4977183D1*
X11360884Y4978871D1*
X11363012Y4980292D1*
X11365307Y4981424D1*
X11367730Y4982247D1*
X11370240Y4982746D1*
X11372793Y4982913D1*
X11375347Y4982746D1*
X11377857Y4982247D1*
X11380280Y4981424D1*
X11382575Y4980292D1*
X11384703Y4978871D1*
X11386627Y4977183D1*
X11388314Y4975259D1*
X11389736Y4973132D1*
X11390867Y4970837D1*
X11391690Y4968413D1*
X11392189Y4965904D1*
X11392357Y4963350D1*
Y4963303D1*
G37*
X11396163Y4835967D2*
D10*
X11696150D1*
Y4785967D1*
X11396163D1*
Y4835967D1*
G36*
X12308367Y4806413D2*
X12308199Y4803860D1*
X12307700Y4801350D1*
X12306877Y4798927D1*
X12305746Y4796632D1*
X12304324Y4794504D1*
X12302637Y4792580D1*
X12300713Y4790893D1*
X12298585Y4789471D1*
X12296290Y4788339D1*
X12293867Y4787517D1*
X12291357Y4787017D1*
X12288803Y4786850D1*
X12286250Y4787017D1*
X12283740Y4787517D1*
X12281317Y4788339D1*
X12279022Y4789471D1*
X12276894Y4790893D1*
X12274970Y4792580D1*
X12273283Y4794504D1*
X12271861Y4796632D1*
X12270729Y4798927D1*
X12269907Y4801350D1*
X12269407Y4803860D1*
X12269240Y4806413D1*
Y4806460D1*
X12269407Y4809014D1*
X12269907Y4811523D1*
X12270729Y4813947D1*
X12271861Y4816242D1*
X12273283Y4818369D1*
X12274970Y4820293D1*
X12276894Y4821981D1*
X12279022Y4823402D1*
X12281317Y4824534D1*
X12283740Y4825357D1*
X12286250Y4825856D1*
X12288803Y4826023D1*
X12291357Y4825856D1*
X12293867Y4825357D1*
X12296290Y4824534D1*
X12298585Y4823402D1*
X12300713Y4821981D1*
X12302637Y4820293D1*
X12304324Y4818369D1*
X12305746Y4816242D1*
X12306877Y4813947D1*
X12307700Y4811523D1*
X12308199Y4809014D1*
X12308367Y4806460D1*
Y4806413D1*
G37*
X12312173Y4679077D2*
D10*
X12612160D1*
Y4629077D1*
X12312173D1*
Y4679077D1*
G36*
X21246070Y3631187D2*
X21243516Y3631354D1*
X21241007Y3631853D1*
X21238583Y3632676D1*
X21236288Y3633808D1*
X21234161Y3635229D1*
X21232237Y3636917D1*
X21230549Y3638841D1*
X21229128Y3640968D1*
X21227996Y3643263D1*
X21227173Y3645687D1*
X21226674Y3648196D1*
X21226507Y3650750D1*
X21226674Y3653304D1*
X21227173Y3655813D1*
X21227996Y3658237D1*
X21229128Y3660532D1*
X21230549Y3662659D1*
X21232237Y3664583D1*
X21234161Y3666271D1*
X21236288Y3667692D1*
X21238583Y3668824D1*
X21241007Y3669647D1*
X21243517Y3670146D1*
X21246070Y3670313D1*
X21246117D1*
X21248670Y3670146D1*
X21251180Y3669647D1*
X21253603Y3668824D1*
X21255898Y3667692D1*
X21258026Y3666271D1*
X21259950Y3664583D1*
X21261637Y3662659D1*
X21263059Y3660532D1*
X21264191Y3658237D1*
X21265013Y3655813D1*
X21265513Y3653304D1*
X21265680Y3650750D1*
X21265513Y3648196D1*
X21265013Y3645687D1*
X21264191Y3643263D1*
X21263059Y3640968D1*
X21261637Y3638841D1*
X21259950Y3636917D1*
X21258026Y3635229D1*
X21255898Y3633808D1*
X21253603Y3632676D1*
X21251180Y3631853D1*
X21248670Y3631354D1*
X21246117Y3631187D1*
X21246070D1*
G37*
X21118733Y3627380D2*
D10*
Y3327393D1*
X21068733D1*
Y3627380D1*
X21118733D1*
G36*
X21801695Y2869187D2*
X21799141Y2869354D1*
X21796632Y2869853D1*
X21794208Y2870676D1*
X21791913Y2871808D1*
X21789786Y2873229D1*
X21787862Y2874917D1*
X21786174Y2876841D1*
X21784753Y2878968D1*
X21783621Y2881263D1*
X21782798Y2883687D1*
X21782299Y2886196D1*
X21782132Y2888750D1*
X21782299Y2891304D1*
X21782798Y2893813D1*
X21783621Y2896237D1*
X21784753Y2898532D1*
X21786174Y2900659D1*
X21787862Y2902583D1*
X21789786Y2904271D1*
X21791913Y2905692D1*
X21794208Y2906824D1*
X21796632Y2907647D1*
X21799142Y2908146D1*
X21801695Y2908313D1*
X21801742D1*
X21804295Y2908146D1*
X21806805Y2907647D1*
X21809228Y2906824D1*
X21811523Y2905692D1*
X21813651Y2904271D1*
X21815575Y2902583D1*
X21817262Y2900659D1*
X21818684Y2898532D1*
X21819816Y2896237D1*
X21820638Y2893813D1*
X21821138Y2891304D1*
X21821305Y2888750D1*
X21821138Y2886196D1*
X21820638Y2883687D1*
X21819816Y2881263D1*
X21818684Y2878968D1*
X21817262Y2876841D1*
X21815575Y2874917D1*
X21813651Y2873229D1*
X21811523Y2871808D1*
X21809228Y2870676D1*
X21806805Y2869853D1*
X21804295Y2869354D1*
X21801742Y2869187D1*
X21801695D1*
G37*
X21674358Y2865380D2*
D10*
Y2565393D1*
X21624358D1*
Y2865380D1*
X21674358D1*
X9516233Y1875350D2*
D36*
X9380233D1*
X9516233Y1699350D2*
X9380233D1*
X9223858Y5405518D2*
X9359858D1*
X9223858Y5581518D2*
X9359858D1*
X6468380Y4183630D2*
X6332380D1*
X6468380Y4007630D2*
X6332380D1*
X5182377Y4230000D2*
Y4094000D1*
X5358377Y4230000D2*
Y4094000D1*
X16180800Y3177930D2*
Y3041930D1*
X16356800Y3177930D2*
Y3041930D1*
X14620870Y3406080D2*
X14484870D1*
X14620870Y3230080D2*
X14484870D1*
X15347630Y3290040D2*
X15211630D1*
X15347630Y3114040D2*
X15211630D1*
X10571690Y5131120D2*
X10707690D1*
X10571690Y5307120D2*
X10707690D1*
X11477650Y5433470D2*
X11613650D1*
X11477650Y5609470D2*
X11613650D1*
X12176150Y5433470D2*
X12312150D1*
X12176150Y5609470D2*
X12312150D1*
X21959608Y3472893D2*
Y3608893D1*
X21783608Y3472893D2*
Y3608893D1*
X20402483Y3593018D2*
Y3457018D1*
X20578483Y3593018D2*
Y3457018D1*
X22499358Y2631518D2*
Y2767518D1*
X22323358Y2631518D2*
Y2767518D1*
X20578483Y2520393D2*
Y2656393D1*
X20402483Y2520393D2*
Y2656393D1*
X19685358Y5200518D2*
X19549358D1*
X19685358Y5024518D2*
X19549358D1*
G36*
X4241377Y2144933D2*
X4243930Y2144766D1*
X4246440Y2144267D1*
X4248863Y2143444D1*
X4251158Y2142312D1*
X4253286Y2140891D1*
X4255210Y2139203D1*
X4256897Y2137279D1*
X4258319Y2135152D1*
X4259451Y2132857D1*
X4260273Y2130433D1*
X4260773Y2127924D1*
X4260940Y2125370D1*
X4260773Y2122816D1*
X4260273Y2120307D1*
X4259451Y2117883D1*
X4258319Y2115588D1*
X4256897Y2113461D1*
X4255210Y2111537D1*
X4253286Y2109849D1*
X4251158Y2108428D1*
X4248863Y2107296D1*
X4246440Y2106473D1*
X4243930Y2105974D1*
X4241377Y2105807D1*
X4241310D1*
X4238756Y2105974D1*
X4236247Y2106473D1*
X4233823Y2107296D1*
X4231528Y2108428D1*
X4229401Y2109849D1*
X4227477Y2111537D1*
X4225789Y2113461D1*
X4224368Y2115588D1*
X4223236Y2117883D1*
X4222413Y2120307D1*
X4221914Y2122816D1*
X4221747Y2125370D1*
X4221914Y2127924D1*
X4222413Y2130433D1*
X4223236Y2132857D1*
X4224368Y2135152D1*
X4225789Y2137279D1*
X4227477Y2139203D1*
X4229401Y2140891D1*
X4231528Y2142312D1*
X4233823Y2143444D1*
X4236247Y2144267D1*
X4238756Y2144766D1*
X4241310Y2144933D1*
X4241377D1*
G37*
X4468037Y2122730D2*
D10*
Y2782700D1*
X4748037Y2122730D2*
Y2782700D1*
X4468037D2*
X4748037D1*
X4468037Y2122730D2*
X4748037D1*
X15712787Y2671177D2*
Y1631183D1*
X15072793Y2671177D2*
Y1631183D1*
X15712787D2*
X15072793D1*
X15712787Y2671177D2*
X15472817D1*
X15312763D2*
X15072793D1*
X15472817D2*
G02X15312763Y2671177I-80027J50D01*
G01*
X8502890Y3927333D2*
D41*
X8454623D1*
X9465557Y3975600D2*
Y3927333D1*
X9417290Y4938267D2*
X9465557D1*
X8454623D2*
X8502890D1*
X9465557D2*
Y4890000D1*
Y3927333D2*
X9417290D1*
X8454623D2*
Y3975600D1*
Y4890000D2*
Y4938267D1*
X14815333Y4124393D2*
D10*
X17815333D1*
Y5624393D1*
X14815333D1*
Y4124393D1*
X16915333Y5624393D2*
Y4124393D1*
X16950433Y4493393D2*
D44*
X17712433D1*
Y4620443D1*
X17331433D1*
Y4747343D1*
X17712433D1*
Y4874393D1*
X17331433D1*
Y5001443D1*
X17712433D1*
Y5128343D1*
X17331433D1*
Y5255393D1*
X17712433D1*
Y5509343D1*
X17077333Y4493393D2*
Y5255393D1*
X24152483Y4709893D2*
D47*
X18352483D1*
Y1609893D1*
X24152483D1*
Y4709893D1*
G36*
X19514483Y4784893D2*
X19514141Y4779672D1*
X19513120Y4774541D1*
X19511439Y4769586D1*
X19509124Y4764893D1*
X19506217Y4760543D1*
X19502768Y4756609D1*
X19498834Y4753159D1*
X19494483Y4750252D1*
X19489791Y4747938D1*
X19484836Y4746256D1*
X19479704Y4745236D1*
X19474483Y4744893D1*
X19469262Y4745236D1*
X19464131Y4746256D1*
X19459176Y4747938D1*
X19454483Y4750252D1*
X19450133Y4753159D1*
X19446199Y4756609D1*
X19442749Y4760543D1*
X19439842Y4764893D1*
X19437528Y4769586D1*
X19435846Y4774541D1*
X19434826Y4779672D1*
X19434483Y4784893D1*
D1*
X19434826Y4790114D1*
X19435846Y4795246D1*
X19437528Y4800201D1*
X19439842Y4804893D1*
X19442749Y4809244D1*
X19446199Y4813178D1*
X19450133Y4816627D1*
X19454483Y4819534D1*
X19459176Y4821849D1*
X19464131Y4823530D1*
X19469262Y4824551D1*
X19474483Y4824893D1*
X19479704Y4824551D1*
X19484836Y4823530D1*
X19489791Y4821849D1*
X19494483Y4819534D1*
X19498834Y4816627D1*
X19502768Y4813178D1*
X19506217Y4809244D1*
X19509124Y4804893D1*
X19511439Y4800201D1*
X19513120Y4795246D1*
X19514141Y4790114D1*
X19514483Y4784893D1*
D1*
G37*
X3519895Y3014384D2*
D107*
X3524725Y3024043D1*
X3534495Y3033813D1*
X3544154Y3038643D1*
X3563583D1*
X3573354Y3033813D1*
X3583012Y3024043D1*
X3587954Y3014384D1*
X3592783Y2999784D1*
Y2975413D1*
X3587954Y2960926D1*
X3583012Y2951155D1*
X3573354Y2941496D1*
X3563583Y2936555D1*
X3544154D1*
X3534495Y2941496D1*
X3524725Y2951155D1*
X3519895Y2960926D1*
X3488523Y3019101D2*
X3478752Y3024043D1*
X3464152Y3038530D1*
Y2936555D1*
X3403580Y3038530D2*
X3418180Y3033701D1*
X3427950Y3019101D1*
X3432780Y2994843D1*
Y2980243D1*
X3427950Y2955984D1*
X3418180Y2941384D1*
X3403580Y2936555D1*
X3393921D1*
X3379321Y2941384D1*
X3369663Y2955984D1*
X3364721Y2980243D1*
Y2994843D1*
X3369663Y3019101D1*
X3379321Y3033701D1*
X3393921Y3038530D1*
X3403580D1*
X3369663Y3019101D2*
X3427950Y2955984D1*
X3328407Y3014272D2*
Y3019101D1*
X3323578Y3028872D1*
X3318749Y3033701D1*
X3308978Y3038530D1*
X3289549D1*
X3279890Y3033701D1*
X3275061Y3028872D1*
X3270119Y3019101D1*
Y3009443D1*
X3275061Y2999672D1*
X3284719Y2985184D1*
X3333349Y2936555D1*
X3265290D1*
X5761522Y1913384D2*
X5766351Y1923043D1*
X5776122Y1932813D1*
X5785781Y1937643D1*
X5805210D1*
X5814981Y1932813D1*
X5824639Y1923043D1*
X5829581Y1913384D1*
X5834410Y1898784D1*
Y1874413D1*
X5829581Y1859926D1*
X5824639Y1850155D1*
X5814981Y1840496D1*
X5805210Y1835555D1*
X5785781D1*
X5776122Y1840496D1*
X5766351Y1850155D1*
X5761522Y1859926D1*
X5730150Y1918101D2*
X5720379Y1923043D1*
X5705779Y1937530D1*
Y1835555D1*
X5645206Y1937530D2*
X5659806Y1932701D1*
X5669577Y1918101D1*
X5674406Y1893843D1*
Y1879243D1*
X5669577Y1854984D1*
X5659806Y1840384D1*
X5645206Y1835555D1*
X5635548D1*
X5620948Y1840384D1*
X5611289Y1854984D1*
X5606348Y1879243D1*
Y1893843D1*
X5611289Y1918101D1*
X5620948Y1932701D1*
X5635548Y1937530D1*
X5645206D1*
X5611289Y1918101D2*
X5669577Y1854984D1*
X5516688Y1937530D2*
X5565205D1*
X5570034Y1893843D1*
X5565205Y1898672D1*
X5550605Y1903613D1*
X5536117D1*
X5521517Y1898672D1*
X5511746Y1889013D1*
X5506917Y1874413D1*
Y1864755D1*
X5511746Y1850155D1*
X5521517Y1840384D1*
X5536117Y1835555D1*
X5550605D1*
X5565205Y1840384D1*
X5570034Y1845326D1*
X5574975Y1854984D1*
X12729783Y1946301D2*
X12734613Y1955959D1*
X12744383Y1965730D1*
X12754042Y1970559D1*
X12773471D1*
X12783242Y1965730D1*
X12792900Y1955959D1*
X12797842Y1946301D1*
X12802671Y1931701D1*
Y1907330D1*
X12797842Y1892842D1*
X12792900Y1883072D1*
X12783242Y1873413D1*
X12773471Y1868472D1*
X12754042D1*
X12744383Y1873413D1*
X12734613Y1883072D1*
X12729783Y1892842D1*
X12649782Y1868472D2*
Y1970447D1*
X12698411Y1902501D1*
X12625523D1*
X12564951Y1970447D2*
X12579551Y1965618D1*
X12589321Y1951018D1*
X12594151Y1926759D1*
Y1912159D1*
X12589321Y1887901D1*
X12579551Y1873301D1*
X12564951Y1868472D1*
X12555292D1*
X12540692Y1873301D1*
X12531034Y1887901D1*
X12526092Y1912159D1*
Y1926759D1*
X12531034Y1951018D1*
X12540692Y1965618D1*
X12555292Y1970447D1*
X12564951D1*
X12531034Y1951018D2*
X12589321Y1887901D1*
X12494720Y1951018D2*
X12484949Y1955959D1*
X12470349Y1970447D1*
Y1868472D1*
X14240769Y1927197D2*
X14231111Y1932027D1*
X14221340Y1941797D1*
X14216511Y1951456D1*
Y1970885D1*
X14221340Y1980656D1*
X14231111Y1990314D1*
X14240769Y1995256D1*
X14255369Y2000085D1*
X14279740D1*
X14294228Y1995256D1*
X14303998Y1990314D1*
X14313657Y1980656D1*
X14318598Y1970885D1*
Y1951456D1*
X14313657Y1941797D1*
X14303998Y1932027D1*
X14294228Y1927197D1*
X14318598Y1847196D2*
X14216623D1*
X14284569Y1895825D1*
Y1822937D1*
X14216623Y1762364D2*
X14221452Y1776964D1*
X14236052Y1786735D1*
X14260311Y1791564D1*
X14274911D1*
X14299169Y1786735D1*
X14313769Y1776964D1*
X14318598Y1762364D1*
Y1752706D1*
X14313769Y1738106D1*
X14299169Y1728448D1*
X14274911Y1723506D1*
X14260311D1*
X14236052Y1728448D1*
X14221452Y1738106D1*
X14216623Y1752706D1*
Y1762364D1*
X14236052Y1728448D2*
X14299169Y1786735D1*
X14240881Y1687192D2*
X14236052D1*
X14226281Y1682363D1*
X14221452Y1677533D1*
X14216623Y1667763D1*
Y1648333D1*
X14221452Y1638675D1*
X14226281Y1633846D1*
X14236052Y1628904D1*
X14245711D1*
X14255481Y1633846D1*
X14269969Y1643504D1*
X14318598Y1692133D1*
Y1624075D1*
X10754379Y4806651D2*
X10759208Y4816309D1*
X10768979Y4826080D1*
X10778637Y4830909D1*
X10798067D1*
X10807837Y4826080D1*
X10817496Y4816309D1*
X10822437Y4806651D1*
X10827267Y4792051D1*
Y4767680D1*
X10822437Y4753192D1*
X10817496Y4743422D1*
X10807837Y4733763D1*
X10798067Y4728822D1*
X10778637D1*
X10768979Y4733763D1*
X10759208Y4743422D1*
X10754379Y4753192D1*
X10664719Y4830797D2*
X10713236D1*
X10718065Y4787109D1*
X10713236Y4791939D1*
X10698636Y4796880D1*
X10684148D1*
X10669548Y4791939D1*
X10659777Y4782280D1*
X10654948Y4767680D1*
Y4758022D1*
X10659777Y4743422D1*
X10669548Y4733651D1*
X10684148Y4728822D1*
X10698636D1*
X10713236Y4733651D1*
X10718065Y4738592D1*
X10723006Y4748251D1*
X10594375Y4830797D2*
X10608975Y4825968D1*
X10618746Y4811368D1*
X10623575Y4787109D1*
Y4772509D1*
X10618746Y4748251D1*
X10608975Y4733651D1*
X10594375Y4728822D1*
X10584717D1*
X10570117Y4733651D1*
X10560458Y4748251D1*
X10555517Y4772509D1*
Y4787109D1*
X10560458Y4811368D1*
X10570117Y4825968D1*
X10584717Y4830797D1*
X10594375D1*
X10560458Y4811368D2*
X10618746Y4748251D1*
X10524144Y4811368D2*
X10514373Y4816309D1*
X10499773Y4830797D1*
Y4728822D1*
X10698809Y4283533D2*
X10689151Y4288362D1*
X10679380Y4298133D1*
X10674551Y4307791D1*
Y4327220D1*
X10679380Y4336991D1*
X10689151Y4346650D1*
X10698809Y4351591D1*
X10713409Y4356420D1*
X10737780D1*
X10752268Y4351591D1*
X10762038Y4346650D1*
X10771697Y4336991D1*
X10776638Y4327220D1*
Y4307791D1*
X10771697Y4298133D1*
X10762038Y4288362D1*
X10752268Y4283533D1*
X10674663Y4193872D2*
Y4242389D1*
X10718351Y4247219D1*
X10713521Y4242389D1*
X10708580Y4227789D1*
Y4213302D1*
X10713521Y4198702D1*
X10723180Y4188931D1*
X10737780Y4184102D1*
X10747438D1*
X10762038Y4188931D1*
X10771809Y4198702D1*
X10776638Y4213302D1*
Y4227789D1*
X10771809Y4242389D1*
X10766868Y4247219D1*
X10757209Y4252160D1*
X10674663Y4123529D2*
X10679492Y4138129D1*
X10694092Y4147900D1*
X10718351Y4152729D1*
X10732951D1*
X10757209Y4147900D1*
X10771809Y4138129D1*
X10776638Y4123529D1*
Y4113871D1*
X10771809Y4099271D1*
X10757209Y4089612D1*
X10732951Y4084671D1*
X10718351D1*
X10694092Y4089612D1*
X10679492Y4099271D1*
X10674663Y4113871D1*
Y4123529D1*
X10694092Y4089612D2*
X10757209Y4147900D1*
X10698921Y4048357D2*
X10694092D1*
X10684321Y4043527D1*
X10679492Y4038698D1*
X10674663Y4028927D1*
Y4009498D1*
X10679492Y3999840D1*
X10684321Y3995010D1*
X10694092Y3990069D1*
X10703751D1*
X10713521Y3995010D1*
X10728009Y4004669D1*
X10776638Y4053298D1*
Y3985240D1*
X10067189Y4301343D2*
X10057531Y4306172D1*
X10047760Y4315943D1*
X10042931Y4325601D1*
Y4345030D1*
X10047760Y4354801D1*
X10057531Y4364460D1*
X10067189Y4369401D1*
X10081789Y4374230D1*
X10106160D1*
X10120648Y4369401D1*
X10130418Y4364460D1*
X10140077Y4354801D1*
X10145018Y4345030D1*
Y4325601D1*
X10140077Y4315943D1*
X10130418Y4306172D1*
X10120648Y4301343D1*
X10043043Y4211682D2*
Y4260199D1*
X10086731Y4265029D1*
X10081901Y4260199D1*
X10076960Y4245599D1*
Y4231112D1*
X10081901Y4216512D1*
X10091560Y4206741D1*
X10106160Y4201912D1*
X10115818D1*
X10130418Y4206741D1*
X10140189Y4216512D1*
X10145018Y4231112D1*
Y4245599D1*
X10140189Y4260199D1*
X10135248Y4265029D1*
X10125589Y4269970D1*
X10043043Y4141339D2*
X10047872Y4155939D1*
X10062472Y4165710D1*
X10086731Y4170539D1*
X10101331D1*
X10125589Y4165710D1*
X10140189Y4155939D1*
X10145018Y4141339D1*
Y4131681D1*
X10140189Y4117081D1*
X10125589Y4107422D1*
X10101331Y4102481D1*
X10086731D1*
X10062472Y4107422D1*
X10047872Y4117081D1*
X10043043Y4131681D1*
Y4141339D1*
X10062472Y4107422D2*
X10125589Y4165710D1*
X10043043Y4061337D2*
Y4007991D1*
X10081901Y4037079D1*
Y4022479D1*
X10086731Y4012820D1*
X10091560Y4007991D1*
X10106160Y4003050D1*
X10115818D1*
X10130418Y4007991D1*
X10140189Y4017650D1*
X10145018Y4032250D1*
Y4046850D1*
X10140189Y4061337D1*
X10135248Y4066167D1*
X10125589Y4071108D1*
X9929329Y4768457D2*
X9919671Y4773287D1*
X9909900Y4783057D1*
X9905071Y4792716D1*
Y4812145D1*
X9909900Y4821916D1*
X9919671Y4831574D1*
X9929329Y4836516D1*
X9943929Y4841345D1*
X9968300D1*
X9982788Y4836516D1*
X9992558Y4831574D1*
X10002217Y4821916D1*
X10007158Y4812145D1*
Y4792716D1*
X10002217Y4783057D1*
X9992558Y4773287D1*
X9982788Y4768457D1*
X9905183Y4678797D2*
Y4727314D1*
X9948871Y4732143D1*
X9944041Y4727314D1*
X9939100Y4712714D1*
Y4698226D1*
X9944041Y4683626D1*
X9953700Y4673856D1*
X9968300Y4669026D1*
X9977958D1*
X9992558Y4673856D1*
X10002329Y4683626D1*
X10007158Y4698226D1*
Y4712714D1*
X10002329Y4727314D1*
X9997388Y4732143D1*
X9987729Y4737085D1*
X9905183Y4608454D2*
X9910012Y4623054D1*
X9924612Y4632824D1*
X9948871Y4637654D1*
X9963471D1*
X9987729Y4632824D1*
X10002329Y4623054D1*
X10007158Y4608454D1*
Y4598795D1*
X10002329Y4584195D1*
X9987729Y4574537D1*
X9963471Y4569595D1*
X9948871D1*
X9924612Y4574537D1*
X9910012Y4584195D1*
X9905183Y4598795D1*
Y4608454D1*
X9924612Y4574537D2*
X9987729Y4632824D1*
X10007158Y4489593D2*
X9905183D1*
X9973129Y4538223D1*
Y4465335D1*
X9236686Y3183924D2*
X9241515Y3193583D1*
X9251286Y3203353D1*
X9260944Y3208183D1*
X9280374D1*
X9290144Y3203353D1*
X9299803Y3193583D1*
X9304744Y3183924D1*
X9309574Y3169324D1*
Y3144953D1*
X9304744Y3130466D1*
X9299803Y3120695D1*
X9290144Y3111036D1*
X9280374Y3106095D1*
X9260944D1*
X9251286Y3111036D1*
X9241515Y3120695D1*
X9236686Y3130466D1*
X9147026Y3208070D2*
X9195543D1*
X9200372Y3164383D1*
X9195543Y3169212D1*
X9180943Y3174153D1*
X9166455D1*
X9151855Y3169212D1*
X9142084Y3159553D1*
X9137255Y3144953D1*
Y3135295D1*
X9142084Y3120695D1*
X9151855Y3110924D1*
X9166455Y3106095D1*
X9180943D1*
X9195543Y3110924D1*
X9200372Y3115866D1*
X9205313Y3125524D1*
X9076682Y3208070D2*
X9091282Y3203241D1*
X9101053Y3188641D1*
X9105882Y3164383D1*
Y3149783D1*
X9101053Y3125524D1*
X9091282Y3110924D1*
X9076682Y3106095D1*
X9067024D1*
X9052424Y3110924D1*
X9042766Y3125524D1*
X9037824Y3149783D1*
Y3164383D1*
X9042766Y3188641D1*
X9052424Y3203241D1*
X9067024Y3208070D1*
X9076682D1*
X9042766Y3188641D2*
X9101053Y3125524D1*
X8948164Y3208070D2*
X8996681D1*
X9001510Y3164383D1*
X8996681Y3169212D1*
X8982081Y3174153D1*
X8967593D1*
X8952993Y3169212D1*
X8943222Y3159553D1*
X8938393Y3144953D1*
Y3135295D1*
X8943222Y3120695D1*
X8952993Y3110924D1*
X8967593Y3106095D1*
X8982081D1*
X8996681Y3110924D1*
X9001510Y3115866D1*
X9006451Y3125524D1*
X9376444Y2296023D2*
X9478532D1*
Y2261994D1*
X9473590Y2247394D1*
X9463932Y2237623D1*
X9454161Y2232794D1*
X9439673Y2227965D1*
X9415303D1*
X9400703Y2232794D1*
X9391044Y2237623D1*
X9381273Y2247394D1*
X9376444Y2261994D1*
Y2296023D1*
Y2167392D2*
X9381161Y2177051D1*
X9390932Y2186822D1*
X9400703Y2191651D1*
X9415303Y2196592D1*
X9439561D1*
X9454161Y2191651D1*
X9463819Y2186822D1*
X9473590Y2177051D1*
X9478419Y2167392D1*
Y2147963D1*
X9473590Y2138192D1*
X9463819Y2128534D1*
X9454161Y2123705D1*
X9439561Y2118763D1*
X9415303D1*
X9400703Y2123705D1*
X9390932Y2128534D1*
X9381161Y2138192D1*
X9376444Y2147963D1*
Y2167392D1*
X9458990Y2152792D2*
X9488190Y2123705D1*
X6819929Y3197030D2*
X6819931Y3119313D1*
X6824760Y3104713D1*
X6829702Y3099884D1*
X6839361Y3094943D1*
X6849132D1*
X6858790Y3099885D1*
X6863619Y3104714D1*
X6868560Y3119315D1*
Y3128973D1*
X6783615Y3172658D2*
Y3177487D1*
X6778785Y3187258D1*
X6773956Y3192087D1*
X6764185Y3196916D1*
X6744756D1*
X6735098Y3192086D1*
X6730269Y3187257D1*
X6725327Y3177486D1*
X6725328Y3167827D1*
X6730269Y3158057D1*
X6739928Y3143569D1*
X6788559Y3094941D1*
X6720501Y3094939D1*
X16356634Y6166183D2*
Y6088466D1*
X16361463Y6073866D1*
X16366405Y6069036D1*
X16376063Y6064095D1*
X16385834D1*
X16395493Y6069036D1*
X16400322Y6073866D1*
X16405263Y6088466D1*
Y6098124D1*
X16266974Y6166070D2*
X16315491D1*
X16320320Y6122383D1*
X16315491Y6127212D1*
X16300891Y6132153D1*
X16286403D1*
X16271803Y6127212D1*
X16262032Y6117553D1*
X16257203Y6102953D1*
Y6093295D1*
X16262032Y6078695D1*
X16271803Y6068924D1*
X16286403Y6064095D1*
X16300891D1*
X16315491Y6068924D1*
X16320320Y6073866D1*
X16325262Y6083524D1*
X21447523Y5300854D2*
X21345435D1*
X21447523Y5368913D2*
X21379464Y5300854D1*
X21403835Y5325113D2*
X21345435Y5368913D1*
X21413493Y5463515D2*
X21398893Y5458573D1*
X21389123Y5448915D1*
X21384293Y5434315D1*
Y5429485D1*
X21389123Y5414885D1*
X21398893Y5405227D1*
X21413493Y5400285D1*
X21418323D1*
X21432923Y5405227D1*
X21442581Y5414885D1*
X21447410Y5429485D1*
Y5434315D1*
X21442581Y5448915D1*
X21432923Y5458573D1*
X21413493Y5463515D1*
X21389123D1*
X21364864Y5458573D1*
X21350264Y5448915D1*
X21345435Y5434315D1*
Y5424656D1*
X21350264Y5410056D1*
X21360035Y5405227D1*
X21447410Y5524087D2*
X21442581Y5509487D1*
X21427981Y5499716D1*
X21403723Y5494887D1*
X21389123D1*
X21364864Y5499716D1*
X21350264Y5509487D1*
X21345435Y5524087D1*
Y5533746D1*
X21350264Y5548346D1*
X21364864Y5558004D1*
X21389123Y5562946D1*
X21403723D1*
X21427981Y5558004D1*
X21442581Y5548346D1*
X21447410Y5533746D1*
Y5524087D1*
X21427981Y5558004D2*
X21364864Y5499716D1*
X21427981Y5594318D2*
X21432923Y5604089D1*
X21447410Y5618689D1*
X21345435D1*
X9119687Y2032791D2*
Y2076591D1*
X9124517Y2091079D1*
X9129458Y2096020D1*
X9139117Y2100849D1*
X9153717D1*
X9163375Y2096020D1*
X9168317Y2091079D1*
X9173146Y2076591D1*
Y2032791D1*
X9071058D1*
Y2210051D2*
X9173146Y2171080D1*
X9071058Y2132222D1*
X9105087Y2146822D2*
Y2195451D1*
X9173146Y2241424D2*
X9071058D1*
Y2275453D1*
X9076000Y2290053D1*
X9085658Y2299824D1*
X9095429Y2304653D1*
X9109917Y2309482D1*
X9134287D1*
X9148887Y2304653D1*
X9158546Y2299824D1*
X9168317Y2290053D1*
X9173146Y2275453D1*
Y2241424D1*
X9071058Y2389484D2*
X9173034D1*
X9105087Y2340855D1*
Y2413742D1*
X5731026Y2633578D2*
Y2589778D1*
X5726197Y2575290D1*
X5721255Y2570349D1*
X5711597Y2565519D1*
X5696997D1*
X5687338Y2570349D1*
X5682397Y2575290D1*
X5677567Y2589778D1*
Y2633578D1*
X5779655D1*
Y2456318D2*
X5677567Y2495288D1*
X5779655Y2534147D1*
X5745626Y2519547D2*
Y2470918D1*
X5677567Y2424945D2*
X5779655D1*
Y2390916D1*
X5774714Y2376316D1*
X5765055Y2366545D1*
X5755284Y2361716D1*
X5740797Y2356887D1*
X5716426D1*
X5701826Y2361716D1*
X5692167Y2366545D1*
X5682397Y2376316D1*
X5677567Y2390916D1*
Y2424945D1*
X5677680Y2267226D2*
Y2315743D1*
X5721367Y2320572D1*
X5716538Y2315743D1*
X5711597Y2301143D1*
Y2286656D1*
X5716538Y2272056D1*
X5726197Y2262285D1*
X5740797Y2257456D1*
X5750455D1*
X5765055Y2262285D1*
X5774826Y2272056D1*
X5779655Y2286656D1*
Y2301143D1*
X5774826Y2315743D1*
X5769884Y2320572D1*
X5760226Y2325514D1*
X5952977Y4463413D2*
X5962636Y4458696D1*
X5972407Y4448925D1*
X5977236Y4439154D1*
X5982177Y4424554D1*
Y4400296D1*
X5977236Y4385696D1*
X5972407Y4376037D1*
X5962636Y4366266D1*
X5952977Y4361437D1*
X5933548D1*
X5923777Y4366266D1*
X5914119Y4376037D1*
X5909290Y4385696D1*
X5904348Y4400296D1*
Y4424554D1*
X5909290Y4439154D1*
X5914119Y4448925D1*
X5923777Y4458696D1*
X5933548Y4463413D1*
X5952977D1*
X5938377Y4380866D2*
X5909290Y4351666D1*
X5863205Y4463300D2*
X5809859D1*
X5838946Y4424442D1*
X5824346D1*
X5814688Y4419613D1*
X5809859Y4414783D1*
X5804917Y4400183D1*
Y4390525D1*
X5809859Y4375925D1*
X5819517Y4366154D1*
X5834117Y4361325D1*
X5848717D1*
X5863205Y4366154D1*
X5868034Y4371096D1*
X5872976Y4380754D1*
X5744344Y4463300D2*
X5758944Y4458471D1*
X5768715Y4443871D1*
X5773544Y4419613D1*
Y4405013D1*
X5768715Y4380754D1*
X5758944Y4366154D1*
X5744344Y4361325D1*
X5734686D1*
X5720086Y4366154D1*
X5710428Y4380754D1*
X5705486Y4405013D1*
Y4419613D1*
X5710428Y4443871D1*
X5720086Y4458471D1*
X5734686Y4463300D1*
X5744344D1*
X5710428Y4443871D2*
X5768715Y4380754D1*
X5674113Y4443871D2*
X5664343Y4448813D1*
X5649743Y4463300D1*
Y4361325D1*
X11661651Y5131703D2*
X11671310Y5126986D1*
X11681080Y5117215D1*
X11685910Y5107444D1*
X11690851Y5092844D1*
Y5068586D1*
X11685910Y5053986D1*
X11681080Y5044327D1*
X11671310Y5034556D1*
X11661651Y5029727D1*
X11642222D1*
X11632451Y5034556D1*
X11622793Y5044327D1*
X11617963Y5053986D1*
X11613022Y5068586D1*
Y5092844D1*
X11617963Y5107444D1*
X11622793Y5117215D1*
X11632451Y5126986D1*
X11642222Y5131703D1*
X11661651D1*
X11647051Y5049156D2*
X11617963Y5019956D1*
X11557391Y5131590D2*
X11571879Y5126761D1*
X11576820Y5117103D1*
Y5107332D1*
X11571879Y5097673D1*
X11562220Y5092732D1*
X11542791Y5087903D1*
X11528191Y5083073D1*
X11518532Y5073303D1*
X11513703Y5063644D1*
Y5049044D1*
X11518532Y5039386D1*
X11523362Y5034444D1*
X11537962Y5029615D1*
X11557391D1*
X11571879Y5034444D1*
X11576820Y5039386D1*
X11581649Y5049044D1*
Y5063644D1*
X11576820Y5073303D1*
X11567049Y5083073D1*
X11552562Y5087903D1*
X11533132Y5092732D1*
X11523362Y5097673D1*
X11518532Y5107332D1*
Y5117103D1*
X11523362Y5126761D1*
X11537962Y5131590D1*
X11557391D1*
X11453131D2*
X11467731Y5126761D1*
X11477501Y5112161D1*
X11482331Y5087903D1*
Y5073303D1*
X11477501Y5049044D1*
X11467731Y5034444D1*
X11453131Y5029615D1*
X11443472D1*
X11428872Y5034444D1*
X11419214Y5049044D1*
X11414272Y5073303D1*
Y5087903D1*
X11419214Y5112161D1*
X11428872Y5126761D1*
X11443472Y5131590D1*
X11453131D1*
X11419214Y5112161D2*
X11477501Y5049044D1*
X11382900Y5112161D2*
X11373129Y5117103D1*
X11358529Y5131590D1*
Y5029615D1*
X12599505Y4974813D2*
X12609163Y4970096D1*
X12618934Y4960325D1*
X12623763Y4950554D1*
X12628705Y4935954D1*
Y4911696D1*
X12623763Y4897096D1*
X12618934Y4887437D1*
X12609163Y4877666D1*
X12599505Y4872837D1*
X12580076D1*
X12570305Y4877666D1*
X12560647Y4887437D1*
X12555817Y4897096D1*
X12550876Y4911696D1*
Y4935954D1*
X12555817Y4950554D1*
X12560647Y4960325D1*
X12570305Y4970096D1*
X12580076Y4974813D1*
X12599505D1*
X12584905Y4892266D2*
X12555817Y4863066D1*
X12495245Y4974700D2*
X12509732Y4969871D1*
X12514674Y4960213D1*
Y4950442D1*
X12509732Y4940783D1*
X12500074Y4935842D1*
X12480645Y4931013D1*
X12466045Y4926183D1*
X12456386Y4916413D1*
X12451557Y4906754D1*
Y4892154D1*
X12456386Y4882496D1*
X12461216Y4877554D1*
X12475816Y4872725D1*
X12495245D1*
X12509732Y4877554D1*
X12514674Y4882496D1*
X12519503Y4892154D1*
Y4906754D1*
X12514674Y4916413D1*
X12504903Y4926183D1*
X12490416Y4931013D1*
X12470986Y4935842D1*
X12461216Y4940783D1*
X12456386Y4950442D1*
Y4960213D1*
X12461216Y4969871D1*
X12475816Y4974700D1*
X12495245D1*
X12390984D2*
X12405584Y4969871D1*
X12415355Y4955271D1*
X12420184Y4931013D1*
Y4916413D1*
X12415355Y4892154D1*
X12405584Y4877554D1*
X12390984Y4872725D1*
X12381326D1*
X12366726Y4877554D1*
X12357068Y4892154D1*
X12352126Y4916413D1*
Y4931013D1*
X12357068Y4955271D1*
X12366726Y4969871D1*
X12381326Y4974700D1*
X12390984D1*
X12357068Y4955271D2*
X12415355Y4892154D1*
X12315812Y4950442D2*
Y4955271D1*
X12310983Y4965042D1*
X12306153Y4969871D1*
X12296383Y4974700D1*
X12276953D1*
X12267295Y4969871D1*
X12262466Y4965042D1*
X12257524Y4955271D1*
Y4945613D1*
X12262466Y4935842D1*
X12272124Y4921354D1*
X12320753Y4872725D1*
X12252695D1*
X21414469Y3364251D2*
X21409752Y3354592D1*
X21399982Y3344821D1*
X21390211Y3339992D1*
X21375611Y3335051D1*
X21351352D1*
X21336752Y3339992D1*
X21327094Y3344821D1*
X21317323Y3354592D1*
X21312494Y3364251D1*
Y3383680D1*
X21317323Y3393451D1*
X21327094Y3403109D1*
X21336752Y3407938D1*
X21351352Y3412880D1*
X21375611D1*
X21390211Y3407938D1*
X21399982Y3403109D1*
X21409752Y3393451D1*
X21414469Y3383680D1*
Y3364251D1*
X21331923Y3378851D2*
X21302723Y3407938D1*
X21380440Y3507482D2*
X21365840Y3502540D1*
X21356069Y3492882D1*
X21351240Y3478282D1*
Y3473452D1*
X21356069Y3458852D1*
X21365840Y3449194D1*
X21380440Y3444252D1*
X21385269D1*
X21399869Y3449194D1*
X21409528Y3458852D1*
X21414357Y3473452D1*
Y3478282D1*
X21409528Y3492882D1*
X21399869Y3502540D1*
X21380440Y3507482D1*
X21356069D1*
X21331811Y3502540D1*
X21317211Y3492882D1*
X21312382Y3478282D1*
Y3468623D1*
X21317211Y3454023D1*
X21326982Y3449194D1*
X21414357Y3568054D2*
X21409528Y3553454D1*
X21394928Y3543683D1*
X21370669Y3538854D1*
X21356069D1*
X21331811Y3543683D1*
X21317211Y3553454D1*
X21312382Y3568054D1*
Y3577713D1*
X21317211Y3592313D1*
X21331811Y3601971D1*
X21356069Y3606913D1*
X21370669D1*
X21394928Y3601971D1*
X21409528Y3592313D1*
X21414357Y3577713D1*
Y3568054D1*
X21394928Y3601971D2*
X21331811Y3543683D1*
X21394928Y3638285D2*
X21399869Y3648056D1*
X21414357Y3662656D1*
X21312382D1*
X21970094Y2580407D2*
X21965377Y2570748D1*
X21955607Y2560978D1*
X21945836Y2556148D1*
X21931236Y2551207D1*
X21906977D1*
X21892377Y2556148D1*
X21882719Y2560978D1*
X21872948Y2570748D1*
X21868119Y2580407D1*
Y2599836D1*
X21872948Y2609607D1*
X21882719Y2619265D1*
X21892377Y2624095D1*
X21906977Y2629036D1*
X21931236D1*
X21945836Y2624095D1*
X21955607Y2619265D1*
X21965377Y2609607D1*
X21970094Y2599836D1*
Y2580407D1*
X21887548Y2595007D2*
X21858348Y2624095D1*
X21936065Y2723638D2*
X21921465Y2718696D1*
X21911694Y2709038D1*
X21906865Y2694438D1*
Y2689609D1*
X21911694Y2675009D1*
X21921465Y2665350D1*
X21936065Y2660409D1*
X21940894D1*
X21955494Y2665350D1*
X21965153Y2675009D1*
X21969982Y2689609D1*
Y2694438D1*
X21965153Y2709038D1*
X21955494Y2718696D1*
X21936065Y2723638D1*
X21911694D1*
X21887436Y2718696D1*
X21872836Y2709038D1*
X21868007Y2694438D1*
Y2684779D1*
X21872836Y2670179D1*
X21882607Y2665350D1*
X21969982Y2784210D2*
X21965153Y2769610D1*
X21950553Y2759840D1*
X21926294Y2755010D1*
X21911694D1*
X21887436Y2759840D1*
X21872836Y2769610D1*
X21868007Y2784210D1*
Y2793869D1*
X21872836Y2808469D1*
X21887436Y2818127D1*
X21911694Y2823069D1*
X21926294D1*
X21950553Y2818127D1*
X21965153Y2808469D1*
X21969982Y2793869D1*
Y2784210D1*
X21950553Y2818127D2*
X21887436Y2759840D1*
X21945724Y2859383D2*
X21950553D1*
X21960324Y2864212D1*
X21965153Y2869041D1*
X21969982Y2878812D1*
Y2898241D1*
X21965153Y2907900D1*
X21960324Y2912729D1*
X21950553Y2917671D1*
X21940894D1*
X21931124Y2912729D1*
X21916636Y2903071D1*
X21868007Y2854441D1*
Y2922500D1*
X9364489Y1612190D2*
X9408176D1*
X9422776Y1607248D1*
X9427718Y1602419D1*
X9432547Y1592761D1*
Y1582990D1*
X9427718Y1573331D1*
X9422776Y1568390D1*
X9408176Y1563561D1*
X9364489D1*
Y1665648D1*
X9398518Y1612190D2*
X9432547Y1665648D1*
X9473690Y1563673D2*
X9527037D1*
X9497949Y1602531D1*
X9512549D1*
X9522207Y1607361D1*
X9527037Y1612190D1*
X9531978Y1626790D1*
Y1636448D1*
X9527037Y1651048D1*
X9517378Y1660819D1*
X9502778Y1665648D1*
X9488178D1*
X9473690Y1660819D1*
X9468861Y1655878D1*
X9463920Y1646219D1*
X9453190Y5683678D2*
X9409503D1*
X9394903Y5688620D1*
X9389961Y5693449D1*
X9385132Y5703108D1*
Y5712878D1*
X9389961Y5722537D1*
X9394903Y5727478D1*
X9409503Y5732308D1*
X9453190D1*
Y5630220D1*
X9419161Y5683678D2*
X9385132Y5630220D1*
X9348818Y5707937D2*
Y5712766D1*
X9343988Y5722537D1*
X9339159Y5727366D1*
X9329388Y5732195D1*
X9309959D1*
X9300301Y5727366D1*
X9295472Y5722537D1*
X9290530Y5712766D1*
Y5703108D1*
X9295472Y5693337D1*
X9305130Y5678849D1*
X9353759Y5630220D1*
X9285701D1*
X9225128Y5732195D2*
X9239728Y5727366D1*
X9249499Y5712766D1*
X9254328Y5688508D1*
Y5673908D1*
X9249499Y5649649D1*
X9239728Y5635049D1*
X9225128Y5630220D1*
X9215470D1*
X9200870Y5635049D1*
X9191211Y5649649D1*
X9186270Y5673908D1*
Y5688508D1*
X9191211Y5712766D1*
X9200870Y5727366D1*
X9215470Y5732195D1*
X9225128D1*
X9191211Y5712766D2*
X9249499Y5649649D1*
X9154897Y5712766D2*
X9145126Y5717708D1*
X9130526Y5732195D1*
Y5630220D1*
X6561712Y4329790D2*
X6518024D1*
X6503424Y4334732D1*
X6498483Y4339561D1*
X6493653Y4349219D1*
Y4358990D1*
X6498483Y4368649D1*
X6503424Y4373590D1*
X6518024Y4378419D1*
X6561712D1*
Y4276332D1*
X6527683Y4329790D2*
X6493653Y4276332D1*
X6452510Y4378307D2*
X6399164D1*
X6428252Y4339449D1*
X6413652D1*
X6403993Y4334619D1*
X6399164Y4329790D1*
X6394222Y4315190D1*
Y4305532D1*
X6399164Y4290932D1*
X6408822Y4281161D1*
X6423422Y4276332D1*
X6438022D1*
X6452510Y4281161D1*
X6457339Y4286102D1*
X6462281Y4295761D1*
X6333650Y4378307D2*
X6348250Y4373478D1*
X6358021Y4358878D1*
X6362850Y4334619D1*
Y4320019D1*
X6358021Y4295761D1*
X6348250Y4281161D1*
X6333650Y4276332D1*
X6323991D1*
X6309391Y4281161D1*
X6299733Y4295761D1*
X6294791Y4320019D1*
Y4334619D1*
X6299733Y4358878D1*
X6309391Y4373478D1*
X6323991Y4378307D1*
X6333650D1*
X6299733Y4358878D2*
X6358021Y4295761D1*
X6263419Y4358878D2*
X6253648Y4363819D1*
X6239048Y4378307D1*
Y4276332D1*
X5080217Y4345176D2*
Y4301488D1*
X5075275Y4286888D1*
X5070446Y4281947D1*
X5060787Y4277117D1*
X5051017D1*
X5041358Y4281947D1*
X5036417Y4286888D1*
X5031587Y4301488D1*
Y4345176D1*
X5133675D1*
X5080217Y4311147D2*
X5133675Y4277117D1*
X5031700Y4235974D2*
Y4182628D1*
X5070558Y4211716D1*
Y4197116D1*
X5075387Y4187457D1*
X5080217Y4182628D1*
X5094817Y4177686D1*
X5104475D1*
X5119075Y4182628D1*
X5128846Y4192286D1*
X5133675Y4206886D1*
Y4221486D1*
X5128846Y4235974D1*
X5123904Y4240803D1*
X5114246Y4245745D1*
X5031700Y4117114D2*
X5036529Y4131714D1*
X5051129Y4141484D1*
X5075387Y4146314D1*
X5089987D1*
X5114246Y4141484D1*
X5128846Y4131714D1*
X5133675Y4117114D1*
Y4107455D1*
X5128846Y4092855D1*
X5114246Y4083197D1*
X5089987Y4078255D1*
X5075387D1*
X5051129Y4083197D1*
X5036529Y4092855D1*
X5031700Y4107455D1*
Y4117114D1*
X5051129Y4083197D2*
X5114246Y4141484D1*
X5055958Y4041941D2*
X5051129D1*
X5041358Y4037112D1*
X5036529Y4032283D1*
X5031700Y4022512D1*
Y4003083D1*
X5036529Y3993424D1*
X5041358Y3988595D1*
X5051129Y3983653D1*
X5060787D1*
X5070558Y3988595D1*
X5085046Y3998253D1*
X5133675Y4046883D1*
Y3978824D1*
X16078640Y3273677D2*
Y3229989D1*
X16073698Y3215389D1*
X16068869Y3210447D1*
X16059211Y3205618D1*
X16049440D1*
X16039781Y3210447D1*
X16034840Y3215389D1*
X16030011Y3229989D1*
Y3273677D1*
X16132098D1*
X16078640Y3239647D2*
X16132098Y3205618D1*
Y3125616D2*
X16030123D1*
X16098069Y3174246D1*
Y3101358D1*
X16030123Y3040785D2*
X16034952Y3055385D1*
X16049552Y3065156D1*
X16073811Y3069985D1*
X16088411D1*
X16112669Y3065156D1*
X16127269Y3055385D1*
X16132098Y3040785D1*
Y3031127D1*
X16127269Y3016527D1*
X16112669Y3006868D1*
X16088411Y3001927D1*
X16073811D1*
X16049552Y3006868D1*
X16034952Y3016527D1*
X16030123Y3031127D1*
Y3040785D1*
X16049552Y3006868D2*
X16112669Y3065156D1*
X16049552Y2970554D2*
X16044611Y2960783D1*
X16030123Y2946183D1*
X16132098D1*
X14738460Y3552240D2*
X14694773D1*
X14680173Y3557182D1*
X14675231Y3562011D1*
X14670402Y3571669D1*
Y3581440D1*
X14675231Y3591099D1*
X14680173Y3596040D1*
X14694773Y3600869D1*
X14738460D1*
Y3498782D1*
X14704431Y3552240D2*
X14670402Y3498782D1*
X14590400D2*
Y3600757D1*
X14639029Y3532811D1*
X14566142D1*
X14505569Y3600757D2*
X14520169Y3595928D1*
X14529940Y3581328D1*
X14534769Y3557069D1*
Y3542469D1*
X14529940Y3518211D1*
X14520169Y3503611D1*
X14505569Y3498782D1*
X14495911D1*
X14481311Y3503611D1*
X14471652Y3518211D1*
X14466711Y3542469D1*
Y3557069D1*
X14471652Y3581328D1*
X14481311Y3595928D1*
X14495911Y3600757D1*
X14505569D1*
X14471652Y3581328D2*
X14529940Y3518211D1*
X14430397Y3576499D2*
Y3581328D1*
X14425567Y3591099D1*
X14420738Y3595928D1*
X14410967Y3600757D1*
X14391538D1*
X14381880Y3595928D1*
X14377050Y3591099D1*
X14372109Y3581328D1*
Y3571669D1*
X14377050Y3561899D1*
X14386709Y3547411D1*
X14435338Y3498782D1*
X14367280D1*
X15465220Y3436200D2*
X15421533D1*
X15406933Y3441142D1*
X15401991Y3445971D1*
X15397162Y3455629D1*
Y3465400D1*
X15401991Y3475059D1*
X15406933Y3480000D1*
X15421533Y3484829D1*
X15465220D1*
Y3382742D1*
X15431191Y3436200D2*
X15397162Y3382742D1*
X15317160D2*
Y3484717D1*
X15365789Y3416771D1*
X15292902D1*
X15232329Y3484717D2*
X15246929Y3479888D1*
X15256700Y3465288D1*
X15261529Y3441029D1*
Y3426429D1*
X15256700Y3402171D1*
X15246929Y3387571D1*
X15232329Y3382742D1*
X15222671D1*
X15208071Y3387571D1*
X15198412Y3402171D1*
X15193471Y3426429D1*
Y3441029D1*
X15198412Y3465288D1*
X15208071Y3479888D1*
X15222671Y3484717D1*
X15232329D1*
X15198412Y3465288D2*
X15256700Y3402171D1*
X15152327Y3484717D2*
X15098981D1*
X15128069Y3445859D1*
X15113469D1*
X15103810Y3441029D1*
X15098981Y3436200D1*
X15094040Y3421600D1*
Y3411942D1*
X15098981Y3397342D1*
X15108640Y3387571D1*
X15123240Y3382742D1*
X15137840D1*
X15152327Y3387571D1*
X15157157Y3392512D1*
X15162098Y3402171D1*
X10801022Y5409280D2*
X10757334D1*
X10742734Y5414222D1*
X10737793Y5419051D1*
X10732963Y5428709D1*
Y5438480D1*
X10737793Y5448139D1*
X10742734Y5453080D1*
X10757334Y5457909D1*
X10801022D1*
Y5355822D1*
X10766993Y5409280D2*
X10732963Y5355822D1*
X10643303Y5457797D2*
X10691820D1*
X10696649Y5414109D1*
X10691820Y5418939D1*
X10677220Y5423880D1*
X10662732D1*
X10648132Y5418939D1*
X10638362Y5409280D1*
X10633532Y5394680D1*
Y5385022D1*
X10638362Y5370422D1*
X10648132Y5360651D1*
X10662732Y5355822D1*
X10677220D1*
X10691820Y5360651D1*
X10696649Y5365592D1*
X10701591Y5375251D1*
X10572960Y5457797D2*
X10587560Y5452968D1*
X10597331Y5438368D1*
X10602160Y5414109D1*
Y5399509D1*
X10597331Y5375251D1*
X10587560Y5360651D1*
X10572960Y5355822D1*
X10563301D1*
X10548701Y5360651D1*
X10539043Y5375251D1*
X10534101Y5399509D1*
Y5414109D1*
X10539043Y5438368D1*
X10548701Y5452968D1*
X10563301Y5457797D1*
X10572960D1*
X10539043Y5438368D2*
X10597331Y5375251D1*
X10502729Y5438368D2*
X10492958Y5443309D1*
X10478358Y5457797D1*
Y5355822D1*
X11706926Y5696630D2*
X11663238D1*
X11648638Y5701572D1*
X11643697Y5706401D1*
X11638867Y5716059D1*
Y5725830D1*
X11643697Y5735489D1*
X11648638Y5740430D1*
X11663238Y5745259D1*
X11706926D1*
Y5643172D1*
X11672897Y5696630D2*
X11638867Y5643172D1*
X11583236Y5745147D2*
X11597724Y5740318D1*
X11602666Y5730659D1*
Y5720889D1*
X11597724Y5711230D1*
X11588066Y5706289D1*
X11568636Y5701459D1*
X11554036Y5696630D1*
X11544378Y5686859D1*
X11539549Y5677201D1*
Y5662601D1*
X11544378Y5652942D1*
X11549207Y5648001D1*
X11563807Y5643172D1*
X11583236D1*
X11597724Y5648001D1*
X11602666Y5652942D1*
X11607495Y5662601D1*
Y5677201D1*
X11602666Y5686859D1*
X11592895Y5696630D1*
X11578407Y5701459D1*
X11558978Y5706289D1*
X11549207Y5711230D1*
X11544378Y5720889D1*
Y5730659D1*
X11549207Y5740318D1*
X11563807Y5745147D1*
X11583236D1*
X11478976D2*
X11493576Y5740318D1*
X11503347Y5725718D1*
X11508176Y5701459D1*
Y5686859D1*
X11503347Y5662601D1*
X11493576Y5648001D1*
X11478976Y5643172D1*
X11469318D1*
X11454718Y5648001D1*
X11445059Y5662601D1*
X11440118Y5686859D1*
Y5701459D1*
X11445059Y5725718D1*
X11454718Y5740318D1*
X11469318Y5745147D1*
X11478976D1*
X11445059Y5725718D2*
X11503347Y5662601D1*
X11408745Y5725718D2*
X11398974Y5730659D1*
X11384374Y5745147D1*
Y5643172D1*
X12427270Y5696630D2*
X12383582D1*
X12368982Y5701572D1*
X12364040Y5706401D1*
X12359211Y5716059D1*
Y5725830D1*
X12364040Y5735489D1*
X12368982Y5740430D1*
X12383582Y5745259D1*
X12427270D1*
Y5643172D1*
X12393240Y5696630D2*
X12359211Y5643172D1*
X12303580Y5745147D2*
X12318068Y5740318D1*
X12323009Y5730659D1*
Y5720889D1*
X12318068Y5711230D1*
X12308409Y5706289D1*
X12288980Y5701459D1*
X12274380Y5696630D1*
X12264722Y5686859D1*
X12259892Y5677201D1*
Y5662601D1*
X12264722Y5652942D1*
X12269551Y5648001D1*
X12284151Y5643172D1*
X12303580D1*
X12318068Y5648001D1*
X12323009Y5652942D1*
X12327839Y5662601D1*
Y5677201D1*
X12323009Y5686859D1*
X12313239Y5696630D1*
X12298751Y5701459D1*
X12279322Y5706289D1*
X12269551Y5711230D1*
X12264722Y5720889D1*
Y5730659D1*
X12269551Y5740318D1*
X12284151Y5745147D1*
X12303580D1*
X12199320D2*
X12213920Y5740318D1*
X12223691Y5725718D1*
X12228520Y5701459D1*
Y5686859D1*
X12223691Y5662601D1*
X12213920Y5648001D1*
X12199320Y5643172D1*
X12189661D1*
X12175061Y5648001D1*
X12165403Y5662601D1*
X12160461Y5686859D1*
Y5701459D1*
X12165403Y5725718D1*
X12175061Y5740318D1*
X12189661Y5745147D1*
X12199320D1*
X12165403Y5725718D2*
X12223691Y5662601D1*
X12124147Y5720889D2*
Y5725718D1*
X12119318Y5735489D1*
X12114489Y5740318D1*
X12104718Y5745147D1*
X12085289D1*
X12075630Y5740318D1*
X12070801Y5735489D1*
X12065860Y5725718D1*
Y5716059D1*
X12070801Y5706289D1*
X12080460Y5691801D1*
X12129089Y5643172D1*
X12061030D1*
X22105768Y3381976D2*
Y3425664D1*
X22110710Y3440264D1*
X22115539Y3445205D1*
X22125198Y3450035D1*
X22134968D1*
X22144627Y3445205D1*
X22149568Y3440264D1*
X22154398Y3425664D1*
Y3381976D1*
X22052310D1*
X22105768Y3416005D2*
X22052310Y3450035D1*
X22120368Y3544636D2*
X22105768Y3539695D1*
X22095998Y3530036D1*
X22091168Y3515436D1*
Y3510607D1*
X22095998Y3496007D1*
X22105768Y3486349D1*
X22120368Y3481407D1*
X22125198D1*
X22139798Y3486349D1*
X22149456Y3496007D1*
X22154285Y3510607D1*
Y3515436D1*
X22149456Y3530036D1*
X22139798Y3539695D1*
X22120368Y3544636D1*
X22095998D1*
X22071739Y3539695D1*
X22057139Y3530036D1*
X22052310Y3515436D1*
Y3505778D1*
X22057139Y3491178D1*
X22066910Y3486349D1*
X22154285Y3605209D2*
X22149456Y3590609D1*
X22134856Y3580838D1*
X22110598Y3576009D1*
X22095998D1*
X22071739Y3580838D1*
X22057139Y3590609D1*
X22052310Y3605209D1*
Y3614867D1*
X22057139Y3629467D1*
X22071739Y3639126D1*
X22095998Y3644067D1*
X22110598D1*
X22134856Y3639126D1*
X22149456Y3629467D1*
X22154285Y3614867D1*
Y3605209D1*
X22134856Y3639126D2*
X22071739Y3580838D1*
X22134856Y3675440D2*
X22139798Y3685211D1*
X22154285Y3699811D1*
X22052310D1*
X20256323Y3705779D2*
Y3662092D1*
X20251382Y3647492D1*
X20246553Y3642550D1*
X20236894Y3637721D1*
X20227123D1*
X20217465Y3642550D1*
X20212523Y3647492D1*
X20207694Y3662092D1*
Y3705779D1*
X20309782D1*
X20256323Y3671750D2*
X20309782Y3637721D1*
X20241723Y3543119D2*
X20256323Y3548061D1*
X20266094Y3557719D1*
X20270923Y3572319D1*
Y3577148D1*
X20266094Y3591748D1*
X20256323Y3601407D1*
X20241723Y3606348D1*
X20236894D1*
X20222294Y3601407D1*
X20212636Y3591748D1*
X20207806Y3577148D1*
Y3572319D1*
X20212636Y3557719D1*
X20222294Y3548061D1*
X20241723Y3543119D1*
X20266094D1*
X20290353Y3548061D1*
X20304953Y3557719D1*
X20309782Y3572319D1*
Y3581978D1*
X20304953Y3596578D1*
X20295182Y3601407D1*
X20207806Y3482547D2*
X20212636Y3497147D1*
X20227236Y3506917D1*
X20251494Y3511747D1*
X20266094D1*
X20290353Y3506917D1*
X20304953Y3497147D1*
X20309782Y3482547D1*
Y3472888D1*
X20304953Y3458288D1*
X20290353Y3448630D1*
X20266094Y3443688D1*
X20251494D1*
X20227236Y3448630D1*
X20212636Y3458288D1*
X20207806Y3472888D1*
Y3482547D1*
X20227236Y3448630D2*
X20290353Y3506917D1*
X20232065Y3407374D2*
X20227236D1*
X20217465Y3402545D1*
X20212636Y3397716D1*
X20207806Y3387945D1*
Y3368516D1*
X20212636Y3358857D1*
X20217465Y3354028D1*
X20227236Y3349086D1*
X20236894D1*
X20246665Y3354028D1*
X20261153Y3363686D1*
X20309782Y3412316D1*
Y3344257D1*
X22645518Y2518757D2*
Y2562445D1*
X22650460Y2577045D1*
X22655289Y2581986D1*
X22664948Y2586816D1*
X22674718D1*
X22684377Y2581986D1*
X22689318Y2577045D1*
X22694148Y2562445D1*
Y2518757D1*
X22592060D1*
X22645518Y2552786D2*
X22592060Y2586816D1*
X22660118Y2681417D2*
X22645518Y2676476D1*
X22635748Y2666817D1*
X22630918Y2652217D1*
Y2647388D1*
X22635748Y2632788D1*
X22645518Y2623130D1*
X22660118Y2618188D1*
X22664948D1*
X22679548Y2623130D1*
X22689206Y2632788D1*
X22694035Y2647388D1*
Y2652217D1*
X22689206Y2666817D1*
X22679548Y2676476D1*
X22660118Y2681417D1*
X22635748D1*
X22611489Y2676476D1*
X22596889Y2666817D1*
X22592060Y2652217D1*
Y2642559D1*
X22596889Y2627959D1*
X22606660Y2623130D1*
X22694035Y2741990D2*
X22689206Y2727390D1*
X22674606Y2717619D1*
X22650348Y2712790D1*
X22635748D1*
X22611489Y2717619D1*
X22596889Y2727390D1*
X22592060Y2741990D1*
Y2751648D1*
X22596889Y2766248D1*
X22611489Y2775907D1*
X22635748Y2780848D1*
X22650348D1*
X22674606Y2775907D1*
X22689206Y2766248D1*
X22694035Y2751648D1*
Y2741990D1*
X22674606Y2775907D2*
X22611489Y2717619D1*
X22694035Y2821992D2*
Y2875338D1*
X22655177Y2846250D1*
Y2860850D1*
X22650348Y2870509D1*
X22645518Y2875338D1*
X22630918Y2880279D1*
X22621260D1*
X22606660Y2875338D1*
X22596889Y2865679D1*
X22592060Y2851079D1*
Y2836479D1*
X22596889Y2821992D1*
X22601831Y2817163D1*
X22611489Y2812221D1*
X20724643Y2405218D2*
Y2448905D1*
X20729585Y2463505D1*
X20734414Y2468447D1*
X20744073Y2473276D1*
X20753843D1*
X20763502Y2468447D1*
X20768443Y2463505D1*
X20773273Y2448905D1*
Y2405218D1*
X20671185D1*
X20724643Y2439247D2*
X20671185Y2473276D1*
X20739243Y2567878D2*
X20724643Y2562936D1*
X20714873Y2553278D1*
X20710043Y2538678D1*
Y2533849D1*
X20714873Y2519249D1*
X20724643Y2509590D1*
X20739243Y2504649D1*
X20744073D1*
X20758673Y2509590D1*
X20768331Y2519249D1*
X20773160Y2533849D1*
Y2538678D1*
X20768331Y2553278D1*
X20758673Y2562936D1*
X20739243Y2567878D1*
X20714873D1*
X20690614Y2562936D1*
X20676014Y2553278D1*
X20671185Y2538678D1*
Y2529019D1*
X20676014Y2514419D1*
X20685785Y2509590D1*
X20773160Y2628450D2*
X20768331Y2613850D1*
X20753731Y2604080D1*
X20729473Y2599250D1*
X20714873D1*
X20690614Y2604080D1*
X20676014Y2613850D1*
X20671185Y2628450D1*
Y2638109D1*
X20676014Y2652709D1*
X20690614Y2662367D1*
X20714873Y2667309D1*
X20729473D1*
X20753731Y2662367D1*
X20768331Y2652709D1*
X20773160Y2638109D1*
Y2628450D1*
X20753731Y2662367D2*
X20690614Y2604080D1*
X20671185Y2747311D2*
X20773160D1*
X20705214Y2698681D1*
Y2771569D1*
X19838120Y5346678D2*
X19794433D1*
X19779833Y5351620D1*
X19774891Y5356449D1*
X19770062Y5366108D1*
Y5375878D1*
X19774891Y5385537D1*
X19779833Y5390478D1*
X19794433Y5395308D1*
X19838120D1*
Y5293220D1*
X19804091Y5346678D2*
X19770062Y5293220D1*
X19675460Y5361278D2*
X19680402Y5346678D1*
X19690060Y5336908D1*
X19704660Y5332078D1*
X19709489D1*
X19724089Y5336908D1*
X19733748Y5346678D1*
X19738689Y5361278D1*
Y5366108D1*
X19733748Y5380708D1*
X19724089Y5390366D1*
X19709489Y5395195D1*
X19704660D1*
X19690060Y5390366D1*
X19680402Y5380708D1*
X19675460Y5361278D1*
Y5336908D1*
X19680402Y5312649D1*
X19690060Y5298049D1*
X19704660Y5293220D1*
X19714319D1*
X19728919Y5298049D1*
X19733748Y5307820D1*
X19614888Y5395195D2*
X19629488Y5390366D1*
X19639258Y5375766D1*
X19644088Y5351508D1*
Y5336908D1*
X19639258Y5312649D1*
X19629488Y5298049D1*
X19614888Y5293220D1*
X19605229D1*
X19590629Y5298049D1*
X19580971Y5312649D1*
X19576029Y5336908D1*
Y5351508D1*
X19580971Y5375766D1*
X19590629Y5390366D1*
X19605229Y5395195D1*
X19614888D1*
X19580971Y5375766D2*
X19639258Y5312649D1*
X19486369Y5395195D2*
X19534886D1*
X19539715Y5351508D1*
X19534886Y5356337D1*
X19520286Y5361278D1*
X19505798D1*
X19491198Y5356337D1*
X19481427Y5346678D1*
X19476598Y5332078D1*
Y5322420D1*
X19481427Y5307820D1*
X19491198Y5298049D1*
X19505798Y5293220D1*
X19520286D1*
X19534886Y5298049D1*
X19539715Y5302991D1*
X19544657Y5312649D1*
X19420855Y5373351D2*
Y5315064D1*
X19445226Y5358864D2*
X19396596Y5329664D1*
Y5358864D2*
X19445226Y5329664D1*
X4769369Y2931489D2*
Y2858602D1*
X4764539Y2844002D1*
X4754769Y2834343D1*
X4740169Y2829402D1*
X4730510D1*
X4715910Y2834343D1*
X4706139Y2844002D1*
X4701310Y2858602D1*
Y2931489D1*
X4669938Y2911948D2*
X4660167Y2916889D1*
X4645567Y2931377D1*
Y2829402D1*
X4584994Y2931377D2*
X4599594Y2926548D1*
X4609365Y2911948D1*
X4614194Y2887689D1*
Y2873089D1*
X4609365Y2848831D1*
X4599594Y2834231D1*
X4584994Y2829402D1*
X4575336D1*
X4560736Y2834231D1*
X4551077Y2848831D1*
X4546136Y2873089D1*
Y2887689D1*
X4551077Y2911948D1*
X4560736Y2926548D1*
X4575336Y2931377D1*
X4584994D1*
X4551077Y2911948D2*
X4609365Y2848831D1*
X4456476Y2931377D2*
X4504992D1*
X4509822Y2887689D1*
X4504992Y2892519D1*
X4490392Y2897460D1*
X4475905D1*
X4461305Y2892519D1*
X4451534Y2882860D1*
X4446705Y2868260D1*
Y2858602D1*
X4451534Y2844002D1*
X4461305Y2834231D1*
X4475905Y2829402D1*
X4490392D1*
X4504992Y2834231D1*
X4509822Y2839172D1*
X4514763Y2848831D1*
X15556537Y2819966D2*
Y2747078D1*
X15551707Y2732478D1*
X15541937Y2722820D1*
X15527337Y2717878D1*
X15517678D1*
X15503078Y2722820D1*
X15493307Y2732478D1*
X15488478Y2747078D1*
Y2819966D1*
X15408476Y2717878D2*
Y2819854D1*
X15457106Y2751907D1*
X15384218D1*
X15323645Y2819854D2*
X15338245Y2815024D1*
X15348016Y2800424D1*
X15352845Y2776166D1*
Y2761566D1*
X15348016Y2737307D1*
X15338245Y2722707D1*
X15323645Y2717878D1*
X15313987D1*
X15299387Y2722707D1*
X15289728Y2737307D1*
X15284787Y2761566D1*
Y2776166D1*
X15289728Y2800424D1*
X15299387Y2815024D1*
X15313987Y2819854D1*
X15323645D1*
X15289728Y2800424D2*
X15348016Y2737307D1*
X15253414Y2800424D2*
X15243643Y2805366D1*
X15229043Y2819854D1*
Y2717878D1*
X8486422Y5051089D2*
Y4978202D1*
X8481593Y4963602D1*
X8471822Y4953943D1*
X8457222Y4949002D1*
X8447563D1*
X8432963Y4953943D1*
X8423193Y4963602D1*
X8418363Y4978202D1*
Y5051089D1*
X8328703Y5050977D2*
X8377220D1*
X8382049Y5007289D1*
X8377220Y5012119D1*
X8362620Y5017060D1*
X8348132D1*
X8333532Y5012119D1*
X8323762Y5002460D1*
X8318932Y4987860D1*
Y4978202D1*
X8323762Y4963602D1*
X8333532Y4953831D1*
X8348132Y4949002D1*
X8362620D1*
X8377220Y4953831D1*
X8382049Y4958772D1*
X8386991Y4968431D1*
X8258360Y5050977D2*
X8272960Y5046148D1*
X8282731Y5031548D1*
X8287560Y5007289D1*
Y4992689D1*
X8282731Y4968431D1*
X8272960Y4953831D1*
X8258360Y4949002D1*
X8248701D1*
X8234101Y4953831D1*
X8224443Y4968431D1*
X8219501Y4992689D1*
Y5007289D1*
X8224443Y5031548D1*
X8234101Y5046148D1*
X8248701Y5050977D1*
X8258360D1*
X8224443Y5031548D2*
X8282731Y4968431D1*
X8188129Y5031548D2*
X8178358Y5036489D1*
X8163758Y5050977D1*
Y4949002D1*
X15939653Y5167040D2*
D110*
X16143829D1*
X15939653Y5303157D1*
X16143829D1*
X16036912Y5104295D2*
Y5016920D1*
X16027029Y4987720D1*
X16017370Y4977837D1*
X15998053Y4968178D1*
X15978512D1*
X15959195Y4977837D1*
X15949312Y4987720D1*
X15939653Y5016920D1*
Y5104295D1*
X16143829D1*
X16036912Y5036237D2*
X16143829Y4968178D1*
X15939653Y4778975D2*
Y4905433D1*
X16143829D1*
X16036912D2*
Y4827716D1*
X15988395Y4706346D2*
X15978737D1*
X15959195Y4696688D1*
X15949537Y4687029D1*
X15939878Y4667488D1*
Y4628629D1*
X15949537Y4609313D1*
X15959195Y4599654D1*
X15978737Y4589771D1*
X15998053D1*
X16017595Y4599654D1*
X16046570Y4618971D1*
X16143829Y4716229D1*
Y4580113D1*
Y4420109D2*
X15939878D1*
X16075770Y4517367D1*
Y4371592D1*
X16474194Y5773183D2*
D107*
Y5700295D1*
X16469365Y5685695D1*
X16459594Y5676036D1*
X16444994Y5671095D1*
X16435336D1*
X16420736Y5676036D1*
X16410965Y5685695D1*
X16406136Y5700295D1*
Y5773183D1*
X16316476Y5758583D2*
X16321305Y5768241D1*
X16335905Y5773070D1*
X16345563D1*
X16360163Y5768241D1*
X16369934Y5753641D1*
X16374763Y5729383D1*
Y5705124D1*
X16369934Y5685695D1*
X16360163Y5675924D1*
X16345563Y5671095D1*
X16340734D1*
X16326247Y5675924D1*
X16316476Y5685695D1*
X16311647Y5700295D1*
Y5705124D1*
X16316476Y5719724D1*
X16326247Y5729383D1*
X16340734Y5734212D1*
X16345563D1*
X16360163Y5729383D1*
X16369934Y5719724D1*
X16374763Y5705124D1*
X16251074Y5773070D2*
X16265674Y5768241D1*
X16275445Y5753641D1*
X16280274Y5729383D1*
Y5714783D1*
X16275445Y5690524D1*
X16265674Y5675924D1*
X16251074Y5671095D1*
X16241416D1*
X16226816Y5675924D1*
X16217157Y5690524D1*
X16212216Y5714783D1*
Y5729383D1*
X16217157Y5753641D1*
X16226816Y5768241D1*
X16241416Y5773070D1*
X16251074D1*
X16217157Y5753641D2*
X16275445Y5690524D1*
X16180843Y5753641D2*
X16171072Y5758583D1*
X16156472Y5773070D1*
Y5671095D1*
X18178694Y3363811D2*
X18251582D1*
X18266182Y3358981D1*
X18275840Y3349211D1*
X18280782Y3334611D1*
Y3324952D1*
X18275840Y3310352D1*
X18266182Y3300581D1*
X18251582Y3295752D1*
X18178694D1*
X18212723Y3201150D2*
X18227323Y3206092D1*
X18237094Y3215750D1*
X18241923Y3230350D1*
Y3235180D1*
X18237094Y3249780D1*
X18227323Y3259438D1*
X18212723Y3264380D1*
X18207894D1*
X18193294Y3259438D1*
X18183636Y3249780D1*
X18178806Y3235180D1*
Y3230350D1*
X18183636Y3215750D1*
X18193294Y3206092D1*
X18212723Y3201150D1*
X18237094D1*
X18261353Y3206092D1*
X18275953Y3215750D1*
X18280782Y3230350D1*
Y3240009D1*
X18275953Y3254609D1*
X18266182Y3259438D1*
X18178806Y3140578D2*
X18183636Y3155178D1*
X18198236Y3164949D1*
X18222494Y3169778D1*
X18237094D1*
X18261353Y3164949D1*
X18275953Y3155178D1*
X18280782Y3140578D1*
Y3130919D1*
X18275953Y3116319D1*
X18261353Y3106661D1*
X18237094Y3101719D1*
X18222494D1*
X18198236Y3106661D1*
X18183636Y3116319D1*
X18178806Y3130919D1*
Y3140578D1*
X18198236Y3106661D2*
X18261353Y3164949D1*
X18198236Y3070347D2*
X18193294Y3060576D1*
X18178806Y3045976D1*
X18280782D1*
M02*
