G04 DipTrace 5.1.0.1*
G04 Нижняграфіка.gbr*
%MOMM*%
G04 #@! TF.FileFunction,Drawing,Bot*
G04 #@! TF.Part,Single*
%ADD13C,0.12*%
%ADD41C,0.15233*%
%ADD47C,0.127*%
%ADD109C,0.07843*%
%FSLAX35Y35*%
G04*
G71*
G90*
G75*
G01*
G04 BotAssy*
%LPD*%
X16939233Y6550400D2*
D13*
X15723233D1*
X9280233Y1875350D2*
Y1699350D1*
X9616233D1*
Y1875350D1*
X9280233D1*
X9459858Y5405518D2*
Y5581518D1*
X9123858D1*
Y5405518D1*
X9459858D1*
X6232380Y4183630D2*
Y4007630D1*
X6568380D1*
Y4183630D1*
X6232380D1*
X5182377Y3994000D2*
X5358377D1*
Y4330000D1*
X5182377D1*
Y3994000D1*
X16180800Y2941930D2*
X16356800D1*
Y3277930D1*
X16180800D1*
Y2941930D1*
X14384870Y3406080D2*
Y3230080D1*
X14720870D1*
Y3406080D1*
X14384870D1*
X15111630Y3290040D2*
Y3114040D1*
X15447630D1*
Y3290040D1*
X15111630D1*
X10807690Y5131120D2*
Y5307120D1*
X10471690D1*
Y5131120D1*
X10807690D1*
X11713650Y5433470D2*
Y5609470D1*
X11377650D1*
Y5433470D1*
X11713650D1*
X12412150D2*
Y5609470D1*
X12076150D1*
Y5433470D1*
X12412150D1*
X21959608Y3708893D2*
X21783608D1*
Y3372893D1*
X21959608D1*
Y3708893D1*
X20402483Y3357018D2*
X20578483D1*
Y3693018D1*
X20402483D1*
Y3357018D1*
X22499358Y2867518D2*
X22323358D1*
Y2531518D1*
X22499358D1*
Y2867518D1*
X20578483Y2756393D2*
X20402483D1*
Y2420393D1*
X20578483D1*
Y2756393D1*
X19449358Y5200518D2*
Y5024518D1*
X19785358D1*
Y5200518D1*
X19449358D1*
X9338557Y3927333D2*
D41*
X9381723D1*
Y3820667D1*
X9338557D1*
Y3927333D1*
X9257257D2*
X9302990D1*
Y3820667D1*
X9257257D1*
Y3927333D1*
X9178523D2*
X9221723D1*
Y3820667D1*
X9178523D1*
Y3927333D1*
X9097257D2*
X9142957D1*
Y3820667D1*
X9097257D1*
Y3927333D1*
X9018523D2*
X9061690D1*
Y3820667D1*
X9018523D1*
Y3927333D1*
X8937223D2*
X8982957D1*
Y3820667D1*
X8937223D1*
Y3927333D1*
X8858490D2*
X8901657D1*
Y3820667D1*
X8858490D1*
Y3927333D1*
X8777223D2*
X8822923D1*
Y3820667D1*
X8777223D1*
Y3927333D1*
X8698457D2*
X8741657D1*
Y3820667D1*
X8698457D1*
Y3927333D1*
X8617190D2*
X8662923D1*
Y3820667D1*
X8617190D1*
Y3927333D1*
X8538457D2*
X8581623D1*
Y3820667D1*
X8538457D1*
Y3927333D1*
X8454623Y4054333D2*
Y4011167D1*
X8347957D1*
Y4054333D1*
X8454623D1*
Y4135633D2*
Y4089900D1*
X8347957D1*
Y4135633D1*
X8454623D1*
Y4214367D2*
Y4171167D1*
X8347957D1*
Y4214367D1*
X8454623D1*
Y4295633D2*
Y4249933D1*
X8347957D1*
Y4295633D1*
X8454623D1*
Y4374367D2*
Y4331200D1*
X8347957D1*
Y4374367D1*
X8454623D1*
Y4455667D2*
Y4409933D1*
X8347957D1*
Y4455667D1*
X8454623D1*
Y4534400D2*
Y4491233D1*
X8347957D1*
Y4534400D1*
X8454623D1*
Y4615667D2*
Y4569967D1*
X8347957D1*
Y4615667D1*
X8454623D1*
Y4694433D2*
Y4651233D1*
X8347957D1*
Y4694433D1*
X8454623D1*
Y4775700D2*
Y4729967D1*
X8347957D1*
Y4775700D1*
X8454623D1*
Y4854433D2*
Y4811267D1*
X8347957D1*
Y4854433D1*
X8454623D1*
X8581623Y4938267D2*
X8538457D1*
Y5044933D1*
X8581623D1*
Y4938267D1*
X8662923D2*
X8617190D1*
Y5044933D1*
X8662923D1*
Y4938267D1*
X8741657D2*
X8698457D1*
Y5044933D1*
X8741657D1*
Y4938267D1*
X8822923D2*
X8777223D1*
Y5044933D1*
X8822923D1*
Y4938267D1*
X8901657D2*
X8858490D1*
Y5044933D1*
X8901657D1*
Y4938267D1*
X8982957D2*
X8937223D1*
Y5044933D1*
X8982957D1*
Y4938267D1*
X9061690D2*
X9018523D1*
Y5044933D1*
X9061690D1*
Y4938267D1*
X9142957D2*
X9097257D1*
Y5044933D1*
X9142957D1*
Y4938267D1*
X9221723D2*
X9178523D1*
Y5044933D1*
X9221723D1*
Y4938267D1*
X9302990D2*
X9257257D1*
Y5044933D1*
X9302990D1*
Y4938267D1*
X9381723D2*
X9338557D1*
Y5044933D1*
X9381723D1*
Y4938267D1*
X9465557Y4811267D2*
Y4854433D1*
X9572223D1*
Y4811267D1*
X9465557D1*
Y4729967D2*
Y4775700D1*
X9572223D1*
Y4729967D1*
X9465557D1*
Y4651233D2*
Y4694433D1*
X9572223D1*
Y4651233D1*
X9465557D1*
Y4569967D2*
Y4615667D1*
X9572223D1*
Y4569967D1*
X9465557D1*
Y4491233D2*
Y4534400D1*
X9572223D1*
Y4491233D1*
X9465557D1*
Y4409933D2*
Y4455667D1*
X9572223D1*
Y4409933D1*
X9465557D1*
Y4331200D2*
Y4374367D1*
X9572223D1*
Y4331200D1*
X9465557D1*
Y4249933D2*
Y4295633D1*
X9572223D1*
Y4249933D1*
X9465557D1*
Y4171167D2*
Y4214367D1*
X9572223D1*
Y4171167D1*
X9465557D1*
Y4089900D2*
Y4135633D1*
X9572223D1*
Y4089900D1*
X9465557D1*
Y4011167D2*
Y4054333D1*
X9572223D1*
Y4011167D1*
X9465557D1*
X8454623Y4054333D2*
X8581623Y3927333D1*
X8454623Y4938267D2*
X9465557D1*
Y3927333D1*
X8454623D1*
Y4938267D1*
X24152483Y4709893D2*
D47*
X18352483D1*
Y1609893D1*
X24152483D1*
Y4709893D1*
G36*
X19474483Y4764893D2*
X19471873Y4765064D1*
X19469307Y4765575D1*
X19466830Y4766416D1*
X19464483Y4767573D1*
X19462308Y4769026D1*
X19460341Y4770751D1*
X19458616Y4772718D1*
X19457163Y4774893D1*
X19456006Y4777240D1*
X19455165Y4779717D1*
X19454654Y4782283D1*
X19454483Y4784893D1*
X19454654Y4787504D1*
X19455165Y4790070D1*
X19456006Y4792547D1*
X19457163Y4794893D1*
X19458616Y4797069D1*
X19460341Y4799035D1*
X19462308Y4800760D1*
X19464483Y4802214D1*
X19466830Y4803371D1*
X19469307Y4804212D1*
X19471873Y4804722D1*
X19474483Y4804893D1*
D1*
X19477094Y4804722D1*
X19479660Y4804212D1*
X19482137Y4803371D1*
X19484483Y4802214D1*
X19486659Y4800760D1*
X19488625Y4799035D1*
X19490350Y4797069D1*
X19491804Y4794893D1*
X19492961Y4792547D1*
X19493802Y4790070D1*
X19494312Y4787504D1*
X19494483Y4784893D1*
X19494312Y4782283D1*
X19493802Y4779717D1*
X19492961Y4777240D1*
X19491804Y4774893D1*
X19490350Y4772718D1*
X19488625Y4770751D1*
X19486659Y4769026D1*
X19484483Y4767573D1*
X19482137Y4766416D1*
X19479660Y4765575D1*
X19477094Y4765064D1*
X19474483Y4764893D1*
D1*
G37*
X24152483Y2778893D2*
D47*
X24292483D1*
Y3540893D1*
X24152483D1*
X16583765Y6635163D2*
D109*
Y6584119D1*
X16561865D1*
X16554565Y6586590D1*
X16552150Y6589005D1*
X16549736Y6593834D1*
Y6601134D1*
X16552150Y6606019D1*
X16554565Y6608434D1*
X16561865Y6610849D1*
X16554565Y6613319D1*
X16552150Y6615734D1*
X16549736Y6620563D1*
Y6625449D1*
X16552150Y6630278D1*
X16554565Y6632749D1*
X16561865Y6635163D1*
X16583765D1*
Y6610849D2*
X16561865D1*
X16519450Y6635163D2*
X16524335Y6632749D1*
X16529164Y6627863D1*
X16531635Y6623034D1*
X16534050Y6615734D1*
Y6603549D1*
X16531635Y6596305D1*
X16529164Y6591419D1*
X16524335Y6586590D1*
X16519450Y6584119D1*
X16509735D1*
X16504906Y6586590D1*
X16500020Y6591419D1*
X16497606Y6596305D1*
X16495191Y6603549D1*
Y6615734D1*
X16497606Y6623034D1*
X16500020Y6627863D1*
X16504906Y6632749D1*
X16509735Y6635163D1*
X16519450D1*
X16440590Y6584119D2*
X16460076Y6635163D1*
X16479505Y6584119D1*
X16472205Y6601134D2*
X16447890D1*
X16424904Y6610849D2*
X16403060D1*
X16395760Y6613319D1*
X16393289Y6615734D1*
X16390875Y6620563D1*
Y6625449D1*
X16393289Y6630278D1*
X16395760Y6632749D1*
X16403060Y6635163D1*
X16424904D1*
Y6584119D1*
X16407889Y6610849D2*
X16390875Y6584119D1*
X16375188Y6635163D2*
Y6584119D1*
X16358174D1*
X16350874Y6586590D1*
X16345988Y6591419D1*
X16343574Y6596305D1*
X16341159Y6603549D1*
Y6615734D1*
X16343574Y6623034D1*
X16345988Y6627863D1*
X16350874Y6632749D1*
X16358174Y6635163D1*
X16375188D1*
X16244536D2*
X16276094D1*
Y6584119D1*
X16244536D1*
X16276094Y6610849D2*
X16256665D1*
X16228850Y6635163D2*
Y6584119D1*
X16211835D1*
X16204535Y6586590D1*
X16199650Y6591419D1*
X16197235Y6596305D1*
X16194820Y6603549D1*
Y6615734D1*
X16197235Y6623034D1*
X16199650Y6627863D1*
X16204535Y6632749D1*
X16211835Y6635163D1*
X16228850D1*
X16142690Y6623034D2*
X16145105Y6627863D1*
X16149990Y6632749D1*
X16154820Y6635163D1*
X16164534D1*
X16169420Y6632749D1*
X16174249Y6627863D1*
X16176720Y6623034D1*
X16179134Y6615734D1*
Y6603549D1*
X16176720Y6596305D1*
X16174249Y6591419D1*
X16169420Y6586590D1*
X16164534Y6584119D1*
X16154820D1*
X16149990Y6586590D1*
X16145105Y6591419D1*
X16142690Y6596305D1*
Y6603549D1*
X16154820D1*
X16095446Y6635163D2*
X16127004D1*
Y6584119D1*
X16095446D1*
X16127004Y6610849D2*
X16107575D1*
M02*
