M48
INCH
T01C0.032
T02C0.0354
T03C0.0394
T04C0.0433
T05C0.0461
T06C0.0512
T07C0.0551
T08C0.0591
T09C0.128
%
T01
X+042559Y+014078
X+040659Y+014078
T02
X+028250Y+011376
X+027250Y+011376
X+026250Y+011376
X+025250Y+011376
X+033796Y+024191
X+034796Y+024191
T03
X+020815Y+019562
X+023374Y+019562
X+022736Y+025699
X+024508Y+025699
X+028642Y+025699
X+030413Y+025699
X+018602Y+025699
X+016831Y+025699
X+012697Y+025699
X+010925Y+025699
X+005546Y+025378
X+005546Y+005128
X+051234Y+021753
X+052234Y+021753
X+053234Y+021753
X+054234Y+021753
X+055234Y+021753
X+056234Y+021753
X+058796Y+019691
X+058796Y+018691
X+058796Y+017691
X+058796Y+016691
X+059796Y+016691
X+059796Y+017691
X+059796Y+018691
X+059796Y+019691
X+076671Y+017952
X+077671Y+017952
X+078671Y+017952
X+079671Y+017952
X+080671Y+017952
X+081671Y+017952
X+082671Y+017952
X+083671Y+017952
X+084671Y+017952
X+085671Y+017952
X+086671Y+017952
X+087671Y+017952
X+088671Y+017952
X+089671Y+017952
X+090671Y+017952
X+096546Y+025378
X+090671Y+006929
X+089671Y+006929
X+088671Y+006929
X+087671Y+006929
X+086671Y+006929
X+085671Y+006929
X+084671Y+006929
X+083671Y+006929
X+082671Y+006929
X+081671Y+006929
X+080671Y+006929
X+079671Y+006929
X+078671Y+006929
X+077671Y+006929
X+076671Y+006929
X+096546Y+005128
T04
X+042171Y+023812
X+041171Y+023812
X+040171Y+023812
X+039171Y+023812
X+038171Y+023812
X+062796Y+025191
X+063796Y+025191
X+064796Y+025191
X+065796Y+025191
T05
X+053295Y+009253
T06
X+010433Y+024715
X+013189Y+024715
X+016339Y+024715
X+019094Y+024715
X+022244Y+024715
X+025000Y+024715
X+028150Y+024715
X+030906Y+024715
T07
X+024790Y+005302
X+026168Y+005302
X+027546Y+005302
X+028924Y+005302
X+030302Y+005302
T08
X+045421Y+009253
T09
X+093907Y+017362
X+093907Y+007519
X+073435Y+007519
X+073435Y+017362
T00
M30
