M48
;FILE_FORMAT=3:3
METRIC,LZ
T1C1.2
T2C1.4
T3C1
T4C1.3
T5C1.1
T6C3
T7C0.9
T8C2
T9C0.7
;TYPE=PLATED
%
T1
X210488Y019797
X133742Y-002095
X129891Y-001013
X128748Y-010343
X128979Y-005676
X056486Y-012029
X051927Y-003448
X053845Y-010211
X061937Y002302
X059297Y005518
X072404Y-011477
X064763Y001769
X070128Y-006914
X065756Y-006426
X071967Y-002201
X071722Y010699
X085246Y022561
X096568Y021838
X091619Y024164
X066933Y022366
X060167Y-013892
X076773Y-009874
X071547Y021877
X076147Y011919
X086724Y018412
X082865Y-007131
X075759Y006009
X042149Y018562
X060741Y019977
X052202Y013189
X046847Y-003448
X049387Y-003448
X044307Y-003448
X063489Y012883
X033447Y024360
X032616Y-011361
X025342Y024831
X110403Y011626
X176905Y024355
X207073Y-007031
X199970Y-001025
X206500Y007136
X106848Y012055
X102862Y013345
X090974Y-001297
X074597Y-013226
X135731Y013178
X135731Y018258
X116889Y029088
X138271Y015718
X138271Y013178
X138271Y018258
X135731Y015718
X138271Y010638
X144711Y-001033
X135731Y010638
T2
X063356Y-018288
X052856Y-018288
X049356Y-018288
X059856Y-018288
X056356Y-018288
T3
X150812Y030799
X090964Y028727
X093504Y028727
X085884Y028727
X088424Y028727
X083344Y028727
X145732Y030799
X148272Y030799
X143192Y030799
X023010Y014766
X016510Y014766
X018639Y033519
X014139Y033519
X033639Y033519
X029139Y033519
X048639Y033519
X044139Y033519
X063639Y033519
X059139Y033519
T4
X101759Y-008252
T5
X121759Y-008252
X019889Y031019
X012889Y031019
X034889Y031019
X027889Y031019
X049889Y031019
X042889Y031019
X064889Y031019
X057889Y031019
T6
X231616Y032705
X000476Y-018729
X000476Y032705
X231616Y-018729
T7
X076631Y028403
X074091Y028403
X119062Y023497
X116522Y023497
X124142Y023497
X121602Y023497
X129222Y023496
X126682Y023496
X183674Y013843
X181134Y013843
X201454Y013843
X198914Y013843
X211614Y013843
X209074Y013843
X214154Y013843
X216694Y013843
X209074Y-014156
X211614Y-014156
X203994Y-014156
X206534Y-014156
X198914Y-014156
X201454Y-014156
X191294Y-014156
X188754Y-014156
X186214Y-014156
X183674Y-014156
X181134Y-014156
X188754Y013843
X186214Y013843
X193834Y013843
X191294Y013843
X196374Y013843
X206534Y013843
X203994Y013843
X214154Y-014156
X216694Y-014156
X193834Y-014156
X196374Y-014156
T8
X224914Y012343
X172914Y-012656
X172914Y012343
X224914Y-012656
T9
X094383Y001525
X089557Y001525
T00
M30
