%FSLAX44Y44*%
%OFA0.0000B0.0000*%
%SFA1B1*%
%MOMM*%
%AMFRECTNOHOLE10*
21,1,2.3000,2.3000,0.0000,0.0000,0*
%
%AMFRECTNOHOLE11*
21,1,1.7000,1.7000,0.0000,0.0000,0*
%
%AMFRECTNOHOLE12*
21,1,2.2000,2.2000,0.0000,0.0000,0*
%
%AMFRECTNOHOLE13*
21,1,1.6000,1.6000,0.0000,0.0000,0*
%
%AMFRECTNOHOLE14*
21,1,1.5000,1.5000,0.0000,0.0000,0*
%
%ADD10FRECTNOHOLE10*%
%ADD11FRECTNOHOLE11*%
%ADD12FRECTNOHOLE12*%
%ADD13FRECTNOHOLE13*%
%ADD14FRECTNOHOLE14*%
%ADD15C,0.7620X0.0000*%
%ADD16C,0.5000X0.0000*%
%ADD17C,0.4000X0.0000*%
%ADD18C,2.0000X0.0000*%
%ADD19C,0.0000X0.0000*%
%ADD20C,2.3000X0.0000*%
%ADD21C,1.7000X0.0000*%
%ADD22C,1.9000X0.0000*%
%ADD23C,1.6000X0.0000*%
%ADD24C,5.0000X0.0000*%
%ADD25C,1.5000X0.0000*%
%ADD26C,1.8000X0.0000*%
%ADD27C,3.2500X0.0000*%
%ADD28C,1.2192X0.0000*%
%LNВерхний0*%
%LPD*%
G36*
X281734Y-85265D2*
X270724Y-85265D1*
X270208Y-85197D1*
X269727Y-84998D1*
X269313Y-84681D1*
X268996Y-84267D1*
X268797Y-83786D1*
X268729Y-83270D1*
X268729Y-72260D1*
X268797Y-71744D1*
X268996Y-71263D1*
X269313Y-70849D1*
X269727Y-70532D1*
X270208Y-70333D1*
X270724Y-70265D1*
X281734Y-70265D1*
X282250Y-70333D1*
X282731Y-70532D1*
X283145Y-70849D1*
X283462Y-71263D1*
X283661Y-71744D1*
X283729Y-72260D1*
X283729Y-83270D1*
X283661Y-83786D1*
X283462Y-84267D1*
X283145Y-84681D1*
X282731Y-84998D1*
X282250Y-85197D1*
X281734Y-85265D1*
G37*
%LNВерхний1*%
%LPD*%
G36*
X311999Y-68677D2*
X323009Y-68677D1*
X323525Y-68745D1*
X324006Y-68944D1*
X324420Y-69261D1*
X324737Y-69675D1*
X324936Y-70156D1*
X325004Y-70672D1*
X325004Y-81682D1*
X324936Y-82198D1*
X324737Y-82679D1*
X324420Y-83093D1*
X324006Y-83410D1*
X323525Y-83609D1*
X323009Y-83677D1*
X311999Y-83677D1*
X311483Y-83609D1*
X311002Y-83410D1*
X310588Y-83093D1*
X310271Y-82679D1*
X310072Y-82198D1*
X310004Y-81682D1*
X310004Y-70672D1*
X310072Y-70156D1*
X310271Y-69675D1*
X310588Y-69261D1*
X311002Y-68944D1*
X311483Y-68745D1*
X311999Y-68677D1*
G37*
%LNВерхний2*%
%LPD*%
G36*
X380159Y-83677D2*
X369149Y-83677D1*
X368633Y-83609D1*
X368152Y-83410D1*
X367738Y-83093D1*
X367421Y-82679D1*
X367222Y-82198D1*
X367154Y-81682D1*
X367154Y-70672D1*
X367222Y-70156D1*
X367421Y-69675D1*
X367738Y-69261D1*
X368152Y-68944D1*
X368633Y-68745D1*
X369149Y-68677D1*
X380159Y-68677D1*
X380675Y-68745D1*
X381156Y-68944D1*
X381570Y-69261D1*
X381887Y-69675D1*
X382086Y-70156D1*
X382154Y-70672D1*
X382154Y-81682D1*
X382086Y-82198D1*
X381887Y-82679D1*
X381570Y-83093D1*
X381156Y-83410D1*
X380675Y-83609D1*
X380159Y-83677D1*
G37*
%LNВерхний*%
%LPD*%
G54D10*
X493569Y-182887D3*
G54D11*
X636393Y335196D3*
X486393Y335196D3*
X336393Y335196D3*
X186393Y335196D3*
X1508129Y307998D3*
X935041Y287272D3*
G54D12*
X1017591Y-82527D3*
G54D13*
X165104Y147660D3*
G54D14*
X766318Y284036D3*
G54D15*
X2353543Y-217554D2*
X2353543Y-217554D1*
X2353543Y359746D2*
X2353543Y-217554D1*
X-36107Y359746D2*
X2353543Y359746D1*
X-36107Y-217554D2*
X-36107Y359746D1*
X2353543Y-217554D2*
X-36107Y-217554D1*
G54D16*
X2152942Y156712D2*
X2104887Y197977D1*
G75*
G01X2153598Y156119D2*
G03X2152942Y156712I-12057J-12684D1*
G74*
X2166941Y143435D2*
X2153598Y156119D1*
X2166941Y138435D2*
X2166941Y143435D1*
X2039941Y143435D2*
X2039941Y138435D1*
X2026598Y156119D2*
X2039941Y143435D1*
G75*
G01X2026598Y156119D2*
G03X2014541Y160935I-12057J-12684D1*
G74*
X1862141Y160935D2*
X2014541Y160935D1*
G75*
G01X1862141Y160935D2*
G03X1850084Y156119I0J-17500D1*
G74*
X1836741Y143435D2*
X1850084Y156119D1*
X1836741Y138435D2*
X1836741Y143435D1*
X519275Y-30984D2*
X519275Y-34484D1*
X509623Y-18655D2*
X519275Y-30984D1*
G75*
G01X509623Y-18655D2*
G03X493875Y-10984I-15748J-12329D1*
G74*
X443075Y-10984D2*
X493875Y-10984D1*
G75*
G01X443075Y-10984D2*
G03X433999Y-13162I0J-20000D1*
G74*
X324302Y-69028D2*
X433999Y-13162D1*
G75*
G01X324302Y-69028D2*
G03X324215Y-69100I118J-233D1*
G74*
X324213Y-69102D2*
X324215Y-69100D1*
X317504Y-76177D2*
X324213Y-69102D1*
X852467Y225617D2*
X835803Y193216D1*
X2061599Y51654D2*
X2072979Y49690D1*
G75*
G01X2045065Y69759D2*
G03X2061599Y51654I19936J1604D1*
G74*
X2039941Y133435D2*
X2045065Y69759D1*
X2039941Y138435D2*
X2039941Y133435D1*
X2080369Y58564D2*
X2072979Y49690D1*
G75*
G01X2080369Y58564D2*
G03X2080489Y58709I-15368J12799D1*
G74*
X2141541Y133435D2*
X2080489Y58709D1*
X2141541Y138435D2*
X2141541Y133435D1*
X2141541Y-146565D2*
X2141541Y-141565D1*
X2128198Y-159249D2*
X2141541Y-146565D1*
G75*
G01X2116141Y-164065D2*
G03X2128198Y-159249I0J17500D1*
G74*
X1989141Y-164065D2*
X2116141Y-164065D1*
G75*
G01X1977084Y-159249D2*
G03X1989141Y-164065I12057J12684D1*
G74*
X1963741Y-146565D2*
X1977084Y-159249D1*
X1963741Y-141565D2*
X1963741Y-146565D1*
X1816150Y160261D2*
X1546768Y237253D1*
G75*
G01X1823398Y156119D2*
G03X1816150Y160261I-12057J-12684D1*
G74*
X1836741Y143435D2*
X1823398Y156119D1*
X1836741Y138435D2*
X1836741Y143435D1*
X851113Y172310D2*
X835803Y193216D1*
G75*
G01X851113Y172310D2*
G03X871698Y164628I16136J11817D1*
G74*
X972692Y187672D2*
X871698Y164628D1*
G75*
G01X972692Y187672D2*
G03X980488Y190578I-7007J30711D1*
G74*
X1168891Y290880D2*
X980488Y190578D1*
X669531Y192165D2*
X835803Y193216D1*
G75*
G01X665364Y192415D2*
G03X669531Y192165I3968J31249D1*
G74*
X607411Y199774D2*
X665364Y192415D1*
X2141541Y-136565D2*
X2072979Y49690D1*
X2141541Y-141565D2*
X2141541Y-136565D1*
X421500Y185621D2*
X607411Y199774D1*
X884241Y287272D2*
X852467Y225617D1*
X1526330Y318926D2*
X1546768Y237253D1*
G75*
G01X1526330Y318926D2*
G03X1516629Y326498I-9701J-2428D1*
G74*
X1457329Y326498D2*
X1516629Y326498D1*
G75*
G01X1457329Y326498D2*
G03X1443855Y320674I0J-18500D1*
G74*
X1431929Y307998D2*
X1443855Y320674D1*
X1396621Y92010D2*
X1546768Y237253D1*
G75*
G01X1366968Y94056D2*
G03X1396621Y92010I15748J12329D1*
G74*
X1357316Y106385D2*
X1366968Y94056D1*
X1431929Y307998D2*
X1168891Y290880D1*
X2065341Y133435D2*
X2065001Y71363D1*
X2065341Y138435D2*
X2065341Y133435D1*
X2065341Y143435D2*
X2065341Y138435D1*
X2085940Y204381D2*
X2065341Y143435D1*
G75*
G01X2118539Y212593D2*
G03X2085940Y204381I-13652J-14616D1*
G74*
X2178887Y156224D2*
X2118539Y212593D1*
G75*
G01X2184441Y143435D2*
G03X2178887Y156224I-17500J0D1*
G74*
X2184441Y133435D2*
X2184441Y143435D1*
G75*
G01X2184404Y132301D2*
G03X2184441Y133435I-17463J1134D1*
G74*
X2166941Y-136565D2*
X2184404Y132301D1*
X2166941Y-141565D2*
X2166941Y-136565D1*
X2166941Y-146565D2*
X2166941Y-141565D1*
X2153598Y-159249D2*
X2166941Y-146565D1*
G75*
G01X2150153Y-161799D2*
G03X2153598Y-159249I-8612J15234D1*
G74*
X2130905Y-172681D2*
X2150153Y-161799D1*
G75*
G01X2116141Y-176565D2*
G03X2130905Y-172681I0J30000D1*
G74*
X1989141Y-176565D2*
X2116141Y-176565D1*
G75*
G01X1974377Y-172681D2*
G03X1989141Y-176565I14764J26116D1*
G74*
X1955129Y-161799D2*
X1974377Y-172681D1*
G75*
G01X1951684Y-159249D2*
G03X1955129Y-161799I12057J12684D1*
G74*
X1938341Y-146565D2*
X1951684Y-159249D1*
X1938341Y-141565D2*
X1938341Y-146565D1*
X909641Y287272D2*
X916193Y241648D1*
X1395045Y116037D2*
X1382716Y106385D1*
G75*
G01X1395045Y116037D2*
G03X1400042Y121794I-12329J15748D1*
G74*
X1501795Y298249D2*
X1400042Y121794D1*
G75*
G01X1501795Y298249D2*
G03X1502129Y299498I-2166J1249D1*
G74*
X1502129Y301998D2*
X1502129Y299498D1*
X1508129Y307998D2*
X1502129Y301998D1*
X443075Y-37984D2*
X443075Y-34484D1*
X382007Y-69905D2*
X443075Y-37984D1*
X382002Y-69907D2*
X382007Y-69905D1*
X381986Y-69915D2*
X382002Y-69907D1*
X374654Y-76177D2*
X381986Y-69915D1*
X1001998Y-113130D2*
X828657Y-71318D1*
G75*
G01X1001998Y-113130D2*
G03X1002585Y-113200I587J2435D1*
G74*
X1235573Y-113200D2*
X1002585Y-113200D1*
G75*
G01X1235573Y-113200D2*
G03X1236038Y-113156I0J2505D1*
G74*
X1287483Y-103435D2*
X1236038Y-113156D1*
X443075Y-37984D2*
X443075Y-34484D1*
X452727Y-50313D2*
X443075Y-37984D1*
G75*
G01X452727Y-50313D2*
G03X459420Y-55817I15748J12329D1*
G74*
X499806Y-76324D2*
X459420Y-55817D1*
G75*
G01X499806Y-76324D2*
G03X517393Y-80943I19469J38340D1*
G74*
X700415Y-88960D2*
X517393Y-80943D1*
G75*
G01X700415Y-88960D2*
G03X710052Y-86935I868J19812D1*
G74*
X710265Y-86830D2*
X710052Y-86935D1*
G75*
G01X720466Y-83824D2*
G03X710265Y-86830I3578J-30956D1*
G74*
X828657Y-71318D2*
X720466Y-83824D1*
X1337428Y-20959D2*
X1287483Y-103435D1*
X2117026Y187553D2*
X2103238Y190661D1*
X2117026Y187553D2*
X2111870Y200713D1*
X845149Y211389D2*
X844968Y225521D1*
X845149Y211389D2*
X856750Y219461D1*
X1154768Y283361D2*
X1162675Y295076D1*
X1154768Y283361D2*
X1168901Y283380D1*
X623284Y197758D2*
X610064Y192759D1*
X623284Y197758D2*
X611734Y205903D1*
X591457Y198559D2*
X603402Y206113D1*
X591457Y198559D2*
X604408Y192901D1*
X437454Y186836D2*
X425509Y179282D1*
X437454Y186836D2*
X424503Y192494D1*
X859797Y239839D2*
X859967Y225707D1*
X859797Y239839D2*
X848189Y231777D1*
X877644Y274472D2*
X878248Y287549D1*
X877644Y274472D2*
X887944Y282551D1*
X1441796Y318486D2*
X1437615Y306082D1*
X1441796Y318486D2*
X1429669Y313556D1*
X1366968Y94056D2*
X1354347Y99498D1*
X1366968Y94056D2*
X1364715Y107614D1*
X1184857Y291919D2*
X1172829Y284497D1*
X1184857Y291919D2*
X1171969Y297719D1*
X1417559Y307063D2*
X1429080Y313279D1*
X1417559Y307063D2*
X1429788Y302393D1*
X2065089Y87363D2*
X2071645Y74843D1*
X2065089Y87363D2*
X2058395Y74915D1*
X913919Y257486D2*
X922251Y246070D1*
X913919Y257486D2*
X909135Y244186D1*
X911688Y273018D2*
X904597Y284022D1*
X911688Y273018D2*
X915395Y285572D1*
X1395045Y116037D2*
X1389603Y103416D1*
X1395045Y116037D2*
X1381487Y113784D1*
X844211Y-75070D2*
X830521Y-78582D1*
X844211Y-75070D2*
X833629Y-65702D1*
X1271761Y-106406D2*
X1282798Y-97578D1*
X1271761Y-106406D2*
X1285258Y-110598D1*
X812763Y-73155D2*
X824404Y-65141D1*
X812763Y-73155D2*
X825926Y-78303D1*
X1295771Y-89749D2*
X1294971Y-103860D1*
X1295771Y-89749D2*
X1283637Y-96996D1*
X1329140Y-34645D2*
X1329940Y-20534D1*
X1329140Y-34645D2*
X1341274Y-27398D1*
G54D17*
X592979Y55182D2*
X522029Y131898D1*
X668092Y-47853D2*
X701283Y-69148D1*
G75*
G01X668092Y-47853D2*
G03X655753Y-44850I-10530J-16413D1*
G74*
X521084Y-57400D2*
X655753Y-44850D1*
G75*
G01X504305Y-50479D2*
G03X521084Y-57400I14970J12495D1*
G74*
X493875Y-37984D2*
X504305Y-50479D1*
X493875Y-34484D2*
X493875Y-37984D1*
X520336Y-68966D2*
X657562Y-64266D1*
G75*
G01X505240Y-65625D2*
G03X520336Y-68966I14035J27641D1*
G74*
X485046Y-55371D2*
X505240Y-65625D1*
G75*
G01X478905Y-50479D2*
G03X485046Y-55371I14970J12495D1*
G74*
X468475Y-37984D2*
X478905Y-50479D1*
X468475Y-34484D2*
X468475Y-37984D1*
X2065341Y-136565D2*
X2070736Y-70315D1*
X2065341Y-141565D2*
X2065341Y-136565D1*
X1298913Y-10136D2*
X1289790Y-56761D1*
X1077075Y103044D2*
X1104030Y116266D1*
G75*
G01X1068573Y101051D2*
G03X1077075Y103044I-86J19500D1*
G74*
X761562Y99690D2*
X1068573Y101051D1*
G75*
G01X758181Y99970D2*
G03X761562Y99690I3295J19220D1*
G74*
X717230Y106991D2*
X758181Y99970D1*
X761476Y119190D2*
X1028629Y133459D1*
X1028629Y133459D2*
X1068487Y120551D1*
X2039941Y-136565D2*
X1999705Y-10251D1*
X2039941Y-141565D2*
X2039941Y-136565D1*
X1524485Y337048D2*
X1769050Y243553D1*
G75*
G01X1524485Y337048D2*
G03X1516629Y338498I-7856J-20550D1*
G74*
X1457329Y338498D2*
X1516629Y338498D1*
G75*
G01X1457329Y338498D2*
G03X1454364Y338354I0J-30500D1*
G74*
X1166996Y310288D2*
X1454364Y338354D1*
G75*
G01X1166996Y310288D2*
G03X1159127Y307759I1895J-19408D1*
G74*
X975449Y201504D2*
X1159127Y307759D1*
G75*
G01X968535Y199092D2*
G03X975449Y201504I-2850J19291D1*
G74*
X867249Y184127D2*
X968535Y199092D1*
X631983Y6056D2*
X619373Y23020D1*
G75*
G01X631983Y6056D2*
G03X638220Y612I15650J11634D1*
G74*
X710264Y-39096D2*
X638220Y612D1*
G75*
G01X710264Y-39096D2*
G03X727619Y-39827I9413J17078D1*
G74*
X881276Y28694D2*
X727619Y-39827D1*
G75*
G01X881821Y28849D2*
G03X881276Y28694I272J-1986D1*
G74*
X1077383Y55658D2*
X881821Y28849D1*
G75*
G01X1077383Y55658D2*
G03X1081952Y56450I-8896J64893D1*
G74*
X1115131Y63419D2*
X1081952Y56450D1*
G75*
G01X1115131Y63419D2*
G03X1123669Y65964I-11101J52847D1*
G74*
X1357316Y157185D2*
X1123669Y65964D1*
X878458Y51602D2*
X647633Y17690D1*
G75*
G01X878697Y51636D2*
G03X878458Y51602I3396J-24773D1*
G74*
X1074259Y78445D2*
X878697Y51636D1*
G75*
G01X1074259Y78445D2*
G03X1077224Y78959I-5772J42106D1*
G74*
X1110403Y85928D2*
X1077224Y78959D1*
G75*
G01X1110403Y85928D2*
G03X1117519Y88355I-6373J30338D1*
G74*
X1348831Y200142D2*
X1117519Y88355D1*
G75*
G01X1357316Y202085D2*
G03X1348831Y200142I0J-19500D1*
G74*
X1382716Y202085D2*
X1357316Y202085D1*
G75*
G01X1395211Y167615D2*
G03X1382716Y202085I-12495J14970D1*
G74*
X1382716Y157185D2*
X1395211Y167615D1*
X877184Y39444D2*
X719677Y-22018D1*
G75*
G01X880259Y40243D2*
G03X877184Y39444I1834J-13380D1*
G74*
X1075821Y67051D2*
X880259Y40243D1*
G75*
G01X1075821Y67051D2*
G03X1079588Y67704I-7334J53500D1*
G74*
X1112767Y74674D2*
X1079588Y67704D1*
G75*
G01X1112767Y74674D2*
G03X1121326Y77445I-8737J41592D1*
G74*
X1357316Y182585D2*
X1121326Y77445D1*
X1071398Y89688D2*
X757595Y60095D1*
G75*
G01X1071398Y89688D2*
G03X1074860Y90213I-2911J30863D1*
G74*
X1108039Y97182D2*
X1074860Y90213D1*
G75*
G01X1108039Y97182D2*
G03X1112515Y98709I-4009J19084D1*
G74*
X1343827Y210496D2*
X1112515Y98709D1*
G75*
G01X1357316Y213585D2*
G03X1343827Y210496I0J-31000D1*
G74*
X1382716Y213585D2*
X1357316Y213585D1*
G75*
G01X1410357Y168550D2*
G03X1382716Y213585I-27641J14035D1*
G74*
X1400103Y148356D2*
X1410357Y168550D1*
G75*
G01X1395211Y142215D2*
G03X1400103Y148356I-12495J14970D1*
G74*
X1382716Y131785D2*
X1395211Y142215D1*
X1123542Y53740D2*
X909742Y-12979D1*
G75*
G01X1123542Y53740D2*
G03X1124775Y54138I-19512J62526D1*
G74*
X1357316Y131785D2*
X1124775Y54138D1*
X941686Y278025D2*
X965685Y218383D1*
G75*
G01X941541Y278772D2*
G03X941686Y278025I2000J0D1*
G74*
X941541Y280772D2*
X941541Y278772D1*
X935041Y287272D2*
X941541Y280772D1*
X675615Y205204D2*
X715479Y218773D1*
G75*
G01X664321Y204819D2*
G03X675615Y205204I5011J18845D1*
G74*
X612422Y218619D2*
X664321Y204819D1*
G75*
G01X612422Y218619D2*
G03X609137Y219197I-5011J-18845D1*
G74*
X334471Y243606D2*
X609137Y219197D1*
X840347Y270649D2*
X715479Y218773D1*
G75*
G01X840347Y270649D2*
G03X846197Y274572I-6906J16623D1*
G74*
X858841Y287272D2*
X846197Y274572D1*
X611053Y230559D2*
X669332Y223664D1*
X611049Y230560D2*
X611053Y230559D1*
X336759Y262971D2*
X611049Y230560D1*
G75*
G01X336759Y262971D2*
G03X330893Y262775I-2288J-19365D1*
G74*
X253420Y248314D2*
X330893Y262775D1*
X833441Y287272D2*
X669332Y223664D1*
X1301504Y9191D2*
X1447112Y-10332D1*
G75*
G01X1301504Y9191D2*
G03X1296815Y9251I-2591J-19327D1*
G74*
X723012Y-52838D2*
X1296815Y9251D1*
G75*
G01X704713Y-49167D2*
G03X723012Y-52838I14964J27149D1*
G74*
X632669Y-9459D2*
X704713Y-49167D1*
G75*
G01X630185Y-7934D2*
G03X632669Y-9459I17448J25624D1*
G74*
X608398Y6902D2*
X630185Y-7934D1*
G75*
G01X602527Y32841D2*
G03X608398Y6902I16846J-9821D1*
G74*
X609825Y45361D2*
X602527Y32841D1*
G75*
G01X609825Y45361D2*
G03X611691Y49696I-16846J9821D1*
G74*
X634893Y128836D2*
X611691Y49696D1*
X724044Y-114780D2*
X564863Y-120299D1*
X563871Y-100824D2*
X538459Y-102119D1*
G75*
G01X564865Y-100799D2*
G03X563871Y-100824I-2J-19500D1*
G74*
X701280Y-100810D2*
X564865Y-100799D1*
G75*
G01X701280Y-100810D2*
G03X715283Y-97547I3J31662D1*
G74*
X715496Y-97441D2*
X715283Y-97547D1*
G75*
G01X725525Y-95506D2*
G03X715496Y-97441I-1481J-19274D1*
G74*
X767731Y-98749D2*
X725525Y-95506D1*
X724782Y-134266D2*
X601677Y-138928D1*
G75*
G01X724782Y-134266D2*
G03X725908Y-134191I-738J19486D1*
G74*
X745978Y-132263D2*
X725908Y-134191D1*
X283001Y-84897D2*
X326167Y-113616D1*
X282947Y-84850D2*
X283001Y-84897D1*
X282938Y-84839D2*
X282947Y-84850D1*
X276229Y-77765D2*
X282938Y-84839D1*
X532078Y121032D2*
X520024Y124153D1*
X532078Y121032D2*
X529906Y133293D1*
X582930Y66048D2*
X594984Y62927D1*
X582930Y66048D2*
X585102Y53787D1*
X688826Y-61156D2*
X701277Y-61148D1*
X688826Y-61156D2*
X694009Y-72478D1*
X642771Y-64773D2*
X653009Y-57688D1*
X642771Y-64773D2*
X653471Y-71140D1*
X2069535Y-85066D2*
X2063677Y-74079D1*
X2069535Y-85066D2*
X2077093Y-75171D1*
X1292632Y-42236D2*
X1297225Y-53809D1*
X1292632Y-42236D2*
X1284015Y-51225D1*
X1296071Y-24661D2*
X1291478Y-13088D1*
X1296071Y-24661D2*
X1304688Y-15672D1*
X1090742Y109748D2*
X1097183Y120405D1*
X1090742Y109748D2*
X1103111Y108319D1*
X731817Y104490D2*
X720355Y99626D1*
X731817Y104490D2*
X722629Y112894D1*
X1013850Y132670D2*
X1023952Y139949D1*
X1013850Y132670D2*
X1024670Y126507D1*
X776255Y119979D2*
X766153Y112700D1*
X776255Y119979D2*
X765435Y126142D1*
X1054407Y125111D2*
X1066447Y128286D1*
X1054407Y125111D2*
X1062299Y115480D1*
X1042709Y128899D2*
X1030669Y125724D1*
X1042709Y128899D2*
X1034817Y138530D1*
X2004197Y-24353D2*
X1994604Y-16414D1*
X2004197Y-24353D2*
X2007430Y-12328D1*
X1755226Y248838D2*
X1767414Y251384D1*
X1755226Y248838D2*
X1762608Y238810D1*
X881890Y186290D2*
X872511Y178101D1*
X881890Y186290D2*
X870543Y191417D1*
X628202Y11142D2*
X616551Y15534D1*
X628202Y11142D2*
X627355Y23564D1*
X1343529Y151802D2*
X1350840Y161882D1*
X1343529Y151802D2*
X1355736Y149342D1*
X662276Y19841D2*
X652889Y11659D1*
X662276Y19841D2*
X650933Y24977D1*
X1394078Y166669D2*
X1390349Y154789D1*
X1394078Y166669D2*
X1381723Y165123D1*
X733464Y-16638D2*
X726152Y-26716D1*
X733464Y-16638D2*
X721258Y-14176D1*
X1343797Y176562D2*
X1350627Y186973D1*
X1343797Y176562D2*
X1356105Y174677D1*
X772330Y61485D2*
X762532Y53800D1*
X772330Y61485D2*
X761268Y67202D1*
X1394078Y141269D2*
X1390349Y129389D1*
X1394078Y141269D2*
X1381723Y139723D1*
X923870Y-8570D2*
X915875Y-18116D1*
X923870Y-8570D2*
X911865Y-5266D1*
X1343278Y127098D2*
X1351083Y136800D1*
X1343278Y127098D2*
X1355345Y124032D1*
X960160Y232113D2*
X970315Y224908D1*
X960160Y232113D2*
X957827Y219882D1*
X701468Y214004D2*
X709216Y223752D1*
X701468Y214004D2*
X713554Y211008D1*
X349213Y242296D2*
X338182Y236519D1*
X349213Y242296D2*
X339374Y249927D1*
X729146Y224451D2*
X722054Y214217D1*
X729146Y224451D2*
X716890Y226647D1*
X849457Y277847D2*
X852581Y289022D1*
X849457Y277847D2*
X860619Y281020D1*
X654635Y225403D2*
X665829Y230856D1*
X654635Y225403D2*
X664247Y217488D1*
X267969Y251030D2*
X258906Y242492D1*
X267969Y251030D2*
X256436Y255724D1*
X683132Y229013D2*
X675797Y218951D1*
X683132Y229013D2*
X670931Y231503D1*
X821040Y282465D2*
X828429Y291412D1*
X821040Y282465D2*
X832529Y280836D1*
X1432443Y-8365D2*
X1443721Y-3086D1*
X1432443Y-8365D2*
X1441931Y-16428D1*
X630729Y114634D2*
X627217Y126580D1*
X630729Y114634D2*
X640135Y122792D1*
X579654Y-119786D2*
X569418Y-126875D1*
X579654Y-119786D2*
X568952Y-113423D1*
X709253Y-115293D2*
X719489Y-108204D1*
X709253Y-115293D2*
X719955Y-121656D1*
X553240Y-101366D2*
X543120Y-108621D1*
X553240Y-101366D2*
X542436Y-95177D1*
X752974Y-97615D2*
X763935Y-91707D1*
X752974Y-97615D2*
X762903Y-105129D1*
X616466Y-138368D2*
X606253Y-145490D1*
X616466Y-138368D2*
X605743Y-132038D1*
X731246Y-133678D2*
X741031Y-125976D1*
X731246Y-133678D2*
X742317Y-139376D1*
X313845Y-105418D2*
X326295Y-105617D1*
X313845Y-105418D2*
X318839Y-116825D1*
G54D18*
X1382716Y182585D3*
X1382716Y157185D3*
X1382716Y131785D3*
X1382716Y106385D3*
X1357316Y182585D3*
X1357316Y157185D3*
X1357316Y131785D3*
X1357316Y106385D3*
X519275Y-37984D2*
X519275Y-30984D1*
X493875Y-37984D2*
X493875Y-30984D1*
X468475Y-37984D2*
X468475Y-30984D1*
X443075Y-37984D2*
X443075Y-30984D1*
X701283Y-69148D3*
X657562Y-64266D3*
X669332Y223664D3*
X1447112Y-10332D3*
X2070736Y-70315D3*
X326167Y-113616D3*
X1168891Y290880D3*
X965685Y218383D3*
X852467Y225617D3*
X1999705Y-10251D3*
X607411Y199774D3*
X828657Y-71318D3*
X1287483Y-103435D3*
X715479Y218773D3*
X1104030Y116266D3*
X1068487Y120551D3*
X421500Y185621D3*
X522029Y131898D3*
X592979Y55182D3*
X717230Y106991D3*
X1028629Y133459D3*
X761476Y119190D3*
X1769050Y243553D3*
X867249Y184127D3*
X2104887Y197977D3*
X619373Y23020D3*
X647633Y17690D3*
X719677Y-22018D3*
X757595Y60095D3*
X909742Y-12979D3*
X334471Y243606D3*
X253420Y248314D3*
X634893Y128836D3*
X564863Y-120299D3*
X724044Y-114780D3*
X538459Y-102119D3*
X767731Y-98749D3*
X601677Y-138928D3*
X745978Y-132263D3*
X2065001Y71363D3*
X916193Y241648D3*
X1337428Y-20959D3*
X1298913Y-10136D3*
X1289790Y-56761D3*
G54D20*
X633569Y-182887D3*
X598569Y-182887D3*
X563569Y-182887D3*
X528569Y-182887D3*
G54D21*
X591393Y335196D3*
X441393Y335196D3*
X291393Y335196D3*
X141393Y335196D3*
X1431929Y307998D3*
X1457329Y307998D3*
X1482729Y307998D3*
X833441Y287272D3*
X858841Y287272D3*
X884241Y287272D3*
X909641Y287272D3*
G54D22*
X1217591Y-82527D3*
G54D23*
X230104Y147660D3*
G54D24*
X2316169Y-187297D3*
X2316169Y327053D3*
X4769Y-187297D3*
X4769Y327053D3*
G54D25*
X1938341Y-146565D2*
X1938341Y-136565D1*
X1963741Y-146565D2*
X1963741Y-136565D1*
X2141541Y-146565D2*
X2141541Y-136565D1*
X2166941Y-146565D2*
X2166941Y-136565D1*
X2141541Y133435D2*
X2141541Y143435D1*
X2065341Y133435D2*
X2065341Y143435D1*
X2039941Y133435D2*
X2039941Y143435D1*
X1963741Y133435D2*
X1963741Y143435D1*
X1938341Y133435D2*
X1938341Y143435D1*
X1912941Y133435D2*
X1912941Y143435D1*
X1887541Y133435D2*
X1887541Y143435D1*
X1862141Y133435D2*
X1862141Y143435D1*
X1811341Y-146565D2*
X1811341Y-136565D1*
X1836741Y-146565D2*
X1836741Y-136565D1*
X1862141Y-146565D2*
X1862141Y-136565D1*
X1912941Y-146565D2*
X1912941Y-136565D1*
X1887541Y-146565D2*
X1887541Y-136565D1*
X1989141Y-146565D2*
X1989141Y-136565D1*
X2014541Y-146565D2*
X2014541Y-136565D1*
X2039941Y-146565D2*
X2039941Y-136565D1*
X2065341Y-146565D2*
X2065341Y-136565D1*
X2090741Y-146565D2*
X2090741Y-136565D1*
X2116141Y-146565D2*
X2116141Y-136565D1*
X2166941Y133435D2*
X2166941Y143435D1*
X2116141Y133435D2*
X2116141Y143435D1*
X2090741Y133435D2*
X2090741Y143435D1*
X2014541Y133435D2*
X2014541Y143435D1*
X1989141Y133435D2*
X1989141Y143435D1*
X1836741Y133435D2*
X1836741Y143435D1*
X1811341Y133435D2*
X1811341Y143435D1*
X1292229Y232470D2*
X1292229Y237470D1*
X1266829Y232468D2*
X1266829Y237468D1*
X1241429Y232473D2*
X1241429Y237473D1*
X1216029Y232473D2*
X1216029Y237473D1*
X1190629Y232473D2*
X1190629Y237473D1*
X1165229Y232473D2*
X1165229Y237473D1*
X740918Y284036D3*
G54D26*
X648893Y310196D3*
X578893Y310196D3*
X498893Y310196D3*
X428893Y310196D3*
X348893Y310196D3*
X278893Y310196D3*
X198893Y310196D3*
X128893Y310196D3*
G54D27*
X2249141Y-126565D3*
X1729141Y-126565D3*
X1729141Y123435D3*
X2249141Y123435D3*
G54D28*
X895570Y15253D3*
X943830Y15253D3*
M02*
